<svg width="10" height="10" fill="none" xmlns="http://www.w3.org/2000/svg"><g clip-path="url(#clip0)"><path d="M4.998 5.963l3.741-3.74a.542.542 0 01.387-.16.54.54 0 01.387.16l.327.327c.103.103.16.24.16.387a.543.543 0 01-.16.387L5.386 7.778a.543.543 0 01-.388.16.543.543 0 01-.388-.16L.16 3.328A.543.543 0 010 2.94c0-.146.057-.284.16-.387l.327-.327a.548.548 0 01.774 0l3.737 3.736z" fill="#F7971D"/></g><defs><clipPath id="clip0"><path transform="matrix(0 -1 -1 0 10 10)" fill="#fff" d="M0 0h10v10H0z"/></clipPath></defs></svg>