<svg width="667" height="529" fill="none" xmlns="http://www.w3.org/2000/svg"><g clip-path="url(#clip0)"><path d="M300.495 97.815v111.048m-72.447 32.51l72.447 7.068 120.108-15.343m-120.108 15.343v154.53m19.661-31.711l-19.661-2.185" stroke="#050505" stroke-linecap="round" stroke-linejoin="round"/><path d="M300.495 116.986l-153.293 58.976v193.113l153.293 24.657m120.108 48.169l171.628-45.215V145.487L420.603 46.195V441.9z" stroke="#050505" stroke-linecap="round" stroke-linejoin="round"/><path d="M592.231 358.344l-171.628 24.084-23.34-2.592M300.495 97.815l-3.86-5.26 123.968-54.198 176.92 104.191-5.292 2.939-171.628-99.292-120.108 51.62zm120.108-59.458v7.838m0 166.617l-63.16-15.63-129.395 26.527v17.664l129.139-19.729 63.416 11.454v-20.286zm-63.16-15.63l-.256 24.477m-56.692 141.99l-153.308-14.318m250.076 64.476V270.838l-77.107 4.476v125.019l77.107 13.474z" stroke="#050505" stroke-linecap="round" stroke-linejoin="round"/><path d="M397.263 437.41l-52.802 13.489-75.237-18.78v-12.554l24.049-3.602v-11.44l30.08-4.687V276.701l73.91-4.552" stroke="#050505" stroke-linecap="round" stroke-linejoin="round"/><path d="M293.273 404.523l78.072 14.71 25.918-5.426v23.603l23.34 4.491" stroke="#050505" stroke-linecap="round" stroke-linejoin="round"/><path d="M371.345 419.233v12.359l-78.072-15.629m78.072 15.629l-26.884 4.717-75.237-16.744m50.932-144.251l3.197 1.387m8.413 8.62l55.561-2.185v19.94h-55.561v-17.755zm0 28.23v16.066l55.561 1.643v-17.122l-55.561-.587zm8.067-76.61c0 2.111-10.238 3.829-22.858 3.829-12.62 0-22.872-1.718-22.872-3.829 0-2.11 10.237-3.843 22.872-3.843s22.858 1.718 22.858 3.843zm61.727 73.746l14.851-.452v20.573l-14.851-.422v-19.699z" stroke="#050505" stroke-linecap="round" stroke-linejoin="round"/><path d="M404.756 313.837v4.748l8.67-.181v-4.853l-8.67.286zm8.851 7.777h-8.851m8.67 2.879h-8.67m8.67 2.682l-8.67-.15" stroke="#050505" stroke-linecap="round" stroke-linejoin="round"/><path d="M470.389 262.654v84.476l90.224-5.727v-66.089l-90.224-12.66z" stroke="#FFBE2E" stroke-linecap="round" stroke-linejoin="round"/><path d="M470.389 345.593l85.821-4.627v-66.27m0 66.27l4.403.437m-41.252-71.877v73.429m2.111-.12v-73.022m39.141-36.79l-90.224-22.155v-89.074l90.224 41.658v69.571z" stroke="#FFBE2E" stroke-linecap="round" stroke-linejoin="round"/><path d="M556.21 231.953v-67.416l-85.821-37.694m85.821 37.694l4.403-1.085m-39.141 59.97v-74.137m-2.111 73.61V148.35" stroke="#FFBE2E" stroke-linecap="round" stroke-linejoin="round"/><path d="M394.293 49.857v-11.5L324.876.377l-60.597 35.946v7.385l22.556 8.877v65.019" stroke="#050505" stroke-linecap="round" stroke-linejoin="round"/><path d="M292.64 115.343V49.51l-5.805 3.075m5.805-3.075l44.765 19.473m0 5.742v-48.62l7.991-4.176v49.3" stroke="#050505" stroke-linecap="round" stroke-linejoin="round"/><path d="M345.396 21.93l-20.505-11.47-60.612 33.248M324.876.377l.015 10.083m-59.677 262.895v64.476l-97.491-4.22v-51.183l97.491-9.073z" stroke="#050505" stroke-linecap="round" stroke-linejoin="round"/><path d="M167.723 282.428l3.302.859 94.189-8.727m-94.189 8.727v50.46m42.91-54.439v56.293m-2.277-56.082v55.991m-43.935-104.522v-46.677l97.491-34.016v59.126l-97.491 21.567zm46.212-10.233v-49.933m-2.277 50.445v-49.661" stroke="#050505" stroke-linecap="round" stroke-linejoin="round"/><path d="M265.214 153.339l-94.642 32.268v44.748m129.923-118.071l-157.319 61.191 4.026 2.487m20.521 8.349l2.849 1.296m148.831-65.124v69.435l29.084-6.556V109.48l-29.084 11.003zm74.89-26.963l-35.749 12.871v75.418l35.749-7.4v-80.89z" stroke="#050505" stroke-linecap="round" stroke-linejoin="round"/><path d="M323.473 189.074v-65.939l25.014-8.53m-29.084 5.878l4.07 2.652m35.071-16.744l5.775 2.848 29.974-10.248m-29.975 10.248v71.289m227.913 216.158l74.392 6.285v14.167L413.426 528.623.377 392.044v-11.349l146.825-11.62" stroke="#050505" stroke-linecap="round" stroke-linejoin="round"/><path d="M666.623 402.971l-253.197 98.327L.377 380.695m413.049 120.603v27.325" stroke="#050505" stroke-linecap="round" stroke-linejoin="round"/><path d="M560.5 163.5l-90-41.5v4.5l85.5 38 4.5-1zm0 0l-4 1V232l4 1v-69.5z" fill="#F7971D"/><path d="M522 149.5l-2.5-1.5-.5 74.5 3 1v-74zm-.5 120h-2V343h2v-73.5zM561 276l-4.5-1.5-.5 66 5 1V276zm-36.5 67l-53.5 3v2l53.5-5z" fill="#F7971D"/><path d="M358.5 106.5l6 3 29.5-10v-6l-35.5 13zM319 120.188l5.577 2.812L348 115.125V109.5l-29 10.688zm45.5 60.312L358 182v-75.5l6.5 3v71z" fill="#050505"/><path d="M323.5 188.5L319 190l.5-70 4 3v65.5zm-156-4v46h3V186l41-14v48.5h2.5V171l51-17.5v-3l-97.5 34zm0 98v51h3.5v-50l40.5-4v56l2.5.156V279.5l51-5v-1l-97.5 9zM323 400l-3 .5.5-125L397 271v1.5l-73.5 4.5-.5 123z" fill="#050505"/></g><defs><clipPath id="clip0"><path fill="#fff" d="M0 0h667v529H0z"/></clipPath></defs></svg>