<svg width="18" height="18" fill="none" xmlns="http://www.w3.org/2000/svg"><path d="M2.637 18h5.87v-6.398H6.399v-2.11h2.11V6.855a2.64 2.64 0 012.637-2.636h2.636v2.11h-2.11c-.58 0-1.054.472-1.054 1.054v2.11h3.07l-.352 2.109h-2.718V18h4.746A2.64 2.64 0 0018 15.363V2.637A2.64 2.64 0 0015.363 0H2.637A2.64 2.64 0 000 2.637v12.726A2.64 2.64 0 002.637 18zM1.055 2.637c0-.873.71-1.582 1.582-1.582h12.726c.873 0 1.582.71 1.582 1.582v12.726c0 .873-.71 1.582-1.582 1.582h-3.691v-4.289h2.556l.703-4.219h-3.26V7.383h3.165V3.164h-3.691a3.696 3.696 0 00-3.692 3.691v1.582h-2.11v4.22h2.11v4.288H2.637c-.873 0-1.582-.71-1.582-1.582V2.637z" fill="#F7971D"/></svg>