<svg width="12" height="20" fill="none" xmlns="http://www.w3.org/2000/svg"><path d="M6 20c-3.309 0-6-2.803-6-6.25V4.792c0-.345.269-.625.6-.625.331 0 .6.28.6.625v8.958c0 2.758 2.153 5 4.8 5s4.8-2.242 4.8-5V4.583c0-1.838-1.435-3.333-3.2-3.333-1.765 0-3.2 1.495-3.2 3.333v8.334c0 .919.718 1.666 1.6 1.666.882 0 1.6-.747 1.6-1.666V4.792c0-.345.269-.625.6-.625.331 0 .6.28.6.625v8.125c0 1.608-1.256 2.916-2.8 2.916-1.544 0-2.8-1.308-2.8-2.916V4.583C3.2 2.057 5.174 0 7.6 0S12 2.057 12 4.583v9.167C12 17.197 9.309 20 6 20z" fill="#F7971D"/></svg>