<svg width="126" height="157" fill="none" xmlns="http://www.w3.org/2000/svg"><path d="M64.296 123.623l-15.698-9.255v-17.01l15.698 9.255v17.01zm-15.117-9.612l14.498 8.551v-15.597L49.179 98.42v15.591z" fill="#fff"/><path d="M62.142 120.083l-11.413-6.786v-12.104l11.413 6.785v12.105zm-10.813-7.138l10.213 6.072v-10.706l-10.213-6.072v10.706zm-10.757-10.508L22.15 91.432V71.317l18.446 11.01-.023 20.11zM22.726 91.08l17.242 10.291V82.679L22.726 72.387V91.08z" fill="#fff"/><path d="M38.518 98.637l-14.342-8.56V75.069l14.342 8.56v15.008zm-13.742-8.912l13.142 7.841v-13.59l-13.142-7.837v13.586zm-4.756.496l-4.366-2.57V67.516l4.365 2.576v20.13zm-3.78-2.927l3.165 1.866V70.463l-3.165-1.866v18.697z" fill="#fff"/><path d="M1.818 94.61l10.979-6.385v7.055l31.82 18.751v5.854L1.817 94.61z" fill="#565656"/><path d="M44.919 120.252v-8.237l-31.82-18.746v-7.427L1.516 92.594v9.968l37.318 22.04-.165-.806-36.553-21.591v-8.902l14.417 8.517 27.78 16.396v1.061l.605.975zm-9.84-8.199l-32.66-19.29 10.08-5.86v6.704l31.82 18.76v5.145l-9.24-5.459z" fill="#fff"/><path d="M73.739 123.941v-13.793l.15-.086 14.824-8.604v13.802l-.151.087-14.823 8.594zm.6-13.455v12.399l13.774-7.991v-12.38l-13.775 7.972z" fill="#FFBE2E"/><path d="M75.864 120.343v-9.076l10.723-6.187v9.071l-10.723 6.192zm.6-8.719v7.668l9.51-5.479v-7.667l-9.51 5.478zm14.077 2.522v-13.807l.151-.092 14.824-8.618v13.807l-.151.087-14.824 8.623zm.6-13.455v12.404l13.775-7.996V92.7l-13.775 7.991z" fill="#FFBE2E"/><path d="M39.566 124.486l5.06-2.942 24.129 14.333 42.051-24.735v-6.685l10.138 6.183-52.463 30.865-28.915-17.019z" fill="#565656"/><path d="M7.973 94.108a2.425 2.425 0 01-1.228-.308 1.045 1.045 0 01-.423-.364 1.075 1.075 0 01-.181-.533V53.049l3.651 1.5v38.358c-.011.19-.072.374-.177.532a1.05 1.05 0 01-.418.365 2.43 2.43 0 01-1.224.304zM6.75 53.951v38.952c0 .12.109.255.298.37a2.067 2.067 0 001.856 0c.189-.115.298-.25.298-.37V54.978L6.75 53.95z" fill="#fff"/><path d="M62.827 87.964L103.9 63.736 73.12.294 72.978 0 31.904 24.229l-.297.173-.199.179L.628 51.776l61.56 36.285.1.212.128-.077.708.42-.297-.652zM32.193 24.788L72.746.858l30.369 62.636-40.55 23.92L39.68 40.299l-7.487-15.51zm-.473.367l30.025 61.927L1.658 51.679 31.72 25.155z" fill="#fff"/><path d="M14.114 51.766l36.053 21.128 1.152 2.734.147 2.503-43.493-25.54 6.141-.825z" fill="#565656"/><path d="M53.18 77.576l.138-.41-20.601-42.718-1.606-3.328-.25-.525-.157-.362-23.24 20.848 40.624 23.867 5.163 2.759-.085-.13h.015zm-3.712-7.007L14.642 50.155l17.602-15.302 17.223 35.716zm-2.438 3.043L8.895 51.216l5.158-.694 35.901 21.031 2.537 5.257-5.461-3.198z" fill="#fff"/><path d="M47.408 83.735l18.89 11.179 1.81 3.742-24.385-14.424 3.685-.497z" fill="#565656"/><path d="M68.613 98.28l-2.286-4.722L55.74 71.625 42.986 83.132 68.614 98.28zm-1.417-1.548l-22.76-13.465 2.707-.366L65.87 93.993l1.327 2.739zM47.71 82.539l8.886-7.745 8.781 18.196L47.71 82.538z" fill="#fff"/><path d="M92.667 110.529v-9.076l10.723-6.187v9.071l-10.723 6.192zm.6-8.719v7.663l9.523-5.498v-7.668l-9.523 5.503z" fill="#FFBE2E"/><path d="M117.221 80.865L98.633 42.227 56.511 67.034 37.79 83.88l37.26 21.963 41.93-24.823.241-.155zM38.806 83.76l17.766-15.987 17.766 36.932L38.806 83.76zm36.373 21.282l-4.865-10.127L57.087 67.39l41.3-24.33 18.06 37.54-41.268 24.44z" fill="#fff"/><path d="M85.586 17.072L71.89 25.145l-7.317-4.311 13.7-8.073 7.312 4.311z" fill="#565656"/><path d="M72.132 22.353l-4.775-2.817 10.865-6.409 4.775 2.812-10.865 6.414zm-3.576-2.817l3.576 2.108 9.675-5.705-3.576-2.108-9.674 5.705zM8.413 93.722l.052-37.717 1.034.492v36.406l-.444.636-.642.183zM69.94 30.016a.725.725 0 01-.358-.101l-2.641-1.558a1.57 1.57 0 01-.497-.563 1.609 1.609 0 01-.183-.734v-1.138a.791.791 0 01.335-.705.627.627 0 01.647.03l2.636 1.552a1.62 1.62 0 01.68 1.302v1.139a.781.781 0 01-.335.699.534.534 0 01-.283.077zm-3.018-4.244c-.038 0-.061.053-.061.15v1.138a1.025 1.025 0 00.382.767l2.636 1.557c.02.004.041.004.062 0v-1.283a1.025 1.025 0 00-.378-.771l-2.64-1.553v-.005zM14.95 108.07a.767.767 0 01-.363-.106l-2.636-1.558a1.57 1.57 0 01-.492-.552 1.61 1.61 0 01-.188-.721v-1.138a.77.77 0 01.335-.704.624.624 0 01.647.029l2.636 1.552a1.62 1.62 0 01.68 1.303v1.138a.788.788 0 01-.335.704.59.59 0 01-.284.053zm-3.018-4.249c-.043 0-.061.053-.061.15v1.162a1.009 1.009 0 00.382.767l2.636 1.557c.02.004.041.004.062 0v-1.307a1.026 1.026 0 00-.383-.771l-2.636-1.553v-.005zm7.204 3.723a.711.711 0 01-.364-.106l-2.636-1.553a1.582 1.582 0 01-.497-.566 1.615 1.615 0 01-.183-.736v-1.138a.784.784 0 01.335-.7.624.624 0 01.648.029l2.635 1.553a1.604 1.604 0 01.681 1.298v1.138a.79.79 0 01-.336.704.536.536 0 01-.283.077zm-3.019-4.244c-.042 0-.061.048-.061.145v1.138a1.014 1.014 0 00.383.772l2.635 1.552c.02.004.041.004.062 0v-1.306a1.008 1.008 0 00-.383-.767l-2.636-1.553v.019zm44.466 35.765a.702.702 0 01-.364-.107l-2.636-1.552a1.572 1.572 0 01-.497-.563 1.608 1.608 0 01-.183-.735v-1.138a.786.786 0 01.072-.398.767.767 0 01.258-.306.625.625 0 01.648.029l2.64 1.553a1.608 1.608 0 01.681 1.302v1.138a.784.784 0 01-.336.699.537.537 0 01-.283.078zm-3.023-4.244c-.038 0-.057.053-.057.149v1.138a1.021 1.021 0 00.378.767l2.64 1.553a.18.18 0 00.057 0v-1.302a1.03 1.03 0 00-.383-.772l-2.636-1.553v.02zm-2.551 3.559a.721.721 0 01-.364-.106l-2.636-1.553a1.572 1.572 0 01-.497-.563 1.609 1.609 0 01-.183-.734v-1.139a.79.79 0 01.335-.704.634.634 0 01.647.029l2.636 1.553c.208.145.38.339.498.566.118.226.18.479.182.736v1.134a.79.79 0 01-.335.704.544.544 0 01-.283.077zm-3.024-4.244c-.038 0-.056.053-.056.149v1.139a1.005 1.005 0 00.383.766l2.635 1.553c.018.013.04.021.062.024v-1.287a1.027 1.027 0 00-.383-.772l-2.636-1.553-.005-.019z" fill="#fff"/><path d="M77.206 29.07a.573.573 0 01-.293-.081.801.801 0 01-.272-.318.82.82 0 01-.078-.415v-1.22c.003-.272.07-.538.195-.777.125-.24.304-.445.523-.598l2.835-1.664a.643.643 0 01.67-.034.825.825 0 01.35.733v1.22a1.702 1.702 0 01-.195.78 1.662 1.662 0 01-.528.595L77.58 28.96a.758.758 0 01-.373.11zm3.278-4.576s-.028 0-.075.029l-2.835 1.669a1.087 1.087 0 00-.42.843v1.22a.323.323 0 00.047.203.159.159 0 00.071-.029l2.834-1.668a1.108 1.108 0 00.42-.844v-1.22a.324.324 0 00-.042-.203zm-5.262 9.819a.568.568 0 01-.293-.077.82.82 0 01-.345-.733v-1.22a1.669 1.669 0 01.718-1.375l2.834-1.669a.652.652 0 01.671-.029.82.82 0 01.35.733v1.22a1.717 1.717 0 01-.205.781c-.13.24-.313.444-.537.594l-2.834 1.669a.749.749 0 01-.36.106zM78.5 29.74a.158.158 0 00-.07.029l-2.835 1.669a1.085 1.085 0 00-.416.844v1.22a.338.338 0 00.043.202.629.629 0 00.076-.029l2.834-1.668a1.094 1.094 0 00.42-.844v-1.22a.324.324 0 00-.052-.203zm-2.522 108.915a.461.461 0 01-.26-.073.675.675 0 01-.298-.617v-.916c.001-.218.055-.431.155-.623s.245-.355.422-.477l2.125-1.254a.568.568 0 01.581-.024.689.689 0 01.298.617v.922a1.37 1.37 0 01-.157.619c-.1.19-.244.354-.42.475l-2.125 1.249a.625.625 0 01-.321.102zm2.404-3.468l-2.088 1.293a.753.753 0 00-.274.569v.916a.286.286 0 000 .106l2.088-1.292a.767.767 0 00.279-.569v-.922a.196.196 0 00-.005-.101zm19.098-20.501a.55.55 0 01-.26-.067.69.69 0 01-.297-.622v-.917a1.34 1.34 0 01.581-1.099l2.126-1.254a.554.554 0 01.576 0 .675.675 0 01.298.617v.916a1.358 1.358 0 01-.155.623c-.1.192-.245.355-.422.477l-2.125 1.254a.63.63 0 01-.322.072zm2.41-3.467l-2.107 1.292a.766.766 0 00-.279.569v.917a.226.226 0 000 .106l2.088-1.293a.76.76 0 00.274-.569v-.916a.29.29 0 00.024-.106zm-25.405 31.376a.55.55 0 01-.26-.068.675.675 0 01-.297-.617v-.921a1.342 1.342 0 01.576-1.095l2.126-1.254a.559.559 0 01.58-.024.68.68 0 01.298.617v.917a1.354 1.354 0 01-.576 1.099l-2.126 1.254a.641.641 0 01-.321.092zm2.404-3.468l-2.083 1.293a.763.763 0 00-.278.569v.921a.194.194 0 000 .101l2.083-1.292a.738.738 0 00.278-.569v-.917a.246.246 0 000-.106zm29.869-18.026a.5.5 0 01-.26-.073.679.679 0 01-.297-.617v-.916a1.356 1.356 0 01.146-.62c.097-.192.238-.356.411-.48l2.126-1.254a.558.558 0 01.581-.024.689.689 0 01.297.622v.897a1.38 1.38 0 01-.157.621c-.1.192-.244.356-.419.479l-2.126 1.249a.658.658 0 01-.302.116zm2.405-3.468l-2.084 1.292a.762.762 0 00-.278.57v.916a.47.47 0 000 .106l2.088-1.297a.754.754 0 00.278-.565v-.916a.206.206 0 00-.023-.106h.019zM80.168 40.852a.585.585 0 01-.298-.077.83.83 0 01-.345-.733v-1.22c.001-.271.067-.539.192-.778a1.66 1.66 0 01.526-.596l2.835-1.669a.652.652 0 01.67-.029.815.815 0 01.345.733v1.22c-.005.27-.073.533-.199.77-.125.237-.305.44-.524.59l-2.834 1.669a.763.763 0 01-.368.12zm3.273-4.571a.159.159 0 00-.07.028l-2.835 1.669a1.094 1.094 0 00-.42.844v1.206a.324.324 0 00.047.202.32.32 0 00.07-.029l2.835-1.668a1.085 1.085 0 00.416-.844v-1.206c.005-.135-.028-.193-.043-.202z" fill="#FFBE2E"/><path d="M36.76 134.29c.337 0 .61-.162.61-.362 0-.199-.273-.361-.61-.361-.336 0-.609.162-.609.361 0 .2.273.362.61.362zm2.688-1.948a.262.262 0 01.13.098.275.275 0 010 .315.268.268 0 01-.13.098.932.932 0 01-.864 0c-.241-.145-.241-.371 0-.511a.932.932 0 01.864 0zm-2.258-1.331a.262.262 0 01.13.098.274.274 0 01-.13.413.932.932 0 01-.864 0 .27.27 0 01-.18-.256c0-.056.018-.111.05-.157a.262.262 0 01.13-.098.932.932 0 01.864 0zm2.258-1.331a.262.262 0 01.13.098.275.275 0 010 .314.264.264 0 01-.13.099.932.932 0 01-.864 0c-.241-.14-.241-.367 0-.511a.92.92 0 01.864 0zm-4.946.617c.337 0 .61-.162.61-.362 0-.2-.273-.361-.61-.361-.336 0-.609.161-.609.361 0 .2.273.362.61.362zm2.688-1.943a.273.273 0 010 .506.932.932 0 01-.864 0 .258.258 0 01-.132-.096.27.27 0 010-.314.253.253 0 01.132-.096.92.92 0 01.864 0zm2.258-1.331a.273.273 0 010 .506.932.932 0 01-.864 0 .258.258 0 01-.132-.096.27.27 0 010-.314.253.253 0 01.132-.096.92.92 0 01.864 0zm-6.774 1.331a.266.266 0 01.132.41.264.264 0 01-.132.096.935.935 0 01-.86 0 .264.264 0 01-.182-.253.266.266 0 01.183-.253.922.922 0 01.86 0zm2.282-1.331a.266.266 0 01.132.41.258.258 0 01-.132.096.932.932 0 01-.864 0 .258.258 0 01-.132-.096.27.27 0 010-.314.253.253 0 01.132-.096.92.92 0 01.864 0zm2.234-1.332a.271.271 0 010 .507.932.932 0 01-.864 0 .264.264 0 01-.182-.253.266.266 0 01.182-.254.93.93 0 01.864 0zm-6.769 1.332a.273.273 0 010 .506.932.932 0 01-.864 0 .258.258 0 01-.132-.096.27.27 0 010-.314.253.253 0 01.132-.096.92.92 0 01.864 0zm2.253-1.332a.264.264 0 01.183.254.264.264 0 01-.182.253.934.934 0 01-.86 0 .264.264 0 01-.183-.253.264.264 0 01.182-.254.934.934 0 01.86 0zm2.282-1.331c.24.14.24.367 0 .512a.93.93 0 01-.864 0 .27.27 0 01-.18-.256.27.27 0 01.18-.256.93.93 0 01.864 0zm-7.246 1.934c.336 0 .609-.162.609-.361 0-.2-.273-.362-.61-.362-.336 0-.609.162-.609.362 0 .199.273.361.61.361zm2.687-1.948a.268.268 0 01.18.255.268.268 0 01-.18.256.935.935 0 01-.86 0 .268.268 0 01-.178-.256.268.268 0 01.18-.255.922.922 0 01.858 0zm2.258-1.331c.241.144.241.371 0 .511a.935.935 0 01-.86 0c-.24-.14-.24-.367 0-.511a.922.922 0 01.86 0zm-7.199 1.948c.337 0 .61-.162.61-.361 0-.2-.273-.362-.61-.362-.336 0-.609.162-.609.362 0 .199.273.361.61.361zm2.688-1.948a.262.262 0 01.13.098.275.275 0 010 .315.268.268 0 01-.13.098.932.932 0 01-.864 0 .268.268 0 01-.18-.256c0-.056.018-.111.05-.157a.262.262 0 01.13-.098.932.932 0 01.864 0zm1.824-.714c.336 0 .609-.162.609-.362 0-.199-.273-.361-.61-.361-.336 0-.609.162-.609.361 0 .2.273.362.61.362zm-6.349.714c.24.144.24.371 0 .511a.935.935 0 01-.86 0c-.24-.14-.24-.367 0-.511a.922.922 0 01.86 0zm2.267-1.326a.266.266 0 01.11.384.26.26 0 01-.11.098.932.932 0 01-.864 0 .268.268 0 010-.482.92.92 0 01.864 0zm2.258-1.331a.273.273 0 010 .506.932.932 0 01-.864 0 .273.273 0 010-.506.92.92 0 01.864 0zm-6.774 1.331a.266.266 0 01.11.384.259.259 0 01-.11.098.922.922 0 01-.86 0 .27.27 0 010-.482.922.922 0 01.86 0zm2.249-1.331a.266.266 0 01.132.41.258.258 0 01-.132.096.935.935 0 01-.86 0 .258.258 0 01-.132-.096.27.27 0 010-.314.258.258 0 01.132-.096.922.922 0 01.86 0zm1.837-.714c.337 0 .61-.162.61-.362 0-.2-.273-.361-.61-.361-.336 0-.609.161-.609.361 0 .2.273.362.61.362zm-6.339.714a.273.273 0 010 .506.932.932 0 01-.864 0 .273.273 0 010-.506.92.92 0 01.864 0zm2.253-1.331a.266.266 0 01.132.41.258.258 0 01-.132.096.935.935 0 01-.86 0 .258.258 0 01-.131-.096.27.27 0 010-.314.258.258 0 01.131-.096.923.923 0 01.86 0zm2.249-1.331c.24.139.24.366 0 .511a.934.934 0 01-.86 0c-.24-.145-.24-.372 0-.511a.922.922 0 01.86 0zm-6.76 1.331a.273.273 0 010 .506.931.931 0 01-.865 0 .264.264 0 01-.182-.253.266.266 0 01.183-.253.92.92 0 01.864 0zm1.823-.714c.337 0 .61-.162.61-.362 0-.2-.273-.362-.61-.362-.336 0-.609.162-.609.362 0 .2.273.362.61.362zm2.688-1.948a.262.262 0 01.13.098.274.274 0 01-.13.413.935.935 0 01-.86 0 .27.27 0 01-.18-.256.292.292 0 01.05-.157.262.262 0 01.13-.098.922.922 0 01.86 0zm-6.77 1.331c.242.139.242.366 0 .511a.933.933 0 01-.859 0c-.24-.145-.24-.372 0-.511a.922.922 0 01.86 0zm2.259-1.332a.27.27 0 01.18.256.27.27 0 01-.18.256.93.93 0 01-.865 0 .27.27 0 01-.179-.256.274.274 0 01.18-.256.931.931 0 01.864 0zm2.258-1.33a.262.262 0 01.13.098.275.275 0 010 .314.264.264 0 01-.13.099.932.932 0 01-.864 0 .273.273 0 010-.511.92.92 0 01.864 0zm-7.204 1.948c.337 0 .61-.162.61-.362 0-.2-.273-.361-.61-.361-.336 0-.61.161-.61.361 0 .2.274.362.61.362zm2.687-1.948c.242.144.242.371 0 .511a.933.933 0 01-.859 0c-.24-.14-.24-.367 0-.511a.922.922 0 01.86 0zm1.83-.714c.336 0 .608-.162.608-.362 0-.2-.272-.362-.609-.362-.336 0-.61.162-.61.362 0 .2.274.362.61.362zm-6.36.704a.273.273 0 010 .506.92.92 0 01-.864 0 .266.266 0 01-.132-.41.264.264 0 01.132-.096.932.932 0 01.865 0zm2.254-1.331a.266.266 0 01.132.41.259.259 0 01-.132.096.922.922 0 01-.86 0 .266.266 0 01-.132-.41.258.258 0 01.132-.096.923.923 0 01.86 0zm2.258-1.326a.264.264 0 01.152.241c0 .05-.015.1-.041.143a.26.26 0 01-.11.098.935.935 0 01-.884 0 .268.268 0 01-.146-.241c0-.05.014-.099.04-.142a.265.265 0 01.106-.099.923.923 0 01.883 0zm-6.769 1.326a.266.266 0 01.132.41.258.258 0 01-.132.096.932.932 0 01-.865 0 .258.258 0 01-.132-.096.269.269 0 01.132-.41.932.932 0 01.865 0zm2.257-1.326a.266.266 0 01.11.384.259.259 0 01-.11.098.932.932 0 01-.864 0 .269.269 0 010-.482.92.92 0 01.865 0zm2.254-1.336c.241.14.241.366 0 .511a.935.935 0 01-.86 0c-.24-.145-.24-.371 0-.511a.922.922 0 01.86 0zm-6.769 1.336a.266.266 0 01.11.384.259.259 0 01-.11.098.932.932 0 01-.865 0 .27.27 0 01-.106-.383.266.266 0 01.106-.099.92.92 0 01.865 0zm2.258-1.336a.262.262 0 01.13.098.275.275 0 010 .315.268.268 0 01-.13.098.932.932 0 01-.865 0 .268.268 0 01-.179-.256c0-.056.018-.111.05-.157a.262.262 0 01.13-.098.932.932 0 01.864 0zm2.257-1.331a.262.262 0 01.13.098.274.274 0 01-.13.413.932.932 0 01-.864 0 .27.27 0 01-.18-.256.292.292 0 01.05-.157.262.262 0 01.13-.098.92.92 0 01.865 0zm-6.764 1.331c.241.14.241.366 0 .511a.935.935 0 01-.86 0c-.24-.145-.24-.371 0-.511a.923.923 0 01.86 0zm2.249-1.331a.262.262 0 01.13.098.275.275 0 010 .314.264.264 0 01-.13.099.932.932 0 01-.865 0 .27.27 0 01-.18-.256.292.292 0 01.05-.157.262.262 0 01.13-.098.92.92 0 01.865 0zm2.258-1.331a.262.262 0 01.13.098.275.275 0 010 .314.264.264 0 01-.13.099.932.932 0 01-.865 0 .272.272 0 010-.511.92.92 0 01.865 0zm65.614 46.403a.273.273 0 010 .506.932.932 0 01-.865 0 .258.258 0 01-.132-.096.269.269 0 01.132-.41.932.932 0 01.865 0zm2.258-1.331a.262.262 0 01.13.098.275.275 0 010 .314.264.264 0 01-.13.099.932.932 0 01-.865 0c-.24-.145-.24-.371 0-.511a.932.932 0 01.865 0zm2.258-1.331a.262.262 0 01.13.098.275.275 0 010 .314.264.264 0 01-.13.099.934.934 0 01-.86 0 .27.27 0 01-.18-.256c0-.056.018-.111.05-.157a.262.262 0 01.13-.098.922.922 0 01.86 0zm2.253-1.331c.241.144.241.371 0 .511a.932.932 0 01-.864 0 .272.272 0 010-.511.92.92 0 01.864 0zm1.828-.714c.337 0 .61-.162.61-.362 0-.2-.273-.361-.61-.361-.336 0-.61.161-.61.361 0 .2.274.362.61.362zm2.688-1.944a.272.272 0 010 .507.932.932 0 01-.864 0 .264.264 0 01-.183-.253.264.264 0 01.182-.254.93.93 0 01.865 0zm2.253-1.331a.265.265 0 01.183.254.265.265 0 01-.182.253.934.934 0 01-.86 0 .264.264 0 01-.183-.253.264.264 0 01.182-.254.933.933 0 01.86 0zm2.258-1.331c.241.14.241.367 0 .512a.934.934 0 01-.86 0c-.24-.145-.24-.372 0-.512a.934.934 0 01.86 0zm1.828-.714c.337 0 .61-.161.61-.361 0-.2-.273-.362-.61-.362-.336 0-.609.162-.609.362 0 .2.273.361.61.361zm2.254-1.331c.336 0 .609-.162.609-.361 0-.2-.273-.362-.61-.362-.336 0-.609.162-.609.362 0 .199.273.361.61.361zm2.258-1.331c.336 0 .609-.161.609-.361 0-.2-.273-.362-.61-.362-.336 0-.609.162-.609.362 0 .2.273.361.61.361zm2.692-1.943c.053.017.1.05.132.096a.27.27 0 010 .314.253.253 0 01-.132.096.922.922 0 01-.86 0 .266.266 0 01-.132-.41.258.258 0 01.133-.096.935.935 0 01.86 0zm1.824-.714c.336 0 .609-.162.609-.362 0-.199-.273-.361-.609-.361-.337 0-.61.162-.61.361 0 .2.273.362.61.362zm2.687-1.948a.259.259 0 01.13.098.276.276 0 010 .315.265.265 0 01-.13.098.927.927 0 01-.864 0 .27.27 0 01-.179-.256c0-.056.017-.111.049-.157a.263.263 0 01.13-.098.921.921 0 01.864 0zM68.91 154.772a.266.266 0 01.132.41.258.258 0 01-.131.096.922.922 0 01-.86 0 .258.258 0 01-.132-.096.269.269 0 01.132-.41.922.922 0 01.86 0zm2.259-1.331c.24.14.24.366 0 .511a.932.932 0 01-.865 0 .27.27 0 01-.18-.256.284.284 0 01.05-.157.262.262 0 01.13-.098.932.932 0 01.865 0zm2.258-1.331a.262.262 0 01.13.098.275.275 0 010 .314.264.264 0 01-.13.099.932.932 0 01-.865 0 .27.27 0 01-.18-.256.284.284 0 01.05-.157.262.262 0 01.13-.098.92.92 0 01.865 0zm2.258-1.331a.262.262 0 01.13.098.275.275 0 010 .314.264.264 0 01-.13.099.932.932 0 01-.865 0 .273.273 0 010-.511.92.92 0 01.865 0zm2.258-1.327a.264.264 0 01.182.254.264.264 0 01-.182.253.934.934 0 01-.86 0 .264.264 0 01-.182-.253.264.264 0 01.182-.254.934.934 0 01.86 0zm2.253-1.331a.264.264 0 01.182.254.264.264 0 01-.182.253.932.932 0 01-.864 0 .264.264 0 01-.183-.253.264.264 0 01.182-.254.93.93 0 01.865 0zm1.828-.713c.337 0 .61-.162.61-.362 0-.2-.273-.362-.61-.362-.336 0-.61.162-.61.362 0 .2.274.362.61.362zm2.688-1.949a.27.27 0 01.18.256.274.274 0 01-.18.256.931.931 0 01-.865 0 .27.27 0 01-.179-.256.275.275 0 01.18-.256.932.932 0 01.864 0zm1.823-.714c.337 0 .61-.161.61-.361 0-.2-.273-.362-.61-.362-.336 0-.609.162-.609.362 0 .2.273.361.61.361zm2.258-1.331c.337 0 .61-.162.61-.361 0-.2-.273-.362-.61-.362-.336 0-.609.162-.609.362 0 .199.273.361.61.361zm2.258-1.331c.337 0 .61-.161.61-.361 0-.2-.273-.362-.61-.362-.336 0-.609.162-.609.362 0 .2.273.361.61.361zm2.689-1.943a.266.266 0 01.172.253.273.273 0 01-.173.253.92.92 0 01-.864 0 .266.266 0 01-.132-.41.258.258 0 01.132-.096.932.932 0 01.864 0zm2.253-1.331a.269.269 0 010 .506.922.922 0 01-.86 0 .266.266 0 01-.132-.41.258.258 0 01.132-.096.922.922 0 01.86 0zm2.262-1.331c.241.14.241.366 0 .511a.922.922 0 01-.86 0c-.24-.145-.24-.371 0-.511a.922.922 0 01.86 0zm2.253-1.331a.259.259 0 01.13.098.272.272 0 01-.13.413.927.927 0 01-.864 0 .27.27 0 01-.18-.256c0-.056.018-.111.05-.157a.262.262 0 01.13-.098.932.932 0 01.864 0zm-33.851 17.294a.262.262 0 01.13.098.275.275 0 010 .314.264.264 0 01-.13.099.932.932 0 01-.864 0c-.24-.145-.24-.371 0-.511a.932.932 0 01.864 0zm2.253-1.331a.262.262 0 01.13.098.275.275 0 010 .314.264.264 0 01-.13.099.934.934 0 01-.859 0 .27.27 0 01-.18-.256c0-.056.018-.111.05-.157a.262.262 0 01.13-.098.922.922 0 01.86 0zm2.259-1.331c.24.144.24.371 0 .511a.932.932 0 01-.865 0 .273.273 0 010-.511.92.92 0 01.865 0zm2.258-1.327a.272.272 0 010 .507.932.932 0 01-.865 0 .264.264 0 01-.182-.253.264.264 0 01.182-.254.931.931 0 01.865 0zm2.258-1.331a.272.272 0 010 .507.932.932 0 01-.865 0 .264.264 0 01-.182-.253.264.264 0 01.182-.254.931.931 0 01.865 0zm2.258-1.331a.264.264 0 01.182.254.264.264 0 01-.182.253.934.934 0 01-.86 0 .264.264 0 01-.182-.253.264.264 0 01.182-.254.934.934 0 01.86 0zm2.253-1.331c.241.14.241.367 0 .512a.93.93 0 01-.864 0 .27.27 0 01-.18-.256.274.274 0 01.18-.256.932.932 0 01.864 0zm2.258-1.331a.264.264 0 01.13.099.275.275 0 010 .314.27.27 0 01-.13.099.93.93 0 01-.864 0 .27.27 0 01-.18-.256.274.274 0 01.18-.256.932.932 0 01.864 0zm2.258-1.331a.27.27 0 01.18.256.274.274 0 01-.18.256.931.931 0 01-.865 0 .27.27 0 01-.179-.256.275.275 0 01.18-.256.932.932 0 01.864 0zm2.253-1.326a.268.268 0 010 .482.922.922 0 01-.86 0 .267.267 0 01-.11-.384.259.259 0 01.11-.098.922.922 0 01.86 0zm2.258-1.331c.053.017.1.05.132.096a.27.27 0 010 .314.253.253 0 01-.132.096.922.922 0 01-.86 0 .266.266 0 01-.182-.253.27.27 0 01.05-.157.258.258 0 01.133-.096.935.935 0 01.86 0zm1.828-.714c.337 0 .61-.162.61-.362 0-.199-.273-.361-.61-.361-.336 0-.609.162-.609.361 0 .2.273.362.61.362zm2.254-1.331c.336 0 .609-.162.609-.361 0-.2-.273-.362-.61-.362-.336 0-.609.162-.609.362 0 .199.273.361.61.361zm2.258-1.331c.336 0 .609-.162.609-.362 0-.199-.273-.361-.61-.361-.336 0-.609.162-.609.361 0 .2.273.362.61.362zm2.257-1.331c.337 0 .61-.162.61-.362 0-.199-.273-.361-.61-.361-.336 0-.609.162-.609.361 0 .2.273.362.61.362zM64.4 152.11a.262.262 0 01.13.098.275.275 0 010 .314.264.264 0 01-.13.099.932.932 0 01-.865 0 .27.27 0 01-.18-.256.284.284 0 01.05-.157.262.262 0 01.13-.098.92.92 0 01.865 0zm2.257-1.331a.262.262 0 01.13.098.275.275 0 010 .314.264.264 0 01-.13.099.932.932 0 01-.864 0c-.24-.14-.24-.367 0-.511a.92.92 0 01.864 0zm2.253-1.327a.264.264 0 01.183.254.264.264 0 01-.182.253.934.934 0 01-.86 0 .264.264 0 01-.182-.253.264.264 0 01.182-.254.934.934 0 01.86 0zm2.259-1.331a.264.264 0 01.182.254.264.264 0 01-.182.253.932.932 0 01-.865 0 .264.264 0 01-.182-.253.264.264 0 01.182-.254.931.931 0 01.865 0zm2.258-1.331a.272.272 0 010 .507.932.932 0 01-.865 0 .264.264 0 01-.182-.253.266.266 0 01.182-.254.931.931 0 01.865 0zm2.258-1.331a.27.27 0 01.179.256.275.275 0 01-.18.256.931.931 0 01-.864 0 .27.27 0 01-.179-.256.275.275 0 01.18-.256.932.932 0 01.864 0zm2.258-1.331a.27.27 0 01.18.256.275.275 0 01-.05.157.262.262 0 01-.13.098.923.923 0 01-.86 0 .262.262 0 01-.13-.098.275.275 0 010-.314.264.264 0 01.13-.099.934.934 0 01.86 0zm1.823-.714c.337 0 .61-.162.61-.361 0-.2-.273-.362-.61-.362-.336 0-.61.162-.61.362 0 .199.274.361.61.361zm2.688-1.943a.268.268 0 01.145.241.266.266 0 01-.145.241.932.932 0 01-.864 0 .267.267 0 01-.11-.384.259.259 0 01.11-.098.932.932 0 01.864 0zm2.258-1.331a.273.273 0 010 .506.92.92 0 01-.864 0 .266.266 0 01-.132-.41.258.258 0 01.132-.096.932.932 0 01.864 0zm2.253-1.331c.053.017.1.05.132.096a.269.269 0 01-.132.41.922.922 0 01-.86 0 .266.266 0 01-.132-.41.258.258 0 01.133-.096.922.922 0 01.86 0zm2.258-1.331c.241.14.241.366 0 .511a.922.922 0 01-.86 0c-.24-.145-.24-.371 0-.511a.922.922 0 01.86 0zm2.258-1.331a.262.262 0 01.13.098.275.275 0 010 .314.264.264 0 01-.13.099.932.932 0 01-.864 0 .27.27 0 01-.18-.256c0-.056.018-.111.05-.157a.262.262 0 01.13-.098.932.932 0 01.864 0zm1.824-.714c.336 0 .609-.162.609-.362 0-.199-.273-.361-.61-.361-.336 0-.609.162-.609.361 0 .2.273.362.61.362zm2.258-1.331c.336 0 .609-.162.609-.362 0-.199-.273-.361-.61-.361-.336 0-.609.162-.609.361 0 .2.273.362.61.362zm-33.44 16.667a.273.273 0 010 .506.92.92 0 01-.865 0 .266.266 0 01-.132-.41.264.264 0 01.132-.096.932.932 0 01.865 0zm1.823-.719c.337 0 .61-.162.61-.361 0-.2-.273-.362-.61-.362-.337 0-.61.162-.61.362 0 .199.273.361.61.361zm2.693-1.943a.266.266 0 01.172.253.273.273 0 01-.172.253.92.92 0 01-.865 0 .266.266 0 01-.132-.41.258.258 0 01.132-.096.932.932 0 01.865 0zm-6.774 1.331c.053.017.099.05.132.096a.27.27 0 010 .314.258.258 0 01-.132.096.922.922 0 01-.86 0 .266.266 0 01-.132-.41.258.258 0 01.132-.096.922.922 0 01.86 0zm1.828-.714c.336 0 .61-.162.61-.361 0-.2-.274-.362-.61-.362-.337 0-.61.162-.61.362 0 .199.273.361.61.361zm2.253-1.331c.337 0 .61-.162.61-.362 0-.199-.273-.361-.61-.361-.337 0-.61.162-.61.361 0 .2.273.362.61.362zm-6.316.714c.053.017.1.05.132.096a.269.269 0 01-.132.41.92.92 0 01-.864 0 .266.266 0 01-.132-.41.258.258 0 01.132-.096.932.932 0 01.864 0zm2.235-1.331c.24.14.24.366 0 .511a.935.935 0 01-.86 0c-.241-.145-.241-.371 0-.511a.922.922 0 01.86 0zm2.258-1.331a.268.268 0 01.179.256.275.275 0 01-.05.157.262.262 0 01-.13.098.932.932 0 01-.864 0 .262.262 0 01-.13-.098.275.275 0 010-.315.268.268 0 01.13-.098.932.932 0 01.865 0zm-6.77 1.331a.268.268 0 01.18.256.268.268 0 01-.18.255.932.932 0 01-.864 0 .268.268 0 01-.18-.255.268.268 0 01.18-.256.932.932 0 01.864 0zm2.277-1.331a.268.268 0 01.18.256.274.274 0 01-.05.157.262.262 0 01-.13.098.932.932 0 01-.864 0 .262.262 0 01-.13-.098.275.275 0 010-.315.268.268 0 01.13-.098.932.932 0 01.864 0zm2.235-1.331a.262.262 0 01.13.098.275.275 0 010 .315.268.268 0 01-.13.098.935.935 0 01-.86 0 .268.268 0 01-.18-.256c0-.056.018-.111.05-.157a.262.262 0 01.13-.098.923.923 0 01.86 0zm-6.77 1.331a.268.268 0 01.18.256.275.275 0 01-.05.157.262.262 0 01-.13.098.932.932 0 01-.864 0 .262.262 0 01-.13-.098.274.274 0 01.13-.413.932.932 0 01.864 0zm2.258-1.331a.262.262 0 01.13.098.274.274 0 01-.13.413.932.932 0 01-.864 0 .268.268 0 01-.18-.256c0-.056.018-.111.05-.157a.262.262 0 01.13-.098.932.932 0 01.864 0zm2.277-1.326a.266.266 0 01.132.41.264.264 0 01-.132.096.932.932 0 01-.864 0 .264.264 0 01-.182-.253.266.266 0 01.182-.253.92.92 0 01.864 0zm-6.793 1.326a.262.262 0 01.13.098.275.275 0 010 .315.268.268 0 01-.13.098.934.934 0 01-.86 0 .268.268 0 01-.178-.256c0-.056.017-.111.049-.157a.262.262 0 01.13-.098.922.922 0 01.86 0zm2.258-1.326a.273.273 0 010 .506.932.932 0 01-.864 0 .264.264 0 01-.182-.253.266.266 0 01.182-.253.92.92 0 01.864 0zm1.824-.719c.336 0 .61-.162.61-.362 0-.2-.274-.361-.61-.361-.337 0-.61.161-.61.361 0 .2.273.362.61.362zm-6.335.719a.273.273 0 010 .506.932.932 0 01-.864 0 .264.264 0 01-.183-.253.266.266 0 01.183-.253.92.92 0 01.864 0zm2.253-1.331a.266.266 0 01.132.41.264.264 0 01-.132.096.935.935 0 01-.86 0 .264.264 0 01-.182-.253.266.266 0 01.183-.253.922.922 0 01.86 0zm1.829-.714c.336 0 .609-.162.609-.362 0-.2-.273-.361-.61-.361-.336 0-.609.161-.609.361 0 .2.273.362.61.362zm-6.774 1.326c.336 0 .609-.162.609-.362 0-.2-.273-.361-.61-.361-.336 0-.609.161-.609.361 0 .2.273.362.61.362zm2.692-1.944a.272.272 0 010 .507.932.932 0 01-.864 0 .264.264 0 01-.183-.253.266.266 0 01.183-.254.931.931 0 01.864 0zm2.253-1.331c.241.14.241.367 0 .512a.934.934 0 01-.86 0c-.24-.145-.24-.372 0-.512a.934.934 0 01.86 0zm-6.787 1.317a.273.273 0 010 .506.92.92 0 01-.865 0 .266.266 0 01-.132-.41.264.264 0 01.132-.096.932.932 0 01.864 0zm2.243-1.331a.27.27 0 01.18.256.274.274 0 01-.05.157.262.262 0 01-.13.098.932.932 0 01-.864 0 .262.262 0 01-.13-.098.275.275 0 010-.314.264.264 0 01.13-.099.932.932 0 01.864 0zm2.267-1.336a.27.27 0 01.18.256.275.275 0 01-.05.157.262.262 0 01-.13.098.922.922 0 01-.86 0 .262.262 0 01-.129-.098.275.275 0 010-.314.264.264 0 01.13-.099.934.934 0 01.86 0zm-6.769 1.336a.27.27 0 01.18.256.274.274 0 01-.05.157.262.262 0 01-.13.098.932.932 0 01-.864 0 .262.262 0 01-.13-.098.275.275 0 010-.314.264.264 0 01.13-.099.932.932 0 01.864 0zm2.259-1.336a.27.27 0 01.18.256.274.274 0 01-.051.157.262.262 0 01-.13.098.932.932 0 01-.864 0 .262.262 0 01-.13-.098.275.275 0 010-.314.264.264 0 01.13-.099.931.931 0 01.864 0zm1.823-.709c.336 0 .61-.162.61-.362 0-.199-.274-.361-.61-.361-.337 0-.61.162-.61.361 0 .2.273.362.61.362zm-6.34.709a.27.27 0 01.18.256.275.275 0 01-.05.157.262.262 0 01-.13.098.922.922 0 01-.86 0 .262.262 0 01-.13-.098.274.274 0 01.13-.413.934.934 0 01.86 0zm2.258-1.326c.241.145.241.371 0 .511a.932.932 0 01-.864 0 .268.268 0 01-.18-.255.268.268 0 01.18-.256.931.931 0 01.864 0zm2.259-1.326a.273.273 0 010 .506.932.932 0 01-.865 0 .258.258 0 01-.132-.096.27.27 0 010-.314.258.258 0 01.132-.096.92.92 0 01.864 0zm-6.77 1.326a.268.268 0 01.18.256.268.268 0 01-.18.255.932.932 0 01-.864 0c-.241-.14-.241-.366 0-.511a.932.932 0 01.864 0zm2.253-1.326a.266.266 0 01.132.41.258.258 0 01-.132.096.922.922 0 01-.86 0 .258.258 0 01-.131-.096.27.27 0 010-.314.258.258 0 01.132-.096.922.922 0 01.86 0zm2.258-1.331a.266.266 0 01.132.41.258.258 0 01-.132.096.932.932 0 01-.864 0 .258.258 0 01-.132-.096.269.269 0 01.132-.41.932.932 0 01.864 0zm62.383 2.7a.933.933 0 01.865 0 .27.27 0 01.172.253.275.275 0 01-.047.155.276.276 0 01-.125.099.933.933 0 01-.865 0 .265.265 0 01-.182-.254.265.265 0 01.182-.253zm3.123-1.331a.265.265 0 01.182.254.265.265 0 01-.182.253.934.934 0 01-.865 0 .265.265 0 01-.182-.253.265.265 0 01.182-.254.932.932 0 01.865 0zm2.258-1.331a.262.262 0 01.131.096.27.27 0 010 .315.262.262 0 01-.131.096.934.934 0 01-.865 0 .265.265 0 01-.182-.253.265.265 0 01.182-.254.932.932 0 01.865 0zm1.823-.714c.337 0 .609-.162.609-.361 0-.2-.272-.362-.609-.362-.337 0-.609.162-.609.362 0 .199.272.361.609.361zm2.258-1.331c.337 0 .609-.162.609-.361 0-.2-.272-.362-.609-.362-.337 0-.609.162-.609.362 0 .199.272.361.609.361zm2.258-1.331c.337 0 .609-.162.609-.361 0-.2-.272-.362-.609-.362-.337 0-.609.162-.609.362 0 .199.272.361.609.361zm2.258-1.331c.337 0 .609-.162.609-.361 0-.2-.272-.362-.609-.362-.337 0-.609.162-.609.362 0 .199.272.361.609.361zm2.688-1.958c.05.02.094.054.125.099a.275.275 0 01-.125.408.933.933 0 01-.865 0 .27.27 0 01-.131-.411.262.262 0 01.131-.096.933.933 0 01.865 0zm2.253-1.316c.053.017.099.05.132.096a.269.269 0 01-.132.41.921.921 0 01-.86 0 .265.265 0 01-.131-.41.256.256 0 01.131-.096.924.924 0 01.86 0zm2.258-1.331c.241.14.241.366 0 .511a.933.933 0 01-.864 0 .265.265 0 01-.179-.256c0-.056.017-.111.049-.157a.259.259 0 01.13-.098.93.93 0 01.864 0zm-23.435 10.643a.932.932 0 01.865 0 .265.265 0 01.182.254.265.265 0 01-.182.253.935.935 0 01-.86 0 .265.265 0 01-.126-.098.281.281 0 01-.049-.154c0-.055.016-.109.046-.154a.266.266 0 01.124-.101zm2.693-.714c.336 0 .609-.161.609-.361 0-.2-.273-.362-.609-.362-.337 0-.61.162-.61.362 0 .2.273.361.61.361zm2.688-1.948c.241.14.241.367 0 .512a.933.933 0 01-.865 0 .276.276 0 01-.13-.099.275.275 0 010-.314.276.276 0 01.13-.099.933.933 0 01.865 0zm2.258-1.331a.272.272 0 010 .511.922.922 0 01-.865 0 .268.268 0 01-.179-.255.27.27 0 01.179-.256.933.933 0 01.865 0zm2.258-1.331a.274.274 0 01.129.413.26.26 0 01-.129.098.922.922 0 01-.865 0c-.241-.139-.241-.366 0-.511a.933.933 0 01.865 0zm2.253-1.326a.265.265 0 01.151.241.265.265 0 01-.151.241.924.924 0 01-.86 0 .265.265 0 01-.151-.241.265.265 0 01.151-.241.924.924 0 01.86 0zm1.828-.714c.337 0 .609-.162.609-.361 0-.2-.272-.362-.609-.362-.337 0-.609.162-.609.362 0 .199.272.361.609.361zm2.674-1.948a.27.27 0 01.172.253.271.271 0 01-.172.253.922.922 0 01-.865 0 .259.259 0 01-.132-.096.272.272 0 010-.314.259.259 0 01.132-.096.933.933 0 01.865 0zm1.837-.714c.337 0 .61-.162.61-.362 0-.199-.273-.361-.61-.361-.336 0-.609.162-.609.361 0 .2.273.362.609.362zm2.258-1.331c.337 0 .61-.162.61-.362 0-.199-.273-.361-.61-.361-.336 0-.609.162-.609.361 0 .2.273.362.609.362zm2.258-1.331c.337 0 .61-.162.61-.362 0-.199-.273-.361-.61-.361-.336 0-.609.162-.609.361 0 .2.273.362.609.362zm-25.249 11.357a.933.933 0 01.86 0 .273.273 0 010 .511.921.921 0 01-.864 0 .26.26 0 01-.13-.099.275.275 0 01.004-.315.27.27 0 01.13-.097zm3.113-1.331a.267.267 0 01.179.256.267.267 0 01-.179.256.93.93 0 01-.864 0c-.241-.145-.241-.372 0-.512a.933.933 0 01.864 0zm2.254-1.331a.274.274 0 01.129.413.26.26 0 01-.129.098.924.924 0 01-.86 0 .263.263 0 01-.13-.098.275.275 0 010-.314.265.265 0 01.13-.099.932.932 0 01.86 0zm2.258-1.331c.241.145.241.372 0 .511a.922.922 0 01-.865 0 .268.268 0 01-.179-.255.273.273 0 01.179-.256.933.933 0 01.865 0zm2.258-1.326a.272.272 0 010 .482.934.934 0 01-.865 0 .265.265 0 01-.151-.241.267.267 0 01.151-.241.933.933 0 01.865 0zm1.823-.714c.337 0 .609-.162.609-.361 0-.2-.272-.362-.609-.362-.337 0-.609.162-.609.362 0 .199.272.361.609.361zm2.688-1.948c.053.017.099.05.132.096a.269.269 0 01-.132.41.924.924 0 01-.86 0 .265.265 0 01-.182-.253c0-.056.017-.111.05-.157a.259.259 0 01.132-.096.924.924 0 01.86 0zm2.258-1.331c.241.14.241.366 0 .511a.933.933 0 01-.865 0 .267.267 0 01-.129-.098.276.276 0 010-.315.26.26 0 01.129-.098.934.934 0 01.865 0zm2.244-1.331a.269.269 0 01.129.412.263.263 0 01-.129.099.933.933 0 01-.865 0 .263.263 0 01-.129-.099.269.269 0 01.129-.412.922.922 0 01.865 0zm2.272-1.326a.268.268 0 01.179.255.27.27 0 01-.179.256.933.933 0 01-.865 0c-.241-.14-.241-.367 0-.511a.922.922 0 01.865 0zm1.823-.719c.337 0 .61-.162.61-.362 0-.2-.273-.361-.61-.361-.336 0-.609.161-.609.361 0 .2.273.362.609.362zm2.258-1.326c.337 0 .61-.162.61-.362 0-.2-.273-.362-.61-.362-.336 0-.609.162-.609.362 0 .2.273.362.609.362zm-27.516 12.683a.934.934 0 01.86 0 .27.27 0 01.18.256.275.275 0 01-.05.157.262.262 0 01-.13.098.92.92 0 01-.865 0 .26.26 0 01-.129-.099.277.277 0 01.003-.315.27.27 0 01.131-.097zm3.122-1.331a.27.27 0 01.179.256.275.275 0 01-.049.157.259.259 0 01-.13.098.915.915 0 01-.864 0 .262.262 0 01-.13-.098.275.275 0 010-.314.264.264 0 01.13-.099.932.932 0 01.864 0zm2.258-1.331a.273.273 0 010 .511.918.918 0 01-.864 0c-.241-.139-.241-.366 0-.511a.933.933 0 01.864 0zm2.254-1.326a.265.265 0 01.151.241.265.265 0 01-.151.241.924.924 0 01-.86 0 .263.263 0 01-.152-.241.263.263 0 01.152-.241.921.921 0 01.86 0zm2.258-1.346a.265.265 0 01.182.254.265.265 0 01-.182.253.934.934 0 01-.865 0 .265.265 0 01-.182-.253.265.265 0 01.182-.254.932.932 0 01.865 0zm1.828-.699c.336 0 .609-.162.609-.361 0-.2-.273-.362-.609-.362-.337 0-.61.162-.61.362 0 .199.273.361.61.361zm2.253-1.331c.337 0 .609-.162.609-.362 0-.199-.272-.361-.609-.361-.337 0-.609.162-.609.361 0 .2.272.362.609.362zm2.688-1.948a.268.268 0 01.179.255.276.276 0 01-.049.158.274.274 0 01-.13.098.936.936 0 01-.43.106.936.936 0 01-.43-.106.274.274 0 01-.13-.098.276.276 0 010-.315.268.268 0 01.13-.098.924.924 0 01.86 0zm1.828-.714c.337 0 .609-.162.609-.362 0-.199-.272-.361-.609-.361-.337 0-.609.162-.609.361 0 .2.272.362.609.362zm2.258-1.331c.337 0 .609-.162.609-.362 0-.2-.272-.361-.609-.361-.337 0-.609.161-.609.361 0 .2.272.362.609.362zm2.688-1.944c.05.02.094.054.125.099a.277.277 0 010 .309.27.27 0 01-.125.099.933.933 0 01-.865 0 .27.27 0 01-.131-.411.262.262 0 01.131-.096.933.933 0 01.865 0zm2.253-1.33a.265.265 0 01.182.253.265.265 0 01-.182.253.933.933 0 01-.86 0 .27.27 0 01-.131-.41.25.25 0 01.131-.096.924.924 0 01.86 0zM1.044 109.7a.262.262 0 01.13.098.275.275 0 010 .314.264.264 0 01-.13.099.932.932 0 01-.865 0 .27.27 0 01-.18-.256.284.284 0 01.05-.157.262.262 0 01.13-.098.92.92 0 01.865 0zm2.262-1.331a.262.262 0 01.13.098.275.275 0 010 .314.264.264 0 01-.13.099.934.934 0 01-.86 0 .27.27 0 01-.18-.256.292.292 0 01.05-.157.262.262 0 01.13-.098.922.922 0 01.86 0zm1.819-.714c.337 0 .61-.162.61-.362 0-.199-.273-.361-.61-.361-.337 0-.61.162-.61.361 0 .2.273.362.61.362zm-4.081-.593a.266.266 0 01.11.384.26.26 0 01-.11.098.932.932 0 01-.865 0 .266.266 0 01-.11-.384.26.26 0 01.11-.098.932.932 0 01.865 0zm1.823-.738c.337 0 .61-.162.61-.362 0-.2-.273-.362-.61-.362-.337 0-.61.162-.61.362 0 .2.273.362.61.362zm65.586 27.691l-.142-32.552.6-.005.141 31.506 41.447-24.036-.033-24.238h.605l.028 24.595-.151.087-42.495 24.643zm-23.534-46.6h-.6v32.094h.6V87.415z" fill="#fff"/><path d="M42.098 91.842l1.399-.873 4.246 2.503-1.403.873-4.242-2.503z" fill="#565656"/><path d="M43.492 89.59l-1.696 1.075v6.916l4.55 2.681 1.695-1.061v-6.93l-4.55-2.681zm2.55 9.756L42.397 97.2v-5.845l3.647 2.146v5.845zM42.685 90.8l.817-.511 3.652 2.15-.151.097-.666.415-3.652-2.151zm25.795 56.945l-.145-.087-29.472-17.081-.152-7.987 5.91-3.433 24.016 14.26-.184.598-23.837-14.154-5.3 3.082.142 7.272 29.023 16.821 53.885-31.462v-5.744l-11.72-7.147.307-.526 12.013 7.321v6.452l-.152.087-54.333 31.728z" fill="#fff"/><path d="M68.48 139.822l-22.286-12.636.293-.54 21.99 12.471 49.118-28.901-6.978-4.109.303-.531 7.879 4.64-50.318 29.606zm3.412-115.14l-7.918-4.663 14.3-8.445 7.917 4.664-14.3 8.444zm-6.703-4.663l6.717 3.954L85 16.257l-6.727-3.96L65.19 20.02z" fill="#fff"/><path d="M71.693 50.44l-.104-26.11.6-.005.1 25.049 14.643-8.69-1.644-24.408.6-.043 1.672 24.793-15.867 9.414z" fill="#fff"/><path d="M71.665 50.44L64.37 34.969l-.099-14.95.605-.005.094 14.882 7.218 15.105-.524.439z" fill="#fff"/></svg>