<svg width="127" height="159" fill="none" xmlns="http://www.w3.org/2000/svg"><g clip-path="url(#clip0)"><path d="M65.933 126.685l-15.102-8.898v-16.299l15.102 8.897v16.3z" fill="#565656"/><path d="M65.296 125.619l-15.698-9.254V99.356l15.698 9.254v17.009zm-15.117-9.611l14.498 8.55v-15.596l-14.498-8.545v15.591z" fill="#fff"/><path d="M63.784 123.222l-10.808-6.423v-11.4l10.808 6.428v11.395z" fill="#F7971D"/><path d="M63.142 122.079l-11.413-6.785V103.19l11.413 6.785v12.104zm-10.813-7.137l10.212 6.072v-10.706l-10.212-6.072v10.706z" fill="#fff"/><path d="M42.314 105.847L24.468 95.199V75.793l17.846 10.648v19.406z" fill="#565656"/><path d="M41.573 104.434L23.15 93.429V73.315l18.446 11.01-.023 20.109zM23.726 93.077l17.242 10.291V84.676l-17.242-10.29v18.691z" fill="#fff"/><path d="M40.26 102.071l-13.742-8.198V79.574l13.741 8.198v14.299z" fill="#F7971D"/><path d="M39.518 100.634l-14.342-8.56V77.067l14.342 8.56v15.007zm-13.742-8.912l13.142 7.841v-13.59l-13.142-7.836v13.585z" fill="#fff"/><path d="M21.704 93.478l-3.77-2.224V71.85l3.77 2.223v19.406z" fill="#565656"/><path d="M21.02 92.219l-4.365-2.57V69.514l4.364 2.575v20.129zm-3.78-2.927l3.165 1.866V72.46l-3.165-1.866v18.697z" fill="#fff"/><path d="M2.819 94.77l10.978-6.385v7.06l31.82 18.745v5.854L2.818 94.77z" fill="#F7971D"/><path d="M2.819 96.607l10.978-6.385v7.056l31.82 18.749v5.855L2.818 96.607z" fill="#565656"/><path d="M45.919 122.248v-8.236l-31.82-18.745V87.84L2.516 94.591v9.968l37.318 22.039-.165-.805-36.553-21.59V95.3l14.417 8.517 27.78 16.396v1.061l.605.974zm-9.84-8.198L3.419 94.76l10.08-5.86v6.704l31.82 18.76v5.145l-9.24-5.459z" fill="#fff"/><path d="M74.738 125.938v-13.793l.151-.087 14.824-8.603v13.802l-.151.087-14.824 8.594zm.6-13.455v12.398l13.775-7.99v-12.38l-13.775 7.972z" fill="#F7971D"/><path d="M76.864 122.34v-9.076l10.723-6.187v9.071l-10.723 6.192zm.6-8.719v7.668l9.509-5.479v-7.667l-9.509 5.478zm14.076 2.522v-13.807l.152-.091 14.823-8.618v13.807l-.151.086-14.823 8.623zm.6-13.455v12.404l13.775-7.996V94.698l-13.774 7.99z" fill="#F7971D"/><path d="M40.562 124.447l5.054-2.941 24.134 14.332 42.051-24.734v-6.684l10.137 6.177-52.462 30.869-28.914-17.019z" fill="#F7971D"/><path d="M40.566 126.482l5.06-2.941 24.129 14.332 42.051-24.734v-6.684l10.137 6.182-52.462 30.864-28.914-17.019z" fill="#565656"/><path d="M10.5 94.9V56.75l-3.052-1.254V94.9c.009.14.055.276.135.392a.76.76 0 00.314.264 2.322 2.322 0 002.159 0 .754.754 0 00.312-.264.776.776 0 00.131-.392z" fill="#F7971D"/><path d="M8.974 96.106a2.425 2.425 0 01-1.228-.309 1.044 1.044 0 01-.424-.363 1.076 1.076 0 01-.181-.534V55.047l3.651 1.5v38.358a1.064 1.064 0 01-.595.897 2.43 2.43 0 01-1.223.304zM7.75 55.949V94.9c0 .12.109.256.298.371a2.067 2.067 0 001.856 0c.19-.115.298-.25.298-.37V56.975L7.75 55.95z" fill="#fff"/><path d="M63.826 89.962L104.9 65.734 74.12 2.294 73.978 2 32.905 26.228l-.298.174-.199.178-30.78 27.194 61.56 36.284.1.212.127-.077.709.42-.298-.651zM33.193 26.787L73.746 2.859l30.37 62.635-40.55 23.92L40.68 42.296l-7.487-15.51zm-.473.367l30.025 61.925L2.658 53.678 32.72 27.154z" fill="#fff"/><path d="M15.115 52.202l36.052 21.127 3.013 6.245L8.974 53.027l6.14-.825z" fill="#F7971D"/><path d="M15.115 53.764l36.052 21.128 1.152 2.734.147 2.503-43.492-25.54 6.14-.825z" fill="#565656"/><path d="M54.18 79.574l.137-.41-20.6-42.717-1.606-3.328-.25-.525-.156-.362L8.464 53.08l40.624 23.866 5.163 2.758-.085-.13h.014zm-3.712-7.007L15.644 52.154l17.6-15.302 17.224 35.715zM48.03 75.61L9.895 53.215l5.158-.695 35.901 21.031 2.537 5.257-5.46-3.198z" fill="#fff"/><path d="M48.205 84.585l18.89 11.174 1.81 3.742L44.52 85.077l3.685-.492z" fill="#F7971D"/><path d="M48.408 85.733l18.89 11.178 1.81 3.742-24.385-14.424 3.685-.496z" fill="#565656"/><path d="M69.613 100.277l-2.286-4.721L56.74 73.623 43.986 85.13l25.627 15.147zm-1.417-1.548l-22.76-13.464 2.707-.367L66.868 95.99l1.328 2.74zM48.71 84.537l8.886-7.745 8.781 18.195-17.667-10.45z" fill="#fff"/><path d="M86.69 17.856l-13.7 8.073-7.317-4.311 13.7-8.073 7.317 4.311z" fill="#F7971D"/><path d="M65.673 21.618v15.35l7.318 14.935V25.929l-7.318-4.311zm27.994 90.908v-9.076l10.723-6.187v9.071l-10.723 6.192zm.6-8.719v7.663l9.523-5.498v-7.667l-9.524 5.502z" fill="#F7971D"/><path d="M118.221 82.863L99.633 44.225 57.51 69.032 38.79 85.877l37.26 21.962 41.929-24.822.241-.154zm-78.415 2.894L57.572 69.77l17.766 36.931-35.532-20.944zm36.373 21.281l-4.865-10.127-13.227-27.522 41.3-24.33 18.059 37.539-41.267 24.44z" fill="#fff"/><path d="M86.586 19.072L72.89 27.143l-7.317-4.31 13.7-8.074 7.312 4.312z" fill="#565656"/><path d="M83.406 18.975l-10.274 6.057-4.18-2.46 10.279-6.056 4.175 2.46z" fill="#F7971D"/><path d="M73.132 24.352l-4.776-2.816 10.865-6.41 4.776 2.812-10.865 6.414zm-3.576-2.816l3.576 2.107 9.675-5.705-3.576-2.107-9.675 5.705zM9.413 95.72l.052-37.717 1.034.492V94.9l-.444.637-.642.183zM70.94 32.015a.725.725 0 01-.359-.101l-2.64-1.558a1.571 1.571 0 01-.497-.563 1.609 1.609 0 01-.183-.734V27.92a.79.79 0 01.335-.704.627.627 0 01.647.029l2.636 1.553a1.601 1.601 0 01.68 1.302v1.138a.78.78 0 01-.335.699.535.535 0 01-.284.077zm-3.018-4.244c-.038 0-.061.053-.061.15v1.138a1.025 1.025 0 00.382.767l2.636 1.557c.02.004.041.004.061 0v-1.282a1.024 1.024 0 00-.377-.772l-2.641-1.553v-.005zM15.95 110.067a.767.767 0 01-.363-.106l-2.636-1.558a1.57 1.57 0 01-.491-.552 1.61 1.61 0 01-.189-.721v-1.138a.77.77 0 01.335-.704.624.624 0 01.648.029l2.635 1.552a1.622 1.622 0 01.681 1.303v1.138a.79.79 0 01-.336.704.589.589 0 01-.283.053zm-3.018-4.249c-.042 0-.061.053-.061.15v1.162a1.017 1.017 0 00.383.767l2.635 1.557c.02.004.042.004.062 0v-1.307a1.026 1.026 0 00-.383-.771l-2.636-1.553v-.005zm7.204 3.723a.711.711 0 01-.364-.106l-2.635-1.553a1.58 1.58 0 01-.497-.566 1.614 1.614 0 01-.184-.736v-1.138a.788.788 0 01.075-.396.76.76 0 01.26-.303.616.616 0 01.648.029l2.636 1.552a1.586 1.586 0 01.68 1.298v1.138a.79.79 0 01-.335.704.535.535 0 01-.284.077zm-3.018-4.244c-.043 0-.062.049-.062.145v1.138a1.032 1.032 0 00.383.772l2.636 1.553a.21.21 0 00.061 0v-1.307a1.008 1.008 0 00-.383-.767l-2.635-1.553v.019zm44.465 35.764a.71.71 0 01-.364-.106l-2.636-1.553a1.572 1.572 0 01-.497-.563 1.607 1.607 0 01-.183-.734v-1.139a.783.783 0 01.33-.704.633.633 0 01.648.029l2.64 1.553c.208.145.379.339.497.566.118.227.181.479.183.736v1.138a.784.784 0 01-.335.7.544.544 0 01-.283.077zm-3.024-4.244c-.037 0-.056.053-.056.149v1.139a1.015 1.015 0 00.378.766l2.64 1.553a.135.135 0 00.057 0v-1.302a1.026 1.026 0 00-.383-.771l-2.636-1.553v.019zm-2.551 3.559a.711.711 0 01-.363-.106l-2.636-1.553a1.573 1.573 0 01-.497-.563 1.609 1.609 0 01-.183-.734v-1.138a.77.77 0 01.335-.704.624.624 0 01.647.029l2.636 1.552c.208.145.38.339.498.566.118.227.18.479.182.736v1.134a.79.79 0 01-.335.704.535.535 0 01-.284.077zm-3.023-4.244c-.038 0-.056.053-.056.15v1.138a1.024 1.024 0 00.382.767l2.636 1.552a.14.14 0 00.061.025v-1.288a1.032 1.032 0 00-.382-.772l-2.636-1.553-.005-.019z" fill="#fff"/><path d="M78.206 31.07a.573.573 0 01-.293-.082.82.82 0 01-.35-.733v-1.22a1.72 1.72 0 01.195-.777c.125-.24.304-.444.523-.598l2.834-1.663a.643.643 0 01.671-.034c.117.08.21.19.272.318a.825.825 0 01.078.415v1.22a1.7 1.7 0 01-.195.778c-.126.24-.307.444-.528.596l-2.833 1.67a.759.759 0 01-.373.11zm3.278-4.577s-.028 0-.076.03l-2.834 1.668a1.085 1.085 0 00-.42.844v1.22a.323.323 0 00.047.202.159.159 0 00.07-.029l2.835-1.668a1.108 1.108 0 00.42-.844v-1.22a.324.324 0 00-.042-.203zm-5.262 9.819a.567.567 0 01-.293-.077.82.82 0 01-.345-.733v-1.22c.001-.272.067-.539.192-.778.125-.24.306-.445.526-.597l2.834-1.668a.652.652 0 01.671-.03.82.82 0 01.35.733v1.22a1.715 1.715 0 01-.205.781c-.13.24-.314.444-.537.594l-2.834 1.669a.75.75 0 01-.36.106zM79.5 31.74a.158.158 0 00-.07.03l-2.835 1.668a1.109 1.109 0 00-.416.844v1.22a.338.338 0 00.043.202.64.64 0 00.075-.029l2.835-1.668a1.07 1.07 0 00.42-.844v-1.22a.323.323 0 00-.052-.203zm-2.522 108.911a.469.469 0 01-.26-.072.678.678 0 01-.298-.618v-.916a1.334 1.334 0 01.576-1.1l2.126-1.253a.558.558 0 01.581-.024.691.691 0 01.298.617v.921a1.366 1.366 0 01-.577 1.095L77.3 140.55a.615.615 0 01-.322.101zm2.404-3.467l-2.088 1.292a.74.74 0 00-.274.569v.916a.282.282 0 000 .106l2.088-1.292a.768.768 0 00.279-.569v-.921a.195.195 0 00-.005-.101zm19.098-20.501a.55.55 0 01-.26-.067.69.69 0 01-.297-.622v-.917c.002-.217.056-.431.157-.623a1.33 1.33 0 01.424-.476l2.125-1.254a.558.558 0 01.577 0 .673.673 0 01.297.617v.916a1.338 1.338 0 01-.576 1.1l-2.126 1.254a.63.63 0 01-.32.072zm2.409-3.467l-2.106 1.292a.767.767 0 00-.28.569v.917a.226.226 0 000 .106l2.089-1.293a.762.762 0 00.274-.569v-.916a.301.301 0 00.023-.106zm-25.404 31.375a.55.55 0 01-.26-.068.674.674 0 01-.231-.267.693.693 0 01-.067-.35v-.921a1.365 1.365 0 01.577-1.095l2.125-1.254a.569.569 0 01.581-.024.691.691 0 01.298.618v.916a1.355 1.355 0 01-.576 1.099l-2.126 1.254a.641.641 0 01-.321.092zm2.404-3.468l-2.083 1.293a.774.774 0 00-.279.569v.921a.194.194 0 000 .101l2.083-1.292a.752.752 0 00.279-.569v-.916a.25.25 0 000-.107zm29.869-18.026a.486.486 0 01-.26-.072.674.674 0 01-.231-.268.701.701 0 01-.067-.35v-.916a1.356 1.356 0 01.558-1.099l2.125-1.254a.559.559 0 01.581-.024.697.697 0 01.298.622v.897a1.36 1.36 0 01-.576 1.099l-2.126 1.249a.645.645 0 01-.302.116zm2.404-3.467l-2.083 1.292a.733.733 0 00-.202.253.766.766 0 00-.077.316v.916a.479.479 0 000 .107l2.088-1.298a.74.74 0 00.279-.564v-.916a.204.204 0 00-.024-.106h.019zM81.168 42.851a.585.585 0 01-.298-.077.83.83 0 01-.345-.733v-1.22c.001-.271.067-.539.192-.778.125-.24.306-.444.526-.596l2.834-1.67a.652.652 0 01.671-.028.815.815 0 01.345.733v1.22c-.005.27-.073.534-.199.77a1.666 1.666 0 01-.524.59l-2.834 1.669a.764.764 0 01-.368.12zm3.273-4.572a.159.159 0 00-.07.03l-2.835 1.668a1.07 1.07 0 00-.42.844v1.206a.324.324 0 00.047.202.32.32 0 00.07-.029l2.835-1.668a1.087 1.087 0 00.416-.844v-1.206c.004-.135-.029-.193-.043-.203z" fill="#F7971D"/><path d="M37.76 136.286c.337 0 .61-.161.61-.361 0-.2-.273-.362-.61-.362-.336 0-.609.162-.609.362 0 .2.273.361.61.361zm2.688-1.948a.273.273 0 010 .511.92.92 0 01-.864 0c-.241-.144-.241-.371 0-.511a.932.932 0 01.864 0zm-2.258-1.331a.273.273 0 010 .511.92.92 0 01-.864 0 .262.262 0 01-.13-.098.275.275 0 010-.314.264.264 0 01.13-.099.932.932 0 01.864 0zm2.258-1.331a.27.27 0 01.18.256.275.275 0 01-.05.157.262.262 0 01-.13.098.92.92 0 01-.864 0c-.241-.139-.241-.366 0-.511a.932.932 0 01.864 0zm-4.945.617c.336 0 .609-.161.609-.361 0-.2-.273-.362-.61-.362-.336 0-.609.162-.609.362 0 .2.273.361.61.361zm2.687-1.943a.273.273 0 010 .506.92.92 0 01-.864 0 .266.266 0 01-.132-.41.264.264 0 01.132-.096.932.932 0 01.864 0zm2.258-1.331a.267.267 0 01.126.099.273.273 0 01-.126.407.92.92 0 01-.864 0 .266.266 0 010-.506.932.932 0 01.864 0zm-6.773 1.331a.264.264 0 01.182.253.266.266 0 01-.182.253.922.922 0 01-.86 0 .266.266 0 01-.132-.41.264.264 0 01.132-.096.935.935 0 01.86 0zm2.281-1.331a.264.264 0 01.182.253.266.266 0 01-.182.253.92.92 0 01-.864 0 .266.266 0 01-.132-.41.264.264 0 01.132-.096.932.932 0 01.864 0zm2.234-1.331a.273.273 0 010 .506.92.92 0 01-.864 0 .266.266 0 01-.132-.41.264.264 0 01.132-.096.932.932 0 01.864 0zm-6.769 1.331a.273.273 0 010 .506.92.92 0 01-.864 0 .266.266 0 01-.132-.41.264.264 0 01.132-.096.932.932 0 01.864 0zm2.254-1.331a.264.264 0 01.182.253.266.266 0 01-.182.253.922.922 0 01-.86 0 .266.266 0 01-.132-.41.264.264 0 01.132-.096.935.935 0 01.86 0zm2.281-1.331c.241.14.241.367 0 .511a.931.931 0 01-.864 0 .262.262 0 01-.13-.098.275.275 0 010-.314.264.264 0 01.13-.099.932.932 0 01.864 0zm-7.246 1.934c.336 0 .61-.162.61-.362 0-.2-.274-.361-.61-.361-.337 0-.61.161-.61.361 0 .2.273.362.61.362zm2.688-1.948a.262.262 0 01.13.098.275.275 0 010 .314.264.264 0 01-.13.099.934.934 0 01-.86 0 .272.272 0 010-.511.922.922 0 01.86 0zm2.258-1.331c.24.144.24.371 0 .511a.934.934 0 01-.86 0c-.241-.14-.241-.367 0-.511a.922.922 0 01.86 0zm-7.2 1.948c.337 0 .61-.162.61-.362 0-.2-.273-.361-.61-.361-.336 0-.609.161-.609.361 0 .2.273.362.61.362zm2.688-1.948a.262.262 0 01.13.098.275.275 0 010 .314.264.264 0 01-.13.099.931.931 0 01-.864 0 .273.273 0 010-.511.92.92 0 01.864 0zm1.824-.714c.336 0 .61-.162.61-.362 0-.2-.274-.362-.61-.362-.337 0-.61.162-.61.362 0 .2.273.362.61.362zm-6.349.714c.24.144.24.371 0 .511a.934.934 0 01-.86 0c-.24-.14-.24-.367 0-.511a.922.922 0 01.86 0zm2.267-1.327a.273.273 0 01.11.098.272.272 0 010 .287.266.266 0 01-.11.098.932.932 0 01-.864 0 .266.266 0 01-.152-.241.28.28 0 01.041-.144.273.273 0 01.11-.098.931.931 0 01.865 0zm2.258-1.331a.273.273 0 010 .507.932.932 0 01-.864 0 .273.273 0 010-.507.931.931 0 01.864 0zm-6.774 1.331a.273.273 0 01.11.098.273.273 0 010 .287.266.266 0 01-.11.098.934.934 0 01-.86 0 .265.265 0 01-.15-.241.27.27 0 01.04-.144.272.272 0 01.11-.098.934.934 0 01.86 0zm2.249-1.331a.264.264 0 01.182.254.264.264 0 01-.182.253.933.933 0 01-.86 0 .265.265 0 01-.182-.253.265.265 0 01.182-.254.934.934 0 01.86 0zm1.837-.713c.337 0 .61-.162.61-.362 0-.2-.273-.362-.61-.362-.336 0-.609.162-.609.362 0 .2.273.362.61.362zm-6.339.713a.272.272 0 010 .507.932.932 0 01-.864 0 .273.273 0 010-.507.931.931 0 01.864 0zm2.253-1.331a.264.264 0 01.183.254.264.264 0 01-.182.253.934.934 0 01-.86 0 .264.264 0 01-.183-.253.264.264 0 01.182-.254.934.934 0 01.86 0zm2.249-1.331c.24.14.24.367 0 .512a.934.934 0 01-.86 0c-.24-.145-.24-.372 0-.512a.934.934 0 01.86 0zm-6.759 1.331a.272.272 0 010 .507.932.932 0 01-.865 0 .264.264 0 01-.183-.253.264.264 0 01.182-.254.93.93 0 01.865 0zm1.823-.713c.336 0 .609-.162.609-.362 0-.2-.273-.362-.61-.362-.336 0-.609.162-.609.362 0 .2.273.362.61.362zm2.687-1.949a.27.27 0 01.18.256.27.27 0 01-.18.256.934.934 0 01-.86 0 .27.27 0 01-.178-.256.275.275 0 01.179-.256.934.934 0 01.86 0zm-6.769 1.331c.241.14.241.367 0 .512a.933.933 0 01-.86 0c-.24-.145-.24-.372 0-.512a.934.934 0 01.86 0zm2.259-1.331a.27.27 0 01.178.256.275.275 0 01-.179.256.931.931 0 01-.864 0 .27.27 0 01-.18-.256.27.27 0 01.18-.256.93.93 0 01.864 0zm2.257-1.331a.27.27 0 01.18.256.275.275 0 01-.18.256.931.931 0 01-.864 0 .27.27 0 01-.18-.256.275.275 0 01.18-.256.931.931 0 01.864 0zm-7.204 1.949c.337 0 .61-.162.61-.362 0-.2-.273-.362-.61-.362-.336 0-.609.162-.609.362 0 .2.273.362.61.362zm2.688-1.949c.241.145.241.372 0 .512a.933.933 0 01-.86 0c-.24-.14-.24-.367 0-.512a.934.934 0 01.86 0zm1.829-.713c.336 0 .609-.162.609-.362 0-.2-.273-.362-.61-.362-.336 0-.609.162-.609.362 0 .2.273.362.61.362zm-6.359.704a.273.273 0 010 .506.932.932 0 01-.864 0 .258.258 0 01-.132-.096.269.269 0 01.132-.41.932.932 0 01.864 0zm2.253-1.331a.266.266 0 01.132.41.258.258 0 01-.132.096.922.922 0 01-.86 0 .258.258 0 01-.131-.096.269.269 0 01.132-.41.922.922 0 01.86 0zm2.258-1.326a.264.264 0 01.152.241c0 .05-.014.1-.041.143a.26.26 0 01-.11.098.935.935 0 01-.884 0 .268.268 0 01-.145-.241.265.265 0 01.145-.241.923.923 0 01.883 0zm-6.769 1.326a.266.266 0 01.132.41.258.258 0 01-.132.096.932.932 0 01-.864 0 .258.258 0 01-.132-.096.269.269 0 01.132-.41.932.932 0 01.864 0zm2.258-1.326a.263.263 0 01.152.241c0 .05-.015.1-.042.143a.259.259 0 01-.11.098.932.932 0 01-.864 0 .259.259 0 01-.11-.098.272.272 0 010-.287.263.263 0 01.11-.097.92.92 0 01.864 0zm2.253-1.336c.241.14.241.366 0 .511a.935.935 0 01-.86 0c-.24-.145-.24-.371 0-.511a.923.923 0 01.86 0zm-6.769 1.336a.263.263 0 01.152.241c0 .05-.015.1-.041.143a.26.26 0 01-.11.098.932.932 0 01-.865 0 .268.268 0 01-.146-.241c0-.05.014-.099.04-.142a.266.266 0 01.106-.099.92.92 0 01.864 0zm2.258-1.336a.262.262 0 01.13.098.275.275 0 010 .314.264.264 0 01-.13.099.932.932 0 01-.864 0 .27.27 0 01-.18-.256c0-.056.018-.111.05-.157a.262.262 0 01.13-.098.932.932 0 01.864 0zm2.258-1.331a.262.262 0 01.13.098.274.274 0 01-.13.413.932.932 0 01-.864 0 .27.27 0 01-.18-.256c0-.056.018-.111.05-.157a.262.262 0 01.13-.098.92.92 0 01.864 0zm-6.764 1.331c.24.14.24.366 0 .511a.935.935 0 01-.86 0c-.241-.145-.241-.371 0-.511a.922.922 0 01.86 0zm2.248-1.331a.262.262 0 01.13.098.275.275 0 010 .314.264.264 0 01-.13.099.932.932 0 01-.864 0 .27.27 0 01-.18-.256c0-.056.018-.111.05-.157a.262.262 0 01.13-.098.92.92 0 01.864 0zm2.258-1.331a.262.262 0 01.13.098.275.275 0 010 .314.264.264 0 01-.13.099.932.932 0 01-.864 0 .27.27 0 01-.18-.256c0-.056.018-.111.05-.157a.262.262 0 01.13-.098.932.932 0 01.864 0zm65.614 46.402a.273.273 0 010 .506.932.932 0 01-.865 0 .264.264 0 01-.182-.253.266.266 0 01.182-.253.92.92 0 01.865 0zm2.258-1.331a.262.262 0 01.13.098.275.275 0 010 .314.27.27 0 01-.13.099.932.932 0 01-.865 0c-.24-.145-.24-.372 0-.511a.92.92 0 01.865 0zm2.257-1.331a.262.262 0 01.13.098.275.275 0 010 .314.264.264 0 01-.13.099.934.934 0 01-.86 0 .273.273 0 010-.511.922.922 0 01.86 0zm2.254-1.331c.24.144.24.371 0 .511a.932.932 0 01-.865 0 .275.275 0 01-.13-.413.262.262 0 01.13-.098.92.92 0 01.865 0zm1.828-.714c.336 0 .61-.162.61-.362 0-.2-.274-.362-.61-.362-.337 0-.61.162-.61.362 0 .2.273.362.61.362zm2.688-1.944a.272.272 0 010 .507.932.932 0 01-.865 0 .264.264 0 01-.182-.253.264.264 0 01.182-.254.932.932 0 01.865 0zm2.253-1.331a.264.264 0 01.182.254.264.264 0 01-.182.253.934.934 0 01-.86 0 .264.264 0 01-.182-.253.264.264 0 01.182-.254.934.934 0 01.86 0zm2.258-1.331c.24.14.24.367 0 .512a.934.934 0 01-.86 0c-.24-.145-.24-.372 0-.512a.934.934 0 01.86 0zm1.828-.713c.337 0 .61-.162.61-.362 0-.2-.273-.362-.61-.362-.337 0-.61.162-.61.362 0 .2.273.362.61.362zm2.253-1.331c.337 0 .61-.162.61-.362 0-.2-.273-.362-.61-.362-.336 0-.61.162-.61.362 0 .2.274.362.61.362zm2.258-1.331c.337 0 .61-.162.61-.362 0-.2-.273-.362-.61-.362-.336 0-.61.162-.61.362 0 .2.274.362.61.362zm2.693-1.944a.264.264 0 01.182.253.266.266 0 01-.182.254.933.933 0 01-.86 0 .266.266 0 010-.507.934.934 0 01.86 0zm1.823-.714c.337 0 .61-.161.61-.361 0-.2-.273-.362-.61-.362-.336 0-.609.162-.609.362 0 .2.273.361.609.361zm2.688-1.948a.27.27 0 01.179.256.275.275 0 01-.049.157.263.263 0 01-.13.098.921.921 0 01-.864 0 .259.259 0 01-.13-.098.275.275 0 010-.314.26.26 0 01.13-.099.927.927 0 01.864 0zM69.91 156.768a.266.266 0 01.132.41.264.264 0 01-.131.096.935.935 0 01-.86 0 .264.264 0 01-.182-.253.266.266 0 01.182-.253.922.922 0 01.86 0zm2.259-1.331c.24.139.24.366 0 .511a.932.932 0 01-.865 0 .27.27 0 01-.179-.256c0-.056.017-.111.05-.157a.262.262 0 01.13-.098.92.92 0 01.864 0zm2.258-1.331a.262.262 0 01.13.098.275.275 0 010 .314.27.27 0 01-.13.099.932.932 0 01-.865 0 .27.27 0 01-.179-.256c0-.056.017-.111.05-.157a.262.262 0 01.13-.098.92.92 0 01.864 0zm2.258-1.331a.262.262 0 01.13.098.275.275 0 010 .314.264.264 0 01-.13.099.932.932 0 01-.865 0 .275.275 0 01-.13-.413.262.262 0 01.13-.098.92.92 0 01.865 0zm2.257-1.327a.264.264 0 01.183.254.264.264 0 01-.182.253.934.934 0 01-.86 0 .264.264 0 01-.183-.253.264.264 0 01.182-.254.934.934 0 01.86 0zm2.254-1.331a.264.264 0 01.182.254.264.264 0 01-.182.253.932.932 0 01-.865 0 .264.264 0 01-.182-.253.264.264 0 01.182-.254.932.932 0 01.865 0zm1.828-.713c.336 0 .61-.162.61-.362 0-.2-.274-.362-.61-.362-.337 0-.61.162-.61.362 0 .2.273.362.61.362zm2.688-1.949a.27.27 0 01.179.256.274.274 0 01-.18.256.93.93 0 01-.864 0 .27.27 0 01-.179-.256.274.274 0 01.18-.256.93.93 0 01.864 0zm1.823-.713c.337 0 .61-.162.61-.362 0-.2-.273-.362-.61-.362-.336 0-.61.162-.61.362 0 .2.274.362.61.362zm2.258-1.331c.337 0 .61-.162.61-.362 0-.2-.273-.362-.61-.362-.336 0-.61.162-.61.362 0 .2.274.362.61.362zm2.258-1.331c.337 0 .61-.162.61-.362 0-.2-.273-.362-.61-.362-.337 0-.61.162-.61.362 0 .2.273.362.61.362zm2.688-1.944a.273.273 0 010 .507.931.931 0 01-.865 0 .266.266 0 01-.132-.411.264.264 0 01.133-.096.931.931 0 01.864 0zm2.253-1.331a.264.264 0 01.182.253.264.264 0 01-.182.254.934.934 0 01-.86 0 .264.264 0 01-.182-.254.264.264 0 01.182-.253.934.934 0 01.86 0zm2.263-1.331c.24.14.24.367 0 .511a.922.922 0 01-.86 0c-.24-.144-.24-.371 0-.511a.934.934 0 01.86 0zm2.253-1.331a.27.27 0 01.179.256.275.275 0 01-.049.157.263.263 0 01-.13.098.921.921 0 01-.864 0 .259.259 0 01-.13-.098.275.275 0 010-.314.26.26 0 01.13-.099.93.93 0 01.864 0zm-33.851 17.294a.262.262 0 01.13.098.275.275 0 010 .314.27.27 0 01-.13.099.932.932 0 01-.864 0c-.241-.145-.241-.372 0-.511a.92.92 0 01.864 0zm2.253-1.331a.262.262 0 01.13.098.275.275 0 010 .314.264.264 0 01-.13.099.934.934 0 01-.86 0 .273.273 0 010-.511.922.922 0 01.86 0zm2.259-1.331c.24.144.24.371 0 .511a.932.932 0 01-.865 0 .274.274 0 01-.13-.413.262.262 0 01.13-.098.92.92 0 01.865 0zm2.258-1.327a.272.272 0 010 .507.932.932 0 01-.865 0 .264.264 0 01-.182-.253.264.264 0 01.182-.254.931.931 0 01.865 0zm2.258-1.331a.272.272 0 010 .507.932.932 0 01-.865 0 .264.264 0 01-.182-.253.264.264 0 01.182-.254.932.932 0 01.865 0zm2.257-1.331a.264.264 0 01.183.254.264.264 0 01-.182.253.934.934 0 01-.86 0 .264.264 0 01-.183-.253.264.264 0 01.182-.254.934.934 0 01.86 0zm2.254-1.331c.24.14.24.367 0 .512a.931.931 0 01-.865 0 .27.27 0 01-.179-.256.275.275 0 01.18-.256.931.931 0 01.864 0zm2.258-1.331a.27.27 0 01.179.256.275.275 0 01-.18.256.931.931 0 01-.864 0 .27.27 0 01-.179-.256.275.275 0 01.18-.256.931.931 0 01.864 0zm2.258-1.331a.27.27 0 01.179.256.274.274 0 01-.18.256.93.93 0 01-.864 0 .27.27 0 01-.179-.256.274.274 0 01.18-.256.932.932 0 01.864 0zm2.253-1.326a.26.26 0 01.11.098.27.27 0 010 .287.264.264 0 01-.11.097.922.922 0 01-.86 0 .263.263 0 01-.151-.241.259.259 0 01.152-.241.934.934 0 01.859 0zm2.258-1.331a.264.264 0 01.182.253.266.266 0 01-.182.254.934.934 0 01-.86 0 .266.266 0 010-.507.934.934 0 01.86 0zm1.828-.714c.337 0 .61-.161.61-.361 0-.2-.273-.362-.61-.362-.337 0-.61.162-.61.362 0 .2.273.361.61.361zm2.253-1.331c.337 0 .61-.161.61-.361 0-.2-.273-.362-.61-.362-.336 0-.61.162-.61.362 0 .2.274.361.61.361zm2.258-1.331c.337 0 .61-.161.61-.361 0-.2-.273-.362-.61-.362-.336 0-.61.162-.61.362 0 .2.274.361.61.361zm2.258-1.331c.337 0 .61-.162.61-.361 0-.2-.273-.362-.61-.362-.336 0-.61.162-.61.362 0 .199.274.361.61.361zM65.4 154.106a.262.262 0 01.13.098.275.275 0 010 .314.27.27 0 01-.13.099.932.932 0 01-.865 0 .27.27 0 01-.18-.256c0-.056.018-.111.05-.157a.262.262 0 01.13-.098.92.92 0 01.864 0zm2.257-1.331a.262.262 0 01.13.098.275.275 0 010 .314.264.264 0 01-.13.099.932.932 0 01-.864 0c-.241-.14-.241-.367 0-.511a.92.92 0 01.864 0zm2.253-1.327a.264.264 0 01.183.254.264.264 0 01-.182.253.934.934 0 01-.86 0 .264.264 0 01-.182-.253.264.264 0 01.182-.254.934.934 0 01.86 0zm2.259-1.331a.264.264 0 01.182.254.264.264 0 01-.182.253.932.932 0 01-.865 0 .264.264 0 01-.182-.253.264.264 0 01.182-.254.932.932 0 01.865 0zm2.258-1.331a.272.272 0 010 .507.932.932 0 01-.865 0 .264.264 0 01-.182-.253.264.264 0 01.182-.254.93.93 0 01.865 0zm2.258-1.331a.27.27 0 01.179.256.275.275 0 01-.18.256.931.931 0 01-.864 0 .27.27 0 01-.179-.256.275.275 0 01.18-.256.931.931 0 01.864 0zm2.257-1.331a.27.27 0 01.18.256.27.27 0 01-.18.256.934.934 0 01-.86 0 .27.27 0 01-.178-.256.275.275 0 01.179-.256.934.934 0 01.86 0zm1.824-.713c.337 0 .61-.162.61-.362 0-.2-.273-.362-.61-.362-.337 0-.61.162-.61.362 0 .2.273.362.61.362zm2.688-1.944a.268.268 0 01.145.241c0 .05-.013.099-.04.142a.266.266 0 01-.105.099.92.92 0 01-.865 0 .264.264 0 01-.151-.241.26.26 0 01.152-.241.932.932 0 01.864 0zm2.258-1.331a.266.266 0 01.172.253.272.272 0 01-.173.254.93.93 0 01-.864 0 .266.266 0 01-.132-.411.264.264 0 01.132-.096.932.932 0 01.865 0zm2.253-1.331a.264.264 0 01.182.253.264.264 0 01-.182.254.934.934 0 01-.86 0 .264.264 0 01-.182-.254.264.264 0 01.182-.253.934.934 0 01.86 0zm2.258-1.331c.24.14.24.367 0 .511a.923.923 0 01-.86 0c-.24-.144-.24-.371 0-.511a.934.934 0 01.86 0zm2.257-1.331a.27.27 0 01.18.256.275.275 0 01-.05.157.262.262 0 01-.13.098.92.92 0 01-.864 0 .262.262 0 01-.13-.098.275.275 0 010-.314.264.264 0 01.13-.099.932.932 0 01.865 0zm1.824-.714c.337 0 .61-.162.61-.361 0-.2-.273-.362-.61-.362-.336 0-.61.162-.61.362 0 .199.274.361.61.361zm2.258-1.331c.337 0 .61-.161.61-.361 0-.2-.273-.362-.61-.362-.336 0-.61.162-.61.362 0 .2.274.361.61.361zm-33.439 16.667a.273.273 0 010 .506.932.932 0 01-.865 0 .266.266 0 01-.132-.41.259.259 0 01.132-.096.932.932 0 01.865 0zm1.823-.719c.337 0 .61-.162.61-.361 0-.2-.273-.362-.61-.362-.337 0-.61.162-.61.362 0 .199.273.361.61.361zm2.692-1.943a.273.273 0 010 .506.932.932 0 01-.864 0 .266.266 0 01-.132-.41.258.258 0 01.132-.096.932.932 0 01.864 0zm-6.773 1.331a.269.269 0 010 .506.922.922 0 01-.86 0 .266.266 0 01-.132-.41.258.258 0 01.132-.096.922.922 0 01.86 0zm1.828-.714c.336 0 .61-.162.61-.361 0-.2-.274-.362-.61-.362-.337 0-.61.162-.61.362 0 .199.273.361.61.361zm2.253-1.331c.337 0 .61-.162.61-.362 0-.199-.273-.361-.61-.361-.337 0-.61.162-.61.361 0 .2.273.362.61.362zm-6.316.714c.053.017.1.05.132.096a.269.269 0 01-.132.41.932.932 0 01-.864 0 .266.266 0 01-.132-.41.258.258 0 01.132-.096.932.932 0 01.864 0zm2.235-1.331c.24.14.24.366 0 .511a.935.935 0 01-.86 0c-.241-.145-.241-.371 0-.511a.922.922 0 01.86 0zm2.258-1.331a.268.268 0 01.179.255.268.268 0 01-.18.256.932.932 0 01-.864 0 .268.268 0 01-.179-.256.268.268 0 01.18-.255.932.932 0 01.864 0zm-6.77 1.331a.268.268 0 01.18.255.268.268 0 01-.18.256.932.932 0 01-.864 0 .268.268 0 01-.18-.256.268.268 0 01.18-.255.932.932 0 01.864 0zm2.277-1.331a.268.268 0 01.18.255.268.268 0 01-.18.256.932.932 0 01-.864 0 .268.268 0 01-.18-.256.268.268 0 01.18-.255.932.932 0 01.864 0zm2.235-1.331a.268.268 0 01.179.255.268.268 0 01-.18.256.935.935 0 01-.86 0 .268.268 0 01-.178-.256.268.268 0 01.18-.255.922.922 0 01.859 0zm-6.77 1.331a.268.268 0 01.18.255.268.268 0 01-.18.256.932.932 0 01-.864 0 .268.268 0 01-.18-.256.268.268 0 01.18-.255.931.931 0 01.864 0zm2.258-1.331a.268.268 0 01.18.255.268.268 0 01-.18.256.932.932 0 01-.864 0 .268.268 0 01-.18-.256.268.268 0 01.18-.255.932.932 0 01.864 0zm2.277-1.326a.266.266 0 01.132.41.258.258 0 01-.132.096.932.932 0 01-.864 0 .258.258 0 01-.132-.096.27.27 0 010-.314.258.258 0 01.132-.096.932.932 0 01.864 0zm-6.793 1.326a.268.268 0 01.18.255.268.268 0 01-.18.256.935.935 0 01-.86 0 .268.268 0 01-.178-.256.268.268 0 01.18-.255.922.922 0 01.858 0zm2.258-1.326a.273.273 0 010 .506.932.932 0 01-.864 0 .258.258 0 01-.132-.096.27.27 0 010-.314.258.258 0 01.132-.096.931.931 0 01.864 0zm1.824-.719c.336 0 .61-.162.61-.362 0-.199-.274-.361-.61-.361-.337 0-.61.162-.61.361 0 .2.273.362.61.362zm-6.335.719a.273.273 0 010 .506.932.932 0 01-.864 0 .258.258 0 01-.132-.096.27.27 0 010-.314.258.258 0 01.132-.096.932.932 0 01.864 0zm2.253-1.331a.266.266 0 01.132.41.258.258 0 01-.132.096.922.922 0 01-.86 0 .258.258 0 01-.131-.096.27.27 0 010-.314.258.258 0 01.132-.096.922.922 0 01.86 0zm1.829-.714c.336 0 .609-.162.609-.362 0-.199-.273-.361-.61-.361-.336 0-.609.162-.609.361 0 .2.273.362.61.362zm-6.774 1.326c.336 0 .609-.162.609-.362 0-.199-.273-.361-.61-.361-.336 0-.609.162-.609.361 0 .2.273.362.61.362zm2.692-1.943a.273.273 0 010 .506.932.932 0 01-.864 0 .258.258 0 01-.132-.096.269.269 0 01.132-.41.932.932 0 01.864 0zm2.253-1.331c.241.14.241.366 0 .511a.933.933 0 01-.86 0c-.24-.145-.24-.371 0-.511a.922.922 0 01.86 0zm-6.787 1.316a.266.266 0 01.172.253.272.272 0 01-.172.254.93.93 0 01-.865 0 .264.264 0 01-.183-.254.264.264 0 01.182-.253.932.932 0 01.865 0zm2.243-1.331a.273.273 0 010 .511.92.92 0 01-.864 0 .262.262 0 01-.13-.098.275.275 0 010-.314.264.264 0 01.13-.099.932.932 0 01.864 0zm2.267-1.336a.27.27 0 01.18.256.275.275 0 01-.18.256.934.934 0 01-.86 0 .27.27 0 01-.178-.256.275.275 0 01.179-.256.934.934 0 01.86 0zm-6.769 1.336a.273.273 0 010 .511.92.92 0 01-.864 0 .262.262 0 01-.13-.098.275.275 0 010-.314.264.264 0 01.13-.099.932.932 0 01.864 0zm2.259-1.336a.27.27 0 01.178.256.27.27 0 01-.18.256.93.93 0 01-.863 0 .27.27 0 01-.18-.256.274.274 0 01.18-.256.931.931 0 01.864 0zm1.823-.708c.336 0 .61-.162.61-.362 0-.2-.274-.362-.61-.362-.337 0-.61.162-.61.362 0 .2.273.362.61.362zm-6.34.708a.27.27 0 01.18.256.274.274 0 01-.18.256.934.934 0 01-.86 0 .27.27 0 01-.178-.256.274.274 0 01.179-.256.934.934 0 01.86 0zm2.258-1.326c.241.145.241.372 0 .511a.92.92 0 01-.864 0 .262.262 0 01-.13-.098.275.275 0 010-.314.264.264 0 01.13-.099.932.932 0 01.864 0zm2.259-1.326a.266.266 0 01.172.253.273.273 0 01-.173.253.92.92 0 01-.864 0 .266.266 0 01-.132-.41.264.264 0 01.132-.096.932.932 0 01.864 0zm-6.77 1.326a.27.27 0 01.18.256.275.275 0 01-.05.157.262.262 0 01-.13.098.92.92 0 01-.864 0c-.241-.139-.241-.366 0-.511a.932.932 0 01.864 0zm2.253-1.326a.264.264 0 01.183.253.266.266 0 01-.183.253.922.922 0 01-.86 0 .266.266 0 01-.132-.41.264.264 0 01.133-.096.935.935 0 01.86 0zm2.258-1.331a.264.264 0 01.183.253.266.266 0 01-.183.253.92.92 0 01-.864 0 .266.266 0 01-.182-.253.264.264 0 01.182-.253.932.932 0 01.864 0zm62.383 2.701a.918.918 0 01.864 0 .272.272 0 010 .506.93.93 0 01-.864 0 .259.259 0 01-.132-.096.27.27 0 010-.314.253.253 0 01.132-.096zm3.122-1.331a.265.265 0 01.132.41.259.259 0 01-.132.096.933.933 0 01-.864 0 .259.259 0 01-.132-.096.27.27 0 010-.314.253.253 0 01.132-.096.918.918 0 01.864 0zm2.258-1.331a.265.265 0 01.132.41.259.259 0 01-.132.096.933.933 0 01-.864 0 .259.259 0 01-.132-.096.27.27 0 010-.314.259.259 0 01.132-.096.918.918 0 01.864 0zm1.824-.714c.336 0 .609-.162.609-.362 0-.2-.273-.361-.609-.361-.337 0-.61.161-.61.361 0 .2.273.362.61.362zm2.257-1.331c.337 0 .61-.162.61-.362 0-.2-.273-.361-.61-.361-.336 0-.609.161-.609.361 0 .2.273.362.609.362zm2.258-1.331c.337 0 .61-.162.61-.362 0-.2-.273-.362-.61-.362-.336 0-.609.162-.609.362 0 .2.273.362.609.362zm2.258-1.331c.337 0 .61-.162.61-.362 0-.2-.273-.361-.61-.361-.336 0-.609.161-.609.361 0 .2.273.362.609.362zm2.688-1.958a.272.272 0 010 .506.918.918 0 01-.864 0 .265.265 0 01-.132-.41.259.259 0 01.132-.096.933.933 0 01.864 0zm2.254-1.317a.262.262 0 01.131.096.27.27 0 010 .315.262.262 0 01-.131.096.938.938 0 01-.86 0 .265.265 0 01-.183-.253.265.265 0 01.183-.254.932.932 0 01.86 0zm2.257-1.331c.241.14.241.367 0 .512a.926.926 0 01-.864 0 .271.271 0 01-.13-.413.271.271 0 01.13-.099.932.932 0 01.864 0zm-23.434 10.644a.918.918 0 01.864 0 .265.265 0 01.132.41.259.259 0 01-.132.096.933.933 0 01-.859 0 .27.27 0 01-.175-.251.264.264 0 01.046-.155.254.254 0 01.124-.1zm2.692-.714c.337 0 .61-.162.61-.362 0-.2-.273-.361-.61-.361-.336 0-.609.161-.609.361 0 .2.273.362.609.362zm2.688-1.948c.241.14.241.366 0 .511a.933.933 0 01-.864 0 .27.27 0 01-.179-.256c0-.056.017-.111.049-.157a.259.259 0 01.13-.098.918.918 0 01.864 0zm2.258-1.331a.263.263 0 01.13.098.275.275 0 010 .314.265.265 0 01-.13.099.933.933 0 01-.864 0 .27.27 0 01-.179-.256c0-.056.017-.111.049-.157a.259.259 0 01.13-.098.918.918 0 01.864 0zm2.258-1.331a.263.263 0 01.13.098.275.275 0 010 .314.265.265 0 01-.13.099.933.933 0 01-.864 0c-.241-.14-.241-.367 0-.511a.918.918 0 01.864 0zm2.253-1.327a.27.27 0 01.111.098.27.27 0 01-.111.385.931.931 0 01-.859 0 .257.257 0 01-.111-.098.27.27 0 01.111-.385.932.932 0 01.859 0zm1.828-.713c.337 0 .61-.162.61-.362 0-.2-.273-.362-.61-.362-.336 0-.609.162-.609.362 0 .2.273.362.609.362zm2.674-1.949a.27.27 0 01.125.408.265.265 0 01-.125.099.933.933 0 01-.864 0 .265.265 0 01-.183-.253.265.265 0 01.183-.254.93.93 0 01.864 0zm1.838-.713c.336 0 .609-.162.609-.362 0-.2-.273-.362-.609-.362-.337 0-.61.162-.61.362 0 .2.273.362.61.362zm2.258-1.331c.336 0 .609-.162.609-.362 0-.2-.273-.362-.609-.362-.337 0-.61.162-.61.362 0 .2.273.362.61.362zm2.258-1.331c.336 0 .609-.162.609-.362 0-.2-.273-.362-.609-.362-.337 0-.61.162-.61.362 0 .2.273.362.61.362zm-25.249 11.357a.921.921 0 01.86 0 .269.269 0 01.129.412.263.263 0 01-.129.099.933.933 0 01-.865 0 .27.27 0 01-.126-.414.262.262 0 01.131-.097zm3.113-1.331a.263.263 0 01.13.098.275.275 0 010 .314.265.265 0 01-.13.099.933.933 0 01-.865 0c-.24-.145-.24-.371 0-.511a.922.922 0 01.865 0zm2.253-1.331a.263.263 0 01.13.098.275.275 0 010 .314.265.265 0 01-.13.099.932.932 0 01-.86 0 .272.272 0 010-.511.927.927 0 01.86 0zm2.258-1.331c.241.144.241.371 0 .511a.933.933 0 01-.864 0 .27.27 0 01-.179-.256c0-.056.017-.111.049-.157a.259.259 0 01.13-.098.918.918 0 01.864 0zm2.258-1.327a.274.274 0 01.106.383.262.262 0 01-.106.1.933.933 0 01-.864 0 .257.257 0 01-.111-.098.27.27 0 01.111-.385.93.93 0 01.864 0zm1.824-.713c.336 0 .609-.162.609-.362 0-.2-.273-.362-.609-.362-.337 0-.61.162-.61.362 0 .2.273.362.61.362zm2.687-1.949a.265.265 0 01.183.254.265.265 0 01-.183.253.931.931 0 01-.859 0 .265.265 0 01-.183-.253.265.265 0 01.183-.254.932.932 0 01.859 0zm2.258-1.331c.241.14.241.367 0 .512a.93.93 0 01-.864 0 .271.271 0 01-.13-.413.271.271 0 01.13-.099.932.932 0 01.864 0zm2.244-1.331a.271.271 0 01.13.413.271.271 0 01-.13.099.932.932 0 01-.864 0 .267.267 0 01-.179-.256.267.267 0 01.179-.256.93.93 0 01.864 0zm2.272-1.326a.273.273 0 010 .511.918.918 0 01-.864 0c-.241-.139-.241-.366 0-.511a.933.933 0 01.864 0zm1.824-.718c.336 0 .609-.162.609-.362 0-.2-.273-.362-.609-.362-.337 0-.61.162-.61.362 0 .2.273.362.61.362zm2.258-1.326c.336 0 .609-.162.609-.362 0-.2-.273-.362-.609-.362-.337 0-.61.162-.61.362 0 .2.273.362.61.362zm-27.516 12.683a.922.922 0 01.86 0 .262.262 0 01.129.098.275.275 0 010 .314.264.264 0 01-.13.099.932.932 0 01-.864 0 .269.269 0 01-.177-.257.272.272 0 01.182-.254zm3.122-1.331a.263.263 0 01.13.098.275.275 0 010 .314.265.265 0 01-.13.099.933.933 0 01-.864 0 .272.272 0 010-.511.915.915 0 01.864 0zm2.258-1.331a.263.263 0 01.13.098.275.275 0 010 .314.265.265 0 01-.13.099.933.933 0 01-.865 0c-.24-.14-.24-.367 0-.511a.922.922 0 01.865 0zm2.253-1.327a.277.277 0 01.111.098.27.27 0 01-.111.385.932.932 0 01-.86 0 .27.27 0 010-.483.938.938 0 01.86 0zm2.258-1.345c.053.017.099.05.132.096a.27.27 0 010 .314.259.259 0 01-.132.096.921.921 0 01-.864 0 .265.265 0 01-.132-.41.259.259 0 01.132-.096.93.93 0 01.864 0zm1.828-.699c.337 0 .61-.162.61-.362 0-.2-.273-.362-.61-.362-.336 0-.609.162-.609.362 0 .2.273.362.609.362zm2.254-1.331c.336 0 .609-.162.609-.362 0-.2-.273-.362-.609-.362-.337 0-.61.162-.61.362 0 .2.273.362.61.362zm2.687-1.949a.267.267 0 01.179.256.267.267 0 01-.179.256.931.931 0 01-.859 0 .267.267 0 01-.179-.256.267.267 0 01.179-.256.932.932 0 01.859 0zm1.828-.713c.337 0 .61-.162.61-.362 0-.2-.273-.362-.61-.362-.336 0-.609.162-.609.362 0 .2.273.362.609.362zm2.258-1.331c.337 0 .61-.162.61-.362 0-.2-.273-.362-.61-.362-.336 0-.609.162-.609.362 0 .2.273.362.609.362zm2.688-1.944a.272.272 0 010 .507.93.93 0 01-.864 0 .265.265 0 01-.183-.254.265.265 0 01.183-.253.933.933 0 01.864 0zm2.254-1.331a.27.27 0 01.131.411.262.262 0 01-.131.096.938.938 0 01-.86 0 .265.265 0 01-.183-.254.265.265 0 01.183-.253.932.932 0 01.86 0zM2.044 111.697a.262.262 0 01.13.098.275.275 0 010 .314.264.264 0 01-.13.099.932.932 0 01-.864 0 .27.27 0 01-.18-.256c0-.056.018-.111.05-.157a.262.262 0 01.13-.098.92.92 0 01.864 0zm2.263-1.331a.262.262 0 01.13.098.275.275 0 010 .314.264.264 0 01-.13.099.935.935 0 01-.86 0 .27.27 0 01-.18-.256c0-.056.018-.111.05-.157a.262.262 0 01.13-.098.922.922 0 01.86 0zm1.818-.714c.337 0 .61-.162.61-.362 0-.199-.273-.361-.61-.361-.336 0-.609.162-.609.361 0 .2.273.362.61.362zm-4.081-.593a.266.266 0 01.11.384.26.26 0 01-.11.098.932.932 0 01-.864 0 .269.269 0 010-.482.932.932 0 01.864 0zm1.823-.738c.337 0 .61-.162.61-.362 0-.199-.273-.361-.61-.361-.336 0-.609.162-.609.361 0 .2.273.362.61.362zm65.586 27.691l-.142-32.552.6-.005.141 31.505 41.447-24.035-.033-24.238h.605l.028 24.595-.151.087-42.495 24.643zm-23.534-46.6h-.6v32.094h.6V89.412z" fill="#fff"/><path d="M47.34 101.888l-4.242-2.503v-6.563l4.242 2.498v6.568z" fill="#F7971D"/><path d="M43.098 92.822l1.399-.878 4.246 2.503-1.403.873-4.242-2.498z" fill="#FFBE2E"/><path d="M43.098 93.84l1.399-.874 4.246 2.503-1.403.873-4.242-2.503z" fill="#565656"/><path d="M44.492 91.587l-1.696 1.075v6.916l4.55 2.681 1.695-1.061v-6.93l-4.549-2.681zm2.55 9.756l-3.646-2.146v-5.845l3.647 2.146v5.845zm-3.358-8.546l.817-.51 3.652 2.15-.151.097-.666.414-3.652-2.15zm25.796 56.944l-.146-.087-29.471-17.081-.151-7.986 5.909-3.433 24.016 14.26-.184.598-23.837-14.154-5.3 3.081.142 7.273 29.023 16.82 53.884-31.461v-5.744l-11.72-7.147.307-.526 12.013 7.321v6.452l-.151.087-54.333 31.727z" fill="#fff"/><path d="M69.48 141.818l-22.286-12.635.293-.54 21.99 12.471 49.117-28.901-6.977-4.109.302-.53 7.88 4.639-50.318 29.605zm3.411-115.137l-7.917-4.663 14.3-8.444 7.916 4.663-14.299 8.444zm-6.703-4.663l6.718 3.954L86 18.256l-6.727-3.959-13.085 7.721z" fill="#fff"/><path d="M72.693 52.438l-.104-26.109.6-.005.1 25.048 14.643-8.69-1.644-24.406.6-.044 1.672 24.793-15.867 9.413z" fill="#fff"/><path d="M72.665 52.438l-7.294-15.47-.1-14.95.605-.005.095 14.882L73.189 52l-.524.44z" fill="#fff"/></g><defs><clipPath id="clip0"><path fill="#fff" d="M1 2h125.53v155.38H1z"/></clipPath></defs></svg>