<svg width="240" height="220" fill="none" xmlns="http://www.w3.org/2000/svg"><g clip-path="url(#clip0)"><path d="M131.562 193.531c.403 0 .729-.193.729-.431 0-.237-.326-.43-.729-.43-.402 0-.728.193-.728.43 0 .238.326.431.728.431zm3.2-2.328a.32.32 0 01.214.306.325.325 0 01-.214.306 1.083 1.083 0 01-1.026 0 .322.322 0 01-.214-.306.328.328 0 01.214-.306 1.134 1.134 0 011.026 0zm-5.263 2.934a.32.32 0 01.206.303.32.32 0 01-.206.303 1.083 1.083 0 01-1.026 0c-.287-.164-.287-.436 0-.606a1.083 1.083 0 011.026 0zm-3.206-.595c.403 0 .729-.193.729-.43 0-.238-.326-.431-.729-.431-.402 0-.728.193-.728.431 0 .237.326.43.728.43zm3.2-2.328a.324.324 0 01.206.303.328.328 0 01-.056.185.311.311 0 01-.15.118 1.071 1.071 0 01-1.026 0c-.287-.164-.287-.436 0-.606a1.083 1.083 0 011.026 0zm2.687-1.591c.287.164.287.436 0 .606a1.083 1.083 0 01-1.026 0c-.287-.17-.287-.442 0-.606a1.071 1.071 0 011.026 0zm-8.061 1.591a.324.324 0 01.206.303.317.317 0 01-.206.303 1.102 1.102 0 01-1.031 0 .317.317 0 01-.206-.303c0-.066.02-.13.056-.184a.313.313 0 01.15-.119 1.119 1.119 0 011.031 0zm2.687-1.591a.317.317 0 01.206.303.324.324 0 01-.206.303 1.083 1.083 0 01-1.026 0c-.287-.17-.287-.442 0-.606a1.074 1.074 0 011.026 0zm2.687-1.598a.325.325 0 01.214.306c0 .068-.02.134-.059.189a.311.311 0 01-.155.117 1.083 1.083 0 01-1.026 0 .32.32 0 01-.214-.306.322.322 0 01.214-.306c.16-.08.335-.123.513-.123s.354.043.513.123zm-8.044 1.598a.317.317 0 01.206.303.317.317 0 01-.206.303 1.119 1.119 0 01-1.032 0 .32.32 0 01-.206-.303.32.32 0 01.206-.303 1.11 1.11 0 011.032 0zm2.671-1.598a.325.325 0 01.213.306.326.326 0 01-.213.306 1.11 1.11 0 01-1.032 0 .311.311 0 01-.155-.117.333.333 0 010-.377.313.313 0 01.155-.118 1.143 1.143 0 011.032 0zm2.686-1.591a.32.32 0 01.214.306.325.325 0 01-.214.306 1.13 1.13 0 01-1.026 0 .322.322 0 01-.214-.306.328.328 0 01.214-.306 1.086 1.086 0 011.026 0zm-8.601 2.311c.402 0 .728-.193.728-.431 0-.237-.326-.43-.728-.43-.402 0-.728.193-.728.43 0 .238.326.431.728.431zm3.2-2.328a.32.32 0 01.214.306.322.322 0 01-.214.306 1.134 1.134 0 01-1.026 0 .313.313 0 01-.155-.118.332.332 0 010-.377.311.311 0 01.155-.117 1.083 1.083 0 011.026 0zm2.692-1.592a.32.32 0 01.206.303.325.325 0 01-.056.185.311.311 0 01-.15.118 1.103 1.103 0 01-1.031 0 .311.311 0 01-.15-.118.325.325 0 01-.056-.185.324.324 0 01.206-.303 1.116 1.116 0 011.031 0zm-8.579 2.328c.402 0 .728-.192.728-.43s-.326-.431-.728-.431c-.402 0-.728.193-.728.431s.326.43.728.43zm3.2-2.328c.287.17.287.442 0 .606a1.071 1.071 0 01-1.026 0c-.287-.164-.287-.436 0-.606a1.083 1.083 0 011.026 0zm2.174-.861c.402 0 .728-.192.728-.43s-.326-.43-.728-.43c-.402 0-.728.192-.728.43s.326.43.728.43zm-7.548.861a.313.313 0 01.15.119.332.332 0 010 .369.311.311 0 01-.15.118 1.106 1.106 0 01-1.032 0c-.281-.164-.281-.436 0-.606a1.084 1.084 0 011.032 0zm2.687-1.58a.31.31 0 01.149.118.33.33 0 010 .37.31.31 0 01-.149.118 1.071 1.071 0 01-1.026 0c-.287-.17-.287-.442 0-.606a1.083 1.083 0 011.026 0zm2.687-1.608a.314.314 0 01.155.117.333.333 0 010 .377.314.314 0 01-.155.117 1.071 1.071 0 01-1.026 0 .306.306 0 01-.155-.117.332.332 0 010-.377.306.306 0 01.155-.117 1.13 1.13 0 011.026 0zm-8.061 1.608a.317.317 0 01.206.303.317.317 0 01-.206.303 1.106 1.106 0 01-1.032 0 .32.32 0 01-.206-.303.32.32 0 01.206-.303 1.122 1.122 0 011.032 0zm2.687-1.608a.31.31 0 01.155.117.333.333 0 010 .377.31.31 0 01-.155.117 1.071 1.071 0 01-1.026 0 .31.31 0 01-.155-.117.332.332 0 010-.377.31.31 0 01.155-.117 1.13 1.13 0 011.026 0zm2.174-.856c.402 0 .728-.192.728-.43s-.326-.43-.728-.43c-.402 0-.728.192-.728.43s.326.43.728.43zm-4.861-.736a.313.313 0 01.155.118.33.33 0 010 .376.313.313 0 01-.155.118 1.143 1.143 0 01-1.032 0 .323.323 0 01-.213-.306.323.323 0 01.213-.306 1.122 1.122 0 011.032 0zm2.687-1.591a.311.311 0 01.15.118.335.335 0 010 .369.32.32 0 01-.15.119 1.082 1.082 0 01-1.026 0 .32.32 0 010-.606 1.071 1.071 0 011.026 0zm61.888 39.612a.32.32 0 010 .606 1.071 1.071 0 01-1.026 0 .316.316 0 01-.218-.303.318.318 0 01.218-.303 1.082 1.082 0 011.026 0zm2.687-1.597a.322.322 0 01.214.306.328.328 0 01-.214.306 1.083 1.083 0 01-1.026 0 .328.328 0 010-.612 1.13 1.13 0 011.026 0zm2.692-1.591a.325.325 0 01.214.305c0 .068-.02.134-.059.189a.306.306 0 01-.155.117 1.142 1.142 0 01-1.031 0 .306.306 0 01-.155-.117.333.333 0 010-.377.306.306 0 01.155-.117 1.104 1.104 0 011.031 0zm2.687-1.614a.325.325 0 01.214.305c0 .068-.02.134-.059.189a.311.311 0 01-.155.117 1.143 1.143 0 01-1.031 0 .311.311 0 01-.155-.117.326.326 0 01-.059-.189.325.325 0 01.214-.305 1.102 1.102 0 011.031 0zm2.174-.839c.402 0 .728-.193.728-.43 0-.238-.326-.431-.728-.431-.402 0-.728.193-.728.431 0 .237.326.43.728.43zm3.2-2.328a.313.313 0 01.155.118.332.332 0 010 .377.311.311 0 01-.155.117 1.071 1.071 0 01-1.026 0 .32.32 0 01-.214-.306.322.322 0 01.214-.306c.16-.08.335-.123.513-.123s.354.043.513.123zm2.687-1.591a.328.328 0 010 .612c-.159.08-.335.123-.513.123s-.353-.043-.513-.123a.322.322 0 01-.214-.306.328.328 0 01.214-.306 1.083 1.083 0 011.026 0zm2.687-1.592c.287.17.287.442 0 .606a1.071 1.071 0 01-1.026 0 .317.317 0 01-.206-.303c0-.066.02-.13.056-.184a.313.313 0 01.15-.119 1.083 1.083 0 011.026 0zm2.174-.861c.402 0 .728-.192.728-.43s-.326-.43-.728-.43c-.402 0-.728.192-.728.43s.326.43.728.43zm2.692-1.591c.403 0 .729-.193.729-.431 0-.237-.326-.43-.729-.43-.402 0-.728.193-.728.43 0 .238.326.431.728.431zm2.687-1.592c.403 0 .729-.192.729-.43s-.326-.431-.729-.431c-.402 0-.728.193-.728.431s.326.43.728.43zm3.2-2.328c.287.17.287.442 0 .606a1.071 1.071 0 01-1.026 0c-.287-.164-.287-.436 0-.606a1.083 1.083 0 011.026 0zm2.174-.86c.402 0 .729-.193.729-.431s-.327-.43-.729-.43c-.402 0-.728.192-.728.43s.326.431.728.431zm3.2-2.328a.306.306 0 01.155.117.326.326 0 01.059.189.325.325 0 01-.214.305 1.071 1.071 0 01-1.026 0 .314.314 0 01-.155-.117.332.332 0 010-.377.314.314 0 01.155-.117 1.134 1.134 0 011.026 0zm-40.315 20.712a.32.32 0 01.206.303c0 .066-.02.131-.056.185a.311.311 0 01-.15.118 1.071 1.071 0 01-1.026 0 .32.32 0 010-.606 1.082 1.082 0 011.026 0zm2.687-1.597a.318.318 0 01.155.118.332.332 0 010 .376.318.318 0 01-.155.118 1.083 1.083 0 01-1.026 0 .328.328 0 010-.612 1.13 1.13 0 011.026 0zm2.687-1.591a.31.31 0 01.155.117.332.332 0 010 .377.31.31 0 01-.155.117 1.13 1.13 0 01-1.026 0 .31.31 0 01-.155-.117.333.333 0 010-.377.31.31 0 01.155-.117 1.071 1.071 0 011.026 0zm2.687-1.615a.322.322 0 01.214.306.328.328 0 01-.214.306 1.134 1.134 0 01-1.026 0 .328.328 0 010-.612 1.083 1.083 0 011.026 0zm2.692-1.568a.311.311 0 01.15.118.328.328 0 010 .369.313.313 0 01-.15.119 1.115 1.115 0 01-1.031 0 .324.324 0 01-.206-.303c0-.066.019-.131.056-.185a.311.311 0 01.15-.118 1.103 1.103 0 011.031 0zm2.687-1.598a.325.325 0 01.155.494.313.313 0 01-.155.118 1.103 1.103 0 01-1.031 0 .323.323 0 01-.214-.306.325.325 0 01.214-.306 1.142 1.142 0 011.031 0zm2.174-.855c.402 0 .728-.193.728-.43 0-.238-.326-.431-.728-.431-.402 0-.728.193-.728.431 0 .237.326.43.728.43zm3.2-2.328c.287.17.287.442 0 .606a1.071 1.071 0 01-1.026 0c-.287-.164-.287-.436 0-.606a1.083 1.083 0 011.026 0zm2.174-.861c.402 0 .728-.192.728-.43s-.326-.43-.728-.43c-.402 0-.728.192-.728.43s.326.43.728.43zm2.687-1.591c.402 0 .728-.193.728-.431 0-.237-.326-.43-.728-.43-.402 0-.728.193-.728.43 0 .238.326.431.728.431zm2.687-1.592c.402 0 .728-.192.728-.43s-.326-.431-.728-.431c-.402 0-.728.193-.728.431s.326.43.728.43zm3.206-2.327a.326.326 0 010 .606 1.122 1.122 0 01-1.032 0 .32.32 0 01-.206-.303c0-.067.02-.131.056-.185a.311.311 0 01.15-.118 1.107 1.107 0 011.032 0zm2.687-1.592a.32.32 0 01.205.303.32.32 0 01-.205.303 1.09 1.09 0 01-1.027 0c-.287-.17-.287-.442 0-.606a1.089 1.089 0 011.027 0zm2.686-1.597a.306.306 0 01.155.117.326.326 0 01.059.189.325.325 0 01-.214.305 1.071 1.071 0 01-1.026 0 .314.314 0 01-.155-.117.332.332 0 010-.377.314.314 0 01.155-.117 1.134 1.134 0 011.026 0zm2.687-1.592a.325.325 0 01.155.494.313.313 0 01-.155.118 1.13 1.13 0 01-1.026 0 .322.322 0 01-.214-.306.322.322 0 01.214-.306 1.083 1.083 0 011.026 0zm-40.315 20.707a.313.313 0 01.155.118.33.33 0 010 .376.313.313 0 01-.155.118 1.119 1.119 0 01-1.031 0 .325.325 0 01-.155-.494.313.313 0 01.155-.118 1.142 1.142 0 011.031 0zm2.687-1.591a.306.306 0 01.155.117.332.332 0 010 .377.306.306 0 01-.155.117 1.13 1.13 0 01-1.026 0 .314.314 0 01-.155-.117.333.333 0 010-.377.314.314 0 01.155-.117 1.071 1.071 0 011.026 0zm2.687-1.615a.318.318 0 01.155.118.332.332 0 010 .376.318.318 0 01-.155.118 1.13 1.13 0 01-1.026 0 .328.328 0 010-.612 1.083 1.083 0 011.026 0zm2.687-1.568a.32.32 0 010 .606 1.083 1.083 0 01-1.026 0 .318.318 0 01-.218-.303.316.316 0 01.218-.303 1.071 1.071 0 011.026 0zm2.687-1.598a.322.322 0 01.214.306.32.32 0 01-.214.306 1.071 1.071 0 01-1.026 0 .311.311 0 01-.155-.117.333.333 0 010-.377.313.313 0 01.155-.118c.159-.08.335-.123.513-.123s.353.043.513.123zm2.692-1.591a.32.32 0 01.214.306.325.325 0 01-.214.306 1.142 1.142 0 01-1.031 0 .313.313 0 01-.155-.118.332.332 0 010-.376.313.313 0 01.155-.118 1.103 1.103 0 011.031 0zm2.687-1.592a.324.324 0 01.206.303.328.328 0 01-.056.185.311.311 0 01-.15.118 1.103 1.103 0 01-1.031 0 .311.311 0 01-.15-.118.328.328 0 010-.369.313.313 0 01.15-.119 1.115 1.115 0 011.031 0zm2.704-1.58a.32.32 0 01.206.303.32.32 0 01-.206.303 1.086 1.086 0 01-1.026 0c-.287-.17-.287-.442 0-.606a1.083 1.083 0 011.026 0zm2.67-1.608a.306.306 0 01.155.117.333.333 0 010 .377.306.306 0 01-.155.117 1.071 1.071 0 01-1.026 0 .314.314 0 01-.155-.117.332.332 0 010-.377.314.314 0 01.155-.117 1.134 1.134 0 011.026 0zm2.687-1.592a.328.328 0 010 .612 1.13 1.13 0 01-1.026 0 .322.322 0 01-.214-.306.328.328 0 01.214-.306 1.083 1.083 0 011.026 0zm2.687-1.592c.287.17.287.442 0 .606a1.071 1.071 0 01-1.026 0 .311.311 0 01-.15-.118.335.335 0 010-.369.313.313 0 01.15-.119 1.083 1.083 0 011.026 0zm2.174-.86c.402 0 .728-.193.728-.431s-.326-.43-.728-.43c-.402 0-.728.192-.728.43s.326.431.728.431zm2.692-1.592c.403 0 .729-.193.729-.43 0-.238-.326-.431-.729-.431-.402 0-.728.193-.728.431 0 .237.326.43.728.43zm2.687-1.591c.403 0 .729-.193.729-.431s-.326-.43-.729-.43c-.402 0-.728.192-.728.43s.326.431.728.431zm2.687-1.592c.403 0 .729-.193.729-.43 0-.238-.326-.431-.729-.431-.402 0-.728.193-.728.431 0 .237.326.43.728.43zm-39.802 19.971a.325.325 0 01.214.305c0 .068-.02.134-.059.189a.306.306 0 01-.155.117 1.143 1.143 0 01-1.031 0 .306.306 0 01-.155-.117.326.326 0 01-.059-.189.325.325 0 01.214-.305 1.103 1.103 0 011.031 0zm2.687-1.614a.306.306 0 01.155.117.332.332 0 010 .377.311.311 0 01-.155.117 1.143 1.143 0 01-1.031 0 .311.311 0 01-.155-.117.326.326 0 01-.059-.189.325.325 0 01.214-.305 1.102 1.102 0 011.031 0zm2.687-1.569a.311.311 0 01.15.118.335.335 0 010 .369.313.313 0 01-.15.119 1.083 1.083 0 01-1.026 0 .32.32 0 010-.606 1.071 1.071 0 011.026 0zm2.687-1.598a.318.318 0 01.155.118.332.332 0 010 .377.316.316 0 01-.155.117 1.071 1.071 0 01-1.026 0 .316.316 0 01-.155-.117.333.333 0 010-.377.318.318 0 01.155-.118c.159-.08.335-.123.513-.123s.354.043.513.123zm2.687-1.591a.328.328 0 010 .612c-.159.08-.335.123-.513.123s-.354-.043-.513-.123a.318.318 0 01-.155-.118.332.332 0 010-.376.318.318 0 01.155-.118 1.083 1.083 0 011.026 0zm2.687-1.592c.287.17.287.442 0 .606a1.071 1.071 0 01-1.026 0 .317.317 0 01-.206-.303c0-.066.02-.13.056-.184a.313.313 0 01.15-.119 1.083 1.083 0 011.026 0zm2.692-1.58a.317.317 0 01.206.303.317.317 0 01-.206.303 1.102 1.102 0 01-1.031 0 .317.317 0 01-.206-.303.317.317 0 01.206-.303 1.116 1.116 0 011.031 0zm2.174-.872c.403 0 .729-.193.729-.431 0-.237-.326-.43-.729-.43-.402 0-.728.193-.728.43 0 .238.326.431.728.431zm3.217-2.328a.322.322 0 01.214.306.322.322 0 01-.214.306 1.134 1.134 0 01-1.026 0 .325.325 0 01-.155-.494.313.313 0 01.155-.118 1.083 1.083 0 011.026 0zm2.67-1.592c.287.17.287.442 0 .606a1.071 1.071 0 01-1.026 0c-.287-.164-.287-.436 0-.606a1.083 1.083 0 011.026 0zm2.687-1.591c.287.164.287.436 0 .606a1.083 1.083 0 01-1.026 0c-.287-.17-.287-.442 0-.606a1.083 1.083 0 011.026 0zm2.687-1.597a.31.31 0 01.155.117.333.333 0 010 .377.31.31 0 01-.155.117 1.071 1.071 0 01-1.026 0 .31.31 0 01-.155-.117.332.332 0 010-.377.31.31 0 01.155-.117 1.134 1.134 0 011.026 0zm2.693-1.592a.325.325 0 01.154.494.315.315 0 01-.154.118 1.146 1.146 0 01-1.032 0 .328.328 0 010-.612 1.119 1.119 0 011.032 0zm2.173-.855c.403 0 .729-.193.729-.43 0-.238-.326-.431-.729-.431-.402 0-.728.193-.728.431 0 .237.326.43.728.43zm2.687-1.597c.403 0 .729-.193.729-.431 0-.237-.326-.43-.729-.43-.402 0-.728.193-.728.43 0 .238.326.431.728.431zm-39.829 19.953a.322.322 0 01.214.306.328.328 0 01-.214.306 1.134 1.134 0 01-1.026 0 .32.32 0 01-.214-.306.325.325 0 01.214-.306 1.083 1.083 0 011.026 0zm2.174-.855c.402 0 .728-.192.728-.43s-.326-.431-.728-.431c-.403 0-.729.193-.729.431s.326.43.729.43zm3.205-2.328a.313.313 0 01.155.118.332.332 0 010 .376.313.313 0 01-.155.118 1.106 1.106 0 01-1.032 0 .32.32 0 01-.213-.306.325.325 0 01.213-.306 1.146 1.146 0 011.032 0zm-8.066 1.598a.31.31 0 01.157.114.327.327 0 010 .377.311.311 0 01-.157.115 1.083 1.083 0 01-1.026 0 .314.314 0 01-.218-.303.312.312 0 01.218-.303 1.071 1.071 0 011.026 0zm2.174-.861c.402 0 .728-.193.728-.431 0-.237-.326-.43-.728-.43-.403 0-.729.193-.729.43 0 .238.326.431.729.431zm2.687-1.592c.402 0 .728-.193.728-.43 0-.238-.326-.431-.728-.431-.403 0-.729.193-.729.431 0 .237.326.43.729.43zm-7.548.856a.314.314 0 01.155.117.332.332 0 010 .377.32.32 0 01-.155.117 1.083 1.083 0 01-1.026 0 .311.311 0 01-.155-.117.333.333 0 010-.377.306.306 0 01.155-.117 1.13 1.13 0 011.026 0zm2.687-1.592a.32.32 0 01.214.306.322.322 0 01-.214.306c-.16.08-.335.123-.513.123s-.354-.043-.513-.123a.325.325 0 01-.214-.306c0-.068.02-.134.059-.189a.311.311 0 01.155-.117 1.071 1.071 0 011.026 0zm2.687-1.592c.287.17.287.442 0 .606a1.077 1.077 0 01-1.026 0c-.287-.164-.287-.436 0-.606a1.083 1.083 0 011.026 0zm-8.061 1.592a.32.32 0 01.214.306.322.322 0 01-.214.306 1.16 1.16 0 01-.516.123 1.16 1.16 0 01-.516-.123.322.322 0 01-.214-.306.32.32 0 01.214-.306 1.11 1.11 0 011.032 0zm2.687-1.592a.325.325 0 010 .606 1.071 1.071 0 01-1.026 0c-.287-.164-.287-.436 0-.606a1.083 1.083 0 011.026 0zm2.687-1.563c.063.02.118.06.157.115a.321.321 0 01-.157.491 1.083 1.083 0 01-1.026 0 .308.308 0 01-.158-.115.321.321 0 01.158-.491 1.083 1.083 0 011.026 0zm-8.061 1.563a.325.325 0 010 .606 1.11 1.11 0 01-1.032 0 .313.313 0 01-.149-.118.328.328 0 01.149-.488 1.122 1.122 0 011.032 0zm2.687-1.563c.06.023.113.064.149.118a.33.33 0 010 .37.315.315 0 01-.149.118 1.11 1.11 0 01-1.032 0 .32.32 0 01-.206-.303.32.32 0 01.206-.303 1.122 1.122 0 011.032 0zm2.687-1.625a.314.314 0 01.155.117.332.332 0 010 .377.314.314 0 01-.155.117 1.071 1.071 0 01-1.026 0 .306.306 0 01-.155-.117.333.333 0 010-.377.306.306 0 01.155-.117 1.13 1.13 0 011.026 0zm-8.066 1.625c.063.02.118.06.157.115a.321.321 0 01-.157.491 1.09 1.09 0 01-1.027 0 .32.32 0 01-.206-.303.32.32 0 01.206-.303 1.089 1.089 0 011.027 0zm2.692-1.625a.314.314 0 01.155.117.333.333 0 010 .377.314.314 0 01-.155.117 1.11 1.11 0 01-1.032 0 .314.314 0 01-.155-.117.332.332 0 010-.377.314.314 0 01.155-.117 1.146 1.146 0 011.032 0zm2.174-.856c.402 0 .728-.192.728-.43s-.326-.431-.728-.431c-.402 0-.728.193-.728.431s.326.43.728.43zm-7.553.856a.325.325 0 01.213.305.326.326 0 01-.213.306 1.078 1.078 0 01-1.027 0 .326.326 0 01-.213-.306.325.325 0 01.213-.305 1.134 1.134 0 011.027 0zm2.686-1.592a.323.323 0 01.214.306.325.325 0 01-.214.306 1.13 1.13 0 01-1.026 0 .322.322 0 01-.214-.306.322.322 0 01.214-.306 1.083 1.083 0 011.026 0zm2.174-.855c.403 0 .729-.193.729-.431 0-.237-.326-.43-.729-.43-.402 0-.728.193-.728.43 0 .238.326.431.728.431zm-8.06 1.591c.402 0 .728-.192.728-.43s-.326-.431-.728-.431c-.403 0-.729.193-.729.431s.326.43.729.43zm3.2-2.327c.287.17.287.441 0 .606a1.09 1.09 0 01-1.027 0c-.287-.165-.287-.436 0-.606a1.077 1.077 0 011.027 0zm2.686-1.592c.287.164.287.436 0 .606a1.083 1.083 0 01-1.026 0 .32.32 0 01-.206-.303.32.32 0 01.206-.303 1.083 1.083 0 011.026 0zm-8.082 1.575c.06.022.112.064.149.118a.328.328 0 01-.149.488 1.122 1.122 0 01-1.032 0 .313.313 0 01-.15-.119.332.332 0 010-.369.311.311 0 01.15-.118 1.107 1.107 0 011.032 0zm2.687-1.592a.32.32 0 01.206.303.32.32 0 01-.206.303 1.09 1.09 0 01-1.027 0 .306.306 0 01-.157-.115.321.321 0 01.157-.491 1.089 1.089 0 011.027 0zm2.687-1.597a.326.326 0 01.213.306.325.325 0 01-.213.305 1.078 1.078 0 01-1.027 0 .314.314 0 01-.155-.117.332.332 0 010-.377.32.32 0 01.155-.117 1.134 1.134 0 011.027 0zm-8.061 1.597a.32.32 0 01.206.303.32.32 0 01-.206.303 1.122 1.122 0 01-1.032 0 .315.315 0 01-.149-.118.328.328 0 01.149-.488 1.11 1.11 0 011.032 0zm2.687-1.597a.326.326 0 01.213.306.325.325 0 01-.213.306 1.122 1.122 0 01-1.032 0 .318.318 0 01-.155-.118.332.332 0 010-.377.316.316 0 01.155-.117 1.143 1.143 0 011.032 0zm2.173-.855c.403 0 .729-.193.729-.431s-.326-.43-.729-.43c-.402 0-.728.192-.728.43s.326.431.728.431zm-7.553.855a.311.311 0 01.155.117.326.326 0 01.059.189.325.325 0 01-.214.305 1.071 1.071 0 01-1.026 0 .314.314 0 01-.155-.117.332.332 0 010-.377.32.32 0 01.155-.117 1.134 1.134 0 011.026 0zm2.693-1.614a.326.326 0 01.213.306.325.325 0 01-.213.305 1.147 1.147 0 01-1.032 0 .31.31 0 01-.155-.117.332.332 0 010-.377.31.31 0 01.155-.117 1.106 1.106 0 011.032 0zm2.687-1.569a.32.32 0 01.206.303.32.32 0 01-.206.303 1.122 1.122 0 01-1.032 0 .317.317 0 01-.206-.303.317.317 0 01.206-.303 1.106 1.106 0 011.032 0zm-8.067 1.569a.306.306 0 01.155.117.333.333 0 010 .377.306.306 0 01-.155.117 1.13 1.13 0 01-1.026 0 .314.314 0 01-.155-.117.332.332 0 010-.377.314.314 0 01.155-.117 1.071 1.071 0 011.026 0zm2.687-1.569c.287.17.287.442 0 .606a1.083 1.083 0 01-1.026 0 .315.315 0 01-.149-.118.33.33 0 010-.37.315.315 0 01.149-.118 1.083 1.083 0 011.026 0zm2.693-1.592a.325.325 0 010 .606 1.11 1.11 0 01-1.032 0 .309.309 0 01-.149-.118.328.328 0 01.149-.488 1.122 1.122 0 011.032 0zm74.296 3.234a1.083 1.083 0 011.026 0 .314.314 0 01.218.303.312.312 0 01-.218.303 1.071 1.071 0 01-1.026 0c-.287-.164-.287-.436 0-.606zm3.719-1.597a.322.322 0 01.214.306.322.322 0 01-.214.306 1.146 1.146 0 01-1.032 0 .322.322 0 01-.214-.306.328.328 0 01.214-.306 1.11 1.11 0 011.032 0zm2.687-1.591c.06.022.112.064.149.118a.328.328 0 01-.149.488 1.089 1.089 0 01-1.027 0c-.286-.165-.286-.436 0-.606a1.078 1.078 0 011.027 0zm2.174-.861c.402 0 .728-.193.728-.431s-.326-.43-.728-.43c-.403 0-.729.192-.729.43s.326.431.729.431zm-11.261 2.452a1.143 1.143 0 011.031 0 .323.323 0 01.214.306.323.323 0 01-.214.306 1.083 1.083 0 01-1.026 0 .32.32 0 01-.216-.304.324.324 0 01.211-.308zm3.194-.855c.402 0 .729-.193.729-.431 0-.237-.327-.43-.729-.43-.402 0-.728.193-.728.43 0 .238.326.431.728.431zm3.206-2.328a.32.32 0 01.206.303.32.32 0 01-.206.303 1.11 1.11 0 01-1.032 0 .315.315 0 01-.149-.118.33.33 0 010-.37.315.315 0 01.149-.118 1.11 1.11 0 011.032 0zm2.687-1.597a.32.32 0 01.214.306.322.322 0 01-.214.306 1.088 1.088 0 01-1.026 0 .325.325 0 01-.214-.306c0-.068.02-.134.059-.189a.311.311 0 01.155-.117 1.13 1.13 0 011.026 0zm2.687-1.592a.325.325 0 01.154.494.315.315 0 01-.154.118 1.134 1.134 0 01-1.027 0 .32.32 0 01-.213-.306.325.325 0 01.213-.306 1.09 1.09 0 011.027 0zm-14.472 4.781a1.103 1.103 0 011.031 0 .325.325 0 01.214.305c0 .068-.02.134-.059.189a.306.306 0 01-.155.117 1.13 1.13 0 01-1.026 0 .321.321 0 01-.216-.304.323.323 0 01.211-.307zm3.718-1.592c.287.164.287.436 0 .606a1.071 1.071 0 01-1.026 0 .32.32 0 01-.206-.303.32.32 0 01.206-.303 1.086 1.086 0 011.026 0zm2.693-1.597a.32.32 0 01.214.306.322.322 0 01-.214.306 1.122 1.122 0 01-1.032 0 .322.322 0 01-.214-.306.32.32 0 01.214-.306 1.146 1.146 0 011.032 0zm2.687-1.592a.322.322 0 01.214.306.322.322 0 01-.214.306 1.146 1.146 0 01-1.032 0 .322.322 0 01-.214-.306.322.322 0 01.214-.306 1.122 1.122 0 011.032 0zm2.687-1.591a.32.32 0 01.206.303.325.325 0 01-.206.303 1.089 1.089 0 01-1.027 0c-.286-.164-.286-.436 0-.606a1.078 1.078 0 011.027 0zm2.174-.861c.402 0 .728-.193.728-.431 0-.237-.326-.43-.728-.43-.403 0-.729.193-.729.43 0 .238.326.431.729.431zm-2.687-1.444c.402 0 .728-.193.728-.431s-.326-.43-.728-.43c-.403 0-.729.192-.729.43s.326.431.729.431zm-13.959 7.085a1.083 1.083 0 011.026 0 .322.322 0 01.157.491.306.306 0 01-.157.115 1.132 1.132 0 01-1.032 0 .327.327 0 01.006-.606zm3.729-1.597a.311.311 0 01.155.117.326.326 0 01.059.189.325.325 0 01-.214.306 1.082 1.082 0 01-1.026 0 .322.322 0 01-.214-.306.32.32 0 01.214-.306 1.134 1.134 0 011.026 0zm2.676-1.592a.325.325 0 01.155.494.313.313 0 01-.155.118 1.13 1.13 0 01-1.026 0 .322.322 0 01-.214-.306.322.322 0 01.214-.306 1.083 1.083 0 011.026 0zm2.693-1.591a.32.32 0 01.206.303.32.32 0 01-.206.303 1.122 1.122 0 01-1.032 0 .32.32 0 01-.206-.303.32.32 0 01.206-.303 1.11 1.11 0 011.032 0zm10.748 3.183a.326.326 0 01.213.306.325.325 0 01-.213.305 1.138 1.138 0 01-1.027 0 .325.325 0 01-.213-.305.326.326 0 01.213-.306 1.077 1.077 0 011.027 0zm2.173-.855c.403 0 .729-.193.729-.431s-.326-.43-.729-.43c-.402 0-.728.192-.728.43s.326.431.728.431zm3.228-2.328c.287.164.287.436 0 .606a1.083 1.083 0 01-1.026 0 .313.313 0 01-.15-.119.332.332 0 010-.369.317.317 0 01.15-.118 1.071 1.071 0 011.026 0zm-5.401 0c.286.164.286.436 0 .606a1.09 1.09 0 01-1.027 0c-.287-.17-.287-.442 0-.606a1.077 1.077 0 011.027 0zm2.687-1.597a.326.326 0 01.213.306.325.325 0 01-.213.305 1.078 1.078 0 01-1.027 0 .325.325 0 01-.213-.305.326.326 0 01.213-.306 1.137 1.137 0 011.027 0zm-3.201-.856c.403 0 .729-.192.729-.43s-.326-.431-.729-.431c-.402 0-.728.193-.728.431s.326.43.728.43zm-2.686-1.591c.402 0 .728-.193.728-.431 0-.237-.326-.43-.728-.43-.403 0-.729.193-.729.43 0 .238.326.431.729.431zm10.256 2.464a1.077 1.077 0 011.026 0c.064.02.119.06.158.114a.327.327 0 010 .377.31.31 0 01-.158.115 1.117 1.117 0 01-1.026 0 .325.325 0 010-.606zm3.719-1.598a.318.318 0 01.155.118.332.332 0 010 .376.318.318 0 01-.155.118 1.11 1.11 0 01-1.032 0 .322.322 0 01-.214-.306.322.322 0 01.214-.306 1.146 1.146 0 011.032 0zm2.687-1.591a.32.32 0 01.214.306.322.322 0 01-.214.306c-.16.08-.335.123-.513.123s-.354-.043-.513-.123a.313.313 0 01-.155-.118.332.332 0 010-.377.311.311 0 01.155-.117 1.083 1.083 0 011.026 0zm2.174-.855c.402 0 .728-.193.728-.431s-.326-.43-.728-.43c-.402 0-.729.192-.729.43s.327.431.729.431zM228 183.047a1.106 1.106 0 011.032 0c.063.02.118.06.157.115a.321.321 0 01-.157.491 1.09 1.09 0 01-1.027 0 .316.316 0 01-.22-.301.313.313 0 01.215-.305zm3.205-.861c.403 0 .729-.192.729-.43s-.326-.431-.729-.431c-.402 0-.728.193-.728.431s.326.43.728.43zm3.206-2.339c.06.023.113.064.149.118a.33.33 0 010 .37.315.315 0 01-.149.118 1.11 1.11 0 01-1.032 0 .32.32 0 01-.206-.303.32.32 0 01.206-.303 1.122 1.122 0 011.032 0zm2.687-1.58a.32.32 0 01.206.303.325.325 0 01-.206.303 1.083 1.083 0 01-1.026 0c-.287-.17-.287-.442 0-.606a1.071 1.071 0 011.026 0zm-11.785 3.188a1.132 1.132 0 011.032 0 .325.325 0 01.213.306.326.326 0 01-.213.306 1.089 1.089 0 01-1.027 0c-.286-.175-.286-.447-.005-.612zm3.724-1.608c.287.17.287.442 0 .606a1.083 1.083 0 01-1.026 0 .317.317 0 01-.206-.303.317.317 0 01.206-.303 1.083 1.083 0 011.026 0zm2.687-1.58c.06.023.113.064.149.118a.328.328 0 01-.149.488 1.119 1.119 0 01-1.032 0 .325.325 0 010-.606 1.11 1.11 0 011.032 0zm2.687-1.597a.31.31 0 01.155.117.332.332 0 010 .377.316.316 0 01-.155.117 1.11 1.11 0 01-1.032 0 .32.32 0 01-.214-.306c0-.067.021-.133.059-.188a.314.314 0 01.155-.117 1.146 1.146 0 011.032 0zm-11.785 3.177a1.083 1.083 0 011.026 0 .318.318 0 01.155.118.33.33 0 010 .376.318.318 0 01-.155.118 1.143 1.143 0 01-1.032 0 .31.31 0 01-.153-.119.332.332 0 01.003-.377.316.316 0 01.156-.116zm3.719-1.58c.286.164.286.436 0 .606a1.09 1.09 0 01-1.027 0c-.287-.17-.287-.442 0-.606a1.077 1.077 0 011.027 0zm2.692-1.597a.31.31 0 01.155.117.332.332 0 010 .377.316.316 0 01-.155.117 1.071 1.071 0 01-1.026 0 .316.316 0 01-.155-.117.333.333 0 010-.377.31.31 0 01.155-.117 1.134 1.134 0 011.026 0zm2.687-1.592a.322.322 0 01.214.306.322.322 0 01-.214.306 1.146 1.146 0 01-1.032 0 .322.322 0 01-.214-.306.322.322 0 01.214-.306 1.122 1.122 0 011.032 0zm7.333 1.371a.326.326 0 01.213.306.325.325 0 01-.213.305 1.138 1.138 0 01-1.027 0 .325.325 0 01-.213-.305.326.326 0 01.213-.306 1.077 1.077 0 011.027 0zm-2.687-1.575c.063.02.118.06.157.115a.321.321 0 01-.157.491 1.089 1.089 0 01-1.027 0 .306.306 0 01-.157-.115.321.321 0 01.157-.491 1.09 1.09 0 011.027 0zm2.687-1.597a.32.32 0 01.213.306.325.325 0 01-.213.306 1.09 1.09 0 01-1.027 0 .325.325 0 01-.154-.494.315.315 0 01.154-.118 1.134 1.134 0 011.027 0zm-5.374 0a.32.32 0 01.213.306.325.325 0 01-.213.306 1.089 1.089 0 01-1.027 0 .325.325 0 01-.154-.494.315.315 0 01.154-.118 1.138 1.138 0 011.027 0zm2.687-1.592a.325.325 0 01.154.494.315.315 0 01-.154.118 1.134 1.134 0 01-1.027 0 .32.32 0 01-.213-.306.325.325 0 01.213-.306 1.09 1.09 0 011.027 0zm-20.795 12.942a.32.32 0 01.206.303.32.32 0 01-.206.303 1.11 1.11 0 01-1.032 0 .315.315 0 01-.149-.118.328.328 0 01.149-.488 1.122 1.122 0 011.032 0zM51.837 83.766L34.23 74.347V57.14l17.606 9.43v17.196zm-17.01-9.72l16.442 8.808V66.859l-16.442-8.784v15.972zm-5.683 22.498L11.533 87.13V69.924l17.611 9.413v17.207zM12.107 86.83l16.463 8.802V79.637l-16.463-8.802V86.83zm17.037-15.774l-17.611-9.413V44.437l17.611 9.413v17.206zm-17.037-9.713l16.463 8.801V54.15l-16.463-8.802v15.995z" fill="#fff"/><path d="M27.18 67.805l-13.688-7.323v-12.84l13.688 7.323v12.84zm-13.115-7.623l12.547 6.706V55.243l-12.547-6.689v11.628zm35.813 45.815L36.19 98.679V85.828l13.688 7.317v12.852zm-13.114-7.618l12.54 6.706V93.463l-12.54-6.712v11.628zM49.878 80.51L36.19 73.191V60.34l13.688 7.317V80.51zm-13.114-7.62l12.54 6.706V67.97l-12.54-6.706V72.89z" fill="#fff"/><path d="M51.837 109.253L34.23 99.84V82.628l17.606 9.43v17.195zm-17.01-9.719l16.442 8.807V92.347l-16.442-8.785v15.972zm-5.683 21.409l-17.611-9.396V94.323l17.611 9.436v17.184zm-17.037-9.696l16.463 8.807v-15.995l-16.463-8.801v15.989z" fill="#fff"/><path d="M27.18 117.709l-13.688-7.317v-12.84l13.688 7.317v12.84zm-13.115-7.618l12.547 6.706V105.17l-12.547-6.707v11.628zM27.18 93.293l-13.688-7.324V73.13l13.688 7.324v12.84zm-13.115-7.624l12.547 6.712V80.73l-12.547-6.684v11.622zm37.772 48.001l-17.606-9.413V107.05l17.606 9.413v17.207zm-17.01-9.714l16.442 8.802v-15.989l-16.442-8.807v15.994z" fill="#fff"/><path d="M49.878 130.419l-13.688-7.324v-12.834l13.688 7.318v12.84zm-13.114-7.624l12.54 6.712v-11.628l-12.54-6.706v11.622zm-7.62 22.616l-17.611-9.413v-17.213l17.611 9.419v17.207zm-17.037-9.742l16.463 8.807v-15.972l-16.463-8.801v15.966z" fill="#fff"/><path d="M27.18 142.154l-13.688-7.317v-12.84l13.688 7.317v12.84zm-13.115-7.618l12.547 6.706V129.62l-12.547-6.711v11.627zm15.079 39.766l-17.611-9.413v-17.207l17.611 9.413v17.207zm-17.037-9.713l16.463 8.801v-15.994l-16.463-8.802v15.995z" fill="#fff"/><path d="M27.18 171.051l-13.688-7.323v-12.84l13.688 7.323v12.84zm-13.115-7.629l12.547 6.706v-11.617L14.065 151.8v11.622zm37.772-5.301l-17.606-9.425v-17.201l17.606 9.419v17.207zm-17.01-9.72l16.442 8.791v-15.978l-16.442-8.807v15.994z" fill="#fff"/><path d="M49.878 154.864l-13.688-7.301v-12.857l13.688 7.318v12.84zm-13.114-7.624l12.54 6.712v-11.628l-12.54-6.706v11.622z" fill="#fff"/><path d="M70.723 179.564a.592.592 0 01-.31-.085.833.833 0 01-.353-.742v-1.099c.003-.259.066-.514.186-.743a1.59 1.59 0 01.499-.571l2.532-1.501a.664.664 0 01.69-.028.832.832 0 01.359.742v1.099c-.003.26-.068.515-.188.744-.12.229-.292.424-.502.57l-2.533 1.501a.757.757 0 01-.38.113zm2.863-4.152l-2.483 1.546a.917.917 0 00-.331.68v1.076a.27.27 0 000 .125l2.483-1.546a.917.917 0 00.331-.68v-1.099a.244.244 0 000-.102zm-4.64 8.87a.58.58 0 01-.309-.08.805.805 0 01-.274-.322.84.84 0 01-.079-.42v-1.098c.002-.26.066-.515.185-.744.12-.228.29-.424.5-.57l2.537-1.501a.663.663 0 01.69-.029.838.838 0 01.353.742v1.094c-.003.26-.067.517-.187.746-.12.23-.292.427-.503.573l-2.532 1.501a.744.744 0 01-.38.108zm2.87-4.152l-2.49 1.552a.938.938 0 00-.331.68v1.098a.293.293 0 000 .125l2.49-1.552a.913.913 0 00.326-.679v-1.094a.354.354 0 00-.018-.13h.022zm23.503-18.118a.682.682 0 01-.309-.08.85.85 0 01-.353-.742v-1.098a1.64 1.64 0 01.187-.747c.12-.23.292-.427.503-.573l2.532-1.495a.65.65 0 01.69 0 .801.801 0 01.275.318c.062.13.089.274.078.418v1.099c-.002.26-.065.516-.184.746-.12.23-.291.426-.5.573l-2.527 1.501a.772.772 0 01-.392.08zm2.87-4.152l-2.484 1.552a.903.903 0 00-.33.68v1.098a.341.341 0 000 .125l2.487-1.546a.938.938 0 00.332-.686v-1.098a.293.293 0 00-.006-.125zm-4.641 8.875a.583.583 0 01-.31-.085.826.826 0 01-.359-.736v-1.099a1.65 1.65 0 01.188-.747c.12-.23.293-.426.503-.572l2.532-1.501a.66.66 0 01.69 0 .788.788 0 01.275.318c.062.13.09.274.078.418v1.099a1.633 1.633 0 01-.183.744c-.12.229-.291.424-.5.57l-2.533 1.501a.756.756 0 01-.381.09zm2.863-4.151l-2.482 1.546a.917.917 0 00-.331.685v1.099a.293.293 0 000 .125l2.482-1.547a.916.916 0 00.331-.685v-1.099a.288.288 0 000-.124zm-9.059 4.553a.614.614 0 01-.309-.085.799.799 0 01-.273-.319.833.833 0 01-.08-.417v-1.099c.002-.26.067-.517.187-.747.12-.229.292-.426.503-.572l2.532-1.501a.672.672 0 01.69-.029.836.836 0 01.353.742v1.099c-.003.26-.067.516-.187.745-.12.229-.293.424-.503.569l-2.532 1.501a.69.69 0 01-.381.113zm2.869-4.151l-2.488 1.569a.933.933 0 00-.325.685v1.099a.331.331 0 000 .124l2.487-1.552a.933.933 0 00.331-.679v-1.099a.29.29 0 00-.005-.147z" fill="#F7971D"/><path d="M47.569 170.3v18.497l-10.648-5.969v-19.406c0-1.055.673-2.001 1.684-2.529 1.005-.525 2.286-.602 3.42.036h0l.005.003a10.568 10.568 0 014.02 3.901 10.954 10.954 0 011.519 5.467z" stroke="#fff"/><path d="M91.214 54.71v17.094l-25.27 14.16V69.3l25.27-14.59zm.624-1.092L65.327 68.91v18.079l26.51-14.828V53.618z" fill="#F7971D"/><path d="M88.621 59.48v10.523L69.095 81.076V70.88l19.526-11.4zm.623-1.093L68.483 70.495v11.662L89.25 70.382V58.386h-.006zm11.052-8.882V67.03l-4.878 2.832V52.207l4.878-2.702zm.623-1.059l-6.124 3.399V70.96l6.124-3.545V48.446zm-9.705 31.016v17.127l-25.27 14.159v-16.69l25.27-14.596zm.624-1.094L65.327 93.661v18.079l26.51-14.828V78.368z" fill="#F7971D"/><path d="M88.621 84.23v10.53l-19.526 11.067V95.632l19.526-11.39v-.011zm.623-1.081L68.483 95.252v11.656L89.25 95.133V83.138l-.006.01zm11.052-8.893V91.78l-4.878 2.832V76.958l4.878-2.702zm.623-1.064l-6.124 3.398v19.115l6.124-3.54V73.192zm-9.705 30.59v17.099l-25.27 14.16v-16.663l25.27-14.596zm.624-1.093l-26.511 15.292v18.079l26.51-14.828v-18.543z" fill="#F7971D"/><path d="M88.621 108.551v10.529l-19.526 11.067v-10.195l19.526-11.39v-.011zm.623-1.082l-20.761 12.104v11.656l20.767-11.775v-11.996l-.006.011zm11.052-8.892v17.524l-4.878 2.832v-17.654l4.878-2.702zm.623-1.065l-6.124 3.398v19.116l6.124-3.54V97.512zm-9.705 30.794V145.4l-25.27 14.159v-16.64l25.27-14.613zm.624-1.093l-26.511 15.292v18.079l26.51-14.827v-18.544z" fill="#F7971D"/><path d="M88.621 133.098v10.501l-19.526 11.072v-10.195l19.526-11.389v.011zm.623-1.105L68.483 144.12v11.656l20.767-11.775v-11.996l-.006-.012zm11.052-8.869v17.524l-4.878 2.832v-17.654l4.878-2.702zm.623-1.065l-6.124 3.398v19.104l6.124-3.545v-18.957z" fill="#F7971D"/><path d="M5.651 32.639L60.02 62.606l45.308-25.55L51.009 7.102 5.651 32.639z" fill="#fff"/><path d="M9.033 37.544l41.7-23.256 50.059 28.359-41.325 23.329L9.033 37.544z" fill="#565656"/><path d="M59.594 63.116l-.093-.051L8.896 34.41l.198-.113L54.248 9.106l.088.05 51.383 27.895-.303.17-45.822 25.895zM9.552 34.468L59.594 62.68l45.336-25.618-50.682-27.52L9.552 34.468z" fill="#fff"/><path d="M59.776 196.793l-.27-.153L5.38 164.923l.27-132.284.43-.244 53.695 30.392v134.006zm-54.02-32.08l53.65 31.434V63.014L6.072 32.826l-.315 131.887z" fill="#fff"/><path d="M59.407 196.725V62.787l.094-.056 46.008-25.997v.323l.039 133.728-.094.051-46.047 25.889zm.37-133.711v133.065l45.401-25.487-.038-133.19-45.364 25.612zM21.183 182.753c.402 0 .728-.193.728-.431s-.326-.43-.728-.43c-.403 0-.729.192-.729.43s.326.431.729.431zm3.2-2.34c.063.02.118.061.157.115a.325.325 0 010 .377.31.31 0 01-.157.114 1.073 1.073 0 01-1.027 0 .312.312 0 01-.149-.118.327.327 0 01.15-.488 1.084 1.084 0 011.026 0zm-5.263 2.94a.325.325 0 01.155.494.317.317 0 01-.156.118 1.133 1.133 0 01-1.026 0 .317.317 0 01-.155-.118.33.33 0 010-.376.317.317 0 01.155-.118 1.133 1.133 0 011.026 0zm-3.206-.595c.402 0 .728-.193.728-.43 0-.238-.326-.431-.728-.431-.403 0-.729.193-.729.431 0 .237.326.43.729.43zm3.2-2.345a.317.317 0 01.154.118.33.33 0 010 .376.317.317 0 01-.154.118 1.133 1.133 0 01-1.027 0 .325.325 0 01-.155-.494.317.317 0 01.155-.118 1.084 1.084 0 011.027 0zm2.686-1.574c.287.17.287.441 0 .606a1.085 1.085 0 01-1.026 0 .326.326 0 010-.606 1.073 1.073 0 011.027 0zm-8.06 1.574a.317.317 0 01.155.118.33.33 0 010 .376.312.312 0 01-.155.118 1.144 1.144 0 01-1.032 0 .325.325 0 01-.155-.494.317.317 0 01.155-.118 1.12 1.12 0 011.032 0zm2.687-1.574c.06.022.112.064.149.118a.329.329 0 01-.15.488 1.084 1.084 0 01-1.026 0c-.287-.165-.287-.436 0-.606a1.073 1.073 0 011.027 0zm2.687-1.592a.313.313 0 01.217.303.32.32 0 01-.217.303 1.073 1.073 0 01-1.027 0 .32.32 0 010-.606 1.084 1.084 0 011.027 0zm-8.061 1.592a.318.318 0 01.206.303.33.33 0 01-.057.185.318.318 0 01-.15.118 1.12 1.12 0 01-1.031 0 .318.318 0 01-.206-.303.318.318 0 01.206-.303 1.107 1.107 0 011.032 0zm2.687-1.592a.326.326 0 010 .606 1.107 1.107 0 01-1.032 0 .318.318 0 01-.206-.303.326.326 0 01.206-.303 1.12 1.12 0 011.032 0zm2.687-1.597a.328.328 0 010 .612 1.085 1.085 0 01-1.027 0 .318.318 0 01-.154-.118.33.33 0 010-.376.318.318 0 01.154-.118 1.133 1.133 0 011.027 0zm-8.602 2.311c.402 0 .728-.193.728-.431 0-.237-.326-.43-.728-.43-.402 0-.728.193-.728.43 0 .238.326.431.728.431zm3.2-2.328a.325.325 0 01.155.494.317.317 0 01-.155.118 1.084 1.084 0 01-1.026 0 .317.317 0 01-.155-.118.33.33 0 010-.376.317.317 0 01.155-.118 1.133 1.133 0 011.026 0zm2.693-1.591a.31.31 0 01.155.117.33.33 0 010 .377.31.31 0 01-.155.117 1.145 1.145 0 01-1.032 0 .31.31 0 01-.155-.117.33.33 0 010-.377.31.31 0 01.155-.117 1.108 1.108 0 011.032 0zm-8.58 2.327c.402 0 .729-.192.729-.43s-.327-.431-.729-.431c-.402 0-.728.193-.728.431s.326.43.728.43zm3.206-2.327a.31.31 0 01.155.117.33.33 0 010 .377.31.31 0 01-.155.117 1.133 1.133 0 01-1.026 0 .31.31 0 01-.155-.117.33.33 0 010-.377.31.31 0 01.155-.117 1.073 1.073 0 011.026 0zm2.168-.856c.402 0 .728-.192.728-.43s-.326-.431-.728-.431c-.402 0-.728.193-.728.431s.326.43.728.43zm-7.548.856a.31.31 0 01.155.117.33.33 0 010 .377.31.31 0 01-.155.117 1.133 1.133 0 01-1.026 0 .31.31 0 01-.155-.117.33.33 0 010-.377.31.31 0 01.155-.117 1.073 1.073 0 011.026 0zm2.687-1.592c.287.17.287.442 0 .606a1.085 1.085 0 01-1.026 0c-.287-.164-.287-.436 0-.606a1.085 1.085 0 011.026 0zm2.693-1.591a.31.31 0 01.217.303.319.319 0 01-.218.303 1.084 1.084 0 01-1.025 0 .319.319 0 01-.158-.492.31.31 0 01.158-.114 1.073 1.073 0 011.026 0zm-5.38 0c.06.022.113.064.15.118a.327.327 0 01-.15.488 1.084 1.084 0 01-1.026 0 .319.319 0 01-.157-.492.31.31 0 01.157-.114 1.073 1.073 0 011.026 0zm2.174-.861c.402 0 .729-.193.729-.431s-.327-.43-.729-.43c-.402 0-.728.192-.728.43s.326.431.728.431zm59.714 37.285a.31.31 0 01.155.117.33.33 0 010 .377.316.316 0 01-.155.117 1.133 1.133 0 01-1.026 0 .315.315 0 01-.155-.117.33.33 0 010-.377.31.31 0 01.155-.117 1.073 1.073 0 011.026 0zm2.688-1.592c.286.17.286.442 0 .606a1.085 1.085 0 01-1.027 0 .317.317 0 01-.15-.118.331.331 0 010-.37.317.317 0 01.15-.118 1.084 1.084 0 011.026 0zm2.692-1.592a.326.326 0 010 .606 1.108 1.108 0 01-1.032 0 .312.312 0 01-.15-.118.33.33 0 010-.369.314.314 0 01.15-.119 1.12 1.12 0 011.032 0zm2.665-1.597a.317.317 0 01.154.118.33.33 0 010 .376.317.317 0 01-.154.118 1.119 1.119 0 01-1.032 0 .327.327 0 010-.612 1.144 1.144 0 011.032 0zm2.195-.855c.403 0 .729-.193.729-.431 0-.237-.326-.43-.729-.43-.402 0-.728.193-.728.43 0 .238.326.431.728.431zm3.201-2.328a.32.32 0 010 .606 1.085 1.085 0 01-1.027 0 .32.32 0 01-.157-.491.307.307 0 01.157-.115 1.084 1.084 0 011.026 0zm2.687-1.591c.286.164.286.436 0 .606a1.084 1.084 0 01-1.027 0 .326.326 0 010-.606 1.073 1.073 0 011.026 0zm2.686-1.598a.317.317 0 01.155.118.33.33 0 010 .377.315.315 0 01-.155.117 1.084 1.084 0 01-1.026 0 .315.315 0 01-.155-.117.33.33 0 010-.377.317.317 0 01.155-.118c.16-.08.335-.123.513-.123s.354.043.513.123zm2.18-.855c.402 0 .728-.193.728-.43 0-.238-.326-.431-.728-.431-.402 0-.728.193-.728.431 0 .237.326.43.728.43zm2.687-1.597c.402 0 .728-.193.728-.43 0-.238-.326-.431-.728-.431-.403 0-.729.193-.729.431 0 .237.326.43.729.43zm2.687-1.592c.402 0 .728-.192.728-.43s-.326-.43-.728-.43c-.403 0-.729.192-.729.43s.326.43.729.43zm3.194-2.327a.31.31 0 01.155.117.33.33 0 010 .377.31.31 0 01-.155.117 1.133 1.133 0 01-1.026 0 .31.31 0 01-.155-.117.33.33 0 010-.377.31.31 0 01.155-.117 1.073 1.073 0 011.026 0zm2.18-.856c.402 0 .728-.192.728-.43s-.326-.431-.728-.431c-.403 0-.729.193-.729.431s.326.43.729.43zm3.2-2.327c.286.164.286.436 0 .606a1.085 1.085 0 01-1.027 0 .326.326 0 010-.606 1.073 1.073 0 011.027 0zm-40.316 20.707a.31.31 0 01.155.117.33.33 0 010 .377.315.315 0 01-.155.117 1.133 1.133 0 01-1.026 0 .315.315 0 01-.155-.117.33.33 0 010-.377.31.31 0 01.155-.117 1.073 1.073 0 011.026 0zm2.687-1.592c.287.17.287.442 0 .606a1.085 1.085 0 01-1.026 0c-.287-.164-.287-.436 0-.606a1.084 1.084 0 011.026 0zm2.687-1.592c.287.165.287.437 0 .606a1.073 1.073 0 01-1.026 0 .312.312 0 01-.15-.118.327.327 0 01.15-.488 1.085 1.085 0 011.026 0zm2.688-1.597a.317.317 0 01.154.118.33.33 0 010 .376.317.317 0 01-.155.118 1.085 1.085 0 01-1.026 0 .327.327 0 010-.612 1.133 1.133 0 011.026 0zm2.692-1.591a.31.31 0 01.155.117.33.33 0 010 .377.31.31 0 01-.155.117 1.144 1.144 0 01-1.032 0 .31.31 0 01-.155-.117.33.33 0 010-.377.31.31 0 01.155-.117 1.107 1.107 0 011.032 0zm2.665-1.592a.318.318 0 01.206.303.318.318 0 01-.206.303 1.107 1.107 0 01-1.032 0 .317.317 0 01-.15-.118.33.33 0 010-.37.317.317 0 01.15-.118 1.12 1.12 0 011.032 0zm2.195-.861c.403 0 .729-.193.729-.43 0-.238-.326-.431-.729-.431-.402 0-.728.193-.728.431 0 .237.326.43.728.43zm3.201-2.328a.317.317 0 01.154.118.33.33 0 010 .377.315.315 0 01-.154.117 1.085 1.085 0 01-1.027 0 .315.315 0 01-.154-.117.33.33 0 010-.377.317.317 0 01.154-.118c.16-.08.335-.123.513-.123s.354.043.514.123zm2.173-.855c.403 0 .729-.193.729-.43 0-.238-.326-.431-.729-.431-.402 0-.728.193-.728.431 0 .237.326.43.728.43zm2.687-1.597c.402 0 .728-.193.728-.43 0-.238-.326-.431-.728-.431-.402 0-.728.193-.728.431 0 .237.326.43.728.43zm2.693-1.592c.402 0 .728-.192.728-.43s-.326-.43-.728-.43c-.402 0-.728.192-.728.43s.326.43.728.43zm3.2-2.327a.31.31 0 01.155.117.33.33 0 010 .377.316.316 0 01-.155.117 1.145 1.145 0 01-1.032 0 .316.316 0 01-.155-.117.33.33 0 010-.377.31.31 0 01.155-.117 1.074 1.074 0 011.032 0zm2.687-1.592a.318.318 0 01.206.303.318.318 0 01-.206.303 1.073 1.073 0 01-1.026 0c-.287-.164-.287-.436 0-.606a1.085 1.085 0 011.026 0zm2.681-1.591a.31.31 0 01.218.303.325.325 0 01-.06.188.313.313 0 01-.158.115 1.084 1.084 0 01-1.026 0 .313.313 0 01-.218-.303.311.311 0 01.218-.303 1.073 1.073 0 011.026 0zm2.693-1.598a.317.317 0 01.154.118.33.33 0 010 .376.317.317 0 01-.154.118 1.085 1.085 0 01-1.027 0 .325.325 0 01-.155-.494.317.317 0 01.155-.118 1.133 1.133 0 011.027 0zm-40.316 20.713c.06.023.113.064.15.118a.329.329 0 01-.15.488 1.084 1.084 0 01-1.026 0c-.287-.164-.287-.436 0-.606a1.085 1.085 0 011.026 0zm2.687-1.592a.326.326 0 010 .606 1.073 1.073 0 01-1.026 0c-.287-.169-.287-.441 0-.606a1.084 1.084 0 011.026 0zm2.687-1.597a.318.318 0 01.155.118.33.33 0 010 .376.318.318 0 01-.155.118 1.085 1.085 0 01-1.026 0 .317.317 0 01-.155-.118.328.328 0 01.155-.494 1.133 1.133 0 011.026 0zm2.687-1.591a.316.316 0 01.155.117.33.33 0 010 .377.31.31 0 01-.155.117 1.133 1.133 0 01-1.026 0 .31.31 0 01-.155-.117.33.33 0 010-.377.315.315 0 01.155-.117 1.085 1.085 0 011.026 0zm2.688-1.592a.32.32 0 010 .606 1.085 1.085 0 01-1.027 0 .317.317 0 01-.15-.118.329.329 0 01.15-.488 1.084 1.084 0 011.026 0zm2.692-1.591a.32.32 0 01.15.118.33.33 0 010 .369.313.313 0 01-.15.119 1.12 1.12 0 01-1.032 0 .326.326 0 010-.606 1.107 1.107 0 011.032 0zm2.665-1.597a.31.31 0 01.154.117.33.33 0 010 .377.316.316 0 01-.154.117 1.107 1.107 0 01-1.032 0 .315.315 0 01-.155-.117.33.33 0 010-.377.31.31 0 01.155-.117 1.133 1.133 0 011.032 0zm2.709-1.592a.317.317 0 01.154.118.328.328 0 01-.154.494 1.133 1.133 0 01-1.027 0 .317.317 0 01-.154-.118.33.33 0 010-.376.317.317 0 01.154-.118 1.085 1.085 0 011.027 0zm2.687-1.592a.313.313 0 01.217.303.311.311 0 01-.218.303 1.073 1.073 0 01-1.026 0 .31.31 0 01-.217-.303.313.313 0 01.218-.303 1.084 1.084 0 011.026 0zm2.687-1.597a.328.328 0 010 .612 1.085 1.085 0 01-1.027 0 .318.318 0 01-.155-.118.33.33 0 010-.376.318.318 0 01.155-.118 1.133 1.133 0 011.026 0zm2.686-1.591a.31.31 0 01.155.117.33.33 0 010 .377.31.31 0 01-.155.117 1.133 1.133 0 01-1.026 0 .31.31 0 01-.155-.117.33.33 0 010-.377.31.31 0 01.155-.117 1.073 1.073 0 011.026 0zm2.18-.856c.402 0 .728-.192.728-.43s-.326-.431-.728-.431c-.402 0-.728.193-.728.431s.326.43.728.43zm2.687-1.597c.402 0 .728-.192.728-.43s-.326-.431-.728-.431c-.403 0-.729.193-.729.431s.326.43.729.43zm2.687-1.591c.402 0 .728-.193.728-.431s-.326-.43-.728-.43c-.403 0-.729.192-.729.43s.326.431.729.431zm2.687-1.592c.402 0 .728-.193.728-.43 0-.238-.326-.431-.728-.431-.403 0-.729.193-.729.431 0 .237.326.43.729.43zm-39.802 19.976a.326.326 0 010 .606 1.108 1.108 0 01-1.032 0 .311.311 0 01-.15-.118.33.33 0 010-.369.313.313 0 01.15-.119 1.12 1.12 0 011.032 0zm2.686-1.597a.317.317 0 01.155.118.33.33 0 010 .376.317.317 0 01-.154.118 1.085 1.085 0 01-1.027 0 .318.318 0 01-.15-.125.33.33 0 01.017-.377.317.317 0 01.16-.11 1.14 1.14 0 011 0zm2.687-1.591a.315.315 0 01.155.117.33.33 0 010 .377.31.31 0 01-.155.117 1.133 1.133 0 01-1.026 0 .31.31 0 01-.155-.117.33.33 0 010-.377.315.315 0 01.155-.117 1.085 1.085 0 011.026 0zm2.687-1.592c.063.02.118.06.158.115a.32.32 0 01-.158.491 1.085 1.085 0 01-1.026 0 .32.32 0 01-.157-.491.307.307 0 01.157-.115 1.084 1.084 0 011.026 0zm2.687-1.591c.287.164.287.436 0 .606a1.083 1.083 0 01-1.026 0 .326.326 0 010-.606 1.073 1.073 0 011.026 0zm2.688-1.598a.317.317 0 01.154.118.33.33 0 010 .377.315.315 0 01-.155.117 1.085 1.085 0 01-1.026 0 .315.315 0 01-.155-.117.33.33 0 010-.377.317.317 0 01.155-.118c.16-.08.335-.123.513-.123s.354.043.513.123zm2.692-1.591a.325.325 0 01.155.494.317.317 0 01-.155.118 1.144 1.144 0 01-1.032 0 .317.317 0 01-.155-.118.33.33 0 010-.376.317.317 0 01.155-.118 1.107 1.107 0 011.032 0zm2.174-.861c.402 0 .728-.193.728-.43 0-.238-.326-.431-.728-.431-.403 0-.729.193-.729.431 0 .237.326.43.728.43zm3.2-2.328a.317.317 0 01.154.118.328.328 0 01-.154.494 1.084 1.084 0 01-1.027 0 .317.317 0 01-.154-.118.33.33 0 010-.376.317.317 0 01.154-.118 1.133 1.133 0 011.027 0zm2.687-1.591a.31.31 0 01.154.117.33.33 0 010 .377.31.31 0 01-.154.117 1.133 1.133 0 01-1.027 0 .31.31 0 01-.154-.117.33.33 0 010-.377.31.31 0 01.154-.117 1.073 1.073 0 011.026 0zm2.687-1.592c.286.17.286.442 0 .606a1.073 1.073 0 01-1.027 0 .317.317 0 01-.15-.118.33.33 0 010-.37.317.317 0 01.15-.118 1.085 1.085 0 011.026 0zm2.686-1.591a.31.31 0 01.218.303.325.325 0 01-.06.188.313.313 0 01-.158.115 1.085 1.085 0 01-1.026 0 .326.326 0 010-.606 1.073 1.073 0 011.026 0zm2.693-1.598a.317.317 0 01.155.118.33.33 0 010 .377.316.316 0 01-.155.117 1.107 1.107 0 01-1.032 0 .315.315 0 01-.155-.117.33.33 0 010-.377.317.317 0 01.155-.118 1.144 1.144 0 011.032 0zm2.174-.855c.402 0 .728-.193.728-.43 0-.238-.326-.431-.728-.431-.403 0-.729.193-.729.431 0 .237.326.43.729.43zm2.687-1.591c.402 0 .728-.193.728-.431s-.326-.43-.728-.43c-.403 0-.729.192-.729.43s.326.431.729.431zm-39.841 19.97a.317.317 0 01.155.118.33.33 0 010 .376.317.317 0 01-.155.118 1.085 1.085 0 01-1.026 0 .327.327 0 010-.612 1.133 1.133 0 011.026 0zm2.185-.872c.402 0 .728-.193.728-.431 0-.237-.326-.43-.728-.43-.402 0-.728.193-.728.43 0 .238.326.431.728.431zm3.206-2.328a.318.318 0 01.205.303.318.318 0 01-.206.303 1.107 1.107 0 01-1.031 0 .317.317 0 01-.15-.118.329.329 0 01.15-.488 1.119 1.119 0 011.031 0zm-8.067 1.592a.31.31 0 01.155.117.33.33 0 010 .377.31.31 0 01-.155.117 1.133 1.133 0 01-1.026 0 .31.31 0 01-.155-.117.33.33 0 010-.377.31.31 0 01.155-.117 1.073 1.073 0 011.026 0zm2.174-.856c.402 0 .728-.192.728-.43s-.326-.43-.728-.43c-.402 0-.728.192-.728.43s.326.43.728.43zm2.687-1.597c.402 0 .728-.192.728-.43s-.326-.431-.728-.431c-.402 0-.728.193-.728.431s.326.43.728.43zm-7.548.861a.318.318 0 01.206.303.318.318 0 01-.206.303 1.073 1.073 0 01-1.026 0c-.287-.164-.287-.436 0-.606a1.085 1.085 0 011.026 0zm2.687-1.591c.287.164.287.436 0 .606a1.084 1.084 0 01-1.026 0c-.287-.17-.287-.442 0-.606a1.073 1.073 0 011.026 0zm2.676-1.598a.317.317 0 01.155.118.33.33 0 010 .376.317.317 0 01-.155.118 1.085 1.085 0 01-1.026 0 .325.325 0 01-.155-.494.317.317 0 01.155-.118 1.133 1.133 0 011.026 0zm-8.049 1.598c.06.022.112.064.148.118a.329.329 0 01-.149.488 1.119 1.119 0 01-1.032 0 .326.326 0 010-.606 1.108 1.108 0 011.032 0zm2.686-1.598a.317.317 0 01.155.118.33.33 0 010 .376.317.317 0 01-.155.118 1.085 1.085 0 01-1.026 0 .325.325 0 01-.155-.494.318.318 0 01.155-.118 1.133 1.133 0 011.026 0zm2.687-1.591a.325.325 0 01.155.494.317.317 0 01-.155.118c-.16.08-.335.123-.513.123s-.354-.043-.513-.123a.317.317 0 01-.155-.118.33.33 0 010-.376.317.317 0 01.155-.118 1.085 1.085 0 011.026 0zm-8.061 1.591a.317.317 0 01.155.118.33.33 0 010 .376.317.317 0 01-.155.118 1.107 1.107 0 01-1.032 0 .325.325 0 01-.155-.494.317.317 0 01.155-.118 1.144 1.144 0 011.032 0zm2.688-1.591a.325.325 0 01.155.494.317.317 0 01-.156.118 1.144 1.144 0 01-1.032 0 .318.318 0 01-.154-.118.33.33 0 010-.376.318.318 0 01.154-.118 1.107 1.107 0 011.032 0zm2.686-1.592a.326.326 0 010 .606 1.073 1.073 0 01-1.026 0 .31.31 0 01-.218-.303.313.313 0 01.218-.303 1.084 1.084 0 011.026 0zm-8.066 1.592a.325.325 0 01.155.494.317.317 0 01-.155.118c-.16.08-.335.123-.513.123s-.354-.043-.514-.123a.318.318 0 01-.154-.118.33.33 0 010-.376.318.318 0 01.154-.118 1.085 1.085 0 011.027 0zm2.692-1.592a.326.326 0 010 .606 1.107 1.107 0 01-1.032 0 .311.311 0 01-.149-.118.329.329 0 01.15-.488 1.119 1.119 0 011.031 0zm2.174-.861c.402 0 .728-.192.728-.43s-.326-.43-.728-.43c-.402 0-.728.192-.728.43s.326.43.728.43zm-7.553.861c.063.02.118.061.157.115a.325.325 0 010 .377.31.31 0 01-.157.114 1.073 1.073 0 01-1.026 0 .312.312 0 01-.15-.118.33.33 0 010-.369.32.32 0 01.15-.119 1.084 1.084 0 011.026 0zm2.687-1.597a.317.317 0 01.155.118.33.33 0 010 .376.317.317 0 01-.155.118 1.084 1.084 0 01-1.027 0 .327.327 0 010-.612 1.133 1.133 0 011.027 0zm2.174-.855c.402 0 .728-.193.728-.43 0-.238-.326-.431-.728-.431-.403 0-.729.193-.729.431 0 .237.326.43.729.43zm-8.061 1.591c.402 0 .728-.192.728-.43s-.326-.43-.728-.43c-.402 0-.729.192-.729.43s.327.43.729.43zm3.2-2.327a.31.31 0 01.155.117.33.33 0 010 .377.31.31 0 01-.155.117 1.073 1.073 0 01-1.026 0 .31.31 0 01-.155-.117.33.33 0 010-.377.31.31 0 01.155-.117 1.133 1.133 0 011.026 0zm2.687-1.592a.317.317 0 01.155.118.328.328 0 01-.155.494 1.133 1.133 0 01-1.027 0 .318.318 0 01-.154-.118.33.33 0 010-.376.318.318 0 01.154-.118 1.085 1.085 0 011.027 0zm-8.089 1.575a.31.31 0 01.155.117.33.33 0 010 .377.31.31 0 01-.155.117 1.108 1.108 0 01-1.031 0 .31.31 0 01-.155-.117.33.33 0 010-.377.31.31 0 01.155-.117 1.144 1.144 0 011.031 0zm2.693-1.592a.328.328 0 010 .612 1.133 1.133 0 01-1.026 0 .318.318 0 01-.155-.118.33.33 0 010-.376.318.318 0 01.155-.118 1.085 1.085 0 011.026 0zm2.686-1.591a.31.31 0 01.218.303.325.325 0 01-.06.188.313.313 0 01-.157.115 1.083 1.083 0 01-1.026 0 .313.313 0 01-.218-.303.311.311 0 01.218-.303 1.073 1.073 0 011.026 0zm-8.06 1.591a.327.327 0 010 .612 1.144 1.144 0 01-1.032 0 .317.317 0 01-.155-.118.33.33 0 010-.376.317.317 0 01.155-.118 1.12 1.12 0 011.032 0zm2.681-1.591c.06.022.113.064.15.118a.33.33 0 010 .369.314.314 0 01-.15.119 1.12 1.12 0 01-1.031 0 .326.326 0 010-.606 1.108 1.108 0 011.031 0zm2.179-.861c.403 0 .729-.193.729-.431 0-.237-.326-.43-.728-.43-.403 0-.729.193-.729.43 0 .238.326.431.729.431zm-7.552.861a.31.31 0 01.217.303.325.325 0 01-.06.188.313.313 0 01-.157.115 1.084 1.084 0 01-1.027 0 .326.326 0 010-.606 1.073 1.073 0 011.027 0zm2.692-1.598a.317.317 0 01.155.118.33.33 0 010 .376.317.317 0 01-.155.118 1.107 1.107 0 01-1.032 0 .325.325 0 01-.155-.494.317.317 0 01.155-.118 1.144 1.144 0 011.032 0zm2.681-1.591a.325.325 0 01.155.494.317.317 0 01-.155.118 1.144 1.144 0 01-1.031 0 .317.317 0 01-.155-.118.33.33 0 010-.376.317.317 0 01.155-.118 1.144 1.144 0 011.031 0zm-8.061 1.591a.317.317 0 01.155.118.33.33 0 010 .376.317.317 0 01-.154.118 1.084 1.084 0 01-1.027 0 .325.325 0 01-.155-.494.317.317 0 01.155-.118c.16-.08.335-.123.513-.123s.354.043.514.123zm2.687-1.591a.325.325 0 01.155.494.317.317 0 01-.155.118 1.133 1.133 0 01-1.026 0 .318.318 0 01-.155-.118.33.33 0 010-.376.318.318 0 01.155-.118 1.133 1.133 0 011.026 0zm2.693-1.592a.317.317 0 01.155.118.33.33 0 010 .376.317.317 0 01-.155.118 1.144 1.144 0 01-1.032 0 .327.327 0 010-.612 1.12 1.12 0 011.032 0zm74.296 3.234a1.089 1.089 0 011.027 0c.281.17.286.442 0 .606a1.112 1.112 0 01-1.027 0 .313.313 0 01-.149-.118.328.328 0 01.149-.488zm3.719-1.597a.318.318 0 01.155.118.33.33 0 010 .376.318.318 0 01-.155.118 1.122 1.122 0 01-1.032 0 .322.322 0 01-.214-.306.322.322 0 01.214-.306 1.146 1.146 0 011.032 0zm2.687-1.591a.314.314 0 01.155.117.332.332 0 010 .377.32.32 0 01-.155.117 1.134 1.134 0 01-1.026 0 .311.311 0 01-.155-.117.333.333 0 010-.377.306.306 0 01.155-.117 1.13 1.13 0 011.026 0zm-9.098 1.597a1.107 1.107 0 011.032 0c.063.02.118.06.157.115a.321.321 0 01-.157.491 1.084 1.084 0 01-1.027 0 .313.313 0 01-.22-.301c0-.068.02-.134.058-.189a.305.305 0 01.157-.116zm3.206-.861c.402 0 .728-.193.728-.431 0-.237-.326-.43-.728-.43-.403 0-.729.193-.729.43 0 .238.326.431.729.431zm3.205-2.328a.318.318 0 01.155.118.33.33 0 010 .376.318.318 0 01-.155.118 1.143 1.143 0 01-1.032 0 .322.322 0 01-.214-.306.322.322 0 01.214-.306 1.11 1.11 0 011.032 0zm2.687-1.591c.06.022.113.064.149.118a.328.328 0 01-.149.488 1.082 1.082 0 01-1.026 0 .318.318 0 01-.218-.303.316.316 0 01.218-.303 1.071 1.071 0 011.026 0zm2.687-1.609a.322.322 0 01.214.306.322.322 0 01-.214.306 1.083 1.083 0 01-1.026 0 .325.325 0 01-.155-.494.313.313 0 01.155-.118 1.13 1.13 0 011.026 0zm-14.472 4.797a1.132 1.132 0 011.032 0 .317.317 0 01.155.118.33.33 0 010 .376.317.317 0 01-.155.118 1.084 1.084 0 01-1.026 0 .309.309 0 01-.165-.112.322.322 0 01.159-.5zm3.719-1.597a.325.325 0 01.213.306c0 .067-.02.133-.059.188a.318.318 0 01-.154.118 1.133 1.133 0 01-1.027 0 .317.317 0 01-.154-.118.33.33 0 010-.376.317.317 0 01.154-.118 1.084 1.084 0 011.027 0zm2.692-1.591c.06.022.113.064.149.118a.328.328 0 01-.149.488 1.119 1.119 0 01-1.032 0 .325.325 0 010-.606 1.11 1.11 0 011.032 0zm2.687-1.609a.318.318 0 01.155.118.332.332 0 010 .376.318.318 0 01-.155.118 1.122 1.122 0 01-1.032 0 .322.322 0 01-.214-.306.322.322 0 01.214-.306 1.146 1.146 0 011.032 0zm2.687-1.58a.32.32 0 01.214.306.322.322 0 01-.214.306c-.16.08-.335.123-.513.123s-.354-.043-.513-.123a.313.313 0 01-.155-.118.332.332 0 010-.377.311.311 0 01.155-.117 1.083 1.083 0 011.026 0zm-14.472 4.78a1.12 1.12 0 011.026 0 .327.327 0 010 .612 1.132 1.132 0 01-1.031 0 .315.315 0 01-.154-.119.328.328 0 01.159-.493zm3.719-1.591a.31.31 0 01.157.114.326.326 0 010 .377.312.312 0 01-.157.115 1.084 1.084 0 01-1.027 0 .312.312 0 01-.157-.115.325.325 0 010-.377.31.31 0 01.157-.114 1.073 1.073 0 011.027 0zm2.687-1.609a.325.325 0 01.213.306c0 .067-.02.133-.059.188a.318.318 0 01-.154.118 1.085 1.085 0 01-1.027 0 .317.317 0 01-.154-.118.33.33 0 010-.376.317.317 0 01.154-.118 1.133 1.133 0 011.027 0zm15.327.317c.402 0 .728-.192.728-.43s-.326-.431-.728-.431c-.402 0-.729.193-.729.431s.327.43.729.43zm3.2-2.328a.322.322 0 01.214.306.32.32 0 01-.214.306 1.134 1.134 0 01-1.026 0 .311.311 0 01-.155-.117.326.326 0 01-.059-.189.325.325 0 01.214-.306 1.082 1.082 0 011.026 0zm-5.374 0a.322.322 0 01.214.306.32.32 0 01-.214.306 1.134 1.134 0 01-1.026 0 .311.311 0 01-.155-.117.333.333 0 010-.377.313.313 0 01.155-.118 1.082 1.082 0 011.026 0zm2.687-1.591c.287.17.287.442 0 .606a1.083 1.083 0 01-1.026 0c-.287-.164-.287-.436 0-.606a1.071 1.071 0 011.026 0zm-5.887.736c.402 0 .728-.193.728-.43 0-.238-.326-.431-.728-.431-.402 0-.728.193-.728.431 0 .237.326.43.728.43zm2.687-1.597c.402 0 .728-.193.728-.431 0-.237-.326-.43-.728-.43-.402 0-.728.193-.728.43 0 .238.326.431.728.431zm-5.38 0c.403 0 .729-.193.729-.431 0-.237-.326-.43-.729-.43-.402 0-.728.193-.728.43 0 .238.326.431.728.431zm2.693-1.592c.402 0 .728-.192.728-.43s-.326-.43-.728-.43c-.402 0-.728.192-.728.43s.326.43.728.43zm10.251 2.47a1.132 1.132 0 011.032 0 .32.32 0 01.214.306.322.322 0 01-.214.306 1.082 1.082 0 01-1.026 0 .318.318 0 01-.23-.304.323.323 0 01.061-.193.31.31 0 01.163-.115zm3.724-1.597a.306.306 0 01.155.117.333.333 0 010 .377.306.306 0 01-.155.117 1.143 1.143 0 01-1.031 0 .325.325 0 01-.214-.305c0-.068.02-.134.059-.189a.306.306 0 01.155-.117 1.102 1.102 0 011.031 0zm2.671-1.614c.06.022.112.064.149.118a.328.328 0 01-.149.488 1.122 1.122 0 01-1.032 0 .325.325 0 010-.606 1.11 1.11 0 011.032 0zm-8.221 8.801c.402 0 .728-.193.728-.43 0-.238-.326-.431-.728-.431-.402 0-.728.193-.728.431 0 .237.326.43.728.43zm3.2-2.328c.287.17.287.442 0 .606a1.071 1.071 0 01-1.026 0 .317.317 0 01-.206-.303.317.317 0 01.206-.303 1.083 1.083 0 011.026 0zm1.71-1.58a1.123 1.123 0 011.027 0 .32.32 0 01.213.306.325.325 0 01-.213.306 1.09 1.09 0 01-1.027 0 .325.325 0 01-.154-.494.315.315 0 01.154-.118zm3.691-1.592a.32.32 0 01.206.303.325.325 0 01-.056.185.311.311 0 01-.15.118 1.103 1.103 0 01-1.031 0 .311.311 0 01-.15-.118.325.325 0 01-.056-.185.324.324 0 01.206-.303 1.116 1.116 0 011.031 0zm2.687-1.602a.325.325 0 01.214.305c0 .068-.02.134-.059.189a.306.306 0 01-.155.117 1.103 1.103 0 01-1.031 0 .306.306 0 01-.155-.117.326.326 0 01-.059-.189.325.325 0 01.214-.305 1.143 1.143 0 011.031 0zm2.593 1.495c.287.17.287.442 0 .606a1.083 1.083 0 01-1.026 0c-.287-.164-.287-.436 0-.606a1.077 1.077 0 011.026 0zm-14.742-1.58a1.12 1.12 0 011.032 0 .314.314 0 01.155.117.332.332 0 010 .377.314.314 0 01-.155.117 1.12 1.12 0 01-1.026 0 .31.31 0 01-.156-.116.33.33 0 01-.004-.376.311.311 0 01.154-.119zm3.206-.861c.402 0 .728-.193.728-.431 0-.237-.326-.43-.728-.43-.403 0-.729.193-.729.43 0 .238.326.431.729.431zm3.205-2.328a.328.328 0 010 .612 1.116 1.116 0 01-1.031 0 .325.325 0 01-.155-.494.313.313 0 01.155-.118 1.142 1.142 0 011.031 0zm-9.098 1.575a1.074 1.074 0 011.026 0 .312.312 0 01.218.303.314.314 0 01-.218.303 1.128 1.128 0 01-1.031 0 .325.325 0 01.005-.606zm3.719-1.575a.32.32 0 01.214.306.322.322 0 01-.214.306 1.082 1.082 0 01-1.026 0 .325.325 0 01-.214-.306c0-.068.02-.134.059-.189a.311.311 0 01.155-.117 1.13 1.13 0 011.026 0zm2.687-1.591a.314.314 0 01.155.117.332.332 0 010 .377.32.32 0 01-.155.117 1.134 1.134 0 01-1.026 0 .311.311 0 01-.155-.117.326.326 0 01-.059-.189.325.325 0 01.214-.305 1.071 1.071 0 011.026 0zm-9.093 1.597a1.077 1.077 0 011.027 0 .31.31 0 01.157.114.327.327 0 010 .377.311.311 0 01-.157.115 1.122 1.122 0 01-1.032 0 .33.33 0 01-.149-.12.33.33 0 01.004-.37.318.318 0 01.15-.116zm3.719-1.597a.314.314 0 01.155.117.332.332 0 010 .377.32.32 0 01-.155.117 1.134 1.134 0 01-1.026 0 .311.311 0 01-.155-.117.333.333 0 010-.377.306.306 0 01.155-.117 1.071 1.071 0 011.026 0zm2.687-1.592c.287.17.287.442 0 .606a1.083 1.083 0 01-1.026 0c-.287-.164-.287-.436 0-.606a1.071 1.071 0 011.026 0zm-15.857 9.974a.328.328 0 010 .612 1.143 1.143 0 01-1.032 0 .325.325 0 01-.154-.494.315.315 0 01.154-.118 1.11 1.11 0 011.032 0zm2.687-1.592a.325.325 0 010 .606 1.106 1.106 0 01-1.032 0 .32.32 0 01-.206-.303.325.325 0 01.206-.303 1.122 1.122 0 011.032 0z" fill="#fff"/><path d="M135.336 181.144l6.025-3.523 28.74 17.167 46.671-27.679-.127-12.121 15.609 9.572-62.479 36.962-34.439-20.378z" fill="#565656"/><path d="M160.363 198.605a.859.859 0 01-.431-.13l-3.139-1.858a1.89 1.89 0 01-.591-.676 1.941 1.941 0 01-.22-.881v-1.365a.937.937 0 01.087-.475.91.91 0 01.31-.363.735.735 0 01.773.034l3.139 1.857c.248.174.45.406.592.677.141.271.216.573.219.881v1.365a.937.937 0 01-.087.475.91.91 0 01-.31.363.66.66 0 01-.342.096zm-3.597-5.097c-.045 0-.067.062-.067.176v1.365c.004.178.047.352.125.511.078.159.19.298.328.406l3.139 1.863a.188.188 0 00.072.029 1.091 1.091 0 000-.198v-1.365a1.211 1.211 0 00-.453-.918l-3.139-1.863-.005-.006zm-3.04 4.276a.859.859 0 01-.431-.13l-3.156-1.858a1.89 1.89 0 01-.591-.676 1.957 1.957 0 01-.22-.881v-1.365a.944.944 0 01.087-.475.913.913 0 01.31-.364.74.74 0 01.773.034l3.139 1.858c.248.173.451.406.592.677.141.271.216.573.219.881v1.353a.934.934 0 01-.397.839.678.678 0 01-.325.107zm-3.598-5.097c-.044 0-.066.062-.066.175v1.365a1.236 1.236 0 00.452.924l3.14 1.857a.188.188 0 00.072.029 1.102 1.102 0 000-.199v-1.365a1.222 1.222 0 00-.125-.511 1.168 1.168 0 00-.328-.406l-3.134-1.852-.011-.017z" fill="#fff"/><path d="M178.697 198.107a.624.624 0 01-.309-.085.831.831 0 01-.353-.736v-1.099c.002-.261.067-.517.187-.747.12-.23.292-.426.503-.573l2.532-1.501a.666.666 0 01.69 0 .81.81 0 01.353.737v1.099a1.64 1.64 0 01-.684 1.319l-2.533 1.501a.76.76 0 01-.386.085zm2.869-4.152l-2.483 1.552a.909.909 0 00-.331.68v1.099a.323.323 0 000 .124l2.488-1.546a.934.934 0 00.331-.685v-1.099a.28.28 0 00.017-.125h-.022zm-4.64 8.876a.601.601 0 01-.309-.085.825.825 0 01-.359-.742v-1.093c.003-.261.067-.517.187-.747.12-.23.293-.427.503-.573l2.532-1.501a.679.679 0 01.69 0 .815.815 0 01.274.322.844.844 0 01.079.42v1.099a1.64 1.64 0 01-.185.743 1.59 1.59 0 01-.499.571l-2.532 1.501a.788.788 0 01-.381.085zm2.863-4.152l-2.482 1.546a.904.904 0 00-.331.686v1.093a.285.285 0 000 .13l2.482-1.552a.902.902 0 00.331-.68v-1.098a.293.293 0 000-.125zm43.516-26.716a.59.59 0 01-.309-.085.802.802 0 01-.276-.321.836.836 0 01-.078-.421v-1.093c.002-.261.065-.518.185-.748.121-.23.294-.427.505-.572l2.527-1.501a.679.679 0 01.69 0 .825.825 0 01.358.742v1.099c-.003.26-.067.515-.187.744-.12.229-.292.424-.502.57l-2.533 1.501a.741.741 0 01-.38.085zm2.869-4.152l-2.489 1.546a.916.916 0 00-.331.686v1.093a.237.237 0 000 .124l2.483-1.546a.892.892 0 00.331-.679v-1.082a.285.285 0 00.006-.142zm-4.646 8.876a.614.614 0 01-.309-.085.84.84 0 01-.353-.742v-1.111c.003-.259.067-.515.187-.744.12-.228.293-.424.503-.57l2.532-1.5a.656.656 0 01.69-.029.83.83 0 01.353.742v1.099a1.64 1.64 0 01-.185.743 1.59 1.59 0 01-.499.571l-2.527 1.501a.786.786 0 01-.392.125zm2.869-4.152l-2.483 1.546a.915.915 0 00-.331.68v1.121a.293.293 0 000 .125l2.483-1.546a.896.896 0 00.239-.303.926.926 0 00.092-.377v-1.099a.282.282 0 000-.147zm-9.059 4.554a.59.59 0 01-.309-.085.804.804 0 01-.275-.322.842.842 0 01-.079-.42v-1.099c.003-.259.066-.514.185-.743.12-.229.291-.425.5-.571l2.532-1.501a.651.651 0 01.69-.028.82.82 0 01.358.742v1.121a1.64 1.64 0 01-.187.744c-.12.229-.292.425-.502.57l-2.533 1.501a.754.754 0 01-.38.091zm2.863-4.152l-2.483 1.547a.895.895 0 00-.331.679v1.099a.24.24 0 000 .125l2.483-1.547a.883.883 0 00.239-.302.926.926 0 00.092-.377v-1.11a.244.244 0 000-.114z" fill="#F7971D"/><path d="M169.775 208.993l-.176-.102-35.101-20.452-.182-9.566 6.769-3.954 29.435 16.969v.81l-29.17-17.093-6.306 3.693.16 8.711 34.566 20.14 64.178-37.681v-6.876l-17.308-10.461.033-.833 17.986 10.875v7.72l-.176.107-64.708 37.993z" fill="#fff"/><path d="M170.52 192.698v-.81l46.114-27.299.006.696-46.12 27.413z" fill="#fff"/><path d="M170.482 199.098l-26.539-15.133.348-.64 26.185 14.929 57.733-34.192-8.309-4.922.359-.634 9.385 5.556-59.162 35.036zm-30.224-82.612l-17.606-9.419V89.86l17.606 9.413v17.213zm-17.032-9.702l16.458 8.801V99.579l-16.458-8.807v16.012z" fill="#fff"/><path d="M138.299 113.229l-13.688-7.317v-12.84l13.688 7.317v12.84zm-13.115-7.623l12.541 6.711v-11.628l-12.541-6.705v11.622zm37.772 23.584l-17.606-9.414V102.57l17.606 9.413v17.207zm-17.037-9.714l16.463 8.83v-16.023l-16.463-8.801v15.994z" fill="#fff"/><path d="M160.992 125.939l-13.683-7.323v-12.84l13.683 7.323v12.84zm-13.115-7.624l12.547 6.706v-11.622l-12.547-6.706v11.622zm-7.619 22.616l-17.606-9.419v-17.207l17.606 9.419v17.207zm-17.032-9.719l16.458 8.807v-15.995l-16.458-8.807v15.995z" fill="#fff"/><path d="M138.299 137.674l-13.688-7.317v-12.812l13.688 7.318v12.811zm-13.115-7.618l12.541 6.706v-11.628l-12.541-6.706v11.628zm15.074 39.766l-17.606-9.419v-17.206l17.606 9.418v17.207zm-17.032-9.719l16.458 8.807v-15.994l-16.458-8.802v15.989z" fill="#fff"/><path d="M138.299 166.565l-13.688-7.317V146.43l13.688 7.318v12.817zm-13.115-7.618l12.541 6.706v-11.627l-12.541-6.706v11.627zm37.772-5.312l-17.606-9.414v-17.206l17.606 9.413v17.207zm-17.037-9.714l16.463 8.802v-15.995l-16.463-8.801v15.994z" fill="#fff"/><path d="M160.992 150.395l-13.683-7.323v-12.851l13.683 7.323v12.851zm-13.115-7.635l12.547 6.712v-11.628l-12.547-6.706v11.622z" fill="#fff"/><path d="M195.249 161.683a.583.583 0 01-.309-.085.83.83 0 01-.353-.742v-1.099c.003-.26.067-.515.187-.744.12-.229.293-.424.503-.57l2.532-1.501a.664.664 0 01.69-.028.81.81 0 01.274.322c.062.13.089.275.079.42v1.099c-.003.26-.068.515-.188.744-.12.229-.292.424-.502.57l-2.532 1.501a.74.74 0 01-.381.113zm2.869-4.152l-2.488 1.547a.923.923 0 00-.331.679v1.099a.293.293 0 000 .125l2.482-1.546a.91.91 0 00.331-.68v-1.099a.282.282 0 00.028-.125h-.022zm-4.999 9.482a.58.58 0 01-.309-.08.81.81 0 01-.274-.322.84.84 0 01-.079-.419v-1.071a1.64 1.64 0 01.184-.744 1.58 1.58 0 01.5-.57l2.533-1.501a.662.662 0 01.689-.028c.119.08.214.191.276.321a.836.836 0 01.078.421v1.093c-.002.26-.065.516-.184.746-.119.23-.291.427-.501.574l-2.532 1.5a.74.74 0 01-.381.08zm2.864-4.152l-2.483 1.552a.902.902 0 00-.331.68v1.099a.288.288 0 000 .124l2.483-1.546a.909.909 0 00.331-.685v-1.094a.312.312 0 000-.136v.006zm-5.534 1.756a.621.621 0 01-.309-.085.82.82 0 01-.273-.322.844.844 0 01-.08-.42v-1.099c.003-.26.067-.515.187-.744.12-.229.293-.424.502-.57l2.533-1.501a.68.68 0 01.689-.028c.118.08.213.191.275.322.062.13.089.275.079.42v1.099a1.661 1.661 0 01-.187.742 1.598 1.598 0 01-.498.572l-2.532 1.501a.777.777 0 01-.386.113zm2.869-4.152l-2.483 1.547a.892.892 0 00-.331.679v1.099a.293.293 0 000 .125l2.488-1.546a.926.926 0 00.331-.68v-1.099a.253.253 0 00-.005-.125zm-10.296 12.506a.58.58 0 01-.308-.085.802.802 0 01-.276-.321.836.836 0 01-.078-.421v-1.093c.002-.26.065-.516.184-.746.119-.23.291-.427.501-.574l2.532-1.501a.68.68 0 01.69-.028.83.83 0 01.353.742v1.099a1.654 1.654 0 01-.185.743 1.59 1.59 0 01-.499.571l-2.533 1.501a.756.756 0 01-.381.113zm2.864-4.151l-2.483 1.546a.923.923 0 00-.331.685v1.093a.24.24 0 000 .125l2.483-1.546a.896.896 0 00.239-.303.926.926 0 00.092-.377v-1.099a.26.26 0 000-.124zm-5.054 9.713a.594.594 0 01-.309-.085.799.799 0 01-.275-.318.825.825 0 01-.078-.418v-1.099c.001-.261.065-.518.185-.748.12-.23.293-.426.505-.572l2.527-1.501a.656.656 0 01.689 0 .806.806 0 01.359.737v1.098a1.656 1.656 0 01-.187.747c-.12.23-.293.426-.503.573l-2.532 1.501a.745.745 0 01-.381.085zm2.864-4.152l-2.483 1.552a.902.902 0 00-.331.68v1.099a.288.288 0 000 .124l2.483-1.546a.94.94 0 00.331-.685v-1.099a.293.293 0 000-.125zm22.554-14.488a.583.583 0 01-.303-.085.8.8 0 01-.279-.32.84.84 0 01-.08-.422v-1.093a1.66 1.66 0 01.187-.747c.12-.229.293-.426.503-.572l2.533-1.501a.672.672 0 01.689 0 .831.831 0 01.353.742v1.098c-.001.26-.064.515-.183.744-.12.229-.291.425-.501.57l-2.532 1.501a.767.767 0 01-.387.085zm2.87-4.151l-2.483 1.546a.907.907 0 00-.331.685v1.093a.225.225 0 000 .131l2.482-1.552a.89.89 0 00.239-.302.936.936 0 00.093-.378v-1.099a.288.288 0 000-.124z" fill="#F7971D"/><path d="M158.671 165.82v18.805l-10.636-6.27v-19.413c0-1.056.672-2.001 1.681-2.529 1.003-.525 2.283-.602 3.416.036h0l.006.003a10.58 10.58 0 014.017 3.902 10.949 10.949 0 011.516 5.466z" stroke="#fff"/><path d="M202.328 99.296v17.116l-25.27 14.16v-16.68l25.27-14.596zm.623-1.087L176.44 113.5v18.085l26.511-14.828v-18.55z" fill="#F7971D"/><path d="M199.735 104.071v10.523l-19.526 11.073v-10.195l19.526-11.39v-.011zm.623-1.082l-20.767 12.109v11.662l20.756-11.786v-11.996l.011.011zm11.051-8.892v17.524l-4.877 2.832V96.798l4.877-2.701zm.624-1.07l-6.125 3.398v19.115l6.125-3.545V93.026zm-9.705 30.816v17.099l-25.27 14.131v-16.634l25.27-14.596zm.623-1.087l-26.511 15.292v18.085l26.511-14.8v-18.577z" fill="#F7971D"/><path d="M199.735 128.618v10.523l-19.526 11.073v-10.195l19.526-11.39v-.011zm.623-1.088l-20.767 12.104v11.656l20.756-11.769v-12.002l.011.011zm11.051-8.886v17.518l-4.877 2.832v-17.648l4.877-2.702zm.624-1.071l-6.125 3.399v19.115l6.125-3.545v-18.969z" fill="#F7971D"/><path d="M116.765 74.562l54.368 29.968 45.308-25.544-54.313-29.956-45.363 25.532z" fill="#fff"/><path d="M120.153 79.473l41.694-23.256 50.059 28.353-41.325 23.329-50.428-28.426z" fill="#565656"/><path d="M170.708 105.045l-.088-.051-50.633-28.653.204-.113 45.171-25.193.088.05 51.383 27.895-.304.17-45.821 25.895zm-50.042-28.648l50.042 28.212 45.341-25.623-50.682-27.515-44.701 24.926z" fill="#fff"/><path d="M170.895 192.307l-.275-.102-54.137-31.094.265-86.549.431-.158 53.7 30.165.016 87.738zm-54.025-31.343l53.65 30.924v-87.172l-53.336-30.018-.314 86.266z" fill="#fff"/><path d="M170.52 192.268v-87.699l.1-.034 46.213-25.555v.21l-.188 85.931-.094.034-46.031 27.113zm.375-87.551v87.126l45.38-26.88.183-85.558-45.563 25.312zm-36.971 74.53l.551.373.155 8.264-8.557-5.069v-2.113l2.024 1.19.828.487v-2.017l1.832 1.099.833.493v-2.056l1.501.838.811.453v-1.942h.022zm-10.787 1.761l2.097 1.297.552.329-2.627-1.558v-.068h-.022zm10.235-2.792v2.022l-2.312-1.292v2.034l-2.665-1.592v2.022l-2.852-1.671v2.096l-2.919-1.807v1.382l12.618 7.465-.182-9.566-1.655-1.093h-.033z" fill="#fff"/><path d="M136.617 175.946l-5.548 2.992.231.452 5.548-2.993-.231-.451zm-2.673.424l-5.548 2.993.231.451 5.548-2.992-.231-.452zm-2.854.359l-5.548 2.993.231.451 5.548-2.993-.231-.451zm-2.919.295l-5.549 2.993.231.451 5.549-2.993-.231-.451z" fill="#fff"/></g><defs><clipPath id="clip0"><path fill="#fff" d="M0 0h240v220H0z"/></clipPath></defs></svg>