<svg width="240" height="220" fill="none" xmlns="http://www.w3.org/2000/svg"><g clip-path="url(#clip0)"><path d="M131.583 193.525c.403 0 .729-.193.729-.431 0-.237-.326-.43-.729-.43-.402 0-.728.193-.728.43 0 .238.326.431.728.431zm3.201-2.329a.322.322 0 01.214.306.333.333 0 01-.059.189.314.314 0 01-.155.117 1.071 1.071 0 01-1.026 0 .306.306 0 01-.155-.117.326.326 0 01-.059-.189.325.325 0 01.214-.306c.159-.08.335-.123.513-.123s.353.043.513.123zm-5.264 2.935a.32.32 0 01.206.303.32.32 0 01-.206.303 1.09 1.09 0 01-1.027 0c-.287-.164-.287-.436 0-.606a1.074 1.074 0 011.027 0zm-3.207-.595c.403 0 .729-.193.729-.43 0-.238-.326-.431-.729-.431-.402 0-.728.193-.728.431 0 .237.326.43.728.43zm3.201-2.328c.06.023.113.064.149.118a.328.328 0 01-.149.488 1.083 1.083 0 01-1.026 0c-.287-.164-.287-.436 0-.606a1.071 1.071 0 011.026 0zm2.687-1.592c.287.164.287.436 0 .606a1.071 1.071 0 01-1.026 0c-.287-.17-.287-.442 0-.606a1.083 1.083 0 011.026 0zm-8.062 1.592a.317.317 0 01.206.303.317.317 0 01-.206.303 1.106 1.106 0 01-1.032 0 .32.32 0 01-.206-.303.32.32 0 01.206-.303 1.11 1.11 0 011.032 0zm2.688-1.592a.32.32 0 01.206.303.32.32 0 01-.206.303 1.078 1.078 0 01-1.027 0c-.287-.17-.287-.442 0-.606a1.089 1.089 0 011.027 0zm2.687-1.597a.314.314 0 01.155.117.333.333 0 010 .377.314.314 0 01-.155.117 1.071 1.071 0 01-1.026 0 .325.325 0 01-.214-.305c0-.068.02-.134.059-.189a.306.306 0 01.155-.117 1.13 1.13 0 011.026 0zm-8.045 1.597a.32.32 0 01.206.303.32.32 0 01-.206.303 1.11 1.11 0 01-1.032 0 .317.317 0 01-.206-.303.317.317 0 01.206-.303 1.103 1.103 0 011.032 0zm2.67-1.597a.306.306 0 01.155.117.326.326 0 01.059.189.325.325 0 01-.214.305 1.107 1.107 0 01-1.032 0 .325.325 0 01-.213-.305.326.326 0 01.213-.306 1.146 1.146 0 011.032 0zm2.688-1.592a.32.32 0 01.214.306.322.322 0 01-.214.306 1.138 1.138 0 01-1.027 0 .322.322 0 01-.214-.306.32.32 0 01.214-.306 1.077 1.077 0 011.027 0zm-8.603 2.311c.402 0 .728-.193.728-.431 0-.237-.326-.43-.728-.43-.403 0-.729.193-.729.43 0 .238.326.431.729.431zm3.2-2.328a.311.311 0 01.155.117.333.333 0 010 .377.313.313 0 01-.155.118c-.159.08-.335.123-.513.123s-.353-.043-.513-.123a.318.318 0 01-.155-.118.332.332 0 010-.377.316.316 0 01.155-.117 1.071 1.071 0 011.026 0zm2.693-1.592a.317.317 0 01.206.303.317.317 0 01-.206.303 1.106 1.106 0 01-1.032 0 .32.32 0 01-.206-.303.32.32 0 01.206-.303 1.11 1.11 0 011.032 0zm-8.581 2.328c.403 0 .729-.193.729-.43 0-.238-.326-.431-.729-.431-.402 0-.728.193-.728.431 0 .237.326.43.728.43zm3.201-2.328c.287.17.287.442 0 .606a1.071 1.071 0 01-1.026 0c-.287-.164-.287-.436 0-.606a1.083 1.083 0 011.026 0zm2.174-.861c.402 0 .729-.193.729-.431 0-.237-.327-.43-.729-.43-.402 0-.728.193-.728.43 0 .238.326.431.728.431zm-7.549.861a.317.317 0 01.206.303.317.317 0 01-.206.303 1.106 1.106 0 01-1.032 0c-.281-.164-.281-.436 0-.606a1.084 1.084 0 011.032 0zm2.688-1.58c.06.022.112.064.149.118a.328.328 0 01-.149.488 1.09 1.09 0 01-1.027 0c-.287-.17-.287-.442 0-.606a1.074 1.074 0 011.027 0zm2.687-1.609a.32.32 0 01.214.306.322.322 0 01-.214.306 1.083 1.083 0 01-1.026 0 .325.325 0 01-.214-.306c0-.068.02-.134.059-.189a.311.311 0 01.155-.117 1.13 1.13 0 011.026 0zm-8.062 1.609c.06.022.112.064.149.118a.328.328 0 01-.149.488 1.122 1.122 0 01-1.032 0 .313.313 0 01-.15-.119.332.332 0 010-.369.311.311 0 01.15-.118 1.11 1.11 0 011.032 0zm2.687-1.609a.311.311 0 01.155.117.333.333 0 010 .377.313.313 0 01-.155.118 1.083 1.083 0 01-1.026 0 .313.313 0 01-.155-.118.332.332 0 010-.377.311.311 0 01.155-.117 1.13 1.13 0 011.026 0zm2.174-.856c.403 0 .729-.192.729-.43s-.326-.431-.729-.431c-.402 0-.728.193-.728.431s.326.43.728.43zm-4.861-.736a.322.322 0 01.214.306.322.322 0 01-.214.306 1.146 1.146 0 01-1.032 0 .318.318 0 01-.155-.118.332.332 0 010-.376.318.318 0 01.155-.118 1.11 1.11 0 011.032 0zm2.687-1.592a.317.317 0 01.206.303c0 .066-.02.131-.056.185a.311.311 0 01-.15.118 1.071 1.071 0 01-1.026 0 .316.316 0 01-.218-.303.312.312 0 01.218-.303 1.083 1.083 0 011.026 0zm61.898 39.619a.32.32 0 010 .607 1.083 1.083 0 01-1.026 0 .314.314 0 01-.218-.303.314.314 0 01.218-.304 1.083 1.083 0 011.026 0zm2.688-1.597a.32.32 0 01.213.306.325.325 0 01-.213.306 1.09 1.09 0 01-1.027 0 .322.322 0 01-.214-.306.328.328 0 01.214-.306 1.134 1.134 0 011.027 0zm2.692-1.592a.323.323 0 01.214.306.323.323 0 01-.214.306 1.143 1.143 0 01-1.032 0 .323.323 0 01-.213-.306.323.323 0 01.213-.306 1.11 1.11 0 011.032 0zm2.688-1.614a.314.314 0 01.155.117.333.333 0 010 .377.314.314 0 01-.155.117 1.147 1.147 0 01-1.032 0 .31.31 0 01-.155-.117.332.332 0 010-.377.31.31 0 01.155-.117 1.106 1.106 0 011.032 0zm2.174-.839c.402 0 .728-.193.728-.43 0-.238-.326-.431-.728-.431-.402 0-.728.193-.728.431 0 .237.326.43.728.43zm3.201-2.328a.323.323 0 01.213.306.323.323 0 01-.213.306 1.09 1.09 0 01-1.027 0 .322.322 0 01-.214-.306.322.322 0 01.214-.306 1.134 1.134 0 011.027 0zm2.687-1.592a.322.322 0 01.214.306.32.32 0 01-.214.306 1.134 1.134 0 01-1.027 0 .326.326 0 01-.213-.306.325.325 0 01.213-.306 1.09 1.09 0 011.027 0zm2.687-1.592c.287.17.287.442 0 .607a1.083 1.083 0 01-1.026 0 .313.313 0 01-.15-.119.332.332 0 010-.369.32.32 0 01.15-.119 1.082 1.082 0 011.026 0zm2.174-.861c.403 0 .729-.192.729-.43s-.326-.431-.729-.431c-.402 0-.728.193-.728.431s.326.43.728.43zm2.693-1.591c.403 0 .729-.193.729-.431s-.326-.43-.729-.43c-.402 0-.728.192-.728.43s.326.431.728.431zm2.688-1.592c.402 0 .728-.193.728-.431 0-.237-.326-.43-.728-.43-.403 0-.729.193-.729.43 0 .238.326.431.729.431zm3.2-2.328c.287.17.287.441 0 .606a1.083 1.083 0 01-1.026 0c-.287-.165-.287-.436 0-.606a1.071 1.071 0 011.026 0zm2.175-.861c.402 0 .728-.193.728-.431s-.326-.43-.728-.43c-.403 0-.729.192-.729.43s.326.431.729.431zm3.2-2.329a.318.318 0 01.155.118.332.332 0 010 .377.316.316 0 01-.155.117 1.083 1.083 0 01-1.026 0 .311.311 0 01-.155-.117.326.326 0 01-.059-.189.325.325 0 01.214-.306c.159-.08.335-.123.513-.123s.353.043.513.123zm-40.322 20.716a.325.325 0 01.206.304.324.324 0 01-.206.303 1.083 1.083 0 01-1.026 0 .32.32 0 010-.607 1.083 1.083 0 011.026 0zm2.688-1.597a.322.322 0 01.214.306.322.322 0 01-.214.306 1.089 1.089 0 01-1.027 0 .325.325 0 01-.154-.494.315.315 0 01.154-.118 1.138 1.138 0 011.027 0zm2.687-1.592a.318.318 0 01.155.118.33.33 0 010 .376.318.318 0 01-.155.118 1.13 1.13 0 01-1.026 0 .313.313 0 01-.155-.118.33.33 0 010-.376.313.313 0 01.155-.118 1.083 1.083 0 011.026 0zm2.688-1.614a.326.326 0 01.213.306.325.325 0 01-.213.305 1.138 1.138 0 01-1.027 0 .314.314 0 01-.155-.117.332.332 0 010-.377.314.314 0 01.155-.117 1.074 1.074 0 011.027 0zm2.692-1.57a.32.32 0 01.206.304.324.324 0 01-.206.303 1.116 1.116 0 01-1.032 0 .325.325 0 010-.607 1.122 1.122 0 011.032 0zm2.688-1.597a.322.322 0 01.214.306.322.322 0 01-.214.306 1.122 1.122 0 01-1.032 0 .318.318 0 01-.155-.118.332.332 0 010-.376.318.318 0 01.155-.118 1.143 1.143 0 011.032 0zm2.174-.855c.402 0 .728-.193.728-.431s-.326-.43-.728-.43c-.402 0-.728.192-.728.43s.326.431.728.431zm3.2-2.329c.287.17.287.442 0 .607a1.083 1.083 0 01-1.026 0c-.287-.165-.287-.437 0-.607a1.085 1.085 0 011.026 0zm2.175-.861c.402 0 .728-.192.728-.43s-.326-.431-.728-.431c-.403 0-.729.193-.729.431s.326.43.729.43zm2.687-1.591c.402 0 .728-.193.728-.431s-.326-.43-.728-.43c-.402 0-.728.192-.728.43s.326.431.728.431zm2.687-1.592c.403 0 .729-.193.729-.431 0-.237-.326-.43-.729-.43-.402 0-.728.193-.728.43 0 .238.326.431.728.431zm3.207-2.328c.06.022.112.064.149.118a.328.328 0 01-.149.488 1.122 1.122 0 01-1.032 0 .324.324 0 01-.206-.303c0-.066.019-.131.056-.185a.311.311 0 01.15-.118 1.104 1.104 0 011.032 0zm2.687-1.592c.06.023.113.064.149.118a.328.328 0 01-.149.488 1.083 1.083 0 01-1.026 0c-.287-.17-.287-.442 0-.606a1.083 1.083 0 011.026 0zm2.687-1.598a.313.313 0 01.155.118.332.332 0 010 .377.311.311 0 01-.155.117 1.083 1.083 0 01-1.026 0 .316.316 0 01-.155-.117.333.333 0 010-.377.318.318 0 01.155-.118c.16-.08.335-.123.513-.123s.354.043.513.123zm2.688-1.591a.314.314 0 01.155.117.332.332 0 010 .377.314.314 0 01-.155.117 1.138 1.138 0 01-1.027 0 .314.314 0 01-.155-.117.333.333 0 010-.377.314.314 0 01.155-.117 1.077 1.077 0 011.027 0zm-40.322 20.71a.32.32 0 01.214.306.322.322 0 01-.214.306 1.122 1.122 0 01-1.032 0 .322.322 0 01-.214-.306.32.32 0 01.214-.306 1.146 1.146 0 011.032 0zm2.687-1.592a.323.323 0 01.214.306.323.323 0 01-.214.306 1.13 1.13 0 01-1.026 0 .318.318 0 01-.155-.118.33.33 0 010-.376.318.318 0 01.155-.118 1.083 1.083 0 011.026 0zm2.688-1.614a.314.314 0 01.155.117.333.333 0 010 .377.314.314 0 01-.155.117 1.134 1.134 0 01-1.027 0 .325.325 0 01-.213-.305.326.326 0 01.213-.306 1.078 1.078 0 011.027 0zm2.687-1.569a.32.32 0 010 .606 1.083 1.083 0 01-1.026 0 .314.314 0 01-.218-.303.312.312 0 01.218-.303 1.071 1.071 0 011.026 0zm2.688-1.598a.323.323 0 01.213.306.323.323 0 01-.213.306 1.09 1.09 0 01-1.027 0 .322.322 0 01-.214-.306.322.322 0 01.214-.306 1.134 1.134 0 011.027 0zm2.692-1.592a.325.325 0 01.155.494.313.313 0 01-.155.118 1.143 1.143 0 01-1.032 0 .323.323 0 01-.213-.306.325.325 0 01.213-.306 1.122 1.122 0 011.032 0zm2.688-1.592a.326.326 0 010 .607 1.122 1.122 0 01-1.032 0 .313.313 0 01-.15-.119.332.332 0 010-.369.32.32 0 01.15-.119 1.119 1.119 0 011.032 0zm2.704-1.58a.32.32 0 01.206.303.32.32 0 01-.206.303 1.089 1.089 0 01-1.027 0c-.287-.17-.287-.442 0-.606a1.09 1.09 0 011.027 0zm2.671-1.609a.325.325 0 01.154.494.315.315 0 01-.154.118 1.09 1.09 0 01-1.027 0 .322.322 0 01-.214-.306.322.322 0 01.214-.306 1.134 1.134 0 011.027 0zm2.687-1.592a.322.322 0 01.214.306.32.32 0 01-.214.306 1.134 1.134 0 01-1.027 0 .326.326 0 01-.213-.306.325.325 0 01.213-.306 1.089 1.089 0 011.027 0zm2.687-1.591c.287.17.287.441 0 .606a1.083 1.083 0 01-1.026 0 .313.313 0 01-.15-.119.332.332 0 010-.369.311.311 0 01.15-.118 1.071 1.071 0 011.026 0zm2.174-.861c.403 0 .729-.193.729-.431s-.326-.43-.729-.43c-.402 0-.728.192-.728.43s.326.431.728.431zm2.693-1.592c.403 0 .729-.193.729-.431s-.326-.43-.729-.43c-.402 0-.728.192-.728.43s.326.431.728.431zm2.688-1.592c.402 0 .728-.193.728-.43 0-.238-.326-.431-.728-.431-.403 0-.729.193-.729.431 0 .237.326.43.729.43zm2.687-1.592c.402 0 .729-.192.729-.43s-.327-.431-.729-.431c-.402 0-.728.193-.728.431s.326.43.728.43zm-39.808 19.974a.323.323 0 01.213.306.323.323 0 01-.213.306 1.146 1.146 0 01-1.032 0 .313.313 0 01-.155-.118.33.33 0 010-.376.313.313 0 01.155-.118 1.106 1.106 0 011.032 0zm2.687-1.614a.314.314 0 01.155.117.333.333 0 010 .377.314.314 0 01-.155.117 1.147 1.147 0 01-1.032 0 .314.314 0 01-.155-.117.332.332 0 010-.377.314.314 0 01.155-.117 1.11 1.11 0 011.032 0zm2.687-1.569a.311.311 0 01.15.118.328.328 0 010 .369.313.313 0 01-.15.119 1.083 1.083 0 01-1.026 0 .32.32 0 010-.606 1.071 1.071 0 011.026 0zm2.688-1.598a.322.322 0 01.214.306.322.322 0 01-.214.306 1.089 1.089 0 01-1.027 0 .323.323 0 01-.213-.306.323.323 0 01.213-.306 1.138 1.138 0 011.027 0zm2.687-1.592a.318.318 0 01.155.118.332.332 0 010 .377.316.316 0 01-.155.117 1.13 1.13 0 01-1.026 0 .311.311 0 01-.155-.117.333.333 0 010-.377.313.313 0 01.155-.118 1.083 1.083 0 011.026 0zm2.687-1.592c.287.17.287.442 0 .607a1.083 1.083 0 01-1.026 0 .325.325 0 010-.607 1.085 1.085 0 011.026 0zm2.693-1.58a.317.317 0 01.206.303.317.317 0 01-.206.303 1.103 1.103 0 01-1.032 0 .32.32 0 01-.206-.303.32.32 0 01.206-.303 1.122 1.122 0 011.032 0zm2.175-.872c.402 0 .728-.193.728-.431s-.326-.43-.728-.43c-.403 0-.729.192-.729.43s.326.431.729.431zm3.217-2.329a.322.322 0 01.214.306.32.32 0 01-.214.306 1.134 1.134 0 01-1.027 0 .32.32 0 01-.213-.306.322.322 0 01.213-.306 1.089 1.089 0 011.027 0zm2.67-1.591c.287.17.287.441 0 .606a1.083 1.083 0 01-1.026 0c-.287-.165-.287-.436 0-.606a1.074 1.074 0 011.026 0zm2.688-1.592c.287.164.287.436 0 .606a1.086 1.086 0 01-1.026 0c-.287-.17-.287-.442 0-.606a1.083 1.083 0 011.026 0zm2.687-1.598a.313.313 0 01.155.118.332.332 0 010 .377.311.311 0 01-.155.117 1.083 1.083 0 01-1.026 0 .316.316 0 01-.155-.117.333.333 0 010-.377.318.318 0 01.155-.118c.16-.08.335-.123.513-.123s.354.043.513.123zm2.693-1.591a.31.31 0 01.155.117.333.333 0 010 .377.31.31 0 01-.155.117 1.144 1.144 0 01-1.032 0 .314.314 0 01-.155-.117.332.332 0 010-.377.314.314 0 01.155-.117 1.11 1.11 0 011.032 0zm2.174-.856c.403 0 .729-.192.729-.43s-.326-.431-.729-.431c-.402 0-.728.193-.728.431s.326.43.728.43zm2.688-1.597c.402 0 .728-.193.728-.431s-.326-.43-.728-.43c-.403 0-.729.192-.729.43s.326.431.729.431zm-39.836 19.957a.326.326 0 01.213.306.325.325 0 01-.213.305 1.138 1.138 0 01-1.027 0 .314.314 0 01-.155-.117.332.332 0 010-.377.314.314 0 01.155-.117 1.077 1.077 0 011.027 0zm2.174-.856c.402 0 .728-.193.728-.43 0-.238-.326-.431-.728-.431-.402 0-.729.193-.729.431 0 .237.327.43.729.43zm3.206-2.328a.322.322 0 01.214.306.322.322 0 01-.214.306 1.122 1.122 0 01-1.032 0 .322.322 0 01-.214-.306.322.322 0 01.214-.306 1.146 1.146 0 011.032 0zm-8.068 1.598a.316.316 0 01.218.303.318.318 0 01-.218.303 1.083 1.083 0 01-1.026 0 .318.318 0 01-.218-.303.316.316 0 01.218-.303 1.071 1.071 0 011.026 0zm2.174-.861c.403 0 .729-.193.729-.431s-.326-.431-.729-.431c-.402 0-.728.193-.728.431s.326.431.728.431zm2.688-1.592c.402 0 .728-.193.728-.431s-.326-.43-.728-.43c-.402 0-.729.192-.729.43s.327.431.729.431zm-7.549.855a.322.322 0 01.214.306.322.322 0 01-.214.306 1.086 1.086 0 01-1.026 0 .325.325 0 01-.155-.494.313.313 0 01.155-.118 1.13 1.13 0 011.026 0zm2.687-1.592a.313.313 0 01.155.118.332.332 0 010 .376.313.313 0 01-.155.118 1.13 1.13 0 01-1.026 0 .328.328 0 010-.612 1.083 1.083 0 011.026 0zm2.688-1.591c.287.169.287.441 0 .606a1.089 1.089 0 01-1.027 0c-.287-.165-.287-.437 0-.606a1.077 1.077 0 011.027 0zm-8.062 1.591a.325.325 0 01.154.494.315.315 0 01-.154.118 1.15 1.15 0 01-1.032 0 .32.32 0 01-.214-.306.325.325 0 01.214-.306 1.116 1.116 0 011.032 0zm2.687-1.591a.326.326 0 010 .606 1.082 1.082 0 01-1.026 0c-.287-.165-.287-.437 0-.606a1.071 1.071 0 011.026 0zm2.687-1.564a.312.312 0 01.218.303.312.312 0 01-.218.303 1.083 1.083 0 01-1.026 0 .312.312 0 01-.218-.303.312.312 0 01.218-.303 1.083 1.083 0 011.026 0zm-8.062 1.563a.32.32 0 01.206.304c0 .066-.02.13-.056.184a.313.313 0 01-.15.119 1.119 1.119 0 01-1.032 0 .325.325 0 010-.607 1.122 1.122 0 011.032 0zm2.688-1.563a.32.32 0 01.206.303.32.32 0 01-.206.303 1.11 1.11 0 01-1.032 0 .317.317 0 01-.206-.303.317.317 0 01.206-.303 1.116 1.116 0 011.032 0zm2.687-1.626a.322.322 0 01.214.306.328.328 0 01-.214.306 1.086 1.086 0 01-1.026 0 .32.32 0 01-.214-.306.325.325 0 01.214-.306 1.13 1.13 0 011.026 0zm-8.068 1.626c.063.02.119.06.158.115a.321.321 0 01-.158.491 1.083 1.083 0 01-1.026 0 .317.317 0 01-.206-.303.317.317 0 01.206-.303 1.083 1.083 0 011.026 0zm2.693-1.626a.313.313 0 01.155.118.332.332 0 010 .376.313.313 0 01-.155.118 1.106 1.106 0 01-1.032 0 .322.322 0 01-.214-.306.322.322 0 01.214-.306 1.146 1.146 0 011.032 0zm2.174-.855c.403 0 .729-.193.729-.431 0-.237-.326-.43-.729-.43-.402 0-.728.193-.728.43 0 .238.326.431.728.431zm-7.554.855a.322.322 0 01.214.306.328.328 0 01-.214.306 1.083 1.083 0 01-1.027 0 .32.32 0 01-.213-.306.325.325 0 01.213-.306 1.138 1.138 0 011.027 0zm2.687-1.592a.313.313 0 01.155.118.332.332 0 010 .377.311.311 0 01-.155.117 1.13 1.13 0 01-1.026 0 .316.316 0 01-.155-.117.333.333 0 010-.377.318.318 0 01.155-.118 1.083 1.083 0 011.026 0zm2.174-.855c.403 0 .729-.193.729-.43 0-.238-.326-.431-.729-.431-.402 0-.728.193-.728.431 0 .237.326.43.728.43zm-8.062 1.592c.403 0 .729-.193.729-.431 0-.237-.326-.43-.729-.43-.402 0-.728.193-.728.43 0 .238.326.431.728.431zm3.201-2.328c.287.17.287.442 0 .606a1.083 1.083 0 01-1.026 0c-.287-.164-.287-.436 0-.606a1.071 1.071 0 011.026 0zm2.687-1.592c.287.164.287.436 0 .606a1.083 1.083 0 01-1.026 0 .317.317 0 01-.206-.303.317.317 0 01.206-.303 1.071 1.071 0 011.026 0zm-8.084 1.575c.06.023.113.064.149.118a.328.328 0 01-.149.488 1.122 1.122 0 01-1.032 0 .32.32 0 01-.206-.303.32.32 0 01.206-.303 1.11 1.11 0 011.032 0zm2.687-1.592a.317.317 0 01.206.303.317.317 0 01-.206.303 1.083 1.083 0 01-1.026 0 .315.315 0 01-.218-.303.315.315 0 01.218-.303 1.083 1.083 0 011.026 0zm2.688-1.598a.322.322 0 01.214.306.32.32 0 01-.214.306 1.074 1.074 0 01-1.027 0 .326.326 0 01-.213-.306.325.325 0 01.213-.306c.16-.08.336-.123.514-.123s.353.043.513.123zm-8.062 1.598a.32.32 0 01.206.303.32.32 0 01-.206.303 1.11 1.11 0 01-1.032 0 .317.317 0 01-.206-.303.317.317 0 01.206-.303 1.106 1.106 0 011.032 0zm2.687-1.598a.318.318 0 01.155.118.332.332 0 010 .377.316.316 0 01-.155.117 1.11 1.11 0 01-1.032 0 .32.32 0 01-.214-.306.322.322 0 01.214-.306 1.146 1.146 0 011.032 0zm2.174-.855c.403 0 .729-.193.729-.43 0-.238-.326-.431-.729-.431-.402 0-.728.193-.728.431 0 .237.326.43.728.43zm-7.554.855a.322.322 0 01.214.306.32.32 0 01-.214.306 1.074 1.074 0 01-1.027 0 .326.326 0 01-.213-.306.325.325 0 01.213-.306c.16-.08.336-.123.514-.123s.353.043.513.123zm2.693-1.614a.322.322 0 01.214.306.322.322 0 01-.214.306 1.146 1.146 0 01-1.032 0 .313.313 0 01-.155-.118.332.332 0 010-.376.313.313 0 01.155-.118 1.119 1.119 0 011.032 0zm2.687-1.569c.06.023.113.064.149.118a.328.328 0 01-.149.488 1.11 1.11 0 01-1.032 0 .32.32 0 01-.206-.303.32.32 0 01.206-.303 1.11 1.11 0 011.032 0zm-8.068 1.569a.32.32 0 01.214.306.325.325 0 01-.214.306 1.13 1.13 0 01-1.026 0 .322.322 0 01-.214-.306.328.328 0 01.214-.306 1.083 1.083 0 011.026 0zm2.688-1.569c.287.17.287.442 0 .606a1.089 1.089 0 01-1.027 0 .32.32 0 01-.206-.303.32.32 0 01.206-.303 1.078 1.078 0 011.027 0zm2.693-1.592a.32.32 0 01.206.303.32.32 0 01-.206.303 1.11 1.11 0 01-1.032 0 .317.317 0 01-.206-.303.317.317 0 01.206-.303 1.106 1.106 0 011.032 0zm74.308 3.235a1.071 1.071 0 011.026 0c.064.02.119.06.158.114a.327.327 0 010 .377.304.304 0 01-.158.115 1.083 1.083 0 01-1.026 0c-.287-.164-.287-.436 0-.606zm3.719-1.598a.323.323 0 01.214.306.323.323 0 01-.214.306 1.142 1.142 0 01-1.031 0 .323.323 0 01-.214-.306.323.323 0 01.214-.306 1.116 1.116 0 011.031 0zm2.688-1.592a.325.325 0 010 .607 1.088 1.088 0 01-1.027 0c-.287-.165-.287-.437 0-.607a1.09 1.09 0 011.027 0zm2.174-.861c.402 0 .728-.192.728-.43s-.326-.431-.728-.431c-.402 0-.728.193-.728.431s.326.43.728.43zm-11.263 2.453a1.146 1.146 0 011.032 0 .318.318 0 01.155.118.332.332 0 010 .376.318.318 0 01-.155.118 1.083 1.083 0 01-1.026 0 .316.316 0 01-.156-.116.332.332 0 01-.004-.377.317.317 0 01.154-.119zm3.195-.855c.403 0 .729-.193.729-.431 0-.237-.326-.43-.729-.43-.402 0-.728.193-.728.43 0 .238.326.431.728.431zm3.206-2.328a.311.311 0 01.15.118.328.328 0 010 .369.313.313 0 01-.15.119 1.116 1.116 0 01-1.032 0 .325.325 0 010-.606 1.11 1.11 0 011.032 0zm2.688-1.598a.322.322 0 01.214.306.328.328 0 01-.214.306 1.086 1.086 0 01-1.027 0 .32.32 0 01-.213-.306.325.325 0 01.213-.306 1.138 1.138 0 011.027 0zm2.687-1.592a.313.313 0 01.155.118.332.332 0 010 .376.313.313 0 01-.155.118 1.13 1.13 0 01-1.026 0 .328.328 0 010-.612 1.083 1.083 0 011.026 0zm-14.474 4.781a1.122 1.122 0 011.032 0 .322.322 0 01.214.306.32.32 0 01-.214.306 1.134 1.134 0 01-1.027 0 .315.315 0 01-.156-.116.328.328 0 01.151-.496zm3.719-1.591c.287.164.287.436 0 .606a1.083 1.083 0 01-1.026 0 .317.317 0 01-.206-.303c0-.066.019-.131.056-.185a.311.311 0 01.15-.118 1.071 1.071 0 011.026 0zm2.693-1.598a.318.318 0 01.155.118.332.332 0 010 .376.318.318 0 01-.155.118 1.11 1.11 0 01-1.032 0 .322.322 0 01-.214-.306.322.322 0 01.214-.306 1.146 1.146 0 011.032 0zm2.687-1.592a.325.325 0 01.155.494.308.308 0 01-.155.118 1.142 1.142 0 01-1.031 0 .32.32 0 01-.214-.306.325.325 0 01.214-.306 1.116 1.116 0 011.031 0zm2.688-1.591c.06.022.112.064.149.118a.328.328 0 01-.149.488 1.089 1.089 0 01-1.027 0c-.287-.165-.287-.436 0-.606a1.078 1.078 0 011.027 0zm2.174-.862c.402 0 .728-.192.728-.43s-.326-.431-.728-.431c-.402 0-.728.193-.728.431s.326.43.728.43zm-2.687-1.444c.402 0 .728-.193.728-.43 0-.238-.326-.431-.728-.431-.403 0-.729.193-.729.431 0 .237.326.43.729.43zm-13.962 7.087a1.078 1.078 0 011.027 0 .31.31 0 01.157.114.328.328 0 01.061.189.327.327 0 01-.061.188.306.306 0 01-.157.115 1.132 1.132 0 01-1.032 0 .321.321 0 01-.203-.305.318.318 0 01.208-.301zm3.731-1.598a.322.322 0 01.214.306.328.328 0 01-.214.306 1.089 1.089 0 01-1.027 0 .322.322 0 01-.214-.306.322.322 0 01.214-.306 1.138 1.138 0 011.027 0zm2.676-1.592a.318.318 0 01.155.118.332.332 0 010 .376.318.318 0 01-.155.118 1.13 1.13 0 01-1.026 0 .328.328 0 010-.612 1.083 1.083 0 011.026 0zm2.693-1.591a.304.304 0 01.149.118.328.328 0 01-.149.488 1.122 1.122 0 01-1.032 0 .325.325 0 010-.606 1.11 1.11 0 011.032 0zm10.75 3.183a.323.323 0 01.213.306.323.323 0 01-.213.306 1.138 1.138 0 01-1.027 0 .322.322 0 01-.214-.306.322.322 0 01.214-.306 1.089 1.089 0 011.027 0zm2.174-.855c.402 0 .728-.193.728-.431s-.326-.43-.728-.43c-.403 0-.729.192-.729.43s.326.431.729.431zm3.228-2.328c.287.164.287.436 0 .606a1.083 1.083 0 01-1.026 0 .325.325 0 010-.606 1.071 1.071 0 011.026 0zm-5.402 0c.286.164.286.436 0 .606a1.09 1.09 0 01-1.027 0c-.287-.17-.287-.442 0-.606a1.074 1.074 0 011.027 0zm2.687-1.598a.322.322 0 01.214.306.322.322 0 01-.214.306 1.083 1.083 0 01-1.026 0 .323.323 0 01-.214-.306.325.325 0 01.214-.306 1.13 1.13 0 011.026 0zm-3.201-.855c.403 0 .729-.193.729-.431s-.326-.43-.729-.43c-.402 0-.728.192-.728.43s.326.431.728.431zm-2.687-1.592c.402 0 .728-.193.728-.431 0-.237-.326-.43-.728-.43-.402 0-.728.193-.728.43 0 .238.326.431.728.431zm10.258 2.464a1.09 1.09 0 011.027 0c.063.02.118.06.157.115a.321.321 0 01-.157.491 1.123 1.123 0 01-1.027 0 .32.32 0 01-.206-.303.32.32 0 01.206-.303zm3.72-1.597a.326.326 0 01.213.306.325.325 0 01-.213.305 1.11 1.11 0 01-1.032 0 .306.306 0 01-.155-.117.332.332 0 010-.377.306.306 0 01.155-.117 1.144 1.144 0 011.032 0zm2.687-1.592a.316.316 0 01.155.117.333.333 0 010 .377.318.318 0 01-.155.118 1.134 1.134 0 01-1.026 0 .325.325 0 01-.214-.306c0-.068.02-.134.059-.189a.311.311 0 01.155-.117 1.071 1.071 0 011.026 0zm2.174-.856c.402 0 .729-.192.729-.43s-.327-.431-.729-.431c-.402 0-.728.193-.728.431s.326.43.728.43zm-11.274 2.453a1.122 1.122 0 011.032 0 .314.314 0 01.218.303.312.312 0 01-.218.303 1.071 1.071 0 01-1.026 0 .304.304 0 01-.158-.113.324.324 0 01-.004-.376.317.317 0 01.156-.117zm3.207-.861c.402 0 .728-.193.728-.43 0-.238-.326-.431-.728-.431-.403 0-.729.193-.729.431 0 .237.326.43.729.43zm3.206-2.339a.32.32 0 01.206.303.32.32 0 01-.206.303 1.11 1.11 0 01-1.032 0 .317.317 0 01-.206-.303.317.317 0 01.206-.303 1.106 1.106 0 011.032 0zm2.687-1.581a.325.325 0 010 .606 1.071 1.071 0 01-1.026 0c-.287-.17-.287-.441 0-.606a1.083 1.083 0 011.026 0zm-11.787 3.189a1.132 1.132 0 011.032 0 .322.322 0 01.214.306.32.32 0 01-.214.306 1.071 1.071 0 01-1.026 0c-.287-.175-.287-.447-.006-.612zm3.725-1.608c.287.17.287.442 0 .606a1.083 1.083 0 01-1.026 0 .317.317 0 01-.15-.118.33.33 0 010-.37.317.317 0 01.15-.118 1.083 1.083 0 011.026 0zm2.687-1.581a.324.324 0 01.206.303.328.328 0 01-.056.185.311.311 0 01-.15.118 1.107 1.107 0 01-1.032 0 .313.313 0 01-.149-.118.328.328 0 01.149-.488 1.122 1.122 0 011.032 0zm2.688-1.597a.326.326 0 01.213.306.325.325 0 01-.213.306 1.122 1.122 0 01-1.032 0 .313.313 0 01-.155-.118.332.332 0 010-.377.311.311 0 01.155-.117 1.143 1.143 0 011.032 0zm-11.787 3.178a1.083 1.083 0 011.026 0 .316.316 0 01.155.117.333.333 0 010 .377.318.318 0 01-.155.118 1.146 1.146 0 01-1.032 0 .323.323 0 01-.211-.308.33.33 0 01.061-.188.31.31 0 01.156-.116zm3.719-1.581c.287.165.287.436 0 .606a1.071 1.071 0 01-1.026 0c-.287-.17-.287-.441 0-.606a1.083 1.083 0 011.026 0zm2.693-1.597a.32.32 0 01.214.306.322.322 0 01-.214.306 1.086 1.086 0 01-1.027 0 .325.325 0 01-.213-.306.326.326 0 01.213-.306 1.138 1.138 0 011.027 0zm2.687-1.592a.313.313 0 01.155.118.33.33 0 010 .376.313.313 0 01-.155.118 1.143 1.143 0 01-1.032 0 .322.322 0 01-.213-.306.322.322 0 01.213-.306 1.11 1.11 0 011.032 0zm7.334 1.371a.328.328 0 010 .612 1.134 1.134 0 01-1.026 0 .325.325 0 01-.155-.494.308.308 0 01.155-.118 1.083 1.083 0 011.026 0zm-2.687-1.575c.063.02.118.06.157.115a.321.321 0 01-.157.491 1.078 1.078 0 01-1.027 0 .306.306 0 01-.157-.115.321.321 0 01.157-.491 1.089 1.089 0 011.027 0zm2.687-1.597a.32.32 0 01.214.306.332.332 0 01-.059.188.314.314 0 01-.155.117 1.071 1.071 0 01-1.026 0 .325.325 0 01-.214-.305c0-.068.02-.134.059-.189a.311.311 0 01.155-.117 1.13 1.13 0 011.026 0zm-5.375 0a.311.311 0 01.155.117.333.333 0 010 .377.306.306 0 01-.155.117 1.071 1.071 0 01-1.026 0 .306.306 0 01-.155-.117.332.332 0 010-.377.311.311 0 01.155-.117 1.13 1.13 0 011.026 0zm2.688-1.592a.326.326 0 01.213.306.325.325 0 01-.213.306 1.15 1.15 0 01-.514.123c-.178 0-.353-.043-.513-.123a.322.322 0 01-.214-.306.32.32 0 01.214-.306 1.074 1.074 0 011.027 0zm-20.799 12.944a.317.317 0 01.206.303.317.317 0 01-.206.303 1.103 1.103 0 01-1.032 0 .32.32 0 01-.206-.303.32.32 0 01.206-.303 1.11 1.11 0 011.032 0z" fill="#fff"/><path d="M29.855 72.237L12.82 63.128V46.525l17.035 9.109v16.603z" fill="#565656"/><path d="M29.148 71.03l-17.614-9.414v-17.21l17.614 9.415v17.21zm-17.04-9.715l16.467 8.803V54.121l-16.467-8.803v15.998z" fill="#fff"/><path d="M27.896 69.008L14.779 61.99V49.76l13.117 7.013v12.235z" fill="#F7971D"/><path d="M27.184 67.779l-13.69-7.324V47.613l13.69 7.324V67.78zm-13.117-7.625l12.549 6.707V55.215l-12.549-6.69v11.63z" fill="#fff"/><path d="M52.557 84.949l-17.04-9.109V59.237l17.04 9.109v16.603z" fill="#565656"/><path d="M51.845 83.742l-17.609-9.42v-17.21l17.61 9.432v17.198zm-17.013-9.72l16.445 8.808V66.833l-16.445-8.786v15.975z" fill="#fff"/><path d="M50.598 81.714L37.48 74.701V62.466l13.117 7.018v12.23z" fill="#F7971D"/><path d="M49.886 80.485l-13.69-7.319V60.313l13.69 7.319v12.853zm-13.117-7.62l12.543 6.708v-11.63L36.77 61.236v11.63z" fill="#fff"/><path d="M29.855 97.734L12.82 88.62V72.016l17.035 9.115v16.603z" fill="#565656"/><path d="M29.148 96.522l-17.614-9.415v-17.21l17.614 9.415v17.21zm-17.04-9.715l16.467 8.803V79.613L12.108 70.81v15.997z" fill="#fff"/><path d="M27.896 94.5l-13.117-7.013V75.25l13.117 7.013V94.5z" fill="#F7971D"/><path d="M27.184 93.27l-13.69-7.324V73.104l13.69 7.324V93.27zm-13.117-7.624l12.549 6.712V80.706l-12.549-6.684v11.624z" fill="#fff"/><path d="M52.557 110.44l-17.04-9.109V84.728l17.04 9.109v16.603z" fill="#565656"/><path d="M51.845 109.233l-17.609-9.414V82.603l17.61 9.432v17.198zm-17.013-9.72l16.445 8.808V92.324l-16.445-8.786v15.975z" fill="#fff"/><path d="M50.598 107.211l-13.117-7.018v-12.23l13.117 7.012v12.236z" fill="#F7971D"/><path d="M49.886 105.976l-13.69-7.319V85.805l13.69 7.32v12.852zm-13.117-7.619l12.543 6.707V93.44L36.77 86.728v11.63z" fill="#fff"/><path d="M29.855 122.155l-17.035-9.109V96.443l17.035 9.108v16.604z" fill="#565656"/><path d="M29.148 120.926l-17.614-9.398V94.301l17.614 9.438v17.187zm-17.04-9.698l16.467 8.808v-15.997l-16.467-8.803v15.992z" fill="#fff"/><path d="M27.896 118.926l-13.117-7.019V99.671l13.117 7.019v12.236z" fill="#F7971D"/><path d="M27.184 117.691l-13.69-7.319V97.53l13.69 7.319v12.842zm-13.117-7.619l12.549 6.707v-11.63l-12.549-6.707v11.63z" fill="#fff"/><path d="M52.557 134.866l-17.04-9.114v-16.603l17.04 9.114v16.603z" fill="#565656"/><path d="M51.845 133.654l-17.609-9.415V107.03l17.61 9.415v17.209zm-17.013-9.715l16.445 8.803v-15.991l-16.445-8.809v15.997z" fill="#fff"/><path d="M50.598 131.632l-13.117-7.013v-12.236l13.117 7.013v12.236z" fill="#F7971D"/><path d="M49.886 130.403l-13.69-7.325v-12.836l13.69 7.319v12.842zm-13.117-7.625l12.543 6.713v-11.63l-12.543-6.707v11.624z" fill="#fff"/><path d="M29.855 146.604l-17.035-9.109v-16.604L29.855 130v16.604z" fill="#565656"/><path d="M29.148 145.397l-17.614-9.415v-17.215l17.614 9.421v17.209zm-17.04-9.743l16.467 8.808v-15.974l-16.467-8.803v15.969z" fill="#fff"/><path d="M27.896 143.375l-13.117-7.019v-12.23l13.117 7.013v12.236z" fill="#F7971D"/><path d="M27.184 142.14l-13.69-7.319v-12.842l13.69 7.319v12.842zm-13.117-7.619l12.549 6.707v-11.624l-12.549-6.713v11.63z" fill="#fff"/><path d="M29.855 175.5l-17.035-9.109v-16.604l17.035 9.115V175.5z" fill="#565656"/><path d="M29.148 174.293l-17.614-9.415v-17.209l17.614 9.414v17.21zm-17.04-9.715l16.467 8.803v-15.997l-16.467-8.803v15.997z" fill="#fff"/><path d="M27.896 172.271l-13.117-7.019v-12.23l13.117 7.013v12.236z" fill="#F7971D"/><path d="M27.184 171.041l-13.69-7.324v-12.842l13.69 7.325v12.841zm-13.117-7.63l12.549 6.707V158.5l-12.549-6.713v11.624z" fill="#fff"/><path d="M52.557 159.315l-17.04-9.109v-16.603l17.04 9.109v16.603z" fill="#565656"/><path d="M51.845 158.109l-17.609-9.426v-17.204l17.61 9.42v17.21zm-17.013-9.721l16.445 8.792V141.2l-16.445-8.809v15.997z" fill="#fff"/><path d="M50.598 156.081l-13.117-7.013v-12.236l13.117 7.019v12.23z" fill="#F7971D"/><path d="M49.886 154.852l-13.69-7.302v-12.859l13.69 7.319v12.842zm-13.117-7.625l12.543 6.713v-11.63l-12.543-6.707v11.624z" fill="#fff"/><path d="M70.734 179.556a.601.601 0 01-.31-.085.819.819 0 01-.352-.743v-1.098c.002-.26.066-.515.185-.744a1.6 1.6 0 01.499-.571l2.533-1.501a.663.663 0 01.69-.028c.118.079.215.19.278.321.063.13.09.276.08.421v1.099a1.64 1.64 0 01-.187.744 1.59 1.59 0 01-.502.57l-2.533 1.501a.769.769 0 01-.381.114zm2.864-4.153l-2.483 1.547a.918.918 0 00-.331.68v1.076a.265.265 0 000 .124l2.483-1.546a.903.903 0 00.33-.68v-1.099a.244.244 0 000-.102zm-4.641 8.871a.58.58 0 01-.309-.079.82.82 0 01-.353-.742v-1.099c.002-.26.066-.515.185-.744.119-.228.29-.424.5-.57l2.537-1.502a.662.662 0 01.69-.028.82.82 0 01.353.742v1.094c-.002.26-.066.517-.186.747-.12.229-.293.426-.503.572l-2.533 1.502a.733.733 0 01-.381.107zm2.87-4.152l-2.49 1.552a.923.923 0 00-.33.68v1.099a.288.288 0 000 .124l2.488-1.552a.913.913 0 00.326-.679v-1.094a.354.354 0 00-.017-.13h.022zm23.507-18.121a.683.683 0 01-.309-.08.85.85 0 01-.353-.742v-1.099c.002-.261.067-.517.187-.747.12-.23.293-.426.503-.573l2.533-1.495a.65.65 0 01.69 0 .801.801 0 01.274.318c.063.13.09.274.079.418v1.099a1.642 1.642 0 01-.185.746 1.6 1.6 0 01-.5.574l-2.527 1.501a.772.772 0 01-.392.08zm2.87-4.153L95.72 159.4a.917.917 0 00-.331.68v1.099a.341.341 0 000 .125l2.489-1.547a.936.936 0 00.331-.685v-1.099a.291.291 0 00-.005-.125zm-4.641 8.877a.592.592 0 01-.31-.085.81.81 0 01-.358-.737v-1.099a1.65 1.65 0 01.187-.747c.12-.229.293-.426.503-.572l2.533-1.502a.668.668 0 01.69 0 .822.822 0 01.353.737v1.099a1.633 1.633 0 01-.184.744 1.59 1.59 0 01-.5.57l-2.533 1.501a.768.768 0 01-.381.091zm2.864-4.152l-2.483 1.546a.917.917 0 00-.331.685v1.099a.293.293 0 000 .125l2.483-1.546a.93.93 0 00.33-.686v-1.099a.288.288 0 000-.124zm-9.061 4.554a.624.624 0 01-.31-.085.813.813 0 01-.352-.736v-1.099c.002-.261.066-.517.186-.747.12-.23.293-.427.503-.573l2.533-1.501a.673.673 0 01.69-.029.819.819 0 01.274.322c.062.131.09.276.08.42v1.099c-.003.26-.067.516-.188.745-.12.229-.292.424-.502.57l-2.533 1.501a.698.698 0 01-.381.113zm2.87-4.152l-2.49 1.569a.918.918 0 00-.325.685v1.099a.341.341 0 000 .125l2.489-1.552a.923.923 0 00.33-.68v-1.099a.29.29 0 00-.005-.147z" fill="#F7971D"/><path d="M36.427 183.113v-19.702c0-2.56 3.256-4.39 5.85-2.929 1.735.949 3.19 2.36 4.21 4.086a11.453 11.453 0 011.589 5.72v19.356l-11.649-6.531z" fill="#fff"/><path d="M36.962 183.374l.188-19.583c.011-.42.103-.833.27-1.216a3.2 3.2 0 01.704-1.016 3.11 3.11 0 011.03-.661 3.03 3.03 0 011.197-.206c.552 0 1.095.145 1.578.419a10.406 10.406 0 013.944 3.833 10.76 10.76 0 011.491 5.361v18.937l-10.402-5.868zM101.928 68.38l-5.48 2.957V52.683l5.48-2.952V68.38z" fill="#565656"/><path d="M91.229 54.682v17.096L65.955 85.94V69.275L91.23 54.682zm.623-1.093L65.337 68.884v18.082l26.515-14.83V53.588z" fill="#F7971D"/><path d="M88.635 59.452v10.525L69.106 81.052V70.855l19.529-11.403zm.624-1.093l-20.766 12.11v11.664l20.771-11.776V58.358h-.005zm11.053-8.883v17.527l-4.879 2.832V52.178l4.879-2.702zm.623-1.059l-6.125 3.399v19.118l6.125-3.546v-18.97z" fill="#F7971D"/><path d="M101.928 93.14l-5.48 2.951V77.439l5.48-2.952V93.14z" fill="#565656"/><path d="M91.229 79.437v17.13L65.955 110.73V94.035L91.23 79.437zm.623-1.093L65.337 93.638v18.082l26.515-14.83V78.344z" fill="#F7971D"/><path d="M88.635 84.207v10.53l-19.529 11.069V95.61l19.529-11.392v-.011zm.624-1.082L68.493 95.23v11.658l20.771-11.777V83.114l-.005.01zm11.053-8.894v17.527l-4.879 2.832V76.933l4.879-2.702zm.623-1.065l-6.125 3.4v19.117l6.125-3.54V73.166z" fill="#F7971D"/><path d="M101.928 117.464l-5.48 2.952v-18.654l5.48-2.952v18.654z" fill="#565656"/><path d="M91.229 103.761v17.102l-25.274 14.162v-16.666l25.274-14.598zm.623-1.093l-26.515 15.295v18.082l26.515-14.831v-18.546z" fill="#F7971D"/><path d="M88.635 108.531v10.531l-19.529 11.069v-10.197l19.529-11.392v-.011zm.624-1.082l-20.766 12.106v11.658l20.771-11.777v-11.998l-.005.011zm11.053-8.893v17.526l-4.879 2.833v-17.657l4.879-2.702zm.623-1.065l-6.125 3.398v19.119l6.125-3.541V97.491z" fill="#F7971D"/><path d="M101.928 142.01l-5.48 2.957v-18.654l5.48-2.952v18.649z" fill="#565656"/><path d="M91.229 128.29v17.096l-25.274 14.162v-16.643L91.23 128.29zm.623-1.094l-26.515 15.295v18.082l26.515-14.83v-18.547z" fill="#F7971D"/><path d="M88.635 133.082v10.502l-19.529 11.075v-10.197l19.529-11.391v.011zm.624-1.105l-20.766 12.129v11.658l20.771-11.777v-11.998l-.005-.012zm11.053-8.871v17.527l-4.879 2.832v-17.656l4.879-2.703zm.623-1.064l-6.125 3.398v19.107l6.125-3.546v-18.959z" fill="#F7971D"/><path d="M5.652 32.607l54.377 29.972 45.315-25.554-54.327-29.96L5.652 32.606z" fill="#fff"/><path d="M8.488 35.003l41.702-23.26 50.066 28.358-41.331 23.333L8.488 35.003z" fill="#F7971D"/><path d="M9.035 37.512L50.74 14.253l50.067 28.363-41.33 23.334L9.035 37.512z" fill="#565656"/><path d="M59.604 63.089l-.094-.051L8.897 34.38l.198-.114L54.257 9.07l.088.05 51.391 27.9-.304.17-45.828 25.899zM9.554 34.436l50.05 28.217 45.343-25.622-50.69-27.525-44.704 24.93z" fill="#fff"/><path d="M59.786 196.788l-.27-.153-54.134-31.723.27-132.305.43-.244L59.786 62.76v134.028zm-54.03-32.085l53.66 31.439V62.987L6.071 32.794l-.314 131.909z" fill="#fff"/><path d="M59.416 196.72V62.76l.094-.057 46.016-26v.322l.039 133.75-.094.051-46.055 25.894zm.37-133.733v133.087l45.409-25.492-.038-133.211-45.371 25.616zm-38.6 119.758c.402 0 .728-.193.728-.431s-.326-.43-.728-.43c-.402 0-.729.192-.729.43s.326.431.729.431zm3.2-2.34c.063.02.119.06.158.115a.32.32 0 01-.158.491 1.074 1.074 0 01-1.026 0 .318.318 0 01-.206-.303.318.318 0 01.206-.303 1.085 1.085 0 011.026 0zm-5.264 2.94a.318.318 0 01.155.118.33.33 0 010 .376.318.318 0 01-.155.118 1.133 1.133 0 01-1.026 0 .325.325 0 01-.155-.494.317.317 0 01.155-.118 1.133 1.133 0 011.026 0zm-3.206-.595c.402 0 .728-.192.728-.43s-.326-.431-.728-.431c-.402 0-.729.193-.729.431s.327.43.729.43zm3.2-2.345a.318.318 0 01.155.118.33.33 0 010 .376.318.318 0 01-.155.118 1.133 1.133 0 01-1.026 0 .328.328 0 010-.612 1.084 1.084 0 011.026 0zm2.688-1.575c.287.17.287.442 0 .606a1.073 1.073 0 01-1.027 0 .312.312 0 01-.15-.118.327.327 0 01.15-.488 1.085 1.085 0 011.027 0zm-8.062 1.575a.317.317 0 01.154.118.33.33 0 010 .376.317.317 0 01-.154.118 1.145 1.145 0 01-1.032 0 .325.325 0 01-.155-.494.317.317 0 01.155-.118 1.12 1.12 0 011.032 0zm2.687-1.575a.326.326 0 010 .606 1.073 1.073 0 01-1.026 0c-.287-.164-.287-.436 0-.606a1.085 1.085 0 011.026 0zm2.687-1.591a.31.31 0 01.218.303.325.325 0 01-.06.188.307.307 0 01-.158.115 1.085 1.085 0 01-1.026 0 .307.307 0 01-.157-.115.325.325 0 010-.377.311.311 0 01.157-.114 1.073 1.073 0 011.026 0zm-8.062 1.591a.326.326 0 010 .607 1.12 1.12 0 01-1.032 0 .327.327 0 010-.607 1.12 1.12 0 011.032 0zm2.688-1.591a.32.32 0 01.15.118.329.329 0 01-.15.488 1.12 1.12 0 01-1.032 0 .326.326 0 010-.606 1.109 1.109 0 011.032 0zm2.688-1.598a.327.327 0 010 .612 1.085 1.085 0 01-1.027 0 .328.328 0 010-.612 1.133 1.133 0 011.026 0zm-8.604 2.311c.402 0 .729-.192.729-.43s-.327-.431-.729-.431c-.402 0-.728.193-.728.431s.326.43.728.43zm3.201-2.328a.327.327 0 010 .612 1.085 1.085 0 01-1.027 0 .327.327 0 010-.612 1.133 1.133 0 011.027 0zm2.693-1.592a.317.317 0 01.154.118.33.33 0 010 .377.315.315 0 01-.154.117 1.145 1.145 0 01-1.032 0 .316.316 0 01-.155-.117.33.33 0 010-.377.317.317 0 01.155-.118 1.12 1.12 0 011.032 0zm-8.581 2.329c.402 0 .728-.193.728-.431s-.326-.43-.728-.43c-.403 0-.729.192-.729.43s.326.431.729.431zm3.206-2.329a.317.317 0 01.155.118.33.33 0 010 .377.316.316 0 01-.155.117 1.133 1.133 0 01-1.027 0 .315.315 0 01-.154-.117.33.33 0 010-.377.317.317 0 01.154-.118 1.085 1.085 0 011.027 0zm2.169-.855c.402 0 .728-.193.728-.43 0-.238-.326-.431-.728-.431-.403 0-.729.193-.729.431 0 .237.326.43.729.43zm-7.549.855a.317.317 0 01.154.118.33.33 0 010 .377.315.315 0 01-.154.117 1.133 1.133 0 01-1.027 0 .316.316 0 01-.155-.117.33.33 0 010-.377.317.317 0 01.155-.118 1.085 1.085 0 011.027 0zm2.687-1.591c.287.17.287.441 0 .606a1.085 1.085 0 01-1.026 0c-.287-.165-.287-.436 0-.606a1.073 1.073 0 011.026 0zm2.693-1.592a.32.32 0 010 .606 1.085 1.085 0 01-1.027 0 .32.32 0 010-.606 1.073 1.073 0 011.027 0zm-5.38 0a.318.318 0 01.206.303.318.318 0 01-.206.303 1.085 1.085 0 01-1.027 0 .32.32 0 010-.606 1.073 1.073 0 011.027 0zm2.174-.861c.402 0 .728-.193.728-.431 0-.237-.326-.43-.728-.43-.403 0-.729.193-.729.43 0 .238.326.431.729.431zm59.723 37.291a.31.31 0 01.155.117.33.33 0 010 .377.31.31 0 01-.154.117 1.134 1.134 0 01-1.027 0 .31.31 0 01-.155-.117.33.33 0 010-.377.31.31 0 01.155-.117 1.073 1.073 0 011.026 0zm2.688-1.592c.287.17.287.442 0 .606a1.085 1.085 0 01-1.026 0 .317.317 0 01-.15-.118.33.33 0 010-.37.317.317 0 01.15-.118 1.085 1.085 0 011.026 0zm2.693-1.592a.318.318 0 01.206.303.318.318 0 01-.206.303 1.108 1.108 0 01-1.032 0 .317.317 0 01-.15-.118.329.329 0 01.15-.488 1.12 1.12 0 011.032 0zm2.665-1.597a.315.315 0 01.155.117.33.33 0 010 .377.317.317 0 01-.155.118 1.12 1.12 0 01-1.032 0 .318.318 0 01-.155-.118.33.33 0 010-.377.316.316 0 01.155-.117 1.144 1.144 0 011.032 0zm2.196-.856c.403 0 .729-.192.729-.43s-.326-.431-.729-.431c-.402 0-.728.193-.728.431s.326.43.728.43zm3.201-2.328a.32.32 0 01.157.491.307.307 0 01-.157.115 1.085 1.085 0 01-1.027 0 .32.32 0 01-.157-.491.307.307 0 01.157-.115 1.085 1.085 0 011.027 0zm2.687-1.592c.287.164.287.436 0 .606a1.073 1.073 0 01-1.026 0 .317.317 0 01-.15-.118.329.329 0 01.15-.488 1.085 1.085 0 011.026 0zm2.688-1.597a.315.315 0 01.154.117.33.33 0 010 .377.317.317 0 01-.154.118 1.085 1.085 0 01-1.027 0 .317.317 0 01-.154-.118.33.33 0 010-.377.315.315 0 01.154-.117 1.133 1.133 0 011.027 0zm2.18-.856c.402 0 .728-.192.728-.43s-.326-.431-.729-.431c-.402 0-.728.193-.728.431s.326.43.728.43zm2.687-1.597c.402 0 .728-.193.728-.431 0-.237-.326-.43-.728-.43-.403 0-.729.193-.729.43 0 .238.326.431.729.431zm2.687-1.592c.402 0 .729-.192.729-.43s-.327-.431-.729-.431c-.402 0-.728.193-.728.431s.326.43.728.43zm3.196-2.328a.327.327 0 010 .612 1.133 1.133 0 01-1.027 0 .318.318 0 01-.155-.118.33.33 0 010-.376.318.318 0 01.155-.118 1.085 1.085 0 011.026 0zm2.179-.855c.402 0 .728-.193.728-.431s-.326-.431-.728-.431c-.402 0-.728.193-.728.431s.326.431.728.431zm3.201-2.329c.286.165.286.437 0 .606a1.073 1.073 0 01-1.027 0 .312.312 0 01-.15-.118.33.33 0 010-.369.314.314 0 01.15-.119 1.085 1.085 0 011.026 0zm-40.322 20.711a.31.31 0 01.155.117.33.33 0 010 .377.31.31 0 01-.155.117 1.134 1.134 0 01-1.027 0 .31.31 0 01-.154-.117.33.33 0 010-.377.31.31 0 01.154-.117 1.073 1.073 0 011.027 0zm2.687-1.592c.287.17.287.442 0 .606a1.085 1.085 0 01-1.026 0c-.287-.164-.287-.436 0-.606a1.085 1.085 0 011.026 0zm2.687-1.592c.288.164.288.436 0 .606a1.085 1.085 0 01-1.026 0 .318.318 0 01-.206-.303c0-.066.02-.13.057-.185a.318.318 0 01.15-.118 1.085 1.085 0 011.025 0zm2.688-1.597a.31.31 0 01.155.117.33.33 0 010 .377.31.31 0 01-.155.117 1.073 1.073 0 01-1.026 0 .31.31 0 01-.155-.117.33.33 0 010-.377.31.31 0 01.154-.117 1.133 1.133 0 011.027 0zm2.693-1.592a.325.325 0 01.155.494.317.317 0 01-.155.118 1.144 1.144 0 01-1.032 0 .317.317 0 01-.155-.118.33.33 0 010-.376.317.317 0 01.155-.118 1.108 1.108 0 011.032 0zm2.665-1.592c.06.023.113.064.15.118a.331.331 0 010 .37.317.317 0 01-.15.118 1.108 1.108 0 01-1.032 0 .317.317 0 01-.15-.118.329.329 0 01.15-.488 1.107 1.107 0 011.032 0zm2.196-.861c.403 0 .729-.193.729-.431 0-.237-.326-.43-.729-.43-.402 0-.728.193-.728.43 0 .238.326.431.728.431zm3.201-2.328a.316.316 0 01.155.117.33.33 0 010 .377.317.317 0 01-.155.118 1.085 1.085 0 01-1.027 0 .317.317 0 01-.154-.118.33.33 0 010-.377.315.315 0 01.154-.117 1.133 1.133 0 011.027 0zm2.175-.856c.401 0 .727-.192.727-.43s-.326-.431-.728-.431c-.402 0-.728.193-.728.431s.326.43.728.43zm2.686-1.597c.403 0 .729-.193.729-.431 0-.237-.326-.43-.728-.43-.403 0-.729.193-.729.43 0 .238.326.431.728.431zm2.694-1.592c.402 0 .728-.192.728-.43s-.326-.431-.729-.431c-.402 0-.728.193-.728.431s.326.43.728.43zm3.2-2.328a.318.318 0 01.155.118.328.328 0 01-.155.494 1.145 1.145 0 01-1.032 0 .318.318 0 01-.155-.118.33.33 0 010-.376.318.318 0 01.155-.118 1.084 1.084 0 011.032 0zm2.687-1.592a.326.326 0 010 .606 1.073 1.073 0 01-1.026 0c-.287-.164-.287-.436 0-.606a1.085 1.085 0 011.026 0zm2.683-1.592a.313.313 0 01.217.303.311.311 0 01-.218.303 1.073 1.073 0 01-1.026 0 .31.31 0 01-.218-.303.313.313 0 01.218-.303 1.085 1.085 0 011.026 0zm2.692-1.597a.325.325 0 01.155.494.317.317 0 01-.155.118 1.085 1.085 0 01-1.026 0 .318.318 0 01-.155-.118.33.33 0 010-.376.312.312 0 01.155-.118 1.133 1.133 0 011.026 0zM56.8 205.687c.06.023.113.064.15.118a.33.33 0 010 .37.317.317 0 01-.15.118 1.085 1.085 0 01-1.026 0c-.287-.164-.287-.436 0-.606a1.085 1.085 0 011.026 0zm2.688-1.592a.318.318 0 01.206.303.318.318 0 01-.206.303 1.085 1.085 0 01-1.027 0c-.287-.17-.287-.442 0-.606a1.085 1.085 0 011.027 0zm2.687-1.597a.31.31 0 01.155.117.33.33 0 010 .377.31.31 0 01-.155.117 1.073 1.073 0 01-1.026 0 .31.31 0 01-.155-.117.33.33 0 010-.377.31.31 0 01.155-.117 1.133 1.133 0 011.026 0zm2.687-1.592a.325.325 0 01.155.494.317.317 0 01-.154.118 1.133 1.133 0 01-1.027 0 .318.318 0 01-.155-.118.33.33 0 010-.376.318.318 0 01.155-.118 1.085 1.085 0 011.026 0zm2.688-1.592a.32.32 0 01.157.491.307.307 0 01-.157.115 1.085 1.085 0 01-1.026 0 .317.317 0 01-.15-.118.33.33 0 010-.37.317.317 0 01.15-.118 1.085 1.085 0 011.026 0zm2.693-1.592a.326.326 0 010 .606 1.109 1.109 0 01-1.032 0 .311.311 0 01-.15-.118.329.329 0 01.15-.488 1.12 1.12 0 011.032 0zm2.665-1.597a.325.325 0 01.155.494.317.317 0 01-.155.118 1.12 1.12 0 01-1.032 0 .318.318 0 01-.155-.118.33.33 0 010-.376.312.312 0 01.155-.118 1.133 1.133 0 011.032 0zm2.71-1.592a.327.327 0 010 .612 1.133 1.133 0 01-1.027 0 .328.328 0 010-.612 1.085 1.085 0 011.027 0zm2.687-1.592c.063.02.118.06.157.115a.325.325 0 010 .377.31.31 0 01-.157.114 1.073 1.073 0 01-1.027 0 .31.31 0 01-.217-.303c0-.067.02-.133.06-.188a.307.307 0 01.157-.115 1.085 1.085 0 011.027 0zm2.687-1.597a.316.316 0 01.155.117.33.33 0 010 .377.31.31 0 01-.155.117 1.073 1.073 0 01-1.026 0 .31.31 0 01-.155-.117.33.33 0 010-.377.315.315 0 01.155-.117 1.133 1.133 0 011.026 0zm2.688-1.592a.327.327 0 010 .612 1.133 1.133 0 01-1.027 0 .317.317 0 01-.154-.118.33.33 0 010-.376.317.317 0 01.154-.118 1.085 1.085 0 011.027 0zm2.18-.855c.402 0 .728-.193.728-.431s-.326-.431-.729-.431c-.402 0-.728.193-.728.431s.326.431.728.431zm2.687-1.598c.402 0 .728-.193.728-.43 0-.238-.326-.431-.728-.431-.403 0-.729.193-.729.431 0 .237.326.43.729.43zm2.687-1.592c.402 0 .729-.192.729-.43s-.327-.431-.729-.431c-.402 0-.728.193-.728.431s.326.43.728.43zm2.687-1.591c.403 0 .729-.193.729-.431s-.326-.43-.729-.43c-.402 0-.728.192-.728.43s.326.431.728.431zm-39.808 19.979a.318.318 0 01.206.303.318.318 0 01-.206.303 1.108 1.108 0 01-1.032 0 .318.318 0 01-.206-.303c0-.066.02-.13.057-.185a.318.318 0 01.15-.118 1.12 1.12 0 011.031 0zm2.687-1.597a.31.31 0 01.155.117.33.33 0 010 .377.31.31 0 01-.155.117 1.073 1.073 0 01-1.026 0 .317.317 0 01-.15-.124.332.332 0 01.017-.377.312.312 0 01.16-.11 1.126 1.126 0 011 0zm2.688-1.592a.325.325 0 01.155.494.317.317 0 01-.155.118 1.133 1.133 0 01-1.027 0 .318.318 0 01-.154-.118.33.33 0 010-.376.318.318 0 01.154-.118 1.085 1.085 0 011.027 0zm2.687-1.592c.063.02.118.06.158.115a.32.32 0 01-.158.491 1.085 1.085 0 01-1.026 0 .32.32 0 010-.606 1.085 1.085 0 011.026 0zm2.687-1.592c.288.164.288.436 0 .606a1.073 1.073 0 01-1.026 0 .318.318 0 01-.206-.303c0-.066.02-.13.057-.185a.318.318 0 01.15-.118 1.085 1.085 0 011.025 0zm2.688-1.597a.315.315 0 01.155.117.33.33 0 010 .377.317.317 0 01-.155.118 1.085 1.085 0 01-1.026 0 .317.317 0 01-.155-.118.33.33 0 010-.377.316.316 0 01.154-.117 1.133 1.133 0 011.027 0zm2.693-1.592a.328.328 0 010 .612 1.144 1.144 0 01-1.032 0 .317.317 0 01-.155-.118.33.33 0 010-.376.317.317 0 01.155-.118 1.108 1.108 0 011.032 0zm2.174-.861c.402 0 .728-.193.728-.431 0-.237-.326-.43-.728-.43-.402 0-.728.193-.728.43 0 .238.326.431.728.431zm3.201-2.328a.316.316 0 01.154.117.33.33 0 010 .377.31.31 0 01-.154.117 1.073 1.073 0 01-1.027 0 .31.31 0 01-.155-.117.33.33 0 010-.377.316.316 0 01.155-.117 1.133 1.133 0 011.027 0zm2.687-1.592a.328.328 0 010 .612 1.133 1.133 0 01-1.026 0 .317.317 0 01-.155-.118.33.33 0 010-.376.317.317 0 01.154-.118 1.085 1.085 0 011.027 0zm2.687-1.592c.287.17.287.442 0 .606a1.073 1.073 0 01-1.026 0 .311.311 0 01-.15-.118.329.329 0 01.15-.488 1.085 1.085 0 011.026 0zm2.688-1.592c.063.02.118.061.157.115a.325.325 0 010 .377.31.31 0 01-.157.114 1.073 1.073 0 01-1.027 0 .311.311 0 01-.15-.118.329.329 0 01.15-.488 1.085 1.085 0 011.027 0zm2.693-1.597a.325.325 0 01.155.494.317.317 0 01-.155.118 1.12 1.12 0 01-1.032 0 .317.317 0 01-.155-.118.33.33 0 010-.376.317.317 0 01.155-.118 1.144 1.144 0 011.032 0zm2.174-.855c.402 0 .728-.193.728-.431s-.326-.43-.728-.43c-.403 0-.729.192-.729.43s.326.431.729.431zm2.687-1.592c.402 0 .729-.193.729-.431s-.327-.43-.729-.43c-.402 0-.728.192-.728.43s.326.431.728.431zm-39.847 19.974a.31.31 0 01.155.117.33.33 0 010 .377.31.31 0 01-.155.117 1.073 1.073 0 01-1.026 0 .31.31 0 01-.155-.117.33.33 0 010-.377.31.31 0 01.155-.117 1.133 1.133 0 011.026 0zm2.185-.873c.402 0 .729-.192.729-.43s-.327-.431-.729-.431c-.402 0-.728.193-.728.431s.326.43.728.43zm3.206-2.328a.318.318 0 01.206.303.318.318 0 01-.206.303 1.107 1.107 0 01-1.032 0 .317.317 0 01-.149-.118.33.33 0 010-.37.317.317 0 01.15-.118 1.12 1.12 0 011.031 0zm-8.068 1.592a.325.325 0 01.155.494.317.317 0 01-.154.118 1.133 1.133 0 01-1.027 0 .318.318 0 01-.155-.118.33.33 0 010-.376.312.312 0 01.155-.118 1.085 1.085 0 011.027 0zm2.175-.855c.402 0 .728-.193.728-.431s-.326-.431-.728-.431c-.402 0-.729.193-.729.431s.327.431.729.431zm2.687-1.598c.402 0 .729-.193.729-.43 0-.238-.327-.431-.729-.431-.402 0-.728.193-.728.431 0 .237.326.43.728.43zm-7.549.861c.06.023.113.064.15.118a.332.332 0 010 .37.317.317 0 01-.15.118 1.085 1.085 0 01-1.026 0c-.287-.164-.287-.436 0-.606a1.085 1.085 0 011.026 0zm2.687-1.592c.288.165.288.436 0 .606a1.073 1.073 0 01-1.026 0c-.287-.17-.287-.441 0-.606a1.085 1.085 0 011.027 0zm2.677-1.597a.316.316 0 01.155.117.33.33 0 010 .377.317.317 0 01-.155.118 1.085 1.085 0 01-1.026 0 .317.317 0 01-.155-.118.33.33 0 010-.377.315.315 0 01.155-.117 1.133 1.133 0 011.026 0zm-8.051 1.597a.326.326 0 010 .606 1.109 1.109 0 01-1.032 0 .326.326 0 010-.606 1.12 1.12 0 011.032 0zm2.687-1.597a.315.315 0 01.155.117.33.33 0 010 .377.317.317 0 01-.155.118 1.085 1.085 0 01-1.026 0 .317.317 0 01-.155-.118.33.33 0 010-.377.315.315 0 01.155-.117 1.133 1.133 0 011.026 0zm2.687-1.592a.328.328 0 010 .612 1.133 1.133 0 01-1.026 0 .327.327 0 010-.612 1.085 1.085 0 011.027 0zm-8.061 1.592a.325.325 0 01.155.494.317.317 0 01-.155.118 1.12 1.12 0 01-1.032 0 .317.317 0 01-.155-.118.33.33 0 010-.376.317.317 0 01.155-.118 1.144 1.144 0 011.032 0zm2.687-1.592a.327.327 0 010 .612 1.145 1.145 0 01-1.032 0 .327.327 0 010-.612 1.12 1.12 0 011.032 0zm2.687-1.592c.06.023.113.064.15.118a.331.331 0 010 .37.317.317 0 01-.15.118 1.073 1.073 0 01-1.026 0 .31.31 0 01-.218-.303c0-.067.021-.133.06-.188a.307.307 0 01.158-.115 1.085 1.085 0 011.026 0zm-8.067 1.592a.328.328 0 010 .612 1.133 1.133 0 01-1.027 0 .327.327 0 010-.612 1.085 1.085 0 011.027 0zm2.693-1.592a.326.326 0 010 .606 1.109 1.109 0 01-1.032 0 .312.312 0 01-.15-.118.33.33 0 010-.369.314.314 0 01.15-.119 1.12 1.12 0 011.032 0zm2.174-.861c.402 0 .728-.192.728-.43s-.326-.431-.728-.431c-.403 0-.729.193-.729.431s.326.43.729.43zm-7.555.861c.063.02.118.06.158.115a.325.325 0 010 .377.31.31 0 01-.158.114 1.073 1.073 0 01-1.026 0 .317.317 0 01-.15-.118.329.329 0 01.15-.488 1.085 1.085 0 011.026 0zm2.688-1.597a.316.316 0 01.154.117.33.33 0 010 .377.317.317 0 01-.154.118 1.085 1.085 0 01-1.027 0 .317.317 0 01-.155-.118.33.33 0 010-.377.315.315 0 01.155-.117 1.133 1.133 0 011.027 0zm2.174-.856c.402 0 .728-.192.728-.43s-.326-.431-.728-.431c-.403 0-.729.193-.729.431s.326.43.729.43zm-8.062 1.592c.402 0 .728-.192.728-.43s-.326-.431-.728-.431c-.403 0-.729.193-.729.431s.326.43.729.43zm3.2-2.328a.325.325 0 01.155.494.318.318 0 01-.155.118 1.085 1.085 0 01-1.026 0 .317.317 0 01-.155-.118.33.33 0 010-.376.317.317 0 01.155-.118 1.133 1.133 0 011.026 0zm2.688-1.592a.317.317 0 01.154.118.33.33 0 010 .376.317.317 0 01-.154.118 1.133 1.133 0 01-1.027 0 .325.325 0 01-.155-.494.317.317 0 01.155-.118 1.085 1.085 0 011.027 0zm-8.09 1.575a.325.325 0 01.155.494.317.317 0 01-.155.118 1.12 1.12 0 01-1.032 0 .317.317 0 01-.155-.118.33.33 0 010-.376.317.317 0 01.155-.118 1.144 1.144 0 011.032 0zm2.693-1.592a.317.317 0 01.155.118.33.33 0 010 .376.317.317 0 01-.155.118 1.133 1.133 0 01-1.027 0 .325.325 0 01-.155-.494.318.318 0 01.155-.118 1.085 1.085 0 011.027 0zm2.687-1.592a.319.319 0 01.158.492.313.313 0 01-.158.115 1.085 1.085 0 01-1.026 0 .313.313 0 01-.158-.115.325.325 0 010-.377.319.319 0 01.158-.115 1.084 1.084 0 011.026 0zm-8.062 1.592a.317.317 0 01.155.118.33.33 0 010 .376.317.317 0 01-.155.118 1.144 1.144 0 01-1.032 0 .325.325 0 01-.155-.494.317.317 0 01.155-.118 1.12 1.12 0 011.032 0zm2.682-1.592a.326.326 0 010 .607 1.12 1.12 0 01-1.032 0 .326.326 0 01-.15-.488.32.32 0 01.15-.119 1.12 1.12 0 011.032 0zm2.18-.861c.402 0 .728-.192.728-.43s-.326-.431-.728-.431c-.403 0-.729.193-.729.431s.326.43.729.43zm-7.555.861a.319.319 0 01.158.492.313.313 0 01-.158.115 1.085 1.085 0 01-1.026 0 .326.326 0 010-.607 1.084 1.084 0 011.026 0zm2.693-1.597a.325.325 0 01.155.494.317.317 0 01-.155.118 1.12 1.12 0 01-1.032 0 .317.317 0 01-.155-.118.33.33 0 010-.376.317.317 0 01.155-.118 1.145 1.145 0 011.032 0zm2.682-1.592a.317.317 0 01.155.118.33.33 0 010 .376.317.317 0 01-.155.118 1.145 1.145 0 01-1.032 0 .328.328 0 010-.612 1.144 1.144 0 011.032 0zm-8.062 1.592a.325.325 0 01.155.494.317.317 0 01-.155.118 1.085 1.085 0 01-1.027 0 .317.317 0 01-.155-.118.33.33 0 010-.376.317.317 0 01.155-.118 1.133 1.133 0 011.027 0zm2.687-1.592a.318.318 0 01.155.118.33.33 0 010 .376.318.318 0 01-.155.118 1.133 1.133 0 01-1.026 0 .325.325 0 01-.155-.494.317.317 0 01.155-.118 1.133 1.133 0 011.026 0zm2.693-1.592a.317.317 0 01.155.118.33.33 0 010 .377.316.316 0 01-.155.117 1.144 1.144 0 01-1.032 0 .315.315 0 01-.155-.117.33.33 0 010-.377.317.317 0 01.155-.118 1.12 1.12 0 011.032 0zm74.309 3.235a1.083 1.083 0 011.026 0c.281.17.287.442 0 .606a1.12 1.12 0 01-1.026 0 .317.317 0 01-.15-.118.328.328 0 010-.37.317.317 0 01.15-.118zm3.719-1.598a.322.322 0 01.214.306.333.333 0 01-.059.189.314.314 0 01-.155.117 1.11 1.11 0 01-1.032 0 .31.31 0 01-.155-.117.333.333 0 010-.377.318.318 0 01.155-.118 1.143 1.143 0 011.032 0zm2.687-1.591a.31.31 0 01.155.117.332.332 0 010 .377.31.31 0 01-.155.117 1.13 1.13 0 01-1.026 0 .306.306 0 01-.155-.117.333.333 0 010-.377.306.306 0 01.155-.117 1.13 1.13 0 011.026 0zm-9.099 1.597a1.12 1.12 0 011.032 0 .32.32 0 01.157.491.307.307 0 01-.157.115 1.073 1.073 0 01-1.027 0 .308.308 0 01-.158-.113.323.323 0 01-.004-.377.317.317 0 01.157-.116zm3.206-.861c.402 0 .728-.193.728-.43 0-.238-.326-.431-.728-.431-.403 0-.729.193-.729.431 0 .237.326.43.729.43zm3.206-2.328a.322.322 0 01.214.306.322.322 0 01-.214.306 1.146 1.146 0 01-1.032 0 .318.318 0 01-.155-.118.332.332 0 010-.376.318.318 0 01.155-.118 1.106 1.106 0 011.032 0zm2.687-1.592a.317.317 0 01.206.303.317.317 0 01-.206.303 1.071 1.071 0 01-1.026 0 .312.312 0 01-.218-.303.312.312 0 01.218-.303 1.083 1.083 0 011.026 0zm2.688-1.609a.325.325 0 01.154.494.315.315 0 01-.154.118 1.09 1.09 0 01-1.027 0 .322.322 0 01-.214-.306.322.322 0 01.214-.306 1.134 1.134 0 011.027 0zm-14.475 4.798a1.132 1.132 0 011.032 0 .318.318 0 01.155.118.33.33 0 010 .376.318.318 0 01-.155.118 1.085 1.085 0 01-1.026 0 .309.309 0 01-.165-.112.322.322 0 01.16-.5zm3.72-1.597a.322.322 0 01.213.306.327.327 0 01-.213.306 1.133 1.133 0 01-1.027 0 .318.318 0 01-.155-.118.33.33 0 010-.376.318.318 0 01.155-.118 1.085 1.085 0 011.026 0zm2.692-1.592a.317.317 0 01.206.303.317.317 0 01-.206.303 1.103 1.103 0 01-1.031 0 .317.317 0 01-.15-.118.328.328 0 010-.37.317.317 0 01.15-.118 1.115 1.115 0 011.031 0zm2.688-1.609a.322.322 0 01.214.306.32.32 0 01-.214.306 1.11 1.11 0 01-1.032 0 .316.316 0 01-.155-.117.333.333 0 010-.377.318.318 0 01.155-.118 1.143 1.143 0 011.032 0zm2.687-1.58a.316.316 0 01.155.117.333.333 0 010 .377.318.318 0 01-.155.118 1.13 1.13 0 01-1.026 0 .313.313 0 01-.155-.118.332.332 0 010-.377.311.311 0 01.155-.117 1.071 1.071 0 011.026 0zm-14.474 4.781a1.12 1.12 0 011.026 0 .325.325 0 01.155.494.318.318 0 01-.155.118 1.132 1.132 0 01-1.032 0 .316.316 0 01-.153-.119.332.332 0 01.003-.377.318.318 0 01.156-.116zm3.719-1.592a.32.32 0 01.157.491.307.307 0 01-.157.115 1.073 1.073 0 01-1.026 0 .32.32 0 01-.157-.491.307.307 0 01.157-.115 1.085 1.085 0 011.026 0zm2.688-1.609a.327.327 0 010 .612 1.085 1.085 0 01-1.027 0 .325.325 0 01-.155-.494.318.318 0 01.155-.118 1.133 1.133 0 011.026 0zm15.329.317c.402 0 .729-.192.729-.43s-.327-.43-.729-.43c-.402 0-.728.192-.728.43s.326.43.728.43zm3.201-2.328a.322.322 0 01.214.306.328.328 0 01-.214.306 1.138 1.138 0 01-1.027 0 .322.322 0 01-.214-.306.322.322 0 01.214-.306 1.089 1.089 0 011.027 0zm-5.375 0a.322.322 0 01.214.306.328.328 0 01-.214.306 1.134 1.134 0 01-1.026 0 .32.32 0 01-.214-.306.325.325 0 01.214-.306 1.083 1.083 0 011.026 0zm2.687-1.591c.287.17.287.442 0 .606a1.083 1.083 0 01-1.026 0c-.287-.164-.287-.436 0-.606a1.071 1.071 0 011.026 0zm-5.888.736c.403 0 .729-.193.729-.43 0-.238-.326-.431-.729-.431-.402 0-.728.193-.728.431 0 .237.326.43.728.43zm2.688-1.598c.402 0 .728-.192.728-.43s-.326-.43-.728-.43c-.403 0-.729.192-.729.43s.326.43.729.43zm-5.381 0c.403 0 .729-.192.729-.43s-.326-.43-.729-.43c-.402 0-.728.192-.728.43s.326.43.728.43zm2.693-1.591c.403 0 .729-.193.729-.431 0-.237-.326-.43-.729-.43-.402 0-.728.193-.728.43 0 .238.326.431.728.431zm10.253 2.47a1.12 1.12 0 011.032 0 .306.306 0 01.155.117.332.332 0 010 .377.306.306 0 01-.155.117 1.071 1.071 0 01-1.026 0 .315.315 0 01-.23-.303.321.321 0 01.061-.193.31.31 0 01.163-.115zm3.725-1.598a.318.318 0 01.155.118.332.332 0 010 .376.318.318 0 01-.155.118 1.143 1.143 0 01-1.032 0 .322.322 0 01-.214-.306.322.322 0 01.214-.306 1.122 1.122 0 011.032 0zm2.671-1.614a.32.32 0 01.206.303.32.32 0 01-.206.303 1.122 1.122 0 01-1.032 0 .315.315 0 01-.149-.118.33.33 0 010-.37.315.315 0 01.149-.118 1.11 1.11 0 011.032 0zm-8.222 8.803c.402 0 .728-.193.728-.431s-.326-.43-.728-.43c-.403 0-.729.192-.729.43s.326.431.729.431zm3.2-2.328c.287.169.287.441 0 .606a1.083 1.083 0 01-1.026 0 .313.313 0 01-.15-.119.332.332 0 010-.369.311.311 0 01.15-.118 1.071 1.071 0 011.026 0zm1.711-1.581a1.12 1.12 0 011.026 0 .323.323 0 01.214.306.325.325 0 01-.214.306 1.083 1.083 0 01-1.026 0 .318.318 0 01-.155-.118.332.332 0 010-.376.318.318 0 01.155-.118zm3.692-1.592a.325.325 0 010 .606 1.11 1.11 0 01-1.032 0 .311.311 0 01-.15-.118.328.328 0 010-.369.313.313 0 01.15-.119 1.116 1.116 0 011.032 0zm2.687-1.603a.322.322 0 01.214.306.322.322 0 01-.214.306 1.122 1.122 0 01-1.032 0 .322.322 0 01-.214-.306.322.322 0 01.214-.306 1.146 1.146 0 011.032 0zm2.594 1.496c.286.17.286.442 0 .606a1.09 1.09 0 01-1.027 0c-.287-.164-.287-.436 0-.606a1.074 1.074 0 011.027 0zm-14.745-1.581a1.132 1.132 0 011.032 0 .322.322 0 01.214.306.322.322 0 01-.214.306 1.12 1.12 0 01-1.027 0 .32.32 0 01-.216-.304.317.317 0 01.211-.308zm3.206-.861c.402 0 .728-.193.728-.43 0-.238-.326-.431-.728-.431-.402 0-.728.193-.728.431 0 .237.326.43.728.43zm3.206-2.328a.328.328 0 010 .612 1.122 1.122 0 01-1.032 0 .322.322 0 01-.214-.306.328.328 0 01.214-.306 1.146 1.146 0 011.032 0zm-9.099 1.575a1.071 1.071 0 011.026 0 .31.31 0 01.157.114.328.328 0 01.061.189.327.327 0 01-.061.188.311.311 0 01-.157.115 1.132 1.132 0 01-1.032 0 .321.321 0 01-.203-.305.324.324 0 01.209-.301zm3.719-1.575a.322.322 0 01.214.306.322.322 0 01-.214.306 1.086 1.086 0 01-1.027 0 .325.325 0 01-.154-.494.315.315 0 01.154-.118 1.138 1.138 0 011.027 0zm2.687-1.592a.313.313 0 01.155.118.332.332 0 010 .376.313.313 0 01-.155.118 1.13 1.13 0 01-1.026 0 .313.313 0 01-.155-.118.33.33 0 010-.376.313.313 0 01.155-.118 1.083 1.083 0 011.026 0zm-9.094 1.597a1.085 1.085 0 011.027 0 .317.317 0 01.217.304.326.326 0 01-.06.188.311.311 0 01-.157.115 1.122 1.122 0 01-1.032 0 .325.325 0 01.005-.607zm3.719-1.597a.325.325 0 01.155.494.313.313 0 01-.155.118 1.13 1.13 0 01-1.026 0 .322.322 0 01-.214-.306.322.322 0 01.214-.306 1.083 1.083 0 011.026 0zm2.688-1.592c.287.17.287.442 0 .606a1.077 1.077 0 01-1.027 0c-.287-.164-.287-.436 0-.606a1.09 1.09 0 011.027 0zm-15.86 9.976a.311.311 0 01.155.117.326.326 0 01.059.189.325.325 0 01-.214.306 1.143 1.143 0 01-1.032 0 .325.325 0 01-.213-.306.326.326 0 01.213-.306 1.11 1.11 0 011.032 0zm2.688-1.592a.32.32 0 01.206.303.32.32 0 01-.206.303 1.11 1.11 0 01-1.032 0 .317.317 0 01-.206-.303.317.317 0 01.206-.303 1.11 1.11 0 011.032 0z" fill="#fff"/><path d="M135.352 178.7l6.026-3.529 28.745 17.17 46.579-27.435-.028-11.788 15.611 8.99-62.488 36.974-34.445-20.382z" fill="#F7971D"/><path d="M135.358 181.136l6.026-3.523 28.744 17.169 46.679-27.683-.127-12.123 15.611 9.574-62.488 36.968-34.445-20.382z" fill="#565656"/><path d="M160.388 198.6a.855.855 0 01-.43-.13l-3.14-1.858a1.938 1.938 0 01-.811-1.558v-1.365a.937.937 0 01.087-.475.91.91 0 01.31-.363.735.735 0 01.773.034l3.14 1.858c.247.173.45.405.591.676.142.272.217.574.22.881v1.366a.937.937 0 01-.087.475.91.91 0 01-.31.363.66.66 0 01-.343.096zm-3.597-5.098c-.045 0-.067.062-.067.176v1.365c.004.178.047.353.125.512.078.158.19.297.328.406l3.14 1.863a.19.19 0 00.071.029.946.946 0 000-.199v-1.365a1.202 1.202 0 00-.452-.918l-3.14-1.863-.005-.006zm-3.041 4.277a.855.855 0 01-.43-.13l-3.157-1.858a1.901 1.901 0 01-.591-.677 1.941 1.941 0 01-.22-.881v-1.365a.934.934 0 01.397-.839.735.735 0 01.773.034l3.14 1.858a1.938 1.938 0 01.811 1.558v1.354a.937.937 0 01-.087.475.91.91 0 01-.31.363.669.669 0 01-.326.108zm-3.598-5.098c-.044 0-.066.062-.066.175v1.365a1.221 1.221 0 00.453.924l3.139 1.858a.193.193 0 00.072.028.936.936 0 000-.198v-1.365a1.211 1.211 0 00-.452-.918l-3.135-1.852-.011-.017z" fill="#fff"/><path d="M178.726 198.102a.621.621 0 01-.309-.085.806.806 0 01-.274-.319.848.848 0 01-.08-.418v-1.099a1.66 1.66 0 01.187-.747c.12-.229.293-.426.503-.572l2.533-1.502a.666.666 0 01.69 0 .795.795 0 01.275.319.823.823 0 01.078.418v1.099c-.002.26-.065.516-.184.746-.119.23-.291.427-.5.574l-2.533 1.501a.765.765 0 01-.386.085zm2.869-4.152l-2.483 1.552a.892.892 0 00-.331.679v1.099a.329.329 0 000 .125l2.488-1.546a.938.938 0 00.332-.686v-1.099a.291.291 0 00.016-.124h-.022zm-4.641 8.876a.585.585 0 01-.309-.085.815.815 0 01-.359-.742v-1.093c.003-.261.067-.517.187-.747.12-.23.293-.427.503-.573l2.533-1.501a.679.679 0 01.69 0c.117.08.212.192.274.322.062.13.089.275.079.42v1.099a1.64 1.64 0 01-.185.743 1.59 1.59 0 01-.499.571l-2.533 1.501a.766.766 0 01-.381.085zm2.864-4.152l-2.483 1.546a.904.904 0 00-.331.686v1.093a.285.285 0 000 .13l2.483-1.552a.892.892 0 00.331-.68v-1.098a.293.293 0 000-.125zm43.522-26.721a.585.585 0 01-.309-.085.794.794 0 01-.275-.321.836.836 0 01-.078-.421v-1.093c.001-.261.065-.518.185-.748.12-.23.294-.427.505-.572l2.527-1.501a.679.679 0 01.69 0c.119.079.215.19.278.321.063.13.091.276.081.421v1.099a1.632 1.632 0 01-.69 1.314l-2.533 1.501a.733.733 0 01-.381.085zm2.87-4.152l-2.489 1.547a.89.89 0 00-.24.304.931.931 0 00-.091.381v1.093a.24.24 0 000 .125l2.483-1.547a.91.91 0 00.331-.679v-1.082a.285.285 0 00.006-.142zm-4.646 8.877a.599.599 0 01-.309-.085.836.836 0 01-.354-.742v-1.111c.003-.26.068-.515.188-.744.12-.229.292-.424.502-.57l2.533-1.501a.665.665 0 01.69-.028.83.83 0 01.353.742v1.099a1.64 1.64 0 01-.185.743 1.59 1.59 0 01-.499.571l-2.528 1.501a.78.78 0 01-.391.125zm2.869-4.152l-2.483 1.546a.902.902 0 00-.331.68v1.121a.293.293 0 000 .125l2.483-1.546a.896.896 0 00.239-.303.926.926 0 00.092-.377v-1.099a.282.282 0 000-.147zm-9.061 4.554a.585.585 0 01-.309-.085.83.83 0 01-.353-.742v-1.099a1.64 1.64 0 01.185-.743 1.59 1.59 0 01.499-.571l2.533-1.501a.644.644 0 01.69-.029.818.818 0 01.359.743v1.121c-.003.26-.068.515-.188.744-.12.229-.292.425-.502.57l-2.533 1.501a.748.748 0 01-.381.091zm2.864-4.152l-2.483 1.546a.91.91 0 00-.331.68v1.099a.24.24 0 000 .125l2.483-1.547a.892.892 0 00.331-.68v-1.11a.24.24 0 000-.113z" fill="#F7971D"/><path d="M169.803 208.989l-.177-.101-35.107-20.456-.182-9.568 6.771-3.954 29.44 16.972v.81l-29.175-17.096-6.308 3.693.16 8.713 34.572 20.143 64.188-37.687v-6.877l-17.311-10.463.034-.832 17.989 10.876v7.721l-.177.107-64.717 37.999z" fill="#fff"/><path d="M170.548 192.692v-.81l46.121-27.304.006.697-46.127 27.417z" fill="#fff"/><path d="M170.509 199.093l-26.543-15.136.348-.64 26.189 14.932 57.743-34.198-8.31-4.922.358-.635 9.387 5.557-59.172 35.042z" fill="#fff"/><path d="M140.986 117.674l-17.034-9.115V91.962l17.034 9.109v16.603z" fill="#565656"/><path d="M140.28 116.467l-17.609-9.42v-17.21l17.609 9.415v17.215zm-17.035-9.703l16.461 8.803V99.558l-16.461-8.809v16.015z" fill="#fff"/><path d="M139.027 114.439l-13.116-7.013V95.191l13.116 7.013v12.235z" fill="#F7971D"/><path d="M138.321 113.21l-13.691-7.319V93.049l13.691 7.319v12.842zm-13.117-7.625l12.543 6.713v-11.63l-12.543-6.707v11.624z" fill="#fff"/><path d="M163.688 130.38l-17.034-9.109v-16.603l17.034 9.109v16.603z" fill="#565656"/><path d="M162.982 129.173l-17.609-9.414v-17.21l17.609 9.415v17.209zm-17.04-9.715l16.466 8.832v-16.026l-16.466-8.803v15.997z" fill="#fff"/><path d="M161.729 127.151l-13.116-7.018v-12.231l13.116 7.013v12.236z" fill="#F7971D"/><path d="M161.018 125.922l-13.686-7.325v-12.842l13.686 7.325v12.842zm-13.117-7.625l12.548 6.707V113.38l-12.548-6.707v11.624z" fill="#fff"/><path d="M140.986 142.123l-17.034-9.109v-16.603l17.034 9.109v16.603z" fill="#565656"/><path d="M140.28 140.916l-17.609-9.42v-17.21l17.609 9.421v17.209zm-17.035-9.72l16.461 8.808v-15.997l-16.461-8.808v15.997z" fill="#fff"/><path d="M139.027 138.888l-13.116-7.013V119.64l13.116 7.018v12.23z" fill="#F7971D"/><path d="M138.321 137.659l-13.691-7.319v-12.813l13.691 7.318v12.814zm-13.117-7.619l12.543 6.707v-11.63l-12.543-6.707v11.63z" fill="#fff"/><path d="M140.986 171.019l-17.034-9.109v-16.604l17.034 9.109v16.604z" fill="#565656"/><path d="M140.28 169.812l-17.609-9.42v-17.21l17.609 9.421v17.209zm-17.035-9.72l16.461 8.808v-15.997l-16.461-8.803v15.992z" fill="#fff"/><path d="M139.027 167.79l-13.116-7.019v-12.236l13.116 7.019v12.236z" fill="#F7971D"/><path d="M138.321 166.555l-13.691-7.319v-12.819l13.691 7.319v12.819zm-13.117-7.619l12.543 6.707v-11.63l-12.543-6.707v11.63z" fill="#fff"/><path d="M163.688 154.835l-17.034-9.115v-16.603l17.034 9.114v16.604z" fill="#565656"/><path d="M162.982 153.622l-17.609-9.414v-17.21l17.609 9.415v17.209zm-17.04-9.715l16.466 8.803v-15.997l-16.466-8.803v15.997z" fill="#fff"/><path d="M161.729 151.6l-13.116-7.013v-12.236l13.116 7.013V151.6z" fill="#F7971D"/><path d="M161.018 150.382l-13.686-7.324v-12.854l13.686 7.325v12.853zm-13.117-7.636l12.548 6.713v-11.63l-12.548-6.707v11.624z" fill="#fff"/><path d="M195.28 161.672a.594.594 0 01-.309-.085.83.83 0 01-.353-.742v-1.099c.003-.26.067-.515.187-.744.121-.229.293-.425.503-.57l2.533-1.501a.65.65 0 01.689-.029c.118.08.213.191.275.322.062.13.089.276.079.42v1.099c-.003.26-.068.516-.188.744-.12.229-.292.425-.502.57l-2.533 1.502a.746.746 0 01-.381.113zm2.87-4.152l-2.489 1.546a.923.923 0 00-.331.68v1.099a.288.288 0 000 .124l2.483-1.546a.902.902 0 00.331-.68v-1.099a.281.281 0 00.028-.124h-.022zm-5 9.482a.58.58 0 01-.309-.079.823.823 0 01-.353-.742v-1.071c.001-.259.065-.515.184-.744.119-.229.291-.424.5-.57l2.533-1.501a.665.665 0 01.69-.028.818.818 0 01.353.742v1.093a1.628 1.628 0 01-.684 1.32l-2.533 1.501a.74.74 0 01-.381.079zm2.864-4.152l-2.483 1.552a.91.91 0 00-.331.68v1.099a.293.293 0 000 .125l2.483-1.547a.923.923 0 00.331-.685v-1.094a.28.28 0 000-.135v.005zm-5.535 1.756a.627.627 0 01-.309-.085.82.82 0 01-.273-.322.853.853 0 01-.08-.42v-1.099a1.632 1.632 0 01.69-1.314l2.533-1.501a.671.671 0 01.69-.028.826.826 0 01.353.742v1.099a1.66 1.66 0 01-.186.742c-.12.229-.29.425-.498.572l-2.533 1.501a.778.778 0 01-.387.113zm2.87-4.152L190.866 162a.91.91 0 00-.331.68v1.099a.264.264 0 000 .125l2.488-1.547a.906.906 0 00.331-.679v-1.099a.252.252 0 00-.005-.125zm-10.297 12.508a.592.592 0 01-.309-.085.82.82 0 01-.353-.742v-1.094c.001-.26.064-.516.183-.746.12-.23.291-.427.501-.573l2.533-1.502a.68.68 0 01.69-.028.82.82 0 01.353.742v1.099c-.003.26-.066.515-.185.743a1.599 1.599 0 01-.499.571l-2.533 1.502a.762.762 0 01-.381.113zm2.864-4.152l-2.483 1.546a.885.885 0 00-.24.305.893.893 0 00-.091.38v1.094a.237.237 0 000 .124l2.483-1.546a.915.915 0 00.331-.68v-1.099a.26.26 0 000-.124zm-5.055 9.714a.585.585 0 01-.309-.085.786.786 0 01-.275-.318.825.825 0 01-.078-.418v-1.099c.001-.261.065-.518.185-.748.12-.23.293-.426.505-.572l2.527-1.501a.659.659 0 01.69 0 .812.812 0 01.359.737v1.098a1.657 1.657 0 01-.188.747c-.12.23-.292.427-.502.573l-2.533 1.501a.745.745 0 01-.381.085zm2.864-4.152l-2.483 1.552a.91.91 0 00-.331.68v1.099a.293.293 0 000 .125l2.483-1.547a.936.936 0 00.331-.685v-1.099a.293.293 0 000-.125zm22.559-14.49a.584.584 0 01-.304-.085.808.808 0 01-.359-.742v-1.093c.003-.261.067-.518.187-.747.12-.23.293-.427.503-.573l2.533-1.501a.669.669 0 01.69 0 .81.81 0 01.274.322c.062.13.089.275.079.42v1.099a1.631 1.631 0 01-.184.744 1.589 1.589 0 01-.5.57l-2.533 1.501a.776.776 0 01-.386.085zm2.869-4.152l-2.483 1.546a.894.894 0 00-.24.305.924.924 0 00-.091.381v1.093a.222.222 0 000 .13l2.483-1.552a.902.902 0 00.331-.68v-1.099a.26.26 0 000-.124z" fill="#F7971D"/><path d="M147.559 178.632V158.93c0-2.56 3.25-4.39 5.843-2.928a11.062 11.062 0 014.208 4.086 11.457 11.457 0 011.587 5.719v19.357l-11.638-6.532z" fill="#fff"/><path d="M148.094 178.887l.187-19.577c.025-.842.372-1.64.966-2.221a3.07 3.07 0 012.207-.883 3.139 3.139 0 011.579.424 10.397 10.397 0 013.945 3.833 10.752 10.752 0 011.49 5.361v18.932l-10.374-5.869zm64.966-65.909l-5.48 2.957V97.281l5.48-2.951v18.648z" fill="#565656"/><path d="M202.36 99.275v17.119l-25.273 14.161v-16.682l25.273-14.598zm.624-1.088l-26.515 15.295v18.087l26.515-14.83V98.187z" fill="#F7971D"/><path d="M199.767 104.05v10.525l-19.529 11.075v-10.197l19.529-11.391v-.012zm.623-1.082l-20.77 12.112v11.663l20.759-11.788v-11.998l.011.011zm11.053-8.893V111.6l-4.878 2.833V96.777l4.878-2.702zm.624-1.071l-6.126 3.399v19.118l6.126-3.546V93.004z" fill="#F7971D"/><path d="M213.06 137.529l-5.48 2.951v-18.648l5.48-2.951v18.648z" fill="#565656"/><path d="M202.36 123.826v17.102l-25.273 14.133v-16.637l25.273-14.598zm.624-1.088l-26.515 15.295v18.087l26.515-14.801v-18.581z" fill="#F7971D"/><path d="M199.767 128.601v10.525l-19.529 11.075v-10.197l19.529-11.391v-.012zm.623-1.087l-20.77 12.105v11.658l20.759-11.771v-12.004l.011.012zm11.053-8.888v17.521l-4.878 2.832v-17.651l4.878-2.702zm.624-1.071l-6.126 3.399v19.118l6.126-3.546v-18.971z" fill="#F7971D"/><path d="M116.783 74.537l54.377 29.972 45.316-25.548-54.322-29.96-45.371 25.536z" fill="#fff"/><path d="M119.62 76.933l41.707-23.253 50.061 28.357-41.332 23.333-50.436-28.437z" fill="#F7971D"/><path d="M120.172 79.448l41.701-23.259 50.067 28.358-41.332 23.333-50.436-28.432z" fill="#565656"/><path d="M170.735 105.025l-.088-.051-50.641-28.658.204-.113 45.178-25.197.088.05 51.392 27.9-.304.17-45.829 25.899zm-50.05-28.653l50.05 28.217 45.349-25.628-50.69-27.519-44.709 24.93z" fill="#fff"/><path d="M170.923 192.301l-.276-.102-54.145-31.099.265-86.563.43-.159 53.709 30.171.017 87.752zm-54.035-31.349l53.66 30.93v-87.186l-53.345-30.023-.315 86.279z" fill="#fff"/><path d="M170.548 192.261v-87.712l.099-.034 46.221-25.56v.21l-.188 85.945-.094.034-46.038 27.117zm.375-87.565v87.141l45.387-26.885.182-85.572-45.569 25.316zm-36.978 74.542l.552.374.155 8.265-8.559-5.07v-2.113l2.025 1.19.828.487v-2.017l1.832 1.099.833.493v-2.056l1.501.838.811.453v-1.943h.022zM123.157 181l2.097 1.297.552.329-2.627-1.558V181h-.022zm10.236-2.793v2.023l-2.312-1.292v2.034l-2.665-1.592v2.022l-2.853-1.671v2.096l-2.919-1.807v1.382l12.62 7.466-.182-9.567-1.656-1.094h-.033z" fill="#fff"/><path d="M136.639 175.937l-5.549 2.993.231.452 5.549-2.994-.231-.451zm-2.673.425l-5.549 2.993.231.451 5.549-2.993-.231-.451zm-2.855.358l-5.549 2.993.231.452 5.549-2.994-.231-.451zm-2.92.295l-5.549 2.993.231.452 5.549-2.994-.231-.451z" fill="#fff"/></g><defs><clipPath id="clip0"><path fill="#fff" d="M0 0h240v220H0z"/></clipPath></defs></svg>