<svg width="56" height="56" fill="none" xmlns="http://www.w3.org/2000/svg"><g clip-path="url(#clip0)" fill="#F7971D"><path d="M25.548 29.034h-3.303a.966.966 0 000 1.932h3.303a.966.966 0 100-1.932z"/><path d="M45.264 2.805H31.012V.966a.966.966 0 00-1.215-.933l-19.31 5.149a.966.966 0 00-.717.934v7.12a.966.966 0 101.932 0V6.858L29.08 2.224v51.631L11.702 50.38V12.492a.966.966 0 10-1.932 0v38.68c0 .46.325.857.777.947l19.31 3.862a.963.963 0 00.801-.2.967.967 0 00.354-.747v-1.839h8.904a.966.966 0 100-1.932h-8.904v-2.756h9.563a.966.966 0 00.966-.966V8.46a.966.966 0 00-.966-.966h-9.563V4.737h13.285v46.526H38.92a.966.966 0 100 1.932h6.345a.966.966 0 00.966-.966V3.77a.966.966 0 00-.966-.966zm-5.655 6.621v37.148h-8.597V9.426h8.597zM5.783 21.19A15.183 15.183 0 004 28.316c0 2.477.616 4.941 1.783 7.126 1.166 2.185 2.703 1.048 1.669-.89a13.115 13.115 0 01-1.56-6.236c0-2.198.526-4.296 1.56-6.235s-.503-3.076-1.67-.89zm-4 0A15.183 15.183 0 000 28.316c0 2.477.616 4.941 1.783 7.126 1.166 2.185 2.703 1.048 1.669-.89a13.115 13.115 0 01-1.56-6.236c0-2.198.526-4.296 1.56-6.235s-.503-3.076-1.67-.89zm48.226.027A15.804 15.804 0 0151.79 28.5c0 2.532-.616 5.05-1.781 7.283-1.166 2.234-2.701 1.072-1.668-.91a13.65 13.65 0 001.558-6.373c0-2.246-.525-4.39-1.558-6.373-1.033-1.982.502-3.144 1.668-.91zm4 0A15.804 15.804 0 0155.79 28.5c0 2.532-.616 5.05-1.781 7.283-1.166 2.234-2.701 1.072-1.668-.91a13.65 13.65 0 001.558-6.373c0-2.246-.525-4.39-1.558-6.373-1.033-1.982.502-3.144 1.668-.91z"/></g><defs><clipPath id="clip0"><path fill="#fff" d="M0 0h56v56H0z"/></clipPath></defs></svg>