<svg width="56" height="56" fill="none" xmlns="http://www.w3.org/2000/svg"><path d="M44.299 18.159l-5.565-5.565a.875.875 0 00-1.488.493 3.501 3.501 0 11-3.96-3.96.875.875 0 00.492-1.488l-5.564-5.565a.875.875 0 00-1.238 0l-4.832 4.83a5.25 5.25 0 10-6.429 6.428l-4.827 4.827a.875.875 0 000 1.237l4.829 4.835a5.25 5.25 0 00-.636 9.926l-2.043 5.893a4.376 4.376 0 00.15 3.856l3.071 7.262a.686.686 0 00.04.082c.215.394.327.836.326 1.285v.84a.875.875 0 001.75 0v-.84c0-.728-.181-1.444-.525-2.086l-3.072-7.262a.781.781 0 00-.042-.088 2.658 2.658 0 01-.077-2.4l2.14-6.16c.092 0 .182.012.275.012a5.24 5.24 0 005.067-3.887l1.484 1.478v8.983a.875.875 0 001.75 0v-12.25a2.625 2.625 0 015.25 0v10.597a7.92 7.92 0 00.831 3.522l.32.642a6.148 6.148 0 010 5.478l-.875 1.75a2.638 2.638 0 00-.276 1.174v1.337a.875.875 0 001.75 0v-1.337c0-.135.03-.269.087-.391l.875-1.75a7.906 7.906 0 000-7.043l-.32-.642a6.154 6.154 0 01-.6-2.008A6.107 6.107 0 0036.75 42a2.625 2.625 0 002.625-2.625v-4.987a5.245 5.245 0 00.095-10.158l4.829-4.836a.875.875 0 000-1.235zM36.75 40.25a4.38 4.38 0 01-4.375-4.375v-4.55l.669-.668a5.237 5.237 0 004.581 3.867v4.851a.875.875 0 01-.875.875zm.125-15.896a.876.876 0 00.746 1.487 3.5 3.5 0 11-2.975 2.975.875.875 0 00-1.488-.745l-.783.785a4.373 4.373 0 00-4.385-4.366 4.375 4.375 0 00-4.365 4.385v.793l-1.604-1.604a.875.875 0 00-1.487.745 3.5 3.5 0 11-2.975-2.975.875.875 0 00.746-1.487l-5.562-5.57 5.568-5.564a.875.875 0 00-.745-1.488A3.5 3.5 0 0114.6 5.79a3.587 3.587 0 014.95 0 3.5 3.5 0 01.986 2.965.875.875 0 001.488.745l5.573-5.567 3.92 3.922a5.25 5.25 0 107 7l3.922 3.92-5.565 5.58zm16.5-4.229h-5.25a.875.875 0 110-1.75h5.25a.875.875 0 110 1.75zM47.18 10.063a.875.875 0 01-.438-1.633l4.55-2.625a.875.875 0 01.875 1.515l-4.55 2.625a.867.867 0 01-.438.117zm4.545 22.75a.868.868 0 01-.438-.118l-4.55-2.625a.875.875 0 11.875-1.515l4.55 2.625a.875.875 0 01-.437 1.633zM7.875 20.125h-5.25a.875.875 0 010-1.75h5.25a.875.875 0 010 1.75zm.945-10.062a.867.867 0 01-.437-.118L3.833 7.32a.875.875 0 01.875-1.515l4.55 2.625a.875.875 0 01-.437 1.633zm-4.545 22.75a.875.875 0 01-.437-1.633l4.55-2.625a.875.875 0 11.875 1.515l-4.55 2.625a.867.867 0 01-.438.118z" fill="#F7971D"/></svg>