<svg width="56" height="56" fill="none" xmlns="http://www.w3.org/2000/svg"><g clip-path="url(#clip0)" fill="#F7971D"><path d="M55.843 46.153l-6.82-10.235 1.195-.373a.933.933 0 00.592-1.23l-2.097-5.393 4.27-3.971a.933.933 0 000-1.367l-4.27-3.97 2.098-5.394a.933.933 0 00-.592-1.229l-5.615-1.75-.49-5.76a.939.939 0 00-.349-.653.926.926 0 00-.71-.195l-5.844.81L34.22.454a.933.933 0 00-1.314-.3L28 3.383 23.097.155a.933.933 0 00-1.314.3l-2.993 4.99-5.842-.81a.933.933 0 00-1.059.846l-.491 5.758-5.61 1.751a.933.933 0 00-.592 1.23l2.097 5.393-4.276 3.971a.933.933 0 000 1.367l4.271 3.97-2.098 5.394a.933.933 0 00.592 1.229l1.238.385L.14 47.111a.933.933 0 00.96 1.409l9.364-1.703 1.688 8.438a.93.93 0 00.733.732c.06.011.12.016.181.014a.934.934 0 00.777-.415l6.548-9.822 1.39 2.317a.933.933 0 00.805.454.932.932 0 00.513-.154L28 45.15l4.904 3.229a.933.933 0 001.314-.3l1.39-2.318 6.549 9.823a.933.933 0 001.691-.335l1.699-8.511 9.436.861a.933.933 0 00.86-1.447zm-42.3 6.521l-1.428-7.127a.933.933 0 00-1.081-.735l-8.209 1.493 6.034-9.802 2.538.792.49 5.758a.933.933 0 001.058.848l5.845-.808.54.901-5.787 8.68zm22.384-11.068l-2.81 4.683-4.603-3.035a.933.933 0 00-1.027 0l-4.605 3.031-2.81-4.684a.933.933 0 00-.928-.444l-5.48.758-.46-5.403a.933.933 0 00-.654-.812l-5.257-1.641 1.96-5.051a.933.933 0 00-.234-1.022l-3.995-3.719 4-3.718a.933.933 0 00.233-1.022l-1.96-5.053 5.26-1.64a.934.934 0 00.653-.812l.461-5.403 5.48.76a.933.933 0 00.933-.446l2.81-4.684 4.593 3.032a.933.933 0 001.027 0l4.605-3.032 2.809 4.685a.94.94 0 00.929.444l5.48-.758.46 5.403c.033.379.29.7.654.812l5.259 1.641-1.966 5.051a.933.933 0 00.235 1.022l3.998 3.718-4 3.719a.933.933 0 00-.234 1.022l1.96 5.053-5.254 1.64a.933.933 0 00-.654.812l-.46 5.403-5.48-.755a.94.94 0 00-.928.445zm8.957 3.194a.946.946 0 00-.998.747l-1.426 7.124-5.786-8.68.54-.9 5.842.81a.933.933 0 001.058-.846l.492-5.758 2.562-.8 6.04 9.064-8.324-.76z"/><path d="M38.081 30.93a6.578 6.578 0 01-.474-2.46v-6.113c0-4.24-2.822-7.796-6.673-8.996A2.838 2.838 0 0028.143 11a2.838 2.838 0 00-2.791 2.361c-3.851 1.2-6.673 4.756-6.673 8.996v6.113c0 .847-.16 1.675-.474 2.46l-1.352 3.38a.947.947 0 00.88 1.297h7.194c.67 1.14 1.867 1.893 3.216 1.893 1.348 0 2.545-.752 3.216-1.893h7.194a.946.946 0 00.88-1.297l-1.352-3.38zM19.13 33.714l.832-2.081a8.477 8.477 0 00.61-3.163v-6.113c0-4.176 3.396-7.571 7.57-7.571 4.176 0 7.572 3.395 7.572 7.571v6.113c0 1.089.205 2.154.61 3.163l.832 2.081H19.13zm-4.347-16.59A15.182 15.182 0 0013 24.25c0 2.477.616 4.94 1.783 7.126 1.166 2.185 2.703 1.048 1.669-.891a13.115 13.115 0 01-1.56-6.235c0-2.198.526-4.296 1.56-6.235 1.034-1.94-.503-3.076-1.67-.891zm26.72 0c-1.166-2.185-2.703-1.048-1.67.89a13.115 13.115 0 011.56 6.236c0 2.198-.525 4.296-1.56 6.235-1.033 1.939.504 3.076 1.67.89a15.183 15.183 0 001.783-7.125c0-2.477-.617-4.941-1.783-7.126z"/></g><defs><clipPath id="clip0"><path fill="#fff" d="M0 0h56v56H0z"/></clipPath></defs></svg>