<svg width="56" height="56" fill="none" xmlns="http://www.w3.org/2000/svg"><path d="M28 34.563a3.285 3.285 0 00-3.281 3.28A3.285 3.285 0 0028 41.126a3.285 3.285 0 003.281-3.281A3.285 3.285 0 0028 34.562zm0 4.374a1.095 1.095 0 010-2.187 1.095 1.095 0 010 2.188z" fill="#F7971D"/><path d="M54.906 6.125H1.094C.49 6.125 0 6.615 0 7.219v6.562c0 .24.08.475.226.666l4.805 6.268v6.191c0 12.577 10.194 22.969 22.969 22.969 12.713 0 22.969-10.312 22.969-22.969v-6.191l4.805-6.268c.147-.192.226-.434.226-.666V7.22c0-.604-.49-1.094-1.094-1.094zM2.188 8.313h51.624v4.374H12.688a1.094 1.094 0 100 2.188H52.69l-3.355 4.375H6.665l-4.478-5.84V8.312zm15.968 36.899v-7.368C18.156 32.416 22.572 28 28 28c5.428 0 9.844 4.416 9.844 9.844v7.368A20.779 20.779 0 0128 47.687a20.78 20.78 0 01-9.844-2.475zm21.875-1.363v-6.005c0-6.634-5.397-12.032-12.031-12.032S15.969 31.21 15.969 37.844v6.007c-5.337-3.796-8.75-9.962-8.75-16.945v-5.468H48.78v5.468c0 6.742-3.31 13.069-8.75 16.944z" fill="#F7971D"/></svg>