<svg width="18" height="18" fill="none" xmlns="http://www.w3.org/2000/svg"><path d="M12.771 0H5.23A5.235 5.235 0 000 5.229v7.542A5.235 5.235 0 005.229 18h7.542A5.235 5.235 0 0018 12.771V5.23A5.235 5.235 0 0012.771 0zm3.823 12.771a3.827 3.827 0 01-3.823 3.823H5.23a3.827 3.827 0 01-3.823-3.823V5.23A3.827 3.827 0 015.23 1.406h7.542a3.827 3.827 0 013.823 3.823v7.542z" fill="#F7971D"/><path d="M9 4.148A4.857 4.857 0 004.148 9 4.857 4.857 0 009 13.852 4.857 4.857 0 0013.852 9 4.857 4.857 0 009 4.148zm0 8.297A3.45 3.45 0 015.555 9 3.45 3.45 0 019 5.555 3.45 3.45 0 0112.445 9 3.45 3.45 0 019 12.445zm4.922-7.664a.703.703 0 100-1.406.703.703 0 000 1.406z" fill="#F7971D"/></svg>