<svg width="1920" height="2768" fill="none" xmlns="http://www.w3.org/2000/svg"><g opacity=".5"><path d="M-4 705c136-32 415.2-98.4 444-108 36-12 8-80 20-124s680-132 748-160 4-136 28-160c19.2-19.2 461.33-72 680-96M-2 1709c136-32 415.2-98.4 444-108 36-12 8-80 20-124s680-132 748-160 4-136 28-160c19.2-19.2 461.33-72 680-96m0 1414c-218.67 24-660.8 76.8-680 96-24 24 40 132-28 160-19.65 8.09-89.43 21.2-179 36.8" stroke="#FFBE2E" stroke-opacity=".8"/><path d="M0 633c136-32 508.2 19.6 537 10 36-12-40-76-28-120s1141-173 1209-201 4-136 28-160c19.2-19.2-46.67-137 172-161M2 1637c136-32 525.2 9.6 554 0 36-12-36-84-24-128s1120-155 1188-183 4-136 28-160c19.2-19.2-46.67-137 172-161m0 1414c-218.67 24-152.8 141.8-172 161-24 24 40 132-28 160-14.19 5.84-73.66 15.3-159 27.01" stroke="#E5E5E5"/><path d="M-2 717c136-32 373.2-66.4 402-76 36-12 8-80 20-124s680-132 748-160 4-136 28-160c19.2-19.2 503.33-110 722-134M0 1721c136-32 373.2-66.4 402-76 36-12 8-80 20-124s680-132 748-160 4-136 28-160c19.2-19.2 503.33-110 722-134m-750 1708c68-28 4-136 28-160 19.2-19.2 503.33-110 722-134" stroke="#FFBE2E" stroke-opacity=".8"/><path d="M-2 723c136-32 531.2-116.4 560-126 36-12 8-80 20-124s680-132 748-160 4-136 28-160c19.2-19.2 343.33-56 562-80" stroke="#FFBE2E"/><path d="M0 1727c136-32 531.2-116.4 560-126 36-12 8-80 20-124s680-132 748-160 4-136 28-160c19.2-19.2 343.33-56 562-80m0 1414c-218.67 24-542.8 60.8-562 80-24 24 40 132-28 160-19.65 8.09-89.43 21.2-179 36.8" stroke="#FFBE2E" stroke-opacity=".8"/></g></svg>