<svg width="141" height="36" fill="none" xmlns="http://www.w3.org/2000/svg"><g clip-path="url(#clip0)"><path d="M136.409.221h-87.3a4.58 4.58 0 00-4.588 4.573v26.624a4.58 4.58 0 004.588 4.573h87.3c2.534 0 4.589-2.048 4.589-4.573V4.794c0-2.525-2.055-4.573-4.589-4.573z" fill="#E88D24"/><path d="M54.347 19.988c0-.21-.023-.48-.023-.816V16.75c0-.344 0-.62.023-.84a6.22 6.22 0 01.61-2.657 5.238 5.238 0 011.504-1.844 6.324 6.324 0 012.183-1.062A9.977 9.977 0 0161.318 10a10.87 10.87 0 011.67.134c.569.088 1.129.23 1.671.424a7.23 7.23 0 011.55.779 5.34 5.34 0 011.249 1.14c.523.622.823 1.4.853 2.211a.481.481 0 01-.035.189.502.502 0 01-.455.304h-3.428a.478.478 0 01-.333-.09.735.735 0 01-.245-.23 2.272 2.272 0 00-.344-.558 3.702 3.702 0 00-.502-.475 2.768 2.768 0 00-1.65-.46c-1.704 0-2.595.893-2.672 2.68-.014.21-.021.47-.021.777v2.256c0 .327 0 .595.02.805.03.93.268 1.634.715 2.11.447.477 1.227.708 2.338.692.356 0 .645 0 .867-.032a2.68 2.68 0 00.57-.092c.143-.046.279-.114.402-.2l.368-.28c.32-.29.546-.673.645-1.094a1.58 1.58 0 01.7-.994c.144-.091.3-.163.463-.212.126-.04.258-.063.39-.067h-3.93a.535.535 0 01-.42-.168.614.614 0 01-.145-.42v-.373c.001-.236.043-.47.123-.691.078-.228.203-.437.367-.613.17-.186.375-.338.602-.448.26-.125.546-.187.834-.18h3.3a1.473 1.473 0 011.192.436c.26.336.39.755.365 1.178v1.542a6.008 6.008 0 01-.578 2.736 5.364 5.364 0 01-1.55 1.888 6.619 6.619 0 01-2.248 1.095 10.418 10.418 0 01-5.414 0 6.142 6.142 0 01-2.183-1.095 5.244 5.244 0 01-1.468-1.888 6.712 6.712 0 01-.604-2.729zm16.462.064v-7.728c0-.277.064-.551.19-.8.112-.229.269-.433.462-.601a1.978 1.978 0 011.293-.514h1.649a.535.535 0 01.23.037.548.548 0 01.297.313.533.533 0 01.037.23v9.02a3.109 3.109 0 00.613 2.021c.41.496 1.05.75 1.926.75.877 0 1.515-.257 1.917-.761a3.156 3.156 0 00.602-2.01v-7.685a1.75 1.75 0 01.19-.836 2.01 2.01 0 01.478-.593 1.83 1.83 0 01.622-.369c.211-.078.434-.12.66-.122h1.646a.545.545 0 01.42.162.575.575 0 01.164.424v9.062a7.323 7.323 0 01-.462 2.748 4.792 4.792 0 01-1.346 1.91 5.833 5.833 0 01-2.104 1.118 9.51 9.51 0 01-2.74.37 10.04 10.04 0 01-2.753-.358 5.66 5.66 0 01-2.125-1.118 5 5 0 01-1.371-1.922 7.19 7.19 0 01-.495-2.748zm15.078 5.82a.598.598 0 01-.111-.537l5.169-14.242a.882.882 0 01.89-.647h3.446a.888.888 0 01.89.647l5.169 14.242a.579.579 0 01.021.203c0 .06-.014.12-.039.175a.546.546 0 01-.252.254.423.423 0 01-.176.039h-2.865a.746.746 0 01-.759-.49l-1.156-3.152c-.528.207-1.069.379-1.62.514-.524.13-1.056.23-1.593.302-.511.068-.99.112-1.436.134-.444.023-.835.035-1.156.035h-.534a2.018 2.018 0 01-.333-.024.884.884 0 01.68.436.982.982 0 01.143.445.961.961 0 01-.088.46l-.312.837a.742.742 0 01-.759.491h-2.883a.575.575 0 01-.336-.122zm5.662-5.727c.413-.03.834-.083 1.292-.157a12.15 12.15 0 001.212-.26c.423-.111.83-.272 1.214-.48l-1.713-4.916-2.005 5.813zm24.699 5.67a.453.453 0 01-.336.133h-3.117a.927.927 0 01-.555-.152.934.934 0 01-.359-.46l-2.25-4.454a.63.63 0 00-.596-.357h-2.945a1.1 1.1 0 01.5.092c.156.071.294.177.402.31.194.215.308.491.324.78v3.688a.533.533 0 01-.157.42.6.6 0 01-.423.145h-3.03a.489.489 0 01-.215-.037.508.508 0 01-.185-.12.545.545 0 01-.155-.4v-13.08a1.836 1.836 0 01.578-1.396 1.889 1.889 0 011.358-.556h4.734a9.803 9.803 0 012.373.279 5.71 5.71 0 011.97.873 4.453 4.453 0 011.36 1.577 5.593 5.593 0 01-.056 4.792 4.34 4.34 0 01-1.794 1.72.38.38 0 00-.178.279.55.55 0 00.046.246l2.775 5.07a.496.496 0 01-.076.604l.007.003zm-4.522-10.372a1.81 1.81 0 00-.111-.754 1.778 1.778 0 00-.411-.63 2.013 2.013 0 00-1.416-.472h-3.832a1.09 1.09 0 01.87.39c.208.222.327.512.333.816v1.788a.707.707 0 00.201.496.709.709 0 00.497.2h1.95a2.104 2.104 0 001.406-.451c.183-.176.324-.39.412-.627.089-.242.124-.5.101-.756zm6.793 9.996V12.37a1.848 1.848 0 01.583-1.396 1.913 1.913 0 011.348-.558h4.454c.929-.01 1.855.106 2.752.345.8.21 1.547.583 2.195 1.095a5.149 5.149 0 011.468 1.9 6.91 6.91 0 01.581 2.735c.014.208.021.461.021.75v1.929c0 .279 0 .528-.021.737-.134 4.066-2.429 6.099-6.885 6.099h-5.939a.516.516 0 01-.4-.157.535.535 0 01-.157-.401v-.009zm6.403-2.766c.966 0 1.664-.23 2.096-.691.431-.461.653-1.165.666-2.112.014-.209.025-.45.034-.726V17.3c0-.271-.02-.518-.034-.726-.045-1.86-1.002-2.79-2.873-2.79h-3.341a1.157 1.157 0 01.858.368 1.117 1.117 0 01.356.793v7.032a.698.698 0 00.189.495c.065.068.144.12.232.155a.64.64 0 00.273.046h1.544z" fill="#000"/><path d="M62.37 2.245a1.48 1.48 0 00-1.31.796 1.466 1.466 0 00.107 1.525l-2.391 2.252h-6.998l2.146-1.807a1.484 1.484 0 001.91-.46 1.471 1.471 0 00-.231-1.945 1.483 1.483 0 00-2.453.927c-.043.359.047.72.254 1.017l-2.7 2.272h-6.183v.692h14.532l2.642-2.49a1.477 1.477 0 002.12-.95 1.463 1.463 0 00-.797-1.672 1.477 1.477 0 00-.648-.143v-.014zm0 2.247a.784.784 0 01-.724-.48.777.777 0 01.57-1.063.784.784 0 01.803.333.777.777 0 01-.65 1.21zm63.586-2.385a1.477 1.477 0 00-1.431 1.12h-11.136L111.084.08l-.842.023 2.796 3.814h11.487a1.464 1.464 0 001.118 1.09 1.48 1.48 0 001.471-.528 1.46 1.46 0 00.167-1.549 1.466 1.466 0 00-1.325-.827v.003zM86.62 6.915a1.5 1.5 0 00-.626.138l-3.07-3.17L82.89.23h-.694l.037 3.935 3.22 3.33a1.467 1.467 0 00.87 2.329 1.48 1.48 0 001.641-.816 1.466 1.466 0 00-.425-1.779 1.479 1.479 0 00-.919-.314zm26.237 21.684a1.473 1.473 0 00-2.349 1.226l-3.409.6-4.163 5.559h.863l3.7-4.928 3.194-.567c.101.181.241.338.409.461a1.476 1.476 0 002.387-.783 1.458 1.458 0 00-.207-1.149 1.464 1.464 0 00-.425-.419zm20.002-1.862a.78.78 0 01.778.825.768.768 0 01-.137.394l-.109.157-.168.09a.783.783 0 01-1.145-.678.776.776 0 01.77-.788h.011zm-.011-.692h-.019c-.381.017-.74.18-1.003.456a1.467 1.467 0 00.011 2.038c.266.273.627.432 1.009.445h.018a1.44 1.44 0 00.673-.173l2.678 2.464h4.78v-.708l-4.512.014-2.414-2.23a1.462 1.462 0 00-.446-2.095 1.472 1.472 0 00-.764-.21h-.011zm-52.056 5.318a1.476 1.476 0 00-1.431 1.124h-7.588l-3.379 3.504h.985l2.679-2.8h7.303a1.469 1.469 0 001.12 1.09 1.48 1.48 0 001.474-.528 1.467 1.467 0 00-.379-2.156 1.48 1.48 0 00-.784-.223v-.011zm0 2.247a.783.783 0 01-.722-.482.777.777 0 01.571-1.062.784.784 0 01.802.334.777.777 0 01-.65 1.21zm-25.464 2.38l-4.989-4.96a1.466 1.466 0 00-.348-1.92 1.478 1.478 0 00-2.385 1.068 1.467 1.467 0 001.211 1.535 1.48 1.48 0 001.03-.191l4.5 4.478.98-.01zm-5.696-6.273a.778.778 0 01-.552 1.331.783.783 0 01-.722-.482.778.778 0 01.722-1.076c.207 0 .405.082.552.227z" fill="#fff"/><path d="M9.838 1.353A1.258 1.258 0 009.061.127a1.139 1.139 0 00-.504-.074H4.459a4.407 4.407 0 00-3.125 1.258A4.248 4.248 0 000 4.524v17.142l3.136-2.28V8.298A1.473 1.473 0 012.02 6.697a1.467 1.467 0 011.463-1.295 1.476 1.476 0 011.463 1.295 1.464 1.464 0 01-1.116 1.6V19.74L0 22.526v12.068a1.31 1.31 0 001.284 1.284h7.273a1.08 1.08 0 00.925-.41 1.198 1.198 0 00.356-.876v-6.813l-3.256-3.29v-7.56a1.464 1.464 0 01-.631-2.525 1.476 1.476 0 012.44.924 1.465 1.465 0 01-1.115 1.601v7.272l2.562 2.589V1.353z" fill="#000"/><path d="M6.94 16.344a.854.854 0 00.856-.853.854.854 0 00-.856-.853.854.854 0 00-.855.853c0 .471.383.853.855.853zM41.785.786a1.233 1.233 0 00-.287-.408A1.287 1.287 0 0040.552 0H15.957a4.522 4.522 0 00-4.075 2.623 4.16 4.16 0 00-.386 1.798v2.623a1.147 1.147 0 00.412.922c.252.231.582.36.925.36h7.435c.398-.005.784.142 1.078.41a1.458 1.458 0 01.46 1.131V34.53c-.007.169.026.336.097.49.07.151.178.284.312.384a1.244 1.244 0 00.925.36h5.604v-6.03l-2.283-2.692a1.477 1.477 0 01-2.25-.82 1.463 1.463 0 01.664-1.65 1.477 1.477 0 011.772.196 1.466 1.466 0 01.284 1.755l1.813 2.14v-6.996l-2.26-2.374a1.48 1.48 0 01-2.304-.92 1.467 1.467 0 01.837-1.616 1.48 1.48 0 011.773.43 1.467 1.467 0 01.15 1.58l2.498 2.633v14.37h.8a1.231 1.231 0 00.925-.36 1.005 1.005 0 00.409-.863V11.004a2.507 2.507 0 00-.242-1.02 2.433 2.433 0 00-.643-.822 2.916 2.916 0 00-2.033-.844h11.898a1.322 1.322 0 00.946-.362 1.15 1.15 0 00.294-.419 1.17 1.17 0 00.092-.502V1.272a1.23 1.23 0 00-.1-.486z" fill="#000"/><path d="M24.8 18.11a.853.853 0 00.529.791.86.86 0 001.171-.622.853.853 0 00-.841-1.022.859.859 0 00-.793.526.851.851 0 00-.065.326z" fill="#000"/></g><defs><clipPath id="clip0"><path fill="#fff" d="M0 0h141v36H0z"/></clipPath></defs></svg>