<svg width="119" height="217" fill="none" xmlns="http://www.w3.org/2000/svg"><path d="M25.56 63.179l-11.707-6.241V45.443l11.706 6.241V63.18z" fill="#565656"/><path d="M25.047 62.222l-12.405-6.504V43.37l12.405 6.581v12.272zM13.38 55.255l10.944 5.84V50.48L13.38 44.64v10.615z" fill="#fff"/><path d="M23.872 60.36l-8.719-4.657v-8.114l8.719 4.65v8.12z" fill="#F7971D"/><path d="M23.405 59.541L14.3 54.684v-8.52l9.105 4.856v8.521zm-8.493-5.145l7.75 4.075.05-7.075-7.825-4.245.025 7.245z" fill="#fff"/><path d="M41.058 71.586l-11.702-6.241V53.85l11.702 6.242v11.494z" fill="#565656"/><path d="M40.55 70.63l-12.404-6.5V51.783l12.405 6.58V70.63zm-11.666-6.967l10.944 5.84v-10.61l-10.944-5.845v10.614z" fill="#fff"/><path d="M39.375 68.767l-8.718-4.657v-8.114l8.718 4.651v8.12z" fill="#F7971D"/><path d="M38.904 67.948l-9.1-4.846V54.57l9.1 4.857v8.52zm-8.488-5.12l7.75 4.025.05-7.075-7.825-4.235.025 7.286z" fill="#fff"/><path d="M56.642 79.937l-11.707-6.241V62.2l11.707 6.242v11.494z" fill="#565656"/><path d="M56.13 78.98l-12.375-6.504V60.128l12.375 6.575V78.98zm-11.667-6.967l10.948 5.84v-10.61L44.463 61.4v10.614z" fill="#fff"/><path d="M54.96 77.118l-8.724-4.657v-8.114l8.724 4.656v8.115z" fill="#F7971D"/><path d="M54.487 76.3l-9.1-4.858v-8.515l9.1 4.857v8.515zm-8.492-5.146l7.75 4.024.05-7.075-7.82-4.234.02 7.285z" fill="#fff"/><path d="M81.662 73.356l-12.404 6.581V67.588l12.404-6.503v12.271zm-11.666 5.32l10.923-5.84V62.223l-10.943 5.84.02 10.615z" fill="#FFBE2E"/><path d="M80.02 72.296l-9.105 4.857v-8.52l9.105-4.857v8.52zm-8.537 3.885l7.824-4.235-.05-7.074-7.75 4.023-.024 7.286zM95.358 66.02L82.953 72.6V60.251l12.405-6.504V66.02zm-11.666 5.314l10.943-5.845V54.87l-10.943 5.84v10.625z" fill="#FFBE2E"/><path d="M93.716 64.96l-9.1 4.856v-8.52l9.1-4.858v8.521zm-8.538 3.884l7.825-4.235-.05-7.075-7.73 4.024-.045 7.286zm23.595-9.565l-12.405 6.58V53.511l12.405-6.499V59.28zm-11.667 5.315l10.933-5.84V48.139l-10.943 5.845.01 10.61z" fill="#FFBE2E"/><path d="M107.125 58.214l-9.1 4.857v-8.52l9.1-4.858v8.52zm-8.537 3.89l7.824-4.235-.05-7.08-7.75 4.029-.024 7.285zM82.09 110.799l-12.4 6.581v-12.349l12.4-6.504V110.8zm-11.667 5.299l10.948-5.84V99.664l-10.948 5.84v10.594z" fill="#FFBE2E"/><path d="M80.447 109.739l-9.1 4.857v-8.521l9.1-4.857v8.521zm-8.513 3.884l7.825-4.214-.055-7.074-7.75 3.987-.02 7.301zm23.851-10.162l-12.4 6.581V97.694l12.4-6.504v12.271zm-11.667 5.321l10.949-5.845v-10.61l-10.949 5.84v10.615z" fill="#FFBE2E"/><path d="M94.143 102.402l-9.1 4.857v-8.52l9.1-4.858v8.521zm-8.538 3.884l7.87-4.234-.075-7.05-7.75 4.024-.045 7.26zm23.594-9.565l-12.404 6.581V90.953l12.404-6.498V96.72zm-11.666 5.315l10.943-5.84V85.582l-10.943 5.845v10.609z" fill="#FFBE2E"/><path d="M107.537 95.656l-9.105 4.857v-8.52l9.105-4.858v8.521zm-8.538 3.89l7.825-4.235-.05-7.08-7.75 4.03L99 99.545zM82.24 127.778l-12.405 6.576v-12.349l12.405-6.504v12.277zm-11.666 5.3l10.943-5.84v-10.599l-10.944 5.84v10.599z" fill="#FFBE2E"/><path d="M80.598 126.713l-9.105 4.857v-8.52l9.105-4.857v8.52zm-8.538 3.885l7.855-4.209-.05-7.075-7.76 3.988-.045 7.296zm23.876-10.162l-12.405 6.581v-12.349l12.405-6.504v12.272zm-11.667 5.32l10.944-5.845v-10.61l-10.944 5.84v10.615z" fill="#FFBE2E"/><path d="M94.293 119.376l-9.105 4.857v-8.521l9.105-4.857v8.521zm-8.537 3.885l7.824-4.235-.05-7.075-7.75 4.024-.024 7.286zm23.589-9.566l-12.4 6.581v-12.348l12.4-6.494v12.261zm-11.662 5.316l10.944-5.84v-10.615l-10.944 5.824v10.631z" fill="#FFBE2E"/><path d="M107.703 112.63l-9.1 4.858v-8.521l9.1-4.857v8.52zm-8.538 3.89l7.87-4.234-.05-7.075-7.755 4.024-.065 7.285zM82.05 153.767l-12.4 6.581v-21.651l12.404-6.499-.005 21.569zm-11.677 5.315l10.943-5.84V133.32l-10.943 5.845v19.917z" fill="#FFBE2E"/><path d="M80.417 152.702l-9.1 4.857v-17.823l9.1-4.862v17.828zm-8.538 3.89l7.82-4.24-.055-16.377-7.75 4.023-.015 16.594zm24.238-10.702l-12.4 6.581v-21.652l12.394-6.488.005 21.559zm-11.682 5.315l10.943-5.84v-19.923l-10.943 5.845v19.918z" fill="#FFBE2E"/><path d="M94.48 144.825l-9.101 4.857v-17.829l9.1-4.857v17.829zm-8.538 3.884l7.824-4.234-.06-16.383-7.75 4.024-.014 16.593zm23.659-9.56l-12.405 6.581v-21.646l12.4-6.504.005 21.569zm-11.666 5.315l10.943-5.839v-19.918l-10.948 5.84.005 19.917z" fill="#FFBE2E"/><path d="M107.954 138.084l-9.1 4.857v-17.823l9.1-4.857v17.823zm-8.538 3.89l7.825-4.235-.06-16.382-7.725 4.003-.04 16.614z" fill="#FFBE2E"/><path d="M56.12 97.112L13.802 75.203V63.71L56.12 85.618v11.494z" fill="#565656"/><path d="M55.607 96.155l-42.99-22.171V61.635l43.01 22.249-.02 12.271zM13.33 73.515l41.554 21.508v-10.61L13.33 62.906v10.61z" fill="#fff"/><path d="M54.437 94.293L15.103 73.968v-8.114l39.334 20.32v8.118z" fill="#F7971D"/><path d="M53.965 93.459l-39.71-20.51v-8.52l39.71 20.525v8.505zM14.862 72.672l38.36 19.691.05-7.075-38.43-19.886.02 7.27z" fill="#fff"/><path d="M109.24 77.653L69.63 98.09V85.74l39.61-20.38v12.292zM70.373 96.845l38.168-19.717V66.513L70.373 86.256v10.589z" fill="#FFBE2E"/><path d="M107.597 76.588l-36.31 18.734V86.8l36.31-18.734v8.52zM71.879 94.349l35.035-18.111-.05-7.075-34.985 17.9v7.286z" fill="#FFBE2E"/><path d="M25.268 98.784l-11.707-6.24V81.048l11.707 6.236v11.5z" fill="#565656"/><path d="M24.76 97.827l-12.404-6.503v-12.35l12.405 6.582v12.271zm-11.64-6.972l10.918 5.846V86.086l-10.919-5.84v10.61z" fill="#fff"/><path d="M23.586 95.96l-8.719-4.652V83.19l8.719 4.657v8.114z" fill="#F7971D"/><path d="M23.113 95.147l-9.1-4.858v-8.52l9.1 4.857v8.52zm-8.487-5.12l7.754 4.024.05-7.075-7.804-4.24v7.291z" fill="#fff"/><path d="M40.772 107.192l-11.707-6.241V89.456l11.707 6.241v11.495z" fill="#565656"/><path d="M40.24 106.235l-12.38-6.504V87.382l12.38 6.591v12.262zm-11.647-6.972l10.948 5.845v-10.62l-10.948-5.84v10.615z" fill="#fff"/><path d="M39.09 104.372l-8.72-4.656v-8.12l8.72 4.657v8.119z" fill="#F7971D"/><path d="M38.617 103.554l-9.1-4.857v-8.52l9.1 4.856v8.521zm-8.492-5.145l7.754 4.023.05-7.074-7.825-4.235.02 7.286z" fill="#fff"/><path d="M56.356 115.543l-11.707-6.242V97.807l11.707 6.241v11.495z" fill="#565656"/><path d="M55.843 114.586l-12.405-6.504V95.733l12.405 6.581v12.272zm-11.666-6.967l10.943 5.84v-10.61l-10.943-5.845v10.615z" fill="#fff"/><path d="M54.668 112.723l-8.718-4.656v-8.115l8.718 4.652v8.119z" fill="#F7971D"/><path d="M54.201 111.905l-9.105-4.857v-8.52l9.105 4.856v8.521zm-8.492-5.12l7.749 4.024.05-7.075-7.825-4.234.026 7.285z" fill="#fff"/><path d="M25.268 115.651l-11.707-6.242V97.915l11.707 6.241v11.495z" fill="#565656"/><path d="M24.76 114.694l-12.404-6.504V95.841l12.405 6.581v12.272zm-11.64-6.967l10.943 5.84v-10.615l-10.944-5.84v10.615z" fill="#fff"/><path d="M23.586 112.831l-8.719-4.656v-8.115l8.719 4.652v8.119z" fill="#F7971D"/><path d="M23.113 112.013l-9.1-4.857v-8.52l9.1 4.856v8.521zm-8.487-5.119l7.754 4.023.05-7.075-7.804-4.209v7.261z" fill="#fff"/><path d="M40.772 124.058l-11.707-6.241v-11.495l11.707 6.242v11.494z" fill="#565656"/><path d="M40.24 123.101l-12.38-6.488v-12.349l12.38 6.576v12.261zm-11.647-6.967l10.948 5.84v-10.609l-10.948-5.845v10.614z" fill="#fff"/><path d="M39.09 121.239l-8.72-4.657v-8.114l8.72 4.651v8.12z" fill="#F7971D"/><path d="M38.617 120.42l-9.1-4.836v-8.541l9.1 4.857v8.52zm-8.492-5.145l7.754 4.024.05-7.075-7.825-4.235.02 7.286z" fill="#fff"/><path d="M56.356 132.409l-11.707-6.241v-11.495l11.707 6.241v11.495z" fill="#565656"/><path d="M55.843 131.452l-12.405-6.499v-12.348l12.405 6.581v12.266zm-11.666-6.967l10.943 5.84V119.7l-10.943-5.829v10.614z" fill="#fff"/><path d="M54.668 129.589l-8.718-4.651v-8.119l8.718 4.656v8.114z" fill="#F7971D"/><path d="M54.201 128.771l-9.105-4.857v-8.515l9.105 4.857v8.515zm-8.492-5.119l7.749 4.023.05-7.075-7.825-4.234.026 7.286z" fill="#fff"/><path d="M25.268 142.941L13.561 136.7v-21.461l11.707 6.241v21.461z" fill="#565656"/><path d="M24.76 141.984l-12.404-6.503v-22.31l12.405 6.581v22.232zm-11.64-6.972l10.943 5.846v-20.582l-10.944-5.839v20.575z" fill="#fff"/><path d="M23.586 140.117l-8.719-4.652v-18.08l8.719 4.651v18.081z" fill="#F7971D"/><path d="M23.113 139.304l-9.1-4.857v-18.488l9.1 4.858v18.487zm-8.487-5.12l7.75 4.039.05-17.041-7.8-4.25v17.252z" fill="#fff"/><path d="M40.003 151.004l-11.706-6.241v-21.461l11.706 6.241v21.461z" fill="#565656"/><path d="M39.491 150.057l-12.405-6.503v-22.31l12.405 6.58v22.233zm-11.667-6.977l10.944 5.84v-20.581l-10.944-5.84v20.581z" fill="#fff"/><path d="M38.316 148.185l-8.719-4.657v-18.08l8.719 4.656v18.081z" fill="#F7971D"/><path d="M37.849 147.366l-9.106-4.857v-18.482l9.106 4.858v18.481zm-8.493-5.119l7.75 4.023.05-17.041-7.825-4.234.025 17.252z" fill="#fff"/><path d="M55.532 159.355l-11.707-6.241v-21.461l11.707 6.241v21.461z" fill="#565656"/><path d="M55.02 158.398l-12.4-6.499v-22.31l12.4 6.576v22.233zm-11.667-6.967l10.948 5.83V136.68l-10.948-5.825v20.576z" fill="#fff"/><path d="M53.85 156.535l-8.724-4.651v-18.086l8.724 4.657v18.08z" fill="#F7971D"/><path d="M53.377 155.717l-9.12-4.857v-18.482l9.1 4.857.02 18.482zm-8.492-5.145l7.75 4.024.05-17.042-7.82-4.234.02 17.252zm18.637-86.956l-.095-.051L61.549.875 7.093 31.493l-.156.278 56.6 31.386v.355h.191L61.463.33l49.429 35.353.909.613-.101.174-48.178 27.147zM6.812 32.111L61.517.431l2.01 62.774 47.71-26.864L61.795.874l1.727 62.742-56.71-31.505z" fill="#fff"/><path d="M63.718 203.898l-.286-.165L6.53 170.474l.281-138.82.452-.253L61.518.431l2.2 62.856v140.611zM6.922 170.237l56.42 32.982V63.529L61.232.874 7.253 31.854l-.331 138.383z" fill="#fff"/><path d="M63.342 203.826V63.286h.2l47.963-27.058.296.067.04 140.323-.1.056-48.4 27.152zm.391-140.297v139.623l47.711-26.756-.04-139.746-47.67 26.879zM22.029 190.428c.421 0 .763-.203.763-.453s-.342-.453-.763-.453c-.422 0-.764.203-.764.453s.342.453.764.453zm3.365-2.445a.345.345 0 01.158.514.328.328 0 01-.158.124 1.147 1.147 0 01-1.08 0 .338.338 0 010-.638 1.182 1.182 0 011.08 0zm-5.534 3.077a.345.345 0 01.158.514.327.327 0 01-.159.124 1.18 1.18 0 01-1.085 0 .327.327 0 01-.158-.124.346.346 0 01.158-.514 1.168 1.168 0 011.085 0zm-3.376-.622c.422 0 .764-.203.764-.453s-.342-.453-.764-.453c-.421 0-.763.203-.763.453s.342.453.763.453zm3.37-2.444c.064.024.12.067.158.124a.345.345 0 01-.158.514 1.192 1.192 0 01-1.085 0 .344.344 0 010-.638 1.157 1.157 0 011.085 0zm2.808-1.672a.338.338 0 010 .638 1.181 1.181 0 01-1.08 0 .344.344 0 010-.638 1.17 1.17 0 011.08 0zm-8.463 1.672a.326.326 0 01.165.121.34.34 0 01-.165.517 1.179 1.179 0 01-1.08.015.333.333 0 01-.158-.124.345.345 0 01.158-.514 1.149 1.149 0 011.08-.015zm2.828-1.672a.328.328 0 01.158.124.346.346 0 01-.158.514 1.182 1.182 0 01-1.08 0 .337.337 0 01-.165-.517.321.321 0 01.165-.121 1.17 1.17 0 011.08 0zm2.827-1.673a.344.344 0 010 .638 1.156 1.156 0 01-1.085 0 .333.333 0 01-.158-.124.345.345 0 01.158-.514 1.192 1.192 0 011.085 0zm-8.477 1.673a.327.327 0 01.158.124.345.345 0 01-.158.514 1.192 1.192 0 01-1.085 0 .345.345 0 01-.158-.514.328.328 0 01.158-.124 1.18 1.18 0 011.085 0zm2.822-1.673a.337.337 0 010 .638 1.146 1.146 0 01-1.08 0 .327.327 0 01-.158-.124.345.345 0 01.158-.514 1.181 1.181 0 011.08 0zm2.828-1.662a.345.345 0 01.158.514.328.328 0 01-.158.124 1.147 1.147 0 01-1.08 0 .338.338 0 010-.638 1.182 1.182 0 011.08 0zm-9.045 2.419c.421 0 .763-.203.763-.453s-.342-.453-.763-.453c-.422 0-.764.203-.764.453s.342.453.764.453zm3.369-2.419a.344.344 0 010 .638 1.17 1.17 0 01-1.08 0 .338.338 0 010-.638 1.157 1.157 0 011.08 0zm2.823-1.698a.337.337 0 01.165.517.32.32 0 01-.165.121 1.17 1.17 0 01-1.08 0 .327.327 0 01-.158-.124.345.345 0 01.158-.514 1.182 1.182 0 011.08 0zm-9.014 2.444c.42 0 .762-.202.762-.452s-.341-.453-.763-.453-.763.203-.763.453.341.452.763.452zm3.364-2.444a.337.337 0 01.165.517.32.32 0 01-.165.121 1.17 1.17 0 01-1.08 0 .32.32 0 01-.165-.121.338.338 0 01.165-.517 1.182 1.182 0 011.08 0zm2.286-.9c.42 0 .762-.203.762-.453s-.341-.452-.763-.452-.763.202-.763.452.341.453.763.453zm-7.936.9a.345.345 0 010 .638 1.17 1.17 0 01-1.08 0 .32.32 0 01-.165-.121.338.338 0 01.165-.517 1.182 1.182 0 011.08 0zm2.822-1.672a.332.332 0 01.229.319.34.34 0 01-.063.198.326.326 0 01-.166.121 1.146 1.146 0 01-1.08 0 .333.333 0 01-.157-.124.345.345 0 01.158-.514 1.182 1.182 0 011.08 0zm2.828-1.672c.301.18.301.463 0 .638a1.146 1.146 0 01-1.08 0c-.301-.175-.301-.458 0-.638a1.182 1.182 0 011.08 0zm-5.65 0c.296.18.296.463 0 .638a1.146 1.146 0 01-1.08 0c-.301-.175-.301-.458 0-.638a1.182 1.182 0 011.08 0zm2.286-.9c.42 0 .762-.203.762-.453s-.341-.453-.763-.453-.763.203-.763.453.341.453.763.453zm62.782 39.119a.333.333 0 01.163.124.347.347 0 010 .396.339.339 0 01-.163.124 1.192 1.192 0 01-1.085 0 .338.338 0 01-.225-.322.35.35 0 01.062-.198.332.332 0 01.163-.124 1.192 1.192 0 011.085 0zm2.822-1.667c.302.175.302.458 0 .638a1.17 1.17 0 01-1.08 0c-.296-.18-.296-.463 0-.638a1.145 1.145 0 011.08 0zm2.828-1.667a.345.345 0 01.158.514.333.333 0 01-.158.124 1.17 1.17 0 01-1.08 0 .327.327 0 01-.165-.121.34.34 0 01.165-.517 1.146 1.146 0 011.08 0zm2.808-1.677a.333.333 0 01.157.124.346.346 0 01-.158.514 1.192 1.192 0 01-1.084 0 .344.344 0 010-.638 1.18 1.18 0 011.084 0zm2.304-.901c.422 0 .764-.202.764-.452s-.342-.453-.764-.453c-.421 0-.763.203-.763.453s.342.452.763.452zm3.366-2.444a.344.344 0 010 .638 1.147 1.147 0 01-1.08 0 .338.338 0 010-.638 1.182 1.182 0 011.08 0zm2.827-1.667a.332.332 0 01.163.124.347.347 0 010 .396.33.33 0 01-.163.123 1.18 1.18 0 01-1.085 0 .33.33 0 01-.163-.123.347.347 0 010-.396.332.332 0 01.163-.124 1.192 1.192 0 011.085 0zm2.823-1.677a.344.344 0 010 .643 1.182 1.182 0 01-1.08 0 .332.332 0 01-.163-.124.344.344 0 01.163-.519 1.182 1.182 0 011.08 0zm2.284-.895c.422 0 .764-.203.764-.453s-.342-.453-.764-.453c-.421 0-.763.203-.763.453s.342.453.763.453zm2.828-1.673c.422 0 .763-.202.763-.452s-.341-.453-.763-.453-.763.203-.763.453.341.452.763.452zm2.828-1.672c.421 0 .763-.203.763-.453s-.342-.452-.764-.452c-.421 0-.763.202-.763.452s.342.453.763.453zm3.364-2.444a.334.334 0 01.158.124.35.35 0 010 .39.334.334 0 01-.158.124 1.146 1.146 0 01-1.08 0 .327.327 0 01-.165-.121.34.34 0 01.166-.517 1.182 1.182 0 011.08 0zm2.286-.9c.421 0 .763-.203.763-.453s-.342-.453-.763-.453c-.422 0-.764.203-.764.453s.342.453.764.453zm3.364-2.444a.333.333 0 01.225.321.342.342 0 01-.225.322 1.178 1.178 0 01-1.079 0 .342.342 0 01-.225-.322.333.333 0 01.225-.321 1.168 1.168 0 011.079 0zm-42.387 21.728a.332.332 0 01.163.124.347.347 0 010 .396.33.33 0 01-.163.123 1.17 1.17 0 01-1.08 0 .33.33 0 01-.163-.123.347.347 0 010-.396.332.332 0 01.163-.124 1.182 1.182 0 011.08 0zm2.827-1.667c.297.175.297.458 0 .638a1.17 1.17 0 01-1.08 0c-.3-.18-.3-.463 0-.638a1.146 1.146 0 011.08 0zm2.828-1.667a.345.345 0 01.158.514.333.333 0 01-.158.124 1.18 1.18 0 01-1.085 0 .333.333 0 01-.158-.124.345.345 0 01.158-.514 1.156 1.156 0 011.085 0zm2.822-1.677a.326.326 0 01.166.121.34.34 0 01-.166.517 1.182 1.182 0 01-1.08 0 .344.344 0 010-.638 1.17 1.17 0 011.08 0zm2.828-1.672a.327.327 0 01.158.124.346.346 0 01-.158.514 1.157 1.157 0 01-1.08 0 .337.337 0 01-.165-.517.321.321 0 01.165-.121 1.17 1.17 0 011.08 0zm2.808-1.673a.345.345 0 01.158.514.327.327 0 01-.159.124 1.156 1.156 0 01-1.084 0 .327.327 0 01-.158-.124.345.345 0 01.158-.514 1.192 1.192 0 011.084 0zm2.304-.9c.422 0 .764-.203.764-.453s-.342-.453-.764-.453c-.421 0-.763.203-.763.453s.342.453.763.453zm3.366-2.444a.343.343 0 010 .643 1.182 1.182 0 01-1.08 0 .344.344 0 010-.643 1.181 1.181 0 011.08 0zm2.285-.895c.421 0 .763-.203.763-.453s-.342-.453-.763-.453c-.422 0-.764.203-.764.453s.342.453.764.453zm2.827-1.673c.422 0 .763-.202.763-.452s-.341-.453-.763-.453-.763.203-.763.453.341.452.763.452zm2.822-1.672c.422 0 .764-.203.764-.453s-.342-.452-.764-.452c-.421 0-.763.202-.763.452s.342.453.763.453zm3.37-2.444a.333.333 0 01.158.124.35.35 0 010 .39.333.333 0 01-.158.124 1.146 1.146 0 01-1.08 0 .327.327 0 01-.165-.121.34.34 0 010-.396.333.333 0 01.166-.121 1.182 1.182 0 011.08 0zm2.823-1.672a.326.326 0 01.165.121.34.34 0 01-.165.517 1.146 1.146 0 01-1.08 0 .333.333 0 01-.158-.124.345.345 0 01.158-.514 1.181 1.181 0 011.08 0zm2.828-1.672a.336.336 0 01.224.321c0 .071-.021.14-.062.198a.332.332 0 01-.162.124 1.182 1.182 0 01-1.08 0 .332.332 0 01-.163-.124.347.347 0 010-.396c.04-.057.097-.1.163-.123a1.17 1.17 0 011.08 0zm2.827-1.672a.327.327 0 01.163.123.35.35 0 010 .396.329.329 0 01-.163.124 1.182 1.182 0 01-1.08 0 .338.338 0 01-.225-.322.336.336 0 01.225-.321 1.174 1.174 0 011.08 0zm-42.388 21.733c.297.175.297.458 0 .638a1.17 1.17 0 01-1.08 0c-.3-.18-.3-.463 0-.638a1.146 1.146 0 011.08 0zm2.823-1.667a.333.333 0 01.228.319.34.34 0 01-.063.198.327.327 0 01-.165.121 1.17 1.17 0 01-1.08 0 .333.333 0 01-.158-.124.346.346 0 01.158-.514 1.145 1.145 0 011.08 0zm2.827-1.677a.333.333 0 01.158.124.346.346 0 01-.158.514 1.182 1.182 0 01-1.08 0 .333.333 0 01-.228-.319.34.34 0 01.063-.198.327.327 0 01.166-.121 1.17 1.17 0 011.08 0zm2.828-1.672a.333.333 0 01.158.124.346.346 0 01-.158.514 1.168 1.168 0 01-1.085 0 .344.344 0 010-.638 1.18 1.18 0 011.085 0zm2.822-1.673a.337.337 0 010 .638 1.147 1.147 0 01-1.08 0 .327.327 0 01-.157-.124.345.345 0 01.158-.514 1.181 1.181 0 011.08 0zm2.828-1.667a.332.332 0 01.163.124.346.346 0 010 .396.33.33 0 01-.163.123 1.17 1.17 0 01-1.08 0 .33.33 0 01-.163-.123.346.346 0 010-.396.332.332 0 01.163-.124 1.181 1.181 0 011.08 0zm2.808-1.677a.344.344 0 010 .643 1.18 1.18 0 01-1.086 0 .332.332 0 01-.162-.124.344.344 0 01.162-.519 1.18 1.18 0 011.085 0zm2.842-1.667c.301.175.301.458 0 .638a1.182 1.182 0 01-1.08 0c-.296-.18-.296-.463 0-.638a1.145 1.145 0 011.08 0zm2.828-1.672a.327.327 0 01.157.124.345.345 0 01-.158.514 1.182 1.182 0 01-1.08 0 .337.337 0 01-.165-.517.32.32 0 01.166-.121 1.146 1.146 0 011.08 0zm2.827-1.673a.344.344 0 010 .638 1.17 1.17 0 01-1.08 0 .338.338 0 010-.638 1.182 1.182 0 011.08 0zm2.823-1.672a.333.333 0 01.228.319.34.34 0 01-.063.198.327.327 0 01-.166.121 1.146 1.146 0 01-1.08 0 .333.333 0 01-.157-.124.346.346 0 01.158-.514 1.182 1.182 0 011.08 0zm2.284-.9c.422 0 .764-.203.764-.453s-.342-.453-.764-.453c-.421 0-.763.203-.763.453s.342.453.763.453zm2.828-1.673c.422 0 .763-.202.763-.452s-.341-.453-.763-.453-.763.203-.763.453.341.452.763.452zm2.828-1.667c.421 0 .763-.202.763-.452s-.342-.453-.764-.453c-.421 0-.763.203-.763.453s.342.452.763.452zm2.822-1.672c.422 0 .763-.202.763-.453 0-.25-.341-.452-.763-.452s-.763.202-.763.452c0 .251.341.453.763.453zM56.637 212.83a.344.344 0 010 .638 1.17 1.17 0 01-1.08 0 .327.327 0 01-.165-.121.34.34 0 010-.396.333.333 0 01.165-.121 1.146 1.146 0 011.08 0zm2.828-1.677a.333.333 0 01.157.124.345.345 0 01-.157.514 1.182 1.182 0 01-1.08 0 .332.332 0 01-.229-.319.34.34 0 01.063-.198.326.326 0 01.166-.121 1.17 1.17 0 011.08 0zm2.822-1.672a.321.321 0 01.165.121.338.338 0 01-.165.517 1.157 1.157 0 01-1.08 0 .345.345 0 01-.158-.514.327.327 0 01.158-.124 1.17 1.17 0 011.08 0zm2.827-1.673a.345.345 0 01.158.514.327.327 0 01-.158.124 1.146 1.146 0 01-1.08 0 .321.321 0 01-.165-.121.338.338 0 01.166-.517 1.182 1.182 0 011.08 0zm2.828-1.667a.333.333 0 01.163.124.347.347 0 010 .396.33.33 0 01-.163.123 1.17 1.17 0 01-1.08 0 .33.33 0 01-.163-.123.346.346 0 010-.396.332.332 0 01.163-.124 1.182 1.182 0 011.08 0zm2.822-1.677a.344.344 0 010 .643 1.182 1.182 0 01-1.08 0 .332.332 0 01-.162-.124.344.344 0 01.163-.519 1.182 1.182 0 011.08 0zm2.828-1.667c.296.175.296.458 0 .638a1.182 1.182 0 01-1.08 0c-.301-.18-.301-.463 0-.638a1.145 1.145 0 011.08 0zm2.285-.901c.422 0 .763-.202.763-.452s-.341-.453-.763-.453-.763.203-.763.453.341.452.763.452zm3.365-2.444a.337.337 0 01.165.517.32.32 0 01-.165.121 1.17 1.17 0 01-1.08 0 .327.327 0 01-.158-.124.346.346 0 01.158-.514 1.182 1.182 0 011.08 0zm2.828-1.672a.333.333 0 01.157.124.35.35 0 010 .39.333.333 0 01-.158.124 1.146 1.146 0 01-1.08 0 .326.326 0 01-.165-.121.34.34 0 01.166-.517 1.182 1.182 0 011.08 0zm2.827-1.672a.333.333 0 01.158.124.345.345 0 01-.158.514 1.145 1.145 0 01-1.08 0 .326.326 0 01-.165-.121.342.342 0 010-.396.326.326 0 01.165-.121 1.182 1.182 0 011.08 0zm2.823-1.672a.336.336 0 01.224.321c0 .071-.021.14-.062.198a.332.332 0 01-.163.124 1.182 1.182 0 01-1.08 0 .332.332 0 01-.162-.124.347.347 0 010-.396c.04-.057.097-.1.163-.123a1.17 1.17 0 011.08 0zm2.827-1.672a.33.33 0 01.163.123.346.346 0 010 .396.332.332 0 01-.163.124 1.182 1.182 0 01-1.08 0 .333.333 0 01-.163-.124.347.347 0 010-.396.33.33 0 01.163-.123 1.17 1.17 0 011.08 0zm2.285-.896c.422 0 .763-.202.763-.453 0-.25-.341-.452-.763-.452s-.763.202-.763.452c0 .251.341.453.763.453zm2.828-1.672c.421 0 .763-.203.763-.453s-.342-.453-.764-.453c-.421 0-.763.203-.763.453s.342.453.763.453zM53.8 211.132a.332.332 0 01.162.124.347.347 0 010 .396.33.33 0 01-.163.123 1.18 1.18 0 01-1.084 0 .33.33 0 01-.164-.123.347.347 0 010-.396.332.332 0 01.163-.124 1.192 1.192 0 011.085 0zm2.274-.895c.422 0 .764-.203.764-.453s-.342-.453-.764-.453c-.421 0-.763.203-.763.453s.342.453.763.453zm3.366-2.444a.333.333 0 01.157.124.346.346 0 01-.158.514 1.182 1.182 0 01-1.08 0 .327.327 0 01-.165-.121.343.343 0 010-.396.327.327 0 01.165-.121 1.146 1.146 0 011.08 0zm-8.478 1.672a.345.345 0 01.158.514.333.333 0 01-.158.124 1.17 1.17 0 01-1.08 0 .327.327 0 01-.165-.121.34.34 0 010-.396.333.333 0 01.165-.121 1.146 1.146 0 011.08 0zm2.285-.9c.421 0 .763-.203.763-.453s-.342-.453-.763-.453c-.422 0-.764.203-.764.453s.342.453.764.453zm2.827-1.672c.422 0 .764-.203.764-.453s-.342-.453-.764-.453c-.421 0-.763.203-.763.453s.342.453.763.453zm-7.94.9a.327.327 0 01.166.121.342.342 0 010 .396.327.327 0 01-.166.121 1.182 1.182 0 01-1.08 0 .333.333 0 01-.157-.124.346.346 0 01.157-.514 1.146 1.146 0 011.08 0zm2.828-1.652a.345.345 0 01.158.514.333.333 0 01-.158.124 1.17 1.17 0 01-1.08 0 .327.327 0 01-.165-.121.34.34 0 010-.396.333.333 0 01.165-.121 1.182 1.182 0 011.08 0zm2.838-1.693a.344.344 0 010 .638 1.157 1.157 0 01-1.086 0 .327.327 0 01-.157-.124.345.345 0 01.157-.514 1.192 1.192 0 011.085 0zm-8.488 1.693a.345.345 0 01.158.514.333.333 0 01-.158.124 1.18 1.18 0 01-1.085 0 .333.333 0 01-.158-.124.346.346 0 01.158-.514 1.192 1.192 0 011.085 0zm2.822-1.693a.337.337 0 01.165.517.329.329 0 01-.165.122 1.158 1.158 0 01-1.08 0 .335.335 0 01-.157-.125.346.346 0 01.157-.514 1.182 1.182 0 011.08 0zm2.828-1.672a.345.345 0 01.158.514.333.333 0 01-.158.124 1.146 1.146 0 01-1.08 0 .327.327 0 01-.165-.121.34.34 0 010-.396.333.333 0 01.165-.121 1.182 1.182 0 011.08 0zm-8.478 1.672a.344.344 0 010 .639 1.157 1.157 0 01-1.08 0 .338.338 0 010-.639 1.182 1.182 0 011.08 0zm2.828-1.672a.345.345 0 01.158.514.333.333 0 01-.158.124 1.156 1.156 0 01-1.085 0 .333.333 0 01-.158-.124.346.346 0 01.158-.514 1.192 1.192 0 011.085 0zm2.822-1.672a.332.332 0 01.163.124.344.344 0 01-.163.519 1.183 1.183 0 01-.54.132c-.187 0-.372-.046-.54-.132a.344.344 0 010-.643 1.182 1.182 0 011.08 0zm-8.477 1.672a.332.332 0 01.228.319.34.34 0 01-.063.198.326.326 0 01-.165.121 1.145 1.145 0 01-1.08 0 .333.333 0 01-.158-.124.345.345 0 01.158-.514 1.182 1.182 0 011.08 0zm2.827-1.672a.344.344 0 010 .643 1.183 1.183 0 01-.54.132c-.187 0-.372-.046-.54-.132a.343.343 0 010-.643 1.181 1.181 0 011.08 0zm2.286-.895c.42 0 .763-.203.763-.453s-.342-.453-.764-.453c-.421 0-.763.203-.763.453s.342.453.763.453zm-7.936.895a.344.344 0 010 .643 1.18 1.18 0 01-1.085 0 .34.34 0 01-.163-.519.332.332 0 01.163-.124 1.18 1.18 0 011.085 0zm2.823-1.652a.332.332 0 01.163.124.346.346 0 010 .396.338.338 0 01-.163.124 1.182 1.182 0 01-1.08 0 .338.338 0 01-.225-.322.35.35 0 01.062-.198.332.332 0 01.163-.124 1.182 1.182 0 011.08 0zm2.285-.915c.421 0 .763-.203.763-.453s-.342-.453-.763-.453c-.422 0-.764.203-.764.453s.342.453.764.453zm-8.478 1.672c.422 0 .764-.203.764-.453s-.342-.453-.764-.453c-.421 0-.763.203-.763.453s.342.453.763.453zm3.37-2.444a.333.333 0 01.158.124.345.345 0 01-.158.514 1.192 1.192 0 01-1.085 0 .344.344 0 010-.638 1.156 1.156 0 011.085 0zm2.823-1.673a.337.337 0 01.165.517.328.328 0 01-.165.122 1.181 1.181 0 01-1.08 0 .345.345 0 010-.639 1.158 1.158 0 011.08 0zm-8.503 1.652a.333.333 0 01.229.319.34.34 0 01-.064.198.327.327 0 01-.165.121 1.146 1.146 0 01-1.08 0 .333.333 0 01-.158-.124.345.345 0 01.158-.514 1.182 1.182 0 011.08 0zm2.828-1.672a.332.332 0 01.163.124.344.344 0 01-.163.519 1.17 1.17 0 01-1.08 0 .344.344 0 010-.643 1.17 1.17 0 011.08 0zm2.828-1.672a.33.33 0 01.162.123.347.347 0 010 .396.333.333 0 01-.163.124 1.192 1.192 0 01-1.085 0 .332.332 0 01-.163-.124.347.347 0 010-.396.33.33 0 01.163-.123 1.18 1.18 0 011.085 0zm-8.478 1.672a.343.343 0 010 .643 1.18 1.18 0 01-1.085 0 .344.344 0 010-.643 1.18 1.18 0 011.085 0zm2.822-1.672a.33.33 0 01.163.123.347.347 0 010 .396.332.332 0 01-.163.124 1.182 1.182 0 01-1.08 0 .332.332 0 01-.163-.124.347.347 0 010-.396.33.33 0 01.163-.123 1.17 1.17 0 011.08 0zm2.286-.896c.42 0 .763-.202.763-.452s-.342-.453-.764-.453c-.421 0-.763.203-.763.453s.342.452.763.452zm-7.936.896a.33.33 0 01.163.123.346.346 0 010 .396.332.332 0 01-.163.124 1.182 1.182 0 01-1.08 0 .332.332 0 01-.163-.124.347.347 0 010-.396.33.33 0 01.163-.123 1.17 1.17 0 011.08 0zm2.828-1.667a.333.333 0 01.157.124.345.345 0 01-.157.514 1.192 1.192 0 01-1.085 0 .344.344 0 010-.638 1.156 1.156 0 011.085 0zm2.822-1.673a.338.338 0 010 .638 1.17 1.17 0 01-1.08 0 .327.327 0 01-.158-.124.345.345 0 01.158-.514 1.157 1.157 0 011.08 0zm-8.492 1.673a.338.338 0 010 .638 1.181 1.181 0 01-1.08 0 .344.344 0 010-.638 1.147 1.147 0 011.08 0zm2.842-1.673a.345.345 0 01.158.514.328.328 0 01-.158.124 1.17 1.17 0 01-1.08 0 .338.338 0 010-.638 1.158 1.158 0 011.08 0zm2.828-1.672a.344.344 0 010 .638 1.18 1.18 0 01-1.085 0 .333.333 0 01-.158-.124.345.345 0 01.158-.514 1.192 1.192 0 011.085 0zm78.11 3.375a1.169 1.169 0 011.08 0c.296.181.301.464 0 .644a1.18 1.18 0 01-1.08 0 .33.33 0 01-.171-.121.343.343 0 010-.402.33.33 0 01.171-.121zm3.907-1.656a.333.333 0 01.225.321.342.342 0 01-.225.322 1.178 1.178 0 01-1.079 0 .342.342 0 01-.225-.322.333.333 0 01.225-.321 1.168 1.168 0 011.079 0zm2.828-1.673a.335.335 0 01.163.124.35.35 0 010 .396.335.335 0 01-.163.124 1.182 1.182 0 01-1.08 0 .344.344 0 01-.225-.322.344.344 0 01.225-.322 1.185 1.185 0 011.08 0zm-9.562 1.678a1.157 1.157 0 011.079 0 .339.339 0 01.225.321.34.34 0 01-.225.322 1.179 1.179 0 01-1.084 0 .328.328 0 01-.162-.125.348.348 0 01.003-.396.332.332 0 01.164-.122zm3.37-.901c.421 0 .763-.202.763-.452s-.342-.453-.763-.453c-.422 0-.764.203-.764.453s.342.452.764.452zm3.365-2.444a.337.337 0 01.165.517.321.321 0 01-.165.121 1.174 1.174 0 01-1.08 0 .327.327 0 01-.158-.124.345.345 0 01.158-.514 1.147 1.147 0 011.08 0zm2.827-1.692a.333.333 0 01.158.124.345.345 0 01-.158.514 1.182 1.182 0 01-1.08 0 .337.337 0 01-.165-.517.321.321 0 01.165-.121 1.148 1.148 0 011.08 0zm2.827-1.652a.333.333 0 01.158.124.345.345 0 01-.158.514 1.19 1.19 0 01-1.084 0 .333.333 0 01-.158-.124.345.345 0 01.158-.514 1.19 1.19 0 011.084 0zm-15.217 5.017a1.17 1.17 0 011.085 0 .333.333 0 01.158.124.345.345 0 01-.158.514 1.18 1.18 0 01-1.08 0 .332.332 0 01-.231-.317c0-.072.021-.141.062-.199a.326.326 0 01.164-.122zm3.913-1.673a.34.34 0 01.217.319c0 .07-.021.138-.059.195a.331.331 0 01-.158.124 1.174 1.174 0 01-1.08 0 .339.339 0 01-.165-.516.329.329 0 01.165-.122 1.147 1.147 0 011.08 0zm2.837-1.692a.327.327 0 01.158.124.345.345 0 01-.158.514 1.19 1.19 0 01-1.085 0 .345.345 0 010-.638 1.16 1.16 0 011.085 0zm2.813-1.652a.327.327 0 01.165.121.34.34 0 01-.165.517 1.185 1.185 0 01-1.08 0 .333.333 0 01-.158-.124.345.345 0 01.158-.514 1.18 1.18 0 011.08 0zm2.827-1.672a.333.333 0 01.158.124.345.345 0 01-.158.514 1.147 1.147 0 01-1.08 0 .333.333 0 01-.228-.319.34.34 0 01.063-.198.327.327 0 01.165-.121 1.174 1.174 0 011.08 0zm-15.212 5.016a1.182 1.182 0 011.08 0 .337.337 0 01.165.517.321.321 0 01-.165.121 1.17 1.17 0 01-1.08 0 .32.32 0 01-.166-.121.34.34 0 01.166-.517zm3.907-1.692a.321.321 0 01.165.121.34.34 0 01-.165.517 1.182 1.182 0 01-1.08 0 .345.345 0 010-.638 1.148 1.148 0 011.08 0zm2.828-1.652a.337.337 0 01.217.319.337.337 0 01-.217.319 1.185 1.185 0 01-1.08 0 .327.327 0 01-.165-.121.341.341 0 010-.396.327.327 0 01.165-.121 1.18 1.18 0 011.08 0zm13.826-2.125a.333.333 0 01.158.124.345.345 0 01-.158.514 1.147 1.147 0 01-1.08 0 .333.333 0 01-.229-.319c0-.071.023-.141.064-.198a.327.327 0 01.165-.121 1.168 1.168 0 011.08 0zm-3.365-.901c.421 0 .763-.202.763-.452s-.342-.453-.763-.453c-.422 0-.764.203-.764.453s.342.452.764.452zm-2.828-1.667c.422 0 .764-.202.764-.452s-.342-.453-.764-.453c-.421 0-.763.203-.763.453s.342.452.763.452zm5.65 7.137c.422 0 .764-.203.764-.453s-.342-.453-.764-.453c-.421 0-.763.203-.763.453s.342.453.763.453zm-3.365.9a1.169 1.169 0 011.08 0 .329.329 0 01.163.124.35.35 0 010 .396.329.329 0 01-.163.124 1.18 1.18 0 01-1.08 0 .338.338 0 01-.225-.322.338.338 0 01.225-.322zm-7.081-5.016a.333.333 0 01.158.124.345.345 0 01-.158.514 1.157 1.157 0 01-1.085 0 .345.345 0 010-.638 1.183 1.183 0 011.085 0zm2.813-1.672a.321.321 0 01.165.121.337.337 0 010 .395.321.321 0 01-.165.121 1.148 1.148 0 01-1.08 0 .327.327 0 01-.158-.124.345.345 0 010-.389.327.327 0 01.158-.124 1.168 1.168 0 011.08 0z" fill="#fff"/><path d="M18.312 168.472l-4.71-2.788V141.3l4.71 2.789v24.383z" fill="#565656"/><path d="M17.459 166.898l-5.465-3.231v-25.274l5.465 3.231v25.274zm-4.716-3.679l3.967 2.346v-23.493l-3.967-2.346v23.493zm63.154 23.293l-5.47 3.236v-25.284l5.47-3.221v25.269zm-4.716 1.904l3.963-2.347v-23.493l-3.963 2.341v23.499zm13.515-6.664l-5.464 3.237v-25.274l5.464-3.231v25.268zm-4.716 1.904l3.968-2.346v-23.493l-3.968 2.341v23.498zm13.525-6.498l-5.47 3.257v-25.3l5.47-3.231v25.274zm-4.716 1.898l3.963-2.346v-23.493l-3.963 2.346v23.493zm12.988-6.416l-5.47 3.231v-25.268l5.47-3.237v25.274zm-4.716 1.899l3.947-2.357v-23.483l-3.962 2.346.015 23.494zm12.535-5.706l-5.464 3.236v-25.274l5.464-3.231v25.269zm-4.716 1.903l3.968-2.346v-23.478l-3.968 2.341v23.483z" fill="#fff"/><path d="M24.977 172.501l-4.716-2.789v-24.383l4.716 2.789v24.383z" fill="#565656"/><path d="M24.123 170.922l-5.48-3.232v-25.268l5.47 3.231.01 25.269zm-4.716-3.674l3.963 2.362v-23.515l-3.963-2.341v23.494z" fill="#fff"/><path d="M56.858 190.093l-4.716-2.789v-24.383l4.716 2.794v24.378z" fill="#565656"/><path d="M55.999 188.519l-5.464-3.232v-25.274l5.464 3.237v25.269zm-4.71-3.679l3.967 2.346v-23.494l-3.968-2.346v23.494z" fill="#fff"/><path d="M49.646 185.653l-4.716-2.789V158.48l4.716 2.789v24.384z" fill="#565656"/><path d="M48.777 184.078l-5.47-3.236v-25.269l5.47 3.231v25.274zm-4.7-3.663l3.962 2.346v-23.514l-3.963-2.341v23.509zm-3.807-15.858l-13.37-6.571v24.178l12.983 7.543.386-25.15z" fill="#fff"/><path d="M39.596 165.339l-12.103-5.953v23.385l11.757 6.833.346-24.265zM26.9 148.313l15.745 8.078v8.161L26.9 156.705v-8.392z" fill="#565656"/><path d="M26.905 147.809l14.49 7.435v7.162l-14.49-7.203v-7.394zm-.628-1.029v8.803l15.745 7.852v-8.587l-15.744-8.078v.01z" fill="#fff"/></svg>