<svg width="119" height="220" viewBox="0 0 119 217" fill="none" xmlns="http://www.w3.org/2000/svg"><g clip-path="url(#clip0)"><path d="M25.042 62.208L12.64 55.706V43.36l12.402 6.58v12.268zm-11.664-6.965l10.94 5.839V50.469l-10.94-5.839v10.613z" fill="#fff"/><path d="M23.4 59.528l-9.103-4.856v-8.519L23.4 51.01v8.519zm-8.49-5.144l7.747 4.074.05-7.073-7.823-4.244.025 7.243zm25.632 16.23L28.14 64.117V51.77l12.402 6.58v12.263zm-11.664-6.965l10.941 5.838V58.88l-10.941-5.844V63.65z" fill="#fff"/><path d="M38.895 67.934l-9.098-4.846v-8.53l9.098 4.857v8.519zm-8.486-5.119l7.748 4.023.05-7.073-7.823-4.234.026 7.284zm25.709 16.148L43.745 72.46V60.115l12.373 6.574v12.274zm-11.665-6.965L55.4 77.836V67.23l-10.947-5.844v10.613z" fill="#fff"/><path d="M54.476 76.283l-9.099-4.856v-8.514l9.099 4.856v8.514zm-8.491-5.145l7.748 4.023.05-7.073-7.818-4.234.02 7.284z" fill="#fff"/><path d="M81.645 73.34l-12.402 6.58V67.573l12.402-6.503v12.27zM69.98 78.66l10.92-5.84V62.209l-10.94 5.839.02 10.612z" fill="#F7971D"/><path d="M80.003 72.28L70.9 77.138v-8.52l9.103-4.855v8.519zm-8.536 3.884l7.823-4.233-.05-7.074-7.748 4.023-.025 7.284zm23.871-10.159l-12.403 6.58V60.237l12.403-6.502v12.269zm-11.665 5.314l10.941-5.844V54.857l-10.94 5.839v10.623z" fill="#F7971D"/><path d="M93.696 64.945L84.597 69.8v-8.519l9.099-4.856v8.519zm-8.536 3.884l7.823-4.234-.05-7.073-7.728 4.023-.045 7.284zm23.589-9.563l-12.402 6.58V53.498l12.402-6.497v12.264zM97.085 64.58l10.931-5.839V48.129l-10.941 5.843.01 10.608z" fill="#F7971D"/><path d="M107.102 58.2l-9.098 4.857v-8.519l9.098-4.856v8.519zm-8.536 3.89l7.823-4.234-.05-7.078-7.748 4.028-.025 7.284zm-16.494 48.684l-12.397 6.58v-12.346l12.397-6.503v12.269zm-11.664 5.299l10.946-5.839V99.642l-10.946 5.839v10.592z" fill="#F7971D"/><path d="M80.43 109.715l-9.099 4.856v-8.519l9.099-4.856v8.519zm-8.511 3.883l7.823-4.213-.055-7.073-7.748 3.987-.02 7.299zm23.845-10.159l-12.397 6.579V97.672l12.397-6.502v12.269zM84.1 108.758l10.946-5.844V92.307L84.1 98.145v10.613z" fill="#F7971D"/><path d="M94.122 102.379l-9.098 4.856v-8.519l9.098-4.856v8.519zm-8.535 3.884l7.867-4.234-.075-7.047-7.747 4.022-.046 7.259zm23.589-9.563l-12.403 6.579V90.933l12.403-6.497V96.7zm-11.665 5.314l10.942-5.839V85.563l-10.942 5.843v10.608z" fill="#F7971D"/><path d="M107.514 95.635l-9.104 4.856v-8.519l9.104-4.856v8.519zm-8.536 3.889l7.823-4.234-.05-7.078-7.748 4.028-.025 7.284zM82.222 127.75l-12.402 6.574v-12.346l12.402-6.502v12.274zm-11.664 5.299L81.5 127.21v-10.597l-10.94 5.839v10.597z" fill="#F7971D"/><path d="M80.58 126.685l-9.103 4.856v-8.518l9.103-4.856v8.518zm-8.535 3.884l7.853-4.208-.05-7.073-7.758 3.987-.045 7.294zm23.87-10.16l-12.402 6.58v-12.346l12.402-6.502v12.268zm-11.664 5.319l10.941-5.843v-10.608l-10.941 5.839v10.612z" fill="#F7971D"/><path d="M94.273 119.35l-9.103 4.856v-8.519l9.103-4.856v8.519zm-8.536 3.884L93.56 119l-.05-7.073-7.748 4.022-.025 7.285zm23.584-9.564l-12.397 6.58v-12.346l12.397-6.492v12.258zm-11.659 5.314l10.941-5.838v-10.613l-10.94 5.824v10.627z" fill="#F7971D"/><path d="M107.679 112.606l-9.098 4.856v-8.519l9.098-4.856v8.519zm-8.535 3.889l7.868-4.234-.051-7.073-7.752 4.022-.066 7.285zm-17.112 37.238l-12.397 6.58v-21.647l12.402-6.497-.005 21.564zm-11.674 5.314l10.94-5.838V133.29l-10.94 5.844v19.913z" fill="#F7971D"/><path d="M80.4 152.669l-9.099 4.856v-17.82l9.099-4.861v17.825zm-8.536 3.889l7.818-4.239-.056-16.374-7.747 4.023-.015 16.59zm24.232-10.701l-12.398 6.58V130.79l12.393-6.487.005 21.554zm-11.68 5.314l10.942-5.838v-19.918l-10.942 5.843v19.913z" fill="#F7971D"/><path d="M94.459 144.793l-9.098 4.856v-17.825l9.098-4.856v17.825zm-8.536 3.884l7.823-4.234-.06-16.379-7.748 4.023-.015 16.59zm23.654-9.558l-12.402 6.579v-21.641l12.397-6.503.005 21.565zm-11.664 5.314l10.941-5.839v-19.913l-10.946 5.839.005 19.913z" fill="#F7971D"/><path d="M107.93 138.054l-9.098 4.856v-17.82l9.098-4.856v17.82zm-8.536 3.889l7.823-4.234-.06-16.379-7.722 4.002-.04 16.611z" fill="#F7971D"/><path d="M55.595 96.134l-42.98-22.166V61.622l43 22.243-.02 12.269zM13.328 73.5l41.544 21.502V84.395L13.328 62.892V73.5z" fill="#fff"/><path d="M53.953 93.439L14.252 72.934v-8.519l39.703 20.52v8.504zM14.86 72.656l38.35 19.687.05-7.074-38.42-19.882.02 7.269z" fill="#fff"/><path d="M109.216 77.635L69.614 98.069V85.722l39.602-20.376v12.29zM70.357 96.823l38.161-19.712V66.498l-38.16 19.739v10.586z" fill="#F7971D"/><path d="M107.574 76.57L71.271 95.3v-8.518l36.303-18.73v8.519zm-35.71 17.76l35.026-18.11-.05-7.073-34.977 17.896v7.285z" fill="#F7971D"/><path d="M24.756 97.806l-12.402-6.502V78.957l12.402 6.58v12.269zm-11.64-6.97l10.917 5.843V86.067l-10.916-5.839v10.607z" fill="#fff"/><path d="M23.109 95.126L14.01 90.27v-8.52l9.098 4.857v8.519zm-8.486-5.119l7.753 4.023.05-7.073-7.803-4.24v7.29zm25.607 16.204l-12.376-6.502V87.363l12.377 6.59v12.258zm-11.643-6.97l10.946 5.844V94.467L28.587 88.63v10.61z" fill="#fff"/><path d="M38.609 103.531l-9.098-4.856v-8.519l9.098 4.857v8.518zm-8.49-5.144l7.752 4.023.05-7.073-7.823-4.234.02 7.284zm25.712 16.173l-12.402-6.502V95.712l12.402 6.58v12.268zm-11.664-6.965l10.941 5.839v-10.607l-10.94-5.844v10.612z" fill="#fff"/><path d="M54.19 111.88l-9.104-4.856v-8.519l9.103 4.857v8.518zm-8.491-5.118l7.747 4.023.05-7.074-7.822-4.233.025 7.284zm-20.943 7.906l-12.402-6.502V95.82l12.402 6.58v12.268zm-11.64-6.965l10.942 5.839v-10.613l-10.941-5.838v10.612z" fill="#fff"/><path d="M23.109 111.988l-9.098-4.856v-8.518l9.098 4.856v8.518zm-8.486-5.118l7.753 4.023.05-7.073-7.803-4.208v7.258zm25.607 16.204l-12.376-6.487v-12.346l12.377 6.575v12.258zm-11.643-6.965l10.946 5.839V111.34l-10.946-5.843v10.612z" fill="#fff"/><path d="M38.609 120.394l-9.098-4.836v-8.539l9.098 4.856v8.519zm-8.49-5.144l7.752 4.023.05-7.074-7.823-4.233.02 7.284zm25.712 16.173l-12.402-6.497V112.58l12.402 6.579v12.264zm-11.664-6.965l10.941 5.839v-10.623l-10.94-5.829v10.613z" fill="#fff"/><path d="M54.19 128.743l-9.104-4.856v-8.514l9.103 4.856v8.514zm-8.491-5.118l7.747 4.022.05-7.073-7.822-4.234.025 7.285zm-20.943 18.328l-12.402-6.502v-22.305l12.402 6.579v22.228zm-11.64-6.97l10.942 5.844V120.25l-10.941-5.839v20.572z" fill="#fff"/><path d="M23.109 139.273l-9.098-4.856v-18.483l9.098 4.856v18.483zm-8.486-5.118l7.748 4.038.05-17.038-7.798-4.249v17.249zm24.86 15.869l-12.402-6.502v-22.305l12.402 6.579v22.228zm-11.664-6.975l10.94 5.838v-20.576l-10.94-5.839v20.577z" fill="#fff"/><path d="M37.84 147.334l-9.103-4.856V124l9.104 4.856v18.478zm-8.49-5.118l7.747 4.022.05-17.037-7.822-4.234.025 17.249zm25.658 16.147l-12.397-6.497v-22.305l12.397 6.574v22.228zm-11.664-6.965l10.946 5.828V136.65l-10.946-5.824v20.572z" fill="#fff"/><path d="M53.366 155.683l-9.118-4.856v-18.478l9.098 4.856.02 18.478zm-8.49-5.144l7.747 4.023.05-17.038-7.818-4.234.02 17.249zm18.633-86.937l-.096-.051L61.535.874 7.091 31.487l-.155.278 56.588 31.38v.354h.19L61.45.33l49.418 35.346.909.612-.101.175-48.167 27.14zM6.81 32.105L61.505.432l2.009 62.759 47.7-26.858L61.782.874l1.727 62.728L6.81 32.105z" fill="#fff"/><path d="M63.704 203.853l-.286-.165L6.53 170.436l.281-138.79.452-.251L61.505.432l2.2 62.841v140.58zM6.921 170.2l56.407 32.974V63.514L61.219.875 7.252 31.847 6.921 170.2z" fill="#fff"/><path d="M63.328 203.781V63.273h.2L111.48 36.22l.297.067.04 140.292-.101.056-48.388 27.146zm.391-140.266v139.592l47.701-26.75-.04-139.715-47.66 26.873zM22.024 190.386c.422 0 .763-.203.763-.453s-.341-.453-.763-.453c-.421 0-.763.203-.763.453s.342.453.763.453zm3.364-2.444a.332.332 0 01.158.124.345.345 0 01-.158.514 1.145 1.145 0 01-1.08 0 .326.326 0 01-.164-.121.342.342 0 010-.396.326.326 0 01.165-.121 1.181 1.181 0 011.08 0zm-5.533 3.076a.345.345 0 01.158.514.333.333 0 01-.158.124 1.18 1.18 0 01-1.085 0 .333.333 0 01-.157-.124.345.345 0 01.157-.514 1.155 1.155 0 011.085 0zm-3.374-.622c.421 0 .763-.203.763-.453s-.341-.453-.763-.453-.763.203-.763.453.341.453.763.453zm3.369-2.444a.345.345 0 01.158.514.333.333 0 01-.158.124 1.18 1.18 0 01-1.085 0 .332.332 0 01-.157-.124.345.345 0 01.157-.514 1.167 1.167 0 011.085 0zm2.807-1.672a.337.337 0 010 .638 1.17 1.17 0 01-1.08 0 .327.327 0 01-.158-.124.345.345 0 01.158-.514 1.181 1.181 0 011.08 0zm-8.461 1.672a.338.338 0 010 .638 1.172 1.172 0 01-1.08.016.344.344 0 010-.638 1.154 1.154 0 011.08-.016zm2.827-1.672a.344.344 0 010 .638 1.17 1.17 0 01-1.08 0 .321.321 0 01-.165-.121.338.338 0 01.166-.517 1.181 1.181 0 011.08 0zm2.827-1.671a.333.333 0 01.158.124.346.346 0 01-.158.514 1.167 1.167 0 01-1.085 0 .344.344 0 010-.638 1.18 1.18 0 011.085 0zm-8.476 1.672a.327.327 0 01.158.124.345.345 0 010 .389.333.333 0 01-.158.124 1.18 1.18 0 01-1.084 0 .333.333 0 01-.158-.124.345.345 0 010-.389.327.327 0 01.158-.124 1.18 1.18 0 011.084 0zm2.822-1.672a.321.321 0 01.165.121.338.338 0 01-.165.517 1.157 1.157 0 01-1.08 0 .344.344 0 010-.638 1.17 1.17 0 011.08 0zm2.827-1.662a.333.333 0 01.158.124.348.348 0 010 .39.333.333 0 01-.158.124 1.145 1.145 0 01-1.08 0 .327.327 0 01-.165-.121.34.34 0 010-.396.333.333 0 01.166-.121 1.181 1.181 0 011.08 0zm-9.043 2.418c.422 0 .763-.203.763-.453s-.341-.453-.763-.453c-.421 0-.763.203-.763.453s.342.453.763.453zm3.37-2.418a.333.333 0 01.157.124.345.345 0 01-.158.514 1.181 1.181 0 01-1.08 0 .332.332 0 01-.228-.319c0-.071.023-.14.064-.198a.326.326 0 01.165-.121 1.145 1.145 0 011.08 0zm2.821-1.698a.337.337 0 01.165.517.32.32 0 01-.165.121 1.17 1.17 0 01-1.08 0 .332.332 0 01-.157-.124.345.345 0 01.158-.514 1.181 1.181 0 011.08 0zm-9.013 2.444c.422 0 .763-.203.763-.453s-.341-.452-.763-.452c-.421 0-.763.202-.763.452s.342.453.763.453zm3.365-2.444a.337.337 0 01.165.517.32.32 0 01-.165.121 1.17 1.17 0 01-1.08 0 .32.32 0 01-.165-.121.338.338 0 01.165-.517 1.181 1.181 0 011.08 0zm2.284-.9c.421 0 .763-.202.763-.452s-.341-.453-.763-.453c-.421 0-.763.203-.763.453s.341.452.763.452zm-7.933.9a.345.345 0 010 .638 1.17 1.17 0 01-1.08 0 .32.32 0 01-.165-.121.338.338 0 01.165-.517 1.181 1.181 0 011.08 0zm2.822-1.671a.32.32 0 01.165.121.338.338 0 01-.165.516 1.146 1.146 0 01-1.08 0 .327.327 0 01-.158-.124.345.345 0 01.158-.513 1.17 1.17 0 011.08 0zm2.826-1.672c.302.18.302.463 0 .638a1.145 1.145 0 01-1.08 0c-.3-.175-.3-.458 0-.638a1.181 1.181 0 011.08 0zm-5.648 0c.296.18.296.463 0 .638a1.145 1.145 0 01-1.08 0c-.301-.175-.301-.458 0-.638a1.181 1.181 0 011.08 0zm2.284-.901c.422 0 .763-.202.763-.452s-.341-.453-.763-.453c-.421 0-.763.203-.763.453s.342.452.763.452zm62.769 39.112a.341.341 0 01.163.519.332.332 0 01-.163.124 1.192 1.192 0 01-1.084 0 .332.332 0 01-.163-.124.347.347 0 010-.395.332.332 0 01.163-.124 1.18 1.18 0 011.084 0zm2.823-1.667c.3.175.3.458 0 .638a1.182 1.182 0 01-1.08 0c-.297-.18-.297-.463 0-.638a1.145 1.145 0 011.08 0zm2.826-1.667a.345.345 0 01.158.514.333.333 0 01-.158.124 1.17 1.17 0 01-1.08 0 .326.326 0 01-.165-.121.34.34 0 01.165-.517 1.145 1.145 0 011.08 0zm2.807-1.677a.344.344 0 010 .638 1.18 1.18 0 01-1.085 0 .333.333 0 01-.158-.124.346.346 0 01.158-.514 1.192 1.192 0 011.085 0zm2.304-.9c.422 0 .764-.203.764-.453s-.342-.452-.764-.452c-.421 0-.763.202-.763.452s.342.453.763.453zm3.365-2.443a.327.327 0 01.157.124.345.345 0 010 .389.327.327 0 01-.157.124 1.146 1.146 0 01-1.08 0 .338.338 0 010-.637 1.17 1.17 0 011.08 0zm2.827-1.667a.34.34 0 01.225.321c0 .071-.022.14-.063.198a.332.332 0 01-.162.124 1.192 1.192 0 01-1.085 0 .332.332 0 01-.163-.124.347.347 0 010-.395.332.332 0 01.163-.124 1.18 1.18 0 011.085 0zm2.821-1.677a.34.34 0 01.163.519.332.332 0 01-.162.124 1.181 1.181 0 01-1.08 0 .332.332 0 01-.163-.124.344.344 0 01.163-.519 1.17 1.17 0 011.08 0zm2.285-.895c.421 0 .763-.203.763-.453s-.342-.453-.763-.453-.763.203-.763.453.342.453.763.453zm2.827-1.672c.421 0 .763-.203.763-.453s-.342-.452-.763-.452c-.422 0-.763.202-.763.452s.341.453.763.453zm2.827-1.672c.421 0 .763-.203.763-.453s-.342-.452-.763-.452c-.422 0-.763.202-.763.452s.341.453.763.453zm3.364-2.443a.333.333 0 01.158.124.346.346 0 01-.158.514 1.157 1.157 0 01-1.08 0 .337.337 0 01-.165-.517.32.32 0 01.165-.121 1.17 1.17 0 011.08 0zm2.285-.901c.421 0 .763-.202.763-.452s-.342-.453-.763-.453c-.422 0-.764.203-.764.453s.342.452.764.452zm3.364-2.443a.338.338 0 01.225.322.338.338 0 01-.225.321 1.185 1.185 0 01-1.08 0 .333.333 0 01-.163-.124.346.346 0 010-.395.333.333 0 01.163-.124 1.182 1.182 0 011.08 0zm-42.379 21.724a.34.34 0 01.163.519.332.332 0 01-.163.124 1.181 1.181 0 01-1.08 0 .332.332 0 01-.162-.124.347.347 0 010-.395.332.332 0 01.163-.124 1.17 1.17 0 011.08 0zm2.827-1.667c.297.175.297.458 0 .638a1.181 1.181 0 01-1.08 0c-.3-.18-.3-.463 0-.638a1.145 1.145 0 011.08 0zm2.827-1.667a.344.344 0 010 .638 1.18 1.18 0 01-1.084 0 .333.333 0 01-.158-.124.346.346 0 01.158-.514 1.155 1.155 0 011.084 0zm2.823-1.677a.332.332 0 01.227.319.34.34 0 01-.063.198.326.326 0 01-.165.121 1.17 1.17 0 01-1.08 0 .333.333 0 01-.157-.124.346.346 0 01.158-.514 1.181 1.181 0 011.08 0zm2.826-1.671a.327.327 0 01.158.124.346.346 0 01-.158.514 1.157 1.157 0 01-1.08 0 .337.337 0 01-.165-.517.32.32 0 01.165-.121 1.17 1.17 0 011.08 0zm2.807-1.672a.327.327 0 01.158.124.345.345 0 010 .389.327.327 0 01-.158.124 1.156 1.156 0 01-1.085 0 .327.327 0 01-.158-.124.345.345 0 010-.389.327.327 0 01.158-.124 1.18 1.18 0 011.085 0zm2.304-.901c.422 0 .764-.202.764-.452s-.342-.453-.764-.453c-.421 0-.763.203-.763.453s.342.452.763.452zm3.365-2.443a.34.34 0 01.163.519.332.332 0 01-.163.124 1.181 1.181 0 01-1.08 0 .332.332 0 01-.163-.124.344.344 0 01.163-.519 1.17 1.17 0 011.08 0zm2.284-.895c.422 0 .763-.203.763-.453s-.341-.453-.763-.453c-.421 0-.763.203-.763.453s.342.453.763.453zm2.827-1.672c.422 0 .763-.203.763-.453s-.341-.452-.763-.452c-.421 0-.763.202-.763.452s.342.453.763.453zm2.822-1.672c.421 0 .763-.203.763-.453s-.342-.452-.763-.452-.763.202-.763.452.342.453.763.453zm3.369-2.443a.333.333 0 01.158.124.346.346 0 01-.158.514 1.157 1.157 0 01-1.08 0 .337.337 0 01-.165-.517.32.32 0 01.166-.121 1.17 1.17 0 011.08 0zm2.822-1.672a.327.327 0 01.165.121.34.34 0 01-.165.517 1.157 1.157 0 01-.54.135c-.188 0-.373-.047-.54-.135a.345.345 0 01-.158-.514.333.333 0 01.158-.124 1.17 1.17 0 011.08 0zm2.827-1.672a.344.344 0 010 .643 1.182 1.182 0 01-1.08 0 .344.344 0 010-.643 1.181 1.181 0 011.08 0zm2.827-1.672a.338.338 0 01.225.322.338.338 0 01-.225.321 1.182 1.182 0 01-1.08 0 .338.338 0 01-.225-.321.338.338 0 01.225-.322 1.185 1.185 0 011.08 0zM59.452 214.45c.296.175.296.458 0 .638a1.181 1.181 0 01-1.08 0c-.301-.18-.301-.463 0-.638a1.145 1.145 0 011.08 0zm2.821-1.667a.332.332 0 01.229.319.34.34 0 01-.064.198.327.327 0 01-.165.121 1.17 1.17 0 01-1.08 0 .333.333 0 01-.157-.124.346.346 0 01.158-.514 1.146 1.146 0 011.08 0zm2.827-1.677a.345.345 0 01.158.514.333.333 0 01-.158.124 1.17 1.17 0 01-1.08 0 .327.327 0 01-.164-.121.34.34 0 01.165-.517 1.181 1.181 0 011.08 0zm2.827-1.672a.344.344 0 010 .638 1.156 1.156 0 01-1.084 0 .327.327 0 01-.158-.124.346.346 0 01.158-.514 1.192 1.192 0 011.084 0zm2.823-1.671a.337.337 0 01.165.516.32.32 0 01-.166.121 1.146 1.146 0 01-1.08 0 .327.327 0 01-.157-.124.346.346 0 010-.389.327.327 0 01.158-.124 1.17 1.17 0 011.08 0zm2.826-1.667a.34.34 0 01.163.519.332.332 0 01-.163.124 1.181 1.181 0 01-1.08 0 .332.332 0 01-.162-.124.347.347 0 010-.395.332.332 0 01.162-.124 1.181 1.181 0 011.08 0zm2.807-1.677a.341.341 0 01.163.519.333.333 0 01-.163.124 1.192 1.192 0 01-1.085 0 .332.332 0 01-.163-.124.346.346 0 010-.395.332.332 0 01.163-.124 1.18 1.18 0 011.085 0zm2.842-1.667c.301.175.301.458 0 .638a1.181 1.181 0 01-1.08 0c-.296-.18-.296-.463 0-.638a1.145 1.145 0 011.08 0zm2.827-1.672a.345.345 0 01.158.514.333.333 0 01-.159.124 1.17 1.17 0 01-1.079 0 .326.326 0 01-.165-.121.34.34 0 01.165-.517 1.157 1.157 0 011.08 0zm2.827-1.672a.344.344 0 010 .638 1.17 1.17 0 01-1.08 0 .326.326 0 01-.165-.121.34.34 0 01.165-.517 1.181 1.181 0 011.08 0zm2.821-1.671a.338.338 0 010 .638 1.157 1.157 0 01-1.08 0 .345.345 0 01-.158-.514.333.333 0 01.159-.124 1.17 1.17 0 011.08 0zm2.285-.901c.421 0 .763-.202.763-.452s-.342-.453-.763-.453-.763.203-.763.453.342.452.763.452zm2.827-1.671c.421 0 .763-.203.763-.453s-.342-.453-.763-.453c-.422 0-.763.203-.763.453s.341.453.763.453zm2.827-1.667c.421 0 .763-.203.763-.453s-.342-.452-.763-.452c-.422 0-.763.202-.763.452s.341.453.763.453zm2.821-1.672c.422 0 .764-.203.764-.453s-.342-.452-.763-.452c-.422 0-.764.202-.764.452s.342.453.764.453zm-41.835 20.957a.345.345 0 01.158.514.333.333 0 01-.158.124 1.17 1.17 0 01-1.08 0 .327.327 0 01-.165-.121.34.34 0 01.165-.517 1.146 1.146 0 011.08 0zm2.827-1.677a.345.345 0 01.158.514.333.333 0 01-.158.124 1.17 1.17 0 01-1.08 0 .327.327 0 01-.165-.121.34.34 0 01.165-.517 1.182 1.182 0 011.08 0zm2.821-1.671a.338.338 0 010 .638 1.157 1.157 0 01-1.08 0 .345.345 0 01-.158-.514.327.327 0 01.159-.124 1.17 1.17 0 011.08 0zm2.827-1.672a.327.327 0 01.158.124.345.345 0 010 .389.327.327 0 01-.158.124 1.147 1.147 0 01-1.08 0 .338.338 0 010-.637 1.17 1.17 0 011.08 0zm2.827-1.667a.34.34 0 01.163.519.332.332 0 01-.163.124 1.181 1.181 0 01-1.08 0 .332.332 0 01-.162-.124.347.347 0 010-.395.332.332 0 01.163-.124 1.181 1.181 0 011.08 0zm2.822-1.677a.34.34 0 01.163.519.332.332 0 01-.163.124 1.181 1.181 0 01-1.08 0 .332.332 0 01-.162-.124.344.344 0 01.162-.519 1.17 1.17 0 011.08 0zm2.827-1.667c.296.175.296.458 0 .638a1.181 1.181 0 01-1.08 0c-.3-.18-.3-.463 0-.638a1.145 1.145 0 011.08 0zm2.284-.9c.422 0 .764-.203.764-.453s-.342-.452-.763-.452c-.422 0-.764.202-.764.452s.342.453.764.453zm3.365-2.444a.337.337 0 010 .638 1.17 1.17 0 01-1.08 0 .333.333 0 01-.158-.124.346.346 0 01.158-.514 1.181 1.181 0 011.08 0zm2.827-1.671a.333.333 0 01.157.124.346.346 0 01-.157.514 1.157 1.157 0 01-1.08 0 .337.337 0 01-.165-.517.32.32 0 01.165-.121 1.17 1.17 0 011.08 0zm2.827-1.672a.332.332 0 01.157.124.345.345 0 01-.157.514 1.157 1.157 0 01-1.08 0 .337.337 0 010-.638 1.17 1.17 0 011.08 0zm2.821-1.672a.344.344 0 010 .643 1.181 1.181 0 01-1.08 0 .344.344 0 010-.643 1.181 1.181 0 011.08 0zm2.827-1.672a.344.344 0 010 .643 1.181 1.181 0 01-1.08 0 .344.344 0 010-.643 1.181 1.181 0 011.08 0zm2.285-.895c.421 0 .763-.203.763-.453s-.342-.452-.763-.452c-.422 0-.763.202-.763.452s.341.453.763.453zm2.827-1.672c.421 0 .763-.203.763-.453s-.342-.452-.763-.452c-.422 0-.763.202-.763.452s.341.453.763.453zm-41.851 20.932a.336.336 0 01.225.321.35.35 0 01-.062.198.332.332 0 01-.163.124 1.192 1.192 0 01-1.085 0 .332.332 0 01-.163-.124.347.347 0 010-.396c.04-.057.098-.1.163-.123a1.18 1.18 0 011.085 0zm2.274-.895c.422 0 .764-.203.764-.453s-.342-.453-.764-.453c-.421 0-.763.203-.763.453s.342.453.763.453zm3.365-2.444a.344.344 0 010 .638 1.169 1.169 0 01-1.08 0 .326.326 0 01-.165-.121.34.34 0 01.165-.517 1.145 1.145 0 011.08 0zm-8.477 1.672a.333.333 0 01.159.124.345.345 0 01-.158.514 1.181 1.181 0 01-1.08 0 .333.333 0 01-.228-.319.34.34 0 01.063-.198.327.327 0 01.165-.121 1.145 1.145 0 011.08 0zm2.286-.9c.421 0 .763-.203.763-.453s-.342-.453-.764-.453c-.421 0-.763.203-.763.453s.342.453.764.453zm2.826-1.672c.422 0 .764-.203.764-.453s-.342-.452-.764-.452c-.421 0-.763.202-.763.452s.342.453.763.453zm-7.938.9a.332.332 0 01.228.319.34.34 0 01-.063.198.327.327 0 01-.165.121 1.169 1.169 0 01-1.08 0 .333.333 0 01-.157-.124.346.346 0 01.157-.514 1.145 1.145 0 011.08 0zm2.826-1.651a.333.333 0 01.159.124.345.345 0 01-.158.514 1.181 1.181 0 01-1.08 0 .333.333 0 01-.228-.319.34.34 0 01.063-.198.327.327 0 01.165-.121 1.181 1.181 0 011.08 0zm2.838-1.693a.344.344 0 010 .638 1.156 1.156 0 01-1.085 0 .333.333 0 01-.158-.124.346.346 0 01.158-.514 1.192 1.192 0 011.085 0zm-8.486 1.693a.333.333 0 01.158.124.345.345 0 01-.158.514 1.192 1.192 0 01-1.084 0 .344.344 0 010-.638 1.18 1.18 0 011.084 0zm2.822-1.693a.337.337 0 010 .638 1.146 1.146 0 01-1.08 0 .333.333 0 01-.157-.124.346.346 0 01.157-.514 1.181 1.181 0 011.08 0zm2.826-1.671a.327.327 0 01.159.124.344.344 0 01-.158.513 1.146 1.146 0 01-1.08 0 .321.321 0 01-.165-.121.338.338 0 01.165-.516 1.17 1.17 0 011.08 0zm-8.475 1.671a.344.344 0 010 .638 1.145 1.145 0 01-1.08 0 .326.326 0 01-.165-.121.34.34 0 01.166-.517 1.181 1.181 0 011.08 0zm2.827-1.671a.327.327 0 01.158.124.345.345 0 010 .389.327.327 0 01-.158.124 1.156 1.156 0 01-1.084 0 .327.327 0 01-.158-.124.344.344 0 01.157-.513 1.18 1.18 0 011.085 0zm2.822-1.672a.33.33 0 01.163.123.346.346 0 010 .396.332.332 0 01-.163.124 1.181 1.181 0 01-1.08 0 .332.332 0 01-.162-.124.347.347 0 010-.396.33.33 0 01.163-.123 1.17 1.17 0 011.079 0zm-8.476 1.672a.337.337 0 01.165.516.32.32 0 01-.165.121 1.146 1.146 0 01-1.08 0 .327.327 0 01-.157-.124.346.346 0 010-.389.327.327 0 01.158-.124 1.17 1.17 0 011.08 0zm2.827-1.672a.33.33 0 01.163.123.346.346 0 010 .396.332.332 0 01-.163.124 1.181 1.181 0 01-1.08 0 .332.332 0 01-.162-.124.347.347 0 010-.396.33.33 0 01.163-.123 1.17 1.17 0 011.08 0zm2.285-.895c.421 0 .763-.203.763-.453s-.342-.453-.763-.453c-.422 0-.763.203-.763.453s.341.453.763.453zm-7.933.895a.336.336 0 01.224.321c0 .071-.021.14-.062.198a.332.332 0 01-.162.124 1.192 1.192 0 01-1.085 0 .332.332 0 01-.163-.124.347.347 0 010-.396c.04-.057.097-.1.163-.123a1.18 1.18 0 011.085 0zm2.821-1.652a.332.332 0 01.163.124.346.346 0 010 .396.33.33 0 01-.163.123 1.17 1.17 0 01-1.08 0 .33.33 0 01-.162-.123.347.347 0 010-.396.332.332 0 01.163-.124 1.181 1.181 0 011.08 0zm2.285-.915c.421 0 .763-.203.763-.453s-.342-.453-.763-.453c-.422 0-.763.203-.763.453s.341.453.763.453zm-8.476 1.672c.422 0 .764-.203.764-.453s-.342-.453-.764-.453c-.421 0-.763.203-.763.453s.342.453.763.453zm3.37-2.444a.333.333 0 01.157.124.345.345 0 01-.157.514 1.193 1.193 0 01-.543.132c-.188 0-.374-.046-.542-.132a.333.333 0 01-.158-.124.346.346 0 01.158-.514 1.155 1.155 0 011.085 0zm2.821-1.672a.332.332 0 01.229.319.34.34 0 01-.063.198.326.326 0 01-.166.121 1.17 1.17 0 01-1.08 0 .333.333 0 01-.157-.124.346.346 0 01.158-.514 1.145 1.145 0 011.08 0zm-8.5 1.652a.321.321 0 01.165.121.338.338 0 01-.165.516 1.146 1.146 0 01-1.08 0 .327.327 0 01-.158-.124.344.344 0 01.158-.513 1.17 1.17 0 011.08 0zm2.827-1.672a.336.336 0 01.224.321c0 .071-.021.14-.061.198a.332.332 0 01-.163.124 1.181 1.181 0 01-1.08 0 .332.332 0 01-.163-.124.347.347 0 010-.396c.04-.057.098-.1.163-.123a1.17 1.17 0 011.08 0zm2.826-1.672a.341.341 0 01.163.519.332.332 0 01-.163.124 1.192 1.192 0 01-1.084 0 .332.332 0 01-.163-.124.346.346 0 010-.395.332.332 0 01.163-.124 1.18 1.18 0 011.084 0zm-8.475 1.672a.336.336 0 01.225.321.35.35 0 01-.062.198.332.332 0 01-.163.124 1.192 1.192 0 01-1.085 0 .332.332 0 01-.163-.124.347.347 0 010-.396c.04-.057.098-.1.163-.123a1.18 1.18 0 011.085 0zm2.822-1.672a.341.341 0 01.163.519.332.332 0 01-.163.124 1.181 1.181 0 01-1.08 0 .332.332 0 01-.163-.124.347.347 0 010-.395.332.332 0 01.163-.124 1.17 1.17 0 011.08 0zm2.284-.895c.422 0 .764-.203.764-.453s-.342-.453-.764-.453c-.421 0-.763.203-.763.453s.342.453.763.453zm-7.933.895a.341.341 0 01.163.519.332.332 0 01-.163.124 1.181 1.181 0 01-1.08 0 .332.332 0 01-.163-.124.347.347 0 010-.395.332.332 0 01.163-.124 1.17 1.17 0 011.08 0zm2.827-1.667a.344.344 0 010 .638 1.18 1.18 0 01-1.085 0 .333.333 0 01-.158-.124.345.345 0 01.158-.514 1.155 1.155 0 011.085 0zm2.822-1.672a.333.333 0 01.228.319.34.34 0 01-.063.198.327.327 0 01-.165.121 1.17 1.17 0 01-1.08 0 .333.333 0 01-.158-.124.345.345 0 01.158-.514 1.145 1.145 0 011.08 0zm-8.491 1.672a.332.332 0 01.228.319.34.34 0 01-.063.198.326.326 0 01-.165.121 1.181 1.181 0 01-1.08 0 .333.333 0 01-.158-.124.345.345 0 01.158-.514 1.145 1.145 0 011.08 0zm2.842-1.672a.344.344 0 010 .638 1.17 1.17 0 01-1.08 0 .326.326 0 01-.165-.121.34.34 0 010-.396.332.332 0 01.165-.121 1.145 1.145 0 011.08 0zm2.827-1.672a.344.344 0 010 .638 1.18 1.18 0 01-1.085 0 .333.333 0 01-.158-.124.345.345 0 01.158-.514 1.192 1.192 0 011.085 0zm78.093 3.375a1.157 1.157 0 011.08 0c.296.18.301.463 0 .643a1.185 1.185 0 01-1.08 0 .328.328 0 01-.171-.12.338.338 0 01.171-.523zm3.906-1.656a.327.327 0 01.163.123.342.342 0 01.062.198.342.342 0 01-.225.322 1.178 1.178 0 01-1.079 0 .335.335 0 01-.163-.124.35.35 0 010-.396.327.327 0 01.163-.123 1.168 1.168 0 011.079 0zm2.827-1.672a.336.336 0 01.225.321.342.342 0 01-.225.322 1.178 1.178 0 01-1.079 0 .329.329 0 01-.163-.124.35.35 0 010-.395.329.329 0 01.163-.124 1.168 1.168 0 011.079 0zm-9.56 1.677a1.157 1.157 0 011.08 0 .338.338 0 01.225.321.338.338 0 01-.225.322 1.195 1.195 0 01-1.085 0 .333.333 0 01-.162-.125.35.35 0 01.003-.396.332.332 0 01.164-.122zm3.369-.9c.422 0 .764-.203.764-.453s-.342-.453-.764-.453c-.421 0-.763.203-.763.453s.342.453.763.453zm3.364-2.444a.325.325 0 01.166.121.343.343 0 010 .396.325.325 0 01-.166.121 1.178 1.178 0 01-1.079 0 .333.333 0 01-.158-.124.345.345 0 01.158-.514 1.147 1.147 0 011.079 0zm2.827-1.692a.327.327 0 01.158.124.345.345 0 010 .389.327.327 0 01-.158.124 1.167 1.167 0 01-1.079 0 .338.338 0 01-.165-.516.321.321 0 01.165-.121 1.148 1.148 0 011.079 0zm2.827-1.652a.345.345 0 010 .638 1.179 1.179 0 01-1.084 0 .333.333 0 01-.158-.124.345.345 0 01.158-.514 1.19 1.19 0 011.084 0zm-15.214 5.016a1.167 1.167 0 011.085 0 .333.333 0 01.158.124.345.345 0 01-.158.514 1.185 1.185 0 01-1.08 0 .332.332 0 01-.231-.317.332.332 0 01.226-.321zm3.912-1.672a.333.333 0 01.158.124.345.345 0 01-.158.514 1.185 1.185 0 01-1.08 0 .327.327 0 01-.165-.121.343.343 0 010-.396.327.327 0 01.165-.121 1.147 1.147 0 011.08 0zm2.837-1.692a.327.327 0 01.158.124.345.345 0 01-.158.514 1.195 1.195 0 01-1.085 0 .345.345 0 010-.638 1.158 1.158 0 011.085 0zm2.811-1.652a.337.337 0 010 .638 1.167 1.167 0 01-1.079 0 .333.333 0 01-.158-.124.345.345 0 01.158-.514 1.18 1.18 0 011.079 0zm2.827-1.672a.345.345 0 010 .638 1.14 1.14 0 01-1.079 0 .339.339 0 01-.165-.516.329.329 0 01.165-.122 1.18 1.18 0 011.079 0zm-15.208 5.016a1.181 1.181 0 011.08 0 .326.326 0 01.164.121.34.34 0 01-.165.517 1.182 1.182 0 01-1.08 0 .332.332 0 01-.228-.319.34.34 0 01.063-.198.326.326 0 01.165-.121zm3.906-1.692a.321.321 0 01.165.121.338.338 0 01-.165.516 1.17 1.17 0 01-1.08 0 .327.327 0 01-.158-.124.345.345 0 01.158-.513 1.148 1.148 0 011.08 0zm2.827-1.652a.345.345 0 010 .638 1.174 1.174 0 01-1.08 0 .327.327 0 01-.165-.121.34.34 0 01.165-.517 1.185 1.185 0 011.08 0zm13.823-2.124a.333.333 0 01.158.124.345.345 0 01-.158.514 1.159 1.159 0 01-.54.135c-.188 0-.373-.047-.54-.135a.337.337 0 010-.638 1.174 1.174 0 011.08 0zm-3.364-.9c.421 0 .763-.203.763-.453s-.342-.453-.763-.453c-.422 0-.763.203-.763.453s.341.453.763.453zm-2.827-1.667c.421 0 .763-.203.763-.453s-.342-.453-.763-.453c-.422 0-.763.203-.763.453s.341.453.763.453zm5.649 7.135c.421 0 .763-.203.763-.453s-.342-.453-.763-.453c-.422 0-.764.203-.764.453s.342.453.764.453zm-3.365.9a1.169 1.169 0 011.08 0 .338.338 0 01.225.322.344.344 0 01-.225.321 1.17 1.17 0 01-1.08 0 .338.338 0 01-.225-.321.338.338 0 01.225-.322zm-7.079-5.016a.345.345 0 010 .638 1.16 1.16 0 01-1.085 0 .333.333 0 01-.158-.124.345.345 0 01.158-.514 1.193 1.193 0 011.085 0zm2.811-1.671a.32.32 0 01.166.121.338.338 0 01-.166.516 1.14 1.14 0 01-1.079 0 .327.327 0 01-.158-.124.345.345 0 01.158-.513 1.168 1.168 0 011.079 0zm-92.87-14.178l-5.463-3.23v-25.268l5.463 3.23v25.268zm-4.715-3.678l3.967 2.346v-23.488l-3.967-2.346v23.488z" fill="#fff"/><path d="M75.88 186.471l-5.467 3.236v-25.279l5.468-3.22v25.263zm-4.714 1.903l3.962-2.346V162.54l-3.962 2.341v23.493zm13.512-6.661l-5.463 3.235V159.68l5.463-3.231v25.264zm-4.715 1.903l3.967-2.346v-23.488l-3.967 2.34v23.494zm13.522-6.497l-5.468 3.256v-25.294l5.468-3.23v25.268zm-4.715 1.898l3.962-2.346v-23.488l-3.962 2.346v23.488zm12.984-6.415l-5.468 3.231V150.57l5.468-3.236v25.268zM97.04 174.5l3.946-2.356v-23.478l-3.961 2.346.015 23.488zm12.532-5.705l-5.463 3.236v-25.268l5.463-3.23v25.262zm-4.714 1.904l3.966-2.346V144.88l-3.966 2.341v23.478zm-80.74.185l-5.478-3.231V142.39l5.468 3.231.01 25.263zm-4.715-3.673l3.962 2.361v-23.509l-3.962-2.34v23.488zm36.584 21.266l-5.463-3.23v-25.269l5.463 3.236v25.263zm-4.71-3.678l3.967 2.346v-23.489l-3.967-2.345v23.488zm-2.51-.761l-5.468-3.236v-25.263l5.468 3.23v25.269zm-4.7-3.663l3.962 2.346v-23.509l-3.962-2.341v23.504z" fill="#fff"/><path d="M39.388 188.804l-11.993-6.968v-23.082l12.361 6.076-.368 23.974z" stroke="#fff"/><path d="M26.9 147.776l14.486 7.434v7.16L26.9 155.169v-7.393zm-.628-1.028v8.801l15.741 7.85v-8.585l-15.74-8.077v.011z" fill="#fff"/></g><defs><clipPath id="clip0"><path fill="#fff" d="M0 0h119v217H0z"/></clipPath></defs></svg>