<svg width="28" height="29" fill="none" xmlns="http://www.w3.org/2000/svg"><g clip-path="url(#clip0)"><path d="M10.74 2.781c-.002 1.53.242 3.05.723 4.502.242.704.02 1.57-.425 2l-2.16 2.84c1.771 3.293 3.814 5.318 7.106 7.052l2.786-2.08a2.058 2.058 0 012.082-.502c1.467.48 3 .722 4.544.72.541 0 1.06.214 1.443.594.382.38.597.895.598 1.432v4.636a2.02 2.02 0 01-.599 1.431 2.05 2.05 0 01-1.442.594C12.496 26 2 15.584 2 2.781c0-.537.216-1.051.598-1.431A2.05 2.05 0 014.041.756H8.7c.54 0 1.06.214 1.442.594.383.38.598.894.599 1.431z" fill="#fff"/><path d="M1 5.19c0 12.893 10.57 23.383 23.562 23.383.585 0 1.146-.232 1.56-.642.413-.41.646-.967.646-1.548v-4.636c0-.58-.233-1.137-.647-1.548a2.218 2.218 0 00-1.56-.642 14.4 14.4 0 01-4.49-.712 2.242 2.242 0 00-2.245.534l-2.693 2.01c-3.165-1.684-5.173-3.678-6.894-6.844l2.088-2.744c.512-.504.709-1.43.457-2.163a14.06 14.06 0 01-.713-4.448 2.19 2.19 0 00-.647-1.548A2.218 2.218 0 007.864 3H3.205c-.585 0-1.145.232-1.559.642A2.188 2.188 0 001 5.19zm25.437 21.193c0 .493-.198.966-.55 1.315a1.885 1.885 0 01-1.325.546c-12.81 0-23.23-10.342-23.23-23.054 0-.494.198-.967.55-1.316a1.885 1.885 0 011.325-.545h4.658c.498 0 .974.197 1.326.545.351.35.55.822.55 1.316a14.383 14.383 0 00.728 4.553c.237.687-.009 1.47-.383 1.832l-.017.018-2.222 2.922.05.093c1.781 3.313 3.86 5.376 7.173 7.12l.093.05 2.888-2.158a1.9 1.9 0 011.916-.46c1.482.484 3.033.729 4.593.727.497 0 .974.196 1.326.544.352.35.55.822.551 1.316v4.636z" fill="#000" stroke="#050505" stroke-width=".5"/></g><defs><clipPath id="clip0"><path transform="matrix(0 -1 -1 0 28 29)" fill="#fff" d="M0 0h29v28H0z"/></clipPath></defs></svg>