<svg width="131" height="220" viewBox="0 0 131 178" fill="none" xmlns="http://www.w3.org/2000/svg"><path d="M20.856 151.548c.43 0 .78-.202.78-.45 0-.249-.35-.451-.78-.451-.432 0-.78.202-.78.451 0 .248.348.45.78.45zm3.429-2.437a.332.332 0 010 .635 1.184 1.184 0 01-1.1 0 .342.342 0 01-.22-.318.338.338 0 01.22-.317 1.184 1.184 0 011.1 0zm-5.641 3.066a.337.337 0 010 .64 1.184 1.184 0 01-1.1 0 .342.342 0 01-.229-.32.337.337 0 01.23-.32 1.235 1.235 0 011.1 0zm-3.435-.623c.43 0 .78-.202.78-.451 0-.248-.35-.45-.78-.45-.431 0-.78.202-.78.45 0 .249.349.451.78.451zm3.429-2.437a.342.342 0 01.23.32.337.337 0 01-.23.32 1.172 1.172 0 01-1.1 0 .337.337 0 010-.64 1.235 1.235 0 011.1 0zm2.88-1.666a.336.336 0 01.23.32.337.337 0 01-.23.32 1.236 1.236 0 01-1.1 0 .337.337 0 010-.64 1.172 1.172 0 011.1 0zm-8.639 1.666a.342.342 0 01.229.32.337.337 0 01-.23.32 1.208 1.208 0 01-1.105 0 .337.337 0 010-.64 1.248 1.248 0 011.106 0zm2.88-1.666a.336.336 0 01.229.32.337.337 0 01-.23.32 1.236 1.236 0 01-1.1 0 .337.337 0 010-.64 1.172 1.172 0 011.1 0zm2.879-1.666a.332.332 0 010 .634 1.184 1.184 0 01-1.1 0 .332.332 0 010-.634 1.172 1.172 0 011.1 0zM10 147.451a.336.336 0 01.228.32.337.337 0 01-.229.32 1.248 1.248 0 01-1.106 0 .336.336 0 01-.229-.32.337.337 0 01.23-.32 1.209 1.209 0 011.105 0zm2.879-1.666a.335.335 0 01.22.317.338.338 0 01-.22.317 1.222 1.222 0 01-1.106 0 .337.337 0 01-.16-.511c.04-.056.095-.1.16-.123a1.21 1.21 0 011.106 0zm2.88-1.696a.337.337 0 010 .64 1.185 1.185 0 01-1.1 0 .342.342 0 01-.23-.32.337.337 0 01.23-.32 1.235 1.235 0 011.1 0zm-9.219 2.449c.431 0 .78-.202.78-.451s-.349-.451-.78-.451c-.431 0-.78.202-.78.451s.349.451.78.451zm3.43-2.449c.307.172.307.456 0 .634a1.172 1.172 0 01-1.1 0 .337.337 0 01-.16-.51.333.333 0 01.16-.124 1.172 1.172 0 011.1 0zm2.885-1.661a.337.337 0 01.23.321.341.341 0 01-.23.32 1.222 1.222 0 01-1.106 0 .342.342 0 01-.229-.32.337.337 0 01.23-.321 1.26 1.26 0 011.105 0zm-9.195 2.438c.431 0 .78-.202.78-.451s-.349-.451-.78-.451c-.43 0-.78.202-.78.451s.35.451.78.451zm3.436-2.438a.338.338 0 01.229.321.341.341 0 01-.23.32 1.184 1.184 0 01-1.1 0 .342.342 0 01-.228-.32.337.337 0 01.229-.321 1.248 1.248 0 011.1 0zm2.324-.895c.43 0 .78-.202.78-.451 0-.248-.35-.45-.78-.45-.431 0-.78.202-.78.45 0 .249.349.451.78.451zm-8.09.895a.338.338 0 01.23.321.341.341 0 01-.23.32 1.184 1.184 0 01-1.1 0 .342.342 0 01-.229-.32.337.337 0 01.23-.321 1.248 1.248 0 011.1 0zm2.88-1.666a.342.342 0 01.23.32.337.337 0 01-.23.321 1.248 1.248 0 01-1.1 0 .338.338 0 01-.229-.321.341.341 0 01.23-.32 1.184 1.184 0 011.1 0zm2.886-1.666a.332.332 0 010 .635 1.184 1.184 0 01-1.1 0 .332.332 0 010-.635 1.184 1.184 0 011.1 0zm-5.766 0a.337.337 0 01.221.317.34.34 0 01-.22.318 1.184 1.184 0 01-1.1 0 .332.332 0 010-.635 1.184 1.184 0 011.1 0zm2.33-.901c.431 0 .78-.202.78-.451s-.349-.451-.78-.451c-.43 0-.78.202-.78.451s.35.451.78.451zm58.239 39.034a.342.342 0 01.23.32.337.337 0 01-.23.321 1.247 1.247 0 01-1.1 0 .337.337 0 01-.23-.321.341.341 0 01.23-.32 1.184 1.184 0 011.1 0zm2.88-1.666a.342.342 0 01.229.32.337.337 0 01-.23.32 1.235 1.235 0 01-1.1 0 .337.337 0 010-.64 1.184 1.184 0 011.1 0zm2.879-1.666a.332.332 0 010 .634 1.172 1.172 0 01-1.1 0 .337.337 0 010-.634 1.172 1.172 0 011.1 0zm2.88-1.672a.337.337 0 010 .64 1.184 1.184 0 01-1.1 0 .342.342 0 01-.229-.32.337.337 0 01.23-.32 1.235 1.235 0 011.099 0zm2.886-1.667a.342.342 0 01.229.321.341.341 0 01-.23.32 1.248 1.248 0 01-1.105 0 .342.342 0 01-.23-.32.342.342 0 01.23-.321 1.221 1.221 0 011.106 0zm2.856-1.666a.337.337 0 01.16.511.337.337 0 01-.16.124 1.222 1.222 0 01-1.106 0 .337.337 0 01-.22-.318.338.338 0 01.22-.317 1.221 1.221 0 011.106 0zm2.353-.901c.431 0 .78-.202.78-.451s-.349-.45-.78-.45c-.431 0-.78.201-.78.45s.349.451.78.451zm3.43-2.437a.336.336 0 01.229.32.337.337 0 01-.23.32 1.172 1.172 0 01-1.1 0 .337.337 0 010-.64 1.235 1.235 0 011.1 0zm2.329-.896c.432 0 .781-.201.781-.45s-.35-.451-.78-.451c-.432 0-.781.202-.781.451s.35.45.78.45zm2.88-1.666c.431 0 .78-.202.78-.45 0-.249-.349-.451-.78-.451-.43 0-.78.202-.78.451 0 .248.35.45.78.45zm2.886-1.672c.43 0 .78-.202.78-.451 0-.248-.35-.45-.78-.45-.431 0-.78.202-.78.45 0 .249.349.451.78.451zm3.43-2.407a.337.337 0 010 .64 1.209 1.209 0 01-1.106 0 .342.342 0 01-.23-.32.337.337 0 01.23-.32 1.235 1.235 0 011.106 0zm2.879-1.696a.336.336 0 01.23.32.337.337 0 01-.23.32 1.235 1.235 0 01-1.1 0 .337.337 0 010-.64 1.184 1.184 0 011.1 0zm2.874-1.666a.332.332 0 010 .634 1.185 1.185 0 01-1.1 0 .332.332 0 010-.634 1.172 1.172 0 011.1 0zm2.886-1.672a.337.337 0 010 .64 1.187 1.187 0 01-1.1 0 .34.34 0 01-.229-.32.337.337 0 01.229-.32 1.235 1.235 0 011.1 0zM59.02 175.563a.342.342 0 01.228.32.337.337 0 01-.229.32 1.235 1.235 0 01-1.1 0 .337.337 0 010-.64 1.184 1.184 0 011.1 0zm2.879-1.666a.336.336 0 01.22.317.336.336 0 01-.22.317 1.172 1.172 0 01-1.1 0 .332.332 0 010-.634 1.172 1.172 0 011.1 0zm2.88-1.672a.337.337 0 010 .64 1.184 1.184 0 01-1.1 0 .342.342 0 01-.23-.32.337.337 0 01.23-.32 1.235 1.235 0 011.1 0zm2.879-1.667a.338.338 0 01.23.321.341.341 0 01-.23.32 1.249 1.249 0 01-1.1 0 .342.342 0 01-.229-.32.337.337 0 01.23-.321 1.184 1.184 0 011.1 0zm2.88-1.666c.308.178.308.463 0 .635a1.184 1.184 0 01-1.1 0 .336.336 0 01-.22-.318.338.338 0 01.22-.317 1.184 1.184 0 011.1 0zm2.886-1.678a.337.337 0 01.16.511.337.337 0 01-.16.124 1.222 1.222 0 01-1.106 0 .337.337 0 01-.16-.511c.04-.057.095-.1.16-.124a1.222 1.222 0 011.106 0zm2.856-1.66a.336.336 0 01.229.32.336.336 0 01-.23.32 1.208 1.208 0 01-1.105 0 .337.337 0 010-.64 1.234 1.234 0 011.106 0zm2.903-1.666a.337.337 0 010 .64 1.235 1.235 0 01-1.1 0 .342.342 0 01-.229-.32.337.337 0 01.23-.32 1.172 1.172 0 011.099 0zm2.88-1.667a.332.332 0 010 .635 1.185 1.185 0 01-1.1 0 .332.332 0 010-.635 1.184 1.184 0 011.1 0zm2.879-1.666c.308.172.308.457 0 .635a1.184 1.184 0 01-1.1 0 .337.337 0 01-.22-.318.338.338 0 01.22-.317 1.184 1.184 0 011.1 0zm2.88-1.642a.337.337 0 010 .64 1.185 1.185 0 01-1.1 0 .342.342 0 01-.229-.32.337.337 0 01.23-.32 1.235 1.235 0 011.1 0zm2.336-.925c.43 0 .78-.202.78-.451s-.35-.451-.78-.451c-.431 0-.78.202-.78.451s.349.451.78.451zm2.88-1.667c.43 0 .78-.201.78-.45s-.35-.451-.78-.451c-.431 0-.78.202-.78.451s.349.45.78.45zm2.879-1.672c.431 0 .78-.201.78-.45s-.349-.451-.78-.451c-.43 0-.78.202-.78.451s.35.45.78.45zm2.88-1.666c.431 0 .78-.202.78-.451 0-.248-.349-.45-.78-.45-.431 0-.78.202-.78.45 0 .249.349.451.78.451zM56.14 173.897a.337.337 0 01.16.51.337.337 0 01-.16.124 1.208 1.208 0 01-1.106 0 .337.337 0 010-.634 1.209 1.209 0 011.105 0zm2.88-1.672a.337.337 0 010 .64 1.184 1.184 0 01-1.1 0 .342.342 0 01-.23-.32.337.337 0 01.23-.32 1.235 1.235 0 011.1 0zm2.879-1.667a.338.338 0 01.23.321.341.341 0 01-.23.32 1.248 1.248 0 01-1.1 0 .342.342 0 01-.23-.32.337.337 0 01.23-.321 1.184 1.184 0 011.1 0zm2.88-1.666c.307.178.307.463 0 .635a1.184 1.184 0 01-1.1 0c-.308-.172-.308-.457 0-.635a1.184 1.184 0 011.1 0zm2.879-1.678c.308.172.308.457 0 .635a1.184 1.184 0 01-1.1 0 .341.341 0 01-.16-.511c.04-.057.096-.1.16-.124a1.184 1.184 0 011.1 0zm2.88-1.66a.336.336 0 01.23.32.337.337 0 01-.23.32 1.172 1.172 0 01-1.1 0 .337.337 0 010-.64 1.235 1.235 0 011.1 0zm2.886-1.666a.337.337 0 010 .64 1.248 1.248 0 01-1.106 0 .342.342 0 01-.23-.32.337.337 0 01.23-.32 1.208 1.208 0 011.106 0zm2.329-.896c.431 0 .781-.202.781-.45 0-.249-.35-.451-.78-.451-.432 0-.781.202-.781.451 0 .248.35.45.78.45zm3.43-2.437a.337.337 0 01.16.511.337.337 0 01-.16.124 1.184 1.184 0 01-1.1 0c-.307-.178-.307-.463 0-.635a1.184 1.184 0 011.1 0zm2.88-1.642a.337.337 0 010 .64 1.184 1.184 0 01-1.1 0 .342.342 0 01-.23-.32.337.337 0 01.23-.32 1.235 1.235 0 011.1 0zm2.879-1.696a.336.336 0 01.167.517.33.33 0 01-.166.123 1.235 1.235 0 01-1.1 0 .337.337 0 010-.64 1.184 1.184 0 011.1 0zm2.88-1.666a.331.331 0 010 .634 1.184 1.184 0 01-1.1 0 .337.337 0 01-.16-.511.34.34 0 01.16-.123 1.172 1.172 0 011.1 0zm2.886-1.672a.337.337 0 010 .64 1.221 1.221 0 01-1.106 0 .342.342 0 01-.23-.32.337.337 0 01.23-.32 1.248 1.248 0 011.106 0zm2.33-.896c.43 0 .78-.202.78-.451 0-.248-.35-.45-.78-.45-.431 0-.78.202-.78.45 0 .249.349.451.78.451zm2.879-1.666c.431 0 .78-.202.78-.451s-.349-.45-.78-.45c-.43 0-.78.201-.78.45s.35.451.78.451zm-42.699 20.89a.337.337 0 010 .64 1.184 1.184 0 01-1.1 0 .336.336 0 01-.229-.32.337.337 0 01.23-.32 1.235 1.235 0 011.1 0zm2.342-.896c.431 0 .78-.201.78-.45s-.349-.451-.78-.451c-.431 0-.78.202-.78.451s.349.45.78.45zm3.435-2.437a.337.337 0 01.16.511.337.337 0 01-.16.124 1.222 1.222 0 01-1.105 0 .337.337 0 01-.16-.511c.04-.057.095-.1.16-.124a1.222 1.222 0 011.105 0zm-8.645 1.667a.337.337 0 010 .64 1.235 1.235 0 01-1.1 0 .342.342 0 01-.228-.32.337.337 0 01.229-.32 1.172 1.172 0 011.1 0zm2.33-.896c.431 0 .78-.202.78-.45 0-.249-.349-.451-.78-.451-.43 0-.78.202-.78.451 0 .248.35.45.78.45zm2.88-1.672c.431 0 .78-.202.78-.451 0-.248-.349-.45-.78-.45-.431 0-.78.202-.78.45 0 .249.349.451.78.451zm-8.09.901a.343.343 0 01.222.318.339.339 0 01-.221.317 1.184 1.184 0 01-1.1 0c-.308-.172-.308-.457 0-.635a1.184 1.184 0 011.1 0zm2.88-1.66a.331.331 0 01.17.514.333.333 0 01-.17.121 1.184 1.184 0 01-1.1 0 .334.334 0 010-.635 1.185 1.185 0 011.1 0zm2.868-1.678a.342.342 0 01.23.32.337.337 0 01-.23.32 1.172 1.172 0 01-1.1 0 .337.337 0 010-.64 1.235 1.235 0 011.1 0zm-8.627 1.678a.337.337 0 01.16.511.337.337 0 01-.16.124 1.222 1.222 0 01-1.106 0 .337.337 0 01-.22-.318.338.338 0 01.22-.317 1.221 1.221 0 011.106 0zm2.879-1.678a.342.342 0 01.23.32.337.337 0 01-.23.32 1.172 1.172 0 01-1.099 0 .337.337 0 010-.64 1.235 1.235 0 011.1 0zm2.88-1.666a.336.336 0 01.23.32.337.337 0 01-.23.32 1.235 1.235 0 01-1.1 0 .337.337 0 010-.64 1.172 1.172 0 011.1 0zm-8.639 1.666a.342.342 0 01.23.32.337.337 0 01-.23.32 1.21 1.21 0 01-1.105 0 .337.337 0 010-.64 1.248 1.248 0 011.105 0zm2.88-1.666a.337.337 0 010 .64 1.248 1.248 0 01-1.106 0 .336.336 0 01-.229-.32.337.337 0 01.23-.32 1.208 1.208 0 011.105 0zm2.879-1.666a.335.335 0 01.161.123.342.342 0 010 .387.337.337 0 01-.16.124 1.184 1.184 0 01-1.1 0c-.308-.172-.308-.456 0-.634a1.172 1.172 0 011.1 0zm-8.644 1.666a.336.336 0 01.166.517.33.33 0 01-.166.123 1.235 1.235 0 01-1.1 0 .337.337 0 010-.64 1.172 1.172 0 011.1 0zm2.885-1.666a.335.335 0 01.221.317.336.336 0 01-.22.317 1.208 1.208 0 01-1.106 0 .337.337 0 01-.16-.511.331.331 0 01.16-.123 1.21 1.21 0 011.105 0zm2.33-.902c.431 0 .78-.201.78-.45s-.349-.451-.78-.451c-.43 0-.78.202-.78.451s.35.45.78.45zm-8.095.902c.308.178.308.462 0 .634a1.184 1.184 0 01-1.1 0 .337.337 0 010-.634 1.173 1.173 0 011.1 0zm2.88-1.667c.307.172.307.457 0 .635a1.185 1.185 0 01-1.1 0 .337.337 0 01-.16-.511c.04-.057.095-.1.16-.124a1.184 1.184 0 011.1 0zm2.33-.901c.43 0 .78-.202.78-.451 0-.248-.35-.45-.78-.45-.431 0-.781.202-.781.45 0 .249.35.451.78.451zm-8.64 1.666c.431 0 .78-.201.78-.45s-.349-.451-.78-.451c-.43 0-.78.202-.78.451s.35.45.78.45zm3.43-2.437a.342.342 0 01.23.32.337.337 0 01-.23.321 1.185 1.185 0 01-1.1 0 .337.337 0 01-.229-.321.341.341 0 01.23-.32 1.249 1.249 0 011.1 0zm2.88-1.666a.34.34 0 010 .64 1.235 1.235 0 01-1.1 0 .337.337 0 010-.64 1.184 1.184 0 011.1 0zm-8.669 1.648a.34.34 0 01.187.54.344.344 0 01-.187.119 1.221 1.221 0 01-1.106 0 .337.337 0 01-.229-.321.341.341 0 01.23-.32 1.252 1.252 0 011.106-.018zm2.886-1.666a.342.342 0 01.229.32c0 .071-.022.14-.063.198-.041.057-.1.1-.166.123a1.248 1.248 0 01-1.1 0 .342.342 0 01-.23-.321.341.341 0 01.23-.32 1.184 1.184 0 011.1 0zm2.879-1.666c.308.178.308.463 0 .635a1.184 1.184 0 01-1.1 0c-.307-.172-.307-.457 0-.635a1.184 1.184 0 011.1 0zm-8.639 1.666a.342.342 0 01.23.32.337.337 0 01-.23.321 1.262 1.262 0 01-.553.129c-.191 0-.38-.045-.553-.129a.337.337 0 01-.229-.321.341.341 0 01.23-.32 1.222 1.222 0 011.105 0zm2.874-1.666a.337.337 0 01.16.511.343.343 0 01-.16.124 1.222 1.222 0 01-1.106 0 .341.341 0 01-.16-.511c.04-.057.096-.1.16-.124a1.222 1.222 0 011.106 0zm2.336-.901c.43 0 .78-.202.78-.451s-.35-.451-.78-.451c-.431 0-.78.202-.78.451s.349.451.78.451zm-8.095.901c.307.178.307.463 0 .635a1.184 1.184 0 01-1.1 0 .343.343 0 01-.221-.318.338.338 0 01.22-.317 1.184 1.184 0 011.1 0zm2.885-1.666a.337.337 0 01.16.51.337.337 0 01-.16.124 1.208 1.208 0 01-1.106 0 .337.337 0 010-.634 1.209 1.209 0 011.106 0zm2.874-1.672a.337.337 0 010 .64 1.208 1.208 0 01-1.106 0 .342.342 0 01-.229-.32.337.337 0 01.23-.32 1.248 1.248 0 011.105 0zm-8.639 1.672c.308.172.308.456 0 .634a1.172 1.172 0 01-1.1 0 .341.341 0 01-.16-.123.342.342 0 010-.387c.04-.057.095-.1.16-.124a1.185 1.185 0 011.1 0zm2.88-1.672a.336.336 0 01.166.517c-.041.057-.1.1-.166.123a1.184 1.184 0 01-1.1 0 .342.342 0 01-.23-.32.337.337 0 01.23-.32 1.235 1.235 0 011.1 0zm2.885-1.666a.337.337 0 010 .64 1.248 1.248 0 01-1.106 0 .342.342 0 01-.229-.32.337.337 0 01.23-.32 1.21 1.21 0 011.105 0zm76.741 1.719a1.222 1.222 0 011.106 0 .331.331 0 01.169.514.33.33 0 01-.169.12 1.21 1.21 0 01-1.1 0 .342.342 0 01-.165-.509.337.337 0 01.159-.125zm3.436-.901c.431 0 .78-.202.78-.451s-.349-.451-.78-.451c-.431 0-.781.202-.781.451s.35.451.781.451zm3.435-2.437a.337.337 0 010 .64 1.247 1.247 0 01-1.105 0 .34.34 0 01-.23-.32.338.338 0 01.23-.32 1.205 1.205 0 011.105 0zm2.88-1.667a.34.34 0 010 .635 1.184 1.184 0 01-1.1 0 .33.33 0 01-.169-.514.333.333 0 01.169-.121 1.184 1.184 0 011.1 0zm2.88-1.666c.307.172.307.457 0 .635a1.187 1.187 0 01-1.1 0c-.308-.178-.308-.463 0-.635a1.181 1.181 0 011.1 0zm-15.511 5.005a1.236 1.236 0 011.106 0 .335.335 0 01.229.32.337.337 0 01-.229.32 1.175 1.175 0 01-1.1 0 .331.331 0 01-.006-.64zm3.986-1.672a.337.337 0 010 .64 1.235 1.235 0 01-1.1 0 .34.34 0 01-.229-.32.337.337 0 01.229-.32 1.175 1.175 0 011.1 0zm2.885-1.667a.347.347 0 01.161.124.345.345 0 010 .387.34.34 0 01-.161.124 1.218 1.218 0 01-1.105 0 .333.333 0 01-.16-.124.335.335 0 010-.387.34.34 0 01.16-.124 1.219 1.219 0 011.105 0zm2.88-1.666a.333.333 0 01.16.124.335.335 0 010 .387.333.333 0 01-.16.124 1.219 1.219 0 01-1.105 0 .34.34 0 01-.221-.318.34.34 0 01.221-.317 1.218 1.218 0 011.105 0zm2.88-1.672a.34.34 0 01.229.32.337.337 0 01-.229.321 1.184 1.184 0 01-1.1 0 .336.336 0 01-.229-.321.34.34 0 01.229-.32 1.235 1.235 0 011.1 0zm-15.51 5.005a1.235 1.235 0 011.1 0 .337.337 0 010 .64 1.209 1.209 0 01-1.106 0 .335.335 0 01-.226-.322.34.34 0 01.232-.318zm3.985-1.667c.308.178.308.463 0 .635a1.181 1.181 0 01-1.1 0c-.307-.172-.307-.457 0-.635a1.187 1.187 0 011.1 0zm2.88-1.666c.307.172.307.457 0 .635a1.184 1.184 0 01-1.1 0 .333.333 0 01-.16-.124.335.335 0 010-.387.333.333 0 01.16-.124 1.184 1.184 0 011.1 0zm14.097-2.123a.336.336 0 01.229.321.34.34 0 01-.229.32 1.235 1.235 0 01-1.1 0 .34.34 0 01-.229-.32.337.337 0 01.229-.321 1.184 1.184 0 011.1 0zm2.88-1.666a.35.35 0 01.166.123.342.342 0 010 .395.35.35 0 01-.166.123 1.25 1.25 0 01-1.1 0 .34.34 0 01-.229-.321.34.34 0 01.229-.32 1.181 1.181 0 011.1 0zm-6.31.771c.431 0 .781-.202.781-.451 0-.248-.35-.45-.781-.45-.431 0-.78.202-.78.45 0 .249.349.451.78.451zm2.88-1.672c.431 0 .781-.202.781-.451s-.35-.45-.781-.45c-.431 0-.781.201-.781.45s.35.451.781.451zm-5.765 0c.431 0 .78-.202.78-.451s-.349-.45-.78-.45c-.431 0-.781.201-.781.45s.35.451.781.451zm2.885-1.666c.431 0 .781-.202.781-.451s-.35-.45-.781-.45c-.431 0-.78.201-.78.45s.349.451.78.451zm8.107.913a1.247 1.247 0 011.106 0 .34.34 0 01.229.32.337.337 0 01-.229.32 1.172 1.172 0 01-1.1 0 .338.338 0 01-.006-.64zm3.436-.895c.431 0 .78-.202.78-.451s-.349-.451-.78-.451c-.431 0-.781.202-.781.451s.35.451.781.451zm3.435-2.438a.34.34 0 010 .635 1.219 1.219 0 01-1.106 0 .341.341 0 010-.635 1.225 1.225 0 011.106 0zm-9.75 1.667a1.168 1.168 0 011.099 0 .337.337 0 010 .64 1.247 1.247 0 01-1.105 0 .336.336 0 01.006-.64zm3.985-1.667c.307.172.307.457 0 .635a1.184 1.184 0 01-1.1 0c-.307-.178-.307-.463 0-.635a1.184 1.184 0 011.1 0zm2.88-1.672a.34.34 0 01.229.321.34.34 0 01-.229.32 1.187 1.187 0 01-1.1 0 .34.34 0 01-.229-.32.34.34 0 01.229-.321 1.247 1.247 0 011.1 0zm-9.745 1.672a1.181 1.181 0 011.1 0 .334.334 0 01.168.515.332.332 0 01-.168.12 1.225 1.225 0 01-1.106 0 .338.338 0 01.006-.635zm3.985-1.672a.34.34 0 01.229.321.34.34 0 01-.229.32 1.181 1.181 0 01-1.1 0 .35.35 0 01-.166-.123.342.342 0 010-.395.35.35 0 01.166-.123 1.25 1.25 0 011.1 0zm2.88-1.666a.34.34 0 01.229.32.337.337 0 01-.229.321 1.247 1.247 0 01-1.1 0 .336.336 0 01-.229-.321.34.34 0 01.229-.32 1.187 1.187 0 011.1 0zm-16.994 10.442a.342.342 0 01.229.32c0 .071-.022.14-.064.197a.338.338 0 01-.165.124 1.225 1.225 0 01-1.106 0 .336.336 0 01-.229-.321.34.34 0 01.229-.32 1.247 1.247 0 011.106 0zm2.879-1.666a.34.34 0 01.229.32.337.337 0 01-.229.32 1.247 1.247 0 01-1.105 0 .338.338 0 010-.64 1.205 1.205 0 011.105 0zM58.38 156.82c-13.008 0-22.144-9.221-22.144-22.42 0-13.045 9.106-22.206 22.145-22.206 13.168 0 22.357 9.131 22.357 22.206 0 13.199-9.189 22.42-22.357 22.42zm0-42.848c-11.991 0-20.37 8.403-20.37 20.428 0 12.155 8.379 20.641 20.37 20.641 12.312 0 20.584-8.302 20.584-20.641 0-12.025-8.461-20.428-20.583-20.428zm19.023-11.082H40.801v-.901c0-18.459 8.03-27.466 14.481-34.706 4.536-5.088 8.45-9.487 8.45-15.874 0-5.532-2.478-7.892-8.278-7.892-7.173 0-10.372 4.82-10.372 15.625v.889H7.468v-.89c0-16.762 4.772-30.59 13.796-39.994C30.287 9.742 43.657 4.744 59.84 4.744c15.043 0 27.437 3.522 35.857 10.199 8.421 6.676 12.974 16.662 12.974 28.728 0 16.74-9.461 26.363-17.775 34.848-6.93 7.08-13.494 13.757-13.494 23.47v.901zm-34.805-1.779h33.049c.373-9.962 6.99-16.704 13.99-23.83 8.486-8.646 17.261-17.588 17.261-33.598 0-23.611-17.148-37.149-47.057-37.149-31.866 0-50.262 18.839-50.593 51.73h34.084c.189-11.266 4.056-16.514 12.133-16.514 6.771 0 10.053 3.166 10.053 9.671 0 7.068-4.14 11.7-8.905 17.06-6.458 7.258-13.766 15.464-14.038 32.63h.023z" fill="#fff"/><path d="M63.064 152.07c-13.039 0-22.15-9.221-22.15-22.42 0-13.08 9.111-22.212 22.15-22.212 13.162 0 22.357 9.132 22.357 22.212 0 13.199-9.195 22.42-22.357 22.42zm0-42.853c-11.998 0-20.377 8.402-20.377 20.433 0 12.15 8.379 20.641 20.377 20.641 12.31 0 20.583-8.301 20.583-20.641 0-12.031-8.467-20.433-20.583-20.433zM82.086 98.14H45.531v-.895c0-18.459 8.024-27.472 14.476-34.706 4.535-5.093 8.45-9.487 8.45-15.88 0-5.531-2.478-7.891-8.279-7.891-7.167 0-10.366 4.82-10.366 15.624v.89h-37.66v-.89c0-16.763 4.766-30.59 13.795-39.99C34.977 5.006 48.334 0 64.524 0c15.037 0 27.437 3.558 35.852 10.199 8.414 6.641 12.973 16.662 12.973 28.735 0 16.739-9.461 26.357-17.769 34.842-6.942 7.068-13.494 13.75-13.494 23.475v.89zm-34.804-1.778h33.042c.379-9.962 6.996-16.71 13.99-23.831 8.486-8.646 17.261-17.588 17.261-33.597 0-23.612-17.148-37.155-47.05-37.155-31.873 0-50.263 18.838-50.6 51.73H48.01c.19-11.267 4.062-16.514 12.134-16.514 6.77 0 10.052 3.166 10.052 9.67 0 7.069-4.14 11.7-8.87 17.06-6.486 7.258-13.801 15.464-14.02 32.637h-.023z" fill="#FEBD2E"/></svg>