<svg width="18" height="18" fill="none" xmlns="http://www.w3.org/2000/svg"><g clip-path="url(#clip0)"><path d="M.311 8.397l4.402 2.194c.17.084.371.078.534-.018l3.918-2.277-2.371 2.101a.563.563 0 00-.19.422v5.118c0 .54.689.768 1.012.339l1.903-2.53 4.706 2.68c.33.19.752-.001.829-.378l2.935-14.625a.563.563 0 00-.756-.635L.358 7.37A.563.563 0 00.31 8.396zM16.684 2.21l-2.58 12.853-4.458-2.54a.564.564 0 00-.729.151l-1.188 1.58v-3.182l6.413-5.682c.508-.45-.076-1.248-.655-.908L4.944 9.448 1.95 7.957 16.684 2.21z" fill="#F7971D"/></g><defs><clipPath id="clip0"><path fill="#fff" d="M0 0h18v18H0z"/></clipPath></defs></svg>