<svg width="18" height="18" fill="none" xmlns="http://www.w3.org/2000/svg"><g clip-path="url(#clip0)" fill="#F7971D"><path d="M17.366 10.42c.537-4.52-.258-7.374-1.692-8.665h.001c-2.314-2.205-10.13-2.531-12.9.098-1.243 1.286-1.681 3.174-1.73 5.511-.047 2.338-.104 6.717 3.976 7.905h.004l-.004 1.815s-.027.735.442.882c.537.174.78-.167 2.45-2.162 2.793.242 4.938-.313 5.182-.394.564-.189 3.755-.611 4.271-4.99zM8.19 14.527s-1.77 2.206-2.32 2.778c-.18.186-.377.169-.374-.2 0-.242.013-3.012.013-3.012-3.46-.992-3.255-4.72-3.218-6.672.038-1.951.395-3.55 1.448-4.626 2.429-2.277 9.282-1.768 11.028-.127 2.134 1.892 1.374 7.238 1.379 7.42-.439 3.656-3.025 3.888-3.5 4.046-.204.068-2.09.553-4.458.395z"/><path d="M9.167 3.223c-.29 0-.29.45 0 .454 2.24.017 4.085 1.578 4.105 4.443 0 .302.442.298.439-.004h-.001c-.024-3.087-2.039-4.876-4.543-4.893z"/><path d="M12.113 7.645c-.006.298.435.313.439.01.037-1.702-1.012-3.103-2.984-3.251-.289-.021-.319.433-.031.454 1.71.13 2.61 1.296 2.576 2.787zM11.64 9.58c-.37-.214-.747-.08-.903.13l-.326.422c-.166.215-.476.187-.476.187C7.675 9.72 7.07 7.354 7.07 7.354s-.027-.32.18-.492l.408-.337c.204-.162.333-.552.125-.936-.555-1.002-.928-1.348-1.118-1.614-.2-.25-.5-.306-.811-.137h-.007c-.649.38-1.359 1.09-1.132 1.821.388.771 1.1 3.229 3.372 5.086 1.067.878 2.756 1.778 3.473 1.986l.006.01c.707.236 1.394-.502 1.76-1.17v-.005c.163-.324.11-.63-.128-.83-.422-.411-1.058-.865-1.557-1.157z"/><path d="M9.877 6.078c.72.042 1.07.419 1.107 1.192.014.302.453.281.44-.021-.049-1.01-.575-1.572-1.523-1.625-.289-.017-.316.437-.024.454z"/></g><defs><clipPath id="clip0"><path fill="#fff" d="M0 0h18v18H0z"/></clipPath></defs></svg>