<svg width="10" height="10" viewBox="0 0 10 10" fill="none" xmlns="http://www.w3.org/2000/svg">
<g clip-path="url(#clip0)">
<path d="M4.99789 5.96335L8.73902 2.22238C8.84179 2.11937 8.97919 2.0627 9.12569 2.0627C9.27228 2.0627 9.40959 2.11937 9.51252 2.22238L9.84016 2.55018C9.94325 2.65303 10 2.79051 10 2.93701C10 3.08351 9.94325 3.22083 9.84016 3.32376L5.38602 7.77799C5.28276 7.88132 5.1448 7.9379 4.99813 7.9375C4.85081 7.9379 4.71301 7.8814 4.60967 7.77799L0.159838 3.3279C0.0567484 3.22498 5.78338e-08 3.08766 5.95818e-08 2.94108C6.13288e-08 2.79457 0.0567485 2.65725 0.159838 2.55425L0.48748 2.22652C0.700732 2.01327 1.04789 2.01327 1.26106 2.22652L4.99789 5.96335Z" fill="#F7971D"/>
</g>
<defs>
<clipPath id="clip0">
<rect width="10" height="10" transform="matrix(1.19249e-08 -1 -1 -1.19249e-08 10 10)" fill="white"/>
</clipPath>
</defs>
</svg>
