<svg width="667" height="529" viewBox="0 0 667 529" fill="none" xmlns="http://www.w3.org/2000/svg">
<g clip-path="url(#clip0)">
<path d="M300.495 97.815V208.863" stroke="#050505" stroke-linecap="round" stroke-linejoin="round"/>
<path d="M228.048 241.373L300.495 248.441L420.603 233.098" stroke="#050505" stroke-linecap="round" stroke-linejoin="round"/>
<path d="M300.495 248.441V402.971" stroke="#050505" stroke-linecap="round" stroke-linejoin="round"/>
<path d="M320.156 371.26L300.495 369.075" stroke="#050505" stroke-linecap="round" stroke-linejoin="round"/>
<path d="M300.495 116.986L147.202 175.962V369.075L300.495 393.732" stroke="#050505" stroke-linecap="round" stroke-linejoin="round"/>
<path d="M420.603 441.901L592.231 396.686V145.487L420.603 46.1946V441.901Z" stroke="#050505" stroke-linecap="round" stroke-linejoin="round"/>
<path d="M592.231 358.344L420.603 382.428L397.263 379.836" stroke="#050505" stroke-linecap="round" stroke-linejoin="round"/>
<path d="M300.495 97.815L296.635 92.555L420.603 38.3574L597.523 142.548L592.231 145.487L420.603 46.1946L300.495 97.815Z" stroke="#050505" stroke-linecap="round" stroke-linejoin="round"/>
<path d="M420.603 38.3574V46.1946" stroke="#050505" stroke-linecap="round" stroke-linejoin="round"/>
<path d="M420.603 212.812L357.443 197.182L228.048 223.709V241.373L357.187 221.644L420.603 233.098V212.812Z" stroke="#050505" stroke-linecap="round" stroke-linejoin="round"/>
<path d="M357.443 197.182L357.187 221.659" stroke="#050505" stroke-linecap="round" stroke-linejoin="round"/>
<path d="M300.495 363.649L147.187 349.331" stroke="#050505" stroke-linecap="round" stroke-linejoin="round"/>
<path d="M397.263 413.807V270.838L320.156 275.314V400.333L397.263 413.807Z" stroke="#050505" stroke-linecap="round" stroke-linejoin="round"/>
<path d="M397.263 437.41L344.461 450.899L269.224 432.119V419.565L293.273 415.963V404.523L323.353 399.836V276.701L397.263 272.149" stroke="#050505" stroke-linecap="round" stroke-linejoin="round"/>
<path d="M293.273 404.523L371.345 419.233L397.263 413.807V437.41L420.603 441.901" stroke="#050505" stroke-linecap="round" stroke-linejoin="round"/>
<path d="M371.345 419.233V431.592L293.273 415.963" stroke="#050505" stroke-linecap="round" stroke-linejoin="round"/>
<path d="M371.345 431.592L344.461 436.309L269.224 419.565" stroke="#050505" stroke-linecap="round" stroke-linejoin="round"/>
<path d="M320.156 275.314L323.353 276.701" stroke="#050505" stroke-linecap="round" stroke-linejoin="round"/>
<path d="M331.766 285.321L387.327 283.136V303.076H331.766V285.321Z" stroke="#050505" stroke-linecap="round" stroke-linejoin="round"/>
<path d="M331.766 313.551V329.617L387.327 331.26V314.138L331.766 313.551Z" stroke="#050505" stroke-linecap="round" stroke-linejoin="round"/>
<path d="M339.833 236.941C339.833 239.052 329.595 240.77 316.975 240.77C304.355 240.77 294.103 239.052 294.103 236.941C294.103 234.831 304.34 233.098 316.975 233.098C329.61 233.098 339.833 234.816 339.833 236.941Z" stroke="#050505" stroke-linecap="round" stroke-linejoin="round"/>
<path d="M401.56 310.687L416.411 310.235V330.808L401.56 330.386V310.687Z" stroke="#050505" stroke-linecap="round" stroke-linejoin="round"/>
<path d="M404.756 313.837V318.585L413.426 318.404V313.551L404.756 313.837Z" stroke="#050505" stroke-linecap="round" stroke-linejoin="round"/>
<path d="M413.607 321.614H404.756" stroke="#050505" stroke-linecap="round" stroke-linejoin="round"/>
<path d="M413.426 324.493H404.756" stroke="#050505" stroke-linecap="round" stroke-linejoin="round"/>
<path d="M413.426 327.175L404.756 327.025" stroke="#050505" stroke-linecap="round" stroke-linejoin="round"/>
<path d="M470.389 262.654V347.13L560.613 341.403V275.314L470.389 262.654Z" stroke="#FFBE2E" stroke-linecap="round" stroke-linejoin="round"/>
<path d="M470.389 345.593L556.21 340.966V274.696" stroke="#FFBE2E" stroke-linecap="round" stroke-linejoin="round"/>
<path d="M556.21 340.966L560.613 341.403" stroke="#FFBE2E" stroke-linecap="round" stroke-linejoin="round"/>
<path d="M519.361 269.526V342.955" stroke="#FFBE2E" stroke-linecap="round" stroke-linejoin="round"/>
<path d="M521.472 342.835V269.813" stroke="#FFBE2E" stroke-linecap="round" stroke-linejoin="round"/>
<path d="M560.613 233.023L470.389 210.868V121.794L560.613 163.452V233.023Z" stroke="#FFBE2E" stroke-linecap="round" stroke-linejoin="round"/>
<path d="M556.21 231.953V164.537L470.389 126.843" stroke="#FFBE2E" stroke-linecap="round" stroke-linejoin="round"/>
<path d="M556.21 164.537L560.613 163.452" stroke="#FFBE2E" stroke-linecap="round" stroke-linejoin="round"/>
<path d="M521.472 223.422V149.285" stroke="#FFBE2E" stroke-linecap="round" stroke-linejoin="round"/>
<path d="M519.361 222.895V148.35" stroke="#FFBE2E" stroke-linecap="round" stroke-linejoin="round"/>
<path d="M394.293 49.857V38.3574L324.876 0.376785L264.279 36.3227V43.7078L286.835 52.585V117.604" stroke="#050505" stroke-linecap="round" stroke-linejoin="round"/>
<path d="M292.64 115.343V49.5104L286.835 52.585" stroke="#050505" stroke-linecap="round" stroke-linejoin="round"/>
<path d="M292.64 49.5104L337.405 68.983" stroke="#050505" stroke-linecap="round" stroke-linejoin="round"/>
<path d="M337.405 74.7253V26.1041L345.396 21.9293V71.2286" stroke="#050505" stroke-linecap="round" stroke-linejoin="round"/>
<path d="M345.396 21.9292L324.891 10.4597L264.279 43.7078" stroke="#050505" stroke-linecap="round" stroke-linejoin="round"/>
<path d="M324.876 0.376785L324.891 10.4597" stroke="#050505" stroke-linecap="round" stroke-linejoin="round"/>
<path d="M265.214 273.355V337.831L167.723 333.611V282.428L265.214 273.355Z" stroke="#050505" stroke-linecap="round" stroke-linejoin="round"/>
<path d="M167.723 282.428L171.025 283.287L265.214 274.56" stroke="#050505" stroke-linecap="round" stroke-linejoin="round"/>
<path d="M171.025 283.287V333.747" stroke="#050505" stroke-linecap="round" stroke-linejoin="round"/>
<path d="M213.935 279.308V335.601" stroke="#050505" stroke-linecap="round" stroke-linejoin="round"/>
<path d="M211.658 279.519V335.51" stroke="#050505" stroke-linecap="round" stroke-linejoin="round"/>
<path d="M167.723 230.988V184.311L265.214 150.295V209.421L167.723 230.988Z" stroke="#050505" stroke-linecap="round" stroke-linejoin="round"/>
<path d="M213.935 220.755V170.822" stroke="#050505" stroke-linecap="round" stroke-linejoin="round"/>
<path d="M211.658 221.267V171.606" stroke="#050505" stroke-linecap="round" stroke-linejoin="round"/>
<path d="M265.214 153.339L170.572 185.607V230.355" stroke="#050505" stroke-linecap="round" stroke-linejoin="round"/>
<path d="M300.495 112.284L143.176 173.475L147.202 175.962" stroke="#050505" stroke-linecap="round" stroke-linejoin="round"/>
<path d="M167.723 184.311L170.572 185.607" stroke="#050505" stroke-linecap="round" stroke-linejoin="round"/>
<path d="M319.403 120.483V189.918L348.487 183.362V109.48L319.403 120.483Z" stroke="#050505" stroke-linecap="round" stroke-linejoin="round"/>
<path d="M394.293 93.5196L358.544 106.391V181.809L394.293 174.409V93.5196Z" stroke="#050505" stroke-linecap="round" stroke-linejoin="round"/>
<path d="M323.473 189.074V123.135L348.487 114.605" stroke="#050505" stroke-linecap="round" stroke-linejoin="round"/>
<path d="M319.403 120.483L323.473 123.135" stroke="#050505" stroke-linecap="round" stroke-linejoin="round"/>
<path d="M358.544 106.391L364.319 109.239L394.293 98.9906" stroke="#050505" stroke-linecap="round" stroke-linejoin="round"/>
<path d="M364.318 109.239V180.528" stroke="#050505" stroke-linecap="round" stroke-linejoin="round"/>
<path d="M592.231 396.686L666.623 402.971V417.138L413.426 528.623L0.376953 392.044V380.695L147.202 369.075" stroke="#050505" stroke-linecap="round" stroke-linejoin="round"/>
<path d="M666.623 402.971L413.426 501.298L0.376953 380.695" stroke="#050505" stroke-linecap="round" stroke-linejoin="round"/>
<path d="M413.426 501.298V528.623" stroke="#050505" stroke-linecap="round" stroke-linejoin="round"/>
<path d="M560.5 163.5L470.5 122V126.5L556 164.5L560.5 163.5Z" fill="#F7971D"/>
<path d="M560.5 163.5L556.5 164.5V232L560.5 233V163.5Z" fill="#F7971D"/>
<path d="M522 149.5L519.5 148L519 222.5L522 223.5V149.5Z" fill="#F7971D"/>
<path d="M521.5 269.5H519.5V343H521.5V269.5Z" fill="#F7971D"/>
<path d="M561 276L556.5 274.5L556 340.5L561 341.5V276Z" fill="#F7971D"/>
<path d="M524.5 343L471 346V348L524.5 343Z" fill="#F7971D"/>
<path d="M358.5 106.5L364.5 109.5L394 99.5V93.5L358.5 106.5Z" fill="#050505"/>
<path d="M319 120.188L324.577 123L348 115.125V109.5L319 120.188Z" fill="#050505"/>
<path d="M364.5 180.5L358 182V106.5L364.5 109.5V180.5Z" fill="#050505"/>
<path d="M323.5 188.5L319 190L319.5 120L323.5 123V188.5Z" fill="#050505"/>
<path d="M167.5 184.5V230.5H170.5V186L211.5 172V220.5H214V171L265 153.5V150.5L167.5 184.5Z" fill="#050505"/>
<path d="M167.5 282.5V333.5H171V283.5L211.5 279.5V335.5L214 335.656V279.5L265 274.5V273.5L167.5 282.5Z" fill="#050505"/>
<path d="M323 400L320 400.5L320.5 275.5L397 271V272.5L323.5 277L323 400Z" fill="#050505"/>
</g>
<defs>
<clipPath id="clip0">
<rect width="667" height="529" fill="white"/>
</clipPath>
</defs>
</svg>
