<svg width="18" height="18" viewBox="0 0 18 18" fill="none" xmlns="http://www.w3.org/2000/svg">
<path d="M2.63672 18H8.50781V11.6016H6.39844V9.49219H8.50781V6.85547C8.50781 5.40157 9.69063 4.21875 11.1445 4.21875H13.7812V6.32812H11.6719C11.0903 6.32812 10.6172 6.80122 10.6172 7.38281V9.49219H13.6861L13.3345 11.6016H10.6172V18H15.3633C16.8172 18 18 16.8172 18 15.3633V2.63672C18 1.18282 16.8172 0 15.3633 0H2.63672C1.18282 0 0 1.18282 0 2.63672V15.3633C0 16.8172 1.18282 18 2.63672 18ZM1.05469 2.63672C1.05469 1.7644 1.7644 1.05469 2.63672 1.05469H15.3633C16.2356 1.05469 16.9453 1.7644 16.9453 2.63672V15.3633C16.9453 16.2356 16.2356 16.9453 15.3633 16.9453H11.6719V12.6562H14.228L14.9311 8.4375H11.6719V7.38281H14.8359V3.16406H11.1445C9.10904 3.16406 7.45312 4.81998 7.45312 6.85547V8.4375H5.34375V12.6562H7.45312V16.9453H2.63672C1.7644 16.9453 1.05469 16.2356 1.05469 15.3633V2.63672Z" fill="#F7971D"/>
</svg>
