<svg width="12" height="20" viewBox="0 0 12 20" fill="none" xmlns="http://www.w3.org/2000/svg">
<path d="M6 20C2.69121 20 0 17.1967 0 13.75V4.79172C0 4.44672 0.268799 4.16672 0.6 4.16672C0.931201 4.16672 1.2 4.44672 1.2 4.79172V13.75C1.2 16.5076 3.35273 18.75 6 18.75C8.64727 18.75 10.8 16.5076 10.8 13.75V4.58328C10.8 2.74506 9.36475 1.25 7.60005 1.25C5.83521 1.25 4.39995 2.74506 4.39995 4.58328V12.9167C4.39995 13.8359 5.11758 14.5833 6 14.5833C6.88242 14.5833 7.60005 13.8359 7.60005 12.9167V4.79172C7.60005 4.44672 7.86885 4.16672 8.20005 4.16672C8.53125 4.16672 8.80005 4.44672 8.80005 4.79172V12.9167C8.80005 14.525 7.54395 15.8333 6 15.8333C4.45605 15.8333 3.19995 14.525 3.19995 12.9167V4.58328C3.19995 2.05673 5.17354 0 7.60005 0C10.0264 0 12 2.05673 12 4.58328V13.75C12 17.1967 9.30879 20 6 20Z" fill="#F7971D"/>
</svg>
