<svg width="56" height="56" viewBox="0 0 56 56" fill="none" xmlns="http://www.w3.org/2000/svg">
<g clip-path="url(#clip0)">
<path d="M25.548 29.0338H22.2449C21.7113 29.0338 21.2788 29.4664 21.2788 29.9999C21.2788 30.5335 21.7113 30.966 22.2449 30.966H25.548C26.0818 30.966 26.5142 30.5335 26.5142 29.9999C26.5142 29.4664 26.0817 29.0338 25.548 29.0338Z" fill="#F7971D"/>
<path d="M45.2638 2.80495H31.0121V0.966135C31.0121 0.66601 30.8725 0.382838 30.6345 0.200073C30.3963 0.0171977 30.0869 -0.0448179 29.7969 0.032729L10.4872 5.182C10.0642 5.29476 9.77002 5.67779 9.77002 6.11551V13.2361C9.77002 13.7696 10.2025 14.2022 10.7361 14.2022C11.2698 14.2022 11.7022 13.7696 11.7022 13.2361V6.85784L29.0797 2.22373V53.8554L11.7022 50.3799V12.4924C11.7022 11.9589 11.2698 11.5263 10.7361 11.5263C10.2025 11.5263 9.77002 11.9589 9.77002 12.4924V51.172C9.77002 51.6326 10.095 52.0291 10.5467 52.1193L29.8564 55.9813C29.9193 55.9939 29.9826 56.0001 30.0458 56.0001C30.2673 56.0001 30.4841 55.924 30.6583 55.7812C30.8821 55.5976 31.012 55.3234 31.012 55.034V53.1954H39.9156C40.4494 53.1954 40.8817 52.7629 40.8817 52.2293C40.8817 51.6958 40.4493 51.2632 39.9156 51.2632H31.012V48.5066H40.5747C41.1085 48.5066 41.5408 48.0741 41.5408 47.5405V8.45996C41.5408 7.92643 41.1084 7.49386 40.5747 7.49386H31.012V4.73717H44.2975V51.2628H38.9192C38.3854 51.2628 37.9531 51.6954 37.9531 52.2289C37.9531 52.7624 38.3855 53.195 38.9192 53.195H45.2636C45.7974 53.195 46.2297 52.7624 46.2297 52.2289V3.77106C46.23 3.23753 45.7974 2.80495 45.2638 2.80495ZM39.6087 9.42607V46.5741H31.0122V9.42607H39.6087Z" fill="#F7971D"/>
<path d="M5.78287 21.1903C4.61645 23.3752 4 25.8392 4 28.3162C4 30.7932 4.61645 33.2572 5.78287 35.4421C6.94929 37.6271 8.48627 36.4902 7.45205 34.5512C6.41783 32.6121 5.89286 30.5141 5.89286 28.3162C5.89286 26.1184 6.41783 24.0204 7.45205 22.0812C8.48627 20.1421 6.94929 19.0054 5.78287 21.1903Z" fill="#F7971D"/>
<path d="M1.78287 21.1903C0.616447 23.3752 0 25.8392 0 28.3162C0 30.7932 0.616447 33.2572 1.78287 35.4421C2.94929 37.6271 4.48627 36.4902 3.45205 34.5512C2.41783 32.6121 1.89286 30.5141 1.89286 28.3162C1.89286 26.1184 2.41783 24.0204 3.45205 22.0812C4.48627 20.1421 2.94929 19.0054 1.78287 21.1903Z" fill="#F7971D"/>
<path d="M50.0087 21.2166C51.1741 23.4498 51.79 25.9683 51.79 28.5C51.79 31.0317 51.1741 33.5502 50.0087 35.7834C48.8434 38.0166 47.3078 36.8547 48.341 34.8728C49.3743 32.8909 49.8988 30.7465 49.8988 28.5C49.8988 26.2536 49.3743 24.1092 48.341 22.1272C47.3078 20.1453 48.8434 18.9834 50.0087 21.2166Z" fill="#F7971D"/>
<path d="M54.0087 21.2166C55.1741 23.4498 55.79 25.9683 55.79 28.5C55.79 31.0317 55.1741 33.5502 54.0087 35.7834C52.8434 38.0166 51.3078 36.8547 52.341 34.8728C53.3743 32.8909 53.8988 30.7465 53.8988 28.5C53.8988 26.2536 53.3743 24.1092 52.341 22.1272C51.3078 20.1453 52.8434 18.9834 54.0087 21.2166Z" fill="#F7971D"/>
</g>
<defs>
<clipPath id="clip0">
<rect width="56" height="56" fill="white"/>
</clipPath>
</defs>
</svg>
