<svg width="56" height="56" viewBox="0 0 56 56" fill="none" xmlns="http://www.w3.org/2000/svg">
<path d="M44.2987 18.1589L38.7337 12.5939C38.619 12.4783 38.4744 12.397 38.316 12.3591C38.1577 12.3212 37.9919 12.3283 37.8373 12.3795C37.6827 12.4307 37.5455 12.524 37.4411 12.6489C37.3366 12.7738 37.2691 12.9254 37.2462 13.0866C37.1541 13.73 36.8848 14.335 36.4683 14.834C36.0518 15.3329 35.5046 15.7061 34.888 15.9115C34.2713 16.117 33.6097 16.1468 32.9771 15.9974C32.3446 15.8481 31.7661 15.5255 31.3065 15.0659C30.847 14.6064 30.5244 14.0279 30.3751 13.3953C30.2257 12.7628 30.2554 12.1011 30.4609 11.4845C30.6664 10.8679 31.0395 10.3207 31.5385 9.90419C32.0374 9.48768 32.6425 9.21833 33.2859 9.12632C33.4471 9.10333 33.5987 9.03582 33.7236 8.93138C33.8485 8.82695 33.9418 8.68973 33.993 8.53517C34.0442 8.3806 34.0512 8.21482 34.0133 8.05646C33.9755 7.89811 33.8941 7.75347 33.7785 7.63881L28.2135 2.07382C28.0494 1.90978 27.8269 1.81763 27.5949 1.81763C27.3629 1.81763 27.1404 1.90978 26.9763 2.07382L22.1437 6.90469C21.9057 6.0141 21.4375 5.20187 20.786 4.54966C20.1346 3.89746 19.3229 3.42829 18.4325 3.18932C17.5422 2.95035 16.6047 2.95002 15.7142 3.18836C14.8237 3.42669 14.0117 3.89529 13.3598 4.54703C12.7078 5.19877 12.239 6.01068 12.0005 6.9011C11.7619 7.79151 11.7619 8.72906 12.0007 9.61943C12.2394 10.5098 12.7084 11.3216 13.3604 11.9733C14.0124 12.6249 14.8245 13.0934 15.715 13.3316L10.8877 18.1589C10.7236 18.323 10.6315 18.5455 10.6315 18.7776C10.6315 19.0096 10.7236 19.2321 10.8877 19.3962L15.7168 24.2314C14.6567 24.5162 13.7125 25.1261 13.017 25.9753C12.3216 26.8246 11.9098 27.8705 11.8396 28.9659C11.7694 30.0613 12.0443 31.1512 12.6256 32.0823C13.207 33.0134 14.0656 33.7388 15.0807 34.1566L13.0375 40.0497C12.7661 40.6612 12.6386 41.3267 12.6646 41.9952C12.6907 42.6637 12.8698 43.3174 13.188 43.9058L16.2593 51.1683C16.2706 51.1963 16.2838 51.2234 16.2987 51.2497C16.5138 51.6439 16.626 52.086 16.625 52.5351V53.3751C16.625 53.6071 16.7172 53.8297 16.8813 53.9938C17.0454 54.1579 17.268 54.2501 17.5 54.2501C17.7321 54.2501 17.9547 54.1579 18.1188 53.9938C18.2828 53.8297 18.375 53.6071 18.375 53.3751V52.5351C18.3741 51.8072 18.1938 51.0907 17.85 50.4491L14.7779 43.1866C14.7657 43.1566 14.7517 43.1273 14.7359 43.0991C14.5354 42.733 14.4239 42.3249 14.4105 41.9078C14.3971 41.4906 14.4822 41.0762 14.6589 40.6981L16.7992 34.5381C16.891 34.5381 16.9812 34.5512 17.0739 34.5512C18.2288 34.5522 19.3516 34.1717 20.2679 33.4688C21.1842 32.766 21.8427 31.7801 22.141 30.6644L23.625 32.1423V41.1251C23.625 41.3571 23.7172 41.5797 23.8813 41.7438C24.0454 41.9079 24.268 42.0001 24.5 42.0001C24.7321 42.0001 24.9547 41.9079 25.1188 41.7438C25.2828 41.5797 25.375 41.3571 25.375 41.1251V28.8751C25.375 28.1789 25.6516 27.5112 26.1439 27.0189C26.6362 26.5266 27.3038 26.2501 28 26.2501C28.6962 26.2501 29.3639 26.5266 29.8562 27.0189C30.3485 27.5112 30.625 28.1789 30.625 28.8751V39.4722C30.6266 40.6946 30.9111 41.9 31.4563 42.9941L31.7765 43.6363C32.1999 44.4872 32.4203 45.4247 32.4203 46.3751C32.4203 47.3255 32.1999 48.2629 31.7765 49.1138L30.9015 50.8638C30.7199 51.2286 30.6252 51.6305 30.625 52.0381V53.3751C30.625 53.6071 30.7172 53.8297 30.8813 53.9938C31.0454 54.1579 31.268 54.2501 31.5 54.2501C31.7321 54.2501 31.9547 54.1579 32.1187 53.9938C32.2828 53.8297 32.375 53.6071 32.375 53.3751V52.0381C32.3741 51.9027 32.4041 51.769 32.4625 51.6469L33.3375 49.8969C33.8818 48.8028 34.165 47.5975 34.165 46.3755C34.165 45.1535 33.8818 43.9482 33.3375 42.8541L33.0173 42.2118C32.7036 41.5817 32.5002 40.9025 32.4162 40.2037C32.9845 40.774 33.6599 41.2264 34.4037 41.5347C35.1475 41.843 35.9449 42.0011 36.75 42.0001C37.4462 42.0001 38.1139 41.7235 38.6062 41.2312C39.0985 40.7389 39.375 40.0713 39.375 39.3751V34.3876C40.5044 34.1081 41.5087 33.4611 42.2301 32.5484C42.9515 31.6356 43.3489 30.5089 43.3598 29.3456C43.3707 28.1823 42.9945 27.0483 42.2904 26.1222C41.5863 25.196 40.5943 24.5303 39.4704 24.2297L44.2987 19.3944C44.4622 19.2304 44.554 19.0083 44.554 18.7767C44.554 18.5451 44.4622 18.323 44.2987 18.1589ZM36.75 40.2501C35.5901 40.2487 34.4781 39.7873 33.658 38.9671C32.8378 38.1469 32.3764 37.035 32.375 35.8751V31.3251L33.0435 30.6566C33.3193 31.6928 33.9066 32.6193 34.7259 33.311C35.5453 34.0027 36.5572 34.4261 37.625 34.5241V39.3751C37.625 39.6071 37.5328 39.8297 37.3687 39.9938C37.2047 40.1579 36.9821 40.2501 36.75 40.2501ZM36.8752 24.3539C36.7438 24.4838 36.657 24.6518 36.6269 24.834C36.5969 25.0162 36.6253 25.2032 36.7081 25.3683C36.7908 25.5333 36.9236 25.668 37.0875 25.753C37.2515 25.838 37.4381 25.8689 37.6207 25.8414C38.3476 25.7386 39.0885 25.8669 39.7385 26.2083C40.3885 26.5496 40.9147 27.0868 41.2426 27.7437C41.5706 28.4006 41.6836 29.144 41.5657 29.8687C41.4479 30.5933 41.1051 31.2626 40.586 31.7818C40.0668 32.3009 39.3976 32.6437 38.6729 32.7615C37.9482 32.8794 37.2048 32.7663 36.5479 32.4384C35.891 32.1105 35.3539 31.5843 35.0125 30.9343C34.6711 30.2843 34.5428 29.5434 34.6457 28.8164C34.6732 28.6339 34.6422 28.4472 34.5572 28.2833C34.4722 28.1194 34.3375 27.9866 34.1725 27.9038C34.0074 27.8211 33.8204 27.7927 33.6382 27.8227C33.456 27.8527 33.288 27.9396 33.1582 28.0709L32.375 28.8558C32.3738 28.2813 32.2594 27.7126 32.0383 27.1823C31.8173 26.652 31.494 26.1704 31.0868 25.765C30.6797 25.3597 30.1967 25.0385 29.6654 24.8198C29.1341 24.6011 28.5649 24.4892 27.9904 24.4904C27.4159 24.4917 26.8472 24.6061 26.3169 24.8272C25.7866 25.0482 25.305 25.3715 24.8996 25.7787C24.081 26.6009 23.6225 27.7147 23.625 28.8751V29.6678L22.0212 28.0639C21.8913 27.9326 21.7233 27.8457 21.5411 27.8157C21.3589 27.7857 21.1719 27.8141 21.0068 27.8968C20.8418 27.9796 20.7071 28.1124 20.6221 28.2763C20.5371 28.4402 20.5061 28.6269 20.5337 28.8094C20.6365 29.5364 20.5082 30.2773 20.1668 30.9273C19.8255 31.5773 19.2883 32.1035 18.6314 32.4314C17.9745 32.7593 17.2311 32.8724 16.5064 32.7545C15.7818 32.6367 15.1125 32.2939 14.5933 31.7748C14.0742 31.2556 13.7314 30.5863 13.6136 29.8617C13.4957 29.137 13.6088 28.3936 13.9367 27.7367C14.2646 27.0798 14.7908 26.5426 15.4408 26.2013C16.0908 25.8599 16.8317 25.7316 17.5587 25.8344C17.7413 25.8622 17.9281 25.8314 18.0922 25.7465C18.2562 25.6616 18.3893 25.5269 18.4721 25.3618C18.555 25.1966 18.5834 25.0095 18.5534 24.8272C18.5234 24.6449 18.4365 24.4768 18.305 24.3469L12.7427 18.7776L18.3112 13.2126C18.4425 13.0828 18.5294 12.9147 18.5594 12.7325C18.5894 12.5503 18.561 12.3633 18.4783 12.1983C18.3955 12.0332 18.2627 11.8985 18.0988 11.8135C17.9349 11.7285 17.7482 11.6976 17.5657 11.7251C16.8397 11.8265 16.1001 11.6975 15.4514 11.3561C14.8027 11.0148 14.2775 10.4783 13.95 9.82253C13.6224 9.16671 13.5091 8.4246 13.6259 7.70092C13.7428 6.97723 14.0839 6.3085 14.6012 5.78907C15.2683 5.15355 16.1543 4.79907 17.0757 4.79907C17.997 4.79907 18.8831 5.15355 19.5502 5.78907C19.9331 6.17298 20.2215 6.64061 20.3928 7.15507C20.5641 7.66952 20.6135 8.21674 20.5372 8.75356C20.5097 8.93615 20.5406 9.12276 20.6256 9.28668C20.7106 9.4506 20.8453 9.58344 21.0103 9.66617C21.1754 9.7489 21.3624 9.77729 21.5446 9.74727C21.7268 9.71726 21.8948 9.63038 22.0247 9.49907L27.5975 3.93232L31.5184 7.85406C30.7605 8.21603 30.1005 8.75455 29.5938 9.42441C29.0872 10.0943 28.7486 10.8759 28.6066 11.7037C28.4645 12.5315 28.5232 13.3813 28.7776 14.1818C29.032 14.9822 29.4748 15.7099 30.0687 16.3038C30.6626 16.8977 31.3903 17.3405 32.1907 17.5949C32.9912 17.8493 33.841 17.9079 34.6688 17.7659C35.4966 17.6239 36.2782 17.2853 36.9481 16.7786C37.6179 16.272 38.1564 15.612 38.5184 14.8541L42.4402 18.7749L36.8752 24.3539Z" fill="#F7971D"/>
<path d="M53.375 20.125H48.125C47.8929 20.125 47.6704 20.0328 47.5063 19.8687C47.3422 19.7046 47.25 19.4821 47.25 19.25C47.25 19.0179 47.3422 18.7954 47.5063 18.6313C47.6704 18.4672 47.8929 18.375 48.125 18.375H53.375C53.6071 18.375 53.8296 18.4672 53.9937 18.6313C54.1578 18.7954 54.25 19.0179 54.25 19.25C54.25 19.4821 54.1578 19.7046 53.9937 19.8687C53.8296 20.0328 53.6071 20.125 53.375 20.125Z" fill="#F7971D"/>
<path d="M47.1792 10.0625C46.9866 10.0625 46.7993 9.99896 46.6465 9.8817C46.4937 9.76445 46.3839 9.60005 46.334 9.414C46.2842 9.22795 46.2971 9.03065 46.3708 8.8527C46.4445 8.67475 46.5749 8.52609 46.7417 8.42978L51.2917 5.80478C51.4925 5.69058 51.7304 5.66046 51.9534 5.721C52.1764 5.78154 52.3664 5.92782 52.4819 6.12792C52.5974 6.32802 52.6291 6.5657 52.5701 6.78908C52.511 7.01247 52.366 7.20342 52.1667 7.32028L47.6167 9.94528C47.4838 10.0224 47.3328 10.0629 47.1792 10.0625Z" fill="#F7971D"/>
<path d="M51.7247 32.8126C51.5711 32.8129 51.4201 32.7725 51.2872 32.6953L46.7372 30.0703C46.6369 30.0133 46.5488 29.937 46.4781 29.8458C46.4074 29.7546 46.3555 29.6503 46.3252 29.539C46.295 29.4276 46.2871 29.3113 46.302 29.1969C46.3168 29.0825 46.3542 28.9721 46.4119 28.8722C46.4696 28.7723 46.5465 28.6847 46.6382 28.6146C46.7298 28.5445 46.8345 28.4933 46.946 28.4638C47.0576 28.4343 47.1739 28.4271 47.2882 28.4428C47.4025 28.4584 47.5127 28.4965 47.6122 28.5548L52.1622 31.1798C52.329 31.2762 52.4594 31.4248 52.5331 31.6028C52.6068 31.7807 52.6197 31.978 52.5699 32.1641C52.52 32.3501 52.4102 32.5145 52.2573 32.6318C52.1045 32.749 51.9173 32.8126 51.7247 32.8126Z" fill="#F7971D"/>
<path d="M7.875 20.125H2.625C2.39294 20.125 2.17038 20.0328 2.00628 19.8687C1.84219 19.7046 1.75 19.4821 1.75 19.25C1.75 19.0179 1.84219 18.7954 2.00628 18.6313C2.17038 18.4672 2.39294 18.375 2.625 18.375H7.875C8.10706 18.375 8.32962 18.4672 8.49372 18.6313C8.65781 18.7954 8.75 19.0179 8.75 19.25C8.75 19.4821 8.65781 19.7046 8.49372 19.8687C8.32962 20.0328 8.10706 20.125 7.875 20.125Z" fill="#F7971D"/>
<path d="M8.82086 10.0625C8.66722 10.0629 8.51624 10.0224 8.38336 9.94528L3.83335 7.32028C3.63402 7.20342 3.48901 7.01247 3.42995 6.78908C3.37089 6.5657 3.40258 6.32802 3.51811 6.12792C3.63365 5.92782 3.82364 5.78154 4.04662 5.721C4.26961 5.66046 4.50749 5.69058 4.70835 5.80478L9.25836 8.42978C9.42516 8.52609 9.55552 8.67475 9.62922 8.8527C9.70292 9.03065 9.71585 9.22795 9.666 9.414C9.61615 9.60005 9.5063 9.76445 9.3535 9.8817C9.20069 9.99896 9.01347 10.0625 8.82086 10.0625Z" fill="#F7971D"/>
<path d="M4.27523 32.8126C4.08262 32.8126 3.89539 32.749 3.74259 32.6318C3.58978 32.5145 3.47994 32.3501 3.43008 32.1641C3.38023 31.978 3.39316 31.7807 3.46687 31.6028C3.54057 31.4248 3.67093 31.2762 3.83773 31.1798L8.38773 28.5548C8.48728 28.4965 8.59739 28.4584 8.71172 28.4428C8.82605 28.4271 8.94235 28.4343 9.05391 28.4638C9.16547 28.4933 9.2701 28.5445 9.36176 28.6146C9.45343 28.6847 9.53033 28.7723 9.58802 28.8722C9.64572 28.9721 9.68308 29.0825 9.69796 29.1969C9.71283 29.3113 9.70492 29.4276 9.67469 29.539C9.64446 29.6503 9.59249 29.7546 9.52179 29.8458C9.45109 29.937 9.36305 30.0133 9.26273 30.0703L4.71273 32.6953C4.57984 32.7725 4.42887 32.8129 4.27523 32.8126Z" fill="#F7971D"/>
</svg>
