<svg width="56" height="56" viewBox="0 0 56 56" fill="none" xmlns="http://www.w3.org/2000/svg">
<g clip-path="url(#clip0)">
<path d="M55.8431 46.1529L49.0224 35.9181L50.218 35.5448C50.7101 35.3911 50.9844 34.8678 50.8307 34.3757C50.8244 34.3554 50.8174 34.3353 50.8097 34.3156L48.7126 28.9219L52.9834 24.9506C53.3607 24.5995 53.382 24.0089 53.0308 23.6316C53.0156 23.6153 52.9998 23.5995 52.9834 23.5843L48.7126 19.6139L50.8107 14.2202C50.9975 13.7398 50.7595 13.199 50.279 13.0121C50.2592 13.0044 50.2391 12.9974 50.2189 12.9911L44.6041 11.2402L44.1132 5.48156C44.0915 5.22524 43.9657 4.98911 43.765 4.82823C43.5654 4.66782 43.3083 4.59712 43.0548 4.63317L37.2112 5.44236L34.2191 0.454686C33.9542 0.0125253 33.3809 -0.13109 32.9388 0.133857C32.9274 0.14074 32.9162 0.14774 32.905 0.15509L28.0004 3.38345L23.0967 0.15509C22.6664 -0.128523 22.0875 -0.00952441 21.8039 0.420853C21.7965 0.431937 21.7895 0.443253 21.7826 0.454686L18.7904 5.44422L12.9478 4.63503C12.4373 4.5641 11.9658 4.92051 11.8949 5.43104C11.8926 5.44749 11.8908 5.46406 11.8894 5.48062L11.3976 11.2392L5.78736 12.9901C5.29527 13.1438 5.02099 13.6671 5.17463 14.1592C5.18093 14.1795 5.18793 14.1996 5.19563 14.2193L7.29281 19.613L3.01726 23.5843C2.63997 23.9354 2.61873 24.526 2.9699 24.9033C2.98506 24.9196 3.00093 24.9354 3.01726 24.9506L7.28814 28.921L5.19003 34.3147C5.00325 34.7951 5.24125 35.3359 5.72168 35.5228C5.74151 35.5305 5.76158 35.5375 5.78176 35.5438L7.02028 35.9293L0.138898 47.1114C-0.131299 47.5504 0.00543308 48.1253 0.444444 48.3954C0.640675 48.5162 0.874589 48.5602 1.10115 48.5189L10.465 46.8165L12.1525 55.2537C12.2265 55.6238 12.5159 55.9129 12.8861 55.9864C12.9458 55.997 13.0065 56.0017 13.0672 56.0004C13.3791 56.0004 13.6705 55.8446 13.8437 55.5851L20.3919 45.7628L21.7816 48.0802C21.9125 48.2986 22.1269 48.454 22.3752 48.5105C22.4447 48.5265 22.5157 48.5343 22.587 48.5338C22.7695 48.5338 22.948 48.4803 23.1004 48.3798L28.0003 45.1515L32.904 48.3798C33.3343 48.6634 33.9132 48.5444 34.1968 48.1141C34.2042 48.103 34.2112 48.0917 34.2181 48.0802L35.6087 45.7619L42.1569 55.5851C42.33 55.8446 42.6215 56.0004 42.9334 56.0004C42.9942 56.0005 43.0549 55.9946 43.1145 55.9827C43.4847 55.9092 43.7741 55.6201 43.8481 55.25L45.5467 46.739L54.9826 47.6005C55.4959 47.6469 55.9498 47.2685 55.9963 46.7551C56.0156 46.5428 55.9616 46.3302 55.8431 46.1529ZM13.5433 52.674L12.1153 45.5472C12.0155 45.0481 11.5344 44.721 11.0336 44.8117L2.825 46.305L8.85892 36.5033L11.3966 37.2948L11.8875 43.0534C11.9092 43.3097 12.035 43.5458 12.2357 43.7067C12.4356 43.8663 12.6924 43.9369 12.9459 43.9017L18.7895 43.0926L19.3299 43.9941L13.5433 52.674ZM35.9271 41.6058L33.1178 46.2892L28.5137 43.254C28.2022 43.0489 27.7986 43.0489 27.4871 43.254L22.8821 46.2854L20.0728 41.6011C19.9043 41.3199 19.6006 41.1477 19.2729 41.1475C19.2298 41.1474 19.1867 41.1505 19.1441 41.1568L13.6646 41.9147L13.2035 36.5117C13.1712 36.1334 12.9129 35.8123 12.5502 35.6997L7.29281 34.0589L9.25278 29.0078C9.3915 28.6513 9.29863 28.2463 9.01852 27.9858L5.0239 24.2675L9.02318 20.5491C9.3033 20.2886 9.39616 19.8836 9.25745 19.5271L7.29747 14.4741L12.5567 12.8343C12.9195 12.7217 13.1777 12.4006 13.2101 12.0223L13.6711 6.61928L19.1507 7.37807C19.5231 7.43127 19.891 7.2558 20.084 6.93287L22.8933 2.24946L27.4871 5.28089C27.7986 5.48599 28.2022 5.48599 28.5137 5.28089L33.1187 2.24946L35.928 6.9338C36.1217 7.25335 36.4864 7.42777 36.8567 7.37807L42.3362 6.62021L42.7973 12.0232C42.8296 12.4016 43.0879 12.7226 43.4506 12.8352L48.7099 14.476L46.7443 19.5271C46.6056 19.8836 46.6985 20.2886 46.9786 20.5491L50.9769 24.2675L46.9776 27.9858C46.6975 28.2463 46.6047 28.6513 46.7434 29.0078L48.7033 34.0608L43.4487 35.7006C43.086 35.8132 42.8277 36.1343 42.7954 36.5126L42.3344 41.9156L36.8558 41.1606C36.4851 41.111 36.1205 41.2859 35.9271 41.6058ZM44.8842 44.8005C44.4112 44.7639 43.9842 45.0832 43.8855 45.5472L42.4604 52.6712L36.6738 43.9913L37.2132 43.0916L43.0558 43.9008C43.5663 43.9717 44.0378 43.6153 44.1087 43.1048C44.1111 43.0883 44.1128 43.0718 44.1142 43.0552L44.6061 37.2966L47.168 36.4977L53.2076 45.5612L44.8842 44.8005Z" fill="#F7971D"/>
<path d="M38.0813 30.9304C37.7661 30.1448 37.6071 29.3167 37.6071 28.4701V22.3572C37.6071 18.1167 34.7848 14.5608 30.9339 13.3611C30.705 12.0235 29.5449 11 28.1429 11C26.7409 11 25.5808 12.0235 25.3519 13.3611C21.5009 14.5608 18.6786 18.1167 18.6786 22.3572V28.4701C18.6786 29.3167 18.5197 30.1448 18.2045 30.9304L16.8532 34.3095C16.7367 34.6015 16.7728 34.9305 16.9484 35.1912C17.1249 35.4518 17.4179 35.6071 17.7321 35.6071H24.9266C25.5976 36.7476 26.7945 37.5 28.1429 37.5C29.4912 37.5 30.6881 36.7476 31.3592 35.6071H38.5535C38.8678 35.6071 39.1608 35.4518 39.3373 35.1912C39.5129 34.9305 39.549 34.6015 39.4325 34.3095C39.4325 34.3095 38.0813 30.9304 38.0813 30.9304ZM19.1296 33.7143L19.9624 31.6328C20.3663 30.6235 20.5714 29.5589 20.5714 28.47V22.3571C20.5714 18.1813 23.968 14.7857 28.1429 14.7857C32.3177 14.7857 35.7143 18.1813 35.7143 22.3571V28.47C35.7143 29.5588 35.9194 30.6235 36.3233 31.6328L37.1561 33.7143H19.1296Z" fill="#F7971D"/>
<path d="M14.7829 17.124C13.6164 19.3089 13 21.7729 13 24.2499C13 26.7269 13.6164 29.1909 14.7829 31.3759C15.9493 33.5608 17.4863 32.424 16.452 30.4849C15.4178 28.5459 14.8929 26.4478 14.8929 24.2499C14.8929 22.0521 15.4178 19.9541 16.452 18.015C17.4863 16.0758 15.9493 14.9391 14.7829 17.124Z" fill="#F7971D"/>
<path d="M41.5029 17.124C40.3365 14.9391 38.7995 16.0759 39.8337 18.0149C40.8679 19.954 41.3929 22.052 41.3929 24.2499C41.3929 26.4478 40.8679 28.5458 39.8337 30.4849C38.7995 32.424 40.3365 33.5608 41.5029 31.3758C42.6693 29.1909 43.2857 26.7269 43.2857 24.2499C43.2857 21.773 42.6693 19.3089 41.5029 17.124Z" fill="#F7971D"/>
</g>
<defs>
<clipPath id="clip0">
<rect width="56" height="56" fill="white"/>
</clipPath>
</defs>
</svg>
