<svg width="56" height="56" viewBox="0 0 56 56" fill="none" xmlns="http://www.w3.org/2000/svg">
<path d="M28 34.5625C26.1906 34.5625 24.7188 36.0344 24.7188 37.8438C24.7188 39.6531 26.1906 41.125 28 41.125C29.8094 41.125 31.2812 39.6531 31.2812 37.8438C31.2812 36.0344 29.8094 34.5625 28 34.5625ZM28 38.9375C27.3967 38.9375 26.9062 38.447 26.9062 37.8438C26.9062 37.2405 27.3967 36.75 28 36.75C28.6033 36.75 29.0938 37.2405 29.0938 37.8438C29.0938 38.447 28.6033 38.9375 28 38.9375Z" fill="#F7971D"/>
<path d="M54.9062 6.125H1.09375C0.489624 6.125 0 6.61462 0 7.21875V13.7812C0 14.0218 0.0794677 14.2559 0.225586 14.4469L5.03125 20.715V26.9062C5.03125 39.4831 15.2253 49.875 28 49.875C40.7127 49.875 50.9688 39.563 50.9688 26.9062V20.715L55.7744 14.4469C55.9214 14.2546 56 14.0128 56 13.7812V7.21875C56 6.61462 55.5104 6.125 54.9062 6.125ZM2.1875 8.3125H53.8125V12.6875H12.6875C12.0834 12.6875 11.5938 13.1771 11.5938 13.7812C11.5938 14.3854 12.0834 14.875 12.6875 14.875H52.6897L49.3354 19.25H6.66461L2.1875 13.4104V8.3125ZM18.1562 45.2116V37.8438C18.1562 32.416 22.5723 28 28 28C33.4277 28 37.8438 32.416 37.8438 37.8438V45.2116C34.8342 46.8326 31.4449 47.6875 28 47.6875C24.5551 47.6875 21.1662 46.8326 18.1562 45.2116ZM40.0312 43.8495V37.8438C40.0312 31.2099 34.6339 25.8125 28 25.8125C21.3661 25.8125 15.9688 31.2099 15.9688 37.8438V43.8508C10.6324 40.0547 7.21875 33.8887 7.21875 26.9062V21.4375H48.7812V26.9062C48.7812 33.6482 45.4718 39.9749 40.0312 43.8495Z" fill="#F7971D"/>
</svg>
