<svg width="1920" height="2768" viewBox="0 0 1920 2768" fill="none" xmlns="http://www.w3.org/2000/svg">
<g opacity="0.5">
<path d="M-4 705C132 673 411.2 606.6 440 597C476 585 448 517 460 473C472 429 1140 341 1208 313C1276 285 1212 177 1236 153C1255.2 133.8 1697.33 81 1916 57" stroke="#FFBE2E" stroke-opacity="0.8"/>
<path d="M-2 1709C134 1677 413.2 1610.6 442 1601C478 1589 450 1521 462 1477C474 1433 1142 1345 1210 1317C1278 1289 1214 1181 1238 1157C1257.2 1137.8 1699.33 1085 1918 1061" stroke="#FFBE2E" stroke-opacity="0.8"/>
<path d="M1918 2475C1699.33 2499 1257.2 2551.8 1238 2571C1214 2595 1278 2703 1210 2731C1190.35 2739.09 1120.57 2752.2 1031 2767.8" stroke="#FFBE2E" stroke-opacity="0.8"/>
<path d="M0 633C136 601 508.2 652.6 537 643C573 631 497 567 509 523C521 479 1650 350 1718 322C1786 294 1722 186 1746 162C1765.2 142.8 1699.33 25 1918 1" stroke="#E5E5E5"/>
<path d="M2 1637C138 1605 527.2 1646.6 556 1637C592 1625 520 1553 532 1509C544 1465 1652 1354 1720 1326C1788 1298 1724 1190 1748 1166C1767.2 1146.8 1701.33 1029 1920 1005" stroke="#E5E5E5"/>
<path d="M1920 2419C1701.33 2443 1767.2 2560.8 1748 2580C1724 2604 1788 2712 1720 2740C1705.81 2745.84 1646.34 2755.3 1561 2767.01" stroke="#E5E5E5"/>
<path d="M-2 717C134 685 371.2 650.6 400 641C436 629 408 561 420 517C432 473 1100 385 1168 357C1236 329 1172 221 1196 197C1215.2 177.8 1699.33 87 1918 63" stroke="#FFBE2E" stroke-opacity="0.8"/>
<path d="M0 1721C136 1689 373.2 1654.6 402 1645C438 1633 410 1565 422 1521C434 1477 1102 1389 1170 1361C1238 1333 1174 1225 1198 1201C1217.2 1181.8 1701.33 1091 1920 1067" stroke="#FFBE2E" stroke-opacity="0.8"/>
<path d="M1170 2775C1238 2747 1174 2639 1198 2615C1217.2 2595.8 1701.33 2505 1920 2481" stroke="#FFBE2E" stroke-opacity="0.8"/>
<path d="M-2 723C134 691 529.2 606.6 558 597C594 585 566 517 578 473C590 429 1258 341 1326 313C1394 285 1330 177 1354 153C1373.2 133.8 1697.33 97 1916 73" stroke="#FFBE2E"/>
<path d="M0 1727C136 1695 531.2 1610.6 560 1601C596 1589 568 1521 580 1477C592 1433 1260 1345 1328 1317C1396 1289 1332 1181 1356 1157C1375.2 1137.8 1699.33 1101 1918 1077" stroke="#FFBE2E" stroke-opacity="0.8"/>
<path d="M1918 2491C1699.33 2515 1375.2 2551.8 1356 2571C1332 2595 1396 2703 1328 2731C1308.35 2739.09 1238.57 2752.2 1149 2767.8" stroke="#FFBE2E" stroke-opacity="0.8"/>
</g>
</svg>
