<svg width="141" height="36" viewBox="0 0 141 36" fill="none" xmlns="http://www.w3.org/2000/svg">
<g clip-path="url(#clip0)">
<path d="M136.409 0.221252H49.1091C46.5751 0.221252 44.5208 2.26861 44.5208 4.79414V31.4179C44.5208 33.9434 46.5751 35.9908 49.1091 35.9908H136.409C138.943 35.9908 140.998 33.9434 140.998 31.4179V4.79414C140.998 2.26861 138.943 0.221252 136.409 0.221252Z" fill="#E88D24"/>
<path d="M54.3473 19.988C54.3473 19.7782 54.3241 19.5085 54.3241 19.172V16.7496C54.3241 16.4062 54.3241 16.1296 54.3473 15.9106C54.3517 14.9907 54.5602 14.0832 54.9578 13.2531C55.3105 12.5317 55.8248 11.9008 56.461 11.4092C57.1129 10.9175 57.8543 10.5566 58.6442 10.3466C59.5154 10.111 60.4148 9.99465 61.3176 10.0009C61.8768 10.0026 62.435 10.0473 62.9873 10.1346C63.5569 10.2228 64.1168 10.3648 64.6594 10.5587C65.2054 10.7553 65.7257 11.0169 66.2089 11.3377C66.6834 11.6494 67.1049 12.0346 67.4577 12.4786C67.981 13.1003 68.2813 13.8781 68.3111 14.689C68.3123 14.7537 68.3006 14.818 68.2764 14.878C68.2508 14.9375 68.2139 14.9916 68.1677 15.0371C68.1225 15.0831 68.0681 15.1192 68.0081 15.1431C67.9491 15.169 67.8853 15.1824 67.8208 15.1823H64.3934C64.2751 15.1948 64.1562 15.1628 64.0604 15.0924C63.9619 15.0355 63.878 14.9566 63.8153 14.8619C63.728 14.6603 63.612 14.4725 63.4707 14.3041C63.3186 14.1306 63.1506 13.9716 62.9688 13.8293C62.4821 13.5054 61.9047 13.3439 61.3199 13.3683C59.6147 13.3683 58.7236 14.2618 58.6465 16.0489C58.6326 16.2594 58.6257 16.5183 58.6257 16.8256V19.0821C58.6257 19.4094 58.6257 19.6768 58.6465 19.8865C58.6758 20.8177 58.914 21.5215 59.3611 21.9978C59.8082 22.4742 60.5876 22.7046 61.6992 22.6893C62.0553 22.6893 62.3444 22.6893 62.5664 22.657C62.7588 22.6468 62.9496 22.6159 63.1353 22.5648C63.2789 22.5186 63.4146 22.451 63.5377 22.3643L63.9055 22.0854C64.2269 21.7941 64.4519 21.4122 64.5507 20.9906C64.5993 20.772 64.6939 20.5662 64.8282 20.3867C64.9436 20.2316 65.0872 20.0995 65.2514 19.9972C65.3951 19.9056 65.5507 19.8342 65.7139 19.7851C65.8404 19.7446 65.972 19.7221 66.1048 19.7183H62.1733C62.0942 19.7225 62.0152 19.7091 61.942 19.6791C61.8701 19.6517 61.8058 19.6074 61.7547 19.55C61.6555 19.4331 61.6035 19.2836 61.609 19.1305V18.7571C61.6101 18.5214 61.6516 18.2875 61.7316 18.0657C61.8095 17.8378 61.9348 17.6289 62.0993 17.4526C62.2697 17.2672 62.4737 17.1154 62.7006 17.0054C62.9605 16.8799 63.2467 16.8183 63.5354 16.8256H66.8356C67.0542 16.8049 67.2746 16.8333 67.4807 16.9087C67.6869 16.9841 67.8734 17.1045 68.0266 17.2613C68.2864 17.5974 68.4162 18.0155 68.392 18.4391V19.981C68.4172 20.9256 68.2191 21.8628 67.8138 22.7169C67.4497 23.4565 66.9195 24.1024 66.2644 24.6046C65.5918 25.1089 64.8289 25.4805 64.0165 25.6995C62.2436 26.1766 60.3754 26.1766 58.6025 25.6995C57.8085 25.4842 57.0661 25.1118 56.4194 24.6046C55.7907 24.0964 55.2881 23.4504 54.9509 22.7169C54.5604 21.8594 54.3547 20.9297 54.3473 19.988Z" fill="black"/>
<path d="M70.8087 20.0525V12.3242C70.8083 12.0465 70.8732 11.7726 70.9984 11.5244C71.1107 11.2951 71.268 11.0906 71.4609 10.9228C71.6407 10.7594 71.8492 10.6305 72.0761 10.5425C72.2915 10.456 72.5214 10.4106 72.7537 10.4089H74.4026C74.4815 10.404 74.5604 10.4165 74.6338 10.4457C74.7019 10.4753 74.7633 10.5183 74.8141 10.5722C74.865 10.6261 74.9044 10.6897 74.9299 10.7592C74.959 10.8324 74.9716 10.9111 74.9669 10.9897V20.0087C74.9289 20.7331 75.1456 21.4479 75.5797 22.0301C75.9891 22.5256 76.6297 22.7792 77.5062 22.7792C78.3827 22.7792 79.0209 22.5233 79.4233 22.0186C79.8472 21.4362 80.0593 20.7273 80.0246 20.0087V12.3242C80.0174 12.034 80.0826 11.7465 80.2143 11.4875C80.3346 11.2615 80.497 11.0605 80.693 10.8952C80.8736 10.7322 81.0851 10.6068 81.3151 10.5264C81.526 10.4478 81.749 10.4065 81.9742 10.4042H83.6208C83.6997 10.3996 83.7786 10.4122 83.8521 10.4411C83.9232 10.4691 83.9878 10.5115 84.0417 10.5656C84.0964 10.6208 84.1389 10.6867 84.1666 10.7592C84.1954 10.8325 84.2087 10.911 84.2059 10.9897V20.0525C84.229 20.9893 84.072 21.9219 83.7434 22.7999C83.4596 23.5377 82.9973 24.1941 82.3974 24.7107C81.7808 25.2239 81.0642 25.6045 80.2929 25.8285C79.4024 26.0843 78.4791 26.2085 77.5524 26.1973C76.6228 26.2067 75.6965 26.0864 74.8004 25.8401C74.0197 25.6236 73.2949 25.2423 72.675 24.7222C72.0706 24.1996 71.6004 23.5405 71.3036 22.7999C70.9607 21.925 70.7925 20.9917 70.8087 20.0525Z" fill="black"/>
<path d="M85.8872 25.8723C85.8086 25.7777 85.7625 25.6607 85.7554 25.5381C85.7507 25.4698 85.7577 25.4012 85.7762 25.3353L90.945 11.0934C90.9981 10.9011 91.115 10.7323 91.2767 10.6147C91.4384 10.4971 91.6353 10.4375 91.8353 10.4457H95.2812C95.4812 10.4375 95.6781 10.4971 95.8398 10.6147C96.0015 10.7323 96.1184 10.9011 96.1715 11.0934L101.34 25.3353C101.359 25.4012 101.366 25.4698 101.361 25.5381C101.361 25.5986 101.347 25.6584 101.322 25.7133C101.269 25.8236 101.18 25.913 101.07 25.9668C101.015 25.9923 100.955 26.0057 100.894 26.006H98.0286C97.8656 26.0185 97.7031 25.9772 97.566 25.8884C97.4289 25.7997 97.3249 25.6685 97.2701 25.5151L96.1137 22.3643C95.586 22.5709 95.0452 22.7426 94.4949 22.8783C93.9696 23.0077 93.4377 23.1085 92.9015 23.1802C92.3896 23.2478 91.9109 23.2924 91.4653 23.3139C91.0213 23.3369 90.6304 23.3485 90.309 23.3485H89.7748C89.6633 23.35 89.5519 23.3423 89.4417 23.3254C89.581 23.3392 89.715 23.3858 89.8326 23.4614C89.9511 23.5373 90.0502 23.64 90.1217 23.761C90.2046 23.8957 90.2538 24.0483 90.265 24.2059C90.2743 24.3644 90.2441 24.5228 90.1772 24.6669L89.8649 25.5035C89.8101 25.657 89.7061 25.7882 89.569 25.8769C89.4319 25.9656 89.2694 26.007 89.1064 25.9945H86.2225C86.1005 25.9903 85.9831 25.9476 85.8872 25.8723ZM91.5486 20.1447C91.9625 20.1147 92.3834 20.0617 92.8413 19.9879C93.2495 19.9217 93.6539 19.8348 94.0532 19.7275C94.4757 19.6168 94.8833 19.4558 95.2673 19.2481L93.5536 14.3318L91.5486 20.1447Z" fill="black"/>
<path d="M116.248 25.8147C116.204 25.8588 116.152 25.8935 116.094 25.9165C116.036 25.9395 115.974 25.9504 115.912 25.9484H112.795C112.598 25.9578 112.404 25.9045 112.24 25.7963C112.074 25.6847 111.948 25.5232 111.881 25.3353L109.631 20.8823C109.577 20.7719 109.493 20.6791 109.388 20.6149C109.282 20.5509 109.159 20.5196 109.035 20.525H106.09C106.262 20.5162 106.433 20.5477 106.59 20.6172C106.746 20.6881 106.884 20.7938 106.992 20.9261C107.186 21.1425 107.3 21.418 107.316 21.7074V25.3952C107.322 25.4737 107.31 25.5524 107.282 25.6257C107.255 25.697 107.213 25.7615 107.159 25.8147C107.042 25.9158 106.89 25.9679 106.736 25.9599H103.706C103.633 25.9641 103.559 25.9514 103.491 25.9231C103.421 25.897 103.358 25.8561 103.306 25.8032C103.254 25.7506 103.213 25.6878 103.186 25.6188C103.159 25.5498 103.148 25.476 103.151 25.4021V12.3242C103.143 12.0638 103.19 11.8045 103.29 11.5636C103.39 11.3233 103.54 11.1065 103.729 10.9275C103.907 10.749 104.118 10.6079 104.351 10.5125C104.585 10.417 104.835 10.3693 105.087 10.372H109.821C110.62 10.3678 111.417 10.4615 112.194 10.6509C112.9 10.814 113.569 11.1105 114.164 11.5244C114.736 11.9356 115.202 12.4758 115.524 13.101C115.87 13.8543 116.045 14.6746 116.035 15.5031C116.025 16.3316 115.832 17.1477 115.468 17.8928C115.051 18.6282 114.427 19.2259 113.674 19.6123C113.625 19.6423 113.583 19.683 113.552 19.7313C113.522 19.7796 113.502 19.8343 113.496 19.8912C113.492 19.9758 113.508 20.0601 113.542 20.1378L116.317 25.2085C116.373 25.3034 116.396 25.4142 116.382 25.5235C116.368 25.6327 116.319 25.7344 116.241 25.8124L116.248 25.8147ZM111.726 15.4427C111.743 15.1865 111.705 14.9297 111.615 14.689C111.525 14.4526 111.384 14.2381 111.204 14.0598C110.81 13.7269 110.304 13.5576 109.788 13.5873H105.956C106.121 13.5812 106.285 13.6135 106.435 13.6818C106.586 13.7493 106.72 13.8502 106.826 13.9768C107.034 14.1987 107.153 14.4892 107.159 14.7928V16.5814C107.159 16.6722 107.176 16.7622 107.21 16.8464C107.244 16.9325 107.295 17.0109 107.36 17.0769C107.426 17.1418 107.505 17.1927 107.591 17.2267C107.676 17.2606 107.766 17.2778 107.857 17.2774H109.807C110.315 17.3016 110.815 17.141 111.213 16.8257C111.396 16.6503 111.537 16.436 111.625 16.1987C111.714 15.9574 111.749 15.6991 111.726 15.4427Z" fill="black"/>
<path d="M118.519 25.439V12.3703C118.512 12.1088 118.561 11.8487 118.662 11.6074C118.761 11.3671 118.911 11.1509 119.102 10.9736C119.459 10.6173 119.944 10.4167 120.45 10.4158H124.904C125.833 10.406 126.759 10.5223 127.656 10.7615C128.456 10.9714 129.203 11.3442 129.851 11.8563C130.483 12.3654 130.987 13.0161 131.319 13.7556C131.697 14.6188 131.895 15.5497 131.9 16.4915C131.914 16.6989 131.921 16.9524 131.921 17.2406V19.1697C131.921 19.4486 131.921 19.6976 131.9 19.9073C131.766 23.9731 129.471 26.006 125.015 26.006H119.076C119.002 26.0096 118.928 25.9978 118.859 25.9715C118.79 25.9442 118.727 25.9026 118.676 25.8493C118.623 25.7973 118.582 25.7344 118.556 25.6649C118.529 25.596 118.516 25.5222 118.519 25.4483V25.439ZM124.922 22.6732C125.888 22.6732 126.586 22.4427 127.018 21.9817C127.449 21.5207 127.671 20.817 127.684 19.8704C127.698 19.6615 127.709 19.4194 127.718 19.1444C127.718 18.8701 127.718 18.5566 127.718 18.2224V17.3005C127.718 17.0285 127.698 16.7819 127.684 16.5744C127.639 14.7136 126.682 13.7832 124.811 13.7832H121.47C121.629 13.782 121.786 13.8133 121.932 13.8754C122.083 13.938 122.217 14.0324 122.328 14.152C122.437 14.2541 122.524 14.3762 122.587 14.5116C122.648 14.6481 122.681 14.7954 122.684 14.9449V21.9771C122.682 22.0676 122.697 22.1577 122.73 22.2422C122.762 22.3277 122.811 22.406 122.873 22.4726C122.938 22.5402 123.017 22.5929 123.105 22.6271C123.191 22.6621 123.284 22.6778 123.378 22.6732H124.922Z" fill="black"/>
<path d="M62.3699 2.24496C62.0993 2.24516 61.834 2.3195 61.603 2.45985C61.3719 2.60021 61.1841 2.80117 61.0599 3.04077C60.9358 3.28037 60.8801 3.54938 60.8991 3.81837C60.918 4.08737 61.0108 4.346 61.1673 4.56598L58.776 6.81785H51.7779L53.9241 5.01082C54.2438 5.18046 54.6148 5.22738 54.9669 5.14269C55.319 5.05801 55.6277 4.84759 55.8345 4.55129C56.0414 4.25499 56.1321 3.89338 56.0894 3.53492C56.0467 3.17646 55.8737 2.84603 55.6029 2.60622C55.3322 2.3664 54.9827 2.23383 54.6205 2.23361C54.2583 2.2334 53.9086 2.36555 53.6376 2.60505C53.3666 2.84454 53.1932 3.17476 53.15 3.53317C53.1069 3.89158 53.1972 4.2533 53.4037 4.54985L50.7048 6.82246H44.5208V7.51393H59.0535L61.6946 5.02465C61.8928 5.12919 62.1123 5.18725 62.3365 5.1944C62.5606 5.20155 62.7834 5.15761 62.9879 5.06593C63.1924 4.97425 63.3732 4.83724 63.5166 4.66535C63.6599 4.49347 63.762 4.29124 63.815 4.07408C63.868 3.85691 63.8706 3.63056 63.8225 3.41225C63.7745 3.19395 63.677 2.98946 63.5376 2.81438C63.3983 2.6393 63.2206 2.49824 63.0182 2.40195C62.8159 2.30567 62.5941 2.25671 62.3699 2.25879V2.24496ZM62.3699 4.49223C62.2151 4.49268 62.0636 4.44732 61.9347 4.36189C61.8058 4.27646 61.7053 4.15482 61.6458 4.01237C61.5864 3.86992 61.5707 3.71309 61.6008 3.56176C61.6309 3.41042 61.7054 3.2714 61.8148 3.16231C61.9243 3.05321 62.0638 2.97897 62.2156 2.94898C62.3675 2.919 62.5248 2.93462 62.6678 2.99387C62.8107 3.05312 62.9327 3.15333 63.0185 3.2818C63.1042 3.41026 63.1497 3.5612 63.1492 3.71548C63.1492 3.92149 63.0671 4.11905 62.921 4.26472C62.7748 4.41039 62.5766 4.49223 62.3699 4.49223Z" fill="white"/>
<path d="M125.956 2.10665C125.626 2.10657 125.306 2.21694 125.046 2.42006C124.787 2.62318 124.603 2.90728 124.525 3.22683H113.389L111.084 0.080658L110.242 0.103707L113.038 3.91829H124.525C124.59 4.18609 124.729 4.43023 124.927 4.62278C125.125 4.81534 125.373 4.94854 125.643 5.00716C125.913 5.06578 126.194 5.04745 126.455 4.95427C126.715 4.86109 126.943 4.69682 127.114 4.48023C127.285 4.26365 127.392 4.0035 127.421 3.72954C127.451 3.45557 127.402 3.17884 127.281 2.93099C127.161 2.68314 126.972 2.47418 126.738 2.328C126.504 2.18181 126.233 2.10431 125.956 2.10435V2.10665Z" fill="white"/>
<path d="M86.6203 6.91464C86.4038 6.915 86.19 6.96219 85.9936 7.05293L82.9247 3.88371L82.89 0.230469H82.1962L82.2332 4.16491L85.4524 7.49547C85.2509 7.75978 85.1451 8.08426 85.1521 8.41614C85.1591 8.74802 85.2786 9.06777 85.4911 9.32337C85.7036 9.57898 85.9967 9.75541 86.3225 9.82396C86.6484 9.89251 86.988 9.84915 87.286 9.70093C87.5841 9.55271 87.823 9.30835 87.964 9.00761C88.105 8.70686 88.1397 8.36742 88.0626 8.04449C87.9854 7.72157 87.8009 7.43416 87.5391 7.22902C87.2772 7.02388 86.9534 6.91308 86.6203 6.91464Z" fill="white"/>
<path d="M112.857 28.599C112.635 28.4347 112.371 28.3362 112.095 28.3147C111.819 28.2933 111.542 28.3498 111.297 28.4778C111.051 28.6058 110.847 28.8001 110.708 29.0384C110.568 29.2767 110.499 29.5494 110.508 29.8252L107.099 30.4245L102.936 35.9838H103.799L107.499 31.056L110.693 30.489C110.794 30.6701 110.934 30.8273 111.102 30.95C111.256 31.0798 111.434 31.1769 111.627 31.2352C111.82 31.2935 112.022 31.3119 112.222 31.2891C112.422 31.2663 112.616 31.2029 112.79 31.1027C112.965 31.0026 113.117 30.8679 113.237 30.7068C113.357 30.5458 113.443 30.362 113.489 30.1666C113.535 29.9713 113.541 29.7686 113.505 29.571C113.469 29.3735 113.394 29.1853 113.282 29.0181C113.171 28.8509 113.026 28.7083 112.857 28.599Z" fill="white"/>
<path d="M132.859 26.7367C133.002 26.7366 133.141 26.7754 133.263 26.8489C133.385 26.9223 133.484 27.0275 133.55 27.1531C133.616 27.2787 133.646 27.4199 133.637 27.5615C133.629 27.703 133.581 27.8394 133.5 27.956L133.391 28.1127L133.223 28.2026C133.11 28.2609 132.984 28.2917 132.857 28.2925C132.652 28.2919 132.456 28.2111 132.31 28.0676C132.164 27.924 132.081 27.7292 132.078 27.5249C132.075 27.3187 132.155 27.1199 132.299 26.9722C132.444 26.8244 132.641 26.7397 132.848 26.7367H132.859ZM132.848 26.0452H132.829C132.448 26.0622 132.089 26.2255 131.826 26.5009C131.563 26.7762 131.418 27.1423 131.42 27.5223C131.422 27.9023 131.572 28.2668 131.837 28.5393C132.103 28.8118 132.464 28.9711 132.846 28.9839H132.864C133.099 28.9819 133.33 28.9226 133.537 28.8111L136.215 31.275H140.995V30.5674L136.483 30.5812L134.069 28.3501C134.223 28.1301 134.314 27.8722 134.331 27.6045C134.348 27.3367 134.291 27.0695 134.166 26.8317C134.041 26.594 133.854 26.395 133.623 26.2563C133.393 26.1176 133.129 26.0446 132.859 26.0452H132.848Z" fill="white"/>
<path d="M80.7924 31.3626C80.4618 31.3627 80.1408 31.4738 79.8812 31.6778C79.6215 31.8818 79.4383 32.1669 79.3609 32.4873H71.7731L68.3943 35.9908H69.3795L72.0576 33.1903H79.3609C79.426 33.4587 79.5657 33.7034 79.7638 33.8963C79.962 34.0893 80.2106 34.2228 80.4813 34.2815C80.752 34.3402 81.0338 34.3218 81.2945 34.2283C81.5552 34.1348 81.7842 33.9701 81.9553 33.753C82.1265 33.5359 82.2328 33.2751 82.2622 33.0006C82.2916 32.726 82.2428 32.4488 82.1215 32.2006C82.0001 31.9523 81.8111 31.7432 81.5761 31.597C81.341 31.4509 81.0695 31.3736 80.7924 31.3741V31.3626ZM80.7924 33.6098C80.6377 33.6098 80.4865 33.5641 80.3579 33.4784C80.2293 33.3927 80.1291 33.2709 80.07 33.1284C80.011 32.9859 79.9956 32.8291 80.026 32.6779C80.0563 32.5268 80.131 32.3879 80.2405 32.2791C80.3501 32.1702 80.4896 32.0962 80.6414 32.0664C80.7931 32.0366 80.9504 32.0524 81.0932 32.1117C81.236 32.171 81.3579 32.2712 81.4435 32.3996C81.5291 32.5281 81.5746 32.6789 81.5741 32.8331C81.5735 33.0393 81.4909 33.2369 81.3444 33.3825C81.1978 33.5281 80.9994 33.6098 80.7924 33.6098Z" fill="white"/>
<path d="M55.3278 35.9908L50.3394 31.0307C50.5272 30.7234 50.5955 30.3583 50.5313 30.0043C50.4671 29.6503 50.275 29.332 49.9912 29.1097C49.7075 28.8873 49.3518 28.7764 48.9915 28.7978C48.6312 28.8192 48.2912 28.9715 48.036 29.2259C47.7808 29.4803 47.628 29.8191 47.6065 30.1782C47.585 30.5372 47.6963 30.8917 47.9194 31.1745C48.1425 31.4573 48.4618 31.6488 48.817 31.7128C49.1722 31.7768 49.5386 31.7087 49.8469 31.5216L54.3473 36L55.3278 35.9908ZM49.6318 29.7169C49.7414 29.8257 49.8162 29.9645 49.8466 30.1157C49.8771 30.2669 49.8618 30.4237 49.8027 30.5663C49.7436 30.7088 49.6434 30.8307 49.5148 30.9164C49.3862 31.0022 49.235 31.048 49.0802 31.048C48.9255 31.048 48.7742 31.0022 48.6456 30.9164C48.517 30.8307 48.4168 30.7088 48.3577 30.5663C48.2987 30.4237 48.2834 30.2669 48.3138 30.1157C48.3442 29.9645 48.419 29.8257 48.5286 29.7169C48.6751 29.5715 48.8735 29.4899 49.0802 29.4899C49.287 29.4899 49.4853 29.5715 49.6318 29.7169Z" fill="white"/>
<path d="M9.83801 1.35297C9.84716 1.18015 9.81958 1.00735 9.75706 0.845897C9.69614 0.684163 9.60246 0.536661 9.48186 0.412579C9.36378 0.288289 9.22023 0.190809 9.06096 0.126773C8.90068 0.0644397 8.72829 0.0392193 8.5568 0.0530168H4.45878C3.88053 0.0475597 3.30688 0.155915 2.77073 0.371871C2.23457 0.587826 1.74647 0.907133 1.33439 1.31148C0.897134 1.72292 0.552181 2.22191 0.322198 2.77567C0.0922146 3.32943 -0.0175926 3.92543 -8.25163e-06 4.52449V21.6659L3.13595 19.3864V8.29759C2.78563 8.213 2.47858 8.00333 2.27294 7.70828C2.0673 7.41323 1.97734 7.05328 2.02008 6.69657C2.06282 6.33986 2.2353 6.01115 2.50487 5.77266C2.77444 5.53417 3.12239 5.40245 3.48284 5.40245C3.8433 5.40245 4.19125 5.53417 4.46082 5.77266C4.73039 6.01115 4.90287 6.33986 4.94561 6.69657C4.98835 7.05328 4.89839 7.41323 4.69274 7.70828C4.4871 8.00333 4.18006 8.213 3.82974 8.29759V19.739L-8.25163e-06 22.5256V34.594C0.00581645 34.9322 0.142531 35.2551 0.381579 35.4952C0.620595 35.7352 0.944286 35.8725 1.28351 35.8778H8.5568C8.73291 35.8902 8.90938 35.8593 9.07068 35.7877C9.23199 35.7162 9.37318 35.6063 9.48186 35.4676C9.59768 35.3533 9.68898 35.2167 9.75021 35.0661C9.81143 34.9155 9.8413 34.7541 9.83801 34.5917V27.7785L6.5818 24.4894V16.9294C6.23148 16.8448 5.92443 16.6351 5.71879 16.3401C5.51315 16.045 5.42319 15.6851 5.46593 15.3284C5.50867 14.9717 5.68115 14.6429 5.95072 14.4045C6.22029 14.166 6.56824 14.0342 6.92869 14.0342C7.28915 14.0342 7.6371 14.166 7.90667 14.4045C8.17624 14.6429 8.34872 14.9717 8.39146 15.3284C8.4342 15.6851 8.34423 16.045 8.13859 16.3401C7.93295 16.6351 7.62591 16.8448 7.27559 16.9294V24.2013L9.83801 26.7897V1.35297Z" fill="black"/>
<path d="M6.94026 16.3439C7.41284 16.3439 7.79594 15.9621 7.79594 15.4911C7.79594 15.0201 7.41284 14.6383 6.94026 14.6383C6.46768 14.6383 6.08458 15.0201 6.08458 15.4911C6.08458 15.9621 6.46768 16.3439 6.94026 16.3439Z" fill="black"/>
<path d="M41.7849 0.785959C41.7182 0.631944 41.6206 0.493124 41.4982 0.377994C41.375 0.253383 41.2268 0.156005 41.0634 0.0921884C40.9011 0.0270638 40.7272 -0.0043103 40.5523 -7.02008e-06H15.9573C15.0992 0.00407108 14.2604 0.253674 13.5406 0.719117C12.8178 1.18405 12.2426 1.84438 11.8824 2.62295C11.6211 3.18614 11.4892 3.80032 11.4962 4.42076V7.04372C11.4901 7.21845 11.524 7.39226 11.5954 7.55199C11.6667 7.71172 11.7735 7.85319 11.9078 7.96568C12.1598 8.19726 12.4901 8.32565 12.8329 8.32524H20.2681C20.6665 8.32099 21.0516 8.46763 21.3457 8.73551C21.5006 8.87987 21.6221 9.05603 21.7019 9.2518C21.7814 9.44687 21.8169 9.65695 21.806 9.86721V34.5295C21.7988 34.6977 21.8321 34.8653 21.9031 35.0181C21.9735 35.1702 22.0808 35.3025 22.2153 35.403C22.3366 35.5234 22.4814 35.6176 22.6408 35.6796C22.8 35.7406 22.9699 35.7688 23.1404 35.7626H28.7439V29.733L26.4613 27.0409C26.217 27.21 25.9263 27.3002 25.6288 27.2991C25.3067 27.2985 24.9936 27.1928 24.7376 26.9981C24.4815 26.8033 24.2966 26.5303 24.211 26.2208C24.1254 25.9114 24.144 25.5825 24.2639 25.2845C24.3837 24.9865 24.5983 24.7359 24.8746 24.5711C25.151 24.4062 25.474 24.3361 25.7941 24.3716C26.1142 24.4071 26.4138 24.5462 26.6471 24.7675C26.8804 24.9889 27.0344 25.2803 27.0856 25.5973C27.1369 25.9142 27.0825 26.2391 26.9308 26.5223L28.7439 28.6612V21.6659L26.4845 19.2919C26.2149 19.4831 25.8887 19.5785 25.5582 19.5627C25.2277 19.547 24.9121 19.4209 24.6621 19.2049C24.4121 18.9888 24.2423 18.6953 24.1798 18.3714C24.1174 18.0476 24.166 17.7122 24.3178 17.4192C24.4696 17.1262 24.7158 16.8925 25.0169 16.7558C25.318 16.619 25.6565 16.5871 25.978 16.6652C26.2994 16.7432 26.5853 16.9267 26.7895 17.1861C26.9938 17.4455 27.1046 17.7659 27.1042 18.0956C27.1042 18.3291 27.0479 18.5591 26.94 18.7664L29.4377 21.3985V35.7695H30.2379C30.4087 35.7771 30.5792 35.749 30.7385 35.6871C30.8978 35.6251 31.0424 35.5308 31.1629 35.4099C31.2959 35.3117 31.4031 35.1828 31.4752 35.0342C31.5464 34.8815 31.5798 34.7139 31.5723 34.5456V11.0035C31.564 10.6507 31.4813 10.3036 31.3295 9.98475C31.1774 9.66736 30.958 9.38662 30.6865 9.16191C30.1459 8.62634 29.416 8.32346 28.6537 8.31832H40.5523C40.7261 8.32316 40.8992 8.29368 41.0615 8.23158C41.2239 8.16947 41.3723 8.07597 41.4982 7.95646C41.6264 7.84032 41.7268 7.69696 41.7919 7.53697C41.8594 7.37828 41.891 7.20673 41.8844 7.0345V1.27229C41.8846 1.10514 41.8508 0.939695 41.7849 0.785959Z" fill="black"/>
<path d="M24.8009 18.1095C24.8004 18.2787 24.8503 18.4442 24.9443 18.5852C25.0383 18.7261 25.1722 18.836 25.3289 18.9011C25.4856 18.9662 25.6582 18.9835 25.8248 18.9507C25.9914 18.918 26.1445 18.8367 26.2647 18.7172C26.3849 18.5977 26.4669 18.4454 26.5002 18.2794C26.5335 18.1135 26.5166 17.9415 26.4518 17.7851C26.3869 17.6287 26.2769 17.495 26.1358 17.4009C25.9946 17.3069 25.8286 17.2567 25.6589 17.2567C25.5463 17.2564 25.4348 17.2782 25.3307 17.3209C25.2266 17.3636 25.132 17.4264 25.0523 17.5056C24.9726 17.5848 24.9094 17.679 24.8662 17.7826C24.8231 17.8862 24.8009 17.9973 24.8009 18.1095Z" fill="black"/>
</g>
<defs>
<clipPath id="clip0">
<rect width="141" height="36" fill="white"/>
</clipPath>
</defs>
</svg>
