<svg width="119" height="220" viewBox="0 0 119 217" fill="none" xmlns="http://www.w3.org/2000/svg">
<g clip-path="url(#clip0)">
<path d="M25.0419 62.2082L12.6398 55.7059V43.3599L25.0419 49.9393V62.2082ZM13.3779 55.243L24.3189 61.0816V50.4691L13.3779 44.6305V55.243Z" fill="white"/>
<path d="M23.4001 59.528L14.2969 54.6719V46.1531L23.4001 51.0092V59.528ZM14.9094 54.3838L22.657 58.458L22.7072 51.3848L14.8843 47.1408L14.9094 54.3838Z" fill="white"/>
<path d="M40.5421 70.6138L28.1399 64.1167V51.7707L40.5421 58.3501V70.6138ZM28.878 63.6486L39.819 69.4872V58.8799L28.878 53.0362V63.6486Z" fill="white"/>
<path d="M38.8952 67.9336L29.7969 63.0878V54.5588L38.8952 59.4149V67.9336ZM30.4095 62.8152L38.1571 66.8379L38.2073 59.7647L30.3843 55.5311L30.4095 62.8152Z" fill="white"/>
<path d="M56.1176 78.9628L43.7455 72.4606V60.1145L56.1176 66.6888V78.9628ZM44.4535 71.9976L55.3995 77.8363V67.2289L44.4535 61.3851V71.9976Z" fill="white"/>
<path d="M54.4757 76.2827L45.3774 71.4266V62.913L54.4757 67.7691V76.2827ZM45.985 71.1385L53.7326 75.1612L53.7828 68.088L45.9649 63.8544L45.985 71.1385Z" fill="white"/>
<path d="M81.6449 73.3401L69.2428 79.9195V67.5736L81.6449 61.0714V73.3401ZM69.9809 78.6592L80.9018 72.8206V62.2082L69.9608 68.0468L69.9809 78.6592Z" fill="#F7971D"/>
<path d="M80.003 72.2806L70.8998 77.1367V68.6179L80.003 63.7617V72.2806ZM71.4672 76.1644L79.29 71.9307L79.2398 64.8574L71.4923 68.8802L71.4672 76.1644Z" fill="#F7971D"/>
<path d="M95.3375 66.0046L82.9353 72.5841V60.238L95.3375 53.7357V66.0046ZM83.6734 71.3186L94.6144 65.4748V54.8571L83.6734 60.6958V71.3186Z" fill="#F7971D"/>
<path d="M93.6956 64.9449L84.5974 69.801V61.2823L93.6956 56.4262V64.9449ZM85.1598 68.8287L92.9826 64.5951L92.9324 57.5219L85.205 61.5446L85.1598 68.8287Z" fill="#F7971D"/>
<path d="M108.749 59.2657L96.3467 65.8451V53.4992L108.749 47.0021V59.2657ZM97.0848 64.5796L108.016 58.741V48.1287L97.0747 53.9724L97.0848 64.5796Z" fill="#F7971D"/>
<path d="M107.102 58.2008L98.0038 63.0569V54.5381L107.102 49.682V58.2008ZM98.5661 62.0898L106.389 57.8561L106.339 50.7777L98.5912 54.8056L98.5661 62.0898Z" fill="#F7971D"/>
<path d="M82.0717 110.774L69.6746 117.354V105.008L82.0717 98.5054V110.774ZM70.4076 116.073L81.3537 110.234V99.6423L70.4076 105.481V116.073Z" fill="#F7971D"/>
<path d="M80.4298 109.715L71.3315 114.571V106.052L80.4298 101.196V109.715ZM71.919 113.598L79.7419 109.385L79.6867 102.312L71.9391 106.299L71.919 113.598Z" fill="#F7971D"/>
<path d="M95.7644 103.439L83.3672 110.018V97.6722L95.7644 91.1699V103.439ZM84.1003 108.758L95.0464 102.914V92.3068L84.1003 98.1454V108.758Z" fill="#F7971D"/>
<path d="M94.1224 102.379L85.0242 107.235V98.7164L94.1224 93.8603V102.379ZM85.5865 106.263L93.4545 102.029L93.3792 94.9817L85.6317 99.0045L85.5865 106.263Z" fill="#F7971D"/>
<path d="M109.176 96.6999L96.7734 103.279V90.9333L109.176 84.4362V96.6999ZM97.5115 102.014L108.453 96.1752V85.5627L97.5115 91.4065V102.014Z" fill="#F7971D"/>
<path d="M107.514 95.635L98.4104 100.491V91.9724L107.514 87.1163V95.635ZM98.9778 99.524L106.801 95.2904L106.751 88.212L99.0029 92.2399L98.9778 99.524Z" fill="#F7971D"/>
<path d="M82.2222 127.75L69.8201 134.324V121.978L82.2222 115.476V127.75ZM70.5582 133.049L81.4992 127.21V116.613L70.5582 122.452V133.049Z" fill="#F7971D"/>
<path d="M80.5804 126.685L71.4772 131.541V123.023L80.5804 118.167V126.685ZM72.0446 130.569L79.8976 126.361L79.8473 119.288L72.0897 123.275L72.0446 130.569Z" fill="#F7971D"/>
<path d="M95.915 120.409L83.5129 126.989V114.643L95.915 108.141V120.409ZM84.251 125.728L95.192 119.885V109.277L84.251 115.116V125.728Z" fill="#F7971D"/>
<path d="M94.2729 119.35L85.1697 124.206V115.687L94.2729 110.831V119.35ZM85.7371 123.234L93.5599 119L93.5097 111.927L85.7622 115.949L85.7371 123.234Z" fill="#F7971D"/>
<path d="M109.321 113.67L96.9241 120.25V107.904L109.321 101.412V113.67ZM97.6622 118.984L108.603 113.146V102.533L97.6622 108.357V118.984Z" fill="#F7971D"/>
<path d="M107.679 112.606L98.5812 117.462V108.943L107.679 104.087V112.606ZM99.1435 116.495L107.012 112.261L106.961 105.188L99.2088 109.21L99.1435 116.495Z" fill="#F7971D"/>
<path d="M82.0317 153.733L69.6345 160.313V138.666L82.0367 132.169L82.0317 153.733ZM70.3576 159.047L81.2986 153.209V133.29L70.3576 139.134V159.047Z" fill="#F7971D"/>
<path d="M80.3998 152.669L71.3015 157.525V139.705L80.3998 134.844V152.669ZM71.8639 156.558L79.6818 152.319L79.6265 135.945L71.8789 139.968L71.8639 156.558Z" fill="#F7971D"/>
<path d="M96.0956 145.857L83.6985 152.437V130.79L96.0906 124.303L96.0956 145.857ZM84.4165 151.171L95.3575 145.333V125.415L84.4165 131.258V151.171Z" fill="#F7971D"/>
<path d="M94.4589 144.793L85.3606 149.649V131.824L94.4589 126.968V144.793ZM85.923 148.677L93.7459 144.443L93.6856 128.064L85.938 132.087L85.923 148.677Z" fill="#F7971D"/>
<path d="M109.577 139.119L97.1753 145.698V124.057L109.572 117.554L109.577 139.119ZM97.9134 144.433L108.854 138.594V118.681L97.9084 124.52L97.9134 144.433Z" fill="#F7971D"/>
<path d="M107.93 138.054L98.8322 142.91V125.09L107.93 120.234V138.054ZM99.3945 141.943L107.217 137.709L107.157 121.33L99.4347 125.332L99.3945 141.943Z" fill="#F7971D"/>
<path d="M55.5954 96.134L12.6146 73.9677V61.6217L55.6154 83.8651L55.5954 96.134ZM13.3276 73.4996L54.8723 95.0023V84.395L13.3276 62.8923V73.4996Z" fill="white"/>
<path d="M53.9535 93.4385L14.2515 72.9338V64.415L53.9535 84.9352V93.4385ZM14.859 72.656L53.2103 92.3428L53.2605 85.2695L14.8389 65.3873L14.859 72.656Z" fill="white"/>
<path d="M109.216 77.6355L69.6143 98.0682V85.7222L109.216 65.3461V77.6355ZM70.3574 96.8233L108.518 77.1108V66.4984L70.3574 86.2366V96.8233Z" fill="#F7971D"/>
<path d="M107.574 76.5708L71.2714 95.3007V86.782L107.574 68.0521V76.5708ZM71.8638 94.3285L106.891 76.221L106.841 69.1478L71.8638 87.0444V94.3285Z" fill="#F7971D"/>
<path d="M24.7557 97.8058L12.3535 91.3035V78.9575L24.7557 85.5369V97.8058ZM13.1167 90.8354L24.0326 96.6792V86.0668L13.1167 80.2281V90.8354Z" fill="white"/>
<path d="M23.1088 95.1258L14.0106 90.2696V81.7508L23.1088 86.6069V95.1258ZM14.6232 90.0073L22.3757 94.0301L22.4259 86.9567L14.6232 82.7179V90.0073Z" fill="white"/>
<path d="M40.2308 106.211L27.8538 99.7092V87.3632L40.2308 93.9528V106.211ZM28.5868 99.241L39.5329 105.085V94.4673L28.5868 88.6286V99.241Z" fill="white"/>
<path d="M38.609 103.531L29.5107 98.6753V90.1565L38.609 95.0126V103.531ZM30.1183 98.3872L37.8709 102.41L37.9211 95.3367L30.0982 91.103L30.1183 98.3872Z" fill="white"/>
<path d="M55.8314 114.56L43.4292 108.058V95.7122L55.8314 102.292V114.56ZM44.1673 107.595L55.1083 113.434V102.827L44.1673 96.9828V107.595Z" fill="white"/>
<path d="M54.1894 111.88L45.0862 107.024V98.5054L54.1894 103.362V111.88ZM45.6988 106.762L53.4463 110.785L53.4965 103.711L45.6736 99.4777L45.6988 106.762Z" fill="white"/>
<path d="M24.7557 114.668L12.3535 108.166V95.8202L24.7557 102.4V114.668ZM13.1167 107.703L24.0578 113.542V102.929L13.1167 97.0908V107.703Z" fill="white"/>
<path d="M23.1088 111.988L14.0106 107.132V98.6136L23.1088 103.47V111.988ZM14.6232 106.87L22.3757 110.893L22.4259 103.82L14.6232 99.6116V106.87Z" fill="white"/>
<path d="M40.2308 123.074L27.8538 116.587V104.241L40.2308 110.816V123.074ZM28.5868 116.109L39.5329 121.948V111.34L28.5868 105.497V116.109Z" fill="white"/>
<path d="M38.609 120.394L29.5107 115.558V107.019L38.609 111.875V120.394ZM30.1183 115.25L37.8709 119.273L37.9211 112.199L30.0982 107.966L30.1183 115.25Z" fill="white"/>
<path d="M55.8314 131.423L43.4292 124.926V112.58L55.8314 119.159V131.423ZM44.1673 124.458L55.1083 130.297V119.674L44.1673 113.845V124.458Z" fill="white"/>
<path d="M54.1894 128.743L45.0862 123.887V115.373L54.1894 120.229V128.743ZM45.6988 123.625L53.4463 127.647L53.4965 120.574L45.6736 116.34L45.6988 123.625Z" fill="white"/>
<path d="M24.7557 141.953L12.3535 135.451V113.146L24.7557 119.725V141.953ZM13.1167 134.983L24.0578 140.827V120.25L13.1167 114.411V134.983Z" fill="white"/>
<path d="M23.1088 139.273L14.0106 134.417V115.934L23.1088 120.79V139.273ZM14.6232 134.155L22.3707 138.193L22.4209 121.155L14.6232 116.906V134.155Z" fill="white"/>
<path d="M39.4826 150.024L27.0806 143.522V121.217L39.4826 127.796V150.024ZM27.8187 143.049L38.7596 148.887V128.311L27.8187 122.472V143.049Z" fill="white"/>
<path d="M37.8406 147.334L28.7373 142.478V124L37.8406 128.856V147.334ZM29.3499 142.216L37.0974 146.238L37.1476 129.201L29.3248 124.967L29.3499 142.216Z" fill="white"/>
<path d="M55.0079 158.363L42.6107 151.866V129.561L55.0079 136.135V158.363ZM43.3438 151.398L54.2899 157.226V136.65L43.3438 130.826V151.398Z" fill="white"/>
<path d="M53.3659 155.683L44.2476 150.827V132.349L53.3458 137.205L53.3659 155.683ZM44.8752 150.539L52.6228 154.562L52.673 137.524L44.8551 133.29L44.8752 150.539Z" fill="white"/>
<path d="M63.5087 63.6023L63.4133 63.5509L61.5354 0.874201L7.09149 31.4872L6.93583 31.765L63.5238 63.1445V63.4994H63.7146L61.4501 0.328918L110.868 35.6746L111.777 36.2867L111.676 36.4616L63.5087 63.6023ZM6.8103 32.1045L61.5053 0.431802L63.5137 63.1908L111.214 36.333L61.7815 0.874201L63.5087 63.6023L6.8103 32.1045Z" fill="white"/>
<path d="M63.7044 203.853L63.4182 203.688L6.52905 170.436L6.81023 31.6467L7.26214 31.3946L61.5052 0.431824L63.7044 63.273V203.853ZM6.9207 170.2L63.3279 203.174V63.5148L61.219 0.874223L7.25209 31.8473L6.9207 170.2Z" fill="white"/>
<path d="M63.3279 203.781V63.2731H63.5287L111.48 36.2198L111.777 36.2867L111.817 176.579L111.716 176.635L63.3279 203.781ZM63.7195 63.5148V203.107L111.42 176.357L111.38 36.6417L63.7195 63.5148Z" fill="white"/>
<path d="M22.0242 190.386C22.4457 190.386 22.7874 190.183 22.7874 189.933C22.7874 189.683 22.4457 189.48 22.0242 189.48C21.6027 189.48 21.261 189.683 21.261 189.933C21.261 190.183 21.6027 190.386 22.0242 190.386Z" fill="white"/>
<path d="M25.3883 187.942C25.4522 187.966 25.5073 188.009 25.5462 188.066C25.5852 188.123 25.6061 188.191 25.6061 188.261C25.6061 188.331 25.5852 188.399 25.5462 188.456C25.5073 188.513 25.4522 188.556 25.3883 188.58C25.2216 188.669 25.0365 188.715 24.8486 188.715C24.6607 188.715 24.4755 188.669 24.3088 188.58C24.2426 188.559 24.1847 188.516 24.1437 188.459C24.1026 188.401 24.0804 188.332 24.0804 188.261C24.0804 188.19 24.1026 188.121 24.1437 188.063C24.1847 188.006 24.2426 187.963 24.3088 187.942C24.4762 187.856 24.6611 187.811 24.8486 187.811C25.036 187.811 25.2209 187.856 25.3883 187.942Z" fill="white"/>
<path d="M19.8551 191.018C19.9189 191.042 19.974 191.086 20.013 191.143C20.0519 191.2 20.0728 191.268 20.0728 191.337C20.0728 191.407 20.0519 191.475 20.013 191.532C19.974 191.589 19.9189 191.632 19.8551 191.656C19.6867 191.743 19.5011 191.788 19.3128 191.788C19.1245 191.788 18.9388 191.743 18.7705 191.656C18.7067 191.632 18.6515 191.589 18.6126 191.532C18.5736 191.475 18.5527 191.407 18.5527 191.337C18.5527 191.268 18.5736 191.2 18.6126 191.143C18.6515 191.086 18.7067 191.042 18.7705 191.018C18.9381 190.929 19.1241 190.883 19.3128 190.883C19.5015 190.883 19.6875 190.929 19.8551 191.018Z" fill="white"/>
<path d="M16.481 190.396C16.9025 190.396 17.2442 190.193 17.2442 189.943C17.2442 189.693 16.9025 189.49 16.481 189.49C16.0595 189.49 15.7178 189.693 15.7178 189.943C15.7178 190.193 16.0595 190.396 16.481 190.396Z" fill="white"/>
<path d="M19.8499 187.952C19.9138 187.976 19.9689 188.02 20.0079 188.077C20.0468 188.134 20.0677 188.202 20.0677 188.271C20.0677 188.341 20.0468 188.409 20.0079 188.466C19.9689 188.523 19.9138 188.566 19.8499 188.59C19.6816 188.677 19.4959 188.722 19.3077 188.722C19.1194 188.722 18.9337 188.677 18.7654 188.59C18.7015 188.566 18.6464 188.523 18.6075 188.466C18.5685 188.409 18.5476 188.341 18.5476 188.271C18.5476 188.202 18.5685 188.134 18.6075 188.077C18.6464 188.02 18.7015 187.976 18.7654 187.952C18.933 187.864 19.1189 187.817 19.3077 187.817C19.4964 187.817 19.6823 187.864 19.8499 187.952Z" fill="white"/>
<path d="M22.657 186.28C22.7232 186.302 22.7811 186.344 22.8221 186.402C22.8632 186.459 22.8854 186.528 22.8854 186.599C22.8854 186.671 22.8632 186.74 22.8221 186.797C22.7811 186.855 22.7232 186.897 22.657 186.918C22.4895 187.005 22.3047 187.05 22.1172 187.05C21.9297 187.05 21.7448 187.005 21.5774 186.918C21.5136 186.895 21.4584 186.851 21.4195 186.794C21.3805 186.737 21.3596 186.669 21.3596 186.599C21.3596 186.53 21.3805 186.462 21.4195 186.405C21.4584 186.348 21.5136 186.304 21.5774 186.28C21.7448 186.194 21.9297 186.149 22.1172 186.149C22.3047 186.149 22.4895 186.194 22.657 186.28Z" fill="white"/>
<path d="M14.1963 187.952C14.2625 187.974 14.3204 188.016 14.3615 188.074C14.4025 188.131 14.4247 188.2 14.4247 188.271C14.4247 188.342 14.4025 188.412 14.3615 188.469C14.3204 188.526 14.2625 188.569 14.1963 188.59C14.03 188.679 13.8458 188.727 13.6583 188.729C13.4708 188.732 13.2853 188.69 13.1167 188.606C13.0529 188.582 12.9977 188.538 12.9588 188.481C12.9198 188.424 12.8989 188.356 12.8989 188.287C12.8989 188.217 12.9198 188.149 12.9588 188.092C12.9977 188.035 13.0529 187.992 13.1167 187.968C13.2822 187.877 13.4667 187.828 13.6547 187.825C13.8426 187.822 14.0284 187.866 14.1963 187.952Z" fill="white"/>
<path d="M17.0232 186.28C17.087 186.304 17.1422 186.348 17.1811 186.405C17.2201 186.462 17.241 186.53 17.241 186.599C17.241 186.669 17.2201 186.737 17.1811 186.794C17.1422 186.851 17.087 186.895 17.0232 186.918C16.8558 187.005 16.6709 187.05 16.4835 187.05C16.296 187.05 16.1111 187.005 15.9437 186.918C15.8775 186.897 15.8196 186.855 15.7785 186.797C15.7375 186.74 15.7153 186.671 15.7153 186.599C15.7153 186.528 15.7375 186.459 15.7785 186.402C15.8196 186.344 15.8775 186.302 15.9437 186.28C16.1111 186.194 16.296 186.149 16.4835 186.149C16.6709 186.149 16.8558 186.194 17.0232 186.28Z" fill="white"/>
<path d="M19.8499 184.609C19.9138 184.633 19.9689 184.676 20.0079 184.733C20.0468 184.79 20.0677 184.858 20.0677 184.928C20.0677 184.997 20.0468 185.065 20.0079 185.122C19.9689 185.179 19.9138 185.223 19.8499 185.247C19.6823 185.335 19.4964 185.382 19.3077 185.382C19.1189 185.382 18.933 185.335 18.7654 185.247C18.7015 185.223 18.6464 185.179 18.6075 185.122C18.5685 185.065 18.5476 184.997 18.5476 184.928C18.5476 184.858 18.5685 184.79 18.6075 184.733C18.6464 184.676 18.7015 184.633 18.7654 184.609C18.9337 184.522 19.1194 184.477 19.3077 184.477C19.4959 184.477 19.6816 184.522 19.8499 184.609Z" fill="white"/>
<path d="M11.3744 186.281C11.4382 186.304 11.4933 186.348 11.5323 186.405C11.5712 186.462 11.5921 186.53 11.5921 186.599C11.5921 186.669 11.5712 186.737 11.5323 186.794C11.4933 186.851 11.4382 186.894 11.3744 186.918C11.206 187.005 11.0204 187.05 10.8321 187.05C10.6438 187.05 10.4581 187.005 10.2898 186.918C10.226 186.894 10.1708 186.851 10.1319 186.794C10.0929 186.737 10.072 186.669 10.072 186.599C10.072 186.53 10.0929 186.462 10.1319 186.405C10.1708 186.348 10.226 186.304 10.2898 186.281C10.4581 186.194 10.6438 186.149 10.8321 186.149C11.0204 186.149 11.206 186.194 11.3744 186.281Z" fill="white"/>
<path d="M14.1963 184.609C14.2625 184.63 14.3204 184.672 14.3615 184.73C14.4025 184.787 14.4247 184.856 14.4247 184.928C14.4247 184.999 14.4025 185.068 14.3615 185.125C14.3204 185.183 14.2625 185.225 14.1963 185.247C14.0296 185.335 13.8444 185.382 13.6565 185.382C13.4686 185.382 13.2834 185.335 13.1167 185.247C13.0529 185.223 12.9977 185.179 12.9588 185.122C12.9198 185.065 12.8989 184.997 12.8989 184.928C12.8989 184.858 12.9198 184.79 12.9588 184.733C12.9977 184.676 13.0529 184.633 13.1167 184.609C13.2842 184.522 13.469 184.477 13.6565 184.477C13.844 184.477 14.0289 184.522 14.1963 184.609Z" fill="white"/>
<path d="M17.0232 182.947C17.087 182.971 17.1422 183.014 17.1811 183.071C17.2201 183.129 17.241 183.196 17.241 183.266C17.241 183.336 17.2201 183.404 17.1811 183.461C17.1422 183.518 17.087 183.561 17.0232 183.585C16.8565 183.674 16.6714 183.72 16.4835 183.72C16.2955 183.72 16.1104 183.674 15.9437 183.585C15.8775 183.564 15.8196 183.521 15.7785 183.464C15.7375 183.407 15.7153 183.337 15.7153 183.266C15.7153 183.195 15.7375 183.126 15.7785 183.068C15.8196 183.011 15.8775 182.969 15.9437 182.947C16.1111 182.861 16.296 182.816 16.4835 182.816C16.6709 182.816 16.8558 182.861 17.0232 182.947Z" fill="white"/>
<path d="M7.98013 185.365C8.40163 185.365 8.74333 185.162 8.74333 184.912C8.74333 184.662 8.40163 184.459 7.98013 184.459C7.55862 184.459 7.21692 184.662 7.21692 184.912C7.21692 185.162 7.55862 185.365 7.98013 185.365Z" fill="white"/>
<path d="M11.3494 182.947C11.4132 182.971 11.4684 183.014 11.5073 183.071C11.5463 183.128 11.5672 183.196 11.5672 183.266C11.5672 183.336 11.5463 183.404 11.5073 183.461C11.4684 183.518 11.4132 183.561 11.3494 183.585C11.1819 183.671 10.9971 183.716 10.8096 183.716C10.6222 183.716 10.4373 183.671 10.2699 183.585C10.2036 183.563 10.1458 183.521 10.1047 183.464C10.0636 183.406 10.0415 183.337 10.0415 183.266C10.0415 183.195 10.0636 183.126 10.1047 183.068C10.1458 183.011 10.2036 182.968 10.2699 182.947C10.4366 182.858 10.6217 182.812 10.8096 182.812C10.9975 182.812 11.1827 182.858 11.3494 182.947Z" fill="white"/>
<path d="M14.1713 181.249C14.2375 181.271 14.2954 181.313 14.3364 181.371C14.3775 181.428 14.3996 181.497 14.3996 181.568C14.3996 181.64 14.3775 181.709 14.3364 181.766C14.2954 181.824 14.2375 181.866 14.1713 181.887C14.0038 181.974 13.819 182.019 13.6315 182.019C13.444 182.019 13.2591 181.974 13.0917 181.887C13.0278 181.863 12.9727 181.82 12.9338 181.763C12.8948 181.706 12.8739 181.638 12.8739 181.568C12.8739 181.499 12.8948 181.431 12.9338 181.374C12.9727 181.317 13.0278 181.273 13.0917 181.249C13.2591 181.163 13.444 181.118 13.6315 181.118C13.819 181.118 14.0038 181.163 14.1713 181.249Z" fill="white"/>
<path d="M5.15823 183.693C5.57974 183.693 5.92143 183.49 5.92143 183.24C5.92143 182.99 5.57974 182.788 5.15823 182.788C4.73672 182.788 4.39502 182.99 4.39502 183.24C4.39502 183.49 4.73672 183.693 5.15823 183.693Z" fill="white"/>
<path d="M8.5225 181.249C8.58872 181.271 8.64658 181.313 8.68765 181.371C8.72872 181.428 8.75086 181.497 8.75086 181.568C8.75086 181.64 8.72872 181.709 8.68765 181.766C8.64658 181.824 8.58872 181.866 8.5225 181.887C8.35506 181.974 8.1702 182.019 7.98273 182.019C7.79526 182.019 7.6104 181.974 7.44296 181.887C7.37673 181.866 7.31888 181.824 7.27781 181.766C7.23674 181.709 7.2146 181.64 7.2146 181.568C7.2146 181.497 7.23674 181.428 7.27781 181.371C7.31888 181.313 7.37673 181.271 7.44296 181.249C7.6104 181.163 7.79526 181.118 7.98273 181.118C8.1702 181.118 8.35506 181.163 8.5225 181.249Z" fill="white"/>
<path d="M10.807 180.349C11.2285 180.349 11.5702 180.147 11.5702 179.897C11.5702 179.647 11.2285 179.444 10.807 179.444C10.3855 179.444 10.0438 179.647 10.0438 179.897C10.0438 180.147 10.3855 180.349 10.807 180.349Z" fill="white"/>
<path d="M2.87367 181.249C2.93751 181.273 2.99264 181.317 3.0316 181.374C3.07055 181.431 3.09145 181.499 3.09145 181.568C3.09145 181.638 3.07055 181.706 3.0316 181.763C2.99264 181.82 2.93751 181.863 2.87367 181.887C2.70624 181.974 2.52138 182.019 2.33391 182.019C2.14645 182.019 1.96159 181.974 1.79416 181.887C1.72793 181.866 1.67008 181.824 1.62901 181.766C1.58794 181.709 1.5658 181.64 1.5658 181.568C1.5658 181.497 1.58794 181.428 1.62901 181.371C1.67008 181.313 1.72793 181.271 1.79416 181.249C1.96159 181.163 2.14645 181.118 2.33391 181.118C2.52138 181.118 2.70624 181.163 2.87367 181.249Z" fill="white"/>
<path d="M5.69561 179.578C5.76183 179.599 5.81969 179.641 5.86076 179.699C5.90182 179.756 5.92397 179.825 5.92397 179.897C5.92397 179.968 5.90182 180.037 5.86076 180.094C5.81969 180.152 5.76183 180.194 5.69561 180.215C5.5289 180.304 5.34375 180.351 5.15585 180.351C4.96794 180.351 4.7828 180.304 4.61609 180.215C4.55225 180.192 4.49712 180.148 4.45816 180.091C4.41921 180.034 4.39832 179.966 4.39832 179.897C4.39832 179.827 4.41921 179.759 4.45816 179.702C4.49712 179.645 4.55225 179.601 4.61609 179.578C4.78352 179.491 4.96838 179.446 5.15585 179.446C5.34331 179.446 5.52817 179.491 5.69561 179.578Z" fill="white"/>
<path d="M8.52244 177.906C8.82372 178.086 8.82372 178.369 8.52244 178.544C8.35572 178.633 8.17057 178.679 7.98266 178.679C7.79474 178.679 7.60959 178.633 7.44288 178.544C7.1416 178.369 7.1416 178.086 7.44288 177.906C7.61032 177.82 7.79518 177.775 7.98266 177.775C8.17013 177.775 8.355 177.82 8.52244 177.906Z" fill="white"/>
<path d="M2.87359 177.906C3.16983 178.086 3.16983 178.369 2.87359 178.544C2.70688 178.633 2.52173 178.679 2.33383 178.679C2.14592 178.679 1.96078 178.633 1.79406 178.544C1.4928 178.369 1.4928 178.086 1.79406 177.906C1.9615 177.82 2.14636 177.775 2.33383 177.775C2.5213 177.775 2.70616 177.82 2.87359 177.906Z" fill="white"/>
<path d="M5.15823 177.005C5.57974 177.005 5.92143 176.803 5.92143 176.553C5.92143 176.303 5.57974 176.1 5.15823 176.1C4.73672 176.1 4.39502 176.303 4.39502 176.553C4.39502 176.803 4.73672 177.005 5.15823 177.005Z" fill="white"/>
<path d="M67.9271 216.117C67.9927 216.14 68.0496 216.183 68.09 216.241C68.1303 216.298 68.152 216.367 68.152 216.438C68.152 216.509 68.1303 216.578 68.09 216.636C68.0496 216.694 67.9927 216.737 67.9271 216.76C67.7588 216.846 67.5731 216.891 67.3848 216.891C67.1966 216.891 67.0109 216.846 66.8426 216.76C66.777 216.737 66.72 216.694 66.6797 216.636C66.6394 216.578 66.6177 216.509 66.6177 216.438C66.6177 216.367 66.6394 216.298 66.6797 216.241C66.72 216.183 66.777 216.14 66.8426 216.117C67.0109 216.03 67.1966 215.985 67.3848 215.985C67.5731 215.985 67.7588 216.03 67.9271 216.117Z" fill="white"/>
<path d="M70.7491 214.45C71.0503 214.625 71.0503 214.908 70.7491 215.088C70.5816 215.174 70.3967 215.219 70.2093 215.219C70.0218 215.219 69.8369 215.174 69.6695 215.088C69.3732 214.908 69.3732 214.625 69.6695 214.45C69.8362 214.361 70.0213 214.315 70.2093 214.315C70.3972 214.315 70.5823 214.361 70.7491 214.45Z" fill="white"/>
<path d="M73.5759 212.783C73.6398 212.807 73.6949 212.851 73.7339 212.908C73.7728 212.965 73.7937 213.033 73.7937 213.102C73.7937 213.172 73.7728 213.24 73.7339 213.297C73.6949 213.354 73.6398 213.397 73.5759 213.421C73.4085 213.508 73.2237 213.553 73.0362 213.553C72.8487 213.553 72.6639 213.508 72.4964 213.421C72.4302 213.4 72.3723 213.357 72.3313 213.3C72.2902 213.243 72.2681 213.173 72.2681 213.102C72.2681 213.031 72.2902 212.962 72.3313 212.904C72.3723 212.847 72.4302 212.805 72.4964 212.783C72.6631 212.694 72.8483 212.648 73.0362 212.648C73.2241 212.648 73.4092 212.694 73.5759 212.783Z" fill="white"/>
<path d="M76.3829 211.106C76.4467 211.13 76.5019 211.174 76.5408 211.231C76.5798 211.288 76.6007 211.356 76.6007 211.425C76.6007 211.495 76.5798 211.563 76.5408 211.62C76.5019 211.677 76.4467 211.72 76.3829 211.744C76.2146 211.831 76.0289 211.876 75.8406 211.876C75.6523 211.876 75.4667 211.831 75.2983 211.744C75.2345 211.72 75.1794 211.677 75.1404 211.62C75.1015 211.563 75.0806 211.495 75.0806 211.425C75.0806 211.356 75.1015 211.288 75.1404 211.231C75.1794 211.174 75.2345 211.13 75.2983 211.106C75.4667 211.02 75.6523 210.975 75.8406 210.975C76.0289 210.975 76.2146 211.02 76.3829 211.106Z" fill="white"/>
<path d="M78.6874 210.206C79.1089 210.206 79.4506 210.003 79.4506 209.753C79.4506 209.503 79.1089 209.301 78.6874 209.301C78.2659 209.301 77.9242 209.503 77.9242 209.753C77.9242 210.003 78.2659 210.206 78.6874 210.206Z" fill="white"/>
<path d="M82.0515 207.763C82.1154 207.786 82.1705 207.83 82.2095 207.887C82.2484 207.944 82.2693 208.012 82.2693 208.081C82.2693 208.151 82.2484 208.219 82.2095 208.276C82.1705 208.333 82.1154 208.377 82.0515 208.4C81.8848 208.489 81.6997 208.536 81.5118 208.536C81.3239 208.536 81.1387 208.489 80.972 208.4C80.9058 208.379 80.8479 208.337 80.8069 208.279C80.7658 208.222 80.7437 208.153 80.7437 208.081C80.7437 208.01 80.7658 207.941 80.8069 207.884C80.8479 207.826 80.9058 207.784 80.972 207.763C81.1394 207.676 81.3243 207.631 81.5118 207.631C81.6992 207.631 81.8841 207.676 82.0515 207.763Z" fill="white"/>
<path d="M84.8785 206.096C84.9441 206.119 85.0011 206.162 85.0414 206.22C85.0818 206.277 85.1034 206.346 85.1034 206.417C85.1034 206.488 85.0818 206.557 85.0414 206.615C85.0011 206.673 84.9441 206.716 84.8785 206.739C84.7102 206.825 84.5245 206.87 84.3363 206.87C84.148 206.87 83.9623 206.825 83.794 206.739C83.7284 206.716 83.6715 206.673 83.6311 206.615C83.5908 206.557 83.5691 206.488 83.5691 206.417C83.5691 206.346 83.5908 206.277 83.6311 206.22C83.6715 206.162 83.7284 206.119 83.794 206.096C83.9623 206.009 84.148 205.964 84.3363 205.964C84.5245 205.964 84.7102 206.009 84.8785 206.096Z" fill="white"/>
<path d="M87.7005 204.419C87.766 204.442 87.823 204.485 87.8633 204.543C87.9037 204.6 87.9254 204.669 87.9254 204.74C87.9254 204.811 87.9037 204.881 87.8633 204.938C87.823 204.996 87.766 205.039 87.7005 205.062C87.533 205.148 87.3482 205.193 87.1607 205.193C86.9732 205.193 86.7883 205.148 86.6209 205.062C86.5553 205.039 86.4984 204.996 86.458 204.938C86.4177 204.881 86.396 204.811 86.396 204.74C86.396 204.669 86.4177 204.6 86.458 204.543C86.4984 204.485 86.5553 204.442 86.6209 204.419C86.7883 204.332 86.9732 204.287 87.1607 204.287C87.3482 204.287 87.533 204.332 87.7005 204.419Z" fill="white"/>
<path d="M89.985 203.524C90.4065 203.524 90.7482 203.321 90.7482 203.071C90.7482 202.821 90.4065 202.618 89.985 202.618C89.5635 202.618 89.2218 202.821 89.2218 203.071C89.2218 203.321 89.5635 203.524 89.985 203.524Z" fill="white"/>
<path d="M92.8118 201.852C93.2333 201.852 93.575 201.649 93.575 201.399C93.575 201.149 93.2333 200.947 92.8118 200.947C92.3903 200.947 92.0486 201.149 92.0486 201.399C92.0486 201.649 92.3903 201.852 92.8118 201.852Z" fill="white"/>
<path d="M95.6387 200.18C96.0602 200.18 96.4019 199.977 96.4019 199.727C96.4019 199.477 96.0602 199.275 95.6387 199.275C95.2172 199.275 94.8755 199.477 94.8755 199.727C94.8755 199.977 95.2172 200.18 95.6387 200.18Z" fill="white"/>
<path d="M99.0029 197.737C99.0668 197.761 99.1219 197.804 99.1609 197.861C99.1998 197.918 99.2207 197.986 99.2207 198.056C99.2207 198.125 99.1998 198.193 99.1609 198.25C99.1219 198.307 99.0668 198.351 99.0029 198.375C98.8362 198.463 98.6511 198.51 98.4632 198.51C98.2753 198.51 98.0901 198.463 97.9234 198.375C97.8572 198.353 97.7994 198.311 97.7583 198.253C97.7172 198.196 97.6951 198.127 97.6951 198.056C97.6951 197.984 97.7172 197.915 97.7583 197.858C97.7994 197.8 97.8572 197.758 97.9234 197.737C98.0909 197.65 98.2757 197.605 98.4632 197.605C98.6507 197.605 98.8355 197.65 99.0029 197.737Z" fill="white"/>
<path d="M101.288 196.836C101.709 196.836 102.051 196.634 102.051 196.384C102.051 196.134 101.709 195.931 101.288 195.931C100.866 195.931 100.524 196.134 100.524 196.384C100.524 196.634 100.866 196.836 101.288 196.836Z" fill="white"/>
<path d="M104.652 194.393C104.717 194.416 104.774 194.459 104.815 194.517C104.855 194.574 104.877 194.644 104.877 194.715C104.877 194.785 104.855 194.855 104.815 194.912C104.774 194.97 104.717 195.013 104.652 195.036C104.484 195.122 104.299 195.167 104.112 195.167C103.924 195.167 103.74 195.122 103.572 195.036C103.506 195.013 103.45 194.97 103.409 194.912C103.369 194.855 103.347 194.785 103.347 194.715C103.347 194.644 103.369 194.574 103.409 194.517C103.45 194.459 103.506 194.416 103.572 194.393C103.74 194.307 103.924 194.262 104.112 194.262C104.299 194.262 104.484 194.307 104.652 194.393Z" fill="white"/>
<path d="M62.2735 216.117C62.339 216.14 62.396 216.183 62.4363 216.241C62.4767 216.298 62.4984 216.367 62.4984 216.438C62.4984 216.509 62.4767 216.578 62.4363 216.636C62.396 216.694 62.339 216.737 62.2735 216.76C62.106 216.846 61.9212 216.891 61.7337 216.891C61.5462 216.891 61.3613 216.846 61.1939 216.76C61.1283 216.737 61.0714 216.694 61.031 216.636C60.9907 216.578 60.969 216.509 60.969 216.438C60.969 216.367 60.9907 216.298 61.031 216.241C61.0714 216.183 61.1283 216.14 61.1939 216.117C61.3613 216.03 61.5462 215.985 61.7337 215.985C61.9212 215.985 62.106 216.03 62.2735 216.117Z" fill="white"/>
<path d="M65.1004 214.45C65.3966 214.625 65.3966 214.908 65.1004 215.088C64.933 215.174 64.7481 215.219 64.5606 215.219C64.3732 215.219 64.1883 215.174 64.0209 215.088C63.7196 214.908 63.7196 214.625 64.0209 214.45C64.1876 214.361 64.3727 214.315 64.5606 214.315C64.7485 214.315 64.9337 214.361 65.1004 214.45Z" fill="white"/>
<path d="M67.9272 212.783C67.991 212.807 68.0462 212.851 68.0851 212.908C68.1241 212.965 68.145 213.033 68.145 213.102C68.145 213.172 68.1241 213.24 68.0851 213.297C68.0462 213.354 67.991 213.397 67.9272 213.421C67.7589 213.508 67.5732 213.553 67.3849 213.553C67.1967 213.553 67.011 213.508 66.8427 213.421C66.7788 213.397 66.7237 213.354 66.6847 213.297C66.6458 213.24 66.6249 213.172 66.6249 213.102C66.6249 213.033 66.6458 212.965 66.6847 212.908C66.7237 212.851 66.7788 212.807 66.8427 212.783C67.0103 212.694 67.1962 212.648 67.3849 212.648C67.5736 212.648 67.7596 212.694 67.9272 212.783Z" fill="white"/>
<path d="M70.7491 211.106C70.8153 211.128 70.8732 211.17 70.9142 211.227C70.9553 211.285 70.9774 211.354 70.9774 211.425C70.9774 211.496 70.9553 211.566 70.9142 211.623C70.8732 211.68 70.8153 211.723 70.7491 211.744C70.5816 211.831 70.3968 211.876 70.2093 211.876C70.0219 211.876 69.837 211.831 69.6696 211.744C69.6057 211.72 69.5506 211.677 69.5116 211.62C69.4727 211.563 69.4518 211.495 69.4518 211.425C69.4518 211.356 69.4727 211.288 69.5116 211.231C69.5506 211.174 69.6057 211.13 69.6696 211.106C69.837 211.02 70.0219 210.975 70.2093 210.975C70.3968 210.975 70.5816 211.02 70.7491 211.106Z" fill="white"/>
<path d="M73.5759 209.435C73.6398 209.458 73.6949 209.502 73.7339 209.559C73.7728 209.616 73.7937 209.684 73.7937 209.754C73.7937 209.823 73.7728 209.891 73.7339 209.948C73.6949 210.005 73.6398 210.049 73.5759 210.073C73.4092 210.161 73.2241 210.208 73.0362 210.208C72.8483 210.208 72.6631 210.161 72.4964 210.073C72.4302 210.051 72.3723 210.009 72.3313 209.951C72.2902 209.894 72.2681 209.825 72.2681 209.754C72.2681 209.682 72.2902 209.613 72.3313 209.556C72.3723 209.498 72.4302 209.456 72.4964 209.435C72.6639 209.348 72.8487 209.303 73.0362 209.303C73.2237 209.303 73.4085 209.348 73.5759 209.435Z" fill="white"/>
<path d="M76.3829 207.763C76.4467 207.786 76.5019 207.83 76.5408 207.887C76.5798 207.944 76.6007 208.012 76.6007 208.082C76.6007 208.151 76.5798 208.219 76.5408 208.276C76.5019 208.333 76.4467 208.377 76.3829 208.4C76.2153 208.489 76.0293 208.536 75.8406 208.536C75.6519 208.536 75.4659 208.489 75.2983 208.4C75.2345 208.377 75.1794 208.333 75.1404 208.276C75.1015 208.219 75.0806 208.151 75.0806 208.082C75.0806 208.012 75.1015 207.944 75.1404 207.887C75.1794 207.83 75.2345 207.786 75.2983 207.763C75.4667 207.676 75.6523 207.631 75.8406 207.631C76.0289 207.631 76.2146 207.676 76.3829 207.763Z" fill="white"/>
<path d="M78.6874 206.862C79.1089 206.862 79.4506 206.66 79.4506 206.41C79.4506 206.16 79.1089 205.957 78.6874 205.957C78.2659 205.957 77.9242 206.16 77.9242 206.41C77.9242 206.66 78.2659 206.862 78.6874 206.862Z" fill="white"/>
<path d="M82.0517 204.419C82.1172 204.442 82.1742 204.485 82.2145 204.543C82.2549 204.6 82.2766 204.669 82.2766 204.74C82.2766 204.811 82.2549 204.881 82.2145 204.938C82.1742 204.996 82.1172 205.039 82.0517 205.062C81.8842 205.148 81.6994 205.193 81.5119 205.193C81.3244 205.193 81.1395 205.148 80.9721 205.062C80.9065 205.039 80.8496 204.996 80.8092 204.938C80.7689 204.881 80.7472 204.811 80.7472 204.74C80.7472 204.669 80.7689 204.6 80.8092 204.543C80.8496 204.485 80.9065 204.442 80.9721 204.419C81.1395 204.332 81.3244 204.287 81.5119 204.287C81.6994 204.287 81.8842 204.332 82.0517 204.419Z" fill="white"/>
<path d="M84.3362 203.524C84.7577 203.524 85.0994 203.321 85.0994 203.071C85.0994 202.821 84.7577 202.618 84.3362 202.618C83.9147 202.618 83.573 202.821 83.573 203.071C83.573 203.321 83.9147 203.524 84.3362 203.524Z" fill="white"/>
<path d="M87.1632 201.852C87.5847 201.852 87.9264 201.649 87.9264 201.399C87.9264 201.149 87.5847 200.947 87.1632 200.947C86.7416 200.947 86.3999 201.149 86.3999 201.399C86.3999 201.649 86.7416 201.852 87.1632 201.852Z" fill="white"/>
<path d="M89.985 200.18C90.4065 200.18 90.7482 199.977 90.7482 199.727C90.7482 199.477 90.4065 199.275 89.985 199.275C89.5635 199.275 89.2218 199.477 89.2218 199.727C89.2218 199.977 89.5635 200.18 89.985 200.18Z" fill="white"/>
<path d="M93.3541 197.737C93.418 197.761 93.4731 197.804 93.5121 197.861C93.551 197.918 93.5719 197.986 93.5719 198.056C93.5719 198.125 93.551 198.193 93.5121 198.25C93.4731 198.307 93.418 198.351 93.3541 198.375C93.1874 198.463 93.0023 198.51 92.8144 198.51C92.6265 198.51 92.4413 198.463 92.2746 198.375C92.2084 198.353 92.1505 198.311 92.1095 198.253C92.0684 198.196 92.0463 198.127 92.0463 198.056C92.0463 197.984 92.0684 197.915 92.1095 197.858C92.1505 197.8 92.2084 197.758 92.2746 197.737C92.4421 197.65 92.6269 197.605 92.8144 197.605C93.0019 197.605 93.1867 197.65 93.3541 197.737Z" fill="white"/>
<path d="M96.176 196.065C96.2422 196.086 96.3 196.129 96.3411 196.186C96.3822 196.243 96.4043 196.313 96.4043 196.384C96.4043 196.455 96.3822 196.524 96.3411 196.581C96.3 196.639 96.2422 196.681 96.176 196.703C96.0092 196.791 95.8241 196.838 95.6362 196.838C95.4483 196.838 95.2632 196.791 95.0964 196.703C95.0326 196.679 94.9775 196.635 94.9385 196.578C94.8996 196.521 94.8787 196.453 94.8787 196.384C94.8787 196.314 94.8996 196.246 94.9385 196.189C94.9775 196.132 95.0326 196.089 95.0964 196.065C95.2639 195.978 95.4487 195.933 95.6362 195.933C95.8237 195.933 96.0085 195.978 96.176 196.065Z" fill="white"/>
<path d="M99.003 194.393C99.0685 194.416 99.1255 194.459 99.1658 194.517C99.2062 194.574 99.2279 194.644 99.2279 194.715C99.2279 194.785 99.2062 194.855 99.1658 194.912C99.1255 194.97 99.0685 195.013 99.003 195.036C98.8355 195.122 98.6506 195.167 98.4632 195.167C98.2757 195.167 98.0908 195.122 97.9234 195.036C97.8578 195.013 97.8009 194.97 97.7605 194.912C97.7202 194.855 97.6985 194.785 97.6985 194.715C97.6985 194.644 97.7202 194.574 97.7605 194.517C97.8009 194.459 97.8578 194.416 97.9234 194.393C98.0908 194.307 98.2757 194.262 98.4632 194.262C98.6506 194.262 98.8355 194.307 99.003 194.393Z" fill="white"/>
<path d="M101.83 192.721C101.895 192.744 101.952 192.787 101.993 192.845C102.033 192.902 102.055 192.972 102.055 193.043C102.055 193.113 102.033 193.183 101.993 193.24C101.952 193.298 101.895 193.341 101.83 193.364C101.662 193.45 101.478 193.495 101.29 193.495C101.103 193.495 100.918 193.45 100.75 193.364C100.685 193.341 100.628 193.298 100.587 193.24C100.547 193.183 100.525 193.113 100.525 193.043C100.525 192.972 100.547 192.902 100.587 192.845C100.628 192.787 100.685 192.744 100.75 192.721C100.918 192.635 101.103 192.59 101.29 192.59C101.478 192.59 101.662 192.635 101.83 192.721Z" fill="white"/>
<path d="M59.4517 214.45C59.748 214.625 59.748 214.908 59.4517 215.088C59.2843 215.174 59.0994 215.219 58.912 215.219C58.7245 215.219 58.5396 215.174 58.3722 215.088C58.0709 214.908 58.0709 214.625 58.3722 214.45C58.5389 214.361 58.724 214.315 58.912 214.315C59.0999 214.315 59.285 214.361 59.4517 214.45Z" fill="white"/>
<path d="M62.2734 212.783C62.3396 212.805 62.3974 212.847 62.4385 212.904C62.4796 212.962 62.5017 213.031 62.5017 213.102C62.5017 213.173 62.4796 213.243 62.4385 213.3C62.3974 213.357 62.3396 213.4 62.2734 213.421C62.1059 213.508 61.9211 213.553 61.7336 213.553C61.5461 213.553 61.3613 213.508 61.1938 213.421C61.13 213.397 61.0749 213.354 61.0359 213.297C60.997 213.24 60.9761 213.172 60.9761 213.102C60.9761 213.033 60.997 212.965 61.0359 212.908C61.0749 212.851 61.13 212.807 61.1938 212.783C61.3606 212.694 61.5457 212.648 61.7336 212.648C61.9215 212.648 62.1067 212.694 62.2734 212.783Z" fill="white"/>
<path d="M65.1004 211.106C65.1642 211.13 65.2193 211.174 65.2583 211.231C65.2972 211.288 65.3181 211.356 65.3181 211.425C65.3181 211.495 65.2972 211.563 65.2583 211.62C65.2193 211.677 65.1642 211.72 65.1004 211.744C64.9329 211.831 64.7481 211.876 64.5606 211.876C64.3731 211.876 64.1883 211.831 64.0208 211.744C63.9546 211.723 63.8968 211.68 63.8557 211.623C63.8146 211.566 63.7925 211.496 63.7925 211.425C63.7925 211.354 63.8146 211.285 63.8557 211.227C63.8968 211.17 63.9546 211.128 64.0208 211.106C64.1883 211.02 64.3731 210.975 64.5606 210.975C64.7481 210.975 64.9329 211.02 65.1004 211.106Z" fill="white"/>
<path d="M67.9272 209.434C67.991 209.458 68.0462 209.502 68.0851 209.559C68.1241 209.616 68.145 209.684 68.145 209.753C68.145 209.823 68.1241 209.891 68.0851 209.948C68.0462 210.005 67.991 210.049 67.9272 210.072C67.7596 210.161 67.5736 210.208 67.3849 210.208C67.1962 210.208 67.0103 210.161 66.8427 210.072C66.7788 210.049 66.7237 210.005 66.6847 209.948C66.6458 209.891 66.6249 209.823 66.6249 209.753C66.6249 209.684 66.6458 209.616 66.6847 209.559C66.7237 209.502 66.7788 209.458 66.8427 209.434C67.011 209.348 67.1967 209.303 67.3849 209.303C67.5732 209.303 67.7589 209.348 67.9272 209.434Z" fill="white"/>
<path d="M70.7491 207.763C70.8153 207.784 70.8732 207.826 70.9142 207.884C70.9553 207.941 70.9774 208.01 70.9774 208.081C70.9774 208.153 70.9553 208.222 70.9142 208.279C70.8732 208.337 70.8153 208.379 70.7491 208.4C70.5824 208.489 70.3972 208.536 70.2093 208.536C70.0214 208.536 69.8363 208.489 69.6696 208.4C69.6057 208.377 69.5506 208.333 69.5116 208.276C69.4727 208.219 69.4518 208.151 69.4518 208.081C69.4518 208.012 69.4727 207.944 69.5116 207.887C69.5506 207.83 69.6057 207.786 69.6696 207.763C69.837 207.676 70.0219 207.631 70.2093 207.631C70.3968 207.631 70.5816 207.676 70.7491 207.763Z" fill="white"/>
<path d="M73.576 206.096C73.6415 206.119 73.6985 206.162 73.7388 206.22C73.7792 206.277 73.8009 206.346 73.8009 206.417C73.8009 206.488 73.7792 206.557 73.7388 206.615C73.6985 206.673 73.6415 206.716 73.576 206.739C73.4085 206.825 73.2237 206.87 73.0362 206.87C72.8487 206.87 72.6638 206.825 72.4964 206.739C72.4308 206.716 72.3739 206.673 72.3335 206.615C72.2932 206.557 72.2715 206.488 72.2715 206.417C72.2715 206.346 72.2932 206.277 72.3335 206.22C72.3739 206.162 72.4308 206.119 72.4964 206.096C72.6638 206.01 72.8487 205.965 73.0362 205.965C73.2237 205.965 73.4085 206.01 73.576 206.096Z" fill="white"/>
<path d="M76.3828 204.419C76.4483 204.442 76.5053 204.485 76.5457 204.543C76.586 204.6 76.6077 204.669 76.6077 204.74C76.6077 204.811 76.586 204.88 76.5457 204.938C76.5053 204.996 76.4483 205.039 76.3828 205.062C76.2144 205.148 76.0288 205.193 75.8405 205.193C75.6522 205.193 75.4665 205.148 75.2982 205.062C75.2326 205.039 75.1756 204.996 75.1353 204.938C75.0949 204.88 75.0732 204.811 75.0732 204.74C75.0732 204.669 75.0949 204.6 75.1353 204.543C75.1756 204.485 75.2326 204.442 75.2982 204.419C75.4663 204.332 75.652 204.286 75.8405 204.286C76.0289 204.286 76.2147 204.332 76.3828 204.419Z" fill="white"/>
<path d="M79.2248 202.752C79.526 202.927 79.526 203.21 79.2248 203.39C79.0573 203.476 78.8725 203.521 78.685 203.521C78.4975 203.521 78.3126 203.476 78.1452 203.39C77.8489 203.21 77.8489 202.927 78.1452 202.752C78.3119 202.663 78.4971 202.617 78.685 202.617C78.8729 202.617 79.058 202.663 79.2248 202.752Z" fill="white"/>
<path d="M82.0515 201.08C82.1154 201.104 82.1705 201.148 82.2095 201.205C82.2484 201.262 82.2693 201.33 82.2693 201.399C82.2693 201.469 82.2484 201.537 82.2095 201.594C82.1705 201.651 82.1154 201.694 82.0515 201.718C81.8841 201.805 81.6992 201.85 81.5118 201.85C81.3243 201.85 81.1394 201.805 80.972 201.718C80.9058 201.697 80.8479 201.654 80.8069 201.597C80.7658 201.54 80.7437 201.47 80.7437 201.399C80.7437 201.328 80.7658 201.259 80.8069 201.201C80.8479 201.144 80.9058 201.102 80.972 201.08C81.1387 200.992 81.3239 200.945 81.5118 200.945C81.6997 200.945 81.8848 200.992 82.0515 201.08Z" fill="white"/>
<path d="M84.8785 199.408C84.9424 199.432 84.9975 199.476 85.0364 199.533C85.0754 199.59 85.0963 199.658 85.0963 199.727C85.0963 199.797 85.0754 199.865 85.0364 199.922C84.9975 199.979 84.9424 200.022 84.8785 200.046C84.7111 200.133 84.5262 200.178 84.3387 200.178C84.1512 200.178 83.9664 200.133 83.7989 200.046C83.7327 200.025 83.6748 199.982 83.6338 199.925C83.5927 199.868 83.5706 199.798 83.5706 199.727C83.5706 199.656 83.5927 199.587 83.6338 199.53C83.6748 199.472 83.7327 199.43 83.7989 199.408C83.9664 199.322 84.1512 199.277 84.3387 199.277C84.5262 199.277 84.7111 199.322 84.8785 199.408Z" fill="white"/>
<path d="M87.7004 197.737C87.7666 197.758 87.8244 197.8 87.8655 197.858C87.9066 197.915 87.9287 197.984 87.9287 198.056C87.9287 198.127 87.9066 198.196 87.8655 198.253C87.8244 198.311 87.7666 198.353 87.7004 198.375C87.5337 198.463 87.3485 198.51 87.1606 198.51C86.9727 198.51 86.7876 198.463 86.6209 198.375C86.557 198.351 86.5019 198.307 86.4629 198.25C86.424 198.193 86.4031 198.125 86.4031 198.056C86.4031 197.986 86.424 197.918 86.4629 197.861C86.5019 197.804 86.557 197.761 86.6209 197.737C86.7883 197.65 86.9731 197.605 87.1606 197.605C87.3481 197.605 87.5329 197.65 87.7004 197.737Z" fill="white"/>
<path d="M89.985 196.836C90.4065 196.836 90.7482 196.634 90.7482 196.384C90.7482 196.134 90.4065 195.931 89.985 195.931C89.5635 195.931 89.2218 196.134 89.2218 196.384C89.2218 196.634 89.5635 196.836 89.985 196.836Z" fill="white"/>
<path d="M92.8118 195.165C93.2333 195.165 93.575 194.962 93.575 194.712C93.575 194.462 93.2333 194.259 92.8118 194.259C92.3903 194.259 92.0486 194.462 92.0486 194.712C92.0486 194.962 92.3903 195.165 92.8118 195.165Z" fill="white"/>
<path d="M95.6387 193.498C96.0602 193.498 96.4019 193.295 96.4019 193.045C96.4019 192.795 96.0602 192.593 95.6387 192.593C95.2172 192.593 94.8755 192.795 94.8755 193.045C94.8755 193.295 95.2172 193.498 95.6387 193.498Z" fill="white"/>
<path d="M98.4606 191.826C98.8821 191.826 99.2238 191.623 99.2238 191.373C99.2238 191.123 98.8821 190.921 98.4606 190.921C98.0391 190.921 97.6974 191.123 97.6974 191.373C97.6974 191.623 98.0391 191.826 98.4606 191.826Z" fill="white"/>
<path d="M56.6247 212.783C56.6886 212.807 56.7437 212.851 56.7827 212.908C56.8216 212.965 56.8425 213.033 56.8425 213.102C56.8425 213.172 56.8216 213.24 56.7827 213.297C56.7437 213.354 56.6886 213.397 56.6247 213.421C56.4573 213.508 56.2724 213.553 56.0849 213.553C55.8975 213.553 55.7126 213.508 55.5451 213.421C55.4789 213.4 55.4211 213.357 55.38 213.3C55.3389 213.243 55.3168 213.173 55.3168 213.102C55.3168 213.031 55.3389 212.962 55.38 212.904C55.4211 212.847 55.4789 212.805 55.5451 212.783C55.7119 212.694 55.897 212.648 56.0849 212.648C56.2729 212.648 56.458 212.694 56.6247 212.783Z" fill="white"/>
<path d="M59.4516 211.106C59.5155 211.13 59.5706 211.174 59.6096 211.231C59.6485 211.288 59.6694 211.356 59.6694 211.425C59.6694 211.495 59.6485 211.563 59.6096 211.62C59.5706 211.677 59.5155 211.72 59.4516 211.744C59.2842 211.831 59.0993 211.876 58.9118 211.876C58.7244 211.876 58.5395 211.831 58.372 211.744C58.3058 211.723 58.248 211.68 58.2069 211.623C58.1658 211.566 58.1437 211.496 58.1437 211.425C58.1437 211.354 58.1658 211.285 58.2069 211.227C58.248 211.17 58.3058 211.128 58.372 211.106C58.5395 211.02 58.7244 210.975 58.9118 210.975C59.0993 210.975 59.2842 211.02 59.4516 211.106Z" fill="white"/>
<path d="M62.2734 209.435C62.3396 209.456 62.3974 209.498 62.4385 209.556C62.4796 209.613 62.5017 209.682 62.5017 209.754C62.5017 209.825 62.4796 209.894 62.4385 209.951C62.3974 210.009 62.3396 210.051 62.2734 210.073C62.1067 210.161 61.9215 210.208 61.7336 210.208C61.5457 210.208 61.3606 210.161 61.1938 210.073C61.13 210.049 61.0749 210.005 61.0359 209.948C60.997 209.891 60.9761 209.823 60.9761 209.754C60.9761 209.684 60.997 209.616 61.0359 209.559C61.0749 209.502 61.13 209.458 61.1938 209.435C61.3613 209.348 61.5461 209.303 61.7336 209.303C61.9211 209.303 62.1059 209.348 62.2734 209.435Z" fill="white"/>
<path d="M65.1004 207.763C65.1642 207.786 65.2193 207.83 65.2583 207.887C65.2972 207.944 65.3181 208.012 65.3181 208.081C65.3181 208.151 65.2972 208.219 65.2583 208.276C65.2193 208.333 65.1642 208.377 65.1004 208.4C64.9336 208.489 64.7485 208.536 64.5606 208.536C64.3727 208.536 64.1875 208.489 64.0208 208.4C63.9546 208.379 63.8968 208.337 63.8557 208.279C63.8146 208.222 63.7925 208.153 63.7925 208.081C63.7925 208.01 63.8146 207.941 63.8557 207.884C63.8968 207.826 63.9546 207.784 64.0208 207.763C64.1883 207.676 64.3731 207.631 64.5606 207.631C64.7481 207.631 64.9329 207.676 65.1004 207.763Z" fill="white"/>
<path d="M67.9271 206.096C67.9927 206.119 68.0497 206.162 68.09 206.22C68.1304 206.277 68.1521 206.346 68.1521 206.417C68.1521 206.488 68.1304 206.557 68.09 206.615C68.0497 206.673 67.9927 206.716 67.9271 206.739C67.7597 206.825 67.5748 206.87 67.3874 206.87C67.1999 206.87 67.015 206.825 66.8476 206.739C66.782 206.716 66.7251 206.673 66.6847 206.615C66.6444 206.557 66.6227 206.488 66.6227 206.417C66.6227 206.346 66.6444 206.277 66.6847 206.22C66.7251 206.162 66.782 206.119 66.8476 206.096C67.015 206.01 67.1999 205.965 67.3874 205.965C67.5748 205.965 67.7597 206.01 67.9271 206.096Z" fill="white"/>
<path d="M70.749 204.419C70.8146 204.442 70.8716 204.485 70.9119 204.543C70.9523 204.6 70.974 204.669 70.974 204.74C70.974 204.811 70.9523 204.881 70.9119 204.938C70.8716 204.996 70.8146 205.039 70.749 205.062C70.5816 205.148 70.3967 205.193 70.2093 205.193C70.0218 205.193 69.8369 205.148 69.6695 205.062C69.6039 205.039 69.547 204.996 69.5066 204.938C69.4663 204.881 69.4446 204.811 69.4446 204.74C69.4446 204.669 69.4663 204.6 69.5066 204.543C69.547 204.485 69.6039 204.442 69.6695 204.419C69.8369 204.332 70.0218 204.287 70.2093 204.287C70.3967 204.287 70.5816 204.332 70.749 204.419Z" fill="white"/>
<path d="M73.576 202.752C73.8722 202.927 73.8722 203.21 73.576 203.39C73.4085 203.476 73.2237 203.521 73.0362 203.521C72.8488 203.521 72.6639 203.476 72.4965 203.39C72.1952 203.21 72.1952 202.927 72.4965 202.752C72.6632 202.663 72.8483 202.617 73.0362 202.617C73.2241 202.617 73.4093 202.663 73.576 202.752Z" fill="white"/>
<path d="M75.8606 201.852C76.2821 201.852 76.6238 201.649 76.6238 201.399C76.6238 201.149 76.2821 200.947 75.8606 200.947C75.4391 200.947 75.0974 201.149 75.0974 201.399C75.0974 201.649 75.4391 201.852 75.8606 201.852Z" fill="white"/>
<path d="M79.2248 199.408C79.291 199.43 79.3489 199.472 79.3899 199.53C79.431 199.587 79.4531 199.656 79.4531 199.727C79.4531 199.798 79.431 199.868 79.3899 199.925C79.3489 199.982 79.291 200.025 79.2248 200.046C79.0574 200.133 78.8725 200.178 78.685 200.178C78.4976 200.178 78.3127 200.133 78.1453 200.046C78.0814 200.022 78.0263 199.979 77.9873 199.922C77.9484 199.865 77.9275 199.797 77.9275 199.727C77.9275 199.658 77.9484 199.59 77.9873 199.533C78.0263 199.476 78.0814 199.432 78.1453 199.408C78.3127 199.322 78.4976 199.277 78.685 199.277C78.8725 199.277 79.0574 199.322 79.2248 199.408Z" fill="white"/>
<path d="M82.0515 197.737C82.1154 197.761 82.1705 197.804 82.2095 197.861C82.2484 197.918 82.2693 197.986 82.2693 198.056C82.2693 198.125 82.2484 198.193 82.2095 198.25C82.1705 198.307 82.1154 198.351 82.0515 198.375C81.8848 198.463 81.6997 198.51 81.5118 198.51C81.3239 198.51 81.1387 198.463 80.972 198.375C80.9058 198.353 80.8479 198.311 80.8069 198.253C80.7658 198.196 80.7437 198.127 80.7437 198.056C80.7437 197.984 80.7658 197.915 80.8069 197.858C80.8479 197.8 80.9058 197.758 80.972 197.737C81.1394 197.65 81.3243 197.605 81.5118 197.605C81.6992 197.605 81.8841 197.65 82.0515 197.737Z" fill="white"/>
<path d="M84.8785 196.065C84.9424 196.089 84.9975 196.132 85.0364 196.189C85.0754 196.246 85.0963 196.314 85.0963 196.384C85.0963 196.453 85.0754 196.521 85.0364 196.578C84.9975 196.635 84.9424 196.679 84.8785 196.703C84.7118 196.791 84.5266 196.838 84.3387 196.838C84.1508 196.838 83.9657 196.791 83.7989 196.703C83.7327 196.681 83.6748 196.639 83.6338 196.581C83.5927 196.524 83.5706 196.455 83.5706 196.384C83.5706 196.313 83.5927 196.243 83.6338 196.186C83.6748 196.129 83.7327 196.086 83.7989 196.065C83.9664 195.978 84.1512 195.933 84.3387 195.933C84.5262 195.933 84.7111 195.978 84.8785 196.065Z" fill="white"/>
<path d="M87.7005 194.393C87.766 194.416 87.823 194.459 87.8633 194.517C87.9037 194.574 87.9254 194.644 87.9254 194.715C87.9254 194.785 87.9037 194.855 87.8633 194.912C87.823 194.97 87.766 195.013 87.7005 195.036C87.533 195.122 87.3482 195.167 87.1607 195.167C86.9732 195.167 86.7883 195.122 86.6209 195.036C86.5553 195.013 86.4984 194.97 86.458 194.912C86.4177 194.855 86.396 194.785 86.396 194.715C86.396 194.644 86.4177 194.574 86.458 194.517C86.4984 194.459 86.5553 194.416 86.6209 194.393C86.7883 194.307 86.9732 194.262 87.1607 194.262C87.3482 194.262 87.533 194.307 87.7005 194.393Z" fill="white"/>
<path d="M90.5272 192.721C90.5928 192.744 90.6498 192.787 90.6901 192.845C90.7305 192.902 90.7522 192.972 90.7522 193.043C90.7522 193.113 90.7305 193.183 90.6901 193.24C90.6498 193.298 90.5928 193.341 90.5272 193.364C90.3598 193.45 90.1749 193.495 89.9875 193.495C89.8 193.495 89.6151 193.45 89.4477 193.364C89.3821 193.341 89.3252 193.298 89.2848 193.24C89.2445 193.183 89.2228 193.113 89.2228 193.043C89.2228 192.972 89.2445 192.902 89.2848 192.845C89.3252 192.787 89.3821 192.744 89.4477 192.721C89.6151 192.635 89.8 192.59 89.9875 192.59C90.1749 192.59 90.3598 192.635 90.5272 192.721Z" fill="white"/>
<path d="M92.8118 191.826C93.2333 191.826 93.575 191.623 93.575 191.373C93.575 191.123 93.2333 190.921 92.8118 190.921C92.3903 190.921 92.0486 191.123 92.0486 191.373C92.0486 191.623 92.3903 191.826 92.8118 191.826Z" fill="white"/>
<path d="M95.6387 190.154C96.0602 190.154 96.4019 189.951 96.4019 189.701C96.4019 189.451 96.0602 189.249 95.6387 189.249C95.2172 189.249 94.8755 189.451 94.8755 189.701C94.8755 189.951 95.2172 190.154 95.6387 190.154Z" fill="white"/>
<path d="M53.7878 211.086C53.8534 211.109 53.9103 211.152 53.9507 211.209C53.991 211.267 54.0127 211.336 54.0127 211.407C54.0127 211.478 53.991 211.547 53.9507 211.605C53.9103 211.663 53.8534 211.706 53.7878 211.729C53.6195 211.815 53.4338 211.86 53.2455 211.86C53.0572 211.86 52.8715 211.815 52.7032 211.729C52.6376 211.706 52.5806 211.663 52.5403 211.605C52.5 211.547 52.4783 211.478 52.4783 211.407C52.4783 211.336 52.5 211.267 52.5403 211.209C52.5806 211.152 52.6376 211.109 52.7032 211.086C52.8715 210.999 53.0572 210.954 53.2455 210.954C53.4338 210.954 53.6195 210.999 53.7878 211.086Z" fill="white"/>
<path d="M56.0623 210.191C56.4838 210.191 56.8255 209.988 56.8255 209.738C56.8255 209.488 56.4838 209.285 56.0623 209.285C55.6408 209.285 55.2991 209.488 55.2991 209.738C55.2991 209.988 55.6408 210.191 56.0623 210.191Z" fill="white"/>
<path d="M59.4266 207.747C59.4905 207.771 59.5456 207.815 59.5845 207.872C59.6235 207.929 59.6444 207.997 59.6444 208.066C59.6444 208.136 59.6235 208.204 59.5845 208.261C59.5456 208.318 59.4905 208.361 59.4266 208.385C59.2592 208.472 59.0743 208.516 58.8868 208.516C58.6993 208.516 58.5145 208.472 58.347 208.385C58.2808 208.364 58.2229 208.321 58.1819 208.264C58.1408 208.207 58.1187 208.137 58.1187 208.066C58.1187 207.995 58.1408 207.926 58.1819 207.868C58.2229 207.811 58.2808 207.769 58.347 207.747C58.5137 207.658 58.6989 207.612 58.8868 207.612C59.0747 207.612 59.2599 207.658 59.4266 207.747Z" fill="white"/>
<path d="M50.9508 209.419C51.0146 209.443 51.0698 209.486 51.1087 209.543C51.1477 209.6 51.1686 209.668 51.1686 209.738C51.1686 209.807 51.1477 209.875 51.1087 209.932C51.0698 209.99 51.0146 210.033 50.9508 210.057C50.7833 210.143 50.5985 210.188 50.411 210.188C50.2235 210.188 50.0386 210.143 49.8712 210.057C49.805 210.035 49.7471 209.993 49.706 209.936C49.665 209.878 49.6428 209.809 49.6428 209.738C49.6428 209.667 49.665 209.597 49.706 209.54C49.7471 209.483 49.805 209.44 49.8712 209.419C50.0379 209.33 50.2231 209.284 50.411 209.284C50.5989 209.284 50.7841 209.33 50.9508 209.419Z" fill="white"/>
<path d="M53.2355 208.519C53.657 208.519 53.9987 208.316 53.9987 208.066C53.9987 207.816 53.657 207.613 53.2355 207.613C52.814 207.613 52.4723 207.816 52.4723 208.066C52.4723 208.316 52.814 208.519 53.2355 208.519Z" fill="white"/>
<path d="M56.0623 206.847C56.4838 206.847 56.8255 206.644 56.8255 206.394C56.8255 206.144 56.4838 205.942 56.0623 205.942C55.6408 205.942 55.2991 206.144 55.2991 206.394C55.2991 206.644 55.6408 206.847 56.0623 206.847Z" fill="white"/>
<path d="M48.124 207.747C48.1902 207.769 48.248 207.811 48.2891 207.868C48.3302 207.926 48.3523 207.995 48.3523 208.066C48.3523 208.137 48.3302 208.207 48.2891 208.264C48.248 208.321 48.1902 208.364 48.124 208.385C47.9565 208.472 47.7717 208.516 47.5842 208.516C47.3967 208.516 47.2119 208.472 47.0444 208.385C46.9806 208.361 46.9255 208.318 46.8865 208.261C46.8476 208.204 46.8267 208.136 46.8267 208.066C46.8267 207.997 46.8476 207.929 46.8865 207.872C46.9255 207.815 46.9806 207.771 47.0444 207.747C47.2111 207.658 47.3963 207.612 47.5842 207.612C47.7721 207.612 47.9572 207.658 48.124 207.747Z" fill="white"/>
<path d="M50.9508 206.096C51.0146 206.12 51.0698 206.163 51.1087 206.22C51.1477 206.277 51.1686 206.345 51.1686 206.415C51.1686 206.484 51.1477 206.552 51.1087 206.609C51.0698 206.666 51.0146 206.71 50.9508 206.734C50.7833 206.82 50.5985 206.865 50.411 206.865C50.2235 206.865 50.0386 206.82 49.8712 206.734C49.805 206.712 49.7471 206.67 49.706 206.613C49.665 206.555 49.6428 206.486 49.6428 206.415C49.6428 206.344 49.665 206.274 49.706 206.217C49.7471 206.16 49.805 206.117 49.8712 206.096C50.0386 206.01 50.2235 205.965 50.411 205.965C50.5985 205.965 50.7833 206.01 50.9508 206.096Z" fill="white"/>
<path d="M53.7878 204.403C53.8516 204.427 53.9068 204.471 53.9457 204.528C53.9847 204.585 54.0056 204.653 54.0056 204.722C54.0056 204.792 53.9847 204.86 53.9457 204.917C53.9068 204.974 53.8516 205.017 53.7878 205.041C53.6202 205.13 53.4342 205.177 53.2455 205.177C53.0568 205.177 52.8709 205.13 52.7032 205.041C52.6394 205.017 52.5843 204.974 52.5453 204.917C52.5064 204.86 52.4855 204.792 52.4855 204.722C52.4855 204.653 52.5064 204.585 52.5453 204.528C52.5843 204.471 52.6394 204.427 52.7032 204.403C52.8716 204.317 53.0572 204.272 53.2455 204.272C53.4338 204.272 53.6195 204.317 53.7878 204.403Z" fill="white"/>
<path d="M45.3021 206.096C45.3659 206.12 45.4211 206.163 45.46 206.22C45.499 206.277 45.5199 206.345 45.5199 206.415C45.5199 206.484 45.499 206.552 45.46 206.609C45.4211 206.666 45.3659 206.71 45.3021 206.734C45.1338 206.82 44.9481 206.865 44.7598 206.865C44.5715 206.865 44.3859 206.82 44.2175 206.734C44.1537 206.71 44.0986 206.666 44.0596 206.609C44.0206 206.552 43.9998 206.484 43.9998 206.415C43.9998 206.345 44.0206 206.277 44.0596 206.22C44.0986 206.163 44.1537 206.12 44.2175 206.096C44.3859 206.009 44.5715 205.964 44.7598 205.964C44.9481 205.964 45.1338 206.009 45.3021 206.096Z" fill="white"/>
<path d="M48.124 204.403C48.1902 204.425 48.248 204.467 48.2891 204.525C48.3302 204.582 48.3523 204.651 48.3523 204.722C48.3523 204.793 48.3302 204.863 48.2891 204.92C48.248 204.977 48.1902 205.02 48.124 205.041C47.9572 205.13 47.7721 205.176 47.5842 205.176C47.3963 205.176 47.2111 205.13 47.0444 205.041C46.9806 205.017 46.9255 204.974 46.8865 204.917C46.8476 204.86 46.8267 204.792 46.8267 204.722C46.8267 204.653 46.8476 204.585 46.8865 204.528C46.9255 204.471 46.9806 204.427 47.0444 204.403C47.2119 204.317 47.3967 204.272 47.5842 204.272C47.7717 204.272 47.9565 204.317 48.124 204.403Z" fill="white"/>
<path d="M50.9508 202.732C51.0146 202.755 51.0698 202.799 51.1087 202.856C51.1477 202.913 51.1686 202.981 51.1686 203.05C51.1686 203.12 51.1477 203.188 51.1087 203.245C51.0698 203.302 51.0146 203.346 50.9508 203.369C50.7841 203.458 50.5989 203.505 50.411 203.505C50.2231 203.505 50.0379 203.458 49.8712 203.369C49.805 203.348 49.7471 203.306 49.706 203.248C49.665 203.191 49.6428 203.122 49.6428 203.05C49.6428 202.979 49.665 202.91 49.706 202.853C49.7471 202.795 49.805 202.753 49.8712 202.732C50.0386 202.645 50.2235 202.6 50.411 202.6C50.5985 202.6 50.7833 202.645 50.9508 202.732Z" fill="white"/>
<path d="M42.4752 204.403C42.539 204.427 42.5942 204.471 42.6331 204.528C42.6721 204.585 42.693 204.653 42.693 204.722C42.693 204.792 42.6721 204.86 42.6331 204.917C42.5942 204.974 42.539 205.017 42.4752 205.041C42.3085 205.13 42.1233 205.176 41.9354 205.176C41.7475 205.176 41.5623 205.13 41.3956 205.041C41.3294 205.02 41.2715 204.977 41.2305 204.92C41.1894 204.863 41.1672 204.793 41.1672 204.722C41.1672 204.651 41.1894 204.582 41.2305 204.525C41.2715 204.467 41.3294 204.425 41.3956 204.403C41.5631 204.317 41.7479 204.272 41.9354 204.272C42.1229 204.272 42.3078 204.317 42.4752 204.403Z" fill="white"/>
<path d="M45.3021 202.732C45.3659 202.755 45.4211 202.799 45.46 202.856C45.499 202.913 45.5199 202.981 45.5199 203.051C45.5199 203.12 45.499 203.188 45.46 203.245C45.4211 203.302 45.3659 203.346 45.3021 203.369C45.1345 203.458 44.9485 203.505 44.7598 203.505C44.5711 203.505 44.3851 203.458 44.2175 203.369C44.1537 203.346 44.0986 203.302 44.0596 203.245C44.0206 203.188 43.9998 203.12 43.9998 203.051C43.9998 202.981 44.0206 202.913 44.0596 202.856C44.0986 202.799 44.1537 202.755 44.2175 202.732C44.3859 202.645 44.5715 202.6 44.7598 202.6C44.9481 202.6 45.1338 202.645 45.3021 202.732Z" fill="white"/>
<path d="M48.124 201.06C48.1895 201.082 48.2465 201.126 48.2868 201.183C48.3272 201.241 48.3489 201.31 48.3489 201.381C48.3489 201.452 48.3272 201.521 48.2868 201.579C48.2465 201.637 48.1895 201.68 48.124 201.703C47.9565 201.789 47.7717 201.834 47.5842 201.834C47.3968 201.834 47.2119 201.789 47.0445 201.703C46.9789 201.68 46.922 201.637 46.8816 201.579C46.8413 201.521 46.8196 201.452 46.8196 201.381C46.8196 201.31 46.8413 201.241 46.8816 201.183C46.922 201.126 46.9789 201.082 47.0445 201.06C47.2119 200.973 47.3968 200.928 47.5842 200.928C47.7717 200.928 47.9565 200.973 48.124 201.06Z" fill="white"/>
<path d="M39.6484 202.732C39.7147 202.753 39.7725 202.795 39.8136 202.853C39.8547 202.91 39.8768 202.979 39.8768 203.05C39.8768 203.122 39.8547 203.191 39.8136 203.248C39.7725 203.306 39.7147 203.348 39.6484 203.369C39.4817 203.458 39.2966 203.505 39.1087 203.505C38.9207 203.505 38.7356 203.458 38.5689 203.369C38.505 203.346 38.4499 203.302 38.4109 203.245C38.372 203.188 38.3511 203.12 38.3511 203.05C38.3511 202.981 38.372 202.913 38.4109 202.856C38.4499 202.799 38.505 202.755 38.5689 202.732C38.7363 202.645 38.9212 202.6 39.1087 202.6C39.2961 202.6 39.481 202.645 39.6484 202.732Z" fill="white"/>
<path d="M42.4752 201.06C42.5408 201.082 42.5978 201.126 42.6381 201.183C42.6785 201.241 42.7002 201.31 42.7002 201.381C42.7002 201.452 42.6785 201.521 42.6381 201.579C42.5978 201.637 42.5408 201.68 42.4752 201.703C42.3078 201.789 42.1229 201.834 41.9355 201.834C41.748 201.834 41.5631 201.789 41.3957 201.703C41.3301 201.68 41.2732 201.637 41.2328 201.579C41.1925 201.521 41.1708 201.452 41.1708 201.381C41.1708 201.31 41.1925 201.241 41.2328 201.183C41.2732 201.126 41.3301 201.082 41.3957 201.06C41.5631 200.973 41.748 200.928 41.9355 200.928C42.1229 200.928 42.3078 200.973 42.4752 201.06Z" fill="white"/>
<path d="M44.7598 200.165C45.1813 200.165 45.523 199.962 45.523 199.712C45.523 199.462 45.1813 199.259 44.7598 199.259C44.3383 199.259 43.9966 199.462 43.9966 199.712C43.9966 199.962 44.3383 200.165 44.7598 200.165Z" fill="white"/>
<path d="M36.8265 201.06C36.8921 201.083 36.9491 201.126 36.9894 201.183C37.0297 201.241 37.0514 201.31 37.0514 201.381C37.0514 201.452 37.0297 201.521 36.9894 201.579C36.9491 201.637 36.8921 201.68 36.8265 201.703C36.6582 201.789 36.4725 201.834 36.2843 201.834C36.096 201.834 35.9103 201.789 35.742 201.703C35.6764 201.68 35.6195 201.637 35.5791 201.579C35.5388 201.521 35.5171 201.452 35.5171 201.381C35.5171 201.31 35.5388 201.241 35.5791 201.183C35.6195 201.126 35.6764 201.083 35.742 201.06C35.9103 200.973 36.096 200.928 36.2843 200.928C36.4725 200.928 36.6582 200.973 36.8265 201.06Z" fill="white"/>
<path d="M39.6483 199.408C39.7138 199.431 39.7708 199.474 39.8111 199.532C39.8515 199.59 39.8732 199.659 39.8732 199.73C39.8732 199.801 39.8515 199.87 39.8111 199.928C39.7708 199.985 39.7138 200.029 39.6483 200.051C39.4808 200.138 39.296 200.183 39.1085 200.183C38.9211 200.183 38.7362 200.138 38.5688 200.051C38.5032 200.029 38.4462 199.985 38.4059 199.928C38.3656 199.87 38.3439 199.801 38.3439 199.73C38.3439 199.659 38.3656 199.59 38.4059 199.532C38.4462 199.474 38.5032 199.431 38.5688 199.408C38.7362 199.322 38.9211 199.277 39.1085 199.277C39.296 199.277 39.4808 199.322 39.6483 199.408Z" fill="white"/>
<path d="M41.9329 198.493C42.3544 198.493 42.6961 198.29 42.6961 198.04C42.6961 197.79 42.3544 197.587 41.9329 197.587C41.5114 197.587 41.1697 197.79 41.1697 198.04C41.1697 198.29 41.5114 198.493 41.9329 198.493Z" fill="white"/>
<path d="M33.4573 200.165C33.8788 200.165 34.2205 199.962 34.2205 199.712C34.2205 199.462 33.8788 199.259 33.4573 199.259C33.0358 199.259 32.6941 199.462 32.6941 199.712C32.6941 199.962 33.0358 200.165 33.4573 200.165Z" fill="white"/>
<path d="M36.8265 197.721C36.8903 197.745 36.9455 197.788 36.9844 197.845C37.0234 197.902 37.0443 197.97 37.0443 198.04C37.0443 198.11 37.0234 198.178 36.9844 198.235C36.9455 198.292 36.8903 198.335 36.8265 198.359C36.6582 198.445 36.4725 198.491 36.2842 198.491C36.0959 198.491 35.9103 198.445 35.7419 198.359C35.6781 198.335 35.623 198.292 35.584 198.235C35.5451 198.178 35.5242 198.11 35.5242 198.04C35.5242 197.97 35.5451 197.902 35.584 197.845C35.623 197.788 35.6781 197.745 35.7419 197.721C35.9095 197.632 36.0955 197.586 36.2842 197.586C36.4729 197.586 36.6589 197.632 36.8265 197.721Z" fill="white"/>
<path d="M39.6484 196.049C39.7147 196.071 39.7725 196.113 39.8136 196.17C39.8547 196.228 39.8768 196.297 39.8768 196.368C39.8768 196.439 39.8547 196.509 39.8136 196.566C39.7725 196.623 39.7147 196.666 39.6484 196.687C39.481 196.774 39.2961 196.819 39.1087 196.819C38.9212 196.819 38.7363 196.774 38.5689 196.687C38.505 196.663 38.4499 196.62 38.4109 196.563C38.372 196.506 38.3511 196.438 38.3511 196.368C38.3511 196.299 38.372 196.231 38.4109 196.174C38.4499 196.117 38.505 196.073 38.5689 196.049C38.7356 195.96 38.9207 195.914 39.1087 195.914C39.2966 195.914 39.4817 195.96 39.6484 196.049Z" fill="white"/>
<path d="M31.1477 197.701C31.2139 197.722 31.2718 197.764 31.3129 197.822C31.3539 197.879 31.3761 197.948 31.3761 198.02C31.3761 198.091 31.3539 198.16 31.3129 198.217C31.2718 198.275 31.2139 198.317 31.1477 198.338C30.981 198.427 30.7958 198.474 30.6079 198.474C30.42 198.474 30.2348 198.427 30.0681 198.338C30.0043 198.315 29.9491 198.271 29.9102 198.214C29.8712 198.157 29.8503 198.089 29.8503 198.02C29.8503 197.95 29.8712 197.882 29.9102 197.825C29.9491 197.768 30.0043 197.724 30.0681 197.701C30.2356 197.614 30.4204 197.569 30.6079 197.569C30.7954 197.569 30.9803 197.614 31.1477 197.701Z" fill="white"/>
<path d="M33.9746 196.029C34.0402 196.052 34.0972 196.095 34.1375 196.152C34.1779 196.21 34.1995 196.279 34.1995 196.35C34.1995 196.421 34.1779 196.49 34.1375 196.548C34.0972 196.606 34.0402 196.649 33.9746 196.672C33.8072 196.758 33.6223 196.803 33.4349 196.803C33.2474 196.803 33.0625 196.758 32.8951 196.672C32.8295 196.649 32.7725 196.606 32.7322 196.548C32.6919 196.49 32.6702 196.421 32.6702 196.35C32.6702 196.279 32.6919 196.21 32.7322 196.152C32.7725 196.095 32.8295 196.052 32.8951 196.029C33.0625 195.942 33.2474 195.897 33.4349 195.897C33.6223 195.897 33.8072 195.942 33.9746 196.029Z" fill="white"/>
<path d="M36.8014 194.357C36.867 194.38 36.9239 194.423 36.9643 194.481C37.0046 194.538 37.0263 194.607 37.0263 194.678C37.0263 194.749 37.0046 194.818 36.9643 194.876C36.9239 194.934 36.867 194.977 36.8014 195C36.6331 195.086 36.4474 195.131 36.2591 195.131C36.0708 195.131 35.8852 195.086 35.7168 195C35.6513 194.977 35.5943 194.934 35.554 194.876C35.5136 194.818 35.4919 194.749 35.4919 194.678C35.4919 194.607 35.5136 194.538 35.554 194.481C35.5943 194.423 35.6513 194.38 35.7168 194.357C35.8852 194.27 36.0708 194.225 36.2591 194.225C36.4474 194.225 36.6331 194.27 36.8014 194.357Z" fill="white"/>
<path d="M28.3258 196.029C28.3914 196.052 28.4483 196.095 28.4887 196.152C28.529 196.21 28.5507 196.279 28.5507 196.35C28.5507 196.421 28.529 196.49 28.4887 196.548C28.4483 196.606 28.3914 196.649 28.3258 196.672C28.1575 196.758 27.9718 196.803 27.7835 196.803C27.5953 196.803 27.4096 196.758 27.2413 196.672C27.1757 196.649 27.1187 196.606 27.0784 196.548C27.0381 196.49 27.0164 196.421 27.0164 196.35C27.0164 196.279 27.0381 196.21 27.0784 196.152C27.1187 196.095 27.1757 196.052 27.2413 196.029C27.4096 195.942 27.5953 195.897 27.7835 195.897C27.9718 195.897 28.1575 195.942 28.3258 196.029Z" fill="white"/>
<path d="M31.1477 194.357C31.2133 194.38 31.2703 194.423 31.3106 194.481C31.3509 194.538 31.3726 194.607 31.3726 194.678C31.3726 194.749 31.3509 194.818 31.3106 194.876C31.2703 194.934 31.2133 194.977 31.1477 195C30.9803 195.086 30.7954 195.131 30.6079 195.131C30.4205 195.131 30.2356 195.086 30.0682 195C30.0026 194.977 29.9456 194.934 29.9053 194.876C29.865 194.818 29.8433 194.749 29.8433 194.678C29.8433 194.607 29.865 194.538 29.9053 194.481C29.9456 194.423 30.0026 194.38 30.0682 194.357C30.2356 194.27 30.4205 194.225 30.6079 194.225C30.7954 194.225 30.9803 194.27 31.1477 194.357Z" fill="white"/>
<path d="M33.4323 193.462C33.8538 193.462 34.1955 193.259 34.1955 193.009C34.1955 192.759 33.8538 192.556 33.4323 192.556C33.0108 192.556 32.6691 192.759 32.6691 193.009C32.6691 193.259 33.0108 193.462 33.4323 193.462Z" fill="white"/>
<path d="M25.4989 194.357C25.5645 194.38 25.6215 194.423 25.6618 194.481C25.7021 194.538 25.7238 194.607 25.7238 194.678C25.7238 194.749 25.7021 194.818 25.6618 194.876C25.6215 194.934 25.5645 194.977 25.4989 195C25.3315 195.086 25.1466 195.131 24.9591 195.131C24.7717 195.131 24.5868 195.086 24.4194 195C24.3538 194.977 24.2968 194.934 24.2565 194.876C24.2162 194.818 24.1945 194.749 24.1945 194.678C24.1945 194.607 24.2162 194.538 24.2565 194.481C24.2968 194.423 24.3538 194.38 24.4194 194.357C24.5868 194.27 24.7717 194.225 24.9591 194.225C25.1466 194.225 25.3315 194.27 25.4989 194.357Z" fill="white"/>
<path d="M28.3258 192.69C28.3896 192.714 28.4447 192.758 28.4837 192.815C28.5227 192.872 28.5435 192.94 28.5435 193.009C28.5435 193.079 28.5227 193.147 28.4837 193.204C28.4447 193.261 28.3896 193.304 28.3258 193.328C28.1575 193.415 27.9718 193.46 27.7835 193.46C27.5952 193.46 27.4095 193.415 27.2412 193.328C27.1774 193.304 27.1222 193.261 27.0833 193.204C27.0443 193.147 27.0234 193.079 27.0234 193.009C27.0234 192.94 27.0443 192.872 27.0833 192.815C27.1222 192.758 27.1774 192.714 27.2412 192.69C27.4088 192.601 27.5948 192.555 27.7835 192.555C27.9722 192.555 28.1582 192.601 28.3258 192.69Z" fill="white"/>
<path d="M31.1477 191.018C31.2139 191.04 31.2718 191.082 31.3129 191.139C31.3539 191.197 31.3761 191.266 31.3761 191.337C31.3761 191.408 31.3539 191.478 31.3129 191.535C31.2718 191.592 31.2139 191.635 31.1477 191.656C30.9803 191.743 30.7954 191.788 30.6079 191.788C30.4204 191.788 30.2356 191.743 30.0681 191.656C30.0043 191.632 29.9491 191.589 29.9102 191.532C29.8712 191.475 29.8503 191.407 29.8503 191.337C29.8503 191.268 29.8712 191.2 29.9102 191.143C29.9491 191.086 30.0043 191.042 30.0681 191.018C30.2348 190.929 30.42 190.883 30.6079 190.883C30.7958 190.883 30.981 190.929 31.1477 191.018Z" fill="white"/>
<path d="M22.657 192.69C22.7232 192.712 22.7811 192.754 22.8221 192.811C22.8632 192.869 22.8854 192.938 22.8854 193.009C22.8854 193.08 22.8632 193.15 22.8221 193.207C22.7811 193.264 22.7232 193.307 22.657 193.328C22.4895 193.414 22.3047 193.459 22.1172 193.459C21.9297 193.459 21.7448 193.414 21.5774 193.328C21.5136 193.304 21.4584 193.261 21.4195 193.204C21.3805 193.147 21.3596 193.079 21.3596 193.009C21.3596 192.939 21.3805 192.872 21.4195 192.814C21.4584 192.757 21.5136 192.714 21.5774 192.69C21.7441 192.601 21.9293 192.555 22.1172 192.555C22.3051 192.555 22.4903 192.601 22.657 192.69Z" fill="white"/>
<path d="M25.4988 191.018C25.5626 191.042 25.6178 191.086 25.6567 191.143C25.6957 191.2 25.7166 191.268 25.7166 191.337C25.7166 191.407 25.6957 191.475 25.6567 191.532C25.6178 191.589 25.5626 191.632 25.4988 191.656C25.3314 191.743 25.1465 191.788 24.959 191.788C24.7716 191.788 24.5867 191.743 24.4193 191.656C24.353 191.635 24.2952 191.592 24.2541 191.535C24.2131 191.478 24.1909 191.408 24.1909 191.337C24.1909 191.266 24.2131 191.197 24.2541 191.139C24.2952 191.082 24.353 191.04 24.4193 191.018C24.586 190.929 24.7711 190.883 24.959 190.883C25.1469 190.883 25.3321 190.929 25.4988 191.018Z" fill="white"/>
<path d="M28.3258 189.346C28.3896 189.37 28.4447 189.414 28.4837 189.471C28.5227 189.528 28.5435 189.596 28.5435 189.665C28.5435 189.735 28.5227 189.803 28.4837 189.86C28.4447 189.917 28.3896 189.96 28.3258 189.984C28.1575 190.071 27.9718 190.116 27.7835 190.116C27.5952 190.116 27.4095 190.071 27.2412 189.984C27.1774 189.96 27.1222 189.917 27.0833 189.86C27.0443 189.803 27.0234 189.735 27.0234 189.665C27.0234 189.596 27.0443 189.528 27.0833 189.471C27.1222 189.414 27.1774 189.37 27.2412 189.346C27.4095 189.26 27.5952 189.215 27.7835 189.215C27.9718 189.215 28.1575 189.26 28.3258 189.346Z" fill="white"/>
<path d="M106.419 192.721C106.586 192.633 106.771 192.588 106.959 192.588C107.147 192.588 107.332 192.633 107.499 192.721C107.795 192.901 107.8 193.184 107.499 193.364C107.331 193.45 107.146 193.495 106.959 193.495C106.771 193.495 106.587 193.45 106.419 193.364C106.351 193.344 106.291 193.302 106.248 193.244C106.205 193.186 106.182 193.115 106.182 193.043C106.182 192.97 106.205 192.899 106.248 192.841C106.291 192.783 106.351 192.741 106.419 192.721Z" fill="white"/>
<path d="M110.325 191.065C110.391 191.087 110.448 191.131 110.488 191.188C110.529 191.246 110.55 191.315 110.55 191.386C110.55 191.457 110.529 191.526 110.488 191.584C110.448 191.641 110.391 191.685 110.325 191.708C110.158 191.794 109.973 191.839 109.786 191.839C109.598 191.839 109.413 191.794 109.246 191.708C109.18 191.685 109.123 191.641 109.083 191.584C109.043 191.526 109.021 191.457 109.021 191.386C109.021 191.315 109.043 191.246 109.083 191.188C109.123 191.131 109.18 191.087 109.246 191.065C109.413 190.978 109.598 190.933 109.786 190.933C109.973 190.933 110.158 190.978 110.325 191.065Z" fill="white"/>
<path d="M113.152 189.393C113.218 189.416 113.275 189.459 113.315 189.517C113.356 189.574 113.377 189.643 113.377 189.714C113.377 189.785 113.356 189.854 113.315 189.912C113.275 189.97 113.218 190.013 113.152 190.036C112.985 190.122 112.8 190.167 112.613 190.167C112.425 190.167 112.24 190.122 112.073 190.036C112.007 190.013 111.95 189.97 111.91 189.912C111.87 189.854 111.848 189.785 111.848 189.714C111.848 189.643 111.87 189.574 111.91 189.517C111.95 189.459 112.007 189.416 112.073 189.393C112.24 189.306 112.425 189.261 112.613 189.261C112.8 189.261 112.985 189.306 113.152 189.393Z" fill="white"/>
<path d="M103.592 191.07C103.759 190.982 103.944 190.937 104.132 190.937C104.32 190.937 104.505 190.982 104.672 191.07C104.737 191.093 104.794 191.136 104.835 191.194C104.875 191.251 104.897 191.32 104.897 191.391C104.897 191.462 104.875 191.531 104.835 191.589C104.794 191.647 104.737 191.69 104.672 191.713C104.503 191.799 104.318 191.844 104.129 191.844C103.941 191.844 103.756 191.799 103.587 191.713C103.522 191.69 103.465 191.646 103.425 191.588C103.385 191.53 103.364 191.46 103.365 191.389C103.365 191.319 103.388 191.25 103.428 191.192C103.469 191.135 103.526 191.092 103.592 191.07Z" fill="white"/>
<path d="M106.961 190.17C107.383 190.17 107.725 189.967 107.725 189.717C107.725 189.467 107.383 189.264 106.961 189.264C106.54 189.264 106.198 189.467 106.198 189.717C106.198 189.967 106.54 190.17 106.961 190.17Z" fill="white"/>
<path d="M110.325 187.726C110.392 187.747 110.45 187.79 110.491 187.847C110.532 187.905 110.554 187.974 110.554 188.045C110.554 188.116 110.532 188.185 110.491 188.243C110.45 188.3 110.392 188.343 110.325 188.364C110.158 188.45 109.973 188.495 109.786 188.495C109.598 188.495 109.413 188.45 109.246 188.364C109.182 188.34 109.127 188.297 109.088 188.24C109.049 188.183 109.028 188.115 109.028 188.045C109.028 187.975 109.049 187.907 109.088 187.85C109.127 187.793 109.182 187.75 109.246 187.726C109.413 187.637 109.598 187.591 109.786 187.591C109.974 187.591 110.159 187.637 110.325 187.726Z" fill="white"/>
<path d="M113.152 186.034C113.216 186.057 113.271 186.101 113.31 186.158C113.349 186.215 113.37 186.283 113.37 186.353C113.37 186.422 113.349 186.49 113.31 186.547C113.271 186.604 113.216 186.648 113.152 186.671C112.985 186.758 112.8 186.803 112.613 186.803C112.425 186.803 112.24 186.758 112.073 186.671C112.007 186.65 111.949 186.608 111.908 186.55C111.867 186.493 111.844 186.424 111.844 186.353C111.844 186.281 111.867 186.212 111.908 186.155C111.949 186.097 112.007 186.055 112.073 186.034C112.24 185.945 112.425 185.898 112.613 185.898C112.801 185.898 112.986 185.945 113.152 186.034Z" fill="white"/>
<path d="M115.979 184.382C116.043 184.406 116.098 184.45 116.137 184.507C116.176 184.564 116.197 184.632 116.197 184.701C116.197 184.771 116.176 184.839 116.137 184.896C116.098 184.953 116.043 184.996 115.979 185.02C115.811 185.107 115.625 185.152 115.437 185.152C115.249 185.152 115.063 185.107 114.895 185.02C114.831 184.996 114.776 184.953 114.737 184.896C114.698 184.839 114.677 184.771 114.677 184.701C114.677 184.632 114.698 184.564 114.737 184.507C114.776 184.45 114.831 184.406 114.895 184.382C115.063 184.296 115.249 184.251 115.437 184.251C115.625 184.251 115.811 184.296 115.979 184.382Z" fill="white"/>
<path d="M100.765 189.398C100.933 189.31 101.119 189.265 101.307 189.265C101.496 189.265 101.682 189.31 101.85 189.398C101.914 189.422 101.969 189.465 102.008 189.522C102.047 189.579 102.068 189.647 102.068 189.717C102.068 189.786 102.047 189.854 102.008 189.911C101.969 189.968 101.914 190.012 101.85 190.036C101.682 190.122 101.497 190.167 101.31 190.167C101.123 190.167 100.938 190.122 100.77 190.036C100.704 190.015 100.646 189.973 100.604 189.916C100.563 189.859 100.54 189.79 100.539 189.719C100.539 189.648 100.56 189.578 100.601 189.52C100.642 189.463 100.699 189.42 100.765 189.398Z" fill="white"/>
<path d="M104.677 187.726C104.741 187.75 104.796 187.793 104.835 187.85C104.874 187.907 104.895 187.975 104.895 188.045C104.895 188.115 104.874 188.183 104.835 188.24C104.796 188.297 104.741 188.34 104.677 188.364C104.509 188.45 104.324 188.495 104.137 188.495C103.95 188.495 103.765 188.45 103.597 188.364C103.531 188.343 103.473 188.3 103.432 188.243C103.391 188.185 103.369 188.116 103.369 188.045C103.369 187.974 103.391 187.905 103.432 187.847C103.473 187.79 103.531 187.747 103.597 187.726C103.764 187.637 103.949 187.591 104.137 187.591C104.325 187.591 104.51 187.637 104.677 187.726Z" fill="white"/>
<path d="M107.514 186.034C107.578 186.057 107.633 186.101 107.672 186.158C107.711 186.215 107.732 186.283 107.732 186.353C107.732 186.422 107.711 186.49 107.672 186.547C107.633 186.604 107.578 186.648 107.514 186.672C107.345 186.758 107.16 186.803 106.971 186.803C106.783 186.803 106.598 186.758 106.429 186.672C106.365 186.648 106.31 186.604 106.271 186.547C106.232 186.49 106.211 186.422 106.211 186.353C106.211 186.283 106.232 186.215 106.271 186.158C106.31 186.101 106.365 186.057 106.429 186.034C106.597 185.945 106.783 185.898 106.971 185.898C107.16 185.898 107.346 185.945 107.514 186.034Z" fill="white"/>
<path d="M110.325 184.382C110.392 184.404 110.45 184.446 110.491 184.504C110.532 184.561 110.554 184.63 110.554 184.701C110.554 184.772 110.532 184.842 110.491 184.899C110.45 184.956 110.392 184.999 110.325 185.02C110.158 185.107 109.973 185.152 109.786 185.152C109.598 185.152 109.413 185.107 109.246 185.02C109.182 184.996 109.127 184.953 109.088 184.896C109.049 184.839 109.028 184.771 109.028 184.701C109.028 184.632 109.049 184.564 109.088 184.507C109.127 184.45 109.182 184.406 109.246 184.382C109.413 184.296 109.598 184.251 109.786 184.251C109.973 184.251 110.158 184.296 110.325 184.382Z" fill="white"/>
<path d="M113.152 182.71C113.216 182.734 113.271 182.778 113.31 182.835C113.349 182.892 113.37 182.96 113.37 183.029C113.37 183.099 113.349 183.167 113.31 183.224C113.271 183.281 113.216 183.324 113.152 183.348C112.986 183.437 112.801 183.484 112.613 183.484C112.425 183.484 112.24 183.437 112.073 183.348C112.007 183.327 111.949 183.285 111.908 183.227C111.867 183.17 111.844 183.101 111.844 183.029C111.844 182.958 111.867 182.889 111.908 182.832C111.949 182.774 112.007 182.732 112.073 182.71C112.24 182.624 112.425 182.579 112.613 182.579C112.8 182.579 112.985 182.624 113.152 182.71Z" fill="white"/>
<path d="M97.9435 187.726C98.1109 187.64 98.2958 187.595 98.4833 187.595C98.6707 187.595 98.8556 187.64 99.0231 187.726C99.0893 187.747 99.1472 187.79 99.1882 187.847C99.2293 187.904 99.2514 187.974 99.2514 188.045C99.2514 188.116 99.2293 188.185 99.1882 188.243C99.1472 188.3 99.0893 188.342 99.0231 188.364C98.8556 188.45 98.6707 188.495 98.4833 188.495C98.2958 188.495 98.1109 188.45 97.9435 188.364C97.8772 188.342 97.8194 188.3 97.7783 188.243C97.7372 188.185 97.7151 188.116 97.7151 188.045C97.7151 187.974 97.7372 187.904 97.7783 187.847C97.8194 187.79 97.8772 187.747 97.9435 187.726Z" fill="white"/>
<path d="M101.85 186.034C101.916 186.055 101.974 186.097 102.015 186.155C102.056 186.212 102.078 186.281 102.078 186.353C102.078 186.424 102.056 186.493 102.015 186.55C101.974 186.608 101.916 186.65 101.85 186.671C101.682 186.758 101.498 186.803 101.31 186.803C101.123 186.803 100.938 186.758 100.77 186.671C100.706 186.648 100.651 186.604 100.612 186.547C100.573 186.49 100.552 186.422 100.552 186.353C100.552 186.283 100.573 186.215 100.612 186.158C100.651 186.101 100.706 186.057 100.77 186.034C100.937 185.945 101.122 185.898 101.31 185.898C101.498 185.898 101.683 185.945 101.85 186.034Z" fill="white"/>
<path d="M104.677 184.382C104.741 184.406 104.796 184.45 104.835 184.507C104.874 184.564 104.895 184.632 104.895 184.701C104.895 184.771 104.874 184.839 104.835 184.896C104.796 184.953 104.741 184.996 104.677 185.02C104.509 185.107 104.324 185.152 104.137 185.152C103.95 185.152 103.765 185.107 103.597 185.02C103.531 184.999 103.473 184.956 103.432 184.899C103.391 184.842 103.369 184.772 103.369 184.701C103.369 184.63 103.391 184.561 103.432 184.504C103.473 184.446 103.531 184.404 103.597 184.382C103.765 184.296 103.95 184.251 104.137 184.251C104.324 184.251 104.509 184.296 104.677 184.382Z" fill="white"/>
<path d="M118.5 182.258C118.564 182.282 118.619 182.325 118.658 182.382C118.697 182.439 118.718 182.507 118.718 182.577C118.718 182.646 118.697 182.714 118.658 182.771C118.619 182.828 118.564 182.872 118.5 182.896C118.333 182.984 118.148 183.031 117.96 183.031C117.772 183.031 117.587 182.984 117.42 182.896C117.354 182.874 117.296 182.832 117.255 182.774C117.214 182.717 117.192 182.648 117.192 182.577C117.192 182.506 117.214 182.436 117.255 182.379C117.296 182.322 117.354 182.279 117.42 182.258C117.588 182.171 117.773 182.126 117.96 182.126C118.147 182.126 118.332 182.171 118.5 182.258Z" fill="white"/>
<path d="M115.136 181.358C115.557 181.358 115.899 181.155 115.899 180.905C115.899 180.655 115.557 180.452 115.136 180.452C114.714 180.452 114.373 180.655 114.373 180.905C114.373 181.155 114.714 181.358 115.136 181.358Z" fill="white"/>
<path d="M112.309 179.691C112.73 179.691 113.072 179.488 113.072 179.238C113.072 178.988 112.73 178.785 112.309 178.785C111.887 178.785 111.546 178.988 111.546 179.238C111.546 179.488 111.887 179.691 112.309 179.691Z" fill="white"/>
<path d="M117.958 186.826C118.379 186.826 118.721 186.623 118.721 186.373C118.721 186.123 118.379 185.92 117.958 185.92C117.536 185.92 117.194 186.123 117.194 186.373C117.194 186.623 117.536 186.826 117.958 186.826Z" fill="white"/>
<path d="M114.593 187.726C114.76 187.639 114.945 187.593 115.133 187.593C115.321 187.593 115.506 187.639 115.673 187.726C115.738 187.749 115.795 187.792 115.836 187.85C115.876 187.907 115.898 187.977 115.898 188.048C115.898 188.119 115.876 188.188 115.836 188.245C115.795 188.303 115.738 188.346 115.673 188.369C115.505 188.456 115.321 188.501 115.133 188.501C114.946 188.501 114.761 188.456 114.593 188.369C114.528 188.346 114.471 188.303 114.43 188.245C114.39 188.188 114.368 188.119 114.368 188.048C114.368 187.977 114.39 187.907 114.43 187.85C114.471 187.792 114.528 187.749 114.593 187.726Z" fill="white"/>
<path d="M107.514 182.71C107.578 182.734 107.633 182.778 107.672 182.835C107.711 182.892 107.732 182.96 107.732 183.029C107.732 183.099 107.711 183.167 107.672 183.224C107.633 183.281 107.578 183.324 107.514 183.348C107.346 183.437 107.16 183.484 106.971 183.484C106.783 183.484 106.597 183.437 106.429 183.348C106.365 183.324 106.31 183.281 106.271 183.224C106.232 183.167 106.211 183.099 106.211 183.029C106.211 182.96 106.232 182.892 106.271 182.835C106.31 182.778 106.365 182.734 106.429 182.71C106.598 182.624 106.783 182.579 106.971 182.579C107.16 182.579 107.345 182.624 107.514 182.71Z" fill="white"/>
<path d="M110.325 181.039C110.392 181.06 110.45 181.102 110.491 181.16C110.532 181.217 110.554 181.286 110.554 181.358C110.554 181.429 110.532 181.498 110.491 181.555C110.45 181.613 110.392 181.655 110.325 181.676C110.159 181.765 109.974 181.812 109.786 181.812C109.598 181.812 109.413 181.765 109.246 181.676C109.182 181.653 109.127 181.609 109.088 181.552C109.049 181.495 109.028 181.427 109.028 181.358C109.028 181.288 109.049 181.22 109.088 181.163C109.127 181.106 109.182 181.062 109.246 181.039C109.413 180.952 109.598 180.907 109.786 180.907C109.973 180.907 110.158 180.952 110.325 181.039Z" fill="white"/>
<path d="M17.4549 166.861L11.9919 163.631V138.363L17.4549 141.593V166.861ZM12.7401 163.183L16.7068 165.529V142.041L12.7401 139.695V163.183Z" fill="white"/>
<path d="M75.8806 186.471L70.4126 189.707V164.428L75.8806 161.208V186.471ZM71.1658 188.374L75.1275 186.028V162.54L71.1658 164.881V188.374Z" fill="white"/>
<path d="M84.6778 181.713L79.2148 184.948V159.68L84.6778 156.449V181.713ZM79.963 183.616L83.9297 181.27V157.782L79.963 160.122V183.616Z" fill="white"/>
<path d="M93.4847 177.119L88.0167 180.375V155.081L93.4847 151.851V177.119ZM88.7699 179.017L92.7315 176.671V153.183L88.7699 155.529V179.017Z" fill="white"/>
<path d="M101.754 172.602L96.2865 175.833V150.57L101.754 147.334V172.602ZM97.0397 174.5L100.986 172.144V148.666L97.0246 151.012L97.0397 174.5Z" fill="white"/>
<path d="M109.572 168.795L104.109 172.031V146.763L109.572 143.533V168.795ZM104.858 170.699L108.824 168.353V144.88L104.858 147.221V170.699Z" fill="white"/>
<path d="M24.118 170.884L18.6399 167.653V142.39L24.1079 145.621L24.118 170.884ZM19.4031 167.211L23.3648 169.572V146.063L19.4031 143.723V167.211Z" fill="white"/>
<path d="M55.987 188.477L50.524 185.247V159.978L55.987 163.214V188.477ZM51.2772 184.799L55.2439 187.145V163.656L51.2772 161.311V184.799Z" fill="white"/>
<path d="M48.7666 184.038L43.2987 180.802V155.539L48.7666 158.769V184.038ZM44.0669 180.375L48.0285 182.721V159.212L44.0669 156.871V180.375Z" fill="white"/>
<path d="M39.3876 188.804L27.3948 181.836V158.754L39.7562 164.83L39.3876 188.804Z" stroke="white"/>
<path d="M26.8997 147.776L41.3857 155.21V162.37L26.8997 155.169V147.776ZM26.2721 146.748V155.549L42.0133 163.399V154.814L26.2721 146.737V146.748Z" fill="white"/>
</g>
<defs>
<clipPath id="clip0">
<rect width="119" height="217" fill="white"/>
</clipPath>
</defs>
</svg>
