<svg width="119" height="220" viewBox="0 0 119 217" fill="none" xmlns="http://www.w3.org/2000/svg">
<path d="M25.5593 63.1789L13.8526 56.9376V45.4429L25.5593 51.6842V63.1789Z" fill="#565656"/>
<path d="M25.0471 62.2218L12.6422 55.7181V43.3694L25.0471 49.9502V62.2218ZM13.3804 55.2551L24.3239 61.095V50.4802L13.3804 44.6403V55.2551Z" fill="white"/>
<path d="M23.8719 60.3592L15.1533 55.7027V47.5885L23.8719 52.2399V60.3592Z" fill="#F7971D"/>
<path d="M23.4048 59.5411L14.2996 54.6839V46.1633L23.4048 51.0205V59.5411ZM14.9123 54.3958L22.6615 58.4709L22.7118 51.3961L14.8872 47.1512L14.9123 54.3958Z" fill="white"/>
<path d="M41.0579 71.5863L29.3561 65.345V53.8503L41.0579 60.0916V71.5863Z" fill="#565656"/>
<path d="M40.5507 70.6292L28.1458 64.1307V51.7819L40.5507 58.3628V70.6292ZM28.8841 63.6625L39.8275 69.5024V58.8927L28.8841 53.0477V63.6625Z" fill="white"/>
<path d="M39.3754 68.7666L30.6569 64.1101V55.996L39.3754 60.6473V68.7666Z" fill="#F7971D"/>
<path d="M38.9035 67.9485L29.8032 63.1016V54.5707L38.9035 59.4279V67.9485ZM30.4159 62.8289L38.1652 66.8525L38.2154 59.7778L30.3908 55.5432L30.4159 62.8289Z" fill="white"/>
<path d="M56.6419 79.9372L44.9351 73.6959V62.2014L56.6419 68.4426V79.9372Z" fill="#565656"/>
<path d="M56.1296 78.9801L43.7549 72.4764V60.1277L56.1296 66.7034V78.9801ZM44.463 72.0134L55.4114 77.8533V67.2437L44.463 61.3986V72.0134Z" fill="white"/>
<path d="M54.9595 77.1175L46.2358 72.461V64.3468L54.9595 69.0033V77.1175Z" fill="#F7971D"/>
<path d="M54.4874 76.2995L45.3871 71.4423V62.9269L54.4874 67.784V76.2995ZM45.9948 71.1542L53.7441 75.1778L53.7943 68.103L45.9747 63.8685L45.9948 71.1542Z" fill="white"/>
<path d="M81.6625 73.3563L69.2577 79.9372V67.5884L81.6625 61.0847V73.3563ZM69.996 78.6766L80.9193 72.8366V62.2218L69.9759 68.0618L69.996 78.6766Z" fill="#FFBE2E"/>
<path d="M80.0203 72.2963L70.915 77.1535V68.6328L80.0203 63.7756V72.2963ZM71.4826 76.181L79.3071 71.9464L79.2569 64.8716L71.5077 68.8952L71.4826 76.181Z" fill="#FFBE2E"/>
<path d="M95.3582 66.0191L82.9533 72.6V60.2511L95.3582 53.7474V66.0191ZM83.6916 71.3342L94.635 65.4891V54.8691L83.6916 60.7091V71.3342Z" fill="#FFBE2E"/>
<path d="M93.7159 64.9591L84.6156 69.8162V61.2956L93.7159 56.4385V64.9591ZM85.1781 68.8438L93.0027 64.6092L92.9525 57.5344L85.2233 61.558L85.1781 68.8438Z" fill="#FFBE2E"/>
<path d="M108.773 59.2787L96.3677 65.8595V53.5108L108.773 47.0123V59.2787ZM97.1059 64.5938L108.039 58.7539V48.1391L97.0959 53.9842L97.1059 64.5938Z" fill="#FFBE2E"/>
<path d="M107.125 58.2136L98.025 63.0708V54.5502L107.125 49.693V58.2136ZM98.5875 62.1035L106.412 57.8689L106.362 50.7889L98.6126 54.8177L98.5875 62.1035Z" fill="#FFBE2E"/>
<path d="M82.0895 110.799L69.6896 117.38V105.031L82.0895 98.5272V110.799ZM70.4228 116.098L81.3713 110.258V99.6643L70.4228 105.504V116.098Z" fill="#FFBE2E"/>
<path d="M80.4472 109.739L71.3469 114.596V106.075L80.4472 101.218V109.739ZM71.9345 113.623L79.7592 109.409L79.7039 102.335L71.9546 106.322L71.9345 113.623Z" fill="#FFBE2E"/>
<path d="M95.7851 103.461L83.3852 110.042V97.6936L95.7851 91.1899V103.461ZM84.1184 108.782L95.0669 102.937V92.3271L84.1184 98.167V108.782Z" fill="#FFBE2E"/>
<path d="M94.1428 102.402L85.0425 107.259V98.7382L94.1428 93.881V102.402ZM85.605 106.286L93.4749 102.052L93.3995 95.0027L85.6502 99.0263L85.605 106.286Z" fill="#FFBE2E"/>
<path d="M109.199 96.7211L96.7946 103.302V90.9532L109.199 84.4547V96.7211ZM97.5328 102.036L108.476 96.1963V85.5815L97.5328 91.4266V102.036Z" fill="#FFBE2E"/>
<path d="M107.537 95.6561L98.4317 100.513V91.9926L107.537 87.1354V95.6561ZM98.9992 99.546L106.824 95.3114L106.774 88.2314L99.0243 92.2602L98.9992 99.546Z" fill="#FFBE2E"/>
<path d="M82.2402 127.778L69.8352 134.354V122.005L82.2402 115.501V127.778ZM70.5735 133.078L81.5169 127.238V116.639L70.5735 122.479V133.078Z" fill="#FFBE2E"/>
<path d="M80.5979 126.713L71.4926 131.57V123.05L80.5979 118.193V126.713ZM72.0601 130.598L79.9149 126.389L79.8647 119.314L72.1053 123.302L72.0601 130.598Z" fill="#FFBE2E"/>
<path d="M95.9358 120.436L83.5308 127.017V114.668L95.9358 108.164V120.436ZM84.2691 125.756L95.2126 119.911V109.301L84.2691 115.141V125.756Z" fill="#FFBE2E"/>
<path d="M94.2934 119.376L85.1882 124.233V115.712L94.2934 110.855V119.376ZM85.7557 123.261L93.5803 119.026L93.5301 111.951L85.7808 115.975L85.7557 123.261Z" fill="#FFBE2E"/>
<path d="M109.345 113.695L96.9452 120.276V107.928L109.345 101.434V113.695ZM97.6835 119.011L108.627 113.171V102.556L97.6835 108.38V119.011Z" fill="#FFBE2E"/>
<path d="M107.703 112.63L98.6025 117.488V108.967L107.703 104.11V112.63ZM99.165 116.52L107.035 112.286L106.985 105.211L99.2303 109.235L99.165 116.52Z" fill="#FFBE2E"/>
<path d="M82.0493 153.767L69.6495 160.348V138.697L82.0543 132.198L82.0493 153.767ZM70.3727 159.082L81.316 153.242V133.32L70.3727 139.165V159.082Z" fill="#FFBE2E"/>
<path d="M80.417 152.702L71.3168 157.559V139.736L80.417 134.874V152.702ZM71.8793 156.592L79.6989 152.352L79.6436 135.975L71.8944 139.998L71.8793 156.592Z" fill="#FFBE2E"/>
<path d="M96.1165 145.89L83.7167 152.471V130.819L96.1114 124.331L96.1165 145.89ZM84.4348 151.205L95.3782 145.365V125.442L84.4348 131.287V151.205Z" fill="#FFBE2E"/>
<path d="M94.4793 144.825L85.379 149.682V131.853L94.4793 126.996V144.825ZM85.9415 148.709L93.7662 144.475L93.7059 128.092L85.9566 132.116L85.9415 148.709Z" fill="#FFBE2E"/>
<path d="M109.601 139.149L97.1963 145.73V124.084L109.596 117.58L109.601 139.149ZM97.9346 144.464L108.878 138.625V118.707L97.9295 124.547L97.9346 144.464Z" fill="#FFBE2E"/>
<path d="M107.954 138.084L98.8536 142.941V125.118L107.954 120.261V138.084ZM99.4161 141.974L107.241 137.739L107.181 121.357L99.4563 125.36L99.4161 141.974Z" fill="#FFBE2E"/>
<path d="M56.1196 97.1121L13.8024 75.2034V63.7089L56.1196 85.6175V97.1121Z" fill="#565656"/>
<path d="M55.6073 96.1551L12.617 73.984V61.6353L55.6274 83.8836L55.6073 96.1551ZM13.3302 73.5158L54.8841 95.0232V84.4135L13.3302 62.9061V73.5158Z" fill="white"/>
<path d="M54.4371 94.2925L15.1031 73.9685V65.8544L54.4371 86.1732V94.2925Z" fill="#F7971D"/>
<path d="M53.965 93.459L14.2543 72.9497V64.4291L53.965 84.9538V93.459ZM14.862 72.6719L53.2217 92.3631L53.2719 85.2882L14.8419 65.4015L14.862 72.6719Z" fill="white"/>
<path d="M109.24 77.6527L69.6293 98.0898V85.7411L109.24 65.3605V77.6527ZM70.3726 96.8447L108.541 77.1278V66.5131L70.3726 86.2556V96.8447Z" fill="#FFBE2E"/>
<path d="M107.597 76.5875L71.2867 95.3216V86.801L107.597 68.0669V76.5875ZM71.8794 94.3491L106.914 76.2376L106.864 69.1628L71.8794 87.0634V94.3491Z" fill="#FFBE2E"/>
<path d="M25.268 98.7844L13.5612 92.5431V81.0485L25.268 87.2846V98.7844Z" fill="#565656"/>
<path d="M24.7608 97.8274L12.3559 91.3237V78.9749L24.7608 85.5557V97.8274ZM13.1193 90.8554L24.0376 96.7006V86.0857L13.1193 80.2458V90.8554Z" fill="white"/>
<path d="M23.5857 95.9596L14.8671 91.3083V83.189L23.5857 87.8455V95.9596Z" fill="#F7971D"/>
<path d="M23.1135 95.1467L14.0132 90.2895V81.7689L23.1135 86.6261V95.1467ZM14.626 90.0271L22.3803 94.0507L22.4305 86.9759L14.626 82.7362V90.0271Z" fill="white"/>
<path d="M40.7716 107.192L29.0649 100.951V89.4559L40.7716 95.6972V107.192Z" fill="#565656"/>
<path d="M40.2393 106.235L27.8596 99.7311V87.3823L40.2393 93.9735V106.235ZM28.5928 99.2629L39.5412 105.108V94.488L28.5928 88.6481V99.2629Z" fill="white"/>
<path d="M39.0892 104.372L30.3706 99.7156V91.5963L39.0892 96.2528V104.372Z" fill="#F7971D"/>
<path d="M38.6171 103.554L29.5168 98.6969V90.1762L38.6171 95.0334V103.554ZM30.1245 98.4087L37.8789 102.432L37.9291 95.3576L30.1044 91.123L30.1245 98.4087Z" fill="white"/>
<path d="M56.3556 115.543L44.6488 109.301V97.8067L56.3556 104.048V115.543Z" fill="#565656"/>
<path d="M55.8433 114.586L43.4384 108.082V95.7333L55.8433 102.314V114.586ZM44.1767 107.619L55.1201 113.459V102.849L44.1767 97.0042V107.619Z" fill="white"/>
<path d="M54.6681 112.723L45.9496 108.067V99.9523L54.6681 104.604V112.723Z" fill="#F7971D"/>
<path d="M54.201 111.905L45.0958 107.048V98.5272L54.201 103.384V111.905ZM45.7085 106.785L53.4577 110.809L53.508 103.734L45.6834 99.4996L45.7085 106.785Z" fill="white"/>
<path d="M25.268 115.651L13.5612 109.409V97.9148L25.268 104.156V115.651Z" fill="#565656"/>
<path d="M24.7608 114.694L12.3559 108.19V95.8412L24.7608 102.422V114.694ZM13.1193 107.727L24.0627 113.567V102.952L13.1193 97.1121V107.727Z" fill="white"/>
<path d="M23.5857 112.831L14.8671 108.175V100.06L23.5857 104.712V112.831Z" fill="#F7971D"/>
<path d="M23.1135 112.013L14.0132 107.156V98.6353L23.1135 103.492V112.013ZM14.626 106.894L22.3803 110.917L22.4305 103.842L14.626 99.6334V106.894Z" fill="white"/>
<path d="M40.7716 124.058L29.0649 117.817V106.322L40.7716 112.564V124.058Z" fill="#565656"/>
<path d="M40.2393 123.101L27.8596 116.613V104.264L40.2393 110.84V123.101ZM28.5928 116.134L39.5412 121.974V111.365L28.5928 105.52V116.134Z" fill="white"/>
<path d="M39.0892 121.239L30.3706 116.582V108.468L39.0892 113.119V121.239Z" fill="#F7971D"/>
<path d="M38.6171 120.42L29.5168 115.584V107.043L38.6171 111.9V120.42ZM30.1245 115.275L37.8789 119.299L37.9291 112.224L30.1044 107.989L30.1245 115.275Z" fill="white"/>
<path d="M56.3556 132.409L44.6488 126.168V114.673L56.3556 120.914V132.409Z" fill="#565656"/>
<path d="M55.8433 131.452L43.4384 124.953V112.605L55.8433 119.186V131.452ZM44.1767 124.485L55.1201 130.325V119.7L44.1767 113.871V124.485Z" fill="white"/>
<path d="M54.6681 129.589L45.9496 124.938V116.819L54.6681 121.475V129.589Z" fill="#F7971D"/>
<path d="M54.201 128.771L45.0958 123.914V115.399L54.201 120.256V128.771ZM45.7085 123.652L53.4577 127.675L53.508 120.6L45.6834 116.366L45.7085 123.652Z" fill="white"/>
<path d="M25.268 142.941L13.5612 136.7V115.239L25.268 121.48V142.941Z" fill="#565656"/>
<path d="M24.7608 141.984L12.3559 135.481V113.171L24.7608 119.752V141.984ZM13.1193 135.012L24.0627 140.858V120.276L13.1193 114.437V135.012Z" fill="white"/>
<path d="M23.5857 140.117L14.8671 135.465V117.385L23.5857 122.036V140.117Z" fill="#F7971D"/>
<path d="M23.1135 139.304L14.0132 134.447V115.959L23.1135 120.817V139.304ZM14.626 134.184L22.3753 138.223L22.4255 121.182L14.626 116.932V134.184Z" fill="white"/>
<path d="M40.0032 151.004L28.2965 144.763V123.302L40.0032 129.543V151.004Z" fill="#565656"/>
<path d="M39.491 150.057L27.0861 143.554V121.244L39.491 127.824V150.057ZM27.8244 143.08L38.7678 148.92V128.339L27.8244 122.499V143.08Z" fill="white"/>
<path d="M38.3158 148.185L29.5972 143.528V125.448L38.3158 130.104V148.185Z" fill="#F7971D"/>
<path d="M37.8487 147.366L28.7434 142.509V124.027L37.8487 128.885V147.366ZM29.3561 142.247L37.1054 146.27L37.1556 129.229L29.331 124.995L29.3561 142.247Z" fill="white"/>
<path d="M55.5319 159.355L43.8251 153.114V131.653L55.5319 137.894V159.355Z" fill="#565656"/>
<path d="M55.0197 158.398L42.6198 151.899V129.589L55.0197 136.165V158.398ZM43.3531 151.431L54.3015 157.261V136.68L43.3531 130.855V151.431Z" fill="white"/>
<path d="M53.8495 156.535L45.126 151.884V133.798L53.8495 138.455V156.535Z" fill="#F7971D"/>
<path d="M53.3774 155.717L44.2571 150.86V132.378L53.3573 137.235L53.3774 155.717ZM44.8849 150.572L52.6341 154.596L52.6844 137.554L44.8648 133.32L44.8849 150.572Z" fill="white"/>
<path d="M63.5223 63.6161L63.4269 63.5647L61.5486 0.874321L7.09265 31.494L6.93696 31.7719L63.5374 63.1582V63.5132H63.7282L61.4632 0.328918L110.892 35.6823L111.801 36.2946L111.7 36.4695L63.5223 63.6161ZM6.8114 32.1115L61.5184 0.431825L63.5273 63.2045L111.238 36.3409L61.7947 0.874321L63.5223 63.6161L6.8114 32.1115Z" fill="white"/>
<path d="M63.7182 203.898L63.4319 203.733L6.53015 170.474L6.8114 31.6536L7.2634 31.4014L61.5184 0.431824L63.7182 63.2869V203.898ZM6.92188 170.237L63.3415 203.219V63.5287L61.2322 0.87432L7.25335 31.8542L6.92188 170.237Z" fill="white"/>
<path d="M63.3415 203.826V63.2869H63.5424L111.505 36.2277L111.801 36.2946L111.841 176.618L111.741 176.674L63.3415 203.826ZM63.7332 63.5287V203.152L111.444 176.396L111.404 36.6496L63.7332 63.5287Z" fill="white"/>
<path d="M22.0288 190.428C22.4504 190.428 22.7922 190.225 22.7922 189.975C22.7922 189.725 22.4504 189.522 22.0288 189.522C21.6072 189.522 21.2654 189.725 21.2654 189.975C21.2654 190.225 21.6072 190.428 22.0288 190.428Z" fill="white"/>
<path d="M25.3936 187.983C25.4574 188.007 25.5126 188.051 25.5516 188.108C25.5905 188.165 25.6114 188.233 25.6114 188.302C25.6114 188.372 25.5905 188.44 25.5516 188.497C25.5126 188.554 25.4574 188.598 25.3936 188.621C25.2268 188.71 25.0417 188.757 24.8537 188.757C24.6657 188.757 24.4806 188.71 24.3138 188.621C24.2476 188.6 24.1897 188.558 24.1486 188.5C24.1075 188.443 24.0854 188.374 24.0854 188.302C24.0854 188.231 24.1075 188.162 24.1486 188.105C24.1897 188.047 24.2476 188.005 24.3138 187.983C24.4813 187.897 24.6662 187.852 24.8537 187.852C25.0412 187.852 25.2261 187.897 25.3936 187.983Z" fill="white"/>
<path d="M19.8591 191.06C19.923 191.084 19.9781 191.128 20.0171 191.185C20.056 191.242 20.0769 191.31 20.0769 191.379C20.0769 191.449 20.056 191.517 20.0171 191.574C19.9781 191.631 19.923 191.675 19.8591 191.698C19.6908 191.785 19.505 191.83 19.3167 191.83C19.1284 191.83 18.9426 191.785 18.7743 191.698C18.7104 191.675 18.6553 191.631 18.6163 191.574C18.5774 191.517 18.5565 191.449 18.5565 191.379C18.5565 191.31 18.5774 191.242 18.6163 191.185C18.6553 191.128 18.7104 191.084 18.7743 191.06C18.9419 190.972 19.1279 190.925 19.3167 190.925C19.5055 190.925 19.6915 190.972 19.8591 191.06Z" fill="white"/>
<path d="M16.4842 190.438C16.9058 190.438 17.2476 190.235 17.2476 189.985C17.2476 189.735 16.9058 189.532 16.4842 189.532C16.0626 189.532 15.7208 189.735 15.7208 189.985C15.7208 190.235 16.0626 190.438 16.4842 190.438Z" fill="white"/>
<path d="M19.854 187.994C19.9179 188.018 19.9731 188.061 20.012 188.118C20.051 188.175 20.0719 188.243 20.0719 188.313C20.0719 188.382 20.051 188.45 20.012 188.507C19.9731 188.565 19.9179 188.608 19.854 188.632C19.6857 188.718 19.5 188.763 19.3116 188.763C19.1233 188.763 18.9376 188.718 18.7692 188.632C18.7054 188.608 18.6502 188.565 18.6113 188.507C18.5723 188.45 18.5514 188.382 18.5514 188.313C18.5514 188.243 18.5723 188.175 18.6113 188.118C18.6502 188.061 18.7054 188.018 18.7692 187.994C18.9369 187.905 19.1229 187.858 19.3116 187.858C19.5004 187.858 19.6864 187.905 19.854 187.994Z" fill="white"/>
<path d="M22.6615 186.322C22.7278 186.343 22.7857 186.385 22.8267 186.443C22.8678 186.5 22.8899 186.569 22.8899 186.641C22.8899 186.712 22.8678 186.781 22.8267 186.838C22.7857 186.896 22.7278 186.938 22.6615 186.96C22.4941 187.046 22.3092 187.091 22.1217 187.091C21.9342 187.091 21.7493 187.046 21.5818 186.96C21.518 186.936 21.4628 186.892 21.4239 186.835C21.3849 186.778 21.364 186.71 21.364 186.641C21.364 186.571 21.3849 186.503 21.4239 186.446C21.4628 186.389 21.518 186.345 21.5818 186.322C21.7493 186.235 21.9342 186.19 22.1217 186.19C22.3092 186.19 22.4941 186.235 22.6615 186.322Z" fill="white"/>
<path d="M14.199 187.994C14.2653 188.015 14.3232 188.058 14.3642 188.115C14.4053 188.172 14.4275 188.242 14.4275 188.313C14.4275 188.384 14.4053 188.453 14.3642 188.511C14.3232 188.568 14.2653 188.61 14.199 188.632C14.0327 188.721 13.8485 188.768 13.6609 188.771C13.4734 188.774 13.2879 188.731 13.1193 188.647C13.0554 188.623 13.0003 188.58 12.9613 188.523C12.9223 188.466 12.9014 188.398 12.9014 188.328C12.9014 188.259 12.9223 188.191 12.9613 188.134C13.0003 188.077 13.0554 188.033 13.1193 188.009C13.2848 187.918 13.4694 187.869 13.6573 187.866C13.8453 187.864 14.0311 187.907 14.199 187.994Z" fill="white"/>
<path d="M17.0266 186.322C17.0904 186.345 17.1456 186.389 17.1846 186.446C17.2235 186.503 17.2444 186.571 17.2444 186.641C17.2444 186.71 17.2235 186.778 17.1846 186.835C17.1456 186.892 17.0904 186.936 17.0266 186.96C16.8591 187.046 16.6742 187.091 16.4867 187.091C16.2992 187.091 16.1143 187.046 15.9468 186.96C15.8806 186.938 15.8227 186.896 15.7816 186.838C15.7405 186.781 15.7184 186.712 15.7184 186.641C15.7184 186.569 15.7405 186.5 15.7816 186.443C15.8227 186.385 15.8806 186.343 15.9468 186.322C16.1143 186.235 16.2992 186.19 16.4867 186.19C16.6742 186.19 16.8591 186.235 17.0266 186.322Z" fill="white"/>
<path d="M19.854 184.649C19.9179 184.673 19.9731 184.717 20.012 184.774C20.051 184.831 20.0719 184.899 20.0719 184.968C20.0719 185.038 20.051 185.106 20.012 185.163C19.9731 185.22 19.9179 185.263 19.854 185.287C19.6864 185.376 19.5004 185.423 19.3116 185.423C19.1229 185.423 18.9369 185.376 18.7692 185.287C18.7054 185.263 18.6502 185.22 18.6113 185.163C18.5723 185.106 18.5514 185.038 18.5514 184.968C18.5514 184.899 18.5723 184.831 18.6113 184.774C18.6502 184.717 18.7054 184.673 18.7692 184.649C18.9376 184.563 19.1233 184.518 19.3116 184.518C19.5 184.518 19.6857 184.563 19.854 184.649Z" fill="white"/>
<path d="M11.3766 186.322C11.4405 186.345 11.4956 186.389 11.5346 186.446C11.5736 186.503 11.5945 186.571 11.5945 186.641C11.5945 186.71 11.5736 186.778 11.5346 186.835C11.4956 186.892 11.4405 186.936 11.3766 186.96C11.2083 187.046 11.0225 187.091 10.8342 187.091C10.6459 187.091 10.4602 187.046 10.2918 186.96C10.228 186.936 10.1728 186.892 10.1338 186.835C10.0949 186.778 10.074 186.71 10.074 186.641C10.074 186.571 10.0949 186.503 10.1338 186.446C10.1728 186.389 10.228 186.345 10.2918 186.322C10.4602 186.235 10.6459 186.19 10.8342 186.19C11.0225 186.19 11.2083 186.235 11.3766 186.322Z" fill="white"/>
<path d="M14.199 184.649C14.2653 184.671 14.3232 184.713 14.3642 184.771C14.4053 184.828 14.4275 184.897 14.4275 184.968C14.4275 185.04 14.4053 185.109 14.3642 185.166C14.3232 185.224 14.2653 185.266 14.199 185.287C14.0323 185.376 13.8471 185.423 13.6592 185.423C13.4712 185.423 13.286 185.376 13.1193 185.287C13.0554 185.264 13.0003 185.22 12.9613 185.163C12.9223 185.106 12.9014 185.038 12.9014 184.968C12.9014 184.899 12.9223 184.831 12.9613 184.774C13.0003 184.717 13.0554 184.673 13.1193 184.649C13.2867 184.563 13.4716 184.518 13.6592 184.518C13.8467 184.518 14.0316 184.563 14.199 184.649Z" fill="white"/>
<path d="M17.0266 182.987C17.0904 183.011 17.1456 183.055 17.1846 183.112C17.2235 183.169 17.2444 183.237 17.2444 183.306C17.2444 183.376 17.2235 183.444 17.1846 183.501C17.1456 183.558 17.0904 183.602 17.0266 183.625C16.8598 183.714 16.6746 183.761 16.4867 183.761C16.2987 183.761 16.1136 183.714 15.9468 183.625C15.8806 183.604 15.8227 183.562 15.7816 183.504C15.7405 183.447 15.7184 183.378 15.7184 183.306C15.7184 183.235 15.7405 183.166 15.7816 183.109C15.8227 183.051 15.8806 183.009 15.9468 182.987C16.1143 182.901 16.2992 182.856 16.4867 182.856C16.6742 182.856 16.8591 182.901 17.0266 182.987Z" fill="white"/>
<path d="M7.9816 185.406C8.40321 185.406 8.745 185.203 8.745 184.953C8.745 184.703 8.40321 184.5 7.9816 184.5C7.55999 184.5 7.2182 184.703 7.2182 184.953C7.2182 185.203 7.55999 185.406 7.9816 185.406Z" fill="white"/>
<path d="M11.3515 182.987C11.4153 183.011 11.4705 183.055 11.5094 183.112C11.5484 183.169 11.5693 183.237 11.5693 183.306C11.5693 183.376 11.5484 183.444 11.5094 183.501C11.4705 183.558 11.4153 183.602 11.3515 183.625C11.184 183.712 10.9991 183.757 10.8116 183.757C10.6241 183.757 10.4392 183.712 10.2717 183.625C10.2054 183.604 10.1476 183.562 10.1065 183.504C10.0654 183.447 10.0433 183.378 10.0433 183.306C10.0433 183.235 10.0654 183.166 10.1065 183.109C10.1476 183.051 10.2054 183.009 10.2717 182.987C10.4384 182.899 10.6236 182.852 10.8116 182.852C10.9995 182.852 11.1847 182.899 11.3515 182.987Z" fill="white"/>
<path d="M14.174 181.289C14.2403 181.311 14.2981 181.353 14.3392 181.411C14.3803 181.468 14.4024 181.537 14.4024 181.608C14.4024 181.68 14.3803 181.749 14.3392 181.806C14.2981 181.864 14.2403 181.906 14.174 181.927C14.0065 182.014 13.8216 182.059 13.6341 182.059C13.4466 182.059 13.2617 182.014 13.0942 181.927C13.0304 181.904 12.9752 181.86 12.9363 181.803C12.8973 181.746 12.8764 181.678 12.8764 181.608C12.8764 181.539 12.8973 181.471 12.9363 181.414C12.9752 181.357 13.0304 181.313 13.0942 181.289C13.2617 181.203 13.4466 181.158 13.6341 181.158C13.8216 181.158 14.0065 181.203 14.174 181.289Z" fill="white"/>
<path d="M5.15909 183.733C5.5807 183.733 5.92249 183.531 5.92249 183.281C5.92249 183.031 5.5807 182.828 5.15909 182.828C4.73748 182.828 4.39569 183.031 4.39569 183.281C4.39569 183.531 4.73748 183.733 5.15909 183.733Z" fill="white"/>
<path d="M8.52398 181.289C8.59023 181.311 8.64809 181.353 8.68917 181.411C8.73025 181.468 8.7524 181.537 8.7524 181.608C8.7524 181.68 8.73025 181.749 8.68917 181.806C8.64809 181.864 8.59023 181.906 8.52398 181.927C8.3565 182.014 8.1716 182.059 7.98408 182.059C7.79656 182.059 7.61166 182.014 7.44418 181.927C7.37793 181.906 7.32007 181.864 7.27899 181.806C7.23791 181.749 7.21576 181.68 7.21576 181.608C7.21576 181.537 7.23791 181.468 7.27899 181.411C7.32007 181.353 7.37793 181.311 7.44418 181.289C7.61166 181.203 7.79656 181.158 7.98408 181.158C8.1716 181.158 8.3565 181.203 8.52398 181.289Z" fill="white"/>
<path d="M10.8091 180.389C11.2307 180.389 11.5725 180.186 11.5725 179.936C11.5725 179.686 11.2307 179.484 10.8091 179.484C10.3874 179.484 10.0457 179.686 10.0457 179.936C10.0457 180.186 10.3874 180.389 10.8091 180.389Z" fill="white"/>
<path d="M2.874 181.289C2.93786 181.313 2.993 181.357 3.03197 181.414C3.07093 181.471 3.09183 181.539 3.09183 181.608C3.09183 181.678 3.07093 181.746 3.03197 181.803C2.993 181.86 2.93786 181.904 2.874 181.927C2.70653 182.014 2.52162 182.059 2.33411 182.059C2.14659 182.059 1.96169 182.014 1.79421 181.927C1.72797 181.906 1.6701 181.864 1.62902 181.806C1.58794 181.749 1.5658 181.68 1.5658 181.608C1.5658 181.537 1.58794 181.468 1.62902 181.411C1.6701 181.353 1.72797 181.311 1.79421 181.289C1.96169 181.203 2.14659 181.158 2.33411 181.158C2.52162 181.158 2.70653 181.203 2.874 181.289Z" fill="white"/>
<path d="M5.69646 179.617C5.7627 179.639 5.82056 179.681 5.86164 179.738C5.90272 179.796 5.92486 179.865 5.92486 179.936C5.92486 180.007 5.90272 180.077 5.86164 180.134C5.82056 180.191 5.7627 180.234 5.69646 180.255C5.52972 180.344 5.34454 180.391 5.1566 180.391C4.96866 180.391 4.78348 180.344 4.61674 180.255C4.55289 180.231 4.49775 180.188 4.45878 180.131C4.41982 180.074 4.39893 180.006 4.39893 179.936C4.39893 179.867 4.41982 179.799 4.45878 179.742C4.49775 179.685 4.55289 179.641 4.61674 179.617C4.78421 179.531 4.9691 179.486 5.1566 179.486C5.3441 179.486 5.529 179.531 5.69646 179.617Z" fill="white"/>
<path d="M8.52397 177.945C8.8253 178.125 8.8253 178.408 8.52397 178.583C8.35722 178.672 8.17203 178.718 7.98408 178.718C7.79613 178.718 7.61095 178.672 7.4442 178.583C7.14287 178.408 7.14287 178.125 7.4442 177.945C7.61167 177.859 7.79657 177.814 7.98408 177.814C8.17159 177.814 8.3565 177.859 8.52397 177.945Z" fill="white"/>
<path d="M2.87398 177.945C3.1703 178.125 3.1703 178.408 2.87398 178.583C2.70722 178.672 2.52203 178.718 2.33408 178.718C2.14612 178.718 1.96094 178.672 1.79418 178.583C1.49284 178.408 1.49284 178.125 1.79418 177.945C1.96166 177.859 2.14656 177.814 2.33408 177.814C2.5216 177.814 2.7065 177.859 2.87398 177.945Z" fill="white"/>
<path d="M5.15909 177.045C5.5807 177.045 5.92249 176.842 5.92249 176.592C5.92249 176.342 5.5807 176.139 5.15909 176.139C4.73748 176.139 4.39569 176.342 4.39569 176.592C4.39569 176.842 4.73748 177.045 5.15909 177.045Z" fill="white"/>
<path d="M67.9419 216.164C68.0074 216.187 68.0644 216.23 68.1048 216.288C68.1451 216.346 68.1668 216.415 68.1668 216.486C68.1668 216.557 68.1451 216.626 68.1048 216.684C68.0644 216.741 68.0074 216.785 67.9419 216.808C67.7735 216.894 67.5878 216.939 67.3994 216.939C67.2111 216.939 67.0254 216.894 66.857 216.808C66.7914 216.785 66.7345 216.741 66.6941 216.684C66.6538 216.626 66.6321 216.557 66.6321 216.486C66.6321 216.415 66.6538 216.346 66.6941 216.288C66.7345 216.23 66.7914 216.187 66.857 216.164C67.0254 216.078 67.2111 216.033 67.3994 216.033C67.5878 216.033 67.7735 216.078 67.9419 216.164Z" fill="white"/>
<path d="M70.7644 214.497C71.0657 214.672 71.0657 214.955 70.7644 215.135C70.5969 215.222 70.412 215.267 70.2245 215.267C70.037 215.267 69.8521 215.222 69.6846 215.135C69.3883 214.955 69.3883 214.672 69.6846 214.497C69.8513 214.408 70.0365 214.362 70.2245 214.362C70.4124 214.362 70.5976 214.408 70.7644 214.497Z" fill="white"/>
<path d="M73.5919 212.83C73.6558 212.854 73.7109 212.898 73.7499 212.955C73.7888 213.012 73.8097 213.08 73.8097 213.149C73.8097 213.219 73.7888 213.287 73.7499 213.344C73.7109 213.401 73.6558 213.444 73.5919 213.468C73.4244 213.555 73.2395 213.6 73.052 213.6C72.8645 213.6 72.6796 213.555 72.5121 213.468C72.4459 213.447 72.388 213.404 72.3469 213.347C72.3058 213.29 72.2837 213.22 72.2837 213.149C72.2837 213.078 72.3058 213.009 72.3469 212.951C72.388 212.894 72.4459 212.852 72.5121 212.83C72.6789 212.741 72.8641 212.695 73.052 212.695C73.24 212.695 73.4252 212.741 73.5919 212.83Z" fill="white"/>
<path d="M76.3993 211.153C76.4632 211.177 76.5183 211.22 76.5573 211.277C76.5962 211.334 76.6171 211.402 76.6171 211.472C76.6171 211.541 76.5962 211.609 76.5573 211.666C76.5183 211.724 76.4632 211.767 76.3993 211.791C76.231 211.877 76.0453 211.922 75.8569 211.922C75.6686 211.922 75.4829 211.877 75.3146 211.791C75.2507 211.767 75.1956 211.724 75.1566 211.666C75.1176 211.609 75.0967 211.541 75.0967 211.472C75.0967 211.402 75.1176 211.334 75.1566 211.277C75.1956 211.22 75.2507 211.177 75.3146 211.153C75.4829 211.066 75.6686 211.021 75.8569 211.021C76.0453 211.021 76.231 211.066 76.3993 211.153Z" fill="white"/>
<path d="M78.7045 210.252C79.1261 210.252 79.4679 210.05 79.4679 209.8C79.4679 209.55 79.1261 209.347 78.7045 209.347C78.2829 209.347 77.9412 209.55 77.9412 209.8C77.9412 210.05 78.2829 210.252 78.7045 210.252Z" fill="white"/>
<path d="M82.0694 207.808C82.1332 207.832 82.1884 207.876 82.2273 207.933C82.2663 207.99 82.2872 208.058 82.2872 208.127C82.2872 208.197 82.2663 208.265 82.2273 208.322C82.1884 208.379 82.1332 208.423 82.0694 208.446C81.9026 208.535 81.7174 208.582 81.5295 208.582C81.3415 208.582 81.1563 208.535 80.9896 208.446C80.9233 208.425 80.8655 208.383 80.8244 208.325C80.7833 208.268 80.7612 208.199 80.7612 208.127C80.7612 208.056 80.7833 207.987 80.8244 207.93C80.8655 207.872 80.9233 207.83 80.9896 207.808C81.1571 207.722 81.342 207.677 81.5295 207.677C81.717 207.677 81.9019 207.722 82.0694 207.808Z" fill="white"/>
<path d="M84.8969 206.141C84.9625 206.164 85.0194 206.207 85.0598 206.265C85.1001 206.323 85.1218 206.392 85.1218 206.463C85.1218 206.534 85.1001 206.603 85.0598 206.661C85.0194 206.718 84.9625 206.762 84.8969 206.784C84.7285 206.871 84.5428 206.916 84.3545 206.916C84.1661 206.916 83.9804 206.871 83.8121 206.784C83.7465 206.762 83.6895 206.718 83.6491 206.661C83.6088 206.603 83.5871 206.534 83.5871 206.463C83.5871 206.392 83.6088 206.323 83.6491 206.265C83.6895 206.207 83.7465 206.164 83.8121 206.141C83.9804 206.055 84.1661 206.01 84.3545 206.01C84.5428 206.01 84.7285 206.055 84.8969 206.141Z" fill="white"/>
<path d="M87.7194 204.464C87.785 204.487 87.8419 204.53 87.8823 204.588C87.9226 204.645 87.9443 204.715 87.9443 204.785C87.9443 204.856 87.9226 204.926 87.8823 204.983C87.8419 205.041 87.785 205.084 87.7194 205.107C87.5519 205.193 87.367 205.238 87.1795 205.238C86.992 205.238 86.8071 205.193 86.6396 205.107C86.574 205.084 86.5171 205.041 86.4767 204.983C86.4364 204.926 86.4147 204.856 86.4147 204.785C86.4147 204.715 86.4364 204.645 86.4767 204.588C86.5171 204.53 86.574 204.487 86.6396 204.464C86.8071 204.378 86.992 204.333 87.1795 204.333C87.367 204.333 87.5519 204.378 87.7194 204.464Z" fill="white"/>
<path d="M90.0045 203.569C90.4261 203.569 90.7679 203.366 90.7679 203.116C90.7679 202.866 90.4261 202.663 90.0045 202.663C89.5829 202.663 89.2411 202.866 89.2411 203.116C89.2411 203.366 89.5829 203.569 90.0045 203.569Z" fill="white"/>
<path d="M92.832 201.896C93.2536 201.896 93.5954 201.694 93.5954 201.444C93.5954 201.194 93.2536 200.991 92.832 200.991C92.4104 200.991 92.0686 201.194 92.0686 201.444C92.0686 201.694 92.4104 201.896 92.832 201.896Z" fill="white"/>
<path d="M95.6595 200.224C96.0811 200.224 96.4229 200.021 96.4229 199.771C96.4229 199.521 96.0811 199.319 95.6595 199.319C95.2379 199.319 94.8962 199.521 94.8962 199.771C94.8962 200.021 95.2379 200.224 95.6595 200.224Z" fill="white"/>
<path d="M99.0244 197.78C99.0882 197.804 99.1434 197.847 99.1824 197.904C99.2213 197.962 99.2422 198.03 99.2422 198.099C99.2422 198.169 99.2213 198.237 99.1824 198.294C99.1434 198.351 99.0882 198.394 99.0244 198.418C98.8576 198.507 98.6724 198.553 98.4845 198.553C98.2965 198.553 98.1114 198.507 97.9446 198.418C97.8784 198.397 97.8205 198.354 97.7794 198.297C97.7383 198.24 97.7162 198.17 97.7162 198.099C97.7162 198.028 97.7383 197.959 97.7794 197.901C97.8205 197.844 97.8784 197.802 97.9446 197.78C98.1121 197.694 98.297 197.649 98.4845 197.649C98.672 197.649 98.8569 197.694 99.0244 197.78Z" fill="white"/>
<path d="M101.31 196.88C101.731 196.88 102.073 196.677 102.073 196.427C102.073 196.177 101.731 195.974 101.31 195.974C100.888 195.974 100.546 196.177 100.546 196.427C100.546 196.677 100.888 196.88 101.31 196.88Z" fill="white"/>
<path d="M104.674 194.436C104.74 194.459 104.797 194.502 104.837 194.559C104.878 194.617 104.899 194.686 104.899 194.757C104.899 194.828 104.878 194.897 104.837 194.955C104.797 195.013 104.74 195.056 104.674 195.079C104.507 195.165 104.322 195.21 104.135 195.21C103.947 195.21 103.762 195.165 103.595 195.079C103.529 195.056 103.472 195.013 103.432 194.955C103.391 194.897 103.37 194.828 103.37 194.757C103.37 194.686 103.391 194.617 103.432 194.559C103.472 194.502 103.529 194.459 103.595 194.436C103.762 194.349 103.947 194.304 104.135 194.304C104.322 194.304 104.507 194.349 104.674 194.436Z" fill="white"/>
<path d="M62.2868 216.164C62.3524 216.187 62.4094 216.23 62.4498 216.288C62.4901 216.346 62.5118 216.415 62.5118 216.486C62.5118 216.557 62.4901 216.626 62.4498 216.684C62.4094 216.741 62.3524 216.785 62.2868 216.807C62.1194 216.894 61.9345 216.939 61.7469 216.939C61.5594 216.939 61.3745 216.894 61.207 216.807C61.1414 216.785 61.0845 216.741 61.0441 216.684C61.0038 216.626 60.9821 216.557 60.9821 216.486C60.9821 216.415 61.0038 216.346 61.0441 216.288C61.0845 216.23 61.1414 216.187 61.207 216.164C61.3745 216.078 61.5594 216.033 61.7469 216.033C61.9345 216.033 62.1194 216.078 62.2868 216.164Z" fill="white"/>
<path d="M65.1144 214.497C65.4107 214.672 65.4107 214.955 65.1144 215.135C64.9469 215.222 64.762 215.267 64.5745 215.267C64.387 215.267 64.2021 215.222 64.0346 215.135C63.7333 214.955 63.7333 214.672 64.0346 214.497C64.2014 214.408 64.3865 214.362 64.5745 214.362C64.7624 214.362 64.9476 214.408 65.1144 214.497Z" fill="white"/>
<path d="M67.9418 212.83C68.0057 212.854 68.0608 212.897 68.0998 212.955C68.1387 213.012 68.1596 213.08 68.1596 213.149C68.1596 213.219 68.1387 213.287 68.0998 213.344C68.0608 213.401 68.0057 213.444 67.9418 213.468C67.7735 213.555 67.5877 213.6 67.3994 213.6C67.2111 213.6 67.0254 213.555 66.857 213.468C66.7932 213.444 66.738 213.401 66.6991 213.344C66.6601 213.287 66.6392 213.219 66.6392 213.149C66.6392 213.08 66.6601 213.012 66.6991 212.955C66.738 212.897 66.7932 212.854 66.857 212.83C67.0247 212.741 67.2107 212.695 67.3994 212.695C67.5882 212.695 67.7742 212.741 67.9418 212.83Z" fill="white"/>
<path d="M70.7644 211.153C70.8306 211.174 70.8885 211.217 70.9295 211.274C70.9706 211.331 70.9928 211.401 70.9928 211.472C70.9928 211.543 70.9706 211.612 70.9295 211.67C70.8885 211.727 70.8306 211.769 70.7644 211.791C70.5969 211.877 70.412 211.922 70.2245 211.922C70.0369 211.922 69.852 211.877 69.6846 211.791C69.6207 211.767 69.5656 211.724 69.5266 211.666C69.4876 211.609 69.4667 211.541 69.4667 211.472C69.4667 211.402 69.4876 211.334 69.5266 211.277C69.5656 211.22 69.6207 211.177 69.6846 211.153C69.852 211.066 70.0369 211.021 70.2245 211.021C70.412 211.021 70.5969 211.066 70.7644 211.153Z" fill="white"/>
<path d="M73.5919 209.481C73.6558 209.504 73.7109 209.548 73.7499 209.605C73.7888 209.662 73.8097 209.73 73.8097 209.8C73.8097 209.869 73.7888 209.937 73.7499 209.994C73.7109 210.051 73.6558 210.095 73.5919 210.119C73.4252 210.207 73.24 210.254 73.052 210.254C72.8641 210.254 72.6789 210.207 72.5121 210.119C72.4459 210.097 72.388 210.055 72.3469 209.997C72.3058 209.94 72.2837 209.871 72.2837 209.8C72.2837 209.728 72.3058 209.659 72.3469 209.602C72.388 209.544 72.4459 209.502 72.5121 209.481C72.6796 209.394 72.8645 209.349 73.052 209.349C73.2395 209.349 73.4244 209.394 73.5919 209.481Z" fill="white"/>
<path d="M76.3993 207.808C76.4632 207.832 76.5183 207.876 76.5573 207.933C76.5962 207.99 76.6171 208.058 76.6171 208.127C76.6171 208.197 76.5962 208.265 76.5573 208.322C76.5183 208.379 76.4632 208.423 76.3993 208.446C76.2317 208.535 76.0457 208.582 75.8569 208.582C75.6682 208.582 75.4822 208.535 75.3146 208.446C75.2507 208.423 75.1956 208.379 75.1566 208.322C75.1176 208.265 75.0967 208.197 75.0967 208.127C75.0967 208.058 75.1176 207.99 75.1566 207.933C75.1956 207.876 75.2507 207.832 75.3146 207.808C75.4829 207.722 75.6686 207.677 75.8569 207.677C76.0453 207.677 76.231 207.722 76.3993 207.808Z" fill="white"/>
<path d="M78.7045 206.908C79.1261 206.908 79.4679 206.705 79.4679 206.455C79.4679 206.205 79.1261 206.002 78.7045 206.002C78.2829 206.002 77.9412 206.205 77.9412 206.455C77.9412 206.705 78.2829 206.908 78.7045 206.908Z" fill="white"/>
<path d="M82.0694 204.464C82.135 204.487 82.192 204.53 82.2323 204.588C82.2727 204.645 82.2944 204.715 82.2944 204.785C82.2944 204.856 82.2727 204.926 82.2323 204.983C82.192 205.041 82.135 205.084 82.0694 205.107C81.9019 205.193 81.717 205.238 81.5295 205.238C81.342 205.238 81.1571 205.193 80.9897 205.107C80.9241 205.084 80.8671 205.041 80.8268 204.983C80.7864 204.926 80.7647 204.856 80.7647 204.785C80.7647 204.715 80.7864 204.645 80.8268 204.588C80.8671 204.53 80.9241 204.487 80.9897 204.464C81.1571 204.378 81.342 204.333 81.5295 204.333C81.717 204.333 81.9019 204.378 82.0694 204.464Z" fill="white"/>
<path d="M84.3545 203.569C84.7761 203.569 85.1178 203.366 85.1178 203.116C85.1178 202.866 84.7761 202.663 84.3545 202.663C83.9329 202.663 83.5911 202.866 83.5911 203.116C83.5911 203.366 83.9329 203.569 84.3545 203.569Z" fill="white"/>
<path d="M87.182 201.896C87.6036 201.896 87.9454 201.694 87.9454 201.444C87.9454 201.194 87.6036 200.991 87.182 200.991C86.7604 200.991 86.4186 201.194 86.4186 201.444C86.4186 201.694 86.7604 201.896 87.182 201.896Z" fill="white"/>
<path d="M90.0045 200.224C90.4261 200.224 90.7679 200.021 90.7679 199.771C90.7679 199.521 90.4261 199.319 90.0045 199.319C89.5829 199.319 89.2411 199.521 89.2411 199.771C89.2411 200.021 89.5829 200.224 90.0045 200.224Z" fill="white"/>
<path d="M93.3744 197.78C93.4382 197.804 93.4933 197.847 93.5323 197.904C93.5713 197.962 93.5922 198.03 93.5922 198.099C93.5922 198.169 93.5713 198.237 93.5323 198.294C93.4933 198.351 93.4382 198.394 93.3744 198.418C93.2076 198.507 93.0224 198.553 92.8345 198.553C92.6466 198.553 92.4614 198.507 92.2946 198.418C92.2284 198.397 92.1705 198.354 92.1294 198.297C92.0884 198.24 92.0662 198.17 92.0662 198.099C92.0662 198.028 92.0884 197.959 92.1294 197.901C92.1705 197.844 92.2284 197.802 92.2946 197.78C92.4621 197.694 92.647 197.649 92.8345 197.649C93.022 197.649 93.2069 197.694 93.3744 197.78Z" fill="white"/>
<path d="M96.1969 196.108C96.2631 196.129 96.321 196.172 96.362 196.229C96.4031 196.286 96.4253 196.356 96.4253 196.427C96.4253 196.498 96.4031 196.567 96.362 196.625C96.321 196.682 96.2631 196.725 96.1969 196.746C96.0301 196.835 95.8449 196.881 95.657 196.881C95.469 196.881 95.2838 196.835 95.1171 196.746C95.0532 196.722 94.9981 196.679 94.9591 196.622C94.9201 196.565 94.8992 196.497 94.8992 196.427C94.8992 196.357 94.9201 196.289 94.9591 196.232C94.9981 196.175 95.0532 196.132 95.1171 196.108C95.2845 196.022 95.4694 195.977 95.657 195.977C95.8445 195.977 96.0294 196.022 96.1969 196.108Z" fill="white"/>
<path d="M99.0245 194.436C99.0901 194.459 99.147 194.502 99.1874 194.559C99.2277 194.617 99.2494 194.686 99.2494 194.757C99.2494 194.828 99.2277 194.897 99.1874 194.955C99.147 195.013 99.0901 195.056 99.0245 195.079C98.857 195.165 98.6721 195.21 98.4846 195.21C98.297 195.21 98.1121 195.165 97.9446 195.079C97.879 195.056 97.8221 195.013 97.7817 194.955C97.7414 194.897 97.7197 194.828 97.7197 194.757C97.7197 194.686 97.7414 194.617 97.7817 194.559C97.8221 194.502 97.879 194.459 97.9446 194.436C98.1121 194.349 98.297 194.304 98.4846 194.304C98.6721 194.304 98.857 194.349 99.0245 194.436Z" fill="white"/>
<path d="M101.852 192.764C101.918 192.786 101.975 192.83 102.015 192.887C102.055 192.945 102.077 193.014 102.077 193.085C102.077 193.156 102.055 193.225 102.015 193.283C101.975 193.341 101.918 193.384 101.852 193.407C101.684 193.493 101.5 193.538 101.312 193.538C101.125 193.538 100.94 193.493 100.772 193.407C100.707 193.384 100.65 193.341 100.609 193.283C100.569 193.225 100.547 193.156 100.547 193.085C100.547 193.014 100.569 192.945 100.609 192.887C100.65 192.83 100.707 192.786 100.772 192.764C100.94 192.677 101.125 192.632 101.312 192.632C101.5 192.632 101.684 192.677 101.852 192.764Z" fill="white"/>
<path d="M59.4643 214.497C59.7606 214.672 59.7606 214.955 59.4643 215.135C59.2969 215.222 59.112 215.267 58.9245 215.267C58.737 215.267 58.5521 215.222 58.3846 215.135C58.0833 214.955 58.0833 214.672 58.3846 214.497C58.5514 214.408 58.7365 214.362 58.9245 214.362C59.1124 214.362 59.2976 214.408 59.4643 214.497Z" fill="white"/>
<path d="M62.2869 212.83C62.3531 212.852 62.411 212.894 62.4521 212.951C62.4931 213.009 62.5153 213.078 62.5153 213.149C62.5153 213.22 62.4931 213.29 62.4521 213.347C62.411 213.404 62.3531 213.447 62.2869 213.468C62.1194 213.555 61.9345 213.6 61.747 213.6C61.5595 213.6 61.3746 213.555 61.2071 213.468C61.1432 213.444 61.0881 213.401 61.0491 213.344C61.0102 213.287 60.9893 213.219 60.9893 213.149C60.9893 213.08 61.0102 213.012 61.0491 212.955C61.0881 212.898 61.1432 212.854 61.2071 212.83C61.3738 212.741 61.559 212.695 61.747 212.695C61.9349 212.695 62.1201 212.741 62.2869 212.83Z" fill="white"/>
<path d="M65.1144 211.153C65.1783 211.177 65.2334 211.22 65.2724 211.277C65.3113 211.334 65.3322 211.402 65.3322 211.472C65.3322 211.541 65.3113 211.609 65.2724 211.666C65.2334 211.724 65.1783 211.767 65.1144 211.791C64.9469 211.877 64.762 211.922 64.5745 211.922C64.387 211.922 64.2021 211.877 64.0346 211.791C63.9684 211.769 63.9105 211.727 63.8694 211.67C63.8284 211.612 63.8062 211.543 63.8062 211.472C63.8062 211.401 63.8284 211.331 63.8694 211.274C63.9105 211.217 63.9684 211.174 64.0346 211.153C64.2021 211.066 64.387 211.021 64.5745 211.021C64.762 211.021 64.9469 211.066 65.1144 211.153Z" fill="white"/>
<path d="M67.9418 209.481C68.0057 209.505 68.0608 209.548 68.0998 209.605C68.1387 209.662 68.1596 209.73 68.1596 209.8C68.1596 209.869 68.1387 209.937 68.0998 209.994C68.0608 210.051 68.0057 210.095 67.9418 210.119C67.7742 210.207 67.5882 210.254 67.3994 210.254C67.2107 210.254 67.0247 210.207 66.857 210.119C66.7932 210.095 66.738 210.051 66.6991 209.994C66.6601 209.937 66.6392 209.869 66.6392 209.8C66.6392 209.73 66.6601 209.662 66.6991 209.605C66.738 209.548 66.7932 209.505 66.857 209.481C67.0254 209.394 67.2111 209.349 67.3994 209.349C67.5877 209.349 67.7735 209.394 67.9418 209.481Z" fill="white"/>
<path d="M70.7644 207.808C70.8306 207.83 70.8885 207.872 70.9295 207.93C70.9706 207.987 70.9928 208.056 70.9928 208.127C70.9928 208.199 70.9706 208.268 70.9295 208.325C70.8885 208.383 70.8306 208.425 70.7644 208.446C70.5976 208.535 70.4124 208.582 70.2245 208.582C70.0365 208.582 69.8513 208.535 69.6846 208.446C69.6207 208.423 69.5656 208.379 69.5266 208.322C69.4876 208.265 69.4667 208.197 69.4667 208.127C69.4667 208.058 69.4876 207.99 69.5266 207.933C69.5656 207.876 69.6207 207.832 69.6846 207.808C69.852 207.722 70.0369 207.677 70.2245 207.677C70.412 207.677 70.5969 207.722 70.7644 207.808Z" fill="white"/>
<path d="M73.5918 206.141C73.6574 206.164 73.7144 206.207 73.7547 206.265C73.7951 206.323 73.8168 206.392 73.8168 206.463C73.8168 206.534 73.7951 206.603 73.7547 206.661C73.7144 206.718 73.6574 206.762 73.5918 206.784C73.4244 206.871 73.2395 206.916 73.0519 206.916C72.8644 206.916 72.6795 206.871 72.5121 206.784C72.4465 206.762 72.3895 206.718 72.3492 206.661C72.3088 206.603 72.2871 206.534 72.2871 206.463C72.2871 206.392 72.3088 206.323 72.3492 206.265C72.3895 206.207 72.4465 206.164 72.5121 206.141C72.6795 206.055 72.8644 206.01 73.0519 206.01C73.2395 206.01 73.4244 206.055 73.5918 206.141Z" fill="white"/>
<path d="M76.3993 204.464C76.4648 204.487 76.5218 204.53 76.5622 204.588C76.6025 204.645 76.6242 204.715 76.6242 204.785C76.6242 204.856 76.6025 204.926 76.5622 204.983C76.5218 205.041 76.4648 205.084 76.3993 205.107C76.2309 205.194 76.0452 205.239 75.8568 205.239C75.6685 205.239 75.4828 205.194 75.3144 205.107C75.2488 205.084 75.1919 205.041 75.1515 204.983C75.1112 204.926 75.0895 204.856 75.0895 204.785C75.0895 204.715 75.1112 204.645 75.1515 204.588C75.1919 204.53 75.2488 204.487 75.3144 204.464C75.4826 204.377 75.6684 204.331 75.8568 204.331C76.0453 204.331 76.2311 204.377 76.3993 204.464Z" fill="white"/>
<path d="M79.2419 202.797C79.5432 202.972 79.5432 203.255 79.2419 203.435C79.0744 203.521 78.8895 203.566 78.702 203.566C78.5144 203.566 78.3295 203.521 78.1621 203.435C77.8657 203.255 77.8657 202.972 78.1621 202.797C78.3288 202.708 78.514 202.662 78.702 202.662C78.8899 202.662 79.0751 202.708 79.2419 202.797Z" fill="white"/>
<path d="M82.0694 201.125C82.1332 201.148 82.1884 201.192 82.2273 201.249C82.2663 201.306 82.2872 201.374 82.2872 201.444C82.2872 201.513 82.2663 201.581 82.2273 201.638C82.1884 201.695 82.1332 201.739 82.0694 201.763C81.9019 201.849 81.717 201.894 81.5295 201.894C81.342 201.894 81.1571 201.849 80.9896 201.763C80.9233 201.741 80.8655 201.699 80.8244 201.641C80.7833 201.584 80.7612 201.515 80.7612 201.444C80.7612 201.372 80.7833 201.303 80.8244 201.246C80.8655 201.188 80.9233 201.146 80.9896 201.125C81.1563 201.036 81.3415 200.989 81.5295 200.989C81.7174 200.989 81.9026 201.036 82.0694 201.125Z" fill="white"/>
<path d="M84.8968 199.452C84.9607 199.476 85.0158 199.52 85.0548 199.577C85.0938 199.634 85.1147 199.702 85.1147 199.771C85.1147 199.841 85.0938 199.909 85.0548 199.966C85.0158 200.023 84.9607 200.067 84.8968 200.09C84.7294 200.177 84.5445 200.222 84.3569 200.222C84.1694 200.222 83.9845 200.177 83.817 200.09C83.7508 200.069 83.6929 200.027 83.6519 199.969C83.6108 199.912 83.5886 199.843 83.5886 199.771C83.5886 199.7 83.6108 199.631 83.6519 199.574C83.6929 199.516 83.7508 199.474 83.817 199.452C83.9845 199.366 84.1694 199.321 84.3569 199.321C84.5445 199.321 84.7294 199.366 84.8968 199.452Z" fill="white"/>
<path d="M87.7194 197.78C87.7856 197.802 87.8435 197.844 87.8846 197.901C87.9256 197.959 87.9478 198.028 87.9478 198.099C87.9478 198.17 87.9256 198.24 87.8846 198.297C87.8435 198.354 87.7856 198.397 87.7194 198.418C87.5526 198.507 87.3674 198.553 87.1795 198.553C86.9915 198.553 86.8063 198.507 86.6396 198.418C86.5757 198.394 86.5206 198.351 86.4816 198.294C86.4427 198.237 86.4218 198.169 86.4218 198.099C86.4218 198.03 86.4427 197.962 86.4816 197.904C86.5206 197.847 86.5757 197.804 86.6396 197.78C86.8071 197.694 86.992 197.649 87.1795 197.649C87.367 197.649 87.5519 197.694 87.7194 197.78Z" fill="white"/>
<path d="M90.0045 196.88C90.4261 196.88 90.7679 196.677 90.7679 196.427C90.7679 196.177 90.4261 195.974 90.0045 195.974C89.5829 195.974 89.2411 196.177 89.2411 196.427C89.2411 196.677 89.5829 196.88 90.0045 196.88Z" fill="white"/>
<path d="M92.832 195.207C93.2536 195.207 93.5954 195.005 93.5954 194.755C93.5954 194.505 93.2536 194.302 92.832 194.302C92.4104 194.302 92.0686 194.505 92.0686 194.755C92.0686 195.005 92.4104 195.207 92.832 195.207Z" fill="white"/>
<path d="M95.6595 193.54C96.0811 193.54 96.4229 193.338 96.4229 193.088C96.4229 192.838 96.0811 192.635 95.6595 192.635C95.2379 192.635 94.8962 192.838 94.8962 193.088C94.8962 193.338 95.2379 193.54 95.6595 193.54Z" fill="white"/>
<path d="M98.482 191.868C98.9036 191.868 99.2454 191.666 99.2454 191.415C99.2454 191.165 98.9036 190.963 98.482 190.963C98.0604 190.963 97.7186 191.165 97.7186 191.415C97.7186 191.666 98.0604 191.868 98.482 191.868Z" fill="white"/>
<path d="M56.6368 212.83C56.7007 212.854 56.7558 212.898 56.7948 212.955C56.8338 213.012 56.8546 213.08 56.8546 213.149C56.8546 213.219 56.8338 213.287 56.7948 213.344C56.7558 213.401 56.7007 213.444 56.6368 213.468C56.4693 213.555 56.2844 213.6 56.0969 213.6C55.9094 213.6 55.7245 213.555 55.557 213.468C55.4908 213.447 55.4329 213.404 55.3918 213.347C55.3508 213.29 55.3286 213.22 55.3286 213.149C55.3286 213.078 55.3508 213.009 55.3918 212.951C55.4329 212.894 55.4908 212.852 55.557 212.83C55.7238 212.741 55.909 212.695 56.0969 212.695C56.2849 212.695 56.4701 212.741 56.6368 212.83Z" fill="white"/>
<path d="M59.4645 211.153C59.5283 211.177 59.5835 211.22 59.6224 211.277C59.6614 211.334 59.6823 211.402 59.6823 211.472C59.6823 211.541 59.6614 211.609 59.6224 211.666C59.5835 211.724 59.5283 211.767 59.4645 211.791C59.297 211.877 59.1121 211.922 58.9246 211.922C58.737 211.922 58.5521 211.877 58.3847 211.791C58.3184 211.769 58.2606 211.727 58.2195 211.67C58.1784 211.612 58.1562 211.543 58.1562 211.472C58.1562 211.401 58.1784 211.331 58.2195 211.274C58.2606 211.217 58.3184 211.174 58.3847 211.153C58.5521 211.066 58.737 211.021 58.9246 211.021C59.1121 211.021 59.297 211.066 59.4645 211.153Z" fill="white"/>
<path d="M62.2869 209.481C62.3531 209.502 62.411 209.544 62.4521 209.602C62.4931 209.659 62.5153 209.728 62.5153 209.8C62.5153 209.871 62.4931 209.94 62.4521 209.997C62.411 210.055 62.3531 210.097 62.2869 210.119C62.1201 210.207 61.9349 210.254 61.747 210.254C61.559 210.254 61.3738 210.207 61.2071 210.119C61.1432 210.095 61.0881 210.051 61.0491 209.994C61.0102 209.937 60.9893 209.869 60.9893 209.8C60.9893 209.73 61.0102 209.662 61.0491 209.605C61.0881 209.548 61.1432 209.504 61.2071 209.481C61.3746 209.394 61.5595 209.349 61.747 209.349C61.9345 209.349 62.1194 209.394 62.2869 209.481Z" fill="white"/>
<path d="M65.1144 207.808C65.1783 207.832 65.2334 207.876 65.2724 207.933C65.3113 207.99 65.3322 208.058 65.3322 208.127C65.3322 208.197 65.3113 208.265 65.2724 208.322C65.2334 208.379 65.1783 208.423 65.1144 208.446C64.9477 208.535 64.7625 208.582 64.5745 208.582C64.3866 208.582 64.2014 208.535 64.0346 208.446C63.9684 208.425 63.9105 208.383 63.8694 208.325C63.8284 208.268 63.8062 208.199 63.8062 208.127C63.8062 208.056 63.8284 207.987 63.8694 207.93C63.9105 207.872 63.9684 207.83 64.0346 207.808C64.2021 207.722 64.387 207.677 64.5745 207.677C64.762 207.677 64.9469 207.722 65.1144 207.808Z" fill="white"/>
<path d="M67.9419 206.141C68.0074 206.164 68.0644 206.207 68.1048 206.265C68.1451 206.323 68.1668 206.392 68.1668 206.463C68.1668 206.534 68.1451 206.603 68.1048 206.661C68.0644 206.718 68.0074 206.762 67.9419 206.784C67.7744 206.871 67.5895 206.916 67.402 206.916C67.2145 206.916 67.0296 206.871 66.8621 206.784C66.7965 206.762 66.7395 206.718 66.6992 206.661C66.6588 206.603 66.6371 206.534 66.6371 206.463C66.6371 206.392 66.6588 206.323 66.6992 206.265C66.7395 206.207 66.7965 206.164 66.8621 206.141C67.0296 206.055 67.2145 206.01 67.402 206.01C67.5895 206.01 67.7744 206.055 67.9419 206.141Z" fill="white"/>
<path d="M70.7644 204.464C70.83 204.487 70.8869 204.53 70.9273 204.588C70.9676 204.645 70.9893 204.715 70.9893 204.785C70.9893 204.856 70.9676 204.926 70.9273 204.983C70.8869 205.041 70.83 205.084 70.7644 205.107C70.5969 205.193 70.412 205.238 70.2245 205.238C70.037 205.238 69.8521 205.193 69.6846 205.107C69.619 205.084 69.5621 205.041 69.5217 204.983C69.4814 204.926 69.4597 204.856 69.4597 204.785C69.4597 204.715 69.4814 204.645 69.5217 204.588C69.5621 204.53 69.619 204.487 69.6846 204.464C69.8521 204.378 70.037 204.333 70.2245 204.333C70.412 204.333 70.5969 204.378 70.7644 204.464Z" fill="white"/>
<path d="M73.5919 202.797C73.8882 202.972 73.8882 203.255 73.5919 203.435C73.4244 203.521 73.2395 203.566 73.052 203.566C72.8645 203.566 72.6796 203.521 72.5121 203.435C72.2107 203.255 72.2107 202.972 72.5121 202.797C72.6788 202.708 72.864 202.662 73.052 202.662C73.2399 202.662 73.4251 202.708 73.5919 202.797Z" fill="white"/>
<path d="M75.877 201.896C76.2986 201.896 76.6404 201.694 76.6404 201.444C76.6404 201.194 76.2986 200.991 75.877 200.991C75.4554 200.991 75.1136 201.194 75.1136 201.444C75.1136 201.694 75.4554 201.896 75.877 201.896Z" fill="white"/>
<path d="M79.2418 199.452C79.3081 199.474 79.3659 199.516 79.407 199.574C79.4481 199.631 79.4702 199.7 79.4702 199.771C79.4702 199.843 79.4481 199.912 79.407 199.969C79.3659 200.027 79.3081 200.069 79.2418 200.09C79.0743 200.177 78.8895 200.222 78.702 200.222C78.5145 200.222 78.3296 200.177 78.1621 200.09C78.0982 200.067 78.0431 200.023 78.0041 199.966C77.9652 199.909 77.9443 199.841 77.9443 199.771C77.9443 199.702 77.9652 199.634 78.0041 199.577C78.0431 199.52 78.0982 199.476 78.1621 199.452C78.3296 199.366 78.5145 199.321 78.702 199.321C78.8895 199.321 79.0743 199.366 79.2418 199.452Z" fill="white"/>
<path d="M82.0694 197.78C82.1332 197.804 82.1884 197.847 82.2273 197.904C82.2663 197.962 82.2872 198.03 82.2872 198.099C82.2872 198.169 82.2663 198.237 82.2273 198.294C82.1884 198.351 82.1332 198.394 82.0694 198.418C81.9026 198.507 81.7174 198.553 81.5295 198.553C81.3415 198.553 81.1563 198.507 80.9896 198.418C80.9233 198.397 80.8655 198.354 80.8244 198.297C80.7833 198.24 80.7612 198.17 80.7612 198.099C80.7612 198.028 80.7833 197.959 80.8244 197.901C80.8655 197.844 80.9233 197.802 80.9896 197.78C81.1571 197.694 81.342 197.649 81.5295 197.649C81.717 197.649 81.9019 197.694 82.0694 197.78Z" fill="white"/>
<path d="M84.8968 196.108C84.9607 196.132 85.0158 196.175 85.0548 196.232C85.0938 196.289 85.1147 196.357 85.1147 196.427C85.1147 196.497 85.0938 196.565 85.0548 196.622C85.0158 196.679 84.9607 196.722 84.8968 196.746C84.7301 196.835 84.5449 196.881 84.3569 196.881C84.169 196.881 83.9838 196.835 83.817 196.746C83.7508 196.725 83.6929 196.682 83.6519 196.625C83.6108 196.567 83.5886 196.498 83.5886 196.427C83.5886 196.356 83.6108 196.286 83.6519 196.229C83.6929 196.172 83.7508 196.129 83.817 196.108C83.9845 196.022 84.1694 195.977 84.3569 195.977C84.5445 195.977 84.7294 196.022 84.8968 196.108Z" fill="white"/>
<path d="M87.7194 194.436C87.785 194.459 87.8419 194.502 87.8823 194.559C87.9226 194.617 87.9443 194.686 87.9443 194.757C87.9443 194.828 87.9226 194.897 87.8823 194.955C87.8419 195.013 87.785 195.056 87.7194 195.079C87.5519 195.165 87.367 195.21 87.1795 195.21C86.992 195.21 86.8071 195.165 86.6396 195.079C86.574 195.056 86.5171 195.013 86.4767 194.955C86.4364 194.897 86.4147 194.828 86.4147 194.757C86.4147 194.686 86.4364 194.617 86.4767 194.559C86.5171 194.502 86.574 194.459 86.6396 194.436C86.8071 194.349 86.992 194.304 87.1795 194.304C87.367 194.304 87.5519 194.349 87.7194 194.436Z" fill="white"/>
<path d="M90.5469 192.764C90.6125 192.786 90.6695 192.83 90.7098 192.887C90.7502 192.945 90.7719 193.014 90.7719 193.085C90.7719 193.156 90.7502 193.225 90.7098 193.283C90.6695 193.341 90.6125 193.384 90.5469 193.407C90.3794 193.493 90.1945 193.538 90.007 193.538C89.8195 193.538 89.6346 193.493 89.4671 193.407C89.4016 193.384 89.3446 193.341 89.3042 193.283C89.2639 193.225 89.2422 193.156 89.2422 193.085C89.2422 193.014 89.2639 192.945 89.3042 192.887C89.3446 192.83 89.4016 192.786 89.4671 192.764C89.6346 192.677 89.8195 192.632 90.007 192.632C90.1945 192.632 90.3794 192.677 90.5469 192.764Z" fill="white"/>
<path d="M92.832 191.868C93.2536 191.868 93.5954 191.666 93.5954 191.415C93.5954 191.165 93.2536 190.963 92.832 190.963C92.4104 190.963 92.0686 191.165 92.0686 191.415C92.0686 191.666 92.4104 191.868 92.832 191.868Z" fill="white"/>
<path d="M95.6595 190.196C96.0811 190.196 96.4229 189.993 96.4229 189.743C96.4229 189.493 96.0811 189.29 95.6595 189.29C95.2379 189.29 94.8962 189.493 94.8962 189.743C94.8962 189.993 95.2379 190.196 95.6595 190.196Z" fill="white"/>
<path d="M53.7993 211.132C53.8649 211.155 53.9218 211.198 53.9622 211.256C54.0025 211.314 54.0242 211.383 54.0242 211.454C54.0242 211.525 54.0025 211.594 53.9622 211.652C53.9218 211.709 53.8649 211.753 53.7993 211.775C53.6309 211.862 53.4452 211.907 53.2569 211.907C53.0685 211.907 52.8828 211.862 52.7145 211.775C52.6489 211.753 52.5919 211.709 52.5515 211.652C52.5112 211.594 52.4895 211.525 52.4895 211.454C52.4895 211.383 52.5112 211.314 52.5515 211.256C52.5919 211.198 52.6489 211.155 52.7145 211.132C52.8828 211.046 53.0685 211.001 53.2569 211.001C53.4452 211.001 53.6309 211.046 53.7993 211.132Z" fill="white"/>
<path d="M56.0744 210.237C56.496 210.237 56.8378 210.034 56.8378 209.784C56.8378 209.534 56.496 209.331 56.0744 209.331C55.6528 209.331 55.311 209.534 55.311 209.784C55.311 210.034 55.6528 210.237 56.0744 210.237Z" fill="white"/>
<path d="M59.4393 207.793C59.5032 207.817 59.5583 207.86 59.5973 207.917C59.6362 207.974 59.6571 208.042 59.6571 208.112C59.6571 208.182 59.6362 208.25 59.5973 208.307C59.5583 208.364 59.5032 208.407 59.4393 208.431C59.2718 208.517 59.0869 208.562 58.8994 208.562C58.7119 208.562 58.527 208.517 58.3595 208.431C58.2933 208.41 58.2354 208.367 58.1943 208.31C58.1533 208.252 58.1311 208.183 58.1311 208.112C58.1311 208.041 58.1533 207.972 58.1943 207.914C58.2354 207.857 58.2933 207.814 58.3595 207.793C58.5263 207.704 58.7115 207.658 58.8994 207.658C59.0874 207.658 59.2726 207.704 59.4393 207.793Z" fill="white"/>
<path d="M50.9617 209.465C51.0256 209.489 51.0807 209.532 51.1197 209.59C51.1586 209.647 51.1795 209.715 51.1795 209.784C51.1795 209.854 51.1586 209.922 51.1197 209.979C51.0807 210.036 51.0256 210.079 50.9617 210.103C50.7942 210.19 50.6093 210.235 50.4218 210.235C50.2343 210.235 50.0494 210.19 49.8819 210.103C49.8157 210.082 49.7578 210.039 49.7167 209.982C49.6757 209.925 49.6535 209.855 49.6535 209.784C49.6535 209.713 49.6757 209.644 49.7167 209.586C49.7578 209.529 49.8157 209.487 49.8819 209.465C50.0487 209.376 50.2339 209.33 50.4218 209.33C50.6098 209.33 50.7949 209.376 50.9617 209.465Z" fill="white"/>
<path d="M53.2468 208.565C53.6684 208.565 54.0102 208.362 54.0102 208.112C54.0102 207.862 53.6684 207.659 53.2468 207.659C52.8252 207.659 52.4835 207.862 52.4835 208.112C52.4835 208.362 52.8252 208.565 53.2468 208.565Z" fill="white"/>
<path d="M56.0744 206.893C56.496 206.893 56.8378 206.69 56.8378 206.44C56.8378 206.19 56.496 205.987 56.0744 205.987C55.6528 205.987 55.311 206.19 55.311 206.44C55.311 206.69 55.6528 206.893 56.0744 206.893Z" fill="white"/>
<path d="M48.1343 207.793C48.2005 207.814 48.2584 207.857 48.2995 207.914C48.3406 207.972 48.3627 208.041 48.3627 208.112C48.3627 208.183 48.3406 208.252 48.2995 208.31C48.2584 208.367 48.2005 208.41 48.1343 208.431C47.9668 208.517 47.7819 208.562 47.5944 208.562C47.4069 208.562 47.222 208.517 47.0545 208.431C46.9906 208.407 46.9355 208.364 46.8965 208.307C46.8576 208.25 46.8367 208.182 46.8367 208.112C46.8367 208.042 46.8576 207.974 46.8965 207.917C46.9355 207.86 46.9906 207.817 47.0545 207.793C47.2213 207.704 47.4064 207.658 47.5944 207.658C47.7823 207.658 47.9675 207.704 48.1343 207.793Z" fill="white"/>
<path d="M50.9617 206.141C51.0256 206.165 51.0807 206.209 51.1197 206.266C51.1586 206.323 51.1795 206.391 51.1795 206.46C51.1795 206.53 51.1586 206.598 51.1197 206.655C51.0807 206.712 51.0256 206.755 50.9617 206.779C50.7942 206.866 50.6093 206.911 50.4218 206.911C50.2343 206.911 50.0494 206.866 49.8819 206.779C49.8157 206.758 49.7578 206.715 49.7167 206.658C49.6757 206.601 49.6535 206.531 49.6535 206.46C49.6535 206.389 49.6757 206.32 49.7167 206.262C49.7578 206.205 49.8157 206.163 49.8819 206.141C50.0494 206.055 50.2343 206.01 50.4218 206.01C50.6093 206.01 50.7942 206.055 50.9617 206.141Z" fill="white"/>
<path d="M53.7994 204.448C53.8632 204.472 53.9184 204.516 53.9573 204.573C53.9963 204.63 54.0172 204.698 54.0172 204.767C54.0172 204.837 53.9963 204.905 53.9573 204.962C53.9184 205.019 53.8632 205.063 53.7994 205.086C53.6317 205.175 53.4457 205.222 53.257 205.222C53.0682 205.222 52.8822 205.175 52.7145 205.086C52.6507 205.063 52.5955 205.019 52.5566 204.962C52.5176 204.905 52.4967 204.837 52.4967 204.767C52.4967 204.698 52.5176 204.63 52.5566 204.573C52.5955 204.516 52.6507 204.472 52.7145 204.448C52.8829 204.362 53.0686 204.317 53.257 204.317C53.4453 204.317 53.631 204.362 53.7994 204.448Z" fill="white"/>
<path d="M45.3117 206.141C45.3756 206.165 45.4307 206.208 45.4697 206.266C45.5086 206.323 45.5295 206.391 45.5295 206.46C45.5295 206.53 45.5086 206.598 45.4697 206.655C45.4307 206.712 45.3756 206.755 45.3117 206.779C45.1434 206.866 44.9577 206.911 44.7693 206.911C44.581 206.911 44.3953 206.866 44.227 206.779C44.1631 206.755 44.108 206.712 44.069 206.655C44.0301 206.598 44.0092 206.53 44.0092 206.46C44.0092 206.391 44.0301 206.323 44.069 206.266C44.108 206.208 44.1631 206.165 44.227 206.141C44.3953 206.055 44.581 206.01 44.7693 206.01C44.9577 206.01 45.1434 206.055 45.3117 206.141Z" fill="white"/>
<path d="M48.1343 204.448C48.2005 204.47 48.2584 204.512 48.2995 204.57C48.3406 204.627 48.3627 204.696 48.3627 204.767C48.3627 204.839 48.3406 204.908 48.2995 204.965C48.2584 205.023 48.2005 205.065 48.1343 205.087C47.9675 205.175 47.7823 205.222 47.5944 205.222C47.4064 205.222 47.2213 205.175 47.0545 205.087C46.9906 205.063 46.9355 205.019 46.8965 204.962C46.8576 204.905 46.8367 204.837 46.8367 204.767C46.8367 204.698 46.8576 204.63 46.8965 204.573C46.9355 204.516 46.9906 204.472 47.0545 204.448C47.222 204.362 47.4069 204.317 47.5944 204.317C47.7819 204.317 47.9668 204.362 48.1343 204.448Z" fill="white"/>
<path d="M50.9617 202.776C51.0256 202.8 51.0807 202.844 51.1197 202.901C51.1586 202.958 51.1795 203.026 51.1795 203.095C51.1795 203.165 51.1586 203.233 51.1197 203.29C51.0807 203.347 51.0256 203.39 50.9617 203.414C50.7949 203.503 50.6098 203.549 50.4218 203.549C50.2339 203.549 50.0487 203.503 49.8819 203.414C49.8157 203.393 49.7578 203.35 49.7167 203.293C49.6757 203.236 49.6535 203.166 49.6535 203.095C49.6535 203.024 49.6757 202.955 49.7167 202.897C49.7578 202.84 49.8157 202.798 49.8819 202.776C50.0494 202.69 50.2343 202.645 50.4218 202.645C50.6093 202.645 50.7942 202.69 50.9617 202.776Z" fill="white"/>
<path d="M42.4842 204.448C42.5481 204.472 42.6032 204.516 42.6422 204.573C42.6812 204.63 42.7021 204.698 42.7021 204.767C42.7021 204.837 42.6812 204.905 42.6422 204.962C42.6032 205.019 42.5481 205.063 42.4842 205.087C42.3175 205.175 42.1323 205.222 41.9443 205.222C41.7564 205.222 41.5712 205.175 41.4044 205.087C41.3382 205.065 41.2803 205.023 41.2393 204.965C41.1982 204.908 41.176 204.839 41.176 204.767C41.176 204.696 41.1982 204.627 41.2393 204.57C41.2803 204.512 41.3382 204.47 41.4044 204.448C41.5719 204.362 41.7568 204.317 41.9443 204.317C42.1319 204.317 42.3168 204.362 42.4842 204.448Z" fill="white"/>
<path d="M45.3117 202.776C45.3756 202.8 45.4307 202.843 45.4697 202.901C45.5086 202.958 45.5295 203.026 45.5295 203.095C45.5295 203.165 45.5086 203.233 45.4697 203.29C45.4307 203.347 45.3756 203.39 45.3117 203.414C45.1441 203.503 44.9581 203.55 44.7693 203.55C44.5806 203.55 44.3946 203.503 44.227 203.414C44.1631 203.39 44.108 203.347 44.069 203.29C44.0301 203.233 44.0092 203.165 44.0092 203.095C44.0092 203.026 44.0301 202.958 44.069 202.901C44.108 202.843 44.1631 202.8 44.227 202.776C44.3953 202.69 44.581 202.645 44.7693 202.645C44.9577 202.645 45.1434 202.69 45.3117 202.776Z" fill="white"/>
<path d="M48.1342 201.104C48.1998 201.127 48.2567 201.17 48.2971 201.228C48.3374 201.285 48.3591 201.355 48.3591 201.426C48.3591 201.496 48.3374 201.566 48.2971 201.623C48.2567 201.681 48.1998 201.724 48.1342 201.747C47.9667 201.833 47.7818 201.879 47.5943 201.879C47.4068 201.879 47.2219 201.833 47.0544 201.747C46.9888 201.724 46.9319 201.681 46.8915 201.623C46.8512 201.566 46.8295 201.496 46.8295 201.426C46.8295 201.355 46.8512 201.285 46.8915 201.228C46.9319 201.17 46.9888 201.127 47.0544 201.104C47.2219 201.018 47.4068 200.973 47.5943 200.973C47.7818 200.973 47.9667 201.018 48.1342 201.104Z" fill="white"/>
<path d="M39.6567 202.776C39.723 202.798 39.7808 202.84 39.8219 202.897C39.863 202.955 39.8851 203.024 39.8851 203.095C39.8851 203.166 39.863 203.236 39.8219 203.293C39.7808 203.35 39.723 203.393 39.6567 203.414C39.49 203.503 39.3048 203.549 39.1169 203.549C38.9289 203.549 38.7438 203.503 38.577 203.414C38.5132 203.39 38.458 203.347 38.4191 203.29C38.3801 203.233 38.3592 203.165 38.3592 203.095C38.3592 203.026 38.3801 202.958 38.4191 202.901C38.458 202.844 38.5132 202.8 38.577 202.776C38.7445 202.69 38.9294 202.645 39.1169 202.645C39.3044 202.645 39.4893 202.69 39.6567 202.776Z" fill="white"/>
<path d="M42.4842 201.104C42.5498 201.127 42.6068 201.17 42.6471 201.228C42.6875 201.285 42.7092 201.355 42.7092 201.426C42.7092 201.496 42.6875 201.566 42.6471 201.623C42.6068 201.681 42.5498 201.724 42.4842 201.747C42.3167 201.833 42.1318 201.879 41.9443 201.879C41.7568 201.879 41.5719 201.833 41.4045 201.747C41.3389 201.724 41.2819 201.681 41.2416 201.623C41.2012 201.566 41.1795 201.496 41.1795 201.426C41.1795 201.355 41.2012 201.285 41.2416 201.228C41.2819 201.17 41.3389 201.127 41.4045 201.104C41.5719 201.018 41.7568 200.973 41.9443 200.973C42.1318 200.973 42.3167 201.018 42.4842 201.104Z" fill="white"/>
<path d="M44.7693 200.209C45.1909 200.209 45.5327 200.006 45.5327 199.756C45.5327 199.506 45.1909 199.303 44.7693 199.303C44.3477 199.303 44.0059 199.506 44.0059 199.756C44.0059 200.006 44.3477 200.209 44.7693 200.209Z" fill="white"/>
<path d="M36.8343 201.104C36.8999 201.127 36.9569 201.17 36.9972 201.228C37.0376 201.285 37.0593 201.355 37.0593 201.426C37.0593 201.497 37.0376 201.566 36.9972 201.623C36.9569 201.681 36.8999 201.724 36.8343 201.747C36.666 201.834 36.4802 201.879 36.2919 201.879C36.1036 201.879 35.9178 201.834 35.7495 201.747C35.6839 201.724 35.6269 201.681 35.5866 201.623C35.5462 201.566 35.5245 201.497 35.5245 201.426C35.5245 201.355 35.5462 201.285 35.5866 201.228C35.6269 201.17 35.6839 201.127 35.7495 201.104C35.9178 201.017 36.1036 200.972 36.2919 200.972C36.4802 200.972 36.666 201.017 36.8343 201.104Z" fill="white"/>
<path d="M39.6567 199.452C39.7223 199.475 39.7793 199.518 39.8196 199.576C39.86 199.634 39.8817 199.703 39.8817 199.774C39.8817 199.845 39.86 199.914 39.8196 199.972C39.7793 200.029 39.7223 200.073 39.6567 200.096C39.4892 200.182 39.3043 200.227 39.1168 200.227C38.9293 200.227 38.7444 200.182 38.5769 200.096C38.5113 200.073 38.4543 200.029 38.414 199.972C38.3736 199.914 38.3519 199.845 38.3519 199.774C38.3519 199.703 38.3736 199.634 38.414 199.576C38.4543 199.518 38.5113 199.475 38.5769 199.452C38.7444 199.366 38.9293 199.321 39.1168 199.321C39.3043 199.321 39.4892 199.366 39.6567 199.452Z" fill="white"/>
<path d="M41.9418 198.537C42.3634 198.537 42.7052 198.334 42.7052 198.084C42.7052 197.834 42.3634 197.631 41.9418 197.631C41.5202 197.631 41.1785 197.834 41.1785 198.084C41.1785 198.334 41.5202 198.537 41.9418 198.537Z" fill="white"/>
<path d="M33.4643 200.209C33.8859 200.209 34.2277 200.006 34.2277 199.756C34.2277 199.506 33.8859 199.303 33.4643 199.303C33.0428 199.303 32.701 199.506 32.701 199.756C32.701 200.006 33.0428 200.209 33.4643 200.209Z" fill="white"/>
<path d="M36.8343 197.765C36.8981 197.789 36.9533 197.832 36.9922 197.889C37.0312 197.946 37.0521 198.014 37.0521 198.084C37.0521 198.153 37.0312 198.221 36.9922 198.278C36.9533 198.335 36.8981 198.379 36.8343 198.403C36.6659 198.489 36.4802 198.534 36.2919 198.534C36.1035 198.534 35.9178 198.489 35.7494 198.403C35.6856 198.379 35.6304 198.335 35.5915 198.278C35.5525 198.221 35.5316 198.153 35.5316 198.084C35.5316 198.014 35.5525 197.946 35.5915 197.889C35.6304 197.832 35.6856 197.789 35.7494 197.765C35.9171 197.676 36.1031 197.63 36.2919 197.63C36.4806 197.63 36.6666 197.676 36.8343 197.765Z" fill="white"/>
<path d="M39.6567 196.092C39.723 196.114 39.7808 196.156 39.8219 196.214C39.863 196.271 39.8851 196.34 39.8851 196.411C39.8851 196.483 39.863 196.552 39.8219 196.609C39.7808 196.667 39.723 196.709 39.6567 196.731C39.4893 196.817 39.3044 196.862 39.1169 196.862C38.9294 196.862 38.7445 196.817 38.577 196.731C38.5132 196.707 38.458 196.663 38.4191 196.606C38.3801 196.549 38.3592 196.481 38.3592 196.411C38.3592 196.342 38.3801 196.274 38.4191 196.217C38.458 196.16 38.5132 196.116 38.577 196.092C38.7438 196.004 38.9289 195.957 39.1169 195.957C39.3048 195.957 39.49 196.004 39.6567 196.092Z" fill="white"/>
<path d="M31.1541 197.744C31.2203 197.766 31.2782 197.808 31.3193 197.865C31.3603 197.923 31.3825 197.992 31.3825 198.063C31.3825 198.134 31.3603 198.204 31.3193 198.261C31.2782 198.318 31.2203 198.361 31.1541 198.382C30.9873 198.471 30.8021 198.517 30.6142 198.517C30.4262 198.517 30.241 198.471 30.0743 198.382C30.0104 198.358 29.9553 198.315 29.9163 198.258C29.8773 198.201 29.8564 198.133 29.8564 198.063C29.8564 197.994 29.8773 197.926 29.9163 197.868C29.9553 197.811 30.0104 197.768 30.0743 197.744C30.2417 197.658 30.4267 197.613 30.6142 197.613C30.8017 197.613 30.9866 197.658 31.1541 197.744Z" fill="white"/>
<path d="M33.9816 196.072C34.0472 196.095 34.1042 196.138 34.1445 196.196C34.1848 196.253 34.2065 196.323 34.2065 196.394C34.2065 196.464 34.1848 196.534 34.1445 196.591C34.1042 196.649 34.0472 196.692 33.9816 196.715C33.8141 196.802 33.6292 196.847 33.4417 196.847C33.2542 196.847 33.0693 196.802 32.9018 196.715C32.8362 196.692 32.7793 196.649 32.7389 196.591C32.6986 196.534 32.6769 196.464 32.6769 196.394C32.6769 196.323 32.6986 196.253 32.7389 196.196C32.7793 196.138 32.8362 196.095 32.9018 196.072C33.0693 195.985 33.2542 195.94 33.4417 195.94C33.6292 195.94 33.8141 195.985 33.9816 196.072Z" fill="white"/>
<path d="M36.8092 194.4C36.8747 194.422 36.9317 194.466 36.9721 194.523C37.0124 194.581 37.0341 194.65 37.0341 194.721C37.0341 194.792 37.0124 194.861 36.9721 194.919C36.9317 194.977 36.8747 195.02 36.8092 195.043C36.6408 195.129 36.4551 195.174 36.2668 195.174C36.0784 195.174 35.8927 195.129 35.7244 195.043C35.6588 195.02 35.6018 194.977 35.5614 194.919C35.5211 194.861 35.4994 194.792 35.4994 194.721C35.4994 194.65 35.5211 194.581 35.5614 194.523C35.6018 194.466 35.6588 194.422 35.7244 194.4C35.8927 194.313 36.0784 194.268 36.2668 194.268C36.4551 194.268 36.6408 194.313 36.8092 194.4Z" fill="white"/>
<path d="M28.3316 196.072C28.3972 196.095 28.4542 196.138 28.4945 196.196C28.5349 196.253 28.5566 196.323 28.5566 196.393C28.5566 196.464 28.5349 196.534 28.4945 196.591C28.4542 196.649 28.3972 196.692 28.3316 196.715C28.1633 196.802 27.9775 196.847 27.7892 196.847C27.6009 196.847 27.4152 196.802 27.2468 196.715C27.1812 196.692 27.1242 196.649 27.0839 196.591C27.0435 196.534 27.0219 196.464 27.0219 196.393C27.0219 196.323 27.0435 196.253 27.0839 196.196C27.1242 196.138 27.1812 196.095 27.2468 196.072C27.4152 195.985 27.6009 195.94 27.7892 195.94C27.9775 195.94 28.1633 195.985 28.3316 196.072Z" fill="white"/>
<path d="M31.1541 194.4C31.2197 194.422 31.2766 194.466 31.317 194.523C31.3573 194.581 31.379 194.65 31.379 194.721C31.379 194.792 31.3573 194.861 31.317 194.919C31.2766 194.977 31.2197 195.02 31.1541 195.043C30.9866 195.129 30.8017 195.174 30.6142 195.174C30.4267 195.174 30.2418 195.129 30.0743 195.043C30.0087 195.02 29.9518 194.977 29.9114 194.919C29.8711 194.861 29.8494 194.792 29.8494 194.721C29.8494 194.65 29.8711 194.581 29.9114 194.523C29.9518 194.466 30.0087 194.422 30.0743 194.4C30.2418 194.313 30.4267 194.268 30.6142 194.268C30.8017 194.268 30.9866 194.313 31.1541 194.4Z" fill="white"/>
<path d="M33.4392 193.504C33.8609 193.504 34.2026 193.302 34.2026 193.052C34.2026 192.802 33.8609 192.599 33.4392 192.599C33.0176 192.599 32.6758 192.802 32.6758 193.052C32.6758 193.302 33.0176 193.504 33.4392 193.504Z" fill="white"/>
<path d="M25.5041 194.4C25.5697 194.422 25.6267 194.466 25.667 194.523C25.7074 194.581 25.7291 194.65 25.7291 194.721C25.7291 194.792 25.7074 194.861 25.667 194.919C25.6267 194.977 25.5697 195.02 25.5041 195.043C25.3366 195.129 25.1517 195.174 24.9642 195.174C24.7767 195.174 24.5918 195.129 24.4244 195.043C24.3588 195.02 24.3018 194.977 24.2614 194.919C24.2211 194.861 24.1994 194.792 24.1994 194.721C24.1994 194.65 24.2211 194.581 24.2614 194.523C24.3018 194.466 24.3588 194.422 24.4244 194.4C24.5918 194.313 24.7767 194.268 24.9642 194.268C25.1517 194.268 25.3366 194.313 25.5041 194.4Z" fill="white"/>
<path d="M28.3316 192.733C28.3954 192.757 28.4506 192.8 28.4895 192.857C28.5285 192.914 28.5494 192.982 28.5494 193.052C28.5494 193.121 28.5285 193.189 28.4895 193.246C28.4506 193.303 28.3954 193.347 28.3316 193.371C28.1632 193.457 27.9775 193.502 27.7892 193.502C27.6009 193.502 27.4152 193.457 27.2468 193.371C27.183 193.347 27.1278 193.303 27.0889 193.246C27.0499 193.189 27.029 193.121 27.029 193.052C27.029 192.982 27.0499 192.914 27.0889 192.857C27.1278 192.8 27.183 192.757 27.2468 192.733C27.4144 192.644 27.6004 192.597 27.7892 192.597C27.9779 192.597 28.1639 192.644 28.3316 192.733Z" fill="white"/>
<path d="M31.1541 191.06C31.2203 191.082 31.2782 191.124 31.3193 191.182C31.3603 191.239 31.3825 191.308 31.3825 191.379C31.3825 191.451 31.3603 191.52 31.3193 191.577C31.2782 191.635 31.2203 191.677 31.1541 191.698C30.9866 191.785 30.8017 191.83 30.6142 191.83C30.4267 191.83 30.2417 191.785 30.0743 191.698C30.0104 191.675 29.9553 191.631 29.9163 191.574C29.8773 191.517 29.8564 191.449 29.8564 191.379C29.8564 191.31 29.8773 191.242 29.9163 191.185C29.9553 191.128 30.0104 191.084 30.0743 191.06C30.241 190.972 30.4262 190.925 30.6142 190.925C30.8021 190.925 30.9873 190.972 31.1541 191.06Z" fill="white"/>
<path d="M22.6615 192.733C22.7278 192.754 22.7857 192.796 22.8267 192.854C22.8678 192.911 22.8899 192.98 22.8899 193.052C22.8899 193.123 22.8678 193.192 22.8267 193.249C22.7857 193.307 22.7278 193.349 22.6615 193.371C22.4941 193.457 22.3092 193.502 22.1217 193.502C21.9342 193.502 21.7493 193.457 21.5818 193.371C21.518 193.347 21.4628 193.303 21.4239 193.246C21.3849 193.189 21.364 193.121 21.364 193.052C21.364 192.982 21.3849 192.914 21.4239 192.857C21.4628 192.8 21.518 192.757 21.5818 192.733C21.7486 192.644 21.9337 192.597 22.1217 192.597C22.3096 192.597 22.4948 192.644 22.6615 192.733Z" fill="white"/>
<path d="M25.5042 191.06C25.568 191.084 25.6232 191.128 25.6622 191.185C25.7011 191.242 25.722 191.31 25.722 191.379C25.722 191.449 25.7011 191.517 25.6622 191.574C25.6232 191.631 25.568 191.675 25.5042 191.698C25.3367 191.785 25.1518 191.83 24.9643 191.83C24.7768 191.83 24.5919 191.785 24.4244 191.698C24.3582 191.677 24.3003 191.635 24.2592 191.577C24.2181 191.52 24.196 191.451 24.196 191.379C24.196 191.308 24.2181 191.239 24.2592 191.182C24.3003 191.124 24.3582 191.082 24.4244 191.06C24.5912 190.972 24.7763 190.925 24.9643 190.925C25.1522 190.925 25.3374 190.972 25.5042 191.06Z" fill="white"/>
<path d="M28.3316 189.388C28.3954 189.412 28.4506 189.455 28.4895 189.513C28.5285 189.57 28.5494 189.638 28.5494 189.707C28.5494 189.777 28.5285 189.845 28.4895 189.902C28.4506 189.959 28.3954 190.002 28.3316 190.026C28.1632 190.113 27.9775 190.158 27.7892 190.158C27.6009 190.158 27.4152 190.113 27.2468 190.026C27.183 190.002 27.1278 189.959 27.0889 189.902C27.0499 189.845 27.029 189.777 27.029 189.707C27.029 189.638 27.0499 189.57 27.0889 189.513C27.1278 189.455 27.183 189.412 27.2468 189.388C27.4152 189.302 27.6009 189.257 27.7892 189.257C27.9775 189.257 28.1632 189.302 28.3316 189.388Z" fill="white"/>
<path d="M106.442 192.763C106.609 192.676 106.794 192.63 106.982 192.63C107.17 192.63 107.355 192.676 107.522 192.763C107.818 192.944 107.823 193.227 107.522 193.407C107.355 193.493 107.17 193.538 106.982 193.538C106.795 193.538 106.61 193.493 106.442 193.407C106.374 193.387 106.314 193.344 106.271 193.286C106.229 193.228 106.205 193.158 106.205 193.085C106.205 193.012 106.229 192.942 106.271 192.884C106.314 192.826 106.374 192.783 106.442 192.763Z" fill="white"/>
<path d="M110.349 191.107C110.415 191.13 110.472 191.173 110.512 191.23C110.553 191.288 110.574 191.357 110.574 191.428C110.574 191.499 110.553 191.568 110.512 191.626C110.472 191.684 110.415 191.727 110.349 191.75C110.182 191.836 109.997 191.881 109.81 191.881C109.622 191.881 109.437 191.836 109.27 191.75C109.204 191.727 109.147 191.684 109.107 191.626C109.066 191.568 109.045 191.499 109.045 191.428C109.045 191.357 109.066 191.288 109.107 191.23C109.147 191.173 109.204 191.13 109.27 191.107C109.437 191.02 109.622 190.975 109.81 190.975C109.997 190.975 110.182 191.02 110.349 191.107Z" fill="white"/>
<path d="M113.177 189.434C113.243 189.457 113.3 189.501 113.34 189.558C113.38 189.616 113.402 189.685 113.402 189.756C113.402 189.827 113.38 189.896 113.34 189.954C113.3 190.011 113.243 190.055 113.177 190.078C113.009 190.164 112.825 190.209 112.637 190.209C112.45 190.209 112.265 190.164 112.097 190.078C112.032 190.055 111.975 190.011 111.934 189.954C111.894 189.896 111.872 189.827 111.872 189.756C111.872 189.685 111.894 189.616 111.934 189.558C111.975 189.501 112.032 189.457 112.097 189.434C112.265 189.348 112.45 189.303 112.637 189.303C112.825 189.303 113.009 189.348 113.177 189.434Z" fill="white"/>
<path d="M103.615 191.112C103.782 191.024 103.967 190.979 104.155 190.979C104.342 190.979 104.527 191.024 104.694 191.112C104.76 191.135 104.817 191.178 104.857 191.236C104.898 191.293 104.919 191.363 104.919 191.433C104.919 191.504 104.898 191.574 104.857 191.631C104.817 191.689 104.76 191.732 104.694 191.755C104.526 191.842 104.34 191.887 104.152 191.887C103.964 191.887 103.778 191.842 103.61 191.755C103.544 191.732 103.488 191.688 103.448 191.63C103.408 191.572 103.387 191.503 103.387 191.432C103.388 191.361 103.41 191.292 103.451 191.234C103.492 191.177 103.549 191.134 103.615 191.112Z" fill="white"/>
<path d="M106.985 190.211C107.406 190.211 107.748 190.009 107.748 189.759C107.748 189.509 107.406 189.306 106.985 189.306C106.563 189.306 106.221 189.509 106.221 189.759C106.221 190.009 106.563 190.211 106.985 190.211Z" fill="white"/>
<path d="M110.35 187.767C110.416 187.789 110.474 187.831 110.515 187.889C110.556 187.946 110.578 188.015 110.578 188.086C110.578 188.158 110.556 188.227 110.515 188.284C110.474 188.342 110.416 188.384 110.35 188.405C110.182 188.492 109.997 188.537 109.81 188.537C109.622 188.537 109.437 188.492 109.27 188.405C109.206 188.382 109.151 188.338 109.112 188.281C109.073 188.224 109.052 188.156 109.052 188.086C109.052 188.017 109.073 187.949 109.112 187.892C109.151 187.835 109.206 187.791 109.27 187.767C109.437 187.678 109.622 187.632 109.81 187.632C109.998 187.632 110.183 187.678 110.35 187.767Z" fill="white"/>
<path d="M113.177 186.075C113.241 186.099 113.296 186.142 113.335 186.199C113.374 186.256 113.395 186.324 113.395 186.394C113.395 186.463 113.374 186.531 113.335 186.588C113.296 186.645 113.241 186.689 113.177 186.713C113.009 186.799 112.825 186.844 112.637 186.844C112.45 186.844 112.265 186.799 112.097 186.713C112.031 186.691 111.973 186.649 111.932 186.591C111.891 186.534 111.869 186.465 111.869 186.394C111.869 186.323 111.891 186.253 111.932 186.196C111.973 186.138 112.031 186.096 112.097 186.075C112.264 185.986 112.449 185.939 112.637 185.939C112.825 185.939 113.01 185.986 113.177 186.075Z" fill="white"/>
<path d="M116.004 184.423C116.068 184.447 116.123 184.49 116.162 184.547C116.201 184.604 116.222 184.672 116.222 184.742C116.222 184.812 116.201 184.88 116.162 184.937C116.123 184.994 116.068 185.037 116.004 185.061C115.836 185.147 115.65 185.192 115.462 185.192C115.274 185.192 115.088 185.147 114.92 185.061C114.856 185.037 114.801 184.994 114.762 184.937C114.723 184.88 114.702 184.812 114.702 184.742C114.702 184.672 114.723 184.604 114.762 184.547C114.801 184.49 114.856 184.447 114.92 184.423C115.088 184.337 115.274 184.292 115.462 184.292C115.65 184.292 115.836 184.337 116.004 184.423Z" fill="white"/>
<path d="M100.787 189.44C100.955 189.352 101.141 189.306 101.33 189.306C101.518 189.306 101.704 189.352 101.872 189.44C101.936 189.464 101.991 189.507 102.03 189.564C102.069 189.621 102.09 189.689 102.09 189.759C102.09 189.828 102.069 189.896 102.03 189.953C101.991 190.01 101.936 190.054 101.872 190.078C101.705 190.164 101.52 190.209 101.332 190.209C101.145 190.209 100.96 190.164 100.792 190.078C100.726 190.057 100.668 190.015 100.626 189.958C100.585 189.901 100.562 189.832 100.561 189.761C100.561 189.689 100.582 189.62 100.623 189.562C100.664 189.504 100.721 189.462 100.787 189.44Z" fill="white"/>
<path d="M104.7 187.767C104.763 187.791 104.819 187.835 104.858 187.892C104.896 187.949 104.917 188.017 104.917 188.086C104.917 188.156 104.896 188.224 104.858 188.281C104.819 188.338 104.763 188.382 104.7 188.405C104.532 188.492 104.347 188.537 104.16 188.537C103.972 188.537 103.787 188.492 103.62 188.405C103.554 188.384 103.496 188.342 103.455 188.284C103.414 188.227 103.391 188.158 103.391 188.086C103.391 188.015 103.414 187.946 103.455 187.889C103.496 187.831 103.554 187.789 103.62 187.767C103.787 187.678 103.972 187.632 104.16 187.632C104.348 187.632 104.533 187.678 104.7 187.767Z" fill="white"/>
<path d="M107.537 186.075C107.601 186.098 107.656 186.142 107.695 186.199C107.734 186.256 107.755 186.324 107.755 186.394C107.755 186.463 107.734 186.531 107.695 186.588C107.656 186.645 107.601 186.689 107.537 186.713C107.369 186.799 107.183 186.844 106.995 186.844C106.806 186.844 106.621 186.799 106.452 186.713C106.388 186.689 106.333 186.645 106.294 186.588C106.255 186.531 106.234 186.463 106.234 186.394C106.234 186.324 106.255 186.256 106.294 186.199C106.333 186.142 106.388 186.098 106.452 186.075C106.62 185.986 106.806 185.939 106.995 185.939C107.183 185.939 107.369 185.986 107.537 186.075Z" fill="white"/>
<path d="M110.35 184.423C110.416 184.444 110.474 184.487 110.515 184.544C110.556 184.601 110.578 184.671 110.578 184.742C110.578 184.813 110.556 184.882 110.515 184.94C110.474 184.997 110.416 185.04 110.35 185.061C110.182 185.147 109.997 185.192 109.81 185.192C109.622 185.192 109.437 185.147 109.27 185.061C109.206 185.037 109.151 184.994 109.112 184.937C109.073 184.88 109.052 184.812 109.052 184.742C109.052 184.672 109.073 184.604 109.112 184.547C109.151 184.49 109.206 184.447 109.27 184.423C109.437 184.337 109.622 184.292 109.81 184.292C109.997 184.292 110.182 184.337 110.35 184.423Z" fill="white"/>
<path d="M113.177 182.751C113.241 182.775 113.296 182.818 113.335 182.875C113.374 182.932 113.395 183 113.395 183.07C113.395 183.139 113.374 183.207 113.335 183.264C113.296 183.321 113.241 183.365 113.177 183.389C113.01 183.478 112.825 183.524 112.637 183.524C112.449 183.524 112.264 183.478 112.097 183.389C112.031 183.367 111.973 183.325 111.932 183.268C111.891 183.21 111.869 183.141 111.869 183.07C111.869 182.999 111.891 182.929 111.932 182.872C111.973 182.815 112.031 182.772 112.097 182.751C112.265 182.664 112.45 182.619 112.637 182.619C112.825 182.619 113.009 182.664 113.177 182.751Z" fill="white"/>
<path d="M97.9647 187.767C98.1322 187.681 98.3171 187.636 98.5046 187.636C98.6921 187.636 98.877 187.681 99.0445 187.767C99.1107 187.789 99.1686 187.831 99.2097 187.889C99.2508 187.946 99.2729 188.015 99.2729 188.086C99.2729 188.157 99.2508 188.227 99.2097 188.284C99.1686 188.342 99.1107 188.384 99.0445 188.405C98.877 188.492 98.6921 188.537 98.5046 188.537C98.3171 188.537 98.1322 188.492 97.9647 188.405C97.8984 188.384 97.8406 188.342 97.7995 188.284C97.7584 188.227 97.7363 188.157 97.7363 188.086C97.7363 188.015 97.7584 187.946 97.7995 187.889C97.8406 187.831 97.8984 187.789 97.9647 187.767Z" fill="white"/>
<path d="M101.872 186.075C101.938 186.096 101.996 186.138 102.037 186.196C102.078 186.253 102.1 186.323 102.1 186.394C102.1 186.465 102.078 186.534 102.037 186.591C101.996 186.649 101.938 186.691 101.872 186.713C101.704 186.799 101.52 186.844 101.332 186.844C101.145 186.844 100.96 186.799 100.792 186.713C100.728 186.689 100.673 186.645 100.634 186.588C100.595 186.531 100.574 186.463 100.574 186.394C100.574 186.324 100.595 186.256 100.634 186.199C100.673 186.142 100.728 186.099 100.792 186.075C100.959 185.986 101.144 185.939 101.332 185.939C101.52 185.939 101.705 185.986 101.872 186.075Z" fill="white"/>
<path d="M104.7 184.423C104.763 184.447 104.819 184.49 104.858 184.547C104.896 184.604 104.917 184.672 104.917 184.742C104.917 184.812 104.896 184.88 104.858 184.937C104.819 184.994 104.763 185.037 104.7 185.061C104.532 185.147 104.347 185.192 104.16 185.192C103.972 185.192 103.787 185.147 103.62 185.061C103.554 185.04 103.496 184.997 103.455 184.94C103.414 184.882 103.391 184.813 103.391 184.742C103.391 184.671 103.414 184.601 103.455 184.544C103.496 184.487 103.554 184.444 103.62 184.423C103.787 184.337 103.972 184.292 104.16 184.292C104.347 184.292 104.532 184.337 104.7 184.423Z" fill="white"/>
<path d="M118.526 182.298C118.59 182.322 118.645 182.365 118.684 182.422C118.723 182.479 118.744 182.547 118.744 182.617C118.744 182.686 118.723 182.754 118.684 182.812C118.645 182.869 118.59 182.912 118.526 182.936C118.359 183.025 118.174 183.071 117.986 183.071C117.798 183.071 117.613 183.025 117.446 182.936C117.38 182.914 117.322 182.872 117.281 182.815C117.24 182.757 117.217 182.688 117.217 182.617C117.217 182.546 117.24 182.476 117.281 182.419C117.322 182.362 117.38 182.319 117.446 182.298C117.613 182.211 117.798 182.166 117.986 182.166C118.173 182.166 118.358 182.211 118.526 182.298Z" fill="white"/>
<path d="M115.161 181.397C115.582 181.397 115.924 181.195 115.924 180.945C115.924 180.695 115.582 180.492 115.161 180.492C114.739 180.492 114.397 180.695 114.397 180.945C114.397 181.195 114.739 181.397 115.161 181.397Z" fill="white"/>
<path d="M112.333 179.73C112.755 179.73 113.097 179.528 113.097 179.278C113.097 179.028 112.755 178.825 112.333 178.825C111.912 178.825 111.57 179.028 111.57 179.278C111.57 179.528 111.912 179.73 112.333 179.73Z" fill="white"/>
<path d="M117.983 186.867C118.405 186.867 118.747 186.664 118.747 186.414C118.747 186.164 118.405 185.961 117.983 185.961C117.562 185.961 117.22 186.164 117.22 186.414C117.22 186.664 117.562 186.867 117.983 186.867Z" fill="white"/>
<path d="M114.618 187.767C114.786 187.68 114.971 187.634 115.158 187.634C115.346 187.634 115.531 187.68 115.698 187.767C115.764 187.79 115.821 187.833 115.861 187.891C115.901 187.949 115.923 188.018 115.923 188.089C115.923 188.16 115.901 188.229 115.861 188.287C115.821 188.345 115.764 188.388 115.698 188.411C115.531 188.497 115.346 188.542 115.158 188.542C114.971 188.542 114.786 188.497 114.618 188.411C114.553 188.388 114.496 188.345 114.455 188.287C114.415 188.229 114.393 188.16 114.393 188.089C114.393 188.018 114.415 187.949 114.455 187.891C114.496 187.833 114.553 187.79 114.618 187.767Z" fill="white"/>
<path d="M107.537 182.751C107.601 182.775 107.656 182.818 107.695 182.875C107.734 182.932 107.755 183 107.755 183.07C107.755 183.139 107.734 183.207 107.695 183.264C107.656 183.321 107.601 183.365 107.537 183.389C107.369 183.478 107.183 183.524 106.995 183.524C106.806 183.524 106.62 183.478 106.452 183.389C106.388 183.365 106.333 183.321 106.294 183.264C106.255 183.207 106.234 183.139 106.234 183.07C106.234 183 106.255 182.932 106.294 182.875C106.333 182.818 106.388 182.775 106.452 182.751C106.621 182.664 106.806 182.619 106.995 182.619C107.183 182.619 107.369 182.664 107.537 182.751Z" fill="white"/>
<path d="M110.35 181.079C110.416 181.1 110.474 181.142 110.515 181.2C110.556 181.257 110.578 181.326 110.578 181.397C110.578 181.469 110.556 181.538 110.515 181.595C110.474 181.653 110.416 181.695 110.35 181.716C110.183 181.805 109.998 181.852 109.81 181.852C109.622 181.852 109.437 181.805 109.27 181.716C109.206 181.693 109.151 181.649 109.112 181.592C109.073 181.535 109.052 181.467 109.052 181.397C109.052 181.328 109.073 181.26 109.112 181.203C109.151 181.146 109.206 181.102 109.27 181.079C109.437 180.992 109.622 180.947 109.81 180.947C109.997 180.947 110.182 180.992 110.35 181.079Z" fill="white"/>
<path d="M18.3123 168.472L13.6014 165.684V141.3L18.3123 144.089V168.472Z" fill="#565656"/>
<path d="M17.4585 166.898L11.9943 163.667V138.393L17.4585 141.624V166.898ZM12.7426 163.219L16.7102 165.565V142.072L12.7426 139.726V163.219Z" fill="white"/>
<path d="M75.897 186.512L70.4279 189.748V164.464L75.897 161.243V186.512ZM71.1812 188.416L75.1437 186.069V162.576L71.1812 164.917V188.416Z" fill="white"/>
<path d="M84.696 181.752L79.2318 184.989V159.715L84.696 156.484V181.752ZM79.9801 183.656L83.9477 181.31V157.817L79.9801 160.158V183.656Z" fill="white"/>
<path d="M93.505 177.158L88.0358 180.415V155.115L93.505 151.884V177.158ZM88.7892 179.056L92.7517 176.71V153.217L88.7892 155.563V179.056Z" fill="white"/>
<path d="M101.777 172.64L96.3074 175.871V150.603L101.777 147.366V172.64ZM97.0607 174.539L101.008 172.182V148.699L97.0456 151.045L97.0607 174.539Z" fill="white"/>
<path d="M109.596 168.833L104.132 172.069V146.795L109.596 143.564V168.833ZM104.88 170.736L108.848 168.39V144.912L104.88 147.253V170.736Z" fill="white"/>
<path d="M24.9767 172.501L20.2609 169.712V145.329L24.9767 148.118V172.501Z" fill="#565656"/>
<path d="M24.123 170.922L18.6437 167.69V142.422L24.1129 145.653L24.123 170.922ZM19.4071 167.248L23.3696 169.61V146.095L19.4071 143.754V167.248Z" fill="white"/>
<path d="M56.8578 190.093L52.142 187.304V162.921L56.8578 165.715V190.093Z" fill="#565656"/>
<path d="M55.999 188.519L50.5349 185.287V160.013L55.999 163.25V188.519ZM51.2882 184.84L55.2557 187.186V163.692L51.2882 161.346V184.84Z" fill="white"/>
<path d="M49.646 185.653L44.9301 182.864V158.48L49.646 161.269V185.653Z" fill="#565656"/>
<path d="M48.777 184.078L43.3079 180.842V155.573L48.777 158.804V184.078ZM44.0763 180.415L48.0388 182.761V159.247L44.0763 156.906V180.415Z" fill="white"/>
<path d="M40.2695 164.557L26.9003 157.986V182.164L39.8828 189.707L40.2695 164.557Z" fill="white"/>
<path d="M39.5964 165.339L27.4929 159.386V182.771L39.2498 189.604L39.5964 165.339Z" fill="#565656"/>
<path d="M26.9003 148.313L42.6449 156.391V164.552L26.9003 156.705V148.313Z" fill="#565656"/>
<path d="M26.9053 147.809L41.3944 155.244V162.406L26.9053 155.203V147.809ZM26.2775 146.78V155.583L42.0222 163.435V154.848L26.2775 146.77V146.78Z" fill="white"/>
</svg>
