<svg width="28" height="29" viewBox="0 0 28 29" fill="none" xmlns="http://www.w3.org/2000/svg">
<g clip-path="url(#clip0)">
<path d="M10.7406 2.78144C10.7378 4.31046 10.9815 5.83006 11.4626 7.28263C11.7051 7.98736 11.4832 8.85381 11.038 9.28374L8.87852 12.1224C10.6492 15.4159 12.6921 17.4414 15.9836 19.1749L18.7698 17.0949C19.0367 16.8291 19.3725 16.6416 19.7399 16.5531C20.1074 16.4646 20.4924 16.4785 20.8524 16.5933C22.3186 17.0721 23.8525 17.3149 25.396 17.3125C25.9372 17.3132 26.456 17.5269 26.8386 17.9068C27.2212 18.2866 27.4364 18.8015 27.4369 19.3386L27.4369 23.9746C27.4364 24.5116 27.2212 25.0265 26.8385 25.4062C26.4559 25.7859 25.9371 25.9995 25.396 26C12.4953 26 1.99995 15.5842 1.99995 2.78144C2.00047 2.24442 2.21567 1.72955 2.5983 1.34982C2.98093 0.970087 3.49974 0.756527 4.04086 0.756004L8.69967 0.756004C9.24074 0.7567 9.75945 0.970318 10.142 1.35001C10.5246 1.7297 10.7399 2.24447 10.7406 2.78144Z" fill="white"/>
<path d="M1.00003 5.18985C1.00003 18.0833 11.5696 28.5728 24.5617 28.5728C25.1467 28.5722 25.7076 28.3414 26.1213 27.9308C26.535 27.5203 26.7677 26.9636 26.7682 26.383L26.7682 21.747C26.7677 21.1663 26.535 20.6096 26.1214 20.1989C25.7077 19.7883 25.1468 19.5573 24.5617 19.5566C23.0359 19.5588 21.5197 19.3186 20.0705 18.8453C19.6828 18.7221 19.2686 18.7067 18.8728 18.8009C18.477 18.895 18.1148 19.095 17.8255 19.3791L15.1328 21.3887C11.9684 19.7045 9.95993 17.7106 8.23897 14.5452L10.3269 11.8006C10.839 11.2971 11.0357 10.3701 10.784 9.63778C10.3086 8.20241 10.0677 6.70077 10.0706 5.18985C10.0699 4.60929 9.83716 4.05272 9.42351 3.6422C9.00986 3.23169 8.44903 3.00076 7.86403 3.00006L3.20523 3.00006C2.62042 3.00093 2.05983 3.23196 1.64642 3.64247C1.23302 4.05299 1.00056 4.60947 1.00003 5.18985ZM26.437 26.383C26.4365 26.8764 26.2387 27.3495 25.8871 27.6984C25.5356 28.0473 25.0589 28.2435 24.5617 28.2441C11.7524 28.2441 1.33125 17.9019 1.33125 5.18985C1.33177 4.69641 1.52952 4.22334 1.88109 3.87443C2.23267 3.52553 2.70935 3.32928 3.20656 3.32876L7.86536 3.32876C8.36256 3.32928 8.83925 3.52553 9.19082 3.87443C9.5424 4.22334 9.74015 4.69641 9.74067 5.18985C9.73703 6.73643 9.98303 8.27361 10.4693 9.74297C10.7058 10.4299 10.4601 11.2129 10.0858 11.5745L10.0692 11.5929L7.84681 14.515L7.89649 14.6077C9.6784 17.921 11.7571 19.9839 15.0698 21.7286L15.1632 21.7773L18.0507 19.6197C18.2969 19.3759 18.6059 19.2041 18.9439 19.1229C19.2819 19.0417 19.6359 19.0544 19.9671 19.1595C21.4491 19.6436 22.9995 19.889 24.5597 19.8866C25.0571 19.8868 25.5341 20.0827 25.886 20.4315C26.2379 20.7803 26.4361 21.2534 26.437 21.747L26.437 26.383Z" fill="black" stroke="#050505" stroke-width="0.5"/>
</g>
<defs>
<clipPath id="clip0">
<rect width="29" height="28" transform="matrix(1.19249e-08 -1 -1 -1.19249e-08 28 29)" fill="white"/>
</clipPath>
</defs>
</svg>
