<svg width="131" height="220" viewBox="0 0 131 178" fill="none" xmlns="http://www.w3.org/2000/svg">
<path d="M20.8556 151.548C21.2867 151.548 21.6361 151.346 21.6361 151.098C21.6361 150.849 21.2867 150.647 20.8556 150.647C20.4245 150.647 20.0751 150.849 20.0751 151.098C20.0751 151.346 20.4245 151.548 20.8556 151.548Z" fill="white"/>
<path d="M24.2853 149.111C24.3529 149.132 24.412 149.174 24.454 149.231C24.496 149.288 24.5186 149.357 24.5186 149.428C24.5186 149.499 24.496 149.568 24.454 149.625C24.412 149.683 24.3529 149.725 24.2853 149.746C24.1157 149.835 23.927 149.882 23.7354 149.882C23.5438 149.882 23.3551 149.835 23.1855 149.746C23.1207 149.722 23.0648 149.678 23.0254 149.622C22.9859 149.565 22.9647 149.498 22.9647 149.428C22.9647 149.359 22.9859 149.292 23.0254 149.235C23.0648 149.178 23.1207 149.135 23.1855 149.111C23.3551 149.022 23.5438 148.975 23.7354 148.975C23.927 148.975 24.1157 149.022 24.2853 149.111Z" fill="white"/>
<path d="M18.6442 152.177C18.711 152.199 18.769 152.242 18.8101 152.3C18.8512 152.357 18.8733 152.426 18.8733 152.497C18.8733 152.568 18.8512 152.636 18.8101 152.694C18.769 152.751 18.711 152.794 18.6442 152.817C18.4746 152.906 18.2858 152.953 18.0943 152.953C17.9027 152.953 17.7139 152.906 17.5443 152.817C17.4775 152.794 17.4195 152.751 17.3784 152.694C17.3373 152.636 17.3152 152.568 17.3152 152.497C17.3152 152.426 17.3373 152.357 17.3784 152.3C17.4195 152.242 17.4775 152.199 17.5443 152.177C17.7153 152.092 17.9035 152.048 18.0943 152.048C18.285 152.048 18.4732 152.092 18.6442 152.177Z" fill="white"/>
<path d="M15.2086 151.554C15.6397 151.554 15.9892 151.352 15.9892 151.103C15.9892 150.855 15.6397 150.653 15.2086 150.653C14.7776 150.653 14.4281 150.855 14.4281 151.103C14.4281 151.352 14.7776 151.554 15.2086 151.554Z" fill="white"/>
<path d="M18.6383 149.117C18.7051 149.14 18.7631 149.183 18.8042 149.24C18.8453 149.298 18.8675 149.367 18.8675 149.437C18.8675 149.508 18.8453 149.577 18.8042 149.634C18.7631 149.692 18.7051 149.735 18.6383 149.757C18.4687 149.847 18.28 149.893 18.0884 149.893C17.8968 149.893 17.7081 149.847 17.5385 149.757C17.4717 149.735 17.4136 149.692 17.3725 149.634C17.3314 149.577 17.3093 149.508 17.3093 149.437C17.3093 149.367 17.3314 149.298 17.3725 149.24C17.4136 149.183 17.4717 149.14 17.5385 149.117C17.7095 149.032 17.8977 148.988 18.0884 148.988C18.2791 148.988 18.4673 149.032 18.6383 149.117Z" fill="white"/>
<path d="M21.518 147.451C21.5848 147.473 21.6428 147.517 21.6839 147.574C21.725 147.631 21.7471 147.7 21.7471 147.771C21.7471 147.842 21.725 147.911 21.6839 147.968C21.6428 148.026 21.5848 148.069 21.518 148.091C21.3469 148.176 21.1588 148.22 20.968 148.22C20.7773 148.22 20.5891 148.176 20.4181 148.091C20.3513 148.069 20.2933 148.026 20.2522 147.968C20.2111 147.911 20.189 147.842 20.189 147.771C20.189 147.7 20.2111 147.631 20.2522 147.574C20.2933 147.517 20.3513 147.473 20.4181 147.451C20.5877 147.361 20.7764 147.315 20.968 147.315C21.1596 147.315 21.3483 147.361 21.518 147.451Z" fill="white"/>
<path d="M12.8788 149.117C12.9456 149.14 13.0037 149.183 13.0448 149.24C13.0859 149.298 13.108 149.367 13.108 149.437C13.108 149.508 13.0859 149.577 13.0448 149.634C13.0037 149.692 12.9456 149.735 12.8788 149.757C12.7076 149.845 12.5181 149.89 12.326 149.89C12.1338 149.89 11.9443 149.845 11.7731 149.757C11.7063 149.735 11.6483 149.692 11.6072 149.634C11.5661 149.577 11.5439 149.508 11.5439 149.437C11.5439 149.367 11.5661 149.298 11.6072 149.24C11.6483 149.183 11.7063 149.14 11.7731 149.117C11.9451 149.032 12.1343 148.988 12.326 148.988C12.5177 148.988 12.7068 149.032 12.8788 149.117Z" fill="white"/>
<path d="M15.7586 147.451C15.8253 147.473 15.8834 147.517 15.9245 147.574C15.9656 147.631 15.9877 147.7 15.9877 147.771C15.9877 147.842 15.9656 147.911 15.9245 147.968C15.8834 148.026 15.8253 148.069 15.7586 148.091C15.5875 148.176 15.3994 148.22 15.2086 148.22C15.0179 148.22 14.8297 148.176 14.6587 148.091C14.5919 148.069 14.5339 148.026 14.4928 147.968C14.4517 147.911 14.4296 147.842 14.4296 147.771C14.4296 147.7 14.4517 147.631 14.4928 147.574C14.5339 147.517 14.5919 147.473 14.6587 147.451C14.8283 147.361 15.017 147.315 15.2086 147.315C15.4002 147.315 15.5889 147.361 15.7586 147.451Z" fill="white"/>
<path d="M18.6382 145.785C18.7058 145.806 18.7649 145.848 18.8069 145.905C18.8489 145.962 18.8715 146.031 18.8715 146.102C18.8715 146.173 18.8489 146.242 18.8069 146.299C18.7649 146.356 18.7058 146.398 18.6382 146.419C18.4686 146.508 18.2799 146.555 18.0883 146.555C17.8967 146.555 17.708 146.508 17.5384 146.419C17.4708 146.398 17.4117 146.356 17.3697 146.299C17.3277 146.242 17.3051 146.173 17.3051 146.102C17.3051 146.031 17.3277 145.962 17.3697 145.905C17.4117 145.848 17.4708 145.806 17.5384 145.785C17.708 145.695 17.8967 145.649 18.0883 145.649C18.2799 145.649 18.4686 145.695 18.6382 145.785Z" fill="white"/>
<path d="M9.99921 147.451C10.066 147.473 10.124 147.517 10.1651 147.574C10.2062 147.631 10.2284 147.7 10.2284 147.771C10.2284 147.842 10.2062 147.911 10.1651 147.968C10.124 148.025 10.066 148.069 9.99921 148.091C9.82717 148.176 9.63803 148.22 9.44633 148.22C9.25464 148.22 9.0655 148.176 8.89345 148.091C8.82666 148.069 8.76863 148.025 8.72752 147.968C8.68642 147.911 8.66431 147.842 8.66431 147.771C8.66431 147.7 8.68642 147.631 8.72752 147.574C8.76863 147.517 8.82666 147.473 8.89345 147.451C9.0647 147.363 9.25415 147.318 9.44633 147.318C9.63851 147.318 9.82797 147.363 9.99921 147.451Z" fill="white"/>
<path d="M12.8788 145.785C12.9435 145.808 12.9994 145.852 13.0389 145.908C13.0784 145.965 13.0995 146.033 13.0995 146.102C13.0995 146.171 13.0784 146.238 13.0389 146.295C12.9994 146.352 12.9435 146.395 12.8788 146.419C12.7075 146.506 12.5181 146.552 12.3259 146.552C12.1337 146.552 11.9443 146.506 11.773 146.419C11.7083 146.395 11.6524 146.352 11.6129 146.295C11.5734 146.238 11.5522 146.171 11.5522 146.102C11.5522 146.033 11.5734 145.965 11.6129 145.908C11.6524 145.852 11.7083 145.808 11.773 145.785C11.9443 145.697 12.1337 145.651 12.3259 145.651C12.5181 145.651 12.7075 145.697 12.8788 145.785Z" fill="white"/>
<path d="M15.7586 144.089C15.8253 144.111 15.8834 144.154 15.9245 144.212C15.9656 144.269 15.9877 144.338 15.9877 144.409C15.9877 144.48 15.9656 144.549 15.9245 144.606C15.8834 144.663 15.8253 144.706 15.7586 144.729C15.5889 144.818 15.4002 144.865 15.2086 144.865C15.017 144.865 14.8283 144.818 14.6587 144.729C14.5919 144.706 14.5339 144.663 14.4928 144.606C14.4517 144.549 14.4296 144.48 14.4296 144.409C14.4296 144.338 14.4517 144.269 14.4928 144.212C14.5339 144.154 14.5919 144.111 14.6587 144.089C14.8297 144.004 15.0179 143.96 15.2086 143.96C15.3994 143.96 15.5875 144.004 15.7586 144.089Z" fill="white"/>
<path d="M6.53994 146.538C6.97101 146.538 7.32047 146.336 7.32047 146.087C7.32047 145.838 6.97101 145.636 6.53994 145.636C6.10886 145.636 5.7594 145.838 5.7594 146.087C5.7594 146.336 6.10886 146.538 6.53994 146.538Z" fill="white"/>
<path d="M9.96953 144.089C10.277 144.261 10.277 144.545 9.96953 144.723C9.79992 144.813 9.6112 144.859 9.41961 144.859C9.22802 144.859 9.0393 144.813 8.86969 144.723C8.80494 144.699 8.74905 144.656 8.70957 144.599C8.67009 144.543 8.64893 144.475 8.64893 144.406C8.64893 144.337 8.67009 144.269 8.70957 144.213C8.74905 144.156 8.80494 144.113 8.86969 144.089C9.0393 143.999 9.22802 143.953 9.41961 143.953C9.6112 143.953 9.79992 143.999 9.96953 144.089Z" fill="white"/>
<path d="M12.8552 142.428C12.922 142.451 12.98 142.494 13.0211 142.552C13.0622 142.609 13.0843 142.678 13.0843 142.749C13.0843 142.819 13.0622 142.888 13.0211 142.946C12.98 143.003 12.922 143.046 12.8552 143.069C12.6839 143.156 12.4945 143.202 12.3023 143.202C12.1101 143.202 11.9207 143.156 11.7494 143.069C11.6826 143.046 11.6246 143.003 11.5835 142.946C11.5424 142.888 11.5203 142.819 11.5203 142.749C11.5203 142.678 11.5424 142.609 11.5835 142.552C11.6246 142.494 11.6826 142.451 11.7494 142.428C11.9215 142.344 12.1106 142.3 12.3023 142.3C12.494 142.3 12.6831 142.344 12.8552 142.428Z" fill="white"/>
<path d="M3.6603 144.866C4.09138 144.866 4.44083 144.664 4.44083 144.415C4.44083 144.166 4.09138 143.964 3.6603 143.964C3.22922 143.964 2.87976 144.166 2.87976 144.415C2.87976 144.664 3.22922 144.866 3.6603 144.866Z" fill="white"/>
<path d="M7.09571 142.428C7.16251 142.451 7.22054 142.494 7.26165 142.552C7.30275 142.609 7.32486 142.678 7.32486 142.749C7.32486 142.819 7.30275 142.888 7.26165 142.946C7.22054 143.003 7.16251 143.046 7.09571 143.069C6.9261 143.158 6.73738 143.205 6.54579 143.205C6.3542 143.205 6.16548 143.158 5.99587 143.069C5.92908 143.046 5.87104 143.003 5.82994 142.946C5.78883 142.888 5.76672 142.819 5.76672 142.749C5.76672 142.678 5.78883 142.609 5.82994 142.552C5.87104 142.494 5.92908 142.451 5.99587 142.428C6.16688 142.344 6.35505 142.3 6.54579 142.3C6.73653 142.3 6.9247 142.344 7.09571 142.428Z" fill="white"/>
<path d="M9.4197 141.533C9.85077 141.533 10.2002 141.331 10.2002 141.082C10.2002 140.834 9.85077 140.632 9.4197 140.632C8.98862 140.632 8.63916 140.834 8.63916 141.082C8.63916 141.331 8.98862 141.533 9.4197 141.533Z" fill="white"/>
<path d="M1.33046 142.428C1.39725 142.451 1.45528 142.494 1.49639 142.552C1.53749 142.609 1.5596 142.678 1.5596 142.749C1.5596 142.819 1.53749 142.888 1.49639 142.946C1.45528 143.003 1.39725 143.046 1.33046 143.069C1.16084 143.158 0.972121 143.205 0.780533 143.205C0.588945 143.205 0.400225 143.158 0.23061 143.069C0.163817 143.046 0.105785 143.003 0.064679 142.946C0.0235735 142.888 0.00146484 142.819 0.00146484 142.749C0.00146484 142.678 0.0235735 142.609 0.064679 142.552C0.105785 142.494 0.163817 142.451 0.23061 142.428C0.401623 142.344 0.589796 142.3 0.780533 142.3C0.97127 142.3 1.15944 142.344 1.33046 142.428Z" fill="white"/>
<path d="M4.2101 140.762C4.27689 140.785 4.33492 140.828 4.37603 140.885C4.41713 140.943 4.43924 141.012 4.43924 141.082C4.43924 141.153 4.41713 141.222 4.37603 141.279C4.33492 141.337 4.27689 141.38 4.2101 141.403C4.03908 141.487 3.85091 141.531 3.66017 141.531C3.46944 141.531 3.28126 141.487 3.11025 141.403C3.04346 141.38 2.98542 141.337 2.94432 141.279C2.90321 141.222 2.8811 141.153 2.8811 141.082C2.8811 141.012 2.90321 140.943 2.94432 140.885C2.98542 140.828 3.04346 140.785 3.11025 140.762C3.27986 140.673 3.46858 140.626 3.66017 140.626C3.85176 140.626 4.04048 140.673 4.2101 140.762Z" fill="white"/>
<path d="M7.09584 139.096C7.16342 139.117 7.22253 139.159 7.26451 139.216C7.30649 139.273 7.32914 139.342 7.32914 139.413C7.32914 139.484 7.30649 139.553 7.26451 139.61C7.22253 139.668 7.16342 139.71 7.09584 139.731C6.92623 139.82 6.73751 139.867 6.54592 139.867C6.35433 139.867 6.16561 139.82 5.996 139.731C5.92842 139.71 5.86931 139.668 5.82733 139.61C5.78535 139.553 5.7627 139.484 5.7627 139.413C5.7627 139.342 5.78535 139.273 5.82733 139.216C5.86931 139.159 5.92842 139.117 5.996 139.096C6.16561 139.007 6.35433 138.96 6.54592 138.96C6.73751 138.96 6.92623 139.007 7.09584 139.096Z" fill="white"/>
<path d="M1.33046 139.096C1.39521 139.12 1.4511 139.163 1.49058 139.22C1.53006 139.277 1.55122 139.344 1.55122 139.413C1.55122 139.483 1.53006 139.55 1.49058 139.607C1.4511 139.663 1.39521 139.707 1.33046 139.731C1.16085 139.82 0.972127 139.867 0.780539 139.867C0.588951 139.867 0.400231 139.82 0.230616 139.731C0.163039 139.71 0.10393 139.668 0.0619475 139.61C0.0199647 139.553 -0.00268555 139.484 -0.00268555 139.413C-0.00268555 139.342 0.0199647 139.273 0.0619475 139.216C0.10393 139.159 0.163039 139.117 0.230616 139.096C0.400231 139.007 0.588951 138.96 0.780539 138.96C0.972127 138.96 1.16085 139.007 1.33046 139.096Z" fill="white"/>
<path d="M3.6603 138.195C4.09138 138.195 4.44083 137.993 4.44083 137.744C4.44083 137.495 4.09138 137.293 3.6603 137.293C3.22922 137.293 2.87976 137.495 2.87976 137.744C2.87976 137.993 3.22922 138.195 3.6603 138.195Z" fill="white"/>
<path d="M61.8989 177.229C61.9657 177.252 62.0238 177.295 62.0649 177.352C62.106 177.41 62.1281 177.479 62.1281 177.549C62.1281 177.62 62.106 177.689 62.0649 177.746C62.0238 177.804 61.9657 177.847 61.8989 177.87C61.7279 177.954 61.5398 177.998 61.349 177.998C61.1583 177.998 60.9701 177.954 60.7991 177.87C60.7323 177.847 60.6743 177.804 60.6332 177.746C60.5921 177.689 60.5699 177.62 60.5699 177.549C60.5699 177.479 60.5921 177.41 60.6332 177.352C60.6743 177.295 60.7323 177.252 60.7991 177.229C60.9687 177.14 61.1574 177.093 61.349 177.093C61.5406 177.093 61.7293 177.14 61.8989 177.229Z" fill="white"/>
<path d="M64.7786 175.563C64.8454 175.586 64.9034 175.629 64.9445 175.686C64.9856 175.744 65.0077 175.812 65.0077 175.883C65.0077 175.954 64.9856 176.023 64.9445 176.08C64.9034 176.138 64.8454 176.181 64.7786 176.203C64.6076 176.288 64.4194 176.332 64.2287 176.332C64.0379 176.332 63.8497 176.288 63.6787 176.203C63.6119 176.181 63.5539 176.138 63.5128 176.08C63.4717 176.023 63.4496 175.954 63.4496 175.883C63.4496 175.812 63.4717 175.744 63.5128 175.686C63.5539 175.629 63.6119 175.586 63.6787 175.563C63.8483 175.474 64.0371 175.427 64.2287 175.427C64.4202 175.427 64.609 175.474 64.7786 175.563Z" fill="white"/>
<path d="M67.6584 173.897C67.726 173.918 67.7851 173.96 67.8271 174.017C67.869 174.074 67.8917 174.143 67.8917 174.214C67.8917 174.285 67.869 174.354 67.8271 174.411C67.7851 174.468 67.726 174.51 67.6584 174.531C67.4888 174.621 67.3 174.667 67.1085 174.667C66.9169 174.667 66.7281 174.621 66.5585 174.531C66.4938 174.507 66.4379 174.464 66.3984 174.407C66.3589 174.351 66.3378 174.283 66.3378 174.214C66.3378 174.145 66.3589 174.077 66.3984 174.021C66.4379 173.964 66.4938 173.921 66.5585 173.897C66.7281 173.807 66.9169 173.761 67.1085 173.761C67.3 173.761 67.4888 173.807 67.6584 173.897Z" fill="white"/>
<path d="M70.538 172.225C70.6048 172.247 70.6628 172.29 70.7039 172.348C70.745 172.405 70.7671 172.474 70.7671 172.545C70.7671 172.615 70.745 172.684 70.7039 172.742C70.6628 172.799 70.6048 172.842 70.538 172.865C70.3684 172.954 70.1796 173.001 69.9881 173.001C69.7965 173.001 69.6077 172.954 69.4381 172.865C69.3713 172.842 69.3133 172.799 69.2722 172.742C69.2311 172.684 69.209 172.615 69.209 172.545C69.209 172.474 69.2311 172.405 69.2722 172.348C69.3133 172.29 69.3713 172.247 69.4381 172.225C69.6091 172.14 69.7973 172.096 69.9881 172.096C70.1788 172.096 70.367 172.14 70.538 172.225Z" fill="white"/>
<path d="M73.4237 170.558C73.4905 170.581 73.5485 170.624 73.5896 170.681C73.6307 170.739 73.6528 170.808 73.6528 170.879C73.6528 170.949 73.6307 171.018 73.5896 171.076C73.5485 171.133 73.4905 171.176 73.4237 171.199C73.2516 171.284 73.0625 171.328 72.8708 171.328C72.6791 171.328 72.4899 171.284 72.3179 171.199C72.2511 171.176 72.1931 171.133 72.152 171.076C72.1109 171.018 72.0887 170.949 72.0887 170.879C72.0887 170.808 72.1109 170.739 72.152 170.681C72.1931 170.624 72.2511 170.581 72.3179 170.558C72.4891 170.471 72.6786 170.425 72.8708 170.425C73.063 170.425 73.2524 170.471 73.4237 170.558Z" fill="white"/>
<path d="M76.2797 168.892C76.3444 168.916 76.4003 168.959 76.4398 169.016C76.4793 169.073 76.5004 169.14 76.5004 169.209C76.5004 169.279 76.4793 169.346 76.4398 169.403C76.4003 169.46 76.3444 169.503 76.2797 169.527C76.1084 169.614 75.919 169.66 75.7268 169.66C75.5346 169.66 75.3451 169.614 75.1739 169.527C75.1091 169.503 75.0533 169.46 75.0138 169.403C74.9743 169.346 74.9531 169.279 74.9531 169.209C74.9531 169.14 74.9743 169.073 75.0138 169.016C75.0533 168.959 75.1091 168.916 75.1739 168.892C75.3451 168.805 75.5346 168.759 75.7268 168.759C75.919 168.759 76.1084 168.805 76.2797 168.892Z" fill="white"/>
<path d="M78.6331 167.991C79.0641 167.991 79.4136 167.789 79.4136 167.54C79.4136 167.291 79.0641 167.09 78.6331 167.09C78.202 167.09 77.8525 167.291 77.8525 167.54C77.8525 167.789 78.202 167.991 78.6331 167.991Z" fill="white"/>
<path d="M82.0627 165.554C82.1295 165.576 82.1876 165.62 82.2287 165.677C82.2698 165.734 82.2919 165.803 82.2919 165.874C82.2919 165.945 82.2698 166.014 82.2287 166.071C82.1876 166.129 82.1295 166.172 82.0627 166.194C81.8931 166.284 81.7044 166.33 81.5128 166.33C81.3212 166.33 81.1325 166.284 80.9629 166.194C80.8961 166.172 80.8381 166.129 80.797 166.071C80.7559 166.014 80.7338 165.945 80.7338 165.874C80.7338 165.803 80.7559 165.734 80.797 165.677C80.8381 165.62 80.8961 165.576 80.9629 165.554C81.1339 165.469 81.3221 165.425 81.5128 165.425C81.7036 165.425 81.8917 165.469 82.0627 165.554Z" fill="white"/>
<path d="M84.3925 164.658C84.8236 164.658 85.173 164.457 85.173 164.208C85.173 163.959 84.8236 163.757 84.3925 163.757C83.9614 163.757 83.6119 163.959 83.6119 164.208C83.6119 164.457 83.9614 164.658 84.3925 164.658Z" fill="white"/>
<path d="M87.2722 162.992C87.7033 162.992 88.0528 162.79 88.0528 162.542C88.0528 162.293 87.7033 162.091 87.2722 162.091C86.8411 162.091 86.4917 162.293 86.4917 162.542C86.4917 162.79 86.8411 162.992 87.2722 162.992Z" fill="white"/>
<path d="M90.1579 161.32C90.5889 161.32 90.9384 161.118 90.9384 160.869C90.9384 160.621 90.5889 160.419 90.1579 160.419C89.7268 160.419 89.3773 160.621 89.3773 160.869C89.3773 161.118 89.7268 161.32 90.1579 161.32Z" fill="white"/>
<path d="M93.5875 158.913C93.6543 158.935 93.7123 158.978 93.7534 159.036C93.7945 159.093 93.8166 159.162 93.8166 159.233C93.8166 159.304 93.7945 159.372 93.7534 159.43C93.7123 159.487 93.6543 159.53 93.5875 159.553C93.4162 159.641 93.2268 159.686 93.0346 159.686C92.8424 159.686 92.6529 159.641 92.4817 159.553C92.4149 159.53 92.3569 159.487 92.3158 159.43C92.2747 159.372 92.2526 159.304 92.2526 159.233C92.2526 159.162 92.2747 159.093 92.3158 159.036C92.3569 158.978 92.4149 158.935 92.4817 158.913C92.6535 158.827 92.8427 158.782 93.0346 158.782C93.2264 158.782 93.4157 158.827 93.5875 158.913Z" fill="white"/>
<path d="M96.4672 157.217C96.534 157.239 96.592 157.283 96.6331 157.34C96.6742 157.397 96.6963 157.466 96.6963 157.537C96.6963 157.608 96.6742 157.677 96.6331 157.734C96.592 157.792 96.534 157.835 96.4672 157.857C96.2962 157.942 96.108 157.986 95.9173 157.986C95.7265 157.986 95.5383 157.942 95.3673 157.857C95.3005 157.835 95.2425 157.792 95.2014 157.734C95.1603 157.677 95.1382 157.608 95.1382 157.537C95.1382 157.466 95.1603 157.397 95.2014 157.34C95.2425 157.283 95.3005 157.239 95.3673 157.217C95.5369 157.128 95.7257 157.081 95.9173 157.081C96.1088 157.081 96.2976 157.128 96.4672 157.217Z" fill="white"/>
<path d="M99.341 155.551C99.4085 155.572 99.4676 155.614 99.5096 155.671C99.5516 155.728 99.5743 155.797 99.5743 155.868C99.5743 155.939 99.5516 156.008 99.5096 156.065C99.4676 156.122 99.4085 156.164 99.341 156.185C99.1713 156.274 98.9826 156.321 98.791 156.321C98.5995 156.321 98.4107 156.274 98.2411 156.185C98.1735 156.164 98.1144 156.122 98.0724 156.065C98.0305 156.008 98.0078 155.939 98.0078 155.868C98.0078 155.797 98.0305 155.728 98.0724 155.671C98.1144 155.614 98.1735 155.572 98.2411 155.551C98.4107 155.461 98.5995 155.415 98.791 155.415C98.9826 155.415 99.1713 155.461 99.341 155.551Z" fill="white"/>
<path d="M102.227 153.879C102.293 153.901 102.351 153.944 102.393 154.002C102.434 154.059 102.456 154.128 102.456 154.199C102.456 154.269 102.434 154.338 102.393 154.396C102.351 154.453 102.293 154.496 102.227 154.519C102.057 154.608 101.868 154.655 101.677 154.655C101.485 154.655 101.296 154.608 101.127 154.519C101.06 154.496 101.002 154.453 100.961 154.396C100.92 154.338 100.898 154.269 100.898 154.199C100.898 154.128 100.92 154.059 100.961 154.002C101.002 153.944 101.06 153.901 101.127 153.879C101.298 153.794 101.486 153.75 101.677 153.75C101.867 153.75 102.056 153.794 102.227 153.879Z" fill="white"/>
<path d="M59.0192 175.563C59.086 175.586 59.144 175.629 59.1851 175.686C59.2262 175.744 59.2483 175.812 59.2483 175.883C59.2483 175.954 59.2262 176.023 59.1851 176.08C59.144 176.138 59.086 176.181 59.0192 176.203C58.8482 176.288 58.66 176.332 58.4692 176.332C58.2785 176.332 58.0903 176.288 57.9193 176.203C57.8525 176.181 57.7945 176.138 57.7534 176.08C57.7123 176.023 57.6902 175.954 57.6902 175.883C57.6902 175.812 57.7123 175.744 57.7534 175.686C57.7945 175.629 57.8525 175.586 57.9193 175.563C58.0889 175.474 58.2777 175.427 58.4692 175.427C58.6608 175.427 58.8496 175.474 59.0192 175.563Z" fill="white"/>
<path d="M61.8988 173.897C61.9636 173.921 62.0195 173.964 62.0589 174.021C62.0984 174.077 62.1196 174.145 62.1196 174.214C62.1196 174.283 62.0984 174.351 62.0589 174.407C62.0195 174.464 61.9636 174.507 61.8988 174.531C61.7292 174.621 61.5405 174.667 61.3489 174.667C61.1573 174.667 60.9686 174.621 60.799 174.531C60.7314 174.51 60.6723 174.468 60.6303 174.411C60.5883 174.354 60.5657 174.285 60.5657 174.214C60.5657 174.143 60.5883 174.074 60.6303 174.017C60.6723 173.96 60.7314 173.918 60.799 173.897C60.9686 173.807 61.1573 173.761 61.3489 173.761C61.5405 173.761 61.7292 173.807 61.8988 173.897Z" fill="white"/>
<path d="M64.7786 172.225C64.8454 172.247 64.9034 172.29 64.9445 172.348C64.9856 172.405 65.0077 172.474 65.0077 172.545C65.0077 172.615 64.9856 172.684 64.9445 172.742C64.9034 172.799 64.8454 172.842 64.7786 172.865C64.609 172.954 64.4202 173.001 64.2287 173.001C64.0371 173.001 63.8483 172.954 63.6787 172.865C63.6119 172.842 63.5539 172.799 63.5128 172.742C63.4717 172.684 63.4496 172.615 63.4496 172.545C63.4496 172.474 63.4717 172.405 63.5128 172.348C63.5539 172.29 63.6119 172.247 63.6787 172.225C63.8497 172.14 64.0379 172.096 64.2287 172.096C64.4194 172.096 64.6076 172.14 64.7786 172.225Z" fill="white"/>
<path d="M67.6583 170.558C67.7251 170.581 67.7832 170.624 67.8243 170.682C67.8654 170.739 67.8875 170.808 67.8875 170.879C67.8875 170.949 67.8654 171.018 67.8243 171.076C67.7832 171.133 67.7251 171.176 67.6583 171.199C67.4873 171.283 67.2991 171.328 67.1084 171.328C66.9177 171.328 66.7295 171.283 66.5585 171.199C66.4917 171.176 66.4337 171.133 66.3926 171.076C66.3515 171.018 66.3293 170.949 66.3293 170.879C66.3293 170.808 66.3515 170.739 66.3926 170.682C66.4337 170.624 66.4917 170.581 66.5585 170.558C66.7281 170.469 66.9168 170.422 67.1084 170.422C67.3 170.422 67.4887 170.469 67.6583 170.558Z" fill="white"/>
<path d="M70.538 168.892C70.8455 169.07 70.8455 169.355 70.538 169.527C70.3684 169.616 70.1797 169.663 69.9881 169.663C69.7965 169.663 69.6078 169.616 69.4382 169.527C69.3734 169.503 69.3175 169.46 69.2781 169.403C69.2386 169.346 69.2174 169.279 69.2174 169.209C69.2174 169.14 69.2386 169.073 69.2781 169.016C69.3175 168.959 69.3734 168.916 69.4382 168.892C69.6078 168.803 69.7965 168.756 69.9881 168.756C70.1797 168.756 70.3684 168.803 70.538 168.892Z" fill="white"/>
<path d="M73.4237 167.214C73.4884 167.238 73.5443 167.281 73.5838 167.338C73.6233 167.395 73.6445 167.462 73.6445 167.531C73.6445 167.601 73.6233 167.668 73.5838 167.725C73.5443 167.782 73.4884 167.825 73.4237 167.849C73.2524 167.936 73.063 167.982 72.8708 167.982C72.6786 167.982 72.4892 167.936 72.3179 167.849C72.2532 167.825 72.1973 167.782 72.1578 167.725C72.1183 167.668 72.0972 167.601 72.0972 167.531C72.0972 167.462 72.1183 167.395 72.1578 167.338C72.1973 167.281 72.2532 167.238 72.3179 167.214C72.4892 167.127 72.6786 167.081 72.8708 167.081C73.063 167.081 73.2524 167.127 73.4237 167.214Z" fill="white"/>
<path d="M76.2796 165.554C76.3464 165.576 76.4044 165.62 76.4455 165.677C76.4867 165.734 76.5088 165.803 76.5088 165.874C76.5088 165.945 76.4867 166.014 76.4455 166.071C76.4044 166.129 76.3464 166.172 76.2796 166.194C76.1084 166.282 75.9189 166.327 75.7267 166.327C75.5346 166.327 75.3451 166.282 75.1738 166.194C75.1071 166.172 75.049 166.129 75.0079 166.071C74.9668 166.014 74.9447 165.945 74.9447 165.874C74.9447 165.803 74.9668 165.734 75.0079 165.677C75.049 165.62 75.1071 165.576 75.1738 165.554C75.3456 165.468 75.5349 165.424 75.7267 165.424C75.9186 165.424 76.1078 165.468 76.2796 165.554Z" fill="white"/>
<path d="M79.183 163.888C79.2498 163.91 79.3078 163.953 79.3489 164.011C79.39 164.068 79.4121 164.137 79.4121 164.208C79.4121 164.278 79.39 164.347 79.3489 164.405C79.3078 164.462 79.2498 164.505 79.183 164.528C79.012 164.613 78.8238 164.657 78.6331 164.657C78.4423 164.657 78.2542 164.613 78.0832 164.528C78.0164 164.505 77.9583 164.462 77.9172 164.405C77.8761 164.347 77.854 164.278 77.854 164.208C77.854 164.137 77.8761 164.068 77.9172 164.011C77.9583 163.953 78.0164 163.91 78.0832 163.888C78.2528 163.798 78.4415 163.752 78.6331 163.752C78.8247 163.752 79.0134 163.798 79.183 163.888Z" fill="white"/>
<path d="M82.0628 162.221C82.1303 162.242 82.1894 162.284 82.2314 162.342C82.2734 162.399 82.2961 162.468 82.2961 162.539C82.2961 162.61 82.2734 162.679 82.2314 162.736C82.1894 162.793 82.1303 162.835 82.0628 162.856C81.8931 162.945 81.7044 162.992 81.5128 162.992C81.3213 162.992 81.1325 162.945 80.9629 162.856C80.8953 162.835 80.8362 162.793 80.7942 162.736C80.7523 162.679 80.7296 162.61 80.7296 162.539C80.7296 162.468 80.7523 162.399 80.7942 162.342C80.8362 162.284 80.8953 162.242 80.9629 162.221C81.1325 162.132 81.3213 162.085 81.5128 162.085C81.7044 162.085 81.8931 162.132 82.0628 162.221Z" fill="white"/>
<path d="M84.9424 160.555C85.2499 160.727 85.2499 161.012 84.9424 161.19C84.7728 161.279 84.5841 161.326 84.3925 161.326C84.2009 161.326 84.0122 161.279 83.8426 161.19C83.7778 161.166 83.722 161.123 83.6825 161.066C83.643 161.009 83.6218 160.942 83.6218 160.872C83.6218 160.803 83.643 160.736 83.6825 160.679C83.722 160.622 83.7778 160.579 83.8426 160.555C84.0122 160.466 84.2009 160.419 84.3925 160.419C84.5841 160.419 84.7728 160.466 84.9424 160.555Z" fill="white"/>
<path d="M87.8222 158.913C87.889 158.935 87.947 158.978 87.9881 159.036C88.0292 159.093 88.0513 159.162 88.0513 159.233C88.0513 159.304 88.0292 159.373 87.9881 159.43C87.947 159.487 87.889 159.53 87.8222 159.553C87.6525 159.642 87.4638 159.689 87.2722 159.689C87.0806 159.689 86.8919 159.642 86.7223 159.553C86.6555 159.53 86.5975 159.487 86.5564 159.43C86.5153 159.373 86.4932 159.304 86.4932 159.233C86.4932 159.162 86.5153 159.093 86.5564 159.036C86.5975 158.978 86.6555 158.935 86.7223 158.913C86.8933 158.828 87.0815 158.784 87.2722 158.784C87.463 158.784 87.6512 158.828 87.8222 158.913Z" fill="white"/>
<path d="M90.1579 157.988C90.5889 157.988 90.9384 157.786 90.9384 157.537C90.9384 157.288 90.5889 157.086 90.1579 157.086C89.7268 157.086 89.3773 157.288 89.3773 157.537C89.3773 157.786 89.7268 157.988 90.1579 157.988Z" fill="white"/>
<path d="M93.0376 156.321C93.4687 156.321 93.8182 156.12 93.8182 155.871C93.8182 155.622 93.4687 155.42 93.0376 155.42C92.6065 155.42 92.2571 155.622 92.2571 155.871C92.2571 156.12 92.6065 156.321 93.0376 156.321Z" fill="white"/>
<path d="M95.9173 154.649C96.3483 154.649 96.6978 154.448 96.6978 154.199C96.6978 153.95 96.3483 153.748 95.9173 153.748C95.4862 153.748 95.1367 153.95 95.1367 154.199C95.1367 154.448 95.4862 154.649 95.9173 154.649Z" fill="white"/>
<path d="M98.797 152.983C99.2281 152.983 99.5776 152.781 99.5776 152.532C99.5776 152.284 99.2281 152.082 98.797 152.082C98.3659 152.082 98.0165 152.284 98.0165 152.532C98.0165 152.781 98.3659 152.983 98.797 152.983Z" fill="white"/>
<path d="M56.1395 173.897C56.2043 173.921 56.2601 173.964 56.2996 174.021C56.3391 174.077 56.3603 174.145 56.3603 174.214C56.3603 174.283 56.3391 174.351 56.2996 174.407C56.2601 174.464 56.2043 174.507 56.1395 174.531C55.9683 174.619 55.7788 174.664 55.5866 174.664C55.3944 174.664 55.205 174.619 55.0337 174.531C54.969 174.507 54.9131 174.464 54.8736 174.407C54.8342 174.351 54.813 174.283 54.813 174.214C54.813 174.145 54.8342 174.077 54.8736 174.021C54.9131 173.964 54.969 173.921 55.0337 173.897C55.205 173.809 55.3944 173.764 55.5866 173.764C55.7788 173.764 55.9683 173.809 56.1395 173.897Z" fill="white"/>
<path d="M59.0192 172.225C59.086 172.247 59.144 172.29 59.1851 172.348C59.2262 172.405 59.2483 172.474 59.2483 172.545C59.2483 172.615 59.2262 172.684 59.1851 172.742C59.144 172.799 59.086 172.842 59.0192 172.865C58.8496 172.954 58.6608 173.001 58.4692 173.001C58.2777 173.001 58.0889 172.954 57.9193 172.865C57.8525 172.842 57.7945 172.799 57.7534 172.742C57.7123 172.684 57.6902 172.615 57.6902 172.545C57.6902 172.474 57.7123 172.405 57.7534 172.348C57.7945 172.29 57.8525 172.247 57.9193 172.225C58.0903 172.14 58.2785 172.096 58.4692 172.096C58.66 172.096 58.8482 172.14 59.0192 172.225Z" fill="white"/>
<path d="M61.8989 170.558C61.9657 170.581 62.0238 170.624 62.0649 170.682C62.106 170.739 62.1281 170.808 62.1281 170.879C62.1281 170.949 62.106 171.018 62.0649 171.076C62.0238 171.133 61.9657 171.176 61.8989 171.199C61.7279 171.283 61.5398 171.328 61.349 171.328C61.1583 171.328 60.9701 171.283 60.7991 171.199C60.7323 171.176 60.6743 171.133 60.6332 171.076C60.5921 171.018 60.5699 170.949 60.5699 170.879C60.5699 170.808 60.5921 170.739 60.6332 170.682C60.6743 170.624 60.7323 170.581 60.7991 170.558C60.9687 170.469 61.1574 170.422 61.349 170.422C61.5406 170.422 61.7293 170.469 61.8989 170.558Z" fill="white"/>
<path d="M64.7786 168.892C65.0861 169.07 65.0861 169.355 64.7786 169.527C64.609 169.616 64.4202 169.663 64.2287 169.663C64.0371 169.663 63.8483 169.616 63.6787 169.527C63.3712 169.355 63.3712 169.07 63.6787 168.892C63.8483 168.803 64.0371 168.756 64.2287 168.756C64.4202 168.756 64.609 168.803 64.7786 168.892Z" fill="white"/>
<path d="M67.6584 167.214C67.9659 167.386 67.9659 167.671 67.6584 167.849C67.4888 167.938 67.3 167.985 67.1085 167.985C66.9169 167.985 66.7281 167.938 66.5585 167.849C66.4938 167.825 66.4379 167.781 66.3984 167.725C66.3589 167.668 66.3378 167.6 66.3378 167.531C66.3378 167.462 66.3589 167.395 66.3984 167.338C66.4379 167.281 66.4938 167.238 66.5585 167.214C66.7281 167.125 66.9169 167.078 67.1085 167.078C67.3 167.078 67.4888 167.125 67.6584 167.214Z" fill="white"/>
<path d="M70.538 165.554C70.6048 165.576 70.6628 165.62 70.7039 165.677C70.745 165.734 70.7671 165.803 70.7671 165.874C70.7671 165.945 70.745 166.014 70.7039 166.071C70.6628 166.129 70.6048 166.172 70.538 166.194C70.3684 166.284 70.1796 166.33 69.9881 166.33C69.7965 166.33 69.6077 166.284 69.4381 166.194C69.3713 166.172 69.3133 166.129 69.2722 166.071C69.2311 166.014 69.209 165.945 69.209 165.874C69.209 165.803 69.2311 165.734 69.2722 165.677C69.3133 165.62 69.3713 165.576 69.4381 165.554C69.6091 165.469 69.7973 165.425 69.9881 165.425C70.1788 165.425 70.367 165.469 70.538 165.554Z" fill="white"/>
<path d="M73.4237 163.888C73.4905 163.91 73.5485 163.953 73.5896 164.011C73.6307 164.068 73.6528 164.137 73.6528 164.208C73.6528 164.278 73.6307 164.347 73.5896 164.405C73.5485 164.462 73.4905 164.505 73.4237 164.528C73.2516 164.613 73.0625 164.657 72.8708 164.657C72.6791 164.657 72.4899 164.613 72.3179 164.528C72.2511 164.505 72.1931 164.462 72.152 164.405C72.1109 164.347 72.0887 164.278 72.0887 164.208C72.0887 164.137 72.1109 164.068 72.152 164.011C72.1931 163.953 72.2511 163.91 72.3179 163.888C72.4891 163.8 72.6786 163.755 72.8708 163.755C73.063 163.755 73.2524 163.8 73.4237 163.888Z" fill="white"/>
<path d="M75.7534 162.992C76.1845 162.992 76.534 162.79 76.534 162.542C76.534 162.293 76.1845 162.091 75.7534 162.091C75.3224 162.091 74.9729 162.293 74.9729 162.542C74.9729 162.79 75.3224 162.992 75.7534 162.992Z" fill="white"/>
<path d="M79.183 160.555C79.2477 160.579 79.3036 160.622 79.3431 160.679C79.3826 160.736 79.4037 160.803 79.4037 160.872C79.4037 160.942 79.3826 161.009 79.3431 161.066C79.3036 161.123 79.2477 161.166 79.183 161.19C79.0134 161.279 78.8247 161.326 78.6331 161.326C78.4415 161.326 78.2528 161.279 78.0832 161.19C77.7757 161.012 77.7757 160.727 78.0832 160.555C78.2528 160.466 78.4415 160.419 78.6331 160.419C78.8247 160.419 79.0134 160.466 79.183 160.555Z" fill="white"/>
<path d="M82.0627 158.913C82.1295 158.935 82.1876 158.978 82.2287 159.036C82.2698 159.093 82.2919 159.162 82.2919 159.233C82.2919 159.304 82.2698 159.373 82.2287 159.43C82.1876 159.487 82.1295 159.53 82.0627 159.553C81.8931 159.642 81.7044 159.689 81.5128 159.689C81.3212 159.689 81.1325 159.642 80.9629 159.553C80.8961 159.53 80.8381 159.487 80.797 159.43C80.7559 159.373 80.7338 159.304 80.7338 159.233C80.7338 159.162 80.7559 159.093 80.797 159.036C80.8381 158.978 80.8961 158.935 80.9629 158.913C81.1339 158.828 81.3221 158.784 81.5128 158.784C81.7036 158.784 81.8917 158.828 82.0627 158.913Z" fill="white"/>
<path d="M84.9425 157.217C85.0093 157.239 85.0673 157.283 85.1085 157.34C85.1496 157.397 85.1717 157.466 85.1717 157.537C85.1717 157.608 85.1496 157.677 85.1085 157.734C85.0673 157.792 85.0093 157.835 84.9425 157.857C84.7715 157.942 84.5833 157.986 84.3926 157.986C84.2019 157.986 84.0137 157.942 83.8427 157.857C83.7759 157.835 83.7178 157.792 83.6767 157.734C83.6356 157.677 83.6135 157.608 83.6135 157.537C83.6135 157.466 83.6356 157.397 83.6767 157.34C83.7178 157.283 83.7759 157.239 83.8427 157.217C84.0123 157.128 84.201 157.081 84.3926 157.081C84.5842 157.081 84.7729 157.128 84.9425 157.217Z" fill="white"/>
<path d="M87.8221 155.551C87.8897 155.572 87.9488 155.614 87.9907 155.671C88.0327 155.728 88.0554 155.797 88.0554 155.868C88.0554 155.939 88.0327 156.008 87.9907 156.065C87.9488 156.122 87.8897 156.164 87.8221 156.185C87.6525 156.274 87.4637 156.321 87.2721 156.321C87.0806 156.321 86.8918 156.274 86.7222 156.185C86.6575 156.161 86.6016 156.118 86.5621 156.061C86.5226 156.005 86.5015 155.937 86.5015 155.868C86.5015 155.799 86.5226 155.731 86.5621 155.674C86.6016 155.618 86.6575 155.574 86.7222 155.551C86.8918 155.461 87.0806 155.415 87.2721 155.415C87.4637 155.415 87.6525 155.461 87.8221 155.551Z" fill="white"/>
<path d="M90.7077 153.879C90.7745 153.901 90.8325 153.944 90.8736 154.002C90.9147 154.059 90.9369 154.128 90.9369 154.199C90.9369 154.269 90.9147 154.338 90.8736 154.396C90.8325 154.453 90.7745 154.496 90.7077 154.519C90.5365 154.606 90.347 154.652 90.1548 154.652C89.9626 154.652 89.7732 154.606 89.6019 154.519C89.5352 154.496 89.4771 154.453 89.436 154.396C89.3949 154.338 89.3728 154.269 89.3728 154.199C89.3728 154.128 89.3949 154.059 89.436 154.002C89.4771 153.944 89.5352 153.901 89.6019 153.879C89.774 153.794 89.9631 153.75 90.1548 153.75C90.3465 153.75 90.5357 153.794 90.7077 153.879Z" fill="white"/>
<path d="M93.0376 152.983C93.4687 152.983 93.8182 152.781 93.8182 152.532C93.8182 152.284 93.4687 152.082 93.0376 152.082C92.6065 152.082 92.2571 152.284 92.2571 152.532C92.2571 152.781 92.6065 152.983 93.0376 152.983Z" fill="white"/>
<path d="M95.9173 151.317C96.3483 151.317 96.6978 151.115 96.6978 150.866C96.6978 150.617 96.3483 150.416 95.9173 150.416C95.4862 150.416 95.1367 150.617 95.1367 150.866C95.1367 151.115 95.4862 151.317 95.9173 151.317Z" fill="white"/>
<path d="M53.2184 172.207C53.2852 172.229 53.3432 172.272 53.3843 172.33C53.4254 172.387 53.4475 172.456 53.4475 172.527C53.4475 172.598 53.4254 172.667 53.3843 172.724C53.3432 172.781 53.2852 172.825 53.2184 172.847C53.0488 172.936 52.8601 172.983 52.6685 172.983C52.4769 172.983 52.2882 172.936 52.1186 172.847C52.0518 172.825 51.9937 172.781 51.9526 172.724C51.9115 172.667 51.8894 172.598 51.8894 172.527C51.8894 172.456 51.9115 172.387 51.9526 172.33C51.9937 172.272 52.0518 172.229 52.1186 172.207C52.2896 172.122 52.4777 172.078 52.6685 172.078C52.8592 172.078 53.0474 172.122 53.2184 172.207Z" fill="white"/>
<path d="M55.56 171.311C55.991 171.311 56.3405 171.11 56.3405 170.861C56.3405 170.612 55.991 170.41 55.56 170.41C55.1289 170.41 54.7794 170.612 54.7794 170.861C54.7794 171.11 55.1289 171.311 55.56 171.311Z" fill="white"/>
<path d="M58.9955 168.874C59.0602 168.898 59.1161 168.941 59.1556 168.998C59.1951 169.055 59.2162 169.122 59.2162 169.192C59.2162 169.261 59.1951 169.328 59.1556 169.385C59.1161 169.442 59.0602 169.485 58.9955 169.509C58.8242 169.596 58.6348 169.642 58.4426 169.642C58.2504 169.642 58.061 169.596 57.8897 169.509C57.825 169.485 57.7691 169.442 57.7296 169.385C57.6901 169.328 57.6689 169.261 57.6689 169.192C57.6689 169.122 57.6901 169.055 57.7296 168.998C57.7691 168.941 57.825 168.898 57.8897 168.874C58.061 168.787 58.2504 168.741 58.4426 168.741C58.6348 168.741 58.8242 168.787 58.9955 168.874Z" fill="white"/>
<path d="M50.3505 170.541C50.4173 170.563 50.4753 170.606 50.5164 170.664C50.5575 170.721 50.5796 170.79 50.5796 170.861C50.5796 170.932 50.5575 171 50.5164 171.058C50.4753 171.115 50.4173 171.158 50.3505 171.181C50.1795 171.266 49.9913 171.31 49.8006 171.31C49.6098 171.31 49.4216 171.266 49.2506 171.181C49.1838 171.158 49.1258 171.115 49.0847 171.058C49.0436 171 49.0215 170.932 49.0215 170.861C49.0215 170.79 49.0436 170.721 49.0847 170.664C49.1258 170.606 49.1838 170.563 49.2506 170.541C49.4202 170.451 49.609 170.405 49.8006 170.405C49.9921 170.405 50.1809 170.451 50.3505 170.541Z" fill="white"/>
<path d="M52.6803 169.645C53.1114 169.645 53.4609 169.443 53.4609 169.195C53.4609 168.946 53.1114 168.744 52.6803 168.744C52.2492 168.744 51.8998 168.946 51.8998 169.195C51.8998 169.443 52.2492 169.645 52.6803 169.645Z" fill="white"/>
<path d="M55.56 167.973C55.991 167.973 56.3405 167.771 56.3405 167.522C56.3405 167.274 55.991 167.072 55.56 167.072C55.1289 167.072 54.7794 167.274 54.7794 167.522C54.7794 167.771 55.1289 167.973 55.56 167.973Z" fill="white"/>
<path d="M47.4708 168.874C47.5356 168.898 47.5915 168.942 47.631 168.998C47.6704 169.055 47.6916 169.122 47.6916 169.192C47.6916 169.261 47.6704 169.328 47.631 169.385C47.5915 169.442 47.5356 169.485 47.4708 169.509C47.3012 169.598 47.1125 169.645 46.9209 169.645C46.7293 169.645 46.5406 169.598 46.371 169.509C46.0635 169.337 46.0635 169.052 46.371 168.874C46.5406 168.785 46.7293 168.738 46.9209 168.738C47.1125 168.738 47.3012 168.785 47.4708 168.874Z" fill="white"/>
<path d="M50.3505 167.214C50.4181 167.235 50.4772 167.277 50.5191 167.334C50.5611 167.391 50.5838 167.46 50.5838 167.531C50.5838 167.602 50.5611 167.671 50.5191 167.728C50.4772 167.785 50.4181 167.828 50.3505 167.849C50.1809 167.938 49.9921 167.985 49.8006 167.985C49.609 167.985 49.4203 167.938 49.2506 167.849C49.1831 167.828 49.124 167.785 49.082 167.728C49.04 167.671 49.0173 167.602 49.0173 167.531C49.0173 167.46 49.04 167.391 49.082 167.334C49.124 167.277 49.1831 167.235 49.2506 167.214C49.4203 167.125 49.609 167.078 49.8006 167.078C49.9921 167.078 50.1809 167.125 50.3505 167.214Z" fill="white"/>
<path d="M53.2184 165.536C53.2852 165.559 53.3432 165.602 53.3843 165.659C53.4254 165.717 53.4475 165.785 53.4475 165.856C53.4475 165.927 53.4254 165.996 53.3843 166.053C53.3432 166.111 53.2852 166.154 53.2184 166.176C53.0488 166.266 52.8601 166.312 52.6685 166.312C52.4769 166.312 52.2882 166.266 52.1186 166.176C52.0518 166.154 51.9937 166.111 51.9526 166.053C51.9115 165.996 51.8894 165.927 51.8894 165.856C51.8894 165.785 51.9115 165.717 51.9526 165.659C51.9937 165.602 52.0518 165.559 52.1186 165.536C52.2896 165.451 52.4777 165.407 52.6685 165.407C52.8592 165.407 53.0474 165.451 53.2184 165.536Z" fill="white"/>
<path d="M44.5911 167.214C44.6558 167.238 44.7117 167.281 44.7512 167.338C44.7906 167.395 44.8118 167.462 44.8118 167.531C44.8118 167.601 44.7906 167.668 44.7512 167.725C44.7117 167.782 44.6558 167.825 44.5911 167.849C44.4198 167.936 44.2303 167.982 44.0382 167.982C43.846 167.982 43.6565 167.936 43.4853 167.849C43.4205 167.825 43.3647 167.782 43.3252 167.725C43.2857 167.668 43.2645 167.601 43.2645 167.531C43.2645 167.462 43.2857 167.395 43.3252 167.338C43.3647 167.281 43.4205 167.238 43.4853 167.214C43.6565 167.127 43.846 167.081 44.0382 167.081C44.2303 167.081 44.4198 167.127 44.5911 167.214Z" fill="white"/>
<path d="M47.4708 165.536C47.5376 165.559 47.5957 165.602 47.6368 165.659C47.6779 165.717 47.7 165.785 47.7 165.856C47.7 165.927 47.6779 165.996 47.6368 166.053C47.5957 166.111 47.5376 166.154 47.4708 166.176C47.3012 166.266 47.1125 166.312 46.9209 166.312C46.7293 166.312 46.5406 166.266 46.371 166.176C46.3042 166.154 46.2462 166.111 46.2051 166.053C46.164 165.996 46.1418 165.927 46.1418 165.856C46.1418 165.785 46.164 165.717 46.2051 165.659C46.2462 165.602 46.3042 165.559 46.371 165.536C46.542 165.451 46.7302 165.407 46.9209 165.407C47.1116 165.407 47.2998 165.451 47.4708 165.536Z" fill="white"/>
<path d="M50.3505 163.87C50.4173 163.892 50.4753 163.936 50.5164 163.993C50.5575 164.05 50.5796 164.119 50.5796 164.19C50.5796 164.261 50.5575 164.33 50.5164 164.387C50.4753 164.445 50.4173 164.488 50.3505 164.51C50.1795 164.595 49.9913 164.639 49.8006 164.639C49.6098 164.639 49.4216 164.595 49.2506 164.51C49.1838 164.488 49.1258 164.445 49.0847 164.387C49.0436 164.33 49.0215 164.261 49.0215 164.19C49.0215 164.119 49.0436 164.05 49.0847 163.993C49.1258 163.936 49.1838 163.892 49.2506 163.87C49.4202 163.78 49.609 163.734 49.8006 163.734C49.9921 163.734 50.1809 163.78 50.3505 163.87Z" fill="white"/>
<path d="M41.7114 165.536C41.7782 165.559 41.8362 165.602 41.8773 165.659C41.9184 165.717 41.9405 165.786 41.9405 165.856C41.9405 165.927 41.9184 165.996 41.8773 166.053C41.8362 166.111 41.7782 166.154 41.7114 166.176C41.5401 166.264 41.3507 166.31 41.1585 166.31C40.9663 166.31 40.7769 166.264 40.6056 166.176C40.5388 166.154 40.4808 166.111 40.4397 166.053C40.3986 165.996 40.3765 165.927 40.3765 165.856C40.3765 165.786 40.3986 165.717 40.4397 165.659C40.4808 165.602 40.5388 165.559 40.6056 165.536C40.7777 165.451 40.9668 165.407 41.1585 165.407C41.3502 165.407 41.5393 165.451 41.7114 165.536Z" fill="white"/>
<path d="M44.5911 163.87C44.6579 163.892 44.716 163.935 44.7571 163.993C44.7982 164.05 44.8203 164.119 44.8203 164.19C44.8203 164.261 44.7982 164.33 44.7571 164.387C44.716 164.444 44.6579 164.488 44.5911 164.51C44.4191 164.595 44.2299 164.639 44.0383 164.639C43.8466 164.639 43.6574 164.595 43.4854 164.51C43.4186 164.488 43.3605 164.444 43.3194 164.387C43.2783 164.33 43.2562 164.261 43.2562 164.19C43.2562 164.119 43.2783 164.05 43.3194 163.993C43.3605 163.935 43.4186 163.892 43.4854 163.87C43.6566 163.782 43.8461 163.737 44.0383 163.737C44.2304 163.737 44.4199 163.782 44.5911 163.87Z" fill="white"/>
<path d="M47.4708 162.204C47.5356 162.228 47.5915 162.271 47.631 162.327C47.6704 162.384 47.6916 162.452 47.6916 162.521C47.6916 162.59 47.6704 162.658 47.631 162.714C47.5915 162.771 47.5356 162.814 47.4708 162.838C47.3012 162.927 47.1125 162.974 46.9209 162.974C46.7293 162.974 46.5406 162.927 46.371 162.838C46.0635 162.666 46.0635 162.382 46.371 162.204C46.5406 162.114 46.7293 162.068 46.9209 162.068C47.1125 162.068 47.3012 162.114 47.4708 162.204Z" fill="white"/>
<path d="M38.8258 163.87C38.8926 163.892 38.9506 163.936 38.9918 163.993C39.0329 164.05 39.055 164.119 39.055 164.19C39.055 164.261 39.0329 164.33 38.9918 164.387C38.9506 164.445 38.8926 164.488 38.8258 164.51C38.6548 164.595 38.4666 164.639 38.2759 164.639C38.0852 164.639 37.897 164.595 37.726 164.51C37.6592 164.488 37.6011 164.445 37.56 164.387C37.5189 164.33 37.4968 164.261 37.4968 164.19C37.4968 164.119 37.5189 164.05 37.56 163.993C37.6011 163.936 37.6592 163.892 37.726 163.87C37.8956 163.78 38.0843 163.734 38.2759 163.734C38.4675 163.734 38.6562 163.78 38.8258 163.87Z" fill="white"/>
<path d="M41.7114 162.204C41.7762 162.227 41.832 162.271 41.8715 162.327C41.911 162.384 41.9322 162.452 41.9322 162.521C41.9322 162.59 41.911 162.658 41.8715 162.714C41.832 162.771 41.7762 162.814 41.7114 162.838C41.5402 162.926 41.3507 162.971 41.1585 162.971C40.9664 162.971 40.7769 162.926 40.6056 162.838C40.5409 162.814 40.485 162.771 40.4455 162.714C40.4061 162.658 40.3849 162.59 40.3849 162.521C40.3849 162.452 40.4061 162.384 40.4455 162.327C40.485 162.271 40.5409 162.227 40.6056 162.204C40.7769 162.116 40.9664 162.071 41.1585 162.071C41.3507 162.071 41.5402 162.116 41.7114 162.204Z" fill="white"/>
<path d="M44.0412 161.302C44.4722 161.302 44.8217 161.101 44.8217 160.852C44.8217 160.603 44.4722 160.401 44.0412 160.401C43.6101 160.401 43.2606 160.603 43.2606 160.852C43.2606 161.101 43.6101 161.302 44.0412 161.302Z" fill="white"/>
<path d="M35.9461 162.204C36.2536 162.382 36.2536 162.666 35.9461 162.838C35.7765 162.927 35.5878 162.974 35.3962 162.974C35.2046 162.974 35.0159 162.927 34.8462 162.838C34.7815 162.814 34.7256 162.771 34.6861 162.714C34.6467 162.658 34.6255 162.59 34.6255 162.521C34.6255 162.452 34.6467 162.384 34.6861 162.327C34.7256 162.271 34.7815 162.228 34.8462 162.204C35.0159 162.114 35.2046 162.068 35.3962 162.068C35.5878 162.068 35.7765 162.114 35.9461 162.204Z" fill="white"/>
<path d="M38.8259 160.537C39.1333 160.709 39.1333 160.994 38.8259 161.172C38.6562 161.261 38.4675 161.308 38.2759 161.308C38.0843 161.308 37.8956 161.261 37.726 161.172C37.6613 161.148 37.6054 161.105 37.5659 161.048C37.5264 160.991 37.5052 160.924 37.5052 160.855C37.5052 160.785 37.5264 160.718 37.5659 160.661C37.6054 160.604 37.6613 160.561 37.726 160.537C37.8956 160.448 38.0843 160.401 38.2759 160.401C38.4675 160.401 38.6562 160.448 38.8259 160.537Z" fill="white"/>
<path d="M41.1555 159.636C41.5866 159.636 41.9361 159.434 41.9361 159.185C41.9361 158.937 41.5866 158.735 41.1555 158.735C40.7245 158.735 40.375 158.937 40.375 159.185C40.375 159.434 40.7245 159.636 41.1555 159.636Z" fill="white"/>
<path d="M32.5164 161.302C32.9475 161.302 33.2969 161.101 33.2969 160.852C33.2969 160.603 32.9475 160.401 32.5164 160.401C32.0853 160.401 31.7358 160.603 31.7358 160.852C31.7358 161.101 32.0853 161.302 32.5164 161.302Z" fill="white"/>
<path d="M35.9461 158.865C36.0128 158.888 36.0709 158.931 36.112 158.988C36.1531 159.046 36.1752 159.115 36.1752 159.185C36.1752 159.256 36.1531 159.325 36.112 159.382C36.0709 159.44 36.0128 159.483 35.9461 159.506C35.7764 159.595 35.5877 159.642 35.3961 159.642C35.2045 159.642 35.0158 159.595 34.8462 159.506C34.7794 159.483 34.7214 159.44 34.6803 159.382C34.6392 159.325 34.6171 159.256 34.6171 159.185C34.6171 159.115 34.6392 159.046 34.6803 158.988C34.7214 158.931 34.7794 158.888 34.8462 158.865C35.0172 158.781 35.2054 158.736 35.3961 158.736C35.5869 158.736 35.775 158.781 35.9461 158.865Z" fill="white"/>
<path d="M38.8258 157.199C38.8926 157.222 38.9506 157.265 38.9918 157.322C39.0329 157.38 39.055 157.448 39.055 157.519C39.055 157.59 39.0329 157.659 38.9918 157.716C38.9506 157.774 38.8926 157.817 38.8258 157.839C38.6548 157.924 38.4666 157.968 38.2759 157.968C38.0852 157.968 37.897 157.924 37.726 157.839C37.6592 157.817 37.6011 157.774 37.56 157.716C37.5189 157.659 37.4968 157.59 37.4968 157.519C37.4968 157.448 37.5189 157.38 37.56 157.322C37.6011 157.265 37.6592 157.222 37.726 157.199C37.8956 157.11 38.0843 157.063 38.2759 157.063C38.4675 157.063 38.6562 157.11 38.8258 157.199Z" fill="white"/>
<path d="M30.157 158.847C30.2311 158.865 30.2971 158.907 30.3443 158.967C30.3916 159.026 30.4173 159.1 30.4173 159.177C30.4173 159.253 30.3916 159.327 30.3443 159.387C30.2971 159.446 30.2311 159.488 30.157 159.506C29.9858 159.593 29.7963 159.639 29.6042 159.639C29.412 159.639 29.2225 159.593 29.0513 159.506C28.9845 159.483 28.9265 159.44 28.8854 159.382C28.8443 159.325 28.8221 159.256 28.8221 159.185C28.8221 159.115 28.8443 159.046 28.8854 158.988C28.9265 158.931 28.9845 158.888 29.0513 158.865C29.222 158.778 29.4104 158.731 29.6021 158.727C29.7938 158.724 29.9837 158.765 30.157 158.847Z" fill="white"/>
<path d="M33.0427 157.181C33.1095 157.204 33.1676 157.247 33.2087 157.304C33.2498 157.362 33.2719 157.431 33.2719 157.501C33.2719 157.572 33.2498 157.641 33.2087 157.699C33.1676 157.756 33.1095 157.799 33.0427 157.822C32.8717 157.906 32.6835 157.95 32.4928 157.95C32.3021 157.95 32.1139 157.906 31.9429 157.822C31.8761 157.799 31.8181 157.756 31.777 157.699C31.7359 157.641 31.7137 157.572 31.7137 157.501C31.7137 157.431 31.7359 157.362 31.777 157.304C31.8181 157.247 31.8761 157.204 31.9429 157.181C32.1125 157.092 32.3012 157.045 32.4928 157.045C32.6844 157.045 32.8731 157.092 33.0427 157.181Z" fill="white"/>
<path d="M35.9224 155.515C36.2299 155.693 36.2299 155.978 35.9224 156.15C35.7528 156.239 35.564 156.286 35.3725 156.286C35.1809 156.286 34.9921 156.239 34.8225 156.15C34.515 155.978 34.515 155.693 34.8225 155.515C34.9921 155.426 35.1809 155.379 35.3725 155.379C35.564 155.379 35.7528 155.426 35.9224 155.515Z" fill="white"/>
<path d="M27.2833 157.181C27.3501 157.204 27.4081 157.247 27.4492 157.304C27.4903 157.362 27.5124 157.431 27.5124 157.501C27.5124 157.572 27.4903 157.641 27.4492 157.698C27.4081 157.756 27.3501 157.799 27.2833 157.822C27.1112 157.906 26.9221 157.951 26.7304 157.951C26.5387 157.951 26.3496 157.906 26.1775 157.822C26.1107 157.799 26.0527 157.756 26.0116 157.698C25.9705 157.641 25.9484 157.572 25.9484 157.501C25.9484 157.431 25.9705 157.362 26.0116 157.304C26.0527 157.247 26.1107 157.204 26.1775 157.181C26.3488 157.094 26.5382 157.048 26.7304 157.048C26.9226 157.048 27.112 157.094 27.2833 157.181Z" fill="white"/>
<path d="M30.1571 155.515C30.2218 155.539 30.2777 155.582 30.3172 155.639C30.3567 155.696 30.3778 155.763 30.3778 155.832C30.3778 155.901 30.3567 155.969 30.3172 156.026C30.2777 156.082 30.2218 156.126 30.1571 156.15C29.9858 156.237 29.7964 156.283 29.6042 156.283C29.412 156.283 29.2226 156.237 29.0513 156.15C28.9866 156.126 28.9307 156.082 28.8912 156.026C28.8517 155.969 28.8306 155.901 28.8306 155.832C28.8306 155.763 28.8517 155.696 28.8912 155.639C28.9307 155.582 28.9866 155.539 29.0513 155.515C29.2226 155.428 29.412 155.382 29.6042 155.382C29.7964 155.382 29.9858 155.428 30.1571 155.515Z" fill="white"/>
<path d="M32.4928 154.614C32.9239 154.614 33.2733 154.412 33.2733 154.163C33.2733 153.914 32.9239 153.712 32.4928 153.712C32.0617 153.712 31.7123 153.914 31.7123 154.163C31.7123 154.412 32.0617 154.614 32.4928 154.614Z" fill="white"/>
<path d="M24.3976 155.515C24.7051 155.693 24.7051 155.978 24.3976 156.15C24.228 156.239 24.0393 156.286 23.8477 156.286C23.6561 156.286 23.4674 156.239 23.2978 156.15C23.233 156.126 23.1772 156.082 23.1377 156.026C23.0982 155.969 23.077 155.901 23.077 155.832C23.077 155.763 23.0982 155.696 23.1377 155.639C23.1772 155.582 23.233 155.539 23.2978 155.515C23.4674 155.426 23.6561 155.379 23.8477 155.379C24.0393 155.379 24.228 155.426 24.3976 155.515Z" fill="white"/>
<path d="M27.2833 153.849C27.3481 153.873 27.4039 153.916 27.4434 153.973C27.4829 154.029 27.5041 154.097 27.5041 154.166C27.5041 154.235 27.4829 154.303 27.4434 154.359C27.4039 154.416 27.3481 154.459 27.2833 154.483C27.1121 154.571 26.9226 154.616 26.7304 154.616C26.5382 154.616 26.3488 154.571 26.1775 154.483C26.1128 154.459 26.0569 154.416 26.0174 154.359C25.978 154.303 25.9568 154.235 25.9568 154.166C25.9568 154.097 25.978 154.029 26.0174 153.973C26.0569 153.916 26.1128 153.873 26.1775 153.849C26.3488 153.761 26.5382 153.716 26.7304 153.716C26.9226 153.716 27.1121 153.761 27.2833 153.849Z" fill="white"/>
<path d="M30.157 152.177C30.2238 152.199 30.2819 152.242 30.323 152.3C30.3641 152.357 30.3862 152.426 30.3862 152.497C30.3862 152.568 30.3641 152.637 30.323 152.694C30.2819 152.751 30.2238 152.794 30.157 152.817C29.9858 152.905 29.7963 152.95 29.6042 152.95C29.412 152.95 29.2225 152.905 29.0513 152.817C28.9845 152.794 28.9265 152.751 28.8854 152.694C28.8443 152.637 28.8221 152.568 28.8221 152.497C28.8221 152.426 28.8443 152.357 28.8854 152.3C28.9265 152.242 28.9845 152.199 29.0513 152.177C29.2233 152.092 29.4125 152.048 29.6042 152.048C29.7959 152.048 29.985 152.092 30.157 152.177Z" fill="white"/>
<path d="M21.518 153.849C21.8255 154.021 21.8255 154.305 21.518 154.483C21.3484 154.573 21.1597 154.619 20.9681 154.619C20.7765 154.619 20.5878 154.573 20.4181 154.483C20.3534 154.459 20.2975 154.416 20.258 154.36C20.2186 154.303 20.1974 154.235 20.1974 154.166C20.1974 154.097 20.2186 154.029 20.258 153.973C20.2975 153.916 20.3534 153.873 20.4181 153.849C20.5878 153.76 20.7765 153.713 20.9681 153.713C21.1597 153.713 21.3484 153.76 21.518 153.849Z" fill="white"/>
<path d="M24.3977 152.177C24.4645 152.199 24.5225 152.242 24.5636 152.3C24.6048 152.357 24.6269 152.426 24.6269 152.497C24.6269 152.568 24.6048 152.636 24.5636 152.694C24.5225 152.751 24.4645 152.794 24.3977 152.817C24.2281 152.906 24.0394 152.953 23.8478 152.953C23.6562 152.953 23.4675 152.906 23.2979 152.817C23.2311 152.794 23.173 152.751 23.1319 152.694C23.0908 152.636 23.0687 152.568 23.0687 152.497C23.0687 152.426 23.0908 152.357 23.1319 152.3C23.173 152.242 23.2311 152.199 23.2979 152.177C23.4689 152.092 23.6571 152.048 23.8478 152.048C24.0385 152.048 24.2267 152.092 24.3977 152.177Z" fill="white"/>
<path d="M27.2833 150.511C27.3501 150.533 27.4081 150.576 27.4492 150.634C27.4903 150.691 27.5124 150.76 27.5124 150.831C27.5124 150.901 27.4903 150.97 27.4492 151.028C27.4081 151.085 27.3501 151.128 27.2833 151.151C27.1112 151.236 26.9221 151.28 26.7304 151.28C26.5387 151.28 26.3496 151.236 26.1775 151.151C26.1107 151.128 26.0527 151.085 26.0116 151.028C25.9705 150.97 25.9484 150.901 25.9484 150.831C25.9484 150.76 25.9705 150.691 26.0116 150.634C26.0527 150.576 26.1107 150.533 26.1775 150.511C26.3488 150.423 26.5382 150.377 26.7304 150.377C26.9226 150.377 27.112 150.423 27.2833 150.511Z" fill="white"/>
<path d="M104.024 152.23C104.195 152.143 104.385 152.097 104.577 152.097C104.769 152.097 104.959 152.143 105.13 152.23C105.197 152.251 105.257 152.293 105.299 152.35C105.341 152.407 105.363 152.476 105.363 152.547C105.363 152.618 105.341 152.687 105.299 152.744C105.257 152.801 105.197 152.844 105.13 152.864C104.959 152.951 104.771 152.995 104.58 152.995C104.389 152.995 104.201 152.951 104.03 152.864C103.965 152.841 103.909 152.799 103.869 152.742C103.829 152.686 103.807 152.618 103.806 152.549C103.806 152.48 103.826 152.412 103.865 152.355C103.904 152.298 103.96 152.254 104.024 152.23Z" fill="white"/>
<path d="M107.46 151.329C107.891 151.329 108.24 151.127 108.24 150.878C108.24 150.629 107.891 150.427 107.46 150.427C107.029 150.427 106.679 150.629 106.679 150.878C106.679 151.127 107.029 151.329 107.46 151.329Z" fill="white"/>
<path d="M110.895 148.892C110.962 148.914 111.02 148.957 111.061 149.015C111.102 149.072 111.124 149.141 111.124 149.212C111.124 149.283 111.102 149.351 111.061 149.409C111.02 149.466 110.962 149.509 110.895 149.532C110.723 149.617 110.534 149.661 110.342 149.661C110.151 149.661 109.962 149.617 109.79 149.532C109.723 149.509 109.665 149.466 109.624 149.409C109.583 149.351 109.56 149.283 109.56 149.212C109.56 149.141 109.583 149.072 109.624 149.015C109.665 148.957 109.723 148.914 109.79 148.892C109.961 148.804 110.15 148.759 110.342 148.759C110.535 148.759 110.724 148.804 110.895 148.892Z" fill="white"/>
<path d="M113.775 147.225C113.84 147.249 113.896 147.293 113.935 147.349C113.975 147.406 113.996 147.474 113.996 147.543C113.996 147.612 113.975 147.679 113.935 147.736C113.896 147.793 113.84 147.836 113.775 147.86C113.605 147.949 113.417 147.996 113.225 147.996C113.033 147.996 112.845 147.949 112.675 147.86C112.607 147.839 112.548 147.797 112.506 147.74C112.464 147.683 112.442 147.614 112.442 147.543C112.442 147.472 112.464 147.403 112.506 147.346C112.548 147.289 112.607 147.246 112.675 147.225C112.845 147.136 113.033 147.089 113.225 147.089C113.417 147.089 113.605 147.136 113.775 147.225Z" fill="white"/>
<path d="M116.655 145.559C116.962 145.731 116.962 146.016 116.655 146.194C116.485 146.283 116.296 146.33 116.105 146.33C115.913 146.33 115.724 146.283 115.555 146.194C115.247 146.016 115.247 145.731 115.555 145.559C115.724 145.47 115.913 145.423 116.105 145.423C116.296 145.423 116.485 145.47 116.655 145.559Z" fill="white"/>
<path d="M101.144 150.564C101.316 150.478 101.505 150.433 101.697 150.433C101.889 150.433 102.079 150.478 102.25 150.564C102.317 150.586 102.375 150.63 102.416 150.687C102.457 150.744 102.479 150.813 102.479 150.884C102.479 150.955 102.457 151.024 102.416 151.081C102.375 151.139 102.317 151.182 102.25 151.204C102.081 151.294 101.892 151.34 101.7 151.34C101.509 151.34 101.32 151.294 101.15 151.204C101.08 151.186 101.018 151.144 100.974 151.087C100.929 151.03 100.905 150.959 100.904 150.886C100.903 150.814 100.926 150.743 100.97 150.684C101.013 150.626 101.075 150.584 101.144 150.564Z" fill="white"/>
<path d="M105.13 148.892C105.197 148.914 105.255 148.957 105.296 149.015C105.337 149.072 105.359 149.141 105.359 149.212C105.359 149.283 105.337 149.352 105.296 149.409C105.255 149.466 105.197 149.509 105.13 149.532C104.959 149.617 104.771 149.661 104.58 149.661C104.389 149.661 104.201 149.617 104.03 149.532C103.963 149.509 103.905 149.466 103.864 149.409C103.823 149.352 103.801 149.283 103.801 149.212C103.801 149.141 103.823 149.072 103.864 149.015C103.905 148.957 103.963 148.914 104.03 148.892C104.2 148.802 104.389 148.756 104.58 148.756C104.772 148.756 104.96 148.802 105.13 148.892Z" fill="white"/>
<path d="M108.015 147.225C108.08 147.249 108.136 147.293 108.176 147.349C108.215 147.406 108.236 147.474 108.236 147.543C108.236 147.612 108.215 147.679 108.176 147.736C108.136 147.793 108.08 147.836 108.015 147.86C107.844 147.947 107.655 147.993 107.463 147.993C107.27 147.993 107.081 147.947 106.91 147.86C106.845 147.836 106.789 147.793 106.75 147.736C106.71 147.679 106.689 147.612 106.689 147.543C106.689 147.474 106.71 147.406 106.75 147.349C106.789 147.293 106.845 147.249 106.91 147.225C107.081 147.138 107.27 147.092 107.463 147.092C107.655 147.092 107.844 147.138 108.015 147.225Z" fill="white"/>
<path d="M110.895 145.559C110.96 145.583 111.016 145.626 111.055 145.683C111.095 145.74 111.116 145.807 111.116 145.876C111.116 145.946 111.095 146.013 111.055 146.07C111.016 146.127 110.96 146.17 110.895 146.194C110.724 146.281 110.535 146.327 110.342 146.327C110.15 146.327 109.961 146.281 109.79 146.194C109.725 146.17 109.669 146.127 109.629 146.07C109.59 146.013 109.569 145.946 109.569 145.876C109.569 145.807 109.59 145.74 109.629 145.683C109.669 145.626 109.725 145.583 109.79 145.559C109.961 145.472 110.15 145.426 110.342 145.426C110.535 145.426 110.724 145.472 110.895 145.559Z" fill="white"/>
<path d="M113.775 143.887C113.842 143.91 113.9 143.953 113.941 144.01C113.982 144.068 114.004 144.137 114.004 144.207C114.004 144.278 113.982 144.347 113.941 144.404C113.9 144.462 113.842 144.505 113.775 144.528C113.605 144.617 113.417 144.664 113.225 144.664C113.034 144.664 112.845 144.617 112.675 144.528C112.608 144.505 112.55 144.462 112.509 144.404C112.468 144.347 112.446 144.278 112.446 144.207C112.446 144.137 112.468 144.068 112.509 144.01C112.55 143.953 112.608 143.91 112.675 143.887C112.846 143.802 113.034 143.758 113.225 143.758C113.416 143.758 113.604 143.802 113.775 143.887Z" fill="white"/>
<path d="M98.2647 148.892C98.4357 148.807 98.6239 148.763 98.8147 148.763C99.0054 148.763 99.1936 148.807 99.3646 148.892C99.4314 148.914 99.4894 148.957 99.5305 149.015C99.5716 149.072 99.5937 149.141 99.5937 149.212C99.5937 149.283 99.5716 149.352 99.5305 149.409C99.4894 149.466 99.4314 149.509 99.3646 149.532C99.1933 149.62 99.0039 149.665 98.8117 149.665C98.6195 149.665 98.4301 149.62 98.2588 149.532C98.1922 149.509 98.1346 149.465 98.094 149.407C98.0534 149.35 98.032 149.28 98.0326 149.21C98.0333 149.139 98.056 149.07 98.0977 149.013C98.1393 148.956 98.1977 148.914 98.2647 148.892Z" fill="white"/>
<path d="M102.25 147.225C102.558 147.403 102.558 147.688 102.25 147.86C102.081 147.949 101.892 147.996 101.7 147.996C101.509 147.996 101.32 147.949 101.15 147.86C100.843 147.688 100.843 147.403 101.15 147.225C101.32 147.136 101.509 147.089 101.7 147.089C101.892 147.089 102.081 147.136 102.25 147.225Z" fill="white"/>
<path d="M105.13 145.559C105.437 145.731 105.437 146.016 105.13 146.194C104.96 146.283 104.772 146.33 104.58 146.33C104.388 146.33 104.2 146.283 104.03 146.194C103.965 146.17 103.909 146.127 103.87 146.07C103.83 146.013 103.809 145.946 103.809 145.877C103.809 145.807 103.83 145.74 103.87 145.683C103.909 145.626 103.965 145.583 104.03 145.559C104.2 145.47 104.388 145.423 104.58 145.423C104.772 145.423 104.96 145.47 105.13 145.559Z" fill="white"/>
<path d="M119.227 143.436C119.294 143.459 119.352 143.502 119.393 143.56C119.434 143.617 119.456 143.686 119.456 143.757C119.456 143.827 119.434 143.896 119.393 143.954C119.352 144.011 119.294 144.054 119.227 144.077C119.056 144.162 118.868 144.206 118.677 144.206C118.486 144.206 118.298 144.162 118.127 144.077C118.06 144.054 118.002 144.011 117.961 143.954C117.92 143.896 117.898 143.827 117.898 143.757C117.898 143.686 117.92 143.617 117.961 143.56C118.002 143.502 118.06 143.459 118.127 143.436C118.297 143.347 118.485 143.3 118.677 143.3C118.868 143.3 119.057 143.347 119.227 143.436Z" fill="white"/>
<path d="M122.107 141.77C122.173 141.793 122.231 141.836 122.273 141.893C122.314 141.951 122.336 142.02 122.336 142.09C122.336 142.161 122.314 142.23 122.273 142.288C122.231 142.345 122.173 142.388 122.107 142.411C121.936 142.495 121.747 142.539 121.557 142.539C121.366 142.539 121.178 142.495 121.007 142.411C120.94 142.388 120.882 142.345 120.841 142.288C120.8 142.23 120.778 142.161 120.778 142.09C120.778 142.02 120.8 141.951 120.841 141.893C120.882 141.836 120.94 141.793 121.007 141.77C121.176 141.681 121.365 141.634 121.557 141.634C121.748 141.634 121.937 141.681 122.107 141.77Z" fill="white"/>
<path d="M115.797 142.541C116.228 142.541 116.578 142.339 116.578 142.09C116.578 141.842 116.228 141.64 115.797 141.64C115.366 141.64 115.017 141.842 115.017 142.09C115.017 142.339 115.366 142.541 115.797 142.541Z" fill="white"/>
<path d="M118.677 140.869C119.108 140.869 119.458 140.667 119.458 140.418C119.458 140.169 119.108 139.968 118.677 139.968C118.246 139.968 117.896 140.169 117.896 140.418C117.896 140.667 118.246 140.869 118.677 140.869Z" fill="white"/>
<path d="M112.912 140.869C113.343 140.869 113.692 140.667 113.692 140.418C113.692 140.169 113.343 139.968 112.912 139.968C112.481 139.968 112.131 140.169 112.131 140.418C112.131 140.667 112.481 140.869 112.912 140.869Z" fill="white"/>
<path d="M115.797 139.203C116.228 139.203 116.578 139.001 116.578 138.752C116.578 138.503 116.228 138.302 115.797 138.302C115.366 138.302 115.017 138.503 115.017 138.752C115.017 139.001 115.366 139.203 115.797 139.203Z" fill="white"/>
<path d="M123.904 140.116C124.076 140.031 124.265 139.987 124.457 139.987C124.649 139.987 124.838 140.031 125.01 140.116C125.077 140.139 125.135 140.182 125.176 140.239C125.217 140.297 125.239 140.365 125.239 140.436C125.239 140.507 125.217 140.576 125.176 140.633C125.135 140.691 125.077 140.734 125.01 140.756C124.84 140.846 124.652 140.892 124.46 140.892C124.268 140.892 124.08 140.846 123.91 140.756C123.843 140.734 123.785 140.692 123.743 140.635C123.701 140.578 123.679 140.509 123.678 140.438C123.677 140.368 123.699 140.298 123.739 140.241C123.78 140.183 123.838 140.139 123.904 140.116Z" fill="white"/>
<path d="M127.34 139.221C127.771 139.221 128.12 139.019 128.12 138.77C128.12 138.521 127.771 138.319 127.34 138.319C126.909 138.319 126.559 138.521 126.559 138.77C126.559 139.019 126.909 139.221 127.34 139.221Z" fill="white"/>
<path d="M130.775 136.783C130.84 136.807 130.896 136.851 130.935 136.907C130.975 136.964 130.996 137.032 130.996 137.101C130.996 137.17 130.975 137.237 130.935 137.294C130.896 137.351 130.84 137.394 130.775 137.418C130.604 137.505 130.415 137.551 130.222 137.551C130.03 137.551 129.841 137.505 129.669 137.418C129.605 137.394 129.549 137.351 129.509 137.294C129.47 137.237 129.449 137.17 129.449 137.101C129.449 137.032 129.47 136.964 129.509 136.907C129.549 136.851 129.605 136.807 129.669 136.783C129.841 136.696 130.03 136.65 130.222 136.65C130.415 136.65 130.604 136.696 130.775 136.783Z" fill="white"/>
<path d="M121.025 138.45C121.194 138.36 121.383 138.314 121.574 138.314C121.766 138.314 121.955 138.36 122.124 138.45C122.191 138.472 122.249 138.515 122.29 138.573C122.331 138.63 122.353 138.699 122.353 138.77C122.353 138.841 122.331 138.91 122.29 138.967C122.249 139.024 122.191 139.068 122.124 139.09C121.952 139.175 121.763 139.219 121.571 139.219C121.38 139.219 121.191 139.175 121.019 139.09C120.952 139.067 120.894 139.023 120.854 138.965C120.813 138.908 120.792 138.839 120.792 138.768C120.793 138.697 120.816 138.628 120.857 138.571C120.899 138.514 120.957 138.472 121.025 138.45Z" fill="white"/>
<path d="M125.01 136.783C125.317 136.955 125.317 137.24 125.01 137.418C124.84 137.507 124.652 137.554 124.46 137.554C124.268 137.554 124.08 137.507 123.91 137.418C123.603 137.24 123.603 136.955 123.91 136.783C124.08 136.694 124.268 136.647 124.46 136.647C124.652 136.647 124.84 136.694 125.01 136.783Z" fill="white"/>
<path d="M127.89 135.111C127.957 135.134 128.015 135.177 128.056 135.234C128.097 135.292 128.119 135.361 128.119 135.432C128.119 135.502 128.097 135.571 128.056 135.629C128.015 135.686 127.957 135.729 127.89 135.752C127.72 135.841 127.531 135.888 127.34 135.888C127.148 135.888 126.96 135.841 126.79 135.752C126.723 135.729 126.665 135.686 126.624 135.629C126.583 135.571 126.561 135.502 126.561 135.432C126.561 135.361 126.583 135.292 126.624 135.234C126.665 135.177 126.723 135.134 126.79 135.111C126.961 135.027 127.149 134.983 127.34 134.983C127.531 134.983 127.719 135.027 127.89 135.111Z" fill="white"/>
<path d="M118.145 136.783C118.314 136.694 118.503 136.647 118.695 136.647C118.886 136.647 119.075 136.694 119.245 136.783C119.312 136.804 119.371 136.847 119.413 136.904C119.455 136.961 119.478 137.03 119.478 137.101C119.478 137.172 119.455 137.241 119.413 137.298C119.371 137.355 119.312 137.397 119.245 137.418C119.073 137.505 118.884 137.551 118.692 137.551C118.5 137.551 118.31 137.505 118.139 137.418C118.074 137.393 118.019 137.35 117.98 137.293C117.941 137.236 117.92 137.168 117.921 137.099C117.922 137.029 117.943 136.962 117.983 136.906C118.024 136.849 118.08 136.807 118.145 136.783Z" fill="white"/>
<path d="M122.13 135.111C122.197 135.134 122.255 135.177 122.296 135.234C122.337 135.292 122.359 135.361 122.359 135.432C122.359 135.502 122.337 135.571 122.296 135.629C122.255 135.686 122.197 135.729 122.13 135.752C121.961 135.841 121.772 135.888 121.58 135.888C121.389 135.888 121.2 135.841 121.03 135.752C120.964 135.729 120.906 135.686 120.864 135.629C120.823 135.571 120.801 135.502 120.801 135.432C120.801 135.361 120.823 135.292 120.864 135.234C120.906 135.177 120.964 135.134 121.03 135.111C121.201 135.027 121.39 134.983 121.58 134.983C121.771 134.983 121.959 135.027 122.13 135.111Z" fill="white"/>
<path d="M125.01 133.445C125.077 133.468 125.135 133.511 125.176 133.568C125.217 133.626 125.239 133.695 125.239 133.765C125.239 133.836 125.217 133.905 125.176 133.962C125.135 134.02 125.077 134.063 125.01 134.086C124.839 134.17 124.651 134.214 124.46 134.214C124.269 134.214 124.081 134.17 123.91 134.086C123.843 134.063 123.785 134.02 123.744 133.962C123.703 133.905 123.681 133.836 123.681 133.765C123.681 133.695 123.703 133.626 123.744 133.568C123.785 133.511 123.843 133.468 123.91 133.445C124.08 133.356 124.269 133.309 124.46 133.309C124.652 133.309 124.84 133.356 125.01 133.445Z" fill="white"/>
<path d="M108.016 143.887C108.082 143.91 108.14 143.953 108.181 144.01C108.223 144.068 108.245 144.137 108.245 144.207C108.245 144.278 108.223 144.347 108.181 144.404C108.14 144.462 108.082 144.505 108.016 144.528C107.844 144.615 107.655 144.661 107.463 144.661C107.271 144.661 107.081 144.615 106.91 144.528C106.843 144.505 106.785 144.462 106.744 144.404C106.703 144.347 106.681 144.278 106.681 144.207C106.681 144.137 106.703 144.068 106.744 144.01C106.785 143.953 106.843 143.91 106.91 143.887C107.082 143.802 107.271 143.758 107.463 143.758C107.654 143.758 107.844 143.802 108.016 143.887Z" fill="white"/>
<path d="M110.895 142.221C110.962 142.244 111.02 142.287 111.061 142.344C111.102 142.402 111.124 142.47 111.124 142.541C111.124 142.612 111.102 142.681 111.061 142.738C111.02 142.796 110.962 142.839 110.895 142.861C110.723 142.946 110.534 142.99 110.342 142.99C110.151 142.99 109.962 142.946 109.79 142.861C109.723 142.839 109.665 142.796 109.624 142.738C109.583 142.681 109.56 142.612 109.56 142.541C109.56 142.47 109.583 142.402 109.624 142.344C109.665 142.287 109.723 142.244 109.79 142.221C109.961 142.133 110.15 142.088 110.342 142.088C110.535 142.088 110.724 142.133 110.895 142.221Z" fill="white"/>
<path d="M58.3806 156.82C45.3717 156.82 36.2359 147.599 36.2359 134.4C36.2359 121.355 45.3421 112.194 58.3806 112.194C71.5492 112.194 80.7383 121.325 80.7383 134.4C80.7383 147.599 71.5492 156.82 58.3806 156.82ZM58.3806 113.972C46.3888 113.972 38.0098 122.375 38.0098 134.4C38.0098 146.555 46.3888 155.041 58.3806 155.041C70.6918 155.041 78.9643 146.739 78.9643 134.4C78.9643 122.375 70.5026 113.972 58.3806 113.972ZM77.4033 102.89H40.8008V101.989C40.8008 83.53 48.8309 74.5229 55.2821 67.2829C59.8175 62.1953 63.732 57.7956 63.732 51.4094C63.732 45.8771 61.2544 43.5172 55.4536 43.5172C48.281 43.5172 45.082 48.3379 45.082 59.1416V60.031H7.46838V59.1416C7.46838 42.3787 12.2403 28.5509 21.2638 19.1466C30.2872 9.74229 43.6569 4.74365 59.8412 4.74365C74.8843 4.74365 87.2782 8.26582 95.6985 14.9425C104.119 21.6192 108.672 31.6046 108.672 43.6713C108.672 60.4105 99.211 70.0342 90.8971 78.5195C83.9669 85.5994 77.4033 92.2761 77.4033 101.989V102.89ZM42.5984 101.111H75.647C76.0196 91.1495 82.6364 84.4075 89.6376 77.2802C98.1229 68.6349 106.898 59.6931 106.898 43.6832C106.898 20.0716 89.7499 6.53439 59.8412 6.53439C27.9752 6.53439 9.57938 25.3727 9.24824 58.264H43.3317C43.5209 46.9978 47.3881 41.7501 55.4655 41.7501C62.236 41.7501 65.5178 44.9165 65.5178 51.4213C65.5178 58.4893 61.3786 63.1203 56.6126 68.4807C50.1554 75.7385 42.8468 83.945 42.5748 101.111H42.5984Z" fill="white"/>
<path d="M63.0637 152.07C50.0252 152.07 40.9131 142.849 40.9131 129.65C40.9131 116.57 50.0252 107.438 63.0637 107.438C76.2264 107.438 85.4214 116.57 85.4214 129.65C85.4214 142.849 76.2264 152.07 63.0637 152.07ZM63.0637 109.217C51.066 109.217 42.687 117.619 42.687 129.65C42.687 141.8 51.066 150.291 63.0637 150.291C75.3749 150.291 83.6474 141.99 83.6474 129.65C83.6474 117.619 75.1798 109.217 63.0637 109.217ZM82.0864 98.1404H45.5312V97.2451C45.5312 78.7863 53.5554 69.7733 60.0066 62.5393C64.542 57.4458 68.4565 53.0519 68.4565 46.6599C68.4565 41.1276 65.9789 38.7676 60.1781 38.7676C53.0114 38.7676 49.8124 43.5883 49.8124 54.392V55.2815H12.1515V54.392C12.1515 37.6291 16.9175 23.8013 25.9469 14.4029C34.9763 5.00456 48.3341 0 64.5243 0C79.5614 0 91.9613 3.55775 100.376 10.1989C108.79 16.84 113.349 26.861 113.349 38.9336C113.349 55.6728 103.888 65.2906 95.5802 73.7758C88.6381 80.8439 82.0864 87.5265 82.0864 97.251V98.1404ZM47.2815 96.3616H80.3242C80.7027 86.3999 87.3195 79.652 94.3148 72.5306C102.8 63.8853 111.575 54.9435 111.575 38.9336C111.575 15.322 94.4271 1.77887 64.5243 1.77887C32.6524 1.77887 14.2625 20.6171 13.9254 53.5085H48.0089C48.1981 42.2423 52.0712 36.9946 60.1426 36.9946C66.9132 36.9946 70.195 40.161 70.195 46.6658C70.195 53.7338 66.0558 58.3648 61.3253 63.7252C54.8385 70.983 47.524 79.1895 47.3052 96.3616H47.2815Z" fill="#FEBD2E"/>
</svg>
