<svg width="18" height="18" viewBox="0 0 18 18" fill="none" xmlns="http://www.w3.org/2000/svg">
<g clip-path="url(#clip0)">
<path d="M0.311246 8.397L4.713 10.5908C4.88325 10.6748 5.08425 10.6688 5.247 10.5735L9.165 8.29575L6.7935 10.3973C6.67275 10.5045 6.60375 10.6575 6.60375 10.8188V15.9375C6.60375 16.4775 7.293 16.7048 7.61625 16.2758L9.519 13.746L14.2245 16.4258C14.5545 16.6155 14.9775 16.425 15.054 16.0478L17.9887 1.42275C18.0765 0.983252 17.6392 0.624752 17.2327 0.788252L0.357746 7.3695C-0.0952535 7.5465 -0.124504 8.18025 0.311246 8.397ZM16.6837 2.21025L14.1045 15.063L9.64575 12.5235C9.40275 12.3848 9.09 12.4463 8.9175 12.6743L7.72875 14.2545V11.0715L14.142 5.3895C14.6497 4.94025 14.0662 4.1415 13.4865 4.482L4.944 9.4485L1.95 7.95675L16.6837 2.21025Z" fill="#F7971D"/>
</g>
<defs>
<clipPath id="clip0">
<rect width="18" height="18" fill="white"/>
</clipPath>
</defs>
</svg>
