<svg width="18" height="18" viewBox="0 0 18 18" fill="none" xmlns="http://www.w3.org/2000/svg">
<g clip-path="url(#clip0)">
<path d="M17.3663 10.4198C17.9033 5.8995 17.1083 3.04574 15.6743 1.75499L15.6751 1.75424C13.3606 -0.450013 5.54406 -0.776263 2.77506 1.85324C1.53156 3.13949 1.09356 5.02725 1.04556 7.36425C0.99756 9.702 0.94056 14.0813 5.02131 15.2693H5.02506L5.02131 17.0835C5.02131 17.0835 4.99356 17.8185 5.46306 17.9663C6.00006 18.1403 6.24306 17.799 7.91331 15.804C10.7063 16.0463 12.8513 15.4913 13.0951 15.4103C13.6591 15.2213 16.8503 14.799 17.3663 10.4198ZM8.18856 14.5275C8.18856 14.5275 6.42081 16.7318 5.87106 17.304C5.69106 17.49 5.49381 17.4728 5.49681 17.1038C5.49681 16.8615 5.51031 14.0918 5.51031 14.0918C2.05056 13.1003 2.25456 9.37125 2.29206 7.4205C2.32956 5.469 2.68656 3.87074 3.73956 2.79449C6.16881 0.516739 13.0216 1.02599 14.7676 2.66699C16.9021 4.55924 16.1423 9.90525 16.1468 10.0875C15.7081 13.743 13.1221 13.9748 12.6466 14.133C12.4433 14.2005 10.5571 14.6858 8.18856 14.5275Z" fill="#F7971D"/>
<path d="M9.16651 3.22275C8.87776 3.22275 8.87776 3.67275 9.16651 3.6765C11.4068 3.69375 13.2518 5.25525 13.272 8.1195C13.272 8.42175 13.7145 8.418 13.7108 8.11575H13.71C13.686 5.0295 11.6715 3.24 9.16651 3.22275Z" fill="#F7971D"/>
<path d="M12.1132 7.64475C12.1065 7.94325 12.5482 7.9575 12.552 7.65525C12.5887 5.9535 11.5395 4.55175 9.56771 4.404C9.27895 4.383 9.24895 4.83675 9.53695 4.85775C11.247 4.9875 12.1477 6.1545 12.1132 7.64475Z" fill="#F7971D"/>
<path d="M11.6408 9.58049C11.2703 9.36599 10.893 9.49949 10.737 9.71024L10.4108 10.1325C10.245 10.347 9.93528 10.3185 9.93528 10.3185C7.67478 9.72074 7.07028 7.35524 7.07028 7.35524C7.07028 7.35524 7.04254 7.03499 7.24953 6.86324L7.65753 6.52574C7.86153 6.36374 7.99053 5.97374 7.78278 5.59049C7.22778 4.58774 6.85504 4.24199 6.66529 3.97649C6.46579 3.72674 6.16579 3.67049 5.85379 3.83924H5.84704C5.19829 4.21874 4.48804 4.92899 4.71529 5.66024C5.10304 6.43124 5.81554 8.88899 8.08653 10.746C9.15378 11.6242 10.8428 12.5242 11.5598 12.732L11.5665 12.7425C12.273 12.978 12.96 12.24 13.3268 11.5717V11.5665C13.4895 11.2432 13.4355 10.9372 13.1978 10.737C12.7763 10.326 12.1403 9.87224 11.6408 9.58049Z" fill="#F7971D"/>
<path d="M9.87676 6.07801C10.5975 6.12001 10.947 6.49651 10.9845 7.26976C10.998 7.57202 11.4368 7.55102 11.4233 7.24876C11.3753 6.23926 10.8488 5.67676 9.90076 5.62426C9.61201 5.60701 9.58501 6.06076 9.87676 6.07801Z" fill="#F7971D"/>
</g>
<defs>
<clipPath id="clip0">
<rect width="18" height="18" fill="white"/>
</clipPath>
</defs>
</svg>
